<svg width="30" height="30" viewBox="0 0 30 30" fill="none" xmlns="http://www.w3.org/2000/svg">
<g clip-path="url(#clip0)">
<path d="M29.0262 19.4039H1.38843L3.55276 23.1243L6.21613 22.1223L8.66854 23.1243L12.0703 22.6497L15.0501 23.1243L17.8717 22.1223L21.0361 22.887H26.8638L27.9977 21.674L29.0262 19.4039Z" fill="white"/>
<path d="M3.59003 6.05968L0.500122 5.51974L2.79993 3.75964C3.005 4.2847 3.28996 5.07457 3.59003 6.05968Z" fill="white"/>
<path d="M29 17.5195L27.645 17.7097L17.625 19.1045L10.6199 17.6495L10.0001 17.5195C10.5606 17.5209 11.1198 17.4673 11.67 17.3595C14.4999 16.8196 16.645 14.9947 17.975 13.5196C18.3762 13.0728 18.7518 12.6038 19.0999 12.1147C19.359 11.7471 19.8317 11.5977 20.2549 11.7496C21.2551 12.1097 22.3801 12.5395 23.5 13.0197C25.6938 14.0153 27.5896 15.5665 29 17.5195Z" fill="white"/>
<path d="M27.7501 17.8496L16.3749 19.4346L8.74994 17.8496C9.37868 17.851 10.0058 17.7839 10.6199 17.6495C10.9756 17.5742 11.3262 17.4774 11.67 17.3595C14.4999 16.8196 16.645 14.9947 17.975 13.5196C18.3763 13.0728 18.7518 12.6038 19.1 12.1147C20.075 12.4647 21.1649 12.8847 22.2501 13.3495C24.3917 14.3177 26.2491 15.8187 27.6451 17.7097C27.7151 17.7997 27.7501 17.8496 27.7501 17.8496V17.8496Z" fill="#E62E2E"/>
<path d="M8.00009 17.5195L4.16494 18.2696L3.60006 18.1346L0.999964 17.5195L0.509928 15.3097C0.476282 15.1481 0.527323 14.9803 0.644968 14.8647L1.1849 14.3296L1.50007 14.0197L5.99989 15.5196L8.00009 17.5195Z" fill="white"/>
<path d="M6.74993 17.5195L3.60006 18.1346L0.999964 17.5195L0.509928 15.3097C0.476282 15.1481 0.527323 14.9803 0.644968 14.8647L1.1849 14.3296L4.74996 15.5196L6.74993 17.5195Z" fill="#E62E2E"/>
<path d="M0.989928 17.5195H29.01C29.2806 17.5195 29.4998 17.739 29.4998 18.0096V19.0297C29.4998 19.3002 29.2806 19.5197 29.01 19.5197H0.989928C0.71939 19.5197 0.500122 19.3002 0.500122 19.0297V18.0096C0.500122 17.739 0.71939 17.5195 0.989928 17.5195V17.5195Z" fill="#E62E2E"/>
<path d="M29.0105 20.0196H0.989454C0.443343 20.0187 0.000915525 19.5763 0 19.0301V18.0091C0.000915525 17.463 0.443343 17.0206 0.989454 17.0197H29.0105C29.5566 17.0206 29.999 17.463 29.9999 18.0091V19.0301C29.999 19.5763 29.5566 20.0187 29.0105 20.0196V20.0196ZM28.9999 18.0091L0.989454 18.0196L0.999982 19.0301L28.9999 19.0196V18.0091Z" fill="#2944CC"/>
<path d="M0.593506 19.8102L1.40718 19.229L3.90703 22.7289L3.09335 23.31L0.593506 19.8102Z" fill="#2944CC"/>
<path d="M26.7775 23.4356L26.2225 22.6037C27.5724 21.7037 28.5264 19.3572 28.536 19.3336L29.4644 19.7051C29.4209 19.8131 28.3879 22.3622 26.7775 23.4356V23.4356Z" fill="#2944CC"/>
<path d="M10 18.0197C9.72379 18.0197 9.49994 17.7958 9.49994 17.5195C9.49994 17.2435 9.72379 17.0197 10 17.0197C15.6344 17.0197 19.0345 11.3246 19.0686 11.2697C19.2153 11.0509 19.5064 10.9836 19.7342 11.1154C19.9621 11.2475 20.0486 11.5336 19.9319 11.7696C19.7829 12.0266 16.216 18.0197 10 18.0197Z" fill="#2944CC"/>
<path d="M29 18.0196C28.8327 18.0199 28.6764 17.9366 28.5834 17.7976C27.2237 15.9281 25.4047 14.4406 23.3025 13.4791C21.0965 12.551 18.8425 11.7416 16.55 11.0545L15.7255 11.4672C15.607 11.527 15.4697 11.5363 15.344 11.4935L13.8439 10.9937C13.6743 10.9371 13.5475 10.7945 13.5116 10.6192C13.4756 10.4441 13.5358 10.2631 13.6697 10.1443C13.8034 10.0255 13.9904 9.98727 14.16 10.0436L15.4635 10.4775L16.2785 10.0701C16.3904 10.0143 16.5193 10.0021 16.6395 10.0367C19.0372 10.7469 21.3938 11.5888 23.6991 12.5581C25.9845 13.5876 27.9575 15.2028 29.418 17.2401C29.5216 17.3939 29.5317 17.5926 29.444 17.756C29.3564 17.9194 29.1854 18.021 29 18.0196V18.0196Z" fill="#2944CC"/>
<path d="M8.05596 14.1786C7.9802 14.4441 8.13378 14.7206 8.39905 14.7966L10.3226 15.3466L10.597 14.3853L8.67394 13.8353C8.40844 13.7595 8.13172 13.9131 8.05596 14.1786Z" fill="#2944CC"/>
<path d="M4.20505 12.5581L3.92993 13.5196L4.07252 13.5601L4.55295 13.6977C4.72484 13.7467 4.90977 13.7005 5.03818 13.5764C5.16658 13.4521 5.21899 13.269 5.17573 13.0955C5.13225 12.9223 4.99972 12.7854 4.82806 12.7362L4.34695 12.5986L4.20505 12.5581Z" fill="#2944CC"/>
<path d="M6.47598 14.2472C6.60392 14.2816 6.74011 14.2667 6.85752 14.2051L6.93557 14.1497C6.96144 14.128 6.98455 14.1033 7.00401 14.0756C7.02552 14.0522 7.04361 14.0259 7.05757 13.9971C7.07176 13.9669 7.08412 13.9355 7.09442 13.9037C7.12898 13.776 7.11387 13.6398 7.05253 13.5226C7.01911 13.4661 6.97517 13.4164 6.92298 13.3761C6.7646 13.2518 6.54808 13.2324 6.37001 13.3262C6.31324 13.3596 6.26358 13.4036 6.22352 13.4558C6.1821 13.5063 6.15143 13.5649 6.13289 13.6277C6.09512 13.7551 6.11 13.8925 6.17454 14.0087C6.23909 14.125 6.34781 14.2104 6.47598 14.2456V14.2472Z" fill="#2944CC"/>
<path d="M10.9866 15.4393C10.762 15.439 10.5384 15.4079 10.3226 15.3461C10.0568 15.2703 9.90303 14.9936 9.97879 14.7279C10.0545 14.4622 10.3313 14.3084 10.597 14.3841C10.8586 14.4599 11.1365 14.4583 11.3969 14.3791L15.7175 13.0827C15.8567 13.041 16.0011 13.0197 16.1465 13.0197H18C18.2762 13.0197 18.5001 13.2436 18.5001 13.5196C18.5001 13.7959 18.2762 14.0197 18 14.0197H16.1465C16.0977 14.02 16.0492 14.0271 16.0025 14.0406L11.6819 15.3372C11.4564 15.4047 11.2221 15.439 10.9866 15.4393Z" fill="#2944CC"/>
<path d="M8.0001 18.0197C7.86735 18.0197 7.74032 17.967 7.64648 17.8732L5.73005 15.9568L1.34193 14.4937C1.2046 14.448 1.09359 14.3447 1.0382 14.2108C0.982582 14.0772 0.987846 13.9259 1.05239 13.7961L1.27647 13.3461C1.52961 12.838 2.04917 12.5176 2.61703 12.5196H3.92989C4.02259 12.5194 4.11483 12.5322 4.20409 12.5576C4.37575 12.6066 4.50851 12.7433 4.55222 12.9165C4.59571 13.0898 4.54375 13.2731 4.41535 13.3976C4.28718 13.5219 4.10224 13.5686 3.93058 13.5196H2.61703C2.45521 13.5189 2.30346 13.5974 2.21053 13.7297L6.16057 15.0456C6.23405 15.0703 6.30088 15.1115 6.35604 15.1662L8.35601 17.1662C8.49929 17.3094 8.54186 17.525 8.46381 17.712C8.38576 17.8993 8.20266 18.0206 8.0001 18.0197Z" fill="#2944CC"/>
<path d="M1 18.0197C0.765858 18.0194 0.563297 17.8567 0.512486 17.6281L0.021534 15.4196C-0.0473595 15.0914 0.0538063 14.7503 0.29047 14.5127L1.14992 13.6636C1.34928 13.4883 1.65071 13.4993 1.8368 13.6885C2.02288 13.8778 2.0286 14.1795 1.85007 14.3756L0.995426 15.2198L1.48798 17.4118C1.51682 17.5411 1.49324 17.6768 1.42206 17.7887C1.35088 17.9009 1.23804 17.9798 1.10849 18.0087C1.07279 18.016 1.0364 18.0197 1 18.0197V18.0197Z" fill="#2944CC"/>
<path d="M20 12.0198C19.8326 12.0198 19.6763 11.9364 19.5836 11.7971C18.8576 10.7534 18.0421 9.77512 17.146 8.87309C16.9565 8.67694 16.9593 8.36521 17.1522 8.17226C17.3449 7.97931 17.6569 7.97656 17.853 8.16608C18.797 9.11319 19.6546 10.1427 20.4156 11.2423C20.5179 11.3956 20.5275 11.5927 20.4406 11.7554C20.3538 11.9179 20.1844 12.0195 20 12.0198Z" fill="#2944CC"/>
<path d="M9.32103 23.5197C8.018 23.5719 6.73581 23.1796 5.68501 22.4071C5.54013 22.2966 5.46689 22.116 5.49367 21.9358C5.52068 21.7555 5.64359 21.6042 5.81433 21.5408C5.98531 21.4774 6.17711 21.512 6.31512 21.6312C7.94614 22.9562 10.9095 22.5412 11.7621 22.0812C11.9195 21.9901 12.1141 21.9917 12.2702 22.0855C12.426 22.1794 12.5187 22.3503 12.5121 22.5323C12.5055 22.7143 12.4004 22.8779 12.2381 22.9601C11.3169 23.3533 10.3222 23.5442 9.32103 23.5197V23.5197Z" fill="#2944CC"/>
<path d="M14.681 23.5197C13.6787 23.5435 12.683 23.3517 11.7616 22.9571C11.6046 22.872 11.5048 22.7094 11.5002 22.5309C11.4954 22.3522 11.5862 22.1846 11.7387 22.0915C11.8909 21.9981 12.0815 21.993 12.2386 22.0782C12.9934 22.4877 16.0384 22.9711 17.6846 21.6282C17.8221 21.5078 18.0144 21.4723 18.186 21.5353C18.3575 21.5985 18.4811 21.75 18.5081 21.9308C18.5351 22.1116 18.4612 22.2927 18.3156 22.4032C17.2659 23.1775 15.9842 23.5712 14.681 23.5197V23.5197Z" fill="#2944CC"/>
<path d="M26.4601 23.5197C25.5228 23.5424 24.5934 23.3467 23.7449 22.9482C23.5128 22.8049 23.4382 22.5021 23.5773 22.2675C23.7165 22.0329 24.0179 21.953 24.2551 22.0883C24.9351 22.4881 27.6814 22.9647 29.1676 21.6447C29.301 21.5259 29.4875 21.4872 29.6571 21.5435C29.8267 21.5996 29.9535 21.742 29.9897 21.9171C30.0259 22.0919 29.9659 22.273 29.8325 22.3918C28.8835 23.1663 27.6842 23.5675 26.4601 23.5197V23.5197Z" fill="#2944CC"/>
<path d="M2.95988 23.5197C2.02307 23.5428 1.09358 23.3476 0.244885 22.9495C0.0127989 22.8065 -0.0618166 22.5037 0.0773435 22.2691C0.216504 22.0345 0.517941 21.9546 0.755063 22.0896C1.43553 22.4897 4.18188 22.9662 5.66755 21.6461C5.80099 21.5273 5.98753 21.4888 6.15713 21.5449C6.32673 21.6012 6.45353 21.7436 6.4897 21.9184C6.52586 22.0933 6.46589 22.2743 6.33246 22.3931C5.38328 23.1672 4.18394 23.568 2.95988 23.5197V23.5197Z" fill="#2944CC"/>
<path d="M21.321 23.5197C20.018 23.5719 18.7358 23.1796 17.685 22.4071C17.5401 22.2966 17.4667 22.116 17.4937 21.9358C17.5207 21.7555 17.6434 21.6042 17.8143 21.5408C17.9853 21.4774 18.1771 21.512 18.3149 21.6312C19.9459 22.9562 22.9095 22.5412 23.7621 22.0812C23.9195 21.9901 24.1141 21.9917 24.27 22.0855C24.426 22.1794 24.5187 22.3503 24.5119 22.5323C24.5052 22.7143 24.4004 22.8779 24.2379 22.9601C23.3169 23.3533 22.3222 23.5442 21.321 23.5197V23.5197Z" fill="#2944CC"/>
<path d="M4.99994 13.5196C4.74061 13.5208 4.52363 13.3235 4.50006 13.0651C4.16085 9.68288 3.33322 6.36752 2.04301 3.22269C1.97045 3.05949 1.9906 2.86975 2.09565 2.72533C2.20094 2.5809 2.37512 2.50354 2.55273 2.52231C2.73034 2.5413 2.88438 2.65346 2.95694 2.81665C4.30207 6.0583 5.15901 9.48123 5.50004 12.9742C5.51263 13.1069 5.47166 13.2392 5.38629 13.3418C5.30069 13.4441 5.17801 13.5082 5.04503 13.5196C5.02992 13.5196 5.01458 13.5196 4.99994 13.5196Z" fill="#2944CC"/>
<path d="M3.50007 6.51973C3.47214 6.51973 3.44445 6.51744 3.41698 6.51263L0.41703 6.01275C0.219734 5.97934 0.0613475 5.83194 0.0141979 5.63762C-0.0329518 5.4433 0.0400615 5.23959 0.20005 5.11966L2.20002 3.61957C2.34284 3.51245 2.53213 3.48979 2.69646 3.55983C2.8608 3.63009 2.97501 3.78253 2.99653 3.95991C3.01781 4.1373 2.94297 4.31239 2.79992 4.41974L1.73493 5.21968L3.58498 5.52821C3.83767 5.57513 4.01368 5.8063 3.99171 6.06242C3.96973 6.31854 3.7571 6.51629 3.50007 6.51973Z" fill="#2944CC"/>
</g>
<defs>
<clipPath id="clip0">
<rect width="30" height="30" fill="white"/>
</clipPath>
</defs>
</svg>
