<svg width="30" height="30" viewBox="0 0 30 30" fill="none" xmlns="http://www.w3.org/2000/svg">
<g clip-path="url(#clip0)">
<path d="M27.775 17.28C27.77 17.255 27.76 17.23 27.755 17.205L27.725 17.13C27.2284 15.6753 26.0881 14.5313 24.635 14.03C24.4327 13.9572 24.2255 13.8987 24.015 13.855C22.3678 14.1812 20.9967 15.3172 20.37 16.875C20.1238 17.4694 19.998 18.1067 20 18.75C20 18.88 20.005 19.005 20.015 19.12C20.0761 19.9821 20.3623 20.8131 20.845 21.53C21.1729 22.0195 21.5841 22.4476 22.06 22.795C22.6376 23.2163 23.2993 23.508 24 23.65C24.7006 23.508 25.3624 23.2163 25.94 22.795C27.2311 21.8512 27.996 20.3493 28 18.75C28.0013 18.2513 27.9254 17.7555 27.775 17.28ZM26.84 20.44C26.7288 20.5644 26.6048 20.6767 26.47 20.775C26.3342 20.8708 26.1903 20.9544 26.04 21.025C25.393 21.3198 24.6512 21.3253 24 21.04C23.985 21.035 23.975 21.03 23.96 21.025C23.8096 20.9544 23.6657 20.8708 23.53 20.775C23.3951 20.6767 23.2711 20.5644 23.16 20.44C22.7351 19.9798 22.4994 19.3763 22.5 18.75C22.499 18.5854 22.5158 18.4211 22.55 18.26L23.69 16.62C23.789 16.5588 23.8927 16.5053 24 16.46C24.1621 16.3888 24.3314 16.3351 24.505 16.3C24.8316 16.2333 25.1683 16.2333 25.495 16.3C26.2053 16.4439 26.8183 16.889 27.175 17.52C27.2593 17.6639 27.328 17.8165 27.38 17.975C27.4315 18.1341 27.465 18.2985 27.48 18.465C27.4943 18.5593 27.5009 18.6546 27.5 18.75C27.5005 19.3763 27.2648 19.9798 26.84 20.44Z" fill="white"/>
<path d="M27.5 18.75C27.5005 19.3763 27.2648 19.9798 26.84 20.44C26.7288 20.5644 26.6048 20.6767 26.47 20.775C26.3343 20.8707 26.1904 20.9544 26.04 21.025C25.7134 21.1735 25.3588 21.2503 25 21.25C24.8317 21.252 24.6638 21.2335 24.5 21.195C24.3136 21.1611 24.1321 21.104 23.96 21.025C23.8096 20.9544 23.6657 20.8707 23.53 20.775C23.3951 20.6767 23.2711 20.5644 23.16 20.44C22.7351 19.9798 22.4995 19.3763 22.5 18.75C22.499 18.5853 22.5158 18.421 22.55 18.26L23.69 16.62C23.9384 16.4688 24.2106 16.3606 24.495 16.3H24.505C24.8316 16.2333 25.1683 16.2333 25.495 16.3C26.2054 16.4439 26.8183 16.889 27.175 17.52C27.2593 17.6639 27.3281 17.8164 27.38 17.975C27.4315 18.1341 27.465 18.2984 27.48 18.465C27.4943 18.5593 27.501 18.6546 27.5 18.75Z" fill="#E62E2E"/>
<path d="M26.5 18.75C26.5005 19.3763 26.2648 19.9798 25.84 20.44C25.7288 20.5644 25.6048 20.6767 25.47 20.775C25.3342 20.8708 25.1904 20.9544 25.04 21.025C24.8678 21.1041 24.6864 21.1612 24.5 21.195C24.3136 21.1612 24.1321 21.1041 23.96 21.025C23.8096 20.9544 23.6657 20.8708 23.53 20.775C23.3951 20.6767 23.2711 20.5644 23.16 20.44C22.7351 19.9798 22.4995 19.3763 22.5 18.75C22.499 18.5853 22.5158 18.4211 22.55 18.26L23.69 16.62C23.9384 16.4688 24.2106 16.3606 24.495 16.3H24.505C25.2103 16.4495 25.8181 16.8935 26.175 17.52C26.2593 17.6639 26.3281 17.8165 26.38 17.975C26.4315 18.1341 26.465 18.2984 26.48 18.465C26.4943 18.5593 26.501 18.6546 26.5 18.75Z" fill="#E62E2E"/>
<path d="M20.47 14.425L23.69 16.62L25.57 17.93C25.9905 18.256 26.0821 18.8542 25.7784 19.2911C25.4747 19.728 24.8821 19.8506 24.43 19.57L22.55 18.26L21.715 17.685L19.33 16.065" fill="#E62E2E"/>
<path d="M6 12.75H3C2.72386 12.75 2.5 12.5261 2.5 12.25V11.25C2.5 10.9739 2.72386 10.75 3 10.75H4.62C5.53 11.68 5.25 12.75 6 12.75Z" fill="white"/>
<path d="M9.87997 19.86C9.60718 21.0398 8.91846 22.0817 7.93997 22.795C7.08688 23.4187 6.05673 23.7533 4.99997 23.75C4.59762 23.7488 4.19671 23.7018 3.80497 23.61C1.57137 23.0585 0.001612 21.0551 0.000427916 18.7545C-0.00075616 16.4538 1.56694 14.4488 3.79997 13.895H3.80997C4.19922 13.7982 4.59887 13.7496 4.99997 13.75C7.16745 13.7457 9.08942 15.1422 9.75497 17.205C9.79997 17.355 9.84497 17.495 9.87497 17.635C9.91498 17.8928 9.75008 18.138 9.49624 18.1982C9.24241 18.2584 8.98496 18.1133 8.90497 17.865L8.89997 19.64C8.96072 19.3694 9.22935 19.1993 9.49997 19.26C9.77059 19.3208 9.94072 19.5894 9.87997 19.86Z" fill="white"/>
<path d="M7.63298 19.86C7.20745 21.7034 5.7837 23.1523 3.94797 23.61C1.71438 23.0585 0.144617 21.0551 0.143433 18.7544C0.142249 16.4538 1.70995 14.4488 3.94297 13.895H3.95298C5.63211 14.3066 6.97771 15.5595 7.50798 17.205C7.55298 17.355 7.59798 17.495 7.62798 17.635C7.68564 17.814 7.63799 18.0102 7.50465 18.1428C7.37132 18.2754 7.17485 18.322 6.99617 18.2634C6.81749 18.2047 6.68682 18.0508 6.65798 17.865L6.65298 19.64C6.71373 19.3694 6.98236 19.1992 7.25298 19.26C7.52359 19.3207 7.69373 19.5894 7.63298 19.86Z" fill="white"/>
<path d="M7.29497 17.75V19.75C7.11096 20.1559 6.82713 20.5085 6.46997 20.775C6.33424 20.8708 6.19035 20.9544 6.03997 21.025C5.7134 21.1736 5.35875 21.2503 4.99997 21.25C4.78178 21.251 4.56457 21.2207 4.35497 21.16C4.21862 21.1301 4.0861 21.0848 3.95997 21.025C3.80959 20.9544 3.6657 20.8708 3.52997 20.775C3.39514 20.6767 3.27111 20.5644 3.15997 20.44C2.73514 19.9798 2.49946 19.3763 2.49997 18.75C2.49899 18.6546 2.50568 18.5593 2.51997 18.465C2.53493 18.2985 2.56847 18.1341 2.61997 17.975C2.67189 17.8165 2.74062 17.6639 2.82497 17.52C3.15322 16.939 3.70075 16.514 4.34497 16.34C4.39753 16.3237 4.45094 16.3104 4.50497 16.3C4.66769 16.2656 4.83365 16.2488 4.99997 16.25C5.1666 16.248 5.33285 16.2664 5.49497 16.305C6.2954 16.4628 6.96781 17.0026 7.29497 17.75Z" fill="#E62E2E"/>
<path d="M5.99997 17.75V19.75C5.81596 20.1559 5.53213 20.5085 5.17497 20.775C5.03924 20.8708 4.89535 20.9544 4.74497 21.025C4.61968 21.0826 4.48906 21.1278 4.35497 21.16C4.21862 21.1301 4.0861 21.0848 3.95997 21.025C3.80959 20.9544 3.6657 20.8708 3.52997 20.775C3.39514 20.6767 3.27111 20.5644 3.15997 20.44C2.73514 19.9798 2.49946 19.3763 2.49997 18.75C2.49899 18.6546 2.50568 18.5593 2.51997 18.465C2.53493 18.2984 2.56847 18.1341 2.61997 17.975C2.67189 17.8165 2.74062 17.6639 2.82497 17.52C3.15322 16.939 3.70075 16.514 4.34497 16.34C5.08346 16.5317 5.69336 17.0513 5.99997 17.75Z" fill="#E62E2E"/>
<path d="M12.605 17.75H5C4.44942 17.7541 4.00408 18.1994 4 18.75C4.00165 19.3016 4.4484 19.7484 5 19.75H12.58L12.605 17.75Z" fill="#E62E2E"/>
<path d="M26.47 14.5C26.0806 14.3613 25.6729 14.2804 25.26 14.26C25.26 14.2573 25.2578 14.255 25.255 14.255L24.96 14.445L24.905 14.48L24.345 14.845C23.8773 14.7885 23.4058 14.7684 22.935 14.785C22.53 14.785 22.185 14.79 22.125 14.78L20.06 12.78C20.68 11.975 22.4 11.465 22.035 10.395C21.6228 9.28292 21.0592 8.23302 20.36 7.27501C20.145 6.97501 20 6.79501 20 6.79501C24.66 7.07501 26.305 13.36 26.47 14.5Z" fill="white"/>
<path d="M24.97 14.5C24.9491 14.4911 24.9273 14.4844 24.905 14.48C24.5356 14.3531 24.1501 14.2791 23.76 14.26C23.76 14.2572 23.7578 14.255 23.755 14.255L22.935 14.785C22.53 14.785 22.185 14.79 22.125 14.78L20.06 12.78C20.68 11.975 22.4 11.465 22.035 10.395C21.6228 9.2829 21.0592 8.233 20.36 7.27499C23.555 8.77999 24.785 13.36 24.96 14.445C24.9653 14.4629 24.9687 14.4814 24.97 14.5Z" fill="white"/>
<path d="M21.26 21.25H11L11.415 20.415L11.5 20.25L12.905 18.77C12.969 18.7557 13.0344 18.749 13.1 18.75H14.5C15.0516 18.7484 15.4984 18.3016 15.5 17.75V17.41C15.5005 17.303 15.4836 17.1966 15.45 17.095L15.5 16.25L15.475 15.675L15.47 15.625C15.3496 15.6016 15.231 15.5699 15.115 15.53L16.59 15.69C16.8524 15.729 17.0892 15.869 17.25 16.08L18.26 17.43C18.4136 17.6359 18.6414 17.774 18.895 17.815L20.515 19.085C20.5697 19.8594 20.8266 20.6059 21.26 21.25Z" fill="white"/>
<path d="M20.26 21.25H11L11.415 20.415L11.5 20.25L12.905 18.77C12.969 18.7557 13.0344 18.749 13.1 18.75H14.5C15.0516 18.7484 15.4983 18.3016 15.5 17.75V17.41C15.5005 17.303 15.4836 17.1966 15.45 17.095L15.5 16.25L15.475 15.675L15.59 15.69C15.8524 15.729 16.0892 15.869 16.25 16.08L17.26 17.43C17.4136 17.636 17.6414 17.774 17.895 17.815L19.515 19.085C19.5697 19.8594 19.8266 20.6059 20.26 21.25Z" fill="#E62E2E"/>
<path d="M12.78 19.75H14.1C14.0344 19.7489 13.969 19.7557 13.905 19.77L11.5 20.25C11.515 20.155 11.535 20.065 11.55 19.975L12.585 19.77C12.649 19.7557 12.7144 19.7489 12.78 19.75Z" fill="white"/>
<path d="M21.87 13.375L15.71 15.665L16 16.75L16.45 18.095C16.4836 18.1966 16.5005 18.303 16.5 18.41V18.75C16.4983 19.3016 16.0516 19.7484 15.5 19.75H14.18C14.7316 19.7484 15.1783 19.3016 15.18 18.75V18.41C15.1805 18.303 15.1636 18.1966 15.13 18.095L14.68 16.75L14.385 15.665L20.55 13.375C21.1 12.665 21.09 11.715 20.83 10.765L22.035 10.395C22.4 11.465 22.49 12.57 21.87 13.375Z" fill="white"/>
<path d="M20.55 13.375L14.385 15.665L14.68 16.75L15.13 18.095C15.1636 18.1966 15.1805 18.303 15.18 18.41V18.75C15.1784 19.3016 14.7316 19.7484 14.18 19.75H12.78C12.7144 19.749 12.649 19.7557 12.585 19.77L11.55 19.975L11.58 19.75C11.6727 19.0871 11.6811 18.4151 11.605 17.75C11.294 14.8933 8.87355 12.7342 6 12.75C5.25 12.75 4.03 11.68 3.12 10.75C2.425 10.05 1.91 9.43501 1.91 9.43501C1.83601 9.38357 1.79888 9.29367 1.815 9.20501C1.81959 9.13365 1.85595 9.06811 1.91408 9.02646C1.9722 8.9848 2.04595 8.97142 2.115 8.99001L7.965 10.24C7.98907 10.2461 8.01251 10.2545 8.035 10.265L11.63 11.61C11.8676 11.6977 12.0626 11.873 12.175 12.1L12.315 12.38C12.4349 12.6166 12.6433 12.7963 12.895 12.88L13.21 12.985L13.605 13.12C13.857 13.2051 14.1327 13.1853 14.37 13.065L15.965 12.27C15.9881 12.2558 16.0135 12.2456 16.04 12.24L20.445 10.88L20.83 10.765C21.09 11.715 21.1 12.665 20.55 13.375Z" fill="#E62E2E"/>
<path d="M25.255 14.255C25.17 14.25 25.085 14.25 25 14.25C23.1662 14.2511 21.5166 15.3647 20.83 17.065C20.6104 17.5995 20.4982 18.1721 20.5 18.75C20.5 18.865 20.505 18.975 20.515 19.085L18.895 18.815C18.6413 18.774 18.4136 18.6359 18.26 18.43L18.235 18.4L17.25 17.08C17.0892 16.869 16.8524 16.729 16.59 16.69L16.13 16.625L13.92 16.31C13.7777 16.2379 13.6817 16.0986 13.665 15.94C13.6501 15.865 13.6553 15.7874 13.68 15.715L13.92 14.985C13.9721 14.8379 14.0878 14.7221 14.235 14.67L15.435 14.27C15.475 14.26 15.525 14.245 15.57 14.235L21 13.25L21.87 13.375L23.985 13.68L24.275 13.72C24.423 13.7406 24.5647 13.7935 24.69 13.875L25.255 14.255Z" fill="white"/>
<path d="M24.1 13.755C24.015 13.75 23.93 13.75 23.845 13.75C22.0112 13.7511 20.3616 14.8647 19.675 16.565C19.4554 17.0996 19.3432 17.6721 19.345 18.25C19.345 18.365 19.35 18.475 19.36 18.585L18.235 18.4L17.25 17.08C17.0892 16.869 16.8524 16.729 16.59 16.69L16.13 16.625L16.095 16.58C15.9342 16.369 15.6974 16.229 15.435 16.19L13.665 15.94C13.6501 15.865 13.6553 15.7874 13.68 15.715L13.92 14.985C13.9721 14.8379 14.0878 14.7221 14.235 14.67L15.435 14.27C15.475 14.26 15.525 14.245 15.57 14.235L21 13.25L21.87 13.375L23.985 13.68L24.1 13.755Z" fill="#E62E2E"/>
<path d="M29.775 17.28C29.77 17.255 29.76 17.23 29.755 17.205L29.725 17.13C29.2284 15.6753 28.0881 14.5312 26.635 14.03C26.2217 13.8802 25.7889 13.7909 25.35 13.765C25.3288 13.7592 25.307 13.7559 25.285 13.755C25.195 13.75 25.105 13.755 25.015 13.755C25.01 13.755 25.005 13.75 25 13.75C24.995 13.75 24.99 13.755 24.985 13.755C24.6592 13.7578 24.3345 13.7913 24.015 13.855C24.2255 13.8987 24.4327 13.9572 24.635 14.03C26.0881 14.5312 27.2284 15.6753 27.725 17.13L27.755 17.205C27.76 17.23 27.77 17.255 27.775 17.28C27.9254 17.7554 28.0013 18.2513 28 18.75C27.996 20.3493 27.2311 21.8512 25.94 22.795C25.3624 23.2163 24.7007 23.5079 24 23.65C24.3292 23.7162 24.6642 23.7497 25 23.75C26.0568 23.7533 27.0869 23.4187 27.94 22.795C29.2311 21.8512 29.996 20.3493 30 18.75C30.0013 18.2513 29.9254 17.7554 29.775 17.28Z" fill="white"/>
<path d="M2.5 11.25V12.25C2.5 12.5262 2.72386 12.75 3 12.75H4.5C4.22386 12.75 4 12.5262 4 12.25V11.25C4 10.9739 4.22386 10.75 4.5 10.75H4.62C3.925 10.05 3.41 9.43501 3.41 9.43501C3.3516 9.39163 3.31772 9.32275 3.319 9.25001L2.115 8.99001C2.04595 8.97142 1.9722 8.9848 1.91408 9.02646C1.85595 9.06811 1.81959 9.13365 1.815 9.20501C1.79888 9.29367 1.83601 9.38357 1.91 9.43501C1.91 9.43501 2.425 10.05 3.12 10.75H3C2.72386 10.75 2.5 10.9739 2.5 11.25Z" fill="white"/>
<path d="M2.05999 22.795C2.5836 23.1767 3.17617 23.4535 3.80499 23.61C4.19673 23.7018 4.59764 23.7487 4.99999 23.75C5.25694 23.7498 5.51351 23.73 5.76749 23.691C5.61249 23.669 5.45749 23.645 5.30499 23.61C3.07139 23.0585 1.50163 21.0551 1.50044 18.7545C1.49926 16.4538 3.06696 14.4488 5.29999 13.895H5.30999C5.45999 13.8575 5.61449 13.833 5.76949 13.81C5.5149 13.7703 5.25764 13.7502 4.99999 13.75C4.59889 13.7495 4.19924 13.7982 3.80999 13.895H3.79999C1.91119 14.3612 0.464291 15.8806 0.0910065 17.79C-0.282278 19.6993 0.485834 21.6518 2.05999 22.795Z" fill="white"/>
<path d="M2.21949 8.5L5.39599 9.179L6.98449 9.518L7.77849 9.688L7.97849 9.7305L8.08849 9.755C8.15649 9.7745 8.23499 9.805 8.25199 9.811L8.63199 9.953L11.8065 11.1405L11.4565 12.0775L8.27199 10.886L7.89099 10.7435C7.84449 10.7255 7.85949 10.7335 7.86399 10.7295C7.85349 10.725 7.80399 10.716 7.77599 10.7095L7.57599 10.667L6.78099 10.497L5.19099 10.1575L2.01099 9.478L2.21949 8.5Z" fill="white"/>
<path d="M5.7525 9.40399L5.6785 9.46499C5.65393 9.48827 5.63273 9.51486 5.6155 9.54399C5.59489 9.56853 5.57804 9.59599 5.5655 9.62549C5.55342 9.65685 5.54323 9.68891 5.535 9.72149C5.50979 9.85158 5.53461 9.9864 5.6045 10.099C5.69288 10.2425 5.84872 10.3307 6.01727 10.3325C6.18582 10.3343 6.34353 10.2496 6.435 10.108C6.47263 10.0546 6.49916 9.99429 6.513 9.93049C6.54153 9.80038 6.51669 9.66426 6.44404 9.55262C6.37139 9.44097 6.25701 9.36312 6.1265 9.33649C5.99778 9.31119 5.86426 9.33529 5.7525 9.40399Z" fill="#2944CC"/>
<path d="M29.7555 17.206C29.7555 17.202 29.7505 17.1995 29.7495 17.1955C29.2934 15.8111 28.2583 14.6931 26.913 14.132C26.522 12.15 24.6 6.5705 20.03 6.296C19.8321 6.2824 19.6452 6.38853 19.5555 6.5655C19.4649 6.74152 19.4866 6.95445 19.611 7.1085C20.3192 8.02113 20.9129 9.01704 21.379 10.074L20.529 10.336L18.532 9.0075C18.2856 8.83877 17.9937 8.74896 17.695 8.75H14.5C14.2239 8.75 14 8.97386 14 9.25C14 9.52614 14.2239 9.75 14.5 9.75H17.695C17.7942 9.75019 17.891 9.78015 17.973 9.836L19.296 10.716L15.9395 11.75C15.8694 11.7634 15.8019 11.7879 15.7395 11.8225L14.1395 12.6195C14.0223 12.6792 13.886 12.6889 13.7615 12.6465L13.0495 12.4055C12.9235 12.3635 12.8191 12.2737 12.7585 12.1555L12.6205 11.8805C12.4528 11.5379 12.1595 11.2732 11.8015 11.1415L8.10001 9.761C7.96879 9.72589 7.8289 9.74666 7.71354 9.81836C7.59817 9.89006 7.51762 10.0063 7.49101 10.1395C7.44069 10.4023 7.60061 10.6597 7.85851 10.731L11.4515 12.078C11.5711 12.1211 11.669 12.2092 11.7245 12.3235L11.8665 12.607C12.0455 12.9599 12.3565 13.228 12.732 13.353L13.444 13.594C13.5984 13.6458 13.7602 13.6723 13.923 13.6725C14.1551 13.6726 14.3838 13.6176 14.5905 13.512L16.2205 12.7C16.207 12.7085 16.185 12.719 16.1855 12.719L21.7 11.022C21.8958 11.6151 21.8692 12.2591 21.625 12.834L21.075 12.755C21.0217 12.7475 20.9675 12.7485 20.9145 12.758L15.479 13.7455C15.4097 13.7584 15.3414 13.7759 15.2745 13.798L14.079 14.198C13.7809 14.2983 13.5469 14.5324 13.4465 14.8305L13.205 15.556C13.1143 15.828 13.1447 16.1259 13.2885 16.374C13.3766 16.523 13.5023 16.6463 13.653 16.7315C13.6609 16.7366 13.6691 16.7413 13.6775 16.7455C13.7646 16.7954 13.8589 16.8317 13.957 16.853L15.6175 17.185L15.9745 18.256C15.9916 18.3069 16.0002 18.3603 16 18.414V18.75C16 19.0261 15.7762 19.25 15.5 19.25H14.1C14.0011 19.2501 13.9025 19.2599 13.8055 19.2795L12.0955 19.6215C12.382 17.0515 11.5545 15.4105 10.7665 14.4665C9.67422 13.1935 8.12224 12.4048 6.45001 12.273C6.41277 12.2606 6.37414 12.2529 6.33501 12.25H6.00001C5.52801 12.25 4.50001 11.434 3.49101 10.422C3.47773 10.407 3.46354 10.3928 3.44851 10.3795C3.21051 10.1395 2.97451 9.889 2.74851 9.6365L3.96851 9.897C4.1433 9.93398 4.32454 9.87489 4.44396 9.74201C4.56338 9.60912 4.60284 9.42262 4.54746 9.25276C4.49209 9.08289 4.3503 8.95548 4.17551 8.9185L2.21951 8.5C1.88838 8.42823 1.55026 8.58737 1.39454 8.88828C1.23882 9.18919 1.30418 9.55713 1.55401 9.786C1.68851 9.9455 1.93851 10.236 2.25951 10.583C2.09282 10.7652 2.00026 11.0031 2.00001 11.25V12.25C2.00001 12.8023 2.44773 13.25 3.00001 13.25H6.00001C7.53627 13.2741 8.99012 13.9491 10 15.107C10.5117 15.7264 10.8625 16.4625 11.0215 17.25H9.76801C9.76301 17.235 9.76001 17.221 9.75551 17.206C9.08665 15.1458 7.16726 13.7505 5.00117 13.7499C2.83508 13.7494 0.914954 15.1436 0.24501 17.2035C0.081663 17.7027 -0.00104186 18.2248 9.90638e-06 18.75C0.00367107 20.349 0.768679 21.8506 2.06001 22.7935C3.81249 24.0685 6.18703 24.0685 7.93951 22.7935C8.80607 22.1632 9.44779 21.2718 9.77051 20.25H10.941L10.55 21.0275C10.4728 21.1828 10.4817 21.3671 10.5734 21.5143C10.6651 21.6616 10.8265 21.7508 11 21.75H21.0095C21.3014 22.1371 21.6474 22.4801 22.037 22.7685C22.0465 22.776 22.051 22.787 22.061 22.794C22.071 22.801 22.084 22.8045 22.095 22.8115C23.8296 24.0628 26.1705 24.0628 27.905 22.8115C27.916 22.8045 27.9285 22.802 27.939 22.794C27.9495 22.786 27.9535 22.776 27.963 22.7685C29.6974 21.4986 30.4207 19.2589 29.7565 17.2145L29.7555 17.206ZM3.00001 12.25V11.347C3.31701 11.657 3.65901 11.9685 4.00801 12.25H3.00001ZM28.6155 17.05L27.6585 17.3595C27.2234 16.5286 26.4248 15.9491 25.5 15.793V14.7845C26.8572 14.9581 28.032 15.8124 28.6155 17.05ZM26.177 20.3695C25.472 20.8639 24.5332 20.8651 23.827 20.3725C23.4421 20.0926 23.1692 19.685 23.057 19.2225L24.1445 19.979C24.3938 20.1549 24.6914 20.2496 24.9965 20.25C25.086 20.25 25.1754 20.2419 25.2635 20.226C25.6568 20.1566 26.0058 19.9321 26.232 19.603C26.4589 19.277 26.5467 18.8742 26.4761 18.4834C26.4055 18.0925 26.1822 17.7459 25.8555 17.52L24.772 16.7655C24.8477 16.7561 24.9238 16.7509 25 16.75C25.863 16.7495 26.629 17.3026 26.9 18.122C26.9644 18.3252 26.9981 18.5369 27 18.75C27.0015 19.3906 26.6954 19.9931 26.177 20.3695ZM21 18.75C21.0001 18.4517 21.0336 18.1543 21.1 17.8635L21.459 18.1135C21.4635 18.116 21.466 18.12 21.47 18.1225L21.4775 18.1265L22.01 18.497C22.003 18.58 21.9975 18.664 21.9975 18.75C21.996 19.5349 22.305 20.2885 22.857 20.8465L22.2635 21.662C21.4574 20.9081 20.9999 19.8537 21 18.75ZM24.5 14.7845V15.7965C24.2322 15.8411 23.9718 15.9221 23.726 16.0375L22.815 15.404C23.322 15.0716 23.8984 14.8597 24.5 14.7845ZM22.0325 16.0775L25.2825 18.3405C25.3922 18.4153 25.4673 18.5311 25.4907 18.6619C25.5141 18.7926 25.4839 18.9272 25.407 19.0355C25.3318 19.144 25.2165 19.218 25.0866 19.2414C24.9567 19.2647 24.8228 19.2355 24.7145 19.16L22.842 17.857L22.83 17.85L21.46 16.8965C21.616 16.6007 21.8083 16.3256 22.0325 16.0775ZM22.5095 10.236C22.163 9.27465 21.6991 8.35973 21.1285 7.512C24.067 8.4695 25.3675 12.2045 25.7995 13.82C25.678 13.8005 25.556 13.7825 25.4315 13.77L24.967 13.4585C24.78 13.334 24.5675 13.2528 24.345 13.221L22.65 12.9785C22.9173 12.0751 22.8678 11.1074 22.5095 10.236ZM15.59 14.747C15.6126 14.7397 15.6357 14.7336 15.659 14.729L21.009 13.7565L23.241 14.0755C21.3825 14.7764 20.1151 16.5109 20.012 18.4945L18.9715 18.321C18.8466 18.3003 18.7346 18.2321 18.659 18.1305L17.65 16.777C17.409 16.4608 17.0535 16.2519 16.66 16.195L14.164 15.8395L14.3955 15.1455L15.59 14.747ZM11.1255 19.25H5.00001C4.72387 19.25 4.50001 19.0261 4.50001 18.75C4.49981 18.6153 4.55516 18.4865 4.65301 18.394C4.74421 18.3007 4.86955 18.2487 5.00001 18.25H11.143C11.1592 18.5834 11.1534 18.9174 11.1255 19.25ZM6.17551 20.3695C5.47055 20.8639 4.53173 20.8651 3.82551 20.3725C3.30589 19.9955 2.99883 19.392 3.00001 18.75C3.00103 18.5405 3.03287 18.3322 3.09451 18.132C3.30238 17.4906 3.81942 16.9971 4.46978 16.8194C5.12015 16.6416 5.81631 16.8035 6.32151 17.25H5.00001C4.17351 17.2546 3.50465 17.9235 3.50001 18.75C3.50001 19.5784 4.17158 20.25 5.00001 20.25H6.31801C6.27201 20.291 6.22701 20.3325 6.17701 20.3695H6.17551ZM8.69501 17.25H7.59501C7.14626 16.4792 6.37911 15.9467 5.50001 15.796V14.7895C6.9335 14.9669 8.1573 15.9094 8.69501 17.25ZM4.50001 14.79V15.793C3.57566 15.9496 2.77766 16.5293 2.34301 17.36L1.38801 17.05C1.96684 15.8109 3.14265 14.957 4.50001 14.79ZM1.00001 18.75C1.00209 18.4981 1.02821 18.2469 1.07801 18L2.03401 18.3095C2.01199 18.4553 2.00063 18.6025 2.00001 18.75C1.99853 19.5349 2.3075 20.2885 2.85951 20.8465L2.26451 21.6645C1.46037 20.9081 1.00305 19.854 1.00001 18.75ZM3.07751 22.2465L3.66651 21.4375C4.50653 21.8548 5.49349 21.8548 6.33351 21.4375L6.92251 22.2475C5.72113 22.8894 4.27856 22.889 3.07751 22.2465ZM7.73451 21.663L7.14001 20.8455C7.31607 20.6664 7.46954 20.4664 7.59701 20.25H8.70801C8.48944 20.7858 8.15732 21.2679 7.73451 21.663ZM11.8065 20.75L11.8355 20.693L14 20.26C14.0329 20.2532 14.0664 20.2499 14.1 20.25H15.5C16.3284 20.25 17 19.5784 17 18.75V18.4125C17.0002 18.251 16.9741 18.0906 16.923 17.9375L16.6925 17.247C16.7535 17.2797 16.807 17.3249 16.8495 17.3795L17.8615 18.7295C18.0912 19.0378 18.4319 19.2446 18.8115 19.306L20.0615 19.515C20.1272 19.9405 20.2479 20.3556 20.4205 20.75H11.8065ZM23.073 22.253L23.6665 21.4375C24.5066 21.8544 25.4934 21.8544 26.3335 21.4375L26.927 22.2535C25.7278 22.9162 24.2722 22.9162 23.073 22.2535V22.253ZM27.734 21.662L27.1405 20.8465C27.8024 20.1802 28.1085 19.2392 27.9655 18.311L28.927 17.9995C29.1887 19.3444 28.7376 20.7292 27.734 21.662Z" fill="#2944CC"/>
</g>
<defs>
<clipPath id="clip0">
<rect width="30" height="30" fill="white"/>
</clipPath>
</defs>
</svg>
