<svg width="30" height="30" viewBox="0 0 30 30" fill="none" xmlns="http://www.w3.org/2000/svg">
<g clip-path="url(#clip0)">
<path d="M27.0001 16.4845L25.25 18.9844L21.969 20.4845H18L17.0941 17.141L22.75 14.0469L27.0314 14.4534L27.0001 16.4845Z" fill="white"/>
<path d="M3.75 15.2555L4.50005 17.4846L8.4 18.3L9.75579 20.4845H12L13.0941 17.922L6.21895 13.6096L3.75 15.2555Z" fill="white"/>
<path d="M18.55 18.9844C18.2492 19.6298 18.0679 20.3245 18.0151 21.0345C17.9933 21.2908 17.7775 21.4872 17.52 21.4845H12.48C12.2225 21.4872 12.0067 21.2908 11.9849 21.0345C11.9314 20.3252 11.7519 19.631 11.4551 18.9844L14.45 17.9444L15.06 17.7345L18.55 18.9844Z" fill="white"/>
<path d="M17.3449 18.9844C17.0441 19.6298 16.8629 20.3245 16.81 21.0345C16.7883 21.2908 16.5724 21.4872 16.3149 21.4844H12.48C12.2225 21.4872 12.0067 21.2908 11.9849 21.0345C11.9314 20.3252 11.7519 19.631 11.4551 18.9844L14.45 17.9443L17.3449 18.9844Z" fill="white"/>
<path d="M18.555 13.4844L17.3 16.0996C17.1107 16.3433 16.8189 16.4857 16.5099 16.4845H12.3049C12.1072 16.485 11.9137 16.4257 11.7501 16.3145L7.74993 13.6544C7.58628 13.5432 7.39287 13.4839 7.19489 13.4844L2.50006 12.4844L2.8649 12.1195C3.38355 11.6018 3.99855 11.1907 4.6749 10.9094C5.35193 10.6291 6.07726 10.4846 6.80991 10.4844C7.91129 10.4842 8.98795 10.8094 9.90508 11.4194L11.5949 12.5494C12.512 13.1593 13.5887 13.4846 14.6901 13.4844H18.555Z" fill="white"/>
<path d="M16.805 13.4844L15.55 16.0996C15.3607 16.3433 15.0689 16.4857 14.7599 16.4845H12.3049C12.1072 16.485 11.9137 16.4257 11.7501 16.3145L7.74993 13.6544C7.58628 13.5432 7.39287 13.4839 7.19489 13.4844L2.50006 12.4844L2.8649 12.1195C3.38355 11.6018 3.99855 11.1907 4.6749 10.9094C5.07842 10.7435 5.49956 10.6245 5.93009 10.5544C6.72568 10.678 7.48488 10.9731 8.15505 11.4194L9.84488 12.5494C10.762 13.1593 11.8387 13.4846 12.9401 13.4844H16.805Z" fill="white"/>
<path d="M2.99997 12.4844L2.53099 14.4843H1C0.723969 14.4843 0.500122 14.2605 0.500122 13.9845V12.9845C0.500122 12.7082 0.723969 12.4844 1 12.4844H2.99997Z" fill="#E3E7F2"/>
<path opacity="0.5" d="M24.0001 8.98453L23.2699 11.4645L21.7499 11.1994L20.5 10.9845L18.975 8.41438L18.52 7.64946L19.5 7.48444L24.0001 8.98453Z" fill="#E62E2E"/>
<path d="M22.25 9.50459L21.7499 11.1995L20.5 10.9845L18.975 8.41443L22.25 9.50459Z" fill="white"/>
<path d="M19.5 7.48445C19.5 8.03674 19.0523 8.48444 18.5 8.48444C17.9478 8.48444 17.5001 8.03674 17.5001 7.48445C17.5001 6.93216 17.9478 6.48447 18.5 6.48447C19.0523 6.48447 19.5 6.93216 19.5 7.48445V7.48445Z" fill="#E62E2E"/>
<path opacity="0.5" d="M10 21.4844C10 23.6936 8.20904 25.4844 5.99988 25.4844C5.79068 25.4853 5.58148 25.4686 5.37503 25.4345C3.43388 25.1246 2.00543 23.4501 2.00543 21.4844C2.00543 19.5186 3.43388 17.8443 5.37503 17.5344C5.58148 17.5003 5.79068 17.4836 5.99988 17.4845C8.20904 17.4845 10 19.2753 10 21.4844Z" fill="#E62E2E"/>
<path d="M8.74989 21.4845C8.74989 19.303 7.23904 17.5344 5.37503 17.5344C3.51102 17.5344 1.99994 19.303 1.99994 21.4845C1.99994 23.6659 3.51102 25.4345 5.37503 25.4345C7.23904 25.4345 8.74989 23.6659 8.74989 21.4845Z" fill="#E62E2E"/>
<path d="M7.50002 21.4845C7.50002 22.3128 6.82848 22.9846 5.99992 22.9846C5.78386 22.985 5.57031 22.9372 5.37508 22.8445C4.84224 22.6016 4.50006 22.0699 4.50006 21.4845C4.50006 20.8988 4.84224 20.3673 5.37508 20.1245C5.57031 20.0318 5.78386 19.9839 5.99992 19.9844C6.82848 19.9844 7.50002 20.6559 7.50002 21.4845Z" fill="white"/>
<path opacity="0.5" d="M28 21.4844C28 23.6936 26.209 25.4844 24.0001 25.4844C23.7907 25.4853 23.5815 25.4686 23.375 25.4345C21.4339 25.1246 20.0054 23.4501 20.0054 21.4844C20.0054 19.5186 21.4339 17.8443 23.375 17.5344C23.5815 17.5003 23.7907 17.4836 24.0001 17.4845C26.209 17.4845 28 19.2753 28 21.4844Z" fill="#E62E2E"/>
<path d="M26.7501 21.4845C26.7501 19.303 25.239 17.5344 23.375 17.5344C21.511 17.5344 19.9999 19.303 19.9999 21.4845C19.9999 23.6659 21.511 25.4345 23.375 25.4345C25.239 25.4345 26.7501 23.6659 26.7501 21.4845Z" fill="#E62E2E"/>
<path d="M25.5 21.4845C25.5 22.3128 24.8284 22.9846 24.0001 22.9846C23.7838 22.985 23.5703 22.9372 23.375 22.8445C22.8422 22.6016 22.5002 22.0699 22.5002 21.4845C22.5002 20.8988 22.8422 20.3673 23.375 20.1245C23.5703 20.0318 23.7838 19.9839 24.0001 19.9844C24.8284 19.9844 25.5 20.6559 25.5 21.4845Z" fill="white"/>
<path opacity="0.5" d="M6.25009 21.4845C6.25124 22.0704 5.90883 22.6028 5.37508 22.8445C4.84224 22.6016 4.50006 22.0699 4.50006 21.4845C4.50006 20.8988 4.84224 20.3673 5.37508 20.1245C5.90883 20.3661 6.25124 20.8985 6.25009 21.4845Z" fill="white"/>
<path opacity="0.5" d="M24.25 21.4845C24.2512 22.0704 23.9088 22.6028 23.375 22.8445C22.8422 22.6016 22.5002 22.0699 22.5002 21.4845C22.5002 20.8988 22.8422 20.3673 23.375 20.1245C23.9088 20.3661 24.2512 20.8985 24.25 21.4845V21.4845Z" fill="white"/>
<path d="M3.44492 16.1595C3.295 16.2394 3.14508 16.3245 2.99997 16.4145C2.88164 16.487 2.73767 16.5051 2.60492 16.4644C2.64246 16.4456 2.68091 16.4289 2.72005 16.4145C2.9558 16.3138 3.19818 16.2286 3.44492 16.1595Z" fill="#7FABFA"/>
<path opacity="0.5" d="M29.4998 15.5745V17.4845C29.5014 17.6988 29.3662 17.8903 29.1636 17.9604C28.9611 18.0307 28.7363 17.9638 28.6049 17.7944C28.4932 17.6585 28.3749 17.5285 28.2499 17.4044V16.0744C28.2497 15.6855 28.1588 15.3022 27.9849 14.9545L27.74 14.4695L25.875 12.8595C25.5633 12.8355 25.2523 12.9145 24.99 13.0845L26.1099 11.5045C25.9547 11.3507 25.7798 11.2178 25.5899 11.1095L22.9351 9.58949L24 8.98456L26.84 10.6094C27.0298 10.7179 27.2046 10.8506 27.36 11.0044L26.2399 12.5844C26.5024 12.4146 26.8132 12.3354 27.125 12.3594L28.9899 13.9694L29.235 14.4544C29.409 14.8023 29.4996 15.1857 29.4998 15.5745V15.5745Z" fill="#E62E2E"/>
<path d="M28.2499 16.0744V17.4044C26.9062 15.9561 24.9266 15.2765 22.9765 15.5942C21.0264 15.9119 19.3647 17.1845 18.5499 18.9844H11.455C10.4754 16.8533 8.34546 15.4866 5.99988 15.4846C5.30087 15.4859 4.60965 15.6322 3.96993 15.9144C3.79506 15.9844 3.61996 16.0694 3.45494 16.1545C3.45242 16.1572 3.44876 16.1591 3.44487 16.1595C3.19814 16.2287 2.95575 16.3138 2.72 16.4145C2.68086 16.4289 2.64241 16.4456 2.60487 16.4644C2.46182 16.4207 2.34486 16.3165 2.2849 16.1794L1.50006 14.4843L2.99992 12.4844H7.19487C7.39285 12.4839 7.58626 12.5432 7.74991 12.6544L11.7501 15.3145C11.9137 15.4257 12.1071 15.485 12.3049 15.4846H16.5099C16.8189 15.4857 17.1107 15.3433 17.3 15.0994L18.555 13.4844L20.5 10.9845L22.9351 9.58948L25.5899 11.1095C25.7798 11.2177 25.9547 11.3507 26.1099 11.5045L24.99 13.0845C25.2523 12.9144 25.5633 12.8355 25.8751 12.8595L27.74 14.4695L27.9849 14.9545C28.1588 15.3021 28.2497 15.6855 28.2499 16.0744V16.0744Z" fill="#E62E2E"/>
<path d="M28.9899 13.9694L27.5299 13.5446L25.3601 12.9195C25.1573 12.86 25.0138 12.6796 25.0014 12.4688C24.9891 12.258 25.1106 12.0621 25.3049 11.9795L26.455 11.4345L27.36 11.0044C27.5564 11.1955 27.7187 11.4187 27.84 11.6645L28.9899 13.9694Z" fill="#F5F5F5"/>
<path d="M27.5299 13.5446L25.3601 12.9195C25.1573 12.86 25.0138 12.6796 25.0014 12.4688C24.9891 12.258 25.1106 12.0621 25.3049 11.9795L26.455 11.4345C26.5065 11.5071 26.5516 11.584 26.5899 11.6645L27.5299 13.5446Z" fill="#E62E2E"/>
<path d="M5.99991 25.9845H0.500107C0.223846 25.9845 0 25.7607 0 25.4844C0 25.2084 0.223846 24.9846 0.500107 24.9846H5.99991C6.27617 24.9846 6.50002 25.2084 6.50002 25.4844C6.50002 25.7607 6.27617 25.9845 5.99991 25.9845Z" fill="#2944CC"/>
<path d="M24.0001 25.9845H16.5001C16.2238 25.9845 16 25.7607 16 25.4844C16 25.2084 16.2238 24.9846 16.5001 24.9846H24.0001C24.2761 24.9846 24.5 25.2084 24.5 25.4844C24.5 25.7607 24.2761 25.9845 24.0001 25.9845V25.9845Z" fill="#2944CC"/>
<path d="M14.4999 25.9845H11C10.7238 25.9845 10.4999 25.7607 10.4999 25.4844C10.4999 25.2084 10.7238 24.9846 11 24.9846H14.4999C14.7761 24.9846 15 25.2084 15 25.4844C15 25.7607 14.7761 25.9845 14.4999 25.9845Z" fill="#2944CC"/>
<path d="M5.99988 25.9845C3.51468 25.9845 1.50006 23.9697 1.50006 21.4845C1.50006 18.9993 3.51468 16.9844 5.99988 16.9844C8.48531 16.9844 10.4999 18.9993 10.4999 21.4845C10.4972 23.9685 8.48416 25.9818 5.99988 25.9845ZM5.99988 17.9844C4.06697 17.9844 2.50005 19.5516 2.50005 21.4845C2.50005 23.4174 4.06697 24.9845 5.99988 24.9845C7.93301 24.9845 9.49994 23.4174 9.49994 21.4845C9.49742 19.5525 7.93187 17.9869 5.99988 17.9844V17.9844Z" fill="#2944CC"/>
<path d="M5.99991 23.4844C4.89532 23.4844 3.99994 22.5891 3.99994 21.4845C3.99994 20.3799 4.89532 19.4845 5.99991 19.4845C7.10449 19.4845 8.00011 20.3799 8.00011 21.4845C8.00011 22.5891 7.10449 23.4844 5.99991 23.4844ZM5.99991 20.4845C5.44762 20.4845 4.99992 20.9322 4.99992 21.4845C4.99992 22.0368 5.44762 22.4845 5.99991 22.4845C6.5522 22.4845 6.99989 22.0368 6.99989 21.4845C6.99989 20.9322 6.5522 20.4845 5.99991 20.4845Z" fill="#2944CC"/>
<path d="M5.99988 18.4845C5.72385 18.4845 5.5 18.2607 5.5 17.9844V17.4845C5.5 17.2083 5.72385 16.9844 5.99988 16.9844C6.27614 16.9844 6.49998 17.2083 6.49998 17.4845V17.9844C6.49998 18.2607 6.27614 18.4845 5.99988 18.4845Z" fill="#2944CC"/>
<path d="M5.99988 25.9845C5.72385 25.9845 5.5 25.7607 5.5 25.4844V24.9845C5.5 24.7083 5.72385 24.4844 5.99988 24.4844C6.27614 24.4844 6.49998 24.7083 6.49998 24.9845V25.4844C6.49998 25.7607 6.27614 25.9845 5.99988 25.9845Z" fill="#2944CC"/>
<path d="M2.50005 21.9844H1.99994C1.72391 21.9844 1.50006 21.7605 1.50006 21.4845C1.50006 21.2082 1.72391 20.9844 1.99994 20.9844H2.50005C2.77608 20.9844 2.99992 21.2082 2.99992 21.4845C2.99992 21.7605 2.77608 21.9844 2.50005 21.9844Z" fill="#2944CC"/>
<path d="M10 21.9844H9.49994C9.22391 21.9844 9.00006 21.7605 9.00006 21.4845C9.00006 21.2082 9.22391 20.9844 9.49994 20.9844H10C10.2761 20.9844 10.4999 21.2082 10.4999 21.4845C10.4999 21.7605 10.2761 21.9844 10 21.9844Z" fill="#2944CC"/>
<path d="M3.50307 19.4875C3.37055 19.4875 3.24329 19.4348 3.14945 19.341L2.81803 19.0096C2.62851 18.8132 2.63126 18.5015 2.82421 18.3085C3.01692 18.1158 3.32889 18.113 3.52504 18.3026L3.85646 18.634C3.99951 18.777 4.04231 18.9919 3.96495 19.1787C3.88759 19.3655 3.70517 19.4875 3.50307 19.4875V19.4875Z" fill="#2944CC"/>
<path d="M8.83302 24.8175C8.7005 24.8175 8.57324 24.7648 8.47963 24.671L8.15004 24.3396C7.98021 24.1411 7.99165 23.8454 8.17613 23.6607C8.36084 23.476 8.65655 23.4646 8.85499 23.6344L9.18641 23.966C9.32947 24.1091 9.37227 24.324 9.2949 24.5108C9.21754 24.6975 9.03512 24.8195 8.83302 24.8195V24.8175Z" fill="#2944CC"/>
<path d="M3.17139 24.8175C2.96929 24.8175 2.7871 24.6957 2.70974 24.5087C2.63237 24.3219 2.67495 24.107 2.818 23.964L3.15011 23.6344C3.34786 23.4595 3.64769 23.4684 3.83446 23.655C4.02146 23.8415 4.03107 24.1413 3.85643 24.3396L3.52501 24.671C3.43117 24.7648 3.30414 24.8175 3.17139 24.8175Z" fill="#2944CC"/>
<path d="M8.49998 19.4875C8.29856 19.4859 8.11798 19.3636 8.04153 19.1773C7.96508 18.991 8.00788 18.777 8.15002 18.6344L8.48144 18.303C8.67759 18.1135 8.98956 18.1162 9.18251 18.309C9.37522 18.5019 9.37797 18.8139 9.18846 19.01L8.85704 19.3414C8.76228 19.436 8.63365 19.4884 8.49998 19.4875Z" fill="#2944CC"/>
<path d="M24.0001 25.9845C21.5147 25.9845 19.5001 23.9697 19.5001 21.4845C19.5001 18.9993 21.5147 16.9844 24.0001 16.9844C26.4853 16.9844 28.4999 18.9993 28.4999 21.4845C28.4972 23.9685 26.4842 25.9818 24.0001 25.9845V25.9845ZM24.0001 17.9844C22.067 17.9844 20.5 19.5516 20.5 21.4845C20.5 23.4174 22.067 24.9845 24.0001 24.9845C25.933 24.9845 27.4999 23.4174 27.4999 21.4845C27.4977 19.5525 25.9321 17.9869 24.0001 17.9844V17.9844Z" fill="#2944CC"/>
<path d="M24.0001 23.4844C22.8955 23.4844 21.9999 22.5891 21.9999 21.4845C21.9999 20.3799 22.8955 19.4845 24.0001 19.4845C25.1047 19.4845 26 20.3799 26 21.4845C26 22.5891 25.1047 23.4844 24.0001 23.4844V23.4844ZM24.0001 20.4845C23.4478 20.4845 23.0001 20.9322 23.0001 21.4845C23.0001 22.0368 23.4478 22.4845 24.0001 22.4845C24.5524 22.4845 25.0001 22.0368 25.0001 21.4845C25.0001 20.9322 24.5524 20.4845 24.0001 20.4845V20.4845Z" fill="#2944CC"/>
<path d="M24.0001 18.4845C23.7238 18.4845 23.5 18.2607 23.5 17.9844V17.4845C23.5 17.2083 23.7238 16.9844 24.0001 16.9844C24.2761 16.9844 24.5 17.2083 24.5 17.4845V17.9844C24.5 18.2607 24.2761 18.4845 24.0001 18.4845V18.4845Z" fill="#2944CC"/>
<path d="M24.0001 25.9845C23.7238 25.9845 23.5 25.7607 23.5 25.4844V24.9845C23.5 24.7083 23.7238 24.4844 24.0001 24.4844C24.2761 24.4844 24.5 24.7083 24.5 24.9845V25.4844C24.5 25.7607 24.2761 25.9845 24.0001 25.9845V25.9845Z" fill="#2944CC"/>
<path d="M20.5 21.9844H19.9999C19.7239 21.9844 19.5001 21.7605 19.5001 21.4845C19.5001 21.2082 19.7239 20.9844 19.9999 20.9844H20.5C20.7761 20.9844 20.9999 21.2082 20.9999 21.4845C20.9999 21.7605 20.7761 21.9844 20.5 21.9844Z" fill="#2944CC"/>
<path d="M28 21.9844H27.4999C27.2239 21.9844 27.0001 21.7605 27.0001 21.4845C27.0001 21.2082 27.2239 20.9844 27.4999 20.9844H28C28.2761 20.9844 28.4999 21.2082 28.4999 21.4845C28.4999 21.7605 28.2761 21.9844 28 21.9844Z" fill="#2944CC"/>
<path d="M21.503 19.4875C21.3705 19.4875 21.2432 19.4348 21.1496 19.341L20.818 19.0096C20.6285 18.8132 20.6312 18.5015 20.8241 18.3085C21.0169 18.1158 21.3288 18.113 21.525 18.3026L21.8566 18.634C21.9995 18.777 22.0423 18.9919 21.9649 19.1787C21.8875 19.3655 21.7051 19.4875 21.503 19.4875V19.4875Z" fill="#2944CC"/>
<path d="M26.8329 24.8175C26.7004 24.8175 26.5732 24.7648 26.4795 24.671L26.15 24.3396C25.9801 24.1411 25.9916 23.8454 26.1763 23.6607C26.361 23.476 26.6567 23.4646 26.8549 23.6344L27.1866 23.966C27.3294 24.1091 27.3722 24.324 27.2948 24.5108C27.2175 24.6975 27.0353 24.8195 26.8329 24.8195V24.8175Z" fill="#2944CC"/>
<path d="M21.1716 24.8175C20.9692 24.8175 20.787 24.6957 20.7097 24.5087C20.6323 24.3219 20.6751 24.107 20.8179 23.964L21.1501 23.6344C21.3462 23.4451 21.6579 23.4476 21.8509 23.6406C22.0438 23.8335 22.0466 24.1452 21.8571 24.3414L21.5254 24.673C21.4314 24.7662 21.3041 24.8182 21.1716 24.8175V24.8175Z" fill="#2944CC"/>
<path d="M26.4999 19.4875C26.2987 19.4859 26.1179 19.3636 26.0415 19.1773C25.965 18.991 26.0078 18.777 26.15 18.6344L26.4814 18.303C26.6778 18.1135 26.9895 18.1162 27.1824 18.309C27.3752 18.5019 27.3779 18.8139 27.1884 19.01L26.857 19.3414C26.7622 19.436 26.6338 19.4884 26.4999 19.4875V19.4875Z" fill="#2944CC"/>
<path d="M17.5179 21.9844H12.4821C11.9625 21.9851 11.5292 21.588 11.4846 21.0705C11.2587 18.2062 8.87329 15.9941 5.99991 15.9845C5.02396 16.0058 4.07387 16.3024 3.25905 16.84C3.01163 16.989 2.71202 17.0238 2.4369 16.9355C2.16202 16.8471 1.93863 16.6441 1.82442 16.3791L1.17989 14.9845H0.999985C0.447693 14.9845 0 14.5368 0 13.9845V12.9845C0 12.4322 0.447693 11.9845 0.999985 11.9845H7.19994C7.49565 11.9841 7.78496 12.071 8.03146 12.2345L12.028 14.8989C12.1101 14.9536 12.2065 14.9829 12.3049 14.9829H16.5129C16.6674 14.9822 16.8132 14.911 16.9084 14.7895L20.1084 10.676C20.1485 10.6245 20.1984 10.5813 20.2549 10.549L23.755 8.54901C23.9088 8.46112 24.0974 8.46112 24.2509 8.54901L27.0921 10.1725C27.6086 10.4664 28.0261 10.907 28.2921 11.4384L29.688 14.2301C29.8945 14.6487 30.0011 15.1097 30 15.5764V17.4846C30.0037 17.9046 29.7411 18.2811 29.3454 18.4225C28.9433 18.5706 28.4912 18.4475 28.22 18.1156C27.1987 16.8149 25.6531 16.0344 24.0001 15.9845C21.1272 15.9941 18.742 18.2055 18.5154 21.0695C18.4712 21.5873 18.0377 21.9851 17.5179 21.9844V21.9844ZM5.99991 14.9845C9.39537 14.9962 12.2143 17.61 12.4816 20.9949L17.5179 20.9844C17.6887 18.323 19.4893 16.0451 22.0397 15.2646C24.5899 14.4841 27.3569 15.364 28.9881 17.474L29 15.5764C29 15.2642 28.9275 14.9561 28.7881 14.6764L27.3919 11.8854C27.215 11.5307 26.9366 11.2363 26.5919 11.0399L24.0001 9.55998L20.834 11.37L17.6951 15.4054C17.4115 15.7721 16.9739 15.9861 16.5104 15.9845H12.3024C12.0067 15.9849 11.7174 15.898 11.4711 15.7345L7.47459 13.0699C7.39334 13.0152 7.2979 12.9854 7.19994 12.9845H0.999985V13.9845H1.50009C1.6951 13.9845 1.87225 14.0978 1.95396 14.275L2.73857 15.9726C3.71292 15.3468 4.84222 15.0049 5.99991 14.9845V14.9845Z" fill="#2944CC"/>
<path d="M18.5 8.98456C17.6715 8.98456 16.9999 8.31279 16.9999 7.48447C16.9999 6.65614 17.6715 5.98438 18.5 5.98438C19.3284 5.98438 19.9999 6.65614 19.9999 7.48447C19.9999 8.31279 19.3284 8.98456 18.5 8.98456ZM18.5 6.98436C18.2238 6.98436 17.9999 7.20844 17.9999 7.48447C17.9999 7.7605 18.2238 7.98457 18.5 7.98457C18.7761 7.98457 18.9999 7.7605 18.9999 7.48447C18.9999 7.20844 18.7761 6.98436 18.5 6.98436Z" fill="#2944CC"/>
<path d="M2.50006 12.9845C2.29773 12.9845 2.11554 12.8625 2.03818 12.6757C1.96082 12.489 2.00362 12.274 2.14644 12.131L2.51242 11.765C2.70857 11.5755 3.02054 11.5782 3.21349 11.771C3.4062 11.9639 3.40895 12.2759 3.21944 12.472L2.85345 12.838C2.75984 12.9319 2.63258 12.9845 2.50006 12.9845Z" fill="#2944CC"/>
<path d="M6.81104 10.4844C6.81104 9.48442 6.81104 10.2075 6.81104 9.98453H7.03053L7.2514 9.99643C7.3988 10.0079 7.54552 10.0244 7.69154 10.0466C8.57091 10.1759 9.41113 10.4961 10.1534 10.985L11.5084 11.8849C11.7389 12.0349 11.9554 12.19 12.1625 12.307C12.9313 12.7487 13.8022 12.9824 14.6889 12.9845V13.9845C13.6287 13.9836 12.5871 13.7062 11.667 13.1795C11.4029 13.0293 11.1765 12.8675 10.9549 12.722L9.605 11.822C9.19255 11.5503 8.74257 11.34 8.26947 11.1981C8.03304 11.1276 7.79202 11.074 7.54803 11.0378C7.42604 11.0205 7.30336 11.0074 7.18045 10.9976L6.99551 10.9875H6.81241C6.81195 10.7614 6.81149 11.4844 6.81104 10.4844Z" fill="white"/>
<path d="M9.22806 11.0344C9.28619 10.9094 9.28825 10.7655 9.23401 10.6387C9.17976 10.5119 9.07402 10.4141 8.94356 10.37C8.60275 10.2425 8.25142 10.1459 7.89345 10.0809C7.71446 10.05 7.53502 10.023 7.35397 10.0086L7.08206 9.98956L6.94611 9.98544H6.81061V10.4855V10.9854H6.92345L7.03743 10.9889L7.26448 11.0049C7.4144 11.0166 7.56454 11.0399 7.71446 11.0655C8.01315 11.1198 8.30635 11.2006 8.59039 11.307C8.84125 11.3903 9.11499 11.2734 9.22806 11.0344Z" fill="#2944CC"/>
<path d="M14.6889 13.9845V12.9845C14.0529 12.9838 13.4225 12.8641 12.8304 12.6315C12.6894 12.575 12.55 12.515 12.415 12.4459C12.1749 12.3379 11.8918 12.4253 11.7544 12.6498C11.6835 12.7679 11.6659 12.9108 11.7066 13.0424C11.7471 13.1742 11.8419 13.2822 11.9671 13.3399C12.1289 13.4225 12.2955 13.4949 12.4644 13.5619C13.1731 13.8403 13.9277 13.9835 14.6889 13.9845Z" fill="#2944CC"/>
<path d="M10.7815 11.4045C10.6702 11.3329 10.5363 11.3056 10.4061 11.3285L10.3145 11.3574C10.2832 11.3702 10.2539 11.3869 10.2269 11.4075C10.1992 11.4231 10.1738 11.4427 10.152 11.4659C10.1289 11.4903 10.1079 11.5162 10.0884 11.5434C10.0165 11.6545 9.98908 11.7886 10.012 11.919C10.0266 11.9831 10.0534 12.0438 10.0909 12.098C10.2042 12.2644 10.405 12.3487 10.6029 12.3129C10.667 12.2981 10.7274 12.2713 10.7815 12.234C10.8362 12.198 10.8835 12.152 10.9204 12.098C10.9952 11.9879 11.0225 11.8524 10.9964 11.722C10.9703 11.5917 10.8927 11.4773 10.7815 11.4045Z" fill="#2944CC"/>
<path d="M2.86609 12.6185C2.66376 12.6185 2.48157 12.4965 2.40421 12.3097C2.32684 12.123 2.36964 11.908 2.51247 11.765C3.65001 10.6213 5.19794 9.97994 6.8111 9.98452C7.08713 9.98452 7.31097 10.2084 7.31097 10.4844C7.31097 10.7607 7.08713 10.9845 6.8111 10.9845C5.46321 10.9808 4.17003 11.5164 3.21948 12.472C3.12587 12.5656 2.99861 12.6185 2.86609 12.6185Z" fill="#2944CC"/>
<path d="M18.5001 13.9845H14.689C14.4129 13.9845 14.1891 13.7606 14.1891 13.4843C14.1891 13.2083 14.4129 12.9845 14.689 12.9845H18.5001C18.7761 12.9845 19 13.2083 19 13.4843C19 13.7606 18.7761 13.9845 18.5001 13.9845Z" fill="#2944CC"/>
<path d="M1.50007 14.9845C1.31056 14.9845 1.13752 14.8776 1.05284 14.708C0.968152 14.5386 0.986462 14.336 1.09999 14.1845L2.60008 12.1845C2.76556 11.9634 3.07913 11.9188 3.3 12.0845C3.52087 12.2502 3.56573 12.5636 3.40002 12.7844L1.89993 14.7844C1.80563 14.9103 1.65731 14.9845 1.50007 14.9845Z" fill="#2944CC"/>
<path d="M19.3421 7.95891L19.6582 7.01065L24.1582 8.51074L23.8421 9.459L19.3421 7.95891Z" fill="#2944CC"/>
<path d="M18.5575 8.74722L19.4147 8.23315L20.9131 10.7316L20.0562 11.2457L18.5575 8.74722Z" fill="#2944CC"/>
<path d="M24.0001 9.48443C23.7238 9.48443 23.5 9.26058 23.5 8.98455C23.5 6.82848 20.15 5.35036 18.8564 4.96355C18.6854 4.91228 18.5545 4.77358 18.5133 4.59963C18.4723 4.4259 18.527 4.24326 18.6568 4.12058C18.7868 3.99812 18.9724 3.95418 19.1434 4.00545C19.3625 4.07137 24.4999 5.65088 24.4999 8.98455C24.4999 9.26058 24.2761 9.48443 24.0001 9.48443V9.48443Z" fill="#2944CC"/>
<path d="M28.9945 14.4843C28.9471 14.4843 28.9 14.4777 28.8544 14.4644L25.2175 13.401C24.811 13.2829 24.5229 12.9215 24.4981 12.499C24.4737 12.0765 24.7176 11.6842 25.1074 11.5194L27.1829 10.5769C27.432 10.4748 27.7169 10.5878 27.8281 10.8327C27.9394 11.0779 27.8368 11.367 27.5961 11.4869L25.5105 12.4345L29.1351 13.5045C29.374 13.5741 29.5253 13.8089 29.4901 14.0554C29.4546 14.3019 29.2433 14.4848 28.9945 14.4843V14.4843Z" fill="#2944CC"/>
<path d="M11.4999 18.4845H18.5001V19.4845H11.4999V18.4845Z" fill="#2944CC"/>
<path d="M17.9999 19.9844H19.9999V20.9844H17.9999V19.9844Z" fill="#2944CC"/>
<path d="M10.0001 19.9844H12V20.9844H10.0001V19.9844Z" fill="#2944CC"/>
<path d="M25.5837 17.7074L26.584 16.2071L27.4159 16.7619L26.416 18.262L25.5837 17.7074Z" fill="#2944CC"/>
<path d="M3.52594 16.1426L4.4742 15.8265L4.97408 17.3263L4.02582 17.6424L3.52594 16.1426Z" fill="#2944CC"/>
</g>
<defs>
<clipPath id="clip0">
<rect width="30" height="30" fill="white"/>
</clipPath>
</defs>
</svg>
