<svg width="30" height="30" viewBox="0 0 30 30" fill="none" xmlns="http://www.w3.org/2000/svg">
<path d="M15.9375 17.8127H7.96875L3.35391 15.3283C2.90671 15.0875 2.53309 14.7301 2.2727 14.294C2.01231 13.8579 1.87488 13.3594 1.875 12.8515V11.2502L13.5938 14.5315L15.9375 17.8127Z" fill="white"/>
<path d="M13.5937 14.5314L11.1206 13.8391C11.0203 14.3017 10.7643 14.7159 10.3955 15.0125C10.0266 15.3091 9.5671 15.4702 9.09374 15.4689C6.64188 15.4666 4.22505 14.8867 2.03906 13.7763C2.26772 14.4399 2.73687 14.9937 3.35391 15.3283L7.96875 17.8127H15.9375L13.5937 14.5314Z" fill="#E62E2E"/>
<path d="M13.125 14.5315L1.40625 11.2502V8.90646L14.5312 12.6565L13.125 14.5315Z" fill="white"/>
<path d="M12.6295 12.1132C12.2298 12.3584 11.7839 12.5186 11.3196 12.584C10.8552 12.6494 10.3824 12.6186 9.93047 12.4933L1.40625 10.1064V11.2502L13.125 14.5314L14.5312 12.6564L12.6295 12.1132Z" fill="#E62E2E"/>
<path d="M12.1875 17.8127H4.6875C2.87532 17.8127 1.40625 19.2818 1.40625 21.094C1.40625 22.9061 2.87532 24.3752 4.6875 24.3752H12.1875C13.9997 24.3752 15.4688 22.9061 15.4688 21.094C15.4688 19.2818 13.9997 17.8127 12.1875 17.8127Z" fill="white"/>
<path d="M12.1875 19.6877H4.6875C3.91085 19.6877 3.28125 20.3173 3.28125 21.094C3.28125 21.8706 3.91085 22.5002 4.6875 22.5002H12.1875C12.9642 22.5002 13.5938 21.8706 13.5938 21.094C13.5938 20.3173 12.9642 19.6877 12.1875 19.6877Z" fill="white"/>
<path d="M4.6875 22.5002C5.46415 22.5002 6.09375 21.8706 6.09375 21.094C6.09375 20.3173 5.46415 19.6877 4.6875 19.6877C3.91085 19.6877 3.28125 20.3173 3.28125 21.094C3.28125 21.8706 3.91085 22.5002 4.6875 22.5002Z" fill="#E62E2E"/>
<path d="M12.1875 22.5002C12.9642 22.5002 13.5938 21.8706 13.5938 21.094C13.5938 20.3173 12.9642 19.6877 12.1875 19.6877C11.4108 19.6877 10.7812 20.3173 10.7812 21.094C10.7812 21.8706 11.4108 22.5002 12.1875 22.5002Z" fill="#E62E2E"/>
<path d="M12.1875 21.5627C12.4464 21.5627 12.6562 21.3528 12.6562 21.094C12.6562 20.8351 12.4464 20.6252 12.1875 20.6252C11.9286 20.6252 11.7188 20.8351 11.7188 21.094C11.7188 21.3528 11.9286 21.5627 12.1875 21.5627Z" fill="white"/>
<path d="M4.6875 21.5627C4.94638 21.5627 5.15625 21.3528 5.15625 21.094C5.15625 20.8351 4.94638 20.6252 4.6875 20.6252C4.42862 20.6252 4.21875 20.8351 4.21875 21.094C4.21875 21.3528 4.42862 21.5627 4.6875 21.5627Z" fill="white"/>
<path d="M5.62497 23.4377C5.03294 23.4375 4.452 23.2771 3.94372 22.9735C3.43545 22.6699 3.01878 22.2345 2.73788 21.7133C2.45698 21.1922 2.32231 20.6047 2.34815 20.0133C2.37399 19.4218 2.55938 18.8483 2.88466 18.3537C2.29535 18.7418 1.84686 19.3096 1.60573 19.9727C1.3646 20.6359 1.34367 21.3591 1.54606 22.0351C1.74845 22.7111 2.16336 23.3038 2.72925 23.7254C3.29513 24.1469 3.98183 24.3748 4.68747 24.3752H12.1875C13.0456 24.376 13.8696 24.0393 14.4815 23.4377H5.62497Z" fill="white"/>
<path d="M28.125 16.8752L25.7812 18.7502H16.365L15.4688 17.8127L13.125 14.5315L15.4688 10.3127L19.6875 9.37521L27.1875 14.5315L28.125 16.8752Z" fill="#E62E2E"/>
<path d="M17.7886 15.0663C17.2388 14.3504 16.9104 13.4894 16.8438 12.5892C16.7772 11.689 16.9752 10.7891 17.4136 10L17.4895 9.86362L15.4688 10.3127L13.125 14.5314L15.4688 17.8127L16.365 18.7502H25.7812L28.125 16.8752H21.4584C20.749 16.8752 20.049 16.7121 19.4127 16.3984C18.7763 16.0848 18.2207 15.629 17.7886 15.0663V15.0663Z" fill="#E62E2E"/>
<path d="M19.2188 24.3752H25.7813C26.5272 24.3752 27.2425 24.0789 27.77 23.5515C28.2974 23.024 28.5938 22.3086 28.5938 21.5627V20.6252C28.5938 20.3766 28.495 20.1381 28.3192 19.9623C28.1434 19.7865 27.9049 19.6877 27.6563 19.6877C27.4076 19.6877 27.1692 19.7865 26.9933 19.9623C26.8175 20.1381 26.7188 20.3766 26.7188 20.6252V21.5627C26.7188 21.8114 26.62 22.0498 26.4442 22.2256C26.2684 22.4014 26.0299 22.5002 25.7813 22.5002H17.3939C17.3877 22.7439 17.4302 22.9864 17.5191 23.2134C17.6079 23.4405 17.7413 23.6474 17.9114 23.8221C18.0814 23.9968 18.2846 24.1358 18.5092 24.2308C18.7337 24.3257 18.975 24.3749 19.2188 24.3752V24.3752Z" fill="white"/>
<path d="M20.1563 23.4377C19.8663 23.4372 19.5836 23.3467 19.3472 23.1788C19.1108 23.0109 18.9323 22.7738 18.8363 22.5002H17.3939C17.3877 22.7439 17.4302 22.9864 17.5191 23.2134C17.6079 23.4405 17.7413 23.6474 17.9114 23.8221C18.0814 23.9968 18.2846 24.1358 18.5092 24.2308C18.7337 24.3257 18.975 24.3749 19.2188 24.3752H25.7813C26.1764 24.3753 26.567 24.2918 26.9276 24.1303C27.2881 23.9687 27.6104 23.7327 27.8733 23.4377H20.1563Z" fill="white"/>
<path d="M20.1562 18.7502H22.9688V20.6252H20.1562V18.7502Z" fill="white"/>
<path d="M20.625 20.6252H22.5V22.5002H20.625V20.6252Z" fill="white"/>
<path d="M16.5548 11.2999L15.4064 9.00301C15.3744 8.9391 15.3282 8.88336 15.2713 8.84006C15.2144 8.79676 15.1484 8.76703 15.0783 8.75316L11.9845 8.13394C11.741 8.08497 11.5269 7.94136 11.3892 7.73465C11.2515 7.52794 11.2014 7.27503 11.25 7.03144C11.2987 6.78766 11.4423 6.57323 11.6492 6.43531C11.856 6.29739 12.1092 6.24727 12.353 6.29597L15.6717 6.95972C15.9517 7.01565 16.2153 7.13479 16.4423 7.30807C16.6692 7.48135 16.8536 7.70418 16.9814 7.95957L18.2344 10.4613C18.2893 10.5716 18.322 10.6916 18.3305 10.8145C18.339 10.9374 18.3233 11.0608 18.2841 11.1776C18.2449 11.2944 18.1831 11.4023 18.1022 11.4952C18.0212 11.5881 17.9228 11.6641 17.8125 11.7189C17.5901 11.8301 17.3327 11.8484 17.0969 11.7698C16.861 11.6912 16.6661 11.5222 16.5548 11.2999V11.2999Z" fill="white"/>
<path d="M18.2813 10.7814C18.0589 10.8926 17.8015 10.9109 17.5657 10.8323C17.3298 10.7537 17.1348 10.5847 17.0236 10.3624L15.8752 8.0655C15.8432 8.0016 15.7969 7.94586 15.7401 7.90256C15.6832 7.85925 15.6172 7.82953 15.5471 7.81566L12.4533 7.19644C12.2619 7.15783 12.0874 7.06018 11.9544 6.91724C11.8214 6.7743 11.7365 6.59325 11.7117 6.39957C11.5437 6.49217 11.4083 6.63427 11.324 6.80654C11.2396 6.97882 11.2103 7.1729 11.2401 7.3624C11.2699 7.5519 11.3574 7.72762 11.4906 7.86566C11.6238 8.00371 11.7962 8.09738 11.9846 8.13394L15.0783 8.75316C15.1484 8.76703 15.2144 8.79675 15.2713 8.84006C15.3282 8.88336 15.3744 8.9391 15.4064 9.003L16.5549 11.2999C16.6661 11.5222 16.8611 11.6912 17.0969 11.7698C17.3328 11.8484 17.5902 11.8301 17.8125 11.7189C17.9866 11.6315 18.129 11.4918 18.2198 11.3194C18.3106 11.147 18.3452 10.9506 18.3188 10.7575C18.3056 10.765 18.2949 10.7744 18.2813 10.7814V10.7814Z" fill="white"/>
<path d="M21.5625 13.1252C21.5625 13.3739 21.6613 13.6123 21.8371 13.7881C22.0129 13.9639 22.2514 14.0627 22.5 14.0627H26.4506C26.3638 13.979 26.2705 13.9022 26.1717 13.833L23.7783 12.1877H22.5C22.2514 12.1877 22.0129 12.2865 21.8371 12.4623C21.6613 12.6381 21.5625 12.8766 21.5625 13.1252Z" fill="white"/>
<path d="M18.2812 16.8752H22.9688C23.466 16.8752 23.9429 17.0728 24.2946 17.4244C24.6462 17.776 24.8438 18.2529 24.8438 18.7502H20.1562C19.659 18.7502 19.1821 18.5527 18.8304 18.201C18.4788 17.8494 18.2812 17.3725 18.2812 16.8752Z" fill="white"/>
<path d="M22.0312 19.219H22.9688V20.6252H21.0938V20.1565C21.0938 19.9078 21.1925 19.6694 21.3683 19.4936C21.5442 19.3177 21.7826 19.219 22.0312 19.219Z" fill="white"/>
<path d="M27.6562 19.2189C27.2833 19.2189 26.9256 19.3671 26.6619 19.6308C26.3982 19.8946 26.25 20.2522 26.25 20.6252V21.5627C26.25 21.687 26.2006 21.8062 26.1127 21.8942C26.0248 21.9821 25.9056 22.0314 25.7812 22.0314C25.6569 22.0314 25.5377 22.0808 25.4498 22.1687C25.3619 22.2566 25.3125 22.3759 25.3125 22.5002C25.3125 22.6245 25.3619 22.7437 25.4498 22.8317C25.5377 22.9196 25.6569 22.9689 25.7812 22.9689C26.1542 22.9689 26.5119 22.8208 26.7756 22.5571C27.0393 22.2933 27.1875 21.9357 27.1875 21.5627V20.6252C27.1875 20.5009 27.2369 20.3816 27.3248 20.2937C27.4127 20.2058 27.5319 20.1564 27.6562 20.1564C27.7806 20.1564 27.8998 20.2058 27.9877 20.2937C28.0756 20.3816 28.125 20.5009 28.125 20.6252V21.5627C28.1243 22.1841 27.8771 22.7798 27.4377 23.2192C26.9983 23.6585 26.4026 23.9057 25.7812 23.9064H19.2188C18.9321 23.9063 18.6529 23.8155 18.421 23.6471C18.1891 23.4788 18.0163 23.2414 17.9273 22.9689H23.9062C24.0306 22.9689 24.1498 22.9196 24.2377 22.8317C24.3256 22.7437 24.375 22.6245 24.375 22.5002C24.375 22.3759 24.3256 22.2566 24.2377 22.1687C24.1498 22.0808 24.0306 22.0314 23.9062 22.0314H22.9688V21.0939C23.0931 21.0939 23.2123 21.0446 23.3002 20.9567C23.3881 20.8687 23.4375 20.7495 23.4375 20.6252V19.2189H25.7812C25.8877 19.219 25.9911 19.1828 26.0742 19.1163L28.418 17.2413C28.4962 17.1782 28.5521 17.0917 28.5774 16.9945C28.6027 16.8973 28.5961 16.7945 28.5586 16.7013L27.6211 14.3575C27.5866 14.2715 27.5274 14.1976 27.4509 14.1452L20.0527 9.05738L18.2344 5.41566C18.1788 5.3044 18.0813 5.21976 17.9633 5.18038C17.8454 5.141 17.7166 5.15009 17.6053 5.20566C17.494 5.26124 17.4094 5.35873 17.37 5.4767C17.3306 5.59468 17.3397 5.72346 17.3953 5.83473L19.2703 9.58473C19.3059 9.65575 19.359 9.71656 19.4245 9.76145L22.3013 11.7391C21.9492 11.7885 21.6289 11.9697 21.4053 12.2461C21.1817 12.5225 21.0714 12.8735 21.0966 13.2281C21.1219 13.5827 21.2808 13.9146 21.5413 14.1565C21.8018 14.3984 22.1445 14.5325 22.5 14.5314H26.3602L26.805 14.8371L27.5625 16.7266L25.6167 18.2814H25.2656C25.1568 17.7524 24.869 17.2771 24.4506 16.9355C24.0322 16.594 23.5088 16.4071 22.9688 16.4064H18.2812C18.1569 16.4064 18.0377 16.4558 17.9498 16.5437C17.8619 16.6316 17.8125 16.7509 17.8125 16.8752C17.8142 17.384 17.9832 17.8781 18.2934 18.2814H16.5656L15.8306 17.5127L14.5983 15.7877C14.5632 15.7359 14.5182 15.6916 14.4657 15.6574C14.4133 15.6233 14.3546 15.6 14.293 15.5889C14.2314 15.5778 14.1682 15.5792 14.1072 15.5929C14.0461 15.6066 13.9885 15.6324 13.9375 15.6688C13.8866 15.7052 13.8435 15.7514 13.8107 15.8047C13.7779 15.8579 13.7562 15.9173 13.7467 15.9791C13.7372 16.041 13.7401 16.1041 13.7554 16.1647C13.7707 16.2254 13.798 16.2824 13.8356 16.3324L14.25 16.9127L8.58563 15.0246C8.46752 14.9853 8.33865 14.9945 8.22736 15.0503C8.11607 15.106 8.03147 15.2037 7.99219 15.3218C7.9529 15.4399 7.96214 15.5687 8.01788 15.68C8.07361 15.7913 8.17127 15.8759 8.28938 15.9152L12.5808 17.3439H7.61813L3.10781 14.9149C2.73494 14.7146 2.42337 14.4169 2.20628 14.0535C1.98919 13.6902 1.8747 13.2747 1.875 12.8514V11.8671L11.1234 14.4569C11.1827 14.4735 11.2448 14.4783 11.3059 14.4709C11.3671 14.4636 11.4262 14.4443 11.4798 14.414C11.5335 14.3838 11.5807 14.3433 11.6187 14.2949C11.6568 14.2464 11.6848 14.1909 11.7014 14.1316C11.7348 14.0119 11.7194 13.8839 11.6585 13.7756C11.5976 13.6673 11.4962 13.5877 11.3766 13.5541L1.875 10.8944V9.52801L13.5202 12.8561L12.7153 14.305C12.6551 14.4137 12.6404 14.5418 12.6746 14.6613C12.7088 14.7807 12.789 14.8817 12.8977 14.9421C12.9672 14.9807 13.0455 15.0007 13.125 15.0002C13.2087 15.0002 13.2909 14.9779 13.363 14.9354C13.4351 14.893 13.4946 14.832 13.5352 14.7588L15.7594 10.7561L16.1344 11.5094C16.1619 11.5645 16.2 11.6136 16.2466 11.6539C16.2931 11.6942 16.3471 11.725 16.4055 11.7445C16.4639 11.7639 16.5256 11.7717 16.587 11.7673C16.6484 11.7629 16.7084 11.7465 16.7634 11.7189C16.8185 11.6914 16.8676 11.6533 16.9079 11.6068C16.9483 11.5602 16.979 11.5062 16.9985 11.4478C17.0179 11.3894 17.0257 11.3277 17.0213 11.2663C17.0169 11.2049 17.0005 11.1449 16.973 11.0899L15.8255 8.79301C15.7619 8.66479 15.6696 8.55293 15.5558 8.46612C15.442 8.3793 15.3097 8.31986 15.1692 8.29238L12.0755 7.67363C11.9535 7.64927 11.8462 7.57745 11.7772 7.47398C11.7082 7.37052 11.6831 7.24387 11.7075 7.12191C11.7319 6.99996 11.8037 6.89267 11.9072 6.82367C12.0106 6.75466 12.1373 6.72958 12.2592 6.75395L15.578 7.4177C15.7882 7.45915 15.986 7.54834 16.1563 7.67838C16.3266 7.80841 16.4647 7.97582 16.56 8.1677L17.8125 10.6708C17.8681 10.782 17.9657 10.8666 18.0836 10.9059C18.142 10.9253 18.2037 10.9331 18.2651 10.9287C18.3266 10.9243 18.3865 10.9079 18.4416 10.8804C18.4966 10.8528 18.5457 10.8147 18.5861 10.7682C18.6264 10.7216 18.6572 10.6676 18.6766 10.6092C18.6961 10.5508 18.7038 10.4891 18.6995 10.4277C18.6951 10.3663 18.6786 10.3064 18.6511 10.2513L17.4005 7.75004C17.2418 7.43015 17.0117 7.15103 16.728 6.93425C16.4442 6.71748 16.1144 6.56886 15.7641 6.49988L12.4448 5.83613C12.0791 5.76297 11.6993 5.8381 11.3889 6.04499C11.0785 6.25188 10.8631 6.57359 10.7899 6.93934C10.7168 7.30509 10.7919 7.68492 10.9988 7.99528C11.2057 8.30564 11.5274 8.5211 11.8931 8.59426L14.9869 9.21301L15.3188 9.87676C15.2092 9.9117 15.1165 9.98602 15.0586 10.0854L13.9875 12.0138L1.53469 8.45551C1.46493 8.43563 1.39151 8.43222 1.32021 8.44553C1.24891 8.45885 1.18167 8.48853 1.12378 8.53224C1.0659 8.57595 1.01894 8.63249 0.986619 8.69743C0.954295 8.76236 0.937481 8.83391 0.937501 8.90645V12.8514C0.937068 13.4441 1.09734 14.0258 1.40127 14.5346C1.70519 15.0434 2.14139 15.4603 2.66344 15.7408L5.64047 17.3439H4.6875C3.69294 17.3439 2.73911 17.739 2.03585 18.4423C1.33259 19.1456 0.937501 20.0994 0.937501 21.0939C0.937501 22.0885 1.33259 23.0423 2.03585 23.7456C2.73911 24.4489 3.69294 24.8439 4.6875 24.8439H12.1875C12.9498 24.8451 13.6943 24.6135 14.3215 24.1803C14.9486 23.747 15.4287 23.1326 15.6974 22.4193C15.9661 21.7059 16.0108 20.9275 15.8253 20.1882C15.6399 19.4488 15.2332 18.7836 14.6597 18.2814H15.2691L16.027 19.0741C16.0708 19.1199 16.1234 19.1563 16.1817 19.1812C16.2399 19.2061 16.3026 19.219 16.3659 19.2189H19.6875V20.6252C19.6875 20.7495 19.7369 20.8687 19.8248 20.9567C19.9127 21.0446 20.0319 21.0939 20.1562 21.0939V22.0314H17.3939C17.2717 22.0314 17.1543 22.0791 17.0667 22.1644C16.9791 22.2497 16.9283 22.3658 16.9252 22.488C16.9173 22.7943 16.9708 23.0991 17.0824 23.3844C17.1941 23.6697 17.3618 23.9298 17.5755 24.1493C17.7892 24.3688 18.0447 24.5434 18.3269 24.6627C18.6091 24.782 18.9124 24.8436 19.2188 24.8439H25.7812C26.6511 24.8428 27.4851 24.4968 28.1002 23.8817C28.7153 23.2665 29.0614 22.4326 29.0625 21.5627V20.6252C29.0625 20.2522 28.9143 19.8946 28.6506 19.6308C28.3869 19.3671 28.0292 19.2189 27.6562 19.2189V19.2189ZM22.5 13.5939C22.3757 13.5939 22.2565 13.5446 22.1685 13.4567C22.0806 13.3687 22.0312 13.2495 22.0312 13.1252C22.0312 13.0009 22.0806 12.8816 22.1685 12.7937C22.2565 12.7058 22.3757 12.6564 22.5 12.6564H23.633L24.9966 13.5939H22.5ZM12.6281 18.3194L11.9531 19.2189H11.7188V18.2814H12.1875C12.3351 18.2827 12.4825 18.2954 12.6281 18.3194V18.3194ZM14.5313 19.54L13.6495 19.9319C13.4708 19.7083 13.2433 19.5285 12.9844 19.4064L13.5572 18.6429C13.9483 18.8607 14.2821 19.1681 14.5313 19.54V19.54ZM15 21.0939C14.9991 21.329 14.9685 21.5631 14.9091 21.7905L14.0316 21.4005C14.0728 21.1982 14.0728 20.9897 14.0316 20.7874L14.9091 20.3974C14.9685 20.6248 14.9991 20.8589 15 21.0939V21.0939ZM12.1875 22.0314H6.30188C6.4724 21.7485 6.56251 21.4243 6.56251 21.0939C6.56251 20.7636 6.4724 20.4394 6.30188 20.1564H10.5731C10.4044 20.4402 10.3144 20.7638 10.3125 21.0939C10.3125 21.2183 10.3619 21.3375 10.4498 21.4254C10.5377 21.5133 10.6569 21.5627 10.7813 21.5627C10.9056 21.5627 11.0248 21.5133 11.1127 21.4254C11.2006 21.3375 11.25 21.2183 11.25 21.0939C11.25 20.9085 11.305 20.7273 11.408 20.5731C11.511 20.4189 11.6574 20.2988 11.8287 20.2278C12 20.1569 12.1885 20.1383 12.3704 20.1745C12.5523 20.2106 12.7193 20.2999 12.8504 20.431C12.9815 20.5621 13.0708 20.7292 13.107 20.911C13.1432 21.0929 13.1246 21.2814 13.0536 21.4527C12.9827 21.624 12.8625 21.7704 12.7083 21.8735C12.5542 21.9765 12.3729 22.0314 12.1875 22.0314ZM7.03125 18.2814V19.2189H6.09375V18.2814H7.03125ZM9.84375 19.2189V18.2814H10.7813V19.2189H9.84375ZM8.90625 19.2189H7.96875V18.2814H8.90625V19.2189ZM4.6875 20.1564C4.87292 20.1564 5.05418 20.2114 5.20835 20.3144C5.36252 20.4175 5.48268 20.5639 5.55364 20.7352C5.6246 20.9065 5.64316 21.095 5.60699 21.2768C5.57081 21.4587 5.48153 21.6257 5.35041 21.7569C5.2193 21.888 5.05226 21.9773 4.8704 22.0134C4.68854 22.0496 4.50004 22.031 4.32874 21.9601C4.15743 21.8891 4.01101 21.769 3.908 21.6148C3.80498 21.4606 3.75 21.2794 3.75 21.0939C3.75 20.8453 3.84877 20.6068 4.02459 20.431C4.2004 20.2552 4.43886 20.1564 4.6875 20.1564ZM7.03125 22.9689V23.9064H6.09375V22.9689H7.03125ZM7.96875 22.9689H8.90625V23.9064H7.96875V22.9689ZM9.84375 22.9689H10.7813V23.9064H9.84375V22.9689ZM5.15625 18.2814V19.2189H4.92188L4.24688 18.3194C4.39254 18.2954 4.53986 18.2827 4.6875 18.2814H5.15625ZM3.31641 18.6405L3.89063 19.4064C3.63265 19.5296 3.40625 19.7102 3.22875 19.9343L2.34375 19.54C2.59222 19.1675 2.92558 18.8592 3.31641 18.6405V18.6405ZM1.875 21.0939C1.87593 20.8589 1.90648 20.6248 1.96594 20.3974L2.84344 20.7874C2.80218 20.9897 2.80218 21.1982 2.84344 21.4005L1.96594 21.7905C1.90648 21.5631 1.87593 21.329 1.875 21.0939V21.0939ZM2.34375 22.6479L3.22547 22.256C3.40391 22.4805 3.63146 22.661 3.89063 22.7838L3.31641 23.5474C2.92558 23.3287 2.59222 23.0204 2.34375 22.6479ZM4.245 23.8666L4.92188 22.9689H5.15625V23.9064H4.6875C4.53986 23.9052 4.39254 23.8925 4.24688 23.8685L4.245 23.8666ZM11.7188 23.9064V22.9689H11.9531L12.6281 23.8685C12.4825 23.8925 12.3351 23.9052 12.1875 23.9064H11.7188ZM13.5586 23.5474L12.9844 22.7838C13.2424 22.6606 13.4687 22.4801 13.6463 22.256L14.5313 22.6479C14.2828 23.0204 13.9494 23.3287 13.5586 23.5474V23.5474ZM22.5 20.1564H20.625V19.2189H22.5V20.1564ZM18.8302 17.3439H22.9688C23.2595 17.3443 23.543 17.4346 23.7804 17.6024C24.0179 17.7703 24.1975 18.0075 24.2948 18.2814H20.1562C19.8655 18.2811 19.582 18.1908 19.3446 18.023C19.1071 17.8551 18.9275 17.6179 18.8302 17.3439V17.3439ZM21.0938 21.0939H22.0312V22.0314H21.0938V21.0939Z" fill="#2944CC"/>
<path d="M15.4688 14.0627C15.4688 14.187 15.5181 14.3062 15.606 14.3941C15.694 14.482 15.8132 14.5314 15.9375 14.5314H18.75C18.8743 14.5314 18.9935 14.482 19.0815 14.3941C19.1694 14.3062 19.2188 14.187 19.2188 14.0627C19.2188 13.9384 19.1694 13.8191 19.0815 13.7312C18.9935 13.6433 18.8743 13.5939 18.75 13.5939H15.9375C15.8132 13.5939 15.694 13.6433 15.606 13.7312C15.5181 13.8191 15.4688 13.9384 15.4688 14.0627Z" fill="#39519D"/>
<path d="M6.09375 15.0002C6.35263 15.0002 6.5625 14.7903 6.5625 14.5314C6.5625 14.2725 6.35263 14.0627 6.09375 14.0627C5.83487 14.0627 5.625 14.2725 5.625 14.5314C5.625 14.7903 5.83487 15.0002 6.09375 15.0002Z" fill="#39519D"/>
<path d="M3.75 14.0627C4.00888 14.0627 4.21875 13.8528 4.21875 13.5939C4.21875 13.335 4.00888 13.1252 3.75 13.1252C3.49112 13.1252 3.28125 13.335 3.28125 13.5939C3.28125 13.8528 3.49112 14.0627 3.75 14.0627Z" fill="#39519D"/>
</svg>
