<svg width="50" height="34" viewBox="0 0 50 34" fill="none" xmlns="http://www.w3.org/2000/svg">
<rect y="0.0195312" width="50" height="33" rx="7" fill="white"/>
<path d="M35.9342 16.5393C35.933 17.8078 35.5457 19.046 34.824 20.0892C34.1022 21.1324 33.0801 21.9313 31.8934 22.3797C30.7067 22.8281 29.4117 22.9048 28.1804 22.5995C26.9491 22.2943 25.8398 21.6216 25 20.6709C26.0082 19.5307 26.5648 18.0613 26.5648 16.5393C26.5648 15.0173 26.0082 13.5478 25 12.4077C25.8398 11.4569 26.9491 10.7843 28.1804 10.479C29.4117 10.1738 30.7067 10.2505 31.8934 10.6989C33.0801 11.1473 34.1022 11.9461 34.824 12.9894C35.5457 14.0326 35.933 15.2707 35.9342 16.5393Z" fill="#F79E1B"/>
<path d="M25 20.6709C25.8648 20.6709 26.5658 18.8211 26.5658 16.5393C26.5658 14.2575 25.8648 12.4077 25 12.4077C24.1352 12.4077 23.4342 14.2575 23.4342 16.5393C23.4342 18.8211 24.1352 20.6709 25 20.6709Z" fill="#FF5F00"/>
<path d="M23.4342 16.5391C23.4369 18.0607 23.9935 19.5294 25 20.6706C24.1606 21.6234 23.0509 22.2979 21.8187 22.6043C20.5864 22.9108 19.29 22.8346 18.1022 22.386C16.9143 21.9373 15.8912 21.1375 15.1692 20.093C14.4471 19.0485 14.0604 17.8088 14.0604 16.5391C14.0604 15.2693 14.4471 14.0296 15.1692 12.9851C15.8912 11.9406 16.9143 11.1408 18.1022 10.6922C19.29 10.2435 20.5864 10.1674 21.8187 10.4738C23.0509 10.7802 24.1606 11.4547 25 12.4075C23.9935 13.5487 23.4369 15.0174 23.4342 16.5391Z" fill="#EB001B"/>
</svg>
