<svg width="50" height="34" viewBox="0 0 50 34" fill="none" xmlns="http://www.w3.org/2000/svg">
<rect y="0.0195312" width="50" height="33" rx="7" fill="white"/>
<g clip-path="url(#clip0)">
<path d="M23.3894 21.8556H20.8864L22.452 12.1753H24.9549L23.3894 21.8556Z" fill="#00579F"/>
<path d="M32.4631 12.4121C31.9694 12.2163 31.1863 12 30.2181 12C27.7463 12 26.0056 13.3181 25.995 15.2026C25.9744 16.5929 27.2412 17.3652 28.1886 17.8288C29.157 18.3025 29.4862 18.6117 29.4862 19.0339C29.4764 19.6825 28.7037 19.9814 27.9831 19.9814C26.9837 19.9814 26.4483 19.8273 25.6346 19.4665L25.305 19.3118L24.9547 21.4848C25.5418 21.7523 26.6233 21.9896 27.7463 22C30.3726 22 32.0824 20.7023 32.1027 18.6941C32.1127 17.5921 31.4438 16.7477 30.0017 16.0578C29.1262 15.6148 28.5901 15.3162 28.5901 14.863C28.6004 14.451 29.0436 14.029 30.0318 14.029C30.8455 14.0083 31.4434 14.2039 31.8963 14.3997L32.1227 14.5025L32.4631 12.4121Z" fill="#00579F"/>
<path d="M35.7897 18.4262C35.9959 17.8701 36.789 15.7177 36.789 15.7177C36.7786 15.7384 36.9948 15.1513 37.1183 14.791L37.2933 15.6251C37.2933 15.6251 37.7673 17.9422 37.8702 18.4262C37.479 18.4262 36.2841 18.4262 35.7897 18.4262ZM38.8794 12.1753H36.9433C36.3462 12.1753 35.8926 12.3502 35.6351 12.9785L31.9172 21.8554H34.5435C34.5435 21.8554 34.9759 20.6606 35.0688 20.4033C35.3569 20.4033 37.9118 20.4033 38.2824 20.4033C38.3543 20.7432 38.5811 21.8554 38.5811 21.8554H40.8986L38.8794 12.1753Z" fill="#00579F"/>
<path d="M18.7958 12.1753L16.3445 18.7763L16.0767 17.4375C15.6235 15.8928 14.2022 14.2144 12.6161 13.3799L14.8614 21.8453H17.5082L21.4425 12.1753H18.7958Z" fill="#00579F"/>
<path d="M14.0683 12.1753H10.0412L10 12.3709C13.1414 13.1742 15.2219 15.1106 16.0767 17.438L15.2012 12.989C15.0571 12.3707 14.6142 12.1957 14.0683 12.1753Z" fill="#FAA61A"/>
</g>
<defs>
<clipPath id="clip0">
<rect width="30.8987" height="10" fill="white" transform="translate(10 12)"/>
</clipPath>
</defs>
</svg>
