<svg width="103" height="40" viewBox="0 0 103 40" fill="none" xmlns="http://www.w3.org/2000/svg">
<path d="M72.433 0.0218568C74.7717 0.896129 77.1324 1.59555 79.6918 1.57369C81.5671 1.55183 83.5087 2.12011 84.5456 3.49709C85.384 4.61179 86.443 5.00521 87.4579 5.6172C87.9875 5.92319 88.0316 6.16362 87.833 6.88489C87.2153 8.98315 84.9428 9.04872 84.0382 10.688C83.9499 10.6006 83.8396 10.535 83.7514 10.4476C83.8396 10.1634 83.9499 9.85742 83.994 9.57328C84.1485 8.63344 83.6631 8.15259 82.7585 8.3493C81.8319 8.54601 80.9052 8.80829 79.6476 9.11429C81.2803 9.79185 81.9642 11.7152 84.0161 11.0377C84.0382 11.2125 84.1264 11.3655 84.0602 11.4748C83.5528 12.5677 82.4496 13.0485 81.3465 12.6988C79.7138 12.1524 78.0811 11.606 76.4706 10.994C75.7866 10.7317 75.4336 10.841 75.0144 11.4093C73.9112 12.9611 72.8522 14.4911 72.2124 16.4145C81.192 15.9555 89.8187 17.3762 98.3571 19.4088C85.8473 19.7804 73.2935 19.4744 60.9823 23.0152C61.6442 21.0918 62.3061 19.1903 63.0341 17.092C62.2178 17.0265 61.4677 16.9172 60.7396 16.8953C53.9221 16.6767 47.2811 17.8789 40.7063 19.6056C27.0272 23.1464 14.1204 28.5887 1.50029 34.8397C1.14728 35.0146 0.79427 35.2113 0.419198 35.3862C0.375072 35.408 0.28682 35.3862 0 35.3643C11.4066 26.6653 23.7178 19.8678 36.757 14.2069C28.1745 13.1797 19.7244 11.6934 11.5169 9.04872C14.341 9.35471 17.143 9.61699 19.9671 9.9667C29.2115 11.0595 38.4338 11.4093 47.6341 9.61699C48.0533 9.52957 48.4946 9.44214 48.9138 9.26729C56.0622 6.29476 63.4754 4.24022 71.021 2.64467C71.4843 2.55725 71.9476 2.42611 72.4992 2.29496C72.4109 1.50812 72.3227 0.764988 72.2344 0C72.2786 0.0218568 72.3668 0.0218568 72.433 0.0218568ZM81.8098 3.45338C81.7657 3.56266 81.7216 3.65009 81.6774 3.75937C82.4717 4.26208 83.0012 5.33306 84.3471 4.5025C83.5087 4.15279 82.6703 3.80308 81.8098 3.45338Z" fill="#222222"/>
<path d="M102.35 27.3643L102.439 27.3425C102.439 27.6266 102.439 27.9326 102.439 28.2167C101.887 28.4353 101.357 28.6539 100.806 28.8724C100.718 28.8069 100.651 28.7413 100.563 28.6539C100.012 28.173 99.9234 27.6047 100.409 27.0802C100.872 26.5556 101.402 26.6212 101.909 27.0802C102.041 27.2113 102.196 27.2769 102.35 27.3643Z" fill="white"/>
<path d="M38.0147 39.8446C36.7792 39.8446 35.7201 39.9101 34.6611 39.8009C34.3743 39.779 33.9772 39.3419 33.8889 39.014C33.5359 37.8993 33.3153 36.7409 32.8078 35.6044C32.5651 36.9813 32.3224 38.3365 32.0797 39.7572C29.4542 39.7572 26.8949 39.7572 24.2474 39.7572C24.2032 39.2326 24.1591 38.7299 24.0929 38.0742C23.6516 38.0742 23.2104 38.1179 22.7912 38.0742C22.0852 38.0086 21.6439 38.2272 21.5336 38.9484C21.4233 39.6697 20.982 39.8664 20.276 39.8227C19.3714 39.779 18.4448 39.8009 17.3857 39.8009C17.5402 39.32 17.6505 38.9922 17.7829 38.6643C19.239 34.9268 20.7173 31.2111 22.1293 27.4518C22.4161 26.7086 22.7912 26.4464 23.5855 26.4901C24.7107 26.5556 25.858 26.5119 27.1155 26.5119C27.4244 30.5554 27.7333 34.5334 28.0643 38.5113C28.1304 38.5113 28.1966 38.5113 28.2628 38.5332C28.9247 34.5552 29.5866 30.5773 30.2485 26.6212C32.2783 26.6212 34.1978 26.4464 36.0731 26.6649C38.4339 26.9491 39.5812 28.8069 39.0517 31.1237C38.7648 32.3695 38.2133 33.4187 37.1322 34.2274C36.8674 34.4241 36.713 35.0142 36.7571 35.3639C36.8674 36.1071 37.1542 36.8283 37.3749 37.5715C37.5514 38.2927 37.772 38.9922 38.0147 39.8446ZM33.4035 31.9324C34.5729 31.845 35.2568 31.0363 35.1465 29.9653C35.0582 29.1566 34.5949 28.9599 33.8227 29.091C33.6683 30.0746 33.5359 30.9926 33.4035 31.9324ZM24.0708 35.1016C24.0708 33.8995 24.0708 32.8285 24.0708 31.7576C24.0047 31.7357 23.9385 31.7357 23.8723 31.7138C23.5193 32.8285 23.1663 33.9214 22.7912 35.1016C23.2986 35.1016 23.6516 35.1016 24.0708 35.1016Z" fill="#222222"/>
<path d="M81.1039 26.6649C80.9495 27.8015 80.8171 28.7632 80.6626 29.7467C80.2434 29.7467 79.8684 29.6593 79.5595 29.7686C78.8314 30.0309 77.9489 30.2276 77.4856 30.7521C76.3603 32.0417 76.2059 33.6591 76.5589 35.2984C76.8016 36.4131 77.4856 36.6972 79.5154 36.6316C79.4712 37.2436 79.4271 37.8337 79.3609 38.4457C79.405 38.4676 79.4492 38.4676 79.4933 38.4894C79.6257 38.1616 79.7801 37.8556 79.8904 37.5278C81.2142 34.1837 82.5601 30.8177 83.8397 27.4518C84.1045 26.7742 84.3913 26.4464 85.1856 26.5119C86.3549 26.5775 87.5242 26.5338 88.848 26.5338C89.201 30.9489 89.5761 35.3202 89.9291 39.779C88.6053 39.779 87.4139 39.779 86.1784 39.779C86.0901 39.2544 86.024 38.7517 85.9578 38.2927C84.2368 37.8775 84.1045 37.9649 83.244 39.4293C83.1116 39.6479 82.7366 39.8009 82.4718 39.8227C80.795 39.9101 79.0962 39.9757 77.4194 39.9976C74.9483 40.0631 73.2495 38.8173 72.6758 36.4349C71.9698 33.4405 72.6317 30.7084 74.5953 28.3479C76.2721 26.3371 78.5666 26.2715 81.1039 26.6649ZM85.8475 35.1672C85.8475 33.9432 85.8475 32.8504 85.8475 31.7794C85.7813 31.7794 85.7371 31.7576 85.6709 31.7576C85.34 32.8504 85.0091 33.9214 84.656 35.1235C85.1414 35.1454 85.4503 35.1454 85.8475 35.1672Z" fill="#222222"/>
<path d="M56.9225 26.6212C56.768 27.6704 56.6357 28.6321 56.4812 29.6156C56.3268 29.6593 56.2165 29.7468 56.062 29.7468C53.966 29.8779 53.9881 29.8779 53.6351 31.8669C53.2159 34.2711 52.7526 36.6535 52.3775 39.0578C52.2892 39.6479 52.0466 39.8665 51.4509 39.8446C50.5021 39.8009 49.5534 39.8446 48.4503 39.8446C48.9798 36.4568 49.4652 33.2001 49.9947 29.7686C49.2225 29.7686 48.5827 29.7686 47.8325 29.7686C47.9649 28.6539 48.0973 27.6485 48.2297 26.6212C51.142 26.6212 53.9881 26.6212 56.9225 26.6212Z" fill="#222222"/>
<path d="M99.3941 26.5556C99.2397 27.6921 99.1073 28.6757 98.9749 29.5937C98.0924 29.7467 97.0554 29.6155 96.6362 30.0745C96.1729 30.5554 96.2832 31.5827 96.1508 32.3695C95.7316 34.8393 95.3345 37.2873 94.9153 39.779C93.5915 39.779 92.356 39.779 91.0543 39.779C91.5617 36.4349 92.0471 33.1782 92.5546 29.8123C91.8486 29.8123 91.2087 29.8123 90.4365 29.8123C90.5689 28.8068 90.6572 27.9326 90.8116 27.0583C90.8337 26.8834 91.1205 26.5993 91.297 26.5993C93.9445 26.5337 96.6142 26.5556 99.3941 26.5556Z" fill="#222222"/>
<path d="M68.1084 36.566C68.0643 37.0687 68.0422 37.4184 67.9981 37.79C67.7775 39.6915 67.27 40.1068 65.3285 39.9538C62.8574 39.7571 61.2468 37.9867 61.0262 35.1016C60.8276 32.6973 61.4895 30.4898 62.9457 28.5445C64.3577 26.6648 66.8729 25.9654 69.6308 26.7085C69.4984 27.6702 69.3881 28.6757 69.2557 29.6155C69.1013 29.7029 69.0351 29.7466 68.9689 29.7466C65.9242 29.7466 63.9606 32.6755 65.2182 35.4731C65.4388 35.9758 66.2331 36.2818 66.8067 36.566C67.1597 36.6753 67.623 36.566 68.1084 36.566Z" fill="#222222"/>
<path d="M46.2221 36.588C46.1118 37.4841 46.0677 38.3147 45.8691 39.1234C45.8029 39.4075 45.3396 39.6916 45.0086 39.7572C42.0301 40.5222 39.6253 38.8174 39.184 35.5826C38.831 32.9379 39.4929 30.5118 41.1476 28.4135C42.8465 26.2497 45.2072 26.2715 47.7665 26.5994C47.6121 27.6922 47.4797 28.6977 47.3473 29.6812C43.9276 29.4189 43.3098 31.4735 43.1333 33.5717C42.9127 35.9541 43.5304 36.5224 46.2221 36.588Z" fill="#222222"/>
<path d="M57.4082 26.5775C58.6878 26.5775 59.8572 26.5775 61.2251 26.5775C61.0486 27.7141 60.8941 28.8069 60.7176 29.8998C60.2102 32.916 59.7027 35.9104 59.2173 38.9266C59.107 39.5823 58.9085 39.8883 58.1804 39.8446C57.2317 39.779 56.283 39.8227 55.2681 39.8227C55.9961 35.3202 56.7022 30.9707 57.4082 26.5775Z" fill="#222222"/>
<path d="M81.81 3.45297C82.6705 3.80268 83.5089 4.15239 84.3693 4.5021C83.0235 5.33266 82.4719 4.26167 81.6997 3.75897C81.7218 3.64968 81.7659 3.5404 81.81 3.45297Z" fill="white"/>
<path d="M33.4033 31.9325C33.5357 30.9926 33.6681 30.0746 33.8005 29.0911C34.5727 28.9599 35.058 29.1566 35.1242 29.9653C35.2345 31.0363 34.5506 31.8669 33.4033 31.9325Z" fill="white"/>
<path d="M24.0707 35.1016C23.6294 35.1016 23.2764 35.1016 22.791 35.1016C23.1661 33.9213 23.5191 32.8285 23.8721 31.7138C23.9383 31.7357 24.0045 31.7357 24.0707 31.7575C24.0707 32.8285 24.0707 33.8776 24.0707 35.1016Z" fill="white"/>
<path d="M85.8472 35.1672C85.428 35.1453 85.1191 35.1235 84.6558 35.1016C85.0088 33.9214 85.3397 32.8285 85.6707 31.7357C85.7368 31.7357 85.781 31.7575 85.8472 31.7575C85.8472 32.8504 85.8472 33.9432 85.8472 35.1672Z" fill="white"/>
</svg>
