<svg width="210" height="34" viewBox="0 0 210 34" fill="none" xmlns="http://www.w3.org/2000/svg">
<path fill-rule="evenodd" clip-rule="evenodd" d="M194.881 27.9357V5.79043H200.75C202.657 5.79043 204.124 5.93613 204.858 6.08182C205.738 6.22752 206.472 6.5189 206.912 6.95598C207.499 7.53875 208.086 8.12152 208.379 8.84998C208.673 9.57844 208.82 10.4526 208.82 11.6181C208.82 12.9294 208.526 13.9492 208.086 14.8234C207.646 15.6975 206.912 16.426 206.032 17.0087C207.646 17.7372 208.526 19.3398 208.526 22.108C208.526 22.108 208.526 22.108 208.526 22.2537C208.526 22.5451 208.526 22.9821 208.526 23.4192C208.526 25.896 208.966 27.4986 209.7 28.0814H203.684C203.537 27.6443 203.391 27.2072 203.391 26.6244C203.391 26.1874 203.244 25.6046 203.244 25.0218C203.244 24.7304 203.244 24.2934 203.244 23.7106C203.244 23.2735 203.244 22.8364 203.244 22.6908C203.244 21.3795 203.097 20.3597 202.657 19.9226C202.364 19.4855 201.63 19.1941 200.75 19.1941H199.723V28.0814H194.881V27.9357ZM200.016 15.1147C200.163 15.1147 200.163 15.1147 200.309 15.1147C200.456 15.1147 200.603 15.1147 200.603 15.1147C201.63 15.1147 202.51 14.9691 202.951 14.532C203.391 14.0949 203.684 13.3664 203.684 12.3466C203.684 11.3267 203.391 10.744 202.951 10.3069C202.51 9.86983 201.777 9.72413 200.603 9.72413C200.603 9.72413 200.456 9.72413 200.309 9.72413C200.163 9.72413 200.016 9.72413 200.016 9.72413V15.1147ZM179.474 27.9357V5.79043H191.653V10.0155H184.757V14.0949H191.212V18.4657H184.757V23.2735H191.653V27.79H179.474V27.9357ZM170.671 27.9357V5.79043H175.806V27.9357H170.671ZM153.357 27.9357V5.79043H159.08C161.134 5.79043 162.748 5.93613 163.775 6.3732C164.802 6.66459 165.535 7.39306 166.122 8.26721C166.563 8.99567 166.856 9.86982 167.149 10.8897C167.296 11.9095 167.443 13.9492 167.443 16.8631C167.443 19.7769 167.296 21.8166 167.149 22.8364C167.003 23.8563 166.563 24.7304 166.122 25.4589C165.535 26.3331 164.655 26.9158 163.775 27.3529C162.748 27.6443 161.28 27.9357 159.08 27.9357H153.357ZM158.639 10.0155V24.002C158.786 24.002 158.786 24.002 158.933 24.002C159.08 24.002 159.226 24.002 159.373 24.002C159.96 24.002 160.4 23.8563 160.84 23.7106C161.28 23.5649 161.574 23.2735 161.721 22.9821C161.867 22.6908 162.014 22.2537 162.161 21.3795C162.308 20.6511 162.308 19.0484 162.308 16.8631V15.8432C162.308 13.9492 162.308 12.7837 162.161 12.0552C162.161 11.4724 162.014 11.0354 161.721 10.744C161.574 10.4526 161.28 10.1612 160.84 10.0155C160.4 9.86982 159.96 9.72413 159.373 9.72413C159.226 9.72413 159.08 9.72413 158.933 9.72413C158.786 10.0155 158.786 10.0155 158.639 10.0155ZM136.044 27.9357V5.79043H141.913C143.82 5.79043 145.287 5.93613 146.021 6.08182C146.901 6.22752 147.635 6.5189 148.075 6.95598C148.662 7.53875 149.249 8.12152 149.542 8.84998C149.836 9.57844 149.983 10.4526 149.983 11.6181C149.983 12.9294 149.689 13.9492 149.249 14.8234C148.809 15.6975 148.075 16.426 147.195 17.0087C148.809 17.7372 149.689 19.3398 149.689 22.108C149.689 22.108 149.689 22.108 149.689 22.2537C149.689 22.5451 149.689 22.9821 149.689 23.4192C149.689 25.896 150.129 27.4986 150.863 28.0814H144.847C144.7 27.6443 144.554 27.2072 144.554 26.6244C144.554 26.1874 144.407 25.6046 144.407 25.0218C144.407 24.7304 144.407 24.2934 144.407 23.7106C144.407 23.2735 144.407 22.8364 144.407 22.6908C144.407 21.3795 144.26 20.3597 143.82 19.9226C143.82 19.3398 143.233 19.0484 142.353 19.0484H141.326V27.9357H136.044ZM141.179 15.1147C141.326 15.1147 141.326 15.1147 141.472 15.1147C141.619 15.1147 141.766 15.1147 141.766 15.1147C142.793 15.1147 143.673 14.9691 144.114 14.532C144.554 14.0949 144.847 13.3664 144.847 12.3466C144.847 11.3267 144.554 10.744 144.114 10.3069C143.673 9.86983 142.94 9.72413 141.766 9.72413C141.766 9.72413 141.619 9.72413 141.472 9.72413C141.326 9.72413 141.179 9.72413 141.179 9.72413V15.1147ZM118.143 27.9357L122.985 5.79043H129.148L133.989 27.9357H128.854L128.267 23.7106H124.159L123.572 27.9357H118.143ZM124.599 19.7769H127.534L126.066 10.1612L124.599 19.7769ZM102.59 27.9357V5.79043H108.166C109.926 5.79043 111.1 5.79044 111.834 5.93613C112.568 6.08183 113.154 6.22752 113.741 6.6646C114.475 7.10167 115.209 7.83013 115.502 8.55859C115.942 9.28705 116.089 10.3069 116.089 11.3267C116.089 12.3466 115.942 13.0751 115.502 13.9492C115.062 14.6777 114.475 15.4061 113.741 16.1346C114.768 16.5717 115.502 17.3001 115.942 18.1743C116.382 19.0484 116.676 20.0683 116.676 21.2338C116.676 22.2537 116.529 23.1278 116.236 24.002C115.942 24.8761 115.355 25.6046 114.768 26.1874C114.181 26.7701 113.448 27.2072 112.568 27.4986C111.687 27.79 110.367 27.9357 108.606 27.9357H102.59ZM107.872 24.002H108.312C109.34 24.002 110.22 23.7106 110.807 23.2735C111.394 22.8364 111.687 21.9623 111.687 20.9424C111.687 20.0683 111.394 19.3398 110.807 18.9027C110.22 18.4657 109.486 18.32 108.312 18.32H108.019V24.002H107.872ZM107.872 14.532H108.166C109.193 14.532 109.926 14.3863 110.367 13.9492C110.807 13.5121 111.1 12.9294 111.1 11.9095C111.1 11.1811 110.807 10.5983 110.367 10.1612C109.926 9.72413 109.193 9.57844 108.312 9.57844C108.166 9.57844 108.019 9.57844 108.019 9.57844C107.872 9.57844 107.872 9.57844 107.872 9.57844V14.532ZM79.1141 27.9357V5.79043H86.4503L88.5045 15.2604C88.5045 15.2604 88.6512 15.8432 88.798 17.0087C88.9447 18.1743 89.0914 19.3398 89.2381 20.3597C89.3849 19.4855 89.5316 18.4657 89.6783 17.1544C89.825 15.8432 89.9718 15.2604 89.9718 15.1147L91.8792 5.79043H99.0688V27.9357H94.2268L94.667 10.8897L90.9988 27.9357H87.0372L83.5158 10.8897L83.956 27.9357H79.1141ZM60.9201 16.8631C60.9201 14.2406 61.0668 12.2009 61.2135 11.0354C61.3603 9.86983 61.6537 8.84998 62.0939 8.12152C62.6808 7.10167 63.5611 6.37321 64.5882 5.93613C65.6153 5.49906 66.7891 5.20767 68.2564 5.20767C69.7236 5.20767 70.8974 5.49906 71.9245 5.93613C72.9516 6.37321 73.8319 7.10167 74.4188 8.12152C74.859 8.84998 75.1525 9.72413 75.4459 11.0354C75.5926 12.2009 75.7394 14.2406 75.7394 16.8631C75.7394 19.4855 75.5926 21.3795 75.4459 22.6908C75.2992 23.8563 74.859 24.8761 74.4188 25.6046C73.8319 26.6244 72.9516 27.3529 71.9245 27.79C70.8974 28.2271 69.7236 28.5184 68.2564 28.5184C66.7891 28.5184 65.6153 28.2271 64.5882 27.79C63.5611 27.3529 62.6808 26.6244 62.0939 25.6046C61.6537 24.8761 61.3603 24.002 61.2135 22.6908C61.0668 21.5252 60.9201 19.4855 60.9201 16.8631ZM70.604 18.9027V14.9691C70.604 12.4923 70.4572 11.0354 70.1638 10.4526C69.8703 9.86982 69.2834 9.57844 68.4031 9.57844C67.6695 9.57844 67.0826 9.86982 66.7891 10.4526C66.4957 11.0354 66.3489 12.4923 66.3489 14.9691V18.9027C66.3489 21.2338 66.4957 22.8364 66.7891 23.4192C67.0826 24.002 67.6695 24.2934 68.4031 24.2934C69.2834 24.2934 69.7236 24.002 70.0171 23.4192C70.4573 22.8364 70.604 21.3795 70.604 18.9027ZM44.1934 27.9357V5.79043H49.7689C51.5296 5.79043 52.7034 5.79044 53.4371 5.93613C54.1707 6.08183 54.7576 6.22752 55.3445 6.6646C56.0781 7.10167 56.8118 7.83013 57.1052 8.55859C57.5454 9.28705 57.6921 10.3069 57.6921 11.3267C57.6921 12.3466 57.5454 13.0751 57.1052 13.9492C56.665 14.6777 56.0781 15.4061 55.3445 16.1346C56.3716 16.5717 57.1052 17.3001 57.5454 18.1743C57.9856 19.0484 58.279 20.0683 58.279 21.2338C58.279 22.2537 58.1323 23.1278 57.8388 24.002C57.5454 24.8761 56.9585 25.6046 56.3716 26.1874C55.7847 26.7701 55.0511 27.2072 54.1707 27.4986C53.2903 27.79 51.9698 27.9357 50.2091 27.9357H44.1934ZM49.4755 24.002H49.9157C50.9427 24.002 51.8231 23.7106 52.41 23.2735C52.9969 22.8364 53.2903 21.9623 53.2903 20.9424C53.2903 20.0683 52.9969 19.3398 52.41 18.9027C51.8231 18.4657 51.0895 18.32 49.9157 18.32H49.4755V24.002ZM49.4755 14.532H49.7689C50.796 14.532 51.5296 14.3863 51.9698 13.9492C52.41 13.5121 52.7034 12.9294 52.7034 11.9095C52.7034 11.1811 52.41 10.5983 51.9698 10.1612C51.5296 9.72413 50.796 9.57844 49.9157 9.57844C49.7689 9.57844 49.6222 9.57844 49.6222 9.57844C49.4755 9.57844 49.4755 9.57844 49.4755 9.57844V14.532Z" fill="#B32424"/>
<path fill-rule="evenodd" clip-rule="evenodd" d="M25.5035 21.6089C23.9057 24.6202 20.7716 26.6481 17.1458 26.6481C13.52 26.6481 10.3859 24.6202 8.78809 21.6089H0.614746L0.7991 22.2849C0.922008 22.6536 1.22928 22.7151 1.598 22.7151L5.53105 22.6536C5.89977 22.6536 6.20704 22.838 6.20704 23.3296H1.16783C1.22928 23.8213 1.53655 23.9442 1.96673 23.9442H6.3914C6.76012 23.9442 6.69867 24.6816 6.3914 24.6202L1.78236 24.5587C1.78236 24.9889 2.21254 25.2962 2.70417 25.2962H6.08413L4.54779 28.0001C4.36342 28.3688 4.30197 28.6147 4.60924 28.9834L5.40813 29.5979C5.65395 29.8437 6.02267 29.7208 6.32994 29.5979L9.7099 27.6314C10.0172 27.447 10.3859 27.447 10.6932 27.8772L6.32994 30.3354C6.69867 30.7655 6.94449 30.7041 7.37466 30.4583L11.1848 28.2459C11.5535 28.0616 11.7993 28.7376 11.4921 28.8605L7.49757 31.0728C7.74339 31.4415 8.23501 31.503 8.66519 31.2572L11.5535 29.5979L11.615 32.6706C11.615 33.0393 11.6764 33.3466 12.1681 33.531L13.1513 33.6539C13.52 33.7153 13.7659 33.4695 13.9502 33.1622L15.9167 29.7208C16.1011 29.4136 16.4084 29.2292 16.8385 29.475L14.3189 33.7768C14.8106 33.9611 15.0564 33.7768 15.3022 33.4081L17.5145 29.5979C17.6989 29.2906 18.3134 29.6594 18.1291 29.9666L15.7938 33.8997C16.224 34.1455 16.6542 33.8997 16.9 33.4695L18.5593 30.5812L20.157 33.2237C20.3414 33.5924 20.5872 33.7768 21.0789 33.7153L22.0007 33.3466C22.3694 33.2237 22.4308 32.9164 22.4308 32.5477L22.3694 28.6147C22.3694 28.2459 22.5538 27.9387 23.0454 27.9387V32.9164C23.5985 32.7935 23.7214 32.5477 23.7214 32.0561V27.6928C23.7214 27.3241 24.4588 27.3856 24.4588 27.7543L24.3974 32.3019C24.8275 32.3019 25.1348 31.8717 25.1348 31.3801V28.0616L27.8388 29.5365C28.2075 29.7208 28.4533 29.7823 28.8835 29.5365L29.498 28.7376C29.7438 28.4917 29.6209 28.123 29.498 27.8158L27.4701 24.4358C27.2857 24.1285 27.2857 23.7598 27.7159 23.514L30.2355 27.8158C30.6657 27.447 30.6042 27.2012 30.3584 26.771L28.146 22.9609C27.9617 22.5922 28.6377 22.3464 28.822 22.6536L31.0344 26.5867C31.4646 26.3409 31.4645 25.8492 31.2187 25.4191L29.498 22.5922L32.6322 22.5307C33.0623 22.5307 33.3082 22.4693 33.4925 21.9776L33.6769 21.4246H25.5035V21.6089Z" fill="#B32424"/>
<path fill-rule="evenodd" clip-rule="evenodd" d="M13.0283 21.609C14.073 22.6537 15.5479 23.2683 17.1457 23.2683C18.7435 23.2683 20.157 22.6537 21.2017 21.609H23.414C22.062 23.5755 19.7268 24.9275 17.1457 24.9275C14.5647 24.9275 12.2294 23.637 10.8774 21.609H13.0283Z" fill="#B32424"/>
<path fill-rule="evenodd" clip-rule="evenodd" d="M8.78789 12.5138C10.3857 9.50261 13.5198 7.47464 17.1456 7.47464C20.7714 7.47464 23.9055 9.50261 25.5033 12.5138H33.6767L33.4923 11.8379C33.3694 11.4691 33.0621 11.4077 32.6934 11.4077L28.7604 11.4691C28.3917 11.4691 28.0844 11.2848 28.0844 10.7931H33.1236C33.0621 10.3015 32.7549 10.1786 32.3247 10.1786H27.9C27.5313 10.1786 27.5928 9.44115 27.9 9.50261L32.5091 9.56406C32.5091 9.13388 32.0789 8.82662 31.5873 8.82662H28.2073L29.7436 6.12265C29.928 5.75393 29.9895 5.50811 29.6822 5.13939L28.8833 4.52485C28.6375 4.27904 28.2688 4.40195 27.9615 4.52485L24.5815 6.49137C24.2743 6.67573 23.9055 6.67574 23.5983 6.24556L27.9615 3.78741C27.5928 3.35723 27.3469 3.41869 26.9168 3.6645L22.9837 5.75393C22.615 5.93829 22.3692 5.2623 22.6765 5.13939L26.6709 2.92706C26.4251 2.55833 25.9335 2.49688 25.5033 2.74269L22.615 4.40195L22.5535 1.32926C22.5535 0.960538 22.4921 0.653269 22.0005 0.468907L21.0172 0.345997C20.6485 0.284543 20.4027 0.53036 20.2183 0.837629L18.2518 4.27904C18.0674 4.58631 17.7601 4.77067 17.2685 4.52485L19.7881 0.223091C19.2965 0.03873 19.0507 0.22309 18.8049 0.591813L16.5925 4.40195C16.4082 4.70922 15.7936 4.34049 15.978 4.03322L18.3132 0.100186C17.8831 -0.145629 17.4529 0.100184 17.2071 0.53036L15.5478 3.41868L13.95 0.776176C13.7657 0.407453 13.5198 0.22309 13.0282 0.284544L12.1064 0.653266C11.7377 0.776173 11.6762 1.08344 11.6762 1.45217L11.7377 5.38521C11.7377 5.75393 11.5533 6.0612 11.0617 6.0612V1.08344C10.5086 1.20635 10.3857 1.45217 10.3857 1.9438V6.30701C10.3857 6.67574 9.64825 6.61428 9.64825 6.24556L9.70969 1.69798C9.27952 1.69798 8.97225 2.12816 8.97225 2.61979V5.93829L6.26829 4.4634C5.89956 4.27904 5.65375 4.21759 5.22357 4.4634L4.60904 5.2623C4.36322 5.50811 4.48613 5.87683 4.60904 6.1841L6.637 9.56406C6.82137 9.87133 6.82137 10.2401 6.39119 10.4859L3.87158 6.1841C3.44141 6.55283 3.50286 6.79864 3.74868 7.22882L5.96102 11.0389C6.14538 11.4077 5.46938 11.6535 5.28502 11.3462L3.07269 7.41318C2.64251 7.65899 2.64251 8.15062 2.88833 8.5808L4.60904 11.4077L1.47489 11.4691C1.04471 11.4691 0.798901 11.5306 0.614539 12.0222L0.430176 12.5753H8.78789V12.5138Z" fill="#B32424"/>
<path fill-rule="evenodd" clip-rule="evenodd" d="M21.2631 12.5139C20.2184 11.4692 18.7435 10.8546 17.1457 10.8546C15.5479 10.8546 14.1345 11.4692 13.0898 12.5139H10.8774C12.2294 10.5474 14.5647 9.19537 17.1457 9.19537C19.7268 9.19537 22.062 10.4859 23.414 12.5139H21.2631Z" fill="#B32424"/>
<path fill-rule="evenodd" clip-rule="evenodd" d="M31.4643 19.3967V14.7262H32.6934C33.0621 14.7262 33.3694 14.7262 33.5538 14.7877C33.7381 14.8492 33.861 14.9106 33.9839 14.9721C34.1068 15.095 34.2298 15.2179 34.2912 15.4022C34.3527 15.5866 34.4141 15.771 34.4141 15.9553C34.4141 16.2011 34.3527 16.447 34.2912 16.6313C34.1683 16.8157 34.0454 16.9386 33.861 17.0615C34.1683 17.1844 34.3527 17.5531 34.4141 18.1062C34.4141 18.1677 34.4141 18.2291 34.4141 18.352C34.4141 18.9051 34.537 19.2124 34.6599 19.3353H33.3694C33.3694 19.2124 33.308 19.1509 33.308 19.028C33.308 18.9051 33.308 18.7822 33.308 18.6593C33.308 18.5978 33.308 18.4749 33.308 18.4135C33.308 18.2906 33.308 18.2291 33.308 18.2291C33.308 17.9218 33.2465 17.7375 33.185 17.676C33.1236 17.5531 33.0007 17.4917 32.7549 17.4917H32.5091V19.3353H31.4643V19.3967ZM32.5091 16.6928H32.5705H32.632C32.8778 16.6928 33.0007 16.6313 33.1236 16.5699C33.2465 16.5084 33.2465 16.324 33.2465 16.1397C33.2465 15.9553 33.185 15.771 33.1236 15.7095C33.0007 15.6481 32.8778 15.5866 32.632 15.5866H32.5705H32.5091V16.6928ZM28.2687 19.3967V14.7262H30.7883V15.6481H29.3135V16.5084H30.6654V17.4302H29.3135V18.4749H30.7883V19.3967H28.2687ZM26.4251 19.3967V14.7262H27.5313V19.3967H26.4251ZM22.7994 19.3967V14.7262H23.967C24.3972 14.7262 24.7044 14.7877 24.9502 14.8492C25.1346 14.9106 25.319 15.0335 25.4419 15.2179C25.5648 15.3408 25.6262 15.5251 25.6262 15.771C25.6877 16.0168 25.6877 16.447 25.6877 17.0615C25.6877 17.676 25.6877 18.1062 25.6262 18.352C25.5648 18.5978 25.5033 18.7822 25.4419 18.9051C25.319 19.0895 25.1346 19.2124 24.9502 19.2738C24.7659 19.3353 24.3972 19.3967 23.967 19.3967H22.7994ZM23.9055 15.6481V18.5978H23.967C23.967 18.5978 24.0284 18.5978 24.0899 18.5978C24.2128 18.5978 24.2742 18.5978 24.3972 18.5364C24.4586 18.4749 24.5201 18.4749 24.5815 18.4135C24.643 18.352 24.643 18.2291 24.643 18.1062C24.643 17.9218 24.643 17.6146 24.643 17.1844V17C24.643 16.6313 24.643 16.324 24.643 16.2011C24.643 16.0782 24.5815 15.9553 24.5815 15.8939C24.5201 15.8324 24.4586 15.771 24.3972 15.771C24.3357 15.7095 24.2128 15.7095 24.0899 15.7095C24.0284 15.6481 23.967 15.6481 23.9055 15.6481C23.967 15.6481 23.9055 15.6481 23.9055 15.6481ZM19.1736 19.3967V14.7262H20.4027C20.7714 14.7262 21.0786 14.7262 21.263 14.7877C21.4474 14.8492 21.5703 14.9106 21.6932 14.9721C21.8161 15.095 21.939 15.2179 22.0004 15.4022C22.0619 15.5866 22.1234 15.771 22.1234 15.9553C22.1234 16.2011 22.0619 16.447 22.0004 16.6313C21.8775 16.8157 21.7546 16.9386 21.5703 17.0615C21.8775 17.1844 22.0619 17.5531 22.1234 18.1062C22.1234 18.1677 22.1234 18.2291 22.1234 18.352C22.1234 18.9051 22.2463 19.2124 22.3692 19.3353H21.0786C21.0786 19.2124 21.0172 19.1509 21.0172 19.028C21.0172 18.9051 21.0172 18.7822 21.0172 18.6593C21.0172 18.5978 21.0172 18.4749 21.0172 18.4135C21.0172 18.2906 21.0172 18.2291 21.0172 18.2291C21.0172 17.9218 20.9557 17.7375 20.8943 17.676C20.8328 17.5531 20.7099 17.4917 20.4641 17.4917H20.2183V19.3353H19.1736V19.3967ZM20.2798 16.6928H20.3412H20.4027C20.6485 16.6928 20.7714 16.6313 20.8943 16.5699C21.0172 16.5084 21.0172 16.324 21.0172 16.1397C21.0172 15.9553 20.9557 15.771 20.8943 15.7095C20.7714 15.6481 20.6485 15.5866 20.4027 15.5866H20.3412H20.2798V16.6928ZM15.4864 19.3967L16.4696 14.7262H17.7601L18.7434 19.3967H17.6372L17.5143 18.5364H16.654L16.5311 19.3967H15.4864ZM16.8383 17.676H17.4529L17.1456 15.6481L16.8383 17.676ZM12.2293 19.3967V14.7262H13.3969C13.7656 14.7262 14.0115 14.7262 14.1344 14.7877C14.2573 14.7877 14.4416 14.8492 14.5645 14.9106C14.7489 15.0335 14.8718 15.1564 14.9333 15.2793C14.9947 15.4637 15.0562 15.6481 15.0562 15.8939C15.0562 16.0782 14.9947 16.2626 14.9333 16.447C14.8718 16.6313 14.7489 16.7542 14.5645 16.8771C14.7489 17 14.9333 17.1229 15.0562 17.3073C15.1791 17.4917 15.2405 17.676 15.2405 17.9833C15.2405 18.1677 15.1791 18.4135 15.1176 18.5978C15.0562 18.7822 14.9333 18.9666 14.8104 19.0895C14.6875 19.2124 14.5645 19.3353 14.3802 19.3353C14.1958 19.3967 13.95 19.3967 13.5813 19.3967H12.2293ZM13.3355 18.5978H13.4584C13.7042 18.5978 13.8271 18.5364 13.95 18.4135C14.0729 18.2906 14.1344 18.1677 14.1344 17.9218C14.1344 17.7375 14.0729 17.5531 13.95 17.4917C13.8271 17.4302 13.6427 17.3688 13.3969 17.3688H13.3355V18.5978ZM13.3355 16.5699H13.3969C13.5813 16.5699 13.7656 16.5084 13.8886 16.447C14.0115 16.3855 14.0115 16.2011 14.0115 16.0168C14.0115 15.8324 13.95 15.7095 13.8886 15.6481C13.7656 15.5866 13.6427 15.5251 13.4584 15.5251H13.3969C13.3969 15.5251 13.3969 15.5251 13.3355 15.5251V16.5699ZM7.313 19.3967V14.7262H8.84934L9.27952 16.6928C9.27952 16.6928 9.27952 16.8157 9.34097 17.0615C9.40243 17.3073 9.40243 17.5531 9.46388 17.7989C9.46388 17.6146 9.52533 17.3688 9.58679 17.1229C9.64824 16.8771 9.64824 16.6928 9.64824 16.6928L10.0784 14.7262H11.5533V19.3967H10.5086L10.6315 15.8324L9.89405 19.3967H9.09515L8.35771 15.8324L8.48062 19.3967H7.313ZM3.50286 17.0615C3.50286 16.5084 3.50286 16.0782 3.56431 15.8324C3.62577 15.5866 3.68722 15.4022 3.74868 15.2179C3.87158 15.0335 4.05595 14.8492 4.24031 14.7877C4.48612 14.6648 4.73194 14.6648 5.03921 14.6648C5.34648 14.6648 5.59229 14.7262 5.83811 14.7877C6.02247 14.9106 6.20683 15.0335 6.32973 15.2179C6.45264 15.3408 6.5141 15.5866 6.5141 15.8324C6.57555 16.0782 6.57555 16.5084 6.57555 17.0615C6.57555 17.6146 6.57555 18.0448 6.5141 18.2906C6.45264 18.5364 6.39119 18.7822 6.32973 18.9051C6.20683 19.0895 6.02247 19.2738 5.83811 19.3353C5.65375 19.4582 5.34648 19.4582 5.03921 19.4582C4.73194 19.4582 4.48612 19.3967 4.24031 19.3353C4.05595 19.2124 3.87158 19.0895 3.74868 18.9051C3.62577 18.7822 3.56431 18.5364 3.56431 18.2906C3.56431 18.0448 3.50286 17.676 3.50286 17.0615ZM5.53084 17.4917V16.6313C5.53084 16.1397 5.46938 15.771 5.40793 15.6481C5.34647 15.5251 5.22357 15.4637 5.03921 15.4637C4.85485 15.4637 4.73194 15.5251 4.67048 15.6481C4.60903 15.771 4.54758 16.0782 4.54758 16.5699V17.4302C4.54758 17.9218 4.60903 18.2291 4.67048 18.352C4.73194 18.4749 4.85485 18.5364 5.03921 18.5364C5.22357 18.5364 5.34647 18.4749 5.40793 18.352C5.46938 18.352 5.53084 18.0448 5.53084 17.4917ZM0 19.3967V14.7262H1.16762C1.53634 14.7262 1.78215 14.7262 1.90506 14.7877C2.08942 14.7877 2.21233 14.8492 2.33524 14.9106C2.5196 15.0335 2.64251 15.1564 2.70396 15.2793C2.76542 15.4637 2.82687 15.6481 2.82687 15.8939C2.82687 16.0782 2.76542 16.2626 2.70396 16.447C2.64251 16.6313 2.5196 16.7542 2.33524 16.8771C2.5196 17 2.70396 17.1229 2.82687 17.3073C2.94978 17.4917 3.01123 17.676 3.01123 17.9833C3.01123 18.1677 2.94978 18.4135 2.88833 18.5978C2.82687 18.7822 2.70396 18.9666 2.58106 19.0895C2.45815 19.2124 2.33524 19.3353 2.15088 19.3353C1.96652 19.3967 1.7207 19.3967 1.35198 19.3967H0ZM1.10616 18.5978H1.22908C1.47489 18.5978 1.59779 18.5364 1.7207 18.4135C1.84361 18.2906 1.90506 18.1677 1.90506 17.9218C1.90506 17.7375 1.84361 17.5531 1.7207 17.4917C1.59779 17.4302 1.41343 17.3688 1.16762 17.3688H1.10616V18.5978ZM1.10616 16.5699H1.16762C1.35198 16.5699 1.53634 16.5084 1.65925 16.447C1.78216 16.3855 1.78216 16.2011 1.78216 16.0168C1.78216 15.8324 1.7207 15.7095 1.65925 15.6481C1.53634 15.5866 1.41344 15.5251 1.22908 15.5251H1.16762C1.16762 15.5251 1.16761 15.5251 1.10616 15.5251V16.5699Z" fill="#B32424"/>
</svg>
