<svg width="255" height="40" viewBox="0 0 255 40" fill="none" xmlns="http://www.w3.org/2000/svg">
<path fill-rule="evenodd" clip-rule="evenodd" d="M0 22.0099V32.3144H23.5117V22.0099V20.5585H28.1559C31.0586 20.5585 35.9932 20.9939 40.3472 22.0099C45.572 23.1709 50.0711 24.9125 50.0711 27.6701C50.0711 29.8471 46.5879 32.3144 46.5879 32.3144H80.259C80.259 32.3144 79.3882 28.5409 77.6466 26.2187C76.4855 24.6223 75.1793 23.1709 73.0023 22.0099C71.1155 20.9939 68.7934 20.2683 65.4553 19.6877V19.1072C66.9067 19.1072 70.9704 17.6558 74.5988 15.3337C79.3882 12.1408 80.259 6.19028 80.259 6.19028H46.8782C46.8782 6.19028 49.6357 8.51242 49.6357 10.5443C49.6357 14.8983 33.9613 18.2364 28.1559 18.2364H23.5117V6.19028H0V22.0099ZM86.0643 22.0099V6.48055H94.4821V14.8983L101.884 6.48055H111.753L102.319 16.2045L106.093 22.0099L112.769 32.3144H102.61L96.5139 22.0099L94.4821 24.0417V32.1692H86.0643V22.0099ZM114.946 22.0099C119.01 20.4134 124.815 21.2842 124.815 18.962C124.815 17.6558 123.219 17.5107 122.348 17.5107C121.332 17.5107 119.88 17.6559 119.735 19.2523H112.624C112.624 15.1886 115.381 13.0116 122.928 13.0116C131.781 13.0116 132.362 16.3496 132.362 20.7037V22.0099V29.5568C132.362 30.5728 132.362 31.1533 133.378 31.879V32.1692H125.541L125.25 30.1374C123.219 32.1692 120.896 32.6046 118.139 32.6046C114.511 32.6046 111.463 30.863 111.463 26.9444C111.463 24.332 112.914 22.8807 114.946 22.0099ZM134.249 22.0099L131.491 13.5921H138.748L140.78 22.0099L141.505 25.2028L142.376 22.0099L144.553 13.5921H150.939L152.971 22.0099L153.697 25.2028L154.422 22.0099L156.599 13.5921H163.711L160.953 22.0099L157.615 32.3144H150.359L147.601 22.0099L147.456 21.2842L147.311 22.0099L144.843 32.3144H137.587L134.249 22.0099ZM165.162 22.0099C169.081 20.4134 175.031 21.2842 175.031 18.962C175.031 17.6558 173.435 17.5107 172.564 17.5107C171.548 17.5107 170.097 17.6559 169.952 19.2523H162.695C162.695 15.1886 165.598 13.0116 172.999 13.0116C181.853 13.0116 182.433 16.3496 182.433 20.7037V22.0099V29.5568C182.433 30.5728 182.433 31.1533 183.449 31.879V32.1692H175.757L175.322 30.1374C173.29 32.1692 171.113 32.6046 168.21 32.6046C164.727 32.6046 161.534 30.863 161.534 26.9444C161.679 24.332 163.13 22.8807 165.162 22.0099ZM184.61 22.0099C184.03 21.2842 183.739 20.4134 183.739 19.2523C183.739 14.4629 188.674 13.0116 192.592 13.0116C196.656 13.0116 201.446 13.8824 201.881 18.962H195.205C195.06 18.3815 194.915 17.9461 194.479 17.6558C194.044 17.3656 193.608 17.2204 193.028 17.2204C191.722 17.2204 190.996 17.6559 190.996 18.5267C190.996 20.4134 196.947 19.978 200.43 22.155C201.881 23.0258 202.897 24.332 202.897 26.509C202.897 30.4276 199.704 33.04 192.738 33.04C188.384 33.04 183.594 31.7338 183.304 26.6541H190.415C190.415 27.3798 190.706 27.9603 191.141 28.3957C191.577 28.686 192.302 28.9763 193.028 28.9763C194.189 28.9763 195.35 28.686 195.35 27.3798C195.205 24.6223 187.077 25.9285 184.61 22.0099ZM206.525 22.0099C210.444 20.4134 216.394 21.2842 216.394 18.962C216.394 17.6558 214.798 17.5107 213.927 17.5107C212.911 17.5107 211.46 17.6559 211.315 19.2523H204.203C204.203 15.1886 206.961 13.0116 214.508 13.0116C223.361 13.0116 223.941 16.3496 223.941 20.7037V22.0099V29.5568C223.941 30.5728 223.941 31.1533 224.957 31.879V32.1692H217.265L216.975 30.1374C214.943 32.1692 212.766 32.6046 209.863 32.6046C206.235 32.6046 203.187 30.863 203.187 26.9444C202.897 24.332 204.493 22.8807 206.525 22.0099ZM225.248 22.0099V6.48055H232.649V19.2523L237.439 13.5921H246.147L239.18 20.8488L240.051 22.0099L247.163 32.3144H238.165L234.101 25.6382L232.649 27.0895V32.3144H225.248V22.0099ZM247.598 13.5921V22.0099V32.3144H255V22.0099V13.5921H247.598ZM247.598 5.90001V11.27H255V5.90001H247.598ZM216.394 24.0417C213.927 25.2028 210.734 24.6223 210.734 27.0895C210.734 27.9603 211.605 28.686 213.056 28.686C215.669 28.686 216.54 26.6541 216.394 24.0417ZM175.031 24.0417C172.564 25.2028 169.371 24.6223 169.371 27.0895C169.371 27.9603 170.242 28.686 171.693 28.686C174.306 28.686 175.176 26.6541 175.031 24.0417ZM124.815 24.0417C122.348 25.2028 119.155 24.6223 119.155 27.0895C119.155 27.9603 120.026 28.686 121.477 28.686C124.089 28.686 124.96 26.6541 124.815 24.0417Z" fill="#E30613"/>
</svg>
