<svg width="104" height="40" viewBox="0 0 104 40" fill="none" xmlns="http://www.w3.org/2000/svg">
<path fill-rule="evenodd" clip-rule="evenodd" d="M5.10501 36.252L6.00969 34.3134H8.65913C9.88691 34.3134 10.0808 34.5073 9.69305 35.2181C9.36995 35.7351 9.17609 35.9289 8.98223 36.1228C8.78837 36.3166 8.46527 36.3166 7.75444 36.3166H5.10501V36.252ZM0 39.8061H3.36026L4.26494 38.0614H6.91438C7.9483 38.0614 8.14216 38.2553 7.81906 38.9661L7.49596 39.8708H11.0501L11.567 38.643C12.084 37.7383 11.567 37.2213 9.95153 37.2213C10.8562 37.0275 11.1793 37.0275 11.567 36.8982C12.4717 36.5751 12.9887 36.1874 13.5057 34.9596C14.0226 33.9257 13.6995 33.3441 12.7948 33.021C12.2779 32.8271 11.3732 32.8271 9.95153 32.8271H3.36026L0 39.8061Z" fill="black"/>
<path fill-rule="evenodd" clip-rule="evenodd" d="M25.9772 37.0921H22.8108L25.9772 34.0549V37.0921ZM25.9772 38.5137L26.1711 39.7415H29.7252L29.2082 32.6333H23.9094L16.6719 39.7415H20.4199L21.4538 38.5137H25.9772Z" fill="black"/>
<path fill-rule="evenodd" clip-rule="evenodd" d="M47.7544 37.0921L47.5605 37.2859C47.2374 38.1906 46.8497 38.5137 46.3328 38.9015C45.8158 39.2246 44.7172 39.6123 43.6833 39.8061C43.1664 39.8061 42.4555 40 40.6462 40C38.5137 40 37.8029 39.8061 37.2859 39.6769C36.0581 39.3538 35.8643 38.7722 36.252 37.7383C36.252 37.4152 36.4458 37.0275 36.5751 36.8336L36.7689 36.3166L36.9628 35.9935L37.1567 35.6704C37.6736 34.6365 38.1906 33.9257 39.2891 33.538C40.1938 33.021 41.2277 32.8271 42.4555 32.8271C42.7786 32.8271 42.9725 32.8271 43.4895 32.8271C43.8126 32.8271 44.3941 32.8271 44.7172 32.8271C46.8497 32.8271 47.5605 32.8271 48.2714 33.1502C48.9822 33.3441 49.176 33.8611 48.7883 34.7658C48.5945 34.9596 48.5945 34.9596 48.4652 35.2827H45.105C45.4281 34.5719 45.105 34.378 43.3602 34.378C42.1324 34.378 41.6155 34.5719 41.2277 34.895C41.0339 35.0889 40.9046 35.2181 40.5169 35.7997C40.5169 35.9935 40.5169 35.9935 40.3231 36.5105L40 37.0275C39.483 38.0614 39.8061 38.2552 41.6155 38.2552C43.3602 38.2552 43.9418 38.0614 44.2649 37.3506C44.2649 37.3506 44.2649 37.3506 44.2649 37.1567H47.7544V37.0921Z" fill="black"/>
<path fill-rule="evenodd" clip-rule="evenodd" d="M56.2846 39.8061H52.9243L56.2846 32.6979H59.7741L56.2846 39.8061Z" fill="black"/>
<path fill-rule="evenodd" clip-rule="evenodd" d="M76.4459 39.8061H70.4362L69.9192 36.769C69.5961 35.1535 69.7254 36.0581 69.5961 34.3134H69.4023C69.0792 35.2181 69.2084 34.8303 69.0792 35.3473C68.7561 35.8643 68.5622 36.3812 68.3683 36.9628L66.9467 39.8061H63.5864L66.9467 32.6979H72.7625L73.2795 35.735C73.6026 37.3505 73.6026 36.6397 73.7964 38.1906H73.9903L74.1842 37.6736V37.4798L74.5073 36.769C74.7011 36.4459 74.8304 36.0581 75.0242 35.5412L76.252 32.6979H79.8061L76.4459 39.8061Z" fill="black"/>
<path fill-rule="evenodd" clip-rule="evenodd" d="M96.8012 35.8643H96.6074C96.4135 36.1874 96.6074 36.1874 96.4135 36.3812C96.2196 36.7043 96.0904 37.2859 96.0904 37.4152C95.5734 38.4491 94.8626 39.0307 93.7641 39.3538C92.7301 39.6769 91.6316 39.8707 88.7883 39.8707C86.3327 39.8707 85.428 39.6769 84.7172 39.3538C83.8125 38.8368 83.6833 38.126 84.3941 36.8982C84.3941 36.8982 84.588 36.5751 84.588 36.3812C85.2988 35.1535 85.4927 34.7657 85.6219 34.6365C86.3327 33.7318 87.2374 33.2148 88.7883 32.8917C89.693 32.6979 90.533 32.6979 92.8594 32.6979C94.6041 32.6979 95.5088 32.6979 96.0258 32.8917C97.4474 33.0856 97.6413 33.6026 97.0597 35.0242H93.5056C93.6994 34.3134 93.3117 34.3134 91.8901 34.3134C90.1453 34.3134 89.4345 34.3134 88.8529 34.8303C88.6591 35.0242 88.6591 35.1535 88.5298 35.5412L88.336 35.8643L88.1421 36.1874C87.9482 36.1874 87.9482 36.5105 87.819 36.8982C87.302 37.9321 87.6251 38.126 89.5637 38.126C91.5023 38.126 92.0193 37.9321 92.407 37.2213L92.6009 37.0274H90.2746L90.9854 35.7997H96.8012V35.8643Z" fill="black"/>
<path fill-rule="evenodd" clip-rule="evenodd" d="M4.2002 30.9531H18.029L21.5831 22.4879L27.9805 30.9531H57.8997L67.0758 22.294L65.6542 30.7593H77.3504L86.9143 22.4233L85.6865 30.7593H98.2228L103.522 7.04362H90.7915L80.5168 16.2197L82.4554 7.04362H70.4361L57.1889 20.4846L62.6816 4.39419H82.5201L83.554 0H30.5653L29.0144 4.20032L48.659 4.00646L40.323 25.0727L33.7963 16.4136L45.1049 7.04362H35.7349L24.2325 16.4136L28.1097 7.04362H14.281C9.17596 18.7399 4.2002 30.9531 4.2002 30.9531Z" fill="#EF7D00"/>
</svg>
