<svg width="140" height="40" viewBox="0 0 140 40" fill="none" xmlns="http://www.w3.org/2000/svg">
<path fill-rule="evenodd" clip-rule="evenodd" d="M0 21.5154C3.18602 20.7985 12.1069 18.7276 19.833 12.9928C27.5591 7.25794 37.834 -0.308866 47.6311 0.00973627C57.3484 0.248688 58.5432 1.3638 61.2513 2.08066C58.6228 1.92136 54.6403 2.08066 48.1886 6.14284C41.7369 10.205 34.4887 15.3027 30.2672 17.5329C28.8335 18.3294 21.426 21.5154 15.8505 21.5154H0Z" fill="black"/>
<path fill-rule="evenodd" clip-rule="evenodd" d="M67.0657 11.3202C68.6587 11.8777 65.4727 10.5237 62.3663 10.8423C59.2599 11.0812 55.6757 12.037 47.5513 18.0905C44.7635 20.1614 40.1438 21.4358 37.6746 21.4358H21.9038C25.4084 20.7189 30.6654 19.3649 38.5508 14.4265C45.6397 9.96611 54.7198 2.95686 61.8884 2.95686C68.9773 2.95686 70.8093 3.83302 75.1104 7.09869C72.0837 8.13415 69.5349 9.48821 67.0657 11.3202Z" fill="#E2071A"/>
<path fill-rule="evenodd" clip-rule="evenodd" d="M71.7652 12.7538C71.0483 15.5416 73.9954 17.055 75.8273 17.055H139.707V21.5154H73.2785C70.4908 21.5154 68.5791 20.4003 68.1809 17.4532C67.703 14.5061 69.7739 13.4707 71.7652 12.7538ZM123.379 28.6043C122.184 27.8874 120.989 28.1264 120.272 28.9229C119.476 29.7991 119.635 31.3124 120.033 31.7903L123.379 28.6043ZM129.83 27.6485L122.742 34.4984C123.379 34.7374 125.37 35.5339 128.237 32.7461V37.9234C126.804 39.1978 124.892 39.9147 122.821 39.9147C118.361 39.9147 114.776 36.0915 114.776 31.631C114.776 27.1706 118.361 23.5863 122.821 23.5863C125.848 23.666 128.476 25.259 129.83 27.6485ZM100.2 39.835H94.3859V23.9846H100.28V39.835H100.2ZM92.6336 32.5072C92.6336 36.649 89.2883 39.9943 85.2261 39.9943C81.0843 39.9943 77.8186 36.649 77.8186 32.5072V23.9846H83.6331V32.5868C83.6331 33.463 84.35 34.1798 85.2261 34.1798C86.1023 34.1798 86.8191 33.463 86.8191 32.5072V23.9846H92.7133L92.6336 32.5072ZM101.634 33.7019C103.625 33.6223 104.103 32.4275 104.661 31.7903C105.457 30.8345 106.334 27.8078 107.289 26.5334C108.245 25.259 110.396 23.5067 114.06 24.0642V30.1973C112.068 30.277 111.59 30.9938 111.113 31.5514C110.316 32.5072 109.44 35.5339 108.484 36.888C107.528 38.1624 105.298 40.4722 101.634 39.9147V33.7019ZM66.5879 20.9578C65.7914 20.6392 64.7559 20.5596 63.8798 20.5596C60.4548 20.5596 57.7467 23.5863 57.7467 27.0113C57.7467 30.5159 60.5344 33.463 63.8798 33.463C64.5966 33.463 65.2338 33.3037 65.871 33.1444V39.7554C65.0745 39.9147 64.278 39.9943 63.4019 39.9943C56.313 39.9943 50.5781 34.1002 50.5781 27.0113C50.5781 19.9224 56.313 14.0282 63.4019 14.0282C64.278 14.0282 65.1542 14.1079 66.0303 14.2672C65.6321 15.3823 64.3577 18.5683 66.5879 20.9578ZM33.6125 28.6043C32.4178 27.8874 31.223 28.1264 30.5062 28.9229C29.7097 29.7991 29.869 31.3124 30.3469 31.7903L33.6125 28.6043ZM40.1439 27.6485L33.055 34.4984C33.6922 34.7374 35.6835 35.5339 38.5509 32.7461V37.9234C37.1172 39.1978 35.2056 39.9147 33.1346 39.9147C28.6742 39.9147 25.0899 36.0915 25.0899 31.631C25.0899 27.1706 28.6742 23.5863 33.1346 23.5863C36.1614 23.666 38.7102 25.259 40.1439 27.6485ZM76.5442 29.6398C74.5529 29.4008 73.3582 30.1177 73.2785 31.4717V39.835H67.464V30.4363C67.464 25.4979 73.2785 23.5067 76.5442 24.1439V29.6398ZM49.702 29.6398C47.7107 29.4008 46.5159 30.1177 46.4363 31.4717V39.835H40.5421V30.4363C40.5421 25.4979 46.4363 23.5067 49.6223 24.1439V29.6398H49.702ZM139.707 29.6398C137.716 29.4008 136.521 30.1177 136.441 31.4717V39.835H130.547V30.4363C130.547 25.4979 136.441 23.5067 139.627 24.1439V29.6398H139.707ZM11.9476 26.0555C12.5051 25.4183 13.222 24.8607 13.9389 24.4625C14.5761 24.0642 15.2133 23.9049 15.7708 23.8253C16.2487 23.7456 16.647 23.666 17.3638 23.7456C18.0807 23.8253 19.1958 24.0642 20.2312 24.5421C21.1871 25.02 22.0632 25.7369 22.6208 26.6927C23.258 27.5688 23.6562 28.684 23.7359 29.7991V39.7554H17.8417V31.1531C17.8417 30.9142 17.7621 30.5956 17.6028 30.3566C17.4435 30.1177 17.2842 29.9584 17.0452 29.7991C16.8063 29.6398 16.5673 29.6398 16.2487 29.6398C16.0098 29.6398 15.6912 29.7194 15.4522 29.7991C15.2133 29.9584 15.054 30.1177 14.8947 30.3566C14.815 30.5956 14.7354 30.8345 14.7354 31.1531V39.7554H8.84121V31.1531C8.84121 30.9142 8.76156 30.5956 8.68191 30.3566C8.52261 30.1177 8.36331 29.9584 8.12436 29.7991C7.88541 29.6398 7.64646 29.6398 7.32785 29.6398C7.0889 29.6398 6.7703 29.7194 6.53135 29.7991C6.2924 29.9584 6.13309 30.1177 5.97379 30.3566C5.89414 30.5956 5.73484 30.8345 5.73484 31.1531V39.7554H0V29.7991C0 29.3212 0.0796503 28.9229 0.318602 28.3654C0.557554 27.8078 0.876156 27.0909 1.35406 26.4537C1.83196 25.8165 2.38952 25.259 3.02672 24.8607C3.66393 24.3828 4.38078 24.0642 5.17729 23.9049C5.97379 23.7456 6.7703 23.666 7.64646 23.8253C8.44296 23.9846 9.31912 24.2235 10.1156 24.6218C10.8325 25.02 11.4697 25.4979 11.9476 26.0555Z" fill="black"/>
</svg>
