<svg width="200" height="40" viewBox="0 0 200 40" fill="none" xmlns="http://www.w3.org/2000/svg">
<path fill-rule="evenodd" clip-rule="evenodd" d="M42.1173 8.8552L47.2482 8.74831H53.0206C61.2515 8.74831 64.0308 10.6724 64.0308 19.224V20.3999C64.0308 29.3791 63.4963 32.479 52.8068 32.7997L47.3551 32.9066C46.6069 32.9066 45.8586 32.9066 45.1103 32.9066C43.5069 32.9066 41.7966 32.7997 40.1932 32.6928C34.9553 32.2652 31.8554 30.5549 31.6416 24.7826C31.5347 23.286 31.5347 21.8964 31.5347 20.3999C31.5347 11.2069 32.6036 8.96209 42.1173 8.8552C42.1173 8.8552 32.6036 8.96209 42.1173 8.8552Z" fill="#085097"/>
<path fill-rule="evenodd" clip-rule="evenodd" d="M73.7582 26.8136H88.6166V32.6928H66.5962V8.96207H73.7582V26.8136Z" fill="#085097"/>
<path fill-rule="evenodd" clip-rule="evenodd" d="M164.084 32.6928H156.922V8.96207H164.084V32.6928Z" fill="#085097"/>
<path fill-rule="evenodd" clip-rule="evenodd" d="M171.674 9.06897C167.612 9.06897 165.688 12.3827 165.688 16.3378C165.688 20.3999 167.612 23.7136 171.674 23.7136H186.532C187.387 23.7136 188.135 24.4619 188.135 25.317C188.135 26.1722 187.387 26.9205 186.532 26.9205H166.329V32.7997H189.739C193.908 32.7997 195.725 29.4859 195.725 25.317C195.725 21.1481 193.908 17.8344 189.739 17.8344H174.987C174.132 17.8344 173.491 17.193 173.491 16.3378C173.491 15.4827 174.132 14.9482 174.987 14.9482H194.763V9.06897H171.674Z" fill="#085097"/>
<path fill-rule="evenodd" clip-rule="evenodd" d="M197.755 8.32069C198.824 8.32069 199.679 9.17585 199.679 10.2448C199.679 11.3138 198.931 12.1689 197.755 12.1689C196.686 12.1689 195.831 11.3138 195.831 10.2448C195.938 9.17585 196.686 8.32069 197.755 8.32069V8C196.472 8 195.51 8.96206 195.51 10.2448C195.51 11.5275 196.472 12.4896 197.755 12.4896C199.038 12.4896 200 11.5275 200 10.2448C200 8.96206 199.038 8 197.755 8V8.32069Z" fill="#085097"/>
<path fill-rule="evenodd" clip-rule="evenodd" d="M197.223 9.17586H197.971C198.292 9.17586 198.612 9.17586 198.612 9.60344C198.612 10.1379 198.078 10.031 197.757 10.031H197.329V10.2448H197.864L198.612 11.4207H198.933L198.185 10.2448C198.612 10.2448 198.933 10.031 198.933 9.60344C198.933 9.17586 198.719 8.96207 198.078 8.96207H197.009V11.5276H197.329V9.17586H197.223Z" fill="#085097"/>
<path fill-rule="evenodd" clip-rule="evenodd" d="M131.374 14.7344H142.812H143.347C143.988 14.7344 144.736 14.7344 145.378 14.9482C146.767 15.3758 146.767 16.3378 146.767 17.5137C146.767 20.1861 146.447 20.8274 143.133 20.8274H142.171H131.267V26.5998H143.347C146.34 26.5998 146.447 27.7756 146.447 30.448V32.6928H153.715V28.0963C153.715 24.7825 151.898 23.9274 148.905 23.4998C150.402 22.9653 152.112 22.6446 153.074 21.255C153.929 19.8654 154.036 18.0482 154.036 16.3378C154.036 10.6724 151.684 8.85518 146.126 8.85518H124.105V32.5859H131.267V14.7344H131.374Z" fill="#085097"/>
<path fill-rule="evenodd" clip-rule="evenodd" d="M114.378 26.8136V32.6928H121.54V16.4447C121.54 10.7793 116.409 9.06897 113.629 9.06897H98.6641C95.8849 9.06897 90.7539 10.7793 90.7539 16.4447V32.6928H97.9159V26.8136V20.9343V18.4757C97.9159 16.124 100.374 15.0551 101.764 15.0551H110.316C111.705 15.0551 114.164 16.124 114.164 18.4757V20.9343H98.0228V26.8136H114.378Z" fill="#085097"/>
<path fill-rule="evenodd" clip-rule="evenodd" d="M7.26887 14.7344H17.6377C20.3101 14.7344 21.4859 15.162 21.4859 17.9413C21.4859 20.5067 20.2032 21.0412 17.7446 21.0412H7.26887V26.8136H18.4929H20.3101C27.5789 26.8136 28.6479 23.8205 28.6479 17.7275C28.6479 10.5655 25.9755 8.96207 19.1342 8.96207H0V32.6928H7.16197V14.7344H7.26887Z" fill="#085097"/>
<path fill-rule="evenodd" clip-rule="evenodd" d="M61.1432 20.8274L51.2019 22.2171L52.5916 24.9964L49.2778 23.4998L47.7813 29.9135L46.1779 23.4998L42.971 24.9964L44.3606 22.2171L34.3125 20.8274L44.3606 19.4378L42.971 16.6585L46.1779 18.262L47.7813 11.7414L49.2778 18.262L52.5916 16.6585L51.2019 19.4378L61.1432 20.8274Z" fill="white"/>
</svg>
