<svg width="200" height="40" viewBox="0 0 200 40" fill="none" xmlns="http://www.w3.org/2000/svg">
<path fill-rule="evenodd" clip-rule="evenodd" d="M19.702 1.33334L39.404 14.9095C39.404 14.9095 34.6027 18.0552 29.3046 18.0552C26.8212 18.0552 25.3311 17.0618 21.6887 14.7439C18.0464 12.2605 16.3907 11.1016 16.0596 10.7704C15.2318 10.1082 14.2384 10.936 14.9007 11.5982C15.7285 12.2605 39.0729 27.989 39.0729 27.989C39.0729 27.989 30.298 30.9691 19.5364 39.7439L0 26.0022C0 26.0022 4.80132 22.8565 10.0993 22.8565C12.5828 22.8565 14.0728 23.8499 17.7152 26.1678C21.3576 28.6512 23.0132 29.8102 23.3444 30.1413C24.1722 30.638 25.1656 29.8102 24.3377 29.1479C23.6755 28.6512 0.165563 13.0883 0.165563 13.0883C0.165563 13.0883 8.9404 10.1082 19.702 1.33334Z" fill="#E30613"/>
<path fill-rule="evenodd" clip-rule="evenodd" d="M58.4438 24.8432C58.4438 25.1743 58.9405 27.3266 62.4173 27.3266C65.0663 27.3266 65.7286 26.4988 65.7286 25.8366C65.7286 21.8631 48.1789 25.8366 48.1789 16.5651C48.1789 10.9359 54.4703 8.94916 61.0928 8.94916C75.8279 8.94916 74.8346 16.0684 74.8346 16.0684H64.4041C64.4041 14.7439 62.4173 13.5849 61.0928 13.5849C59.9339 13.5849 57.2849 13.5849 57.2849 15.2405C57.2849 18.3862 75.6624 16.0684 75.6624 24.6776C75.6624 27.6578 74.0067 32.128 61.424 32.128C46.0266 32.128 47.6822 24.6776 47.6822 24.6776H58.4438V24.8432Z" fill="#312783"/>
<path d="M200 9.28052H192.053V31.3004H200V9.28052Z" fill="#312783"/>
<path fill-rule="evenodd" clip-rule="evenodd" d="M161.589 31.3004V9.28052H169.371V17.5587L178.973 9.28052H190.066L177.649 19.5454L190.066 31.3004H178.808L169.371 22.8567V31.3004H161.589Z" fill="#312783"/>
<path fill-rule="evenodd" clip-rule="evenodd" d="M118.046 25.8368H131.126V31.3004H104.967V26.8302L118.046 14.9097H105.463V9.28052H131.126V14.0818L118.046 25.8368Z" fill="#312783"/>
<path fill-rule="evenodd" clip-rule="evenodd" d="M76.4902 9.28052H85.0995C85.0995 9.28052 85.0995 18.552 85.0995 23.0222C85.0995 25.8368 87.5829 26.9957 90.0664 26.9957C92.5498 26.9957 95.0333 25.8368 95.0333 23.0222C95.0333 18.552 95.0333 9.28052 95.0333 9.28052H103.311C103.311 9.28052 103.311 19.711 103.311 24.5123C103.311 30.9693 95.8611 31.7971 89.9008 31.7971C83.9406 31.7971 76.4902 31.1348 76.4902 24.5123C76.4902 19.8765 76.4902 9.28052 76.4902 9.28052Z" fill="#312783"/>
<path fill-rule="evenodd" clip-rule="evenodd" d="M132.616 9.28052H141.225C141.225 9.28052 141.225 18.552 141.225 23.0222C141.225 25.8368 143.708 26.9957 146.192 26.9957C148.675 26.9957 151.159 25.8368 151.159 23.0222C151.159 18.552 151.159 9.28052 151.159 9.28052H159.437C159.437 9.28052 159.437 19.711 159.437 24.5123C159.437 30.9693 151.987 31.7971 146.026 31.7971C140.066 31.7971 132.616 31.1348 132.616 24.5123C132.616 19.8765 132.616 9.28052 132.616 9.28052Z" fill="#312783"/>
</svg>
