<svg width="204" height="50" viewBox="0 0 204 50" fill="none" xmlns="http://www.w3.org/2000/svg">
<g clip-path="url(#clip0)">
<path d="M53.5047 17.7207H74.1194V21.5669H66.0137V43.188H61.5565V21.5669H53.4867V17.7207H53.5047ZM73.2387 24.748H77.0489V28.3066H77.1208C77.2466 27.8034 77.4803 27.3181 77.8217 26.8508C78.1632 26.3835 78.5766 25.9342 79.0619 25.5568C79.5471 25.1614 80.0863 24.8559 80.6794 24.6042C81.2725 24.3706 81.8836 24.2448 82.4946 24.2448C82.9619 24.2448 83.3034 24.2628 83.4831 24.2807C83.6629 24.2987 83.8426 24.3347 84.0403 24.3526V28.2707C83.7527 28.2168 83.4652 28.1808 83.1596 28.1449C82.8541 28.1089 82.5665 28.0909 82.279 28.0909C81.596 28.0909 80.949 28.2347 80.3379 28.5043C79.7269 28.7739 79.2056 29.1873 78.7563 29.7085C78.307 30.2477 77.9476 30.8947 77.678 31.6855C77.4084 32.4763 77.2826 33.3749 77.2826 34.3994V43.17H73.2207V24.748H73.2387ZM102.714 43.188H98.724V40.6179H98.6521C98.1489 41.5525 97.412 42.2894 96.4235 42.8465C95.435 43.4037 94.4285 43.6912 93.4041 43.6912C90.9778 43.6912 89.2164 43.0981 88.1381 41.894C87.0597 40.6898 86.5205 38.8746 86.5205 36.4482V24.748H90.5824V36.0528C90.5824 37.6704 90.8879 38.8206 91.5169 39.4856C92.128 40.1506 93.0087 40.4921 94.123 40.4921C94.9857 40.4921 95.6866 40.3663 96.2617 40.0967C96.8368 39.8271 97.3041 39.4856 97.6456 39.0363C98.0051 38.605 98.2567 38.0658 98.4184 37.4547C98.5802 36.8436 98.6521 36.1786 98.6521 35.4597V24.766H102.714V43.188ZM109.633 37.275C109.759 38.4612 110.209 39.2879 110.981 39.7732C111.772 40.2405 112.707 40.4921 113.803 40.4921C114.18 40.4921 114.612 40.4561 115.097 40.4022C115.582 40.3483 116.05 40.2225 116.463 40.0607C116.894 39.899 117.236 39.6474 117.523 39.3239C117.793 39.0004 117.919 38.587 117.901 38.0658C117.883 37.5446 117.685 37.1132 117.326 36.7897C116.966 36.4482 116.517 36.1966 115.96 35.9809C115.403 35.7832 114.774 35.6035 114.055 35.4597C113.336 35.316 112.617 35.1542 111.88 34.9925C111.125 34.8307 110.388 34.615 109.687 34.3814C108.986 34.1477 108.357 33.8242 107.8 33.4109C107.243 33.0155 106.794 32.4942 106.47 31.8652C106.129 31.2362 105.967 30.4633 105.967 29.5288C105.967 28.5223 106.219 27.6955 106.704 27.0126C107.189 26.3296 107.818 25.7904 108.555 25.3771C109.31 24.9637 110.137 24.6761 111.053 24.4964C111.97 24.3347 112.851 24.2448 113.677 24.2448C114.63 24.2448 115.546 24.3526 116.409 24.5503C117.272 24.748 118.063 25.0715 118.764 25.5388C119.464 25.9881 120.04 26.5812 120.507 27.3001C120.974 28.019 121.262 28.8997 121.388 29.9242H117.146C116.948 28.9536 116.517 28.2886 115.816 27.9651C115.115 27.6237 114.306 27.4619 113.408 27.4619C113.12 27.4619 112.779 27.4799 112.383 27.5338C111.988 27.5877 111.628 27.6776 111.269 27.8034C110.927 27.9292 110.64 28.1269 110.388 28.3785C110.155 28.6301 110.029 28.9536 110.029 29.367C110.029 29.8702 110.209 30.2656 110.55 30.5712C110.891 30.8767 111.341 31.1283 111.898 31.344C112.455 31.5417 113.084 31.7214 113.803 31.8652C114.522 32.009 115.259 32.1707 116.014 32.3325C116.751 32.4942 117.469 32.7099 118.188 32.9436C118.907 33.1772 119.536 33.5007 120.093 33.9141C120.651 34.3275 121.1 34.8307 121.441 35.4418C121.783 36.0528 121.963 36.8257 121.963 37.7243C121.963 38.8206 121.711 39.7372 121.208 40.5101C120.705 41.2649 120.058 41.894 119.267 42.3613C118.476 42.8285 117.577 43.188 116.607 43.4037C115.636 43.6193 114.666 43.7272 113.713 43.7272C112.545 43.7272 111.467 43.6014 110.478 43.3318C109.49 43.0622 108.627 42.6668 107.908 42.1456C107.189 41.6064 106.614 40.9414 106.201 40.1506C105.787 39.3598 105.572 38.4073 105.536 37.3109H109.633V37.275ZM123.041 24.748H126.114V19.2124H130.176V24.748H133.843V27.7854H130.176V37.6344C130.176 38.0658 130.194 38.4252 130.23 38.7487C130.266 39.0543 130.356 39.3239 130.482 39.5395C130.608 39.7552 130.805 39.917 131.075 40.0248C131.344 40.1326 131.686 40.1866 132.153 40.1866C132.441 40.1866 132.728 40.1866 133.016 40.1686C133.303 40.1506 133.591 40.1147 133.879 40.0428V43.188C133.429 43.2419 132.98 43.2779 132.567 43.3318C132.135 43.3857 131.704 43.4037 131.255 43.4037C130.176 43.4037 129.313 43.2958 128.666 43.0981C128.019 42.9004 127.498 42.5949 127.139 42.1995C126.761 41.8041 126.528 41.3188 126.384 40.7257C126.258 40.1326 126.168 39.4497 126.15 38.6948V27.8214H123.077V24.748H123.041ZM136.718 24.748H140.564V27.2462H140.636C141.211 26.1679 142.002 25.413 143.027 24.9457C144.051 24.4784 145.147 24.2448 146.352 24.2448C147.807 24.2448 149.065 24.4964 150.144 25.0176C151.222 25.5208 152.121 26.2218 152.84 27.1204C153.559 28.019 154.08 29.0615 154.439 30.2477C154.799 31.4339 154.978 32.7099 154.978 34.0579C154.978 35.298 154.817 36.5022 154.493 37.6524C154.17 38.8206 153.684 39.8451 153.037 40.7437C152.39 41.6423 151.564 42.3433 150.557 42.8825C149.551 43.4216 148.382 43.6912 147.017 43.6912C146.423 43.6912 145.83 43.6373 145.237 43.5295C144.644 43.4216 144.069 43.2419 143.53 43.0083C142.991 42.7746 142.469 42.4691 142.02 42.0917C141.553 41.7142 141.175 41.2829 140.852 40.7976H140.78V49.9996H136.718V24.748ZM150.917 33.986C150.917 33.1592 150.809 32.3505 150.593 31.5597C150.377 30.7689 150.054 30.0859 149.623 29.4748C149.191 28.8638 148.652 28.3785 148.023 28.019C147.376 27.6596 146.639 27.4619 145.812 27.4619C144.105 27.4619 142.811 28.055 141.948 29.2412C141.086 30.4274 140.654 32.009 140.654 33.986C140.654 34.9206 140.762 35.7832 140.996 36.574C141.229 37.3648 141.553 38.0478 142.02 38.6229C142.469 39.1981 143.009 39.6474 143.638 39.9709C144.267 40.3124 145.004 40.4741 145.83 40.4741C146.765 40.4741 147.538 40.2764 148.185 39.899C148.832 39.5216 149.353 39.0183 149.766 38.4252C150.18 37.8142 150.485 37.1312 150.665 36.3584C150.827 35.5856 150.917 34.7948 150.917 33.986ZM158.088 17.7207H162.15V21.5669H158.088V17.7207ZM158.088 24.748H162.15V43.188H158.088V24.748ZM165.78 17.7207H169.842V43.188H165.78V17.7207ZM182.297 43.6912C180.823 43.6912 179.511 43.4396 178.361 42.9543C177.211 42.4691 176.24 41.7861 175.431 40.9414C174.641 40.0787 174.03 39.0543 173.616 37.8681C173.203 36.6819 172.987 35.3699 172.987 33.95C172.987 32.5482 173.203 31.2541 173.616 30.0679C174.03 28.8817 174.641 27.8573 175.431 26.9946C176.222 26.1319 177.211 25.4669 178.361 24.9817C179.511 24.4964 180.823 24.2448 182.297 24.2448C183.771 24.2448 185.083 24.4964 186.233 24.9817C187.383 25.4669 188.354 26.1499 189.163 26.9946C189.953 27.8573 190.564 28.8817 190.978 30.0679C191.391 31.2541 191.607 32.5482 191.607 33.95C191.607 35.3699 191.391 36.6819 190.978 37.8681C190.564 39.0543 189.953 40.0787 189.163 40.9414C188.372 41.8041 187.383 42.4691 186.233 42.9543C185.083 43.4396 183.771 43.6912 182.297 43.6912ZM182.297 40.4741C183.196 40.4741 183.986 40.2764 184.651 39.899C185.316 39.5216 185.856 39.0183 186.287 38.4073C186.718 37.7962 187.024 37.0953 187.239 36.3224C187.437 35.5496 187.545 34.7588 187.545 33.95C187.545 33.1592 187.437 32.3864 187.239 31.5956C187.042 30.8048 186.718 30.1219 186.287 29.5108C185.856 28.8997 185.316 28.4144 184.651 28.037C183.986 27.6596 183.196 27.4619 182.297 27.4619C181.398 27.4619 180.608 27.6596 179.943 28.037C179.278 28.4144 178.738 28.9177 178.307 29.5108C177.876 30.1219 177.57 30.8048 177.354 31.5956C177.157 32.3864 177.049 33.1592 177.049 33.95C177.049 34.7588 177.157 35.5496 177.354 36.3224C177.552 37.0953 177.876 37.7962 178.307 38.4073C178.738 39.0183 179.278 39.5216 179.943 39.899C180.608 40.2944 181.398 40.4741 182.297 40.4741ZM192.793 24.748H195.866V19.2124H199.928V24.748H203.595V27.7854H199.928V37.6344C199.928 38.0658 199.946 38.4252 199.982 38.7487C200.018 39.0543 200.108 39.3239 200.234 39.5395C200.359 39.7552 200.557 39.917 200.827 40.0248C201.096 40.1326 201.438 40.1866 201.905 40.1866C202.193 40.1866 202.48 40.1866 202.768 40.1686C203.055 40.1506 203.343 40.1147 203.631 40.0428V43.188C203.181 43.2419 202.732 43.2779 202.319 43.3318C201.887 43.3857 201.456 43.4037 201.007 43.4037C199.928 43.4037 199.065 43.2958 198.418 43.0981C197.771 42.9004 197.25 42.5949 196.891 42.1995C196.513 41.8041 196.28 41.3188 196.136 40.7257C196.01 40.1326 195.92 39.4497 195.902 38.6948V27.8214H192.829V24.748H192.793Z" fill="#000D33"/>
<path d="M48.7599 17.7211H30.1402L24.3889 0L18.6197 17.7211L0 17.7031L15.0791 28.6664L9.30985 46.3695L24.3889 35.4242L39.45 46.3695L33.6988 28.6664L48.7599 17.7211Z" fill="#00B67A"/>
<path d="M34.9929 32.6744L33.6988 28.6665L24.389 35.4242L34.9929 32.6744Z" fill="#005128"/>
</g>
<defs>
<clipPath id="clip0">
<rect width="203.595" height="50" fill="white"/>
</clipPath>
</defs>
</svg>
