<svg width="205" height="41" viewBox="0 0 205 41" fill="none" xmlns="http://www.w3.org/2000/svg">
<path d="M40.3309 20C40.3309 31.0495 31.5342 40 20.6776 40C9.79675 40 1 31.0495 1 20C1 8.95054 9.79675 0 20.6533 0C31.5342 0 40.3309 8.95054 40.3309 20Z" fill="white"/>
<path d="M34.2483 20.3137C34.2483 28.1786 27.9233 34.5718 20.1444 34.5718C12.3655 34.5718 6.04053 28.1786 6.04053 20.3137C6.04053 12.4488 12.3655 6.05551 20.1444 6.05551C27.9233 6.05551 34.2483 12.4488 34.2483 20.3137Z" fill="#E30613"/>
<path d="M28.0444 12.3522L13.0681 21.1821C13.0681 21.1821 11.2506 22.7744 11.3475 23.7394C11.3475 23.7394 11.3475 24.7044 10.8144 25.0181C10.2812 25.3317 9.3119 24.4873 8.68183 24.7044C8.05176 24.9216 4.51367 29.2883 4.51367 29.2883C4.51367 29.2883 4.82871 29.6019 6.42812 29.3848C8.02753 29.1677 9.7481 28.6369 9.7481 28.6369C9.7481 28.6369 10.1843 28.7334 10.5963 28.3233C11.0325 27.889 11.2506 26.8275 11.9776 26.731C12.7288 26.6345 13.6982 27.0446 14.3282 26.9481C14.9583 26.8516 30.7828 17.4909 30.7828 17.4909C30.7828 17.4909 31.849 17.2738 31.534 16.2123C31.534 16.2123 31.219 15.4644 30.2496 15.8987C29.2803 16.3329 14.9583 24.8251 14.9583 24.8251C14.9583 24.8251 14.2071 25.3558 13.1408 24.2943C13.1408 24.2943 13.0439 22.9192 14.6433 21.9541C16.2427 20.9891 28.9652 14.0893 28.9652 14.0893C28.9652 14.0893 30.1285 13.462 29.5953 12.497C29.6438 12.4487 28.8925 11.8215 28.0444 12.3522Z" fill="white"/>
<path d="M11.5896 12.135L26.5417 20.9649C26.5417 20.9649 28.3592 22.5572 28.2623 23.5222C28.2623 23.5222 28.2623 24.4873 28.7954 24.8009C29.3285 25.1145 30.2979 24.2701 30.9279 24.4873C31.558 24.7044 35.0961 29.0711 35.0961 29.0711C35.0961 29.0711 34.7811 29.3847 33.1817 29.1676C31.5823 28.9505 29.8617 28.4197 29.8617 28.4197C29.8617 28.4197 29.4255 28.5162 29.0135 28.1061C28.5773 27.6718 28.3592 26.6103 27.6322 26.5138C26.881 26.4173 25.9116 26.8274 25.2816 26.7309C24.6515 26.6344 8.82703 17.2496 8.82703 17.2496C8.82703 17.2496 7.76076 17.0325 8.07579 15.971C8.07579 15.971 8.39083 15.2231 9.36017 15.6574C10.3295 16.0916 24.6515 24.6079 24.6515 24.6079C24.6515 24.6079 25.4027 25.1387 26.469 24.0771C26.469 24.0771 26.5659 22.702 24.9665 21.737C23.3671 20.7719 10.6445 13.8721 10.6445 13.8721C10.6445 13.8721 9.48133 13.2448 10.0145 12.2798C9.99024 12.2315 10.7172 11.6043 11.5896 12.135Z" fill="white"/>
<path d="M22.4223 31.9421L22.6646 15.0784C22.6646 15.0784 22.2526 12.7624 21.4045 12.3764C21.4045 12.3764 20.6048 11.8939 20.6048 11.2907C20.6048 10.6876 21.8164 10.3257 21.9618 9.69845C22.1072 9.07119 20.2655 3.93246 20.2655 3.93246C20.2655 3.93246 19.8293 4.02897 19.1992 5.47649C18.5692 6.8999 18.1329 8.58868 18.1329 8.58868C18.1329 8.58868 17.8179 8.87818 17.9633 9.45719C18.1087 10.0362 18.8842 10.7358 18.5934 11.4114C18.3026 12.0869 17.4544 12.6659 17.2121 13.2449C16.9697 13.8239 16.7274 31.6526 16.7274 31.6526C16.7274 31.6526 16.3639 32.6417 17.4059 32.9071C17.4059 32.9071 18.1814 33.0278 18.3268 32.0145C18.4722 31.0012 18.6419 14.8372 18.6419 14.8372C18.6419 14.8372 18.5692 13.9445 19.9989 13.6068C19.9989 13.6068 21.2106 14.2099 21.1864 16.0434C21.1621 17.8528 20.4594 31.8697 20.4594 31.8697C20.4594 31.8697 20.3867 33.1725 21.4529 33.2208C21.5014 33.2208 22.4223 32.9313 22.4223 31.9421Z" fill="white"/>
<path d="M38.0768 20.217C38.0768 30.2049 30.0556 38.3111 20.1683 38.3111C10.281 38.3111 2.25977 30.2049 2.25977 20.217C2.25977 10.2291 10.281 2.12292 20.1683 2.12292C30.0798 2.12292 38.0768 10.2291 38.0768 20.217Z" stroke="#E30613" stroke-width="3.4534"/>
<path d="M46.6313 2.17185H54.2407L58.2634 16.623L62.1892 2.05122H70.0166L62.0681 25.9354V38.2153H54.1195L53.9983 26.3938L46.6313 2.17185Z" fill="#E30613" stroke="white" stroke-width="3.8064"/>
<path d="M85.5987 1.93004H75.9053L68.6353 38.4319H75.9053L77.747 29.9397H83.7327L86.0349 38.3112H92.8445L85.5987 1.93004ZM79.2495 22.6056L80.6308 13.076L82.4726 22.6056H79.2495Z" fill="#E30613" stroke="white" stroke-width="3.8064"/>
<path d="M142.475 1.93004H132.781L125.511 38.4319H132.781L134.623 29.9397H140.609L142.911 38.3112H149.72L142.475 1.93004ZM136.125 22.6056L137.507 13.076L139.349 22.6056H136.125Z" fill="#E30613" stroke="white" stroke-width="3.8064"/>
<path d="M194.601 1.93004H184.908L177.638 38.4319H184.908L186.749 29.9397H192.735L195.037 38.3112H201.847L194.601 1.93004ZM188.252 22.6056L189.633 13.076L191.475 22.6056H188.252Z" fill="#E30613" stroke="white" stroke-width="3.8064"/>
<path d="M102.877 38.3352H95.9707V2.17113H106.464L108.887 17.4425L112.353 2.29175H122.022V37.9733H115.454V19.2761L111.989 38.2146H106.464L102.877 19.7345V38.3352Z" fill="#E30613" stroke="white" stroke-width="3.8064"/>
<path d="M153.162 2.17113H160.771V16.6223H167.12V2.29175H174.608V38.0939H166.999V23.6428H160.771V38.0939H153.041L153.162 2.17113Z" fill="#E30613" stroke="white" stroke-width="3.8064"/>
<path d="M46.6313 2.38901H54.2407L58.2634 16.8643L62.1892 2.29251H70.0166L62.0681 26.1526V38.4324H54.1195L53.9983 26.611L46.6313 2.38901Z" fill="#E30613"/>
<path d="M85.5987 2.1713H75.9053L68.6353 38.6731H75.9053L77.747 30.1809H83.7327L86.0349 38.5525H92.8445L85.5987 2.1713ZM79.2495 22.8227L80.6308 13.2931L82.4726 22.8227H79.2495Z" fill="#E30613"/>
<path d="M142.475 2.1713H132.781L125.511 38.6731H132.781L134.623 30.1809H140.609L142.911 38.5525H149.72L142.475 2.1713ZM136.125 22.8227L137.507 13.2931L139.349 22.8227H136.125Z" fill="#E30613"/>
<path d="M194.601 2.1713H184.908L177.638 38.6731H184.908L186.749 30.1809H192.735L195.037 38.5525H201.847L194.601 2.1713ZM188.252 22.8227L189.633 13.2931L191.475 22.8227H188.252Z" fill="#E30613"/>
<path d="M102.877 38.5525H95.9707V2.38847H106.464L108.887 17.6599L112.353 2.5091H122.022V38.2148H115.454V19.4934L111.989 38.4319H106.464L102.877 19.9518V38.5525Z" fill="#E30613"/>
<path d="M153.162 2.38847H160.771V16.8637H167.12V2.5091H174.608V38.3354H166.999V23.8601H160.771V38.3354H153.041L153.162 2.38847Z" fill="#E30613"/>
</svg>
