<svg width="144" height="26" viewBox="0 0 144 26" fill="none" xmlns="http://www.w3.org/2000/svg">
<g clip-path="url(#clip0)">
<path d="M38.6421 17.78C39.628 17.78 40.3806 17.5295 40.8974 17.0285C41.4133 16.5275 41.7501 15.7843 41.9071 14.7982H37.2794C37.1071 14.7982 36.9824 14.7798 36.9043 14.7398C36.8263 14.7013 36.7855 14.5828 36.7855 14.3782V11.8431C36.7855 11.6377 36.8212 11.5108 36.8924 11.4574C36.962 11.4031 37.0918 11.3764 37.2794 11.3764H41.8604C41.7807 10.9021 41.6483 10.5055 41.4608 10.1865C41.2878 9.88182 41.0516 9.61638 40.7676 9.40746C40.4901 9.20701 40.1748 9.06308 39.8401 8.98412C39.4941 8.89908 39.1387 8.85645 38.7821 8.8572C38.5012 8.8572 38.2433 8.86388 38.0074 8.88058C37.7723 8.89561 37.5416 8.92567 37.3142 8.97243C37.0876 9.01919 36.8534 9.07597 36.6107 9.14611C36.3672 9.21541 36.0889 9.29641 35.7767 9.38826C35.4941 9.48094 35.3024 9.50015 35.2005 9.44671C35.0987 9.39243 34.9935 9.21959 34.884 8.92567L34.1543 7.03021C34.1022 6.90657 34.0594 6.7793 34.0262 6.64945C34.0025 6.54925 33.9957 6.46408 34.0024 6.39561C34.0109 6.32547 34.05 6.26869 34.1212 6.22193C34.1908 6.17517 34.2884 6.11338 34.414 6.03656C35.1208 5.67612 35.8758 5.41554 36.6566 5.26252C37.4635 5.10053 38.3213 5.01953 39.2292 5.01953C40.4197 5.01953 41.4803 5.20073 42.4111 5.56228C43.3436 5.92467 44.1268 6.44905 44.7606 7.13459C45.3944 7.81929 45.8764 8.6568 46.2048 9.64293C46.534 10.6282 46.6977 11.7471 46.6977 12.9946C46.6977 14.197 46.5611 15.3259 46.2879 16.3805C46.013 17.436 45.5752 18.357 44.9727 19.1427C44.3694 19.9293 43.5829 20.5489 42.6114 21.0039C41.6398 21.4582 40.4587 21.6861 39.0646 21.6861C38.0464 21.6861 37.0571 21.5809 36.094 21.3738C35.1301 21.1651 34.1789 20.7843 33.2396 20.2299C33.0666 20.1364 32.9732 20.0295 32.9579 19.9059C32.941 19.7832 32.9885 19.6053 33.0988 19.374L34.1085 17.2949C34.218 17.0318 34.324 16.8857 34.4259 16.854C34.5277 16.8239 34.6957 16.854 34.9307 16.9475C35.4313 17.132 35.9752 17.3174 36.5632 17.5011C37.1504 17.6865 37.8436 17.7792 38.6421 17.7792V17.78ZM63.8451 20.9463C63.8451 21.1317 63.818 21.2586 63.7628 21.3288C63.7085 21.3972 63.5481 21.4323 63.2817 21.4323H59.9463C59.5865 21.4323 59.4058 21.2703 59.4058 20.9463V14.845H54.1917V20.9463C54.1917 21.1317 54.1646 21.2586 54.1086 21.3288C54.0543 21.3972 53.893 21.4323 53.6275 21.4323H50.2928C49.9322 21.4323 49.7523 21.2703 49.7523 20.9463V5.73763C49.7523 5.41365 49.9322 5.25166 50.2928 5.25166H53.6275C53.893 5.25166 54.0543 5.28673 54.1086 5.3552C54.1646 5.42534 54.1917 5.55226 54.1917 5.73763V11.1918H59.4058V5.73763C59.4058 5.41365 59.5865 5.25166 59.9463 5.25166H63.2817C63.5481 5.25166 63.7085 5.28673 63.7628 5.3552C63.818 5.42534 63.8451 5.55226 63.8451 5.73763V20.9463ZM79.6298 20.9012C79.6298 21.2553 79.4813 21.4323 79.1826 21.4323H71.9246C70.9861 21.4323 70.2225 21.3012 69.6353 21.0398C69.0481 20.7777 68.5857 20.4345 68.2497 20.0103C67.9155 19.5923 67.6789 19.1071 67.5565 18.5891C67.4333 18.0817 67.3704 17.5619 67.3689 17.0402V9.64377C67.3689 9.08849 67.447 8.54574 67.604 8.01385C67.7601 7.48195 68.0147 7.01184 68.3676 6.60436C68.7198 6.19521 69.1856 5.86789 69.7651 5.6224C70.3438 5.37524 71.0481 5.25166 71.8787 5.25166H78.8076C78.996 5.25166 79.1165 5.27838 79.1708 5.33182C79.2268 5.38693 79.2539 5.54391 79.2539 5.80777V8.41799C79.2539 8.61922 79.2217 8.75366 79.1606 8.82296C79.0978 8.89143 78.9799 8.9265 78.8076 8.9265H73.2177C72.9037 8.9265 72.6534 8.96992 72.4659 9.05509C72.2775 9.13859 72.1367 9.24297 72.0433 9.36655C71.9488 9.48898 71.8843 9.63131 71.855 9.78238C71.8234 9.93433 71.8075 10.089 71.8075 10.2441V11.2152H78.1034C78.2909 11.2152 78.4114 11.2469 78.4674 11.3087C78.5217 11.3697 78.5488 11.5317 78.5488 11.793V14.1978C78.5488 14.551 78.3995 14.7297 78.1034 14.7297H71.8075V16.4624C71.8075 16.7546 71.8431 16.9867 71.9127 17.1562C71.984 17.3249 72.0824 17.4518 72.208 17.537C72.3327 17.6222 72.4812 17.6756 72.6534 17.699C72.8405 17.7233 73.029 17.735 73.2177 17.7341H79.1826C79.371 17.7341 79.4932 17.7608 79.5475 17.8151C79.6026 17.8685 79.6298 18.0272 79.6298 18.2893V20.9012ZM86.6529 20.9697C86.6529 21.1551 86.6257 21.2787 86.5714 21.3396C86.5154 21.4014 86.3559 21.4315 86.0895 21.4315H82.754C82.3934 21.4315 82.2135 21.2787 82.2135 20.9697V6.77804C82.2135 6.36054 82.3068 6.00233 82.4952 5.70256C82.6827 5.40196 83.0976 5.25166 83.7408 5.25166H89.7066C90.6306 5.25166 91.4477 5.38192 92.1613 5.64495C92.8741 5.90714 93.4723 6.27287 93.9576 6.74297C94.441 7.21047 94.8173 7.77414 95.0615 8.39628C95.3127 9.0267 95.4374 9.71224 95.4374 10.4529C95.4374 10.6992 95.4145 11.0065 95.367 11.3772C95.3203 11.7471 95.2227 12.1329 95.0734 12.5328C94.9241 12.9336 94.7085 13.3386 94.4277 13.7469C94.146 14.1544 93.7658 14.521 93.2881 14.845C92.8104 15.1681 92.2156 15.4295 91.5037 15.6299C90.791 15.8303 89.9408 15.9305 88.9548 15.9305H86.6529V20.9697ZM90.858 10.7535C90.858 10.5998 90.8343 10.4178 90.7868 10.2099C90.7421 10.0075 90.6586 9.81536 90.5407 9.64377C90.4088 9.46127 90.2361 9.311 90.0358 9.20456C89.8152 9.08181 89.5344 9.02002 89.1899 9.02002H86.6529V12.5103H89.1899C89.7372 12.5103 90.1529 12.3291 90.4346 11.9675C90.7155 11.6043 90.858 11.1993 90.858 10.7535ZM102.343 20.9697C102.343 21.1551 102.315 21.2787 102.259 21.3396C102.205 21.4014 102.045 21.4315 101.778 21.4315H98.4436C98.083 21.4315 97.9031 21.2787 97.9031 20.9697V9.64377C97.9031 9.08849 97.9812 8.54574 98.1373 8.01385C98.2943 7.48195 98.5489 7.01184 98.901 6.60436C99.254 6.19521 99.7198 5.86789 100.298 5.6224C100.878 5.37524 101.583 5.25166 102.414 5.25166H109.553C109.741 5.25166 109.863 5.27838 109.918 5.33182C109.972 5.38693 110 5.54391 110 5.80777V8.41799C110 8.61922 109.968 8.75366 109.905 8.82296C109.843 8.89143 109.726 8.9265 109.553 8.9265H103.751C103.439 8.9265 103.188 8.96992 103 9.05509C102.812 9.13859 102.671 9.24297 102.578 9.36655C102.483 9.48905 102.419 9.63138 102.39 9.78238C102.358 9.93433 102.343 10.089 102.343 10.2441V20.9697ZM122.026 12.2097L119.912 15.6307L116.718 20.3927C116.589 20.5862 116.447 20.7712 116.294 20.9463C116.182 21.0745 116.047 21.1805 115.896 21.2586C115.755 21.3288 115.59 21.3755 115.403 21.3972C115.214 21.4206 114.987 21.4323 114.721 21.4323H113.617C112.913 21.4323 112.45 21.2586 112.231 20.9113C112.012 20.5656 111.903 20.1305 111.903 19.607V5.73763C111.903 5.41365 112.082 5.25166 112.443 5.25166H115.661C115.926 5.25166 116.087 5.28673 116.142 5.3552C116.197 5.42534 116.225 5.55226 116.225 5.73763V14.5218H116.389L118.456 11.3304L121.697 6.29291C121.854 6.04575 121.994 5.85286 122.119 5.71425C122.245 5.57564 122.377 5.4721 122.52 5.40196C122.661 5.33182 122.825 5.29007 123.013 5.27504C123.2 5.26001 123.427 5.25166 123.693 5.25166H124.798C125.456 5.25166 125.905 5.37524 126.149 5.6224C126.391 5.86789 126.512 6.35303 126.512 7.07864V20.9463C126.512 21.2703 126.332 21.4323 125.972 21.4323H122.754C122.488 21.4323 122.326 21.3972 122.272 21.3288C122.218 21.2586 122.191 21.1317 122.191 20.9463V12.2105L122.026 12.2097ZM130.271 16.4398C130.412 15.8386 130.622 15.3376 130.905 14.9368C131.186 14.536 131.688 14.2438 132.408 14.0592V14.0125C131.922 13.8739 131.515 13.6693 131.186 13.4004C130.868 13.1426 130.601 12.8286 130.4 12.4744C130.202 12.1241 130.059 11.7463 129.976 11.3538C129.891 10.953 129.848 10.5447 129.848 10.1289C129.848 9.38909 129.965 8.72276 130.2 8.12908C130.429 7.54436 130.791 7.01887 131.258 6.59267C131.727 6.16098 132.31 5.82948 133.007 5.59902C133.703 5.36689 134.513 5.25166 135.437 5.25166H141.428C142.07 5.25166 142.485 5.38693 142.672 5.6558C142.86 5.92551 142.954 6.29875 142.954 6.77804V20.9697C142.954 21.2787 142.774 21.4323 142.414 21.4323H139.078C138.812 21.4323 138.652 21.4014 138.597 21.3404C138.542 21.2787 138.515 21.1551 138.515 20.9697V15.0996H136.988C136.331 15.0996 135.857 15.2499 135.566 15.5505C135.278 15.8511 135.046 16.3321 134.875 16.9951L133.934 20.8553C133.901 20.9865 133.832 21.1065 133.735 21.2027C133.649 21.2795 133.547 21.3363 133.429 21.3755C133.308 21.4145 133.181 21.434 133.054 21.4331H129.401C129.214 21.4331 129.115 21.3872 129.109 21.2945C129.1 21.2027 129.12 21.0474 129.166 20.8319L130.271 16.4398ZM134.428 10.3376C134.428 10.7844 134.569 11.1184 134.851 11.3421C135.132 11.5659 135.461 11.677 135.837 11.677H138.515V9.02086H135.837C135.32 9.02086 134.956 9.15947 134.744 9.43585C134.54 9.69376 134.429 10.0109 134.428 10.3376Z" fill="white"/>
<path d="M0 3.87724C6.83171 -3.01994 17.1957 -0.0444417 20.1817 7.8703H15.4991C12.8067 3.74394 6.72114 2.57632 2.54523 7.26427L0 3.87724ZM3.10392 16.8091H15.2692C15.926 15.7348 16.3404 14.4593 16.4093 13.0324H5.97939L3.10392 16.8091ZM20.799 16.8091H21.934L24.6212 13.0324H21.4543C21.417 14.3159 21.1961 15.5876 20.7983 16.8091H20.799ZM3.10392 8.31608H21.9347L24.6212 12.0935H5.97866L3.10392 8.31608ZM21.0143 12.5386V12.5575C21.0143 23.7981 7.81802 29.2057 0.00585784 21.2116L2.51009 17.8522C7.8356 23.9831 16.8677 20.1343 16.8677 12.6048C16.8677 12.583 16.8677 12.5611 16.8662 12.5393L21.0143 12.5386Z" fill="#44759D"/>
</g>
<defs>
<clipPath id="clip0">
<rect width="144" height="25" fill="white" transform="translate(0 0.0195312)"/>
</clipPath>
</defs>
</svg>
