<svg width="123" height="26" viewBox="0 0 123 26" fill="none" xmlns="http://www.w3.org/2000/svg">
<g clip-path="url(#clip0)">
<path d="M50.5724 11.6624H55.7342L56.9417 9.56377H50.5724V11.6624ZM91.0062 9.64093H86.9864V7.59243H91.0062C91.6543 7.59243 92.1211 7.74674 92.1211 8.60318C92.1211 9.27829 91.8356 9.64093 91.0062 9.64093ZM86.9864 4.13968H90.6397C91.1875 4.13968 91.4113 4.42516 91.4113 4.97297C91.4232 5.08119 91.4122 5.19072 91.3788 5.29436C91.3454 5.39799 91.2905 5.4934 91.2176 5.57429C91.1448 5.65518 91.0556 5.71974 90.956 5.76371C90.8564 5.80768 90.7486 5.83007 90.6397 5.8294H86.9864V4.13968ZM92.6111 6.03387C92.9622 5.91582 93.2635 5.6831 93.4664 5.37312C93.6693 5.06315 93.7621 4.69393 93.7298 4.32486C93.7298 2.35351 92.0671 2.11818 90.902 2.11818H84.718V11.6624H91.0062C93.8841 11.6624 94.4782 10.0807 94.4782 8.63018C94.4782 6.99447 93.5524 6.31549 92.6111 6.03387ZM111.626 11.6624H116.784L117.98 9.56377H111.626V11.6624ZM50.5724 5.8294V7.92806H57.8598L59.0789 5.8294H50.5724ZM102.337 9.64093H98.9919V7.51141H102.337C102.722 7.51141 103.324 7.61557 103.324 8.57617C103.324 9.45961 102.834 9.64093 102.337 9.64093ZM102.464 5.54393H98.9919V2.11818H96.7119V11.6624H102.464C104.007 11.6624 105.627 10.806 105.627 8.55302C105.627 5.59408 103.552 5.54393 102.487 5.54393H102.464ZM106.769 11.6624H109.022V2.11818H106.765V11.6624H106.769ZM64.0053 2.11818L58.535 11.6624H61.2354L64.8386 5.36261L68.4688 11.6624H71.2966L65.8147 2.11818H64.0053ZM77.0255 9.69108C74.8227 9.69108 73.8891 8.42186 73.8891 6.8633C73.8891 5.15429 74.95 4.01237 77.0255 4.01237C79.3594 4.01237 80.1619 5.16972 80.1619 6.8633C80.1619 8.91566 78.6187 9.69108 77.0255 9.69108ZM77.0525 1.88671C73.2371 1.88671 71.4239 4.2014 71.4239 6.84015C71.4239 9.56377 73.1869 11.7936 77.0525 11.7936C78.7383 11.7936 82.627 11.022 82.627 6.84015C82.627 4.11653 80.891 1.88671 77.0525 1.88671ZM37.4713 9.56377L41.0745 3.2601L44.7047 9.56377H37.4713ZM42.1006 0.0195312H40.2335L34.7476 9.56377H33.3743V14.4632H35.5501V11.6624H46.7377V14.4632H48.9174V9.56377H47.544L42.0852 0.0195312H42.1006ZM61.22 2.11818H50.5724V4.2207H59.9855L61.2046 2.11818H61.22ZM111.642 5.8294V7.92806H118.925L120.144 5.8294H111.642ZM122.274 2.11818H111.626V4.2207H121.039L122.258 2.11818H122.274Z" fill="white"/>
<path d="M85.667 21.6746L91.0679 15.4751H93.0971V25.0193H90.8133V18.7697L85.3159 25.0193H83.387V15.4751H85.667V21.6746Z" fill="white"/>
<path d="M32.9615 25.0193L38.4203 15.4751H40.2528L45.727 25.0193H42.8992L39.269 18.7195L35.662 25.0193H32.9615Z" fill="white"/>
<path d="M61.2046 19.1863H66.2197V15.4751H68.5035V25.0193H66.2197V21.285H61.2046V25.0193H58.9207V15.4751H61.2046V19.1863Z" fill="white"/>
<path d="M73.376 15.4751V21.6746H73.3837L78.7846 15.4751H80.8061V25.0193H78.5261V18.7697L73.0249 25.0193H71.096V15.4751H73.376Z" fill="white"/>
<path d="M48.9213 15.4751V21.6244H48.9367L54.4187 15.4751H56.3476V25.0193H54.0715V18.8198L48.5663 25.0193H46.6374V15.4751H48.9213Z" fill="white"/>
<path d="M16.7513 20.2661L5.57004 15.4772L3.18259 19.5493L15.7684 21.9438L16.7433 20.2661H16.7513ZM15.1915 25.0195H18.9119L22.1787 19.4193L25.4654 25.0195H29.166L22.1787 13.0433L15.1915 25.0195ZM2.63746 20.4984L-0.000671387 25.0195H13.9778L15.2193 22.8968L2.63746 20.4984ZM21.5739 12.0036L14.5827 0.0195312L11.9366 4.54458L20.3324 14.1303L21.5739 12.0036ZM19.7754 15.0833L11.3875 5.49763L9.00001 9.56584L18.8005 16.7571L19.7754 15.0833ZM18.2713 17.6629L8.48273 10.4756L6.09528 14.5714L17.2805 19.3642L18.2713 17.6629Z" fill="#F9AE00"/>
</g>
<defs>
<clipPath id="clip0">
<rect width="123" height="25" fill="white" transform="translate(0 0.0195312)"/>
</clipPath>
</defs>
</svg>
