<svg width="102" height="26" viewBox="0 0 102 26" fill="none" xmlns="http://www.w3.org/2000/svg">
<g clip-path="url(#clip0)">
<path fill-rule="evenodd" clip-rule="evenodd" d="M92.3164 0.328592C93.729 0.122551 95.2051 0.0195312 96.7448 0.0195312C98.2845 0.0195312 99.7606 0.122551 101.173 0.328592V7.78246H92.3164V0.328592Z" fill="#D02D42"/>
<path fill-rule="evenodd" clip-rule="evenodd" d="M92.3164 24.7106C93.729 24.9167 95.2051 25.0197 96.7448 25.0197C98.2845 25.0197 99.7606 24.9167 101.173 24.7106V17.2568H92.3164V24.7106Z" fill="#D02D42"/>
<path fill-rule="evenodd" clip-rule="evenodd" d="M60.5703 0.596191V24.5113H68.9667V15.3438H72.1432L79.1187 24.5113H89.5253L79.1187 11.8216L89.0522 0.596191H79.1187L72.1432 9.40823H68.9667V0.596191H60.5703Z" fill="white"/>
<path fill-rule="evenodd" clip-rule="evenodd" d="M30.8421 0.490315L31.9425 6.82228C35.6888 6.56994 38.797 6.44377 41.2672 6.44377C43.7374 6.44377 46.1882 6.56994 48.6196 6.82228L49.0433 9.26383H37.9739V15.5585H49.0433L48.6196 18.2979C46.5006 18.476 43.9448 18.5651 40.9522 18.5651C37.9596 18.5651 34.9564 18.476 31.9425 18.2979L30.8421 24.4649C35.3014 24.7075 39.471 24.8288 43.3509 24.8288C47.2308 24.8288 51.0854 24.7075 54.9147 24.4649C56.3344 20.644 57.0442 16.7265 57.0442 12.7123C57.0442 8.69818 56.3344 4.62418 54.9147 0.490315C51.9586 0.268907 48.3099 0.158203 43.9685 0.158203C39.6271 0.158203 35.2517 0.268907 30.8421 0.490315Z" fill="white"/>
<path fill-rule="evenodd" clip-rule="evenodd" d="M0.766113 0.583008V24.4244H9.34699V7.184H19.2064V24.4244H27.8689V0.583008H0.766113Z" fill="white"/>
</g>
<defs>
<clipPath id="clip0">
<rect width="102" height="25" fill="white" transform="translate(0 0.0195312)"/>
</clipPath>
</defs>
</svg>
