<svg width="178" height="51" viewBox="0 0 178 51" fill="none" xmlns="http://www.w3.org/2000/svg">
<g opacity="0.6">
<path d="M112.5 47.3496C112.513 46.9622 112.532 46.5798 112.558 46.2021C112.584 45.8245 112.614 45.4583 112.646 45.1035C112.669 44.8529 112.693 44.6022 112.72 44.3516C112.749 44.1009 112.778 43.8584 112.807 43.624C112.837 43.3896 112.866 43.1699 112.895 42.9648C112.925 42.7565 112.952 42.5693 112.978 42.4033H114.414L115.439 45.748H115.503L116.523 42.4033H117.959C118.014 42.7549 118.069 43.1488 118.125 43.585C118.183 44.0179 118.239 44.5176 118.291 45.084C118.31 45.3021 118.328 45.5088 118.345 45.7041C118.361 45.8994 118.374 46.0882 118.384 46.2705C118.397 46.4528 118.408 46.6335 118.418 46.8125C118.428 46.9883 118.437 47.1673 118.447 47.3496H117.387C117.384 47.2552 117.378 47.1396 117.368 47.0029C117.361 46.8662 117.353 46.7197 117.344 46.5635C117.334 46.404 117.322 46.2396 117.309 46.0703C117.296 45.901 117.285 45.7367 117.275 45.5771C117.259 45.359 117.239 45.1523 117.217 44.957C117.197 44.7617 117.176 44.5827 117.153 44.4199C117.134 44.2539 117.114 44.1107 117.095 43.9902C117.075 43.8665 117.057 43.7689 117.041 43.6973H116.982L115.893 47.1494H115.053L113.96 43.6973H113.896C113.88 43.7721 113.86 43.8796 113.838 44.0195C113.818 44.1562 113.797 44.3109 113.774 44.4834C113.755 44.6527 113.735 44.8333 113.716 45.0254C113.696 45.2142 113.68 45.3981 113.667 45.5771C113.654 45.7627 113.641 45.9352 113.628 46.0947C113.615 46.2542 113.603 46.4056 113.594 46.5488C113.584 46.6921 113.574 46.8288 113.564 46.959C113.558 47.0892 113.553 47.2194 113.55 47.3496H112.5ZM119.336 44.8301C119.336 44.4395 119.389 44.0879 119.497 43.7754C119.604 43.4629 119.759 43.1976 119.961 42.9795C120.166 42.7581 120.416 42.5889 120.713 42.4717C121.009 42.3512 121.346 42.291 121.723 42.291C122.029 42.291 122.326 42.3382 122.612 42.4326C122.902 42.5238 123.156 42.6702 123.374 42.8721C123.595 43.0739 123.773 43.3359 123.906 43.6582C124.039 43.9805 124.106 44.3727 124.106 44.835C124.106 45.2549 124.051 45.6276 123.94 45.9531C123.833 46.2754 123.677 46.5472 123.471 46.7686C123.266 46.9867 123.016 47.1527 122.72 47.2666C122.427 47.3805 122.095 47.4375 121.723 47.4375C121.352 47.4375 121.019 47.3822 120.722 47.2715C120.429 47.1608 120.18 46.9964 119.975 46.7783C119.77 46.557 119.612 46.2835 119.502 45.958C119.391 45.6325 119.336 45.2565 119.336 44.8301ZM120.351 44.835C120.351 45.154 120.384 45.4242 120.449 45.6455C120.517 45.8669 120.612 46.0475 120.732 46.1875C120.856 46.3242 121.001 46.4251 121.167 46.4902C121.336 46.5521 121.523 46.583 121.728 46.583C121.933 46.583 122.119 46.5505 122.285 46.4854C122.454 46.4202 122.599 46.3177 122.72 46.1777C122.84 46.0345 122.933 45.8522 122.998 45.6309C123.063 45.4095 123.095 45.1442 123.095 44.835C123.095 44.542 123.061 44.2897 122.993 44.0781C122.925 43.8665 122.829 43.6924 122.705 43.5557C122.584 43.4157 122.441 43.3132 122.275 43.248C122.109 43.1797 121.927 43.1455 121.728 43.1455C121.523 43.1455 121.336 43.1797 121.167 43.248C120.998 43.3164 120.853 43.4206 120.732 43.5605C120.612 43.7005 120.517 43.8763 120.449 44.0879C120.384 44.2995 120.351 44.5485 120.351 44.835ZM124.575 43.2627V42.4033H129.053V43.2627H127.334V47.3496H126.294V43.2627H124.575ZM129.521 44.8301C129.521 44.4395 129.575 44.0879 129.682 43.7754C129.79 43.4629 129.944 43.1976 130.146 42.9795C130.351 42.7581 130.602 42.5889 130.898 42.4717C131.194 42.3512 131.531 42.291 131.909 42.291C132.215 42.291 132.511 42.3382 132.798 42.4326C133.087 42.5238 133.341 42.6702 133.559 42.8721C133.781 43.0739 133.958 43.3359 134.092 43.6582C134.225 43.9805 134.292 44.3727 134.292 44.835C134.292 45.2549 134.236 45.6276 134.126 45.9531C134.018 46.2754 133.862 46.5472 133.657 46.7686C133.452 46.9867 133.201 47.1527 132.905 47.2666C132.612 47.3805 132.28 47.4375 131.909 47.4375C131.538 47.4375 131.204 47.3822 130.908 47.2715C130.615 47.1608 130.366 46.9964 130.161 46.7783C129.956 46.557 129.798 46.2835 129.687 45.958C129.577 45.6325 129.521 45.2565 129.521 44.8301ZM130.537 44.835C130.537 45.154 130.569 45.4242 130.635 45.6455C130.703 45.8669 130.797 46.0475 130.918 46.1875C131.041 46.3242 131.186 46.4251 131.352 46.4902C131.522 46.5521 131.709 46.583 131.914 46.583C132.119 46.583 132.304 46.5505 132.47 46.4854C132.64 46.4202 132.785 46.3177 132.905 46.1777C133.026 46.0345 133.118 45.8522 133.183 45.6309C133.248 45.4095 133.281 45.1442 133.281 44.835C133.281 44.542 133.247 44.2897 133.178 44.0781C133.11 43.8665 133.014 43.6924 132.89 43.5557C132.77 43.4157 132.627 43.3132 132.461 43.248C132.295 43.1797 132.112 43.1455 131.914 43.1455C131.709 43.1455 131.522 43.1797 131.352 43.248C131.183 43.3164 131.038 43.4206 130.918 43.5605C130.797 43.7005 130.703 43.8763 130.635 44.0879C130.569 44.2995 130.537 44.5485 130.537 44.835ZM134.761 43.2627V42.4033H139.238V43.2627H137.519V47.3496H136.479V43.2627H134.761ZM140.732 45.3379C140.762 45.5397 140.814 45.7188 140.888 45.875C140.963 46.0312 141.064 46.1631 141.191 46.2705C141.318 46.3779 141.473 46.4609 141.655 46.5195C141.841 46.5749 142.055 46.6025 142.3 46.6025C142.534 46.6025 142.755 46.5651 142.964 46.4902C143.175 46.4154 143.369 46.3307 143.545 46.2363L143.857 46.959C143.59 47.112 143.318 47.2308 143.042 47.3154C142.765 47.3968 142.456 47.4375 142.114 47.4375C141.333 47.4375 140.735 47.2161 140.322 46.7734C139.912 46.3307 139.707 45.6797 139.707 44.8203C139.707 44.4102 139.762 44.0488 139.873 43.7363C139.987 43.4206 140.146 43.1569 140.351 42.9453C140.556 42.7305 140.802 42.5677 141.089 42.457C141.375 42.3464 141.694 42.291 142.046 42.291C142.332 42.291 142.596 42.3333 142.837 42.418C143.081 42.5026 143.291 42.6182 143.467 42.7646C143.646 42.9111 143.786 43.0837 143.887 43.2822C143.987 43.4808 144.038 43.694 144.038 43.9219C144.038 44.1107 144.01 44.2913 143.955 44.4639C143.903 44.6331 143.812 44.7829 143.681 44.9131C143.551 45.0433 143.377 45.1475 143.159 45.2256C142.941 45.3005 142.669 45.3379 142.344 45.3379H140.732ZM142.002 43.1455C141.813 43.1455 141.644 43.1781 141.494 43.2432C141.347 43.3083 141.22 43.3994 141.113 43.5166C141.009 43.6305 140.924 43.7673 140.859 43.9268C140.794 44.0863 140.748 44.2604 140.722 44.4492H142.178C142.308 44.4492 142.425 44.446 142.529 44.4395C142.637 44.4329 142.726 44.415 142.798 44.3857C142.873 44.3532 142.929 44.306 142.969 44.2441C143.008 44.1823 143.027 44.0977 143.027 43.9902C143.027 43.8405 142.995 43.7119 142.929 43.6045C142.868 43.4971 142.786 43.4092 142.685 43.3408C142.588 43.2725 142.479 43.2236 142.358 43.1943C142.238 43.1618 142.119 43.1455 142.002 43.1455ZM144.678 47.3496C144.71 47.2389 144.748 47.1299 144.79 47.0225C144.832 46.9118 144.878 46.7979 144.927 46.6807C144.979 46.5635 145.037 46.4414 145.102 46.3145C145.167 46.1842 145.242 46.0459 145.327 45.8994C145.412 45.7529 145.495 45.6243 145.576 45.5137C145.657 45.3997 145.737 45.2988 145.815 45.2109C145.893 45.1198 145.967 45.0384 146.035 44.9668C146.107 44.8952 146.175 44.8252 146.24 44.7568C146.077 44.5713 145.916 44.3874 145.757 44.2051C145.6 44.0228 145.465 43.8307 145.351 43.6289C145.075 43.1406 144.889 42.7321 144.795 42.4033L145.923 42.3887C145.968 42.5579 146.017 42.7109 146.069 42.8477C146.121 42.9811 146.188 43.126 146.269 43.2822C146.364 43.4645 146.468 43.6257 146.582 43.7656C146.696 43.9056 146.806 44.0309 146.914 44.1416H146.958C147.016 44.0798 147.072 44.0179 147.124 43.9561C147.179 43.8942 147.233 43.8307 147.285 43.7656C147.337 43.6973 147.389 43.624 147.441 43.5459C147.493 43.4678 147.547 43.3799 147.602 43.2822C147.687 43.1325 147.757 42.9876 147.812 42.8477C147.868 42.7077 147.913 42.5547 147.949 42.3887L149.077 42.4033C149.048 42.5107 149.017 42.61 148.984 42.7012C148.952 42.7923 148.914 42.8851 148.872 42.9795C148.83 43.0739 148.781 43.1732 148.725 43.2773C148.673 43.3815 148.608 43.4971 148.53 43.624C148.449 43.7607 148.371 43.8796 148.296 43.9805C148.221 44.0814 148.146 44.1742 148.071 44.2588C147.999 44.3434 147.926 44.4248 147.851 44.5029C147.776 44.5811 147.7 44.6641 147.622 44.752C147.677 44.8073 147.744 44.8773 147.822 44.9619C147.9 45.0433 147.982 45.1344 148.066 45.2354C148.151 45.3363 148.234 45.4421 148.315 45.5527C148.397 45.6634 148.468 45.7741 148.53 45.8848C148.641 46.0833 148.73 46.2493 148.799 46.3828C148.867 46.5163 148.922 46.6351 148.965 46.7393C149.01 46.8434 149.049 46.9427 149.082 47.0371C149.114 47.1283 149.152 47.2324 149.194 47.3496L148.056 47.3643C148.037 47.2861 148.016 47.2096 147.993 47.1348C147.97 47.0599 147.941 46.9801 147.905 46.8955C147.873 46.8109 147.833 46.7214 147.788 46.627C147.742 46.5293 147.689 46.4219 147.627 46.3047C147.581 46.2201 147.529 46.1322 147.47 46.041C147.415 45.9466 147.357 45.8571 147.295 45.7725C147.236 45.6846 147.178 45.6048 147.119 45.5332C147.06 45.4583 147.007 45.3981 146.958 45.3525H146.919C146.876 45.3981 146.826 45.4551 146.767 45.5234C146.709 45.5918 146.647 45.6683 146.582 45.7529C146.52 45.8376 146.458 45.9287 146.396 46.0264C146.334 46.124 146.279 46.2217 146.23 46.3193C146.165 46.4463 146.11 46.5602 146.064 46.6611C146.019 46.7588 145.98 46.8483 145.947 46.9297C145.918 47.0078 145.892 47.0827 145.869 47.1543C145.849 47.2227 145.831 47.2926 145.815 47.3643L144.678 47.3496ZM150.195 47.3496V42.4033H151.23V44.4102H153.764V42.4033H154.8V47.3496H153.764V45.2646H151.23V47.3496H150.195ZM159.399 47.3496L159.419 43.9561H159.365C159.264 44.0798 159.157 44.2311 159.043 44.4102C158.929 44.5892 158.812 44.7812 158.691 44.9863C158.574 45.1914 158.454 45.4046 158.33 45.626C158.206 45.8473 158.081 46.0638 157.954 46.2754C157.83 46.4837 157.706 46.6807 157.583 46.8662C157.462 47.0518 157.344 47.2129 157.226 47.3496H156.196V42.4033H157.192L157.173 45.8652H157.212C157.309 45.7448 157.415 45.5934 157.529 45.4111C157.643 45.2256 157.76 45.0254 157.881 44.8105C158.004 44.5957 158.13 44.3727 158.257 44.1416C158.387 43.9072 158.514 43.6826 158.637 43.4678C158.761 43.2497 158.882 43.0479 158.999 42.8623C159.116 42.6768 159.227 42.5238 159.331 42.4033H160.381V47.3496H159.399ZM166.006 42.4033C165.833 42.846 165.622 43.2432 165.371 43.5947C165.123 43.9463 164.847 44.2555 164.541 44.5225C164.638 44.7471 164.756 44.9798 164.892 45.2207C165.032 45.4616 165.182 45.6976 165.342 45.9287C165.504 46.1598 165.67 46.3796 165.84 46.5879C166.012 46.7962 166.181 46.9801 166.347 47.1396L165.615 47.6426C165.459 47.5319 165.289 47.3773 165.107 47.1787C164.928 46.9769 164.752 46.7572 164.58 46.5195C164.411 46.2786 164.251 46.0345 164.101 45.7871C163.955 45.5365 163.838 45.3086 163.75 45.1035C163.48 45.2598 163.206 45.3867 162.929 45.4844V47.3496H161.894V42.4033H162.929V44.4932C163.18 44.389 163.405 44.2653 163.603 44.1221C163.805 43.9788 163.986 43.8177 164.145 43.6387C164.308 43.4596 164.451 43.2676 164.575 43.0625C164.702 42.8542 164.817 42.6344 164.922 42.4033H166.006ZM170.434 47.3496L170.454 43.9561H170.4C170.299 44.0798 170.192 44.2311 170.078 44.4102C169.964 44.5892 169.847 44.7812 169.726 44.9863C169.609 45.1914 169.489 45.4046 169.365 45.626C169.241 45.8473 169.116 46.0638 168.989 46.2754C168.865 46.4837 168.742 46.6807 168.618 46.8662C168.498 47.0518 168.379 47.2129 168.262 47.3496H167.231V42.4033H168.227L168.208 45.8652H168.247C168.345 45.7448 168.45 45.5934 168.564 45.4111C168.678 45.2256 168.795 45.0254 168.916 44.8105C169.039 44.5957 169.165 44.3727 169.292 44.1416C169.422 43.9072 169.549 43.6826 169.673 43.4678C169.796 43.2497 169.917 43.0479 170.034 42.8623C170.151 42.6768 170.262 42.5238 170.366 42.4033H171.416V47.3496H170.434Z" fill="white"/>
<path d="M0.993988 47.3496V42.4033H2.02914V44.4102H4.56332V42.4033H5.59848V47.3496H4.56332V45.2646H2.02914V47.3496H0.993988ZM6.75571 44.8301C6.75571 44.4395 6.80942 44.0879 6.91684 43.7754C7.02426 43.4629 7.17888 43.1976 7.38071 42.9795C7.58578 42.7581 7.83644 42.5889 8.13266 42.4717C8.42888 42.3512 8.7658 42.291 9.1434 42.291C9.44939 42.291 9.74562 42.3382 10.0321 42.4326C10.3218 42.5238 10.5757 42.6702 10.7938 42.8721C11.0151 43.0739 11.1926 43.3359 11.326 43.6582C11.4595 43.9805 11.5262 44.3727 11.5262 44.835C11.5262 45.2549 11.4709 45.6276 11.3602 45.9531C11.2528 46.2754 11.0965 46.5472 10.8914 46.7686C10.6864 46.9867 10.4357 47.1527 10.1395 47.2666C9.84653 47.3805 9.5145 47.4375 9.1434 47.4375C8.77231 47.4375 8.43865 47.3822 8.14243 47.2715C7.84946 47.1608 7.60043 46.9964 7.39536 46.7783C7.19028 46.557 7.0324 46.2835 6.92172 45.958C6.81105 45.6325 6.75571 45.2565 6.75571 44.8301ZM7.77133 44.835C7.77133 45.154 7.80388 45.4242 7.86899 45.6455C7.93735 45.8669 8.03175 46.0475 8.15219 46.1875C8.27589 46.3242 8.42075 46.4251 8.58676 46.4902C8.75603 46.5521 8.94321 46.583 9.14828 46.583C9.35336 46.583 9.53891 46.5505 9.70493 46.4854C9.8742 46.4202 10.0191 46.3177 10.1395 46.1777C10.2599 46.0345 10.3527 45.8522 10.4178 45.6309C10.4829 45.4095 10.5155 45.1442 10.5155 44.835C10.5155 44.542 10.4813 44.2897 10.4129 44.0781C10.3446 43.8665 10.2485 43.6924 10.1248 43.5557C10.0044 43.4157 9.86118 43.3132 9.69516 43.248C9.52914 43.1797 9.34685 43.1455 9.14828 43.1455C8.94321 43.1455 8.75603 43.1797 8.58676 43.248C8.41749 43.3164 8.27263 43.4206 8.15219 43.5605C8.03175 43.7005 7.93735 43.8763 7.86899 44.0879C7.80388 44.2995 7.77133 44.5485 7.77133 44.835ZM12.6834 47.3496V42.4033H14.8709C15.1248 42.4033 15.356 42.4294 15.5643 42.4814C15.7759 42.5335 15.9566 42.6133 16.1063 42.7207C16.256 42.8249 16.3716 42.9567 16.453 43.1162C16.5376 43.2757 16.5799 43.4629 16.5799 43.6777C16.5799 43.9479 16.5099 44.1709 16.37 44.3467C16.23 44.5225 16.051 44.6543 15.8329 44.7422V44.7812C16.1128 44.8529 16.3358 44.988 16.5018 45.1865C16.6678 45.3851 16.7508 45.639 16.7508 45.9482C16.7508 46.1826 16.7101 46.3877 16.6288 46.5635C16.5506 46.736 16.4367 46.8809 16.287 46.998C16.1405 47.1152 15.9598 47.2031 15.745 47.2617C15.5301 47.3203 15.286 47.3496 15.0125 47.3496H12.6834ZM13.7186 46.5977H14.7831C14.9295 46.5977 15.0597 46.5863 15.1737 46.5635C15.2909 46.5407 15.3901 46.5016 15.4715 46.4463C15.5529 46.3877 15.6148 46.3128 15.6571 46.2217C15.7026 46.1305 15.7254 46.0166 15.7254 45.8799C15.7254 45.6227 15.6408 45.4372 15.4715 45.3232C15.3023 45.2093 15.0711 45.1523 14.7782 45.1523H13.7186V46.5977ZM13.7186 44.4395H14.6512C14.7944 44.4395 14.9247 44.4264 15.0418 44.4004C15.159 44.3711 15.2583 44.3288 15.3397 44.2734C15.4243 44.2148 15.4894 44.1432 15.535 44.0586C15.5806 43.9707 15.6034 43.8665 15.6034 43.7461C15.6034 43.6159 15.5789 43.5101 15.5301 43.4287C15.4813 43.3473 15.4146 43.2855 15.3299 43.2432C15.2453 43.1976 15.1428 43.1683 15.0223 43.1553C14.9051 43.139 14.7782 43.1309 14.6414 43.1309H13.7186V44.4395ZM18.8456 46.627H19.6707C19.827 46.627 19.9621 46.6139 20.076 46.5879C20.1932 46.5618 20.2892 46.5195 20.3641 46.4609C20.439 46.3991 20.4943 46.3193 20.5301 46.2217C20.5659 46.1208 20.5838 45.9987 20.5838 45.8555C20.5838 45.5885 20.509 45.3867 20.3592 45.25C20.2095 45.11 19.9637 45.04 19.6219 45.04H18.8456V46.627ZM18.8456 42.4033V44.3418H19.8709C20.1118 44.3418 20.3364 44.3776 20.5448 44.4492C20.7531 44.5176 20.9338 44.6185 21.0868 44.752C21.2398 44.8822 21.3602 45.0433 21.4481 45.2354C21.536 45.4242 21.5799 45.6374 21.5799 45.875C21.5799 46.1257 21.5392 46.3438 21.4579 46.5293C21.3797 46.7116 21.2658 46.8646 21.1161 46.9883C20.9696 47.1087 20.7905 47.1999 20.5789 47.2617C20.3706 47.3203 20.1346 47.3496 19.8709 47.3496H17.8104V42.4033H18.8456ZM22.4588 47.3496V42.4033H23.494V47.3496H22.4588ZM25.6717 45.3379C25.701 45.5397 25.7531 45.7188 25.828 45.875C25.9028 46.0312 26.0038 46.1631 26.1307 46.2705C26.2577 46.3779 26.4123 46.4609 26.5946 46.5195C26.7801 46.5749 26.995 46.6025 27.2391 46.6025C27.4735 46.6025 27.6948 46.5651 27.9032 46.4902C28.1148 46.4154 28.3084 46.3307 28.4842 46.2363L28.7967 46.959C28.5298 47.112 28.258 47.2308 27.9813 47.3154C27.7046 47.3968 27.3954 47.4375 27.0536 47.4375C26.2723 47.4375 25.675 47.2161 25.2616 46.7734C24.8514 46.3307 24.6463 45.6797 24.6463 44.8203C24.6463 44.4102 24.7017 44.0488 24.8123 43.7363C24.9263 43.4206 25.0858 43.1569 25.2909 42.9453C25.4959 42.7305 25.7417 42.5677 26.0282 42.457C26.3146 42.3464 26.6336 42.291 26.9852 42.291C27.2717 42.291 27.5353 42.3333 27.7762 42.418C28.0204 42.5026 28.2303 42.6182 28.4061 42.7646C28.5851 42.9111 28.7251 43.0837 28.826 43.2822C28.9269 43.4808 28.9774 43.694 28.9774 43.9219C28.9774 44.1107 28.9497 44.2913 28.8944 44.4639C28.8423 44.6331 28.7511 44.7829 28.6209 44.9131C28.4907 45.0433 28.3166 45.1475 28.0985 45.2256C27.8804 45.3005 27.6086 45.3379 27.2831 45.3379H25.6717ZM26.9413 43.1455C26.7525 43.1455 26.5832 43.1781 26.4334 43.2432C26.287 43.3083 26.16 43.3994 26.0526 43.5166C25.9484 43.6305 25.8638 43.7673 25.7987 43.9268C25.7336 44.0863 25.688 44.2604 25.662 44.4492H27.117C27.2472 44.4492 27.3644 44.446 27.4686 44.4395C27.576 44.4329 27.6655 44.415 27.7372 44.3857C27.812 44.3532 27.869 44.306 27.9081 44.2441C27.9471 44.1823 27.9666 44.0977 27.9666 43.9902C27.9666 43.8405 27.9341 43.7119 27.869 43.6045C27.8071 43.4971 27.7258 43.4092 27.6248 43.3408C27.5272 43.2725 27.4181 43.2236 27.2977 43.1943C27.1773 43.1618 27.0584 43.1455 26.9413 43.1455ZM32.1024 42.6816C32.3368 42.5384 32.576 42.4375 32.8202 42.3789C33.0676 42.3171 33.3459 42.2861 33.6551 42.2861C33.9253 42.2861 34.1646 42.3171 34.3729 42.3789C34.5812 42.4375 34.7554 42.5238 34.8954 42.6377C35.0386 42.7516 35.146 42.89 35.2176 43.0527C35.2892 43.2155 35.325 43.3978 35.325 43.5996C35.325 43.8633 35.273 44.0863 35.1688 44.2686C35.0679 44.4508 34.897 44.6038 34.6561 44.7275C34.7668 44.7699 34.8709 44.8252 34.9686 44.8936C35.0663 44.9619 35.1509 45.0465 35.2225 45.1475C35.2974 45.2484 35.356 45.3656 35.3983 45.499C35.4406 45.6325 35.4618 45.7871 35.4618 45.9629C35.4618 46.2363 35.4064 46.4658 35.2957 46.6514C35.1851 46.8369 35.0418 46.9867 34.8661 47.1006C34.6903 47.2145 34.4933 47.2975 34.2752 47.3496C34.0604 47.4049 33.8488 47.4342 33.6405 47.4375C33.4875 47.444 33.3345 47.4375 33.1815 47.418C33.0317 47.3984 32.8869 47.3708 32.7469 47.335C32.6102 47.2959 32.4784 47.252 32.3514 47.2031C32.2277 47.151 32.1138 47.0957 32.0096 47.0371L32.2928 46.29C32.3905 46.3389 32.4816 46.3812 32.5663 46.417C32.6509 46.4528 32.7372 46.4837 32.825 46.5098C32.9162 46.5326 33.0138 46.5505 33.118 46.5635C33.2254 46.5765 33.3491 46.583 33.4891 46.583C33.5998 46.583 33.7121 46.5716 33.826 46.5488C33.9432 46.526 34.0474 46.4886 34.1385 46.4365C34.2297 46.3844 34.3045 46.3145 34.3631 46.2266C34.4217 46.1387 34.451 46.0296 34.451 45.8994C34.451 45.8278 34.438 45.7513 34.412 45.6699C34.3859 45.5885 34.3403 45.5137 34.2752 45.4453C34.2134 45.377 34.1288 45.32 34.0213 45.2744C33.9139 45.2288 33.7788 45.2061 33.6161 45.2061H32.8934V44.4199L33.577 44.415C33.6779 44.415 33.7723 44.4069 33.8602 44.3906C33.9513 44.3743 34.0311 44.3418 34.0995 44.293C34.1678 44.2441 34.2215 44.1774 34.2606 44.0928C34.2997 44.0049 34.3192 43.891 34.3192 43.751C34.3192 43.5557 34.2541 43.4059 34.1239 43.3018C33.9937 43.1976 33.7918 43.1455 33.5184 43.1455C33.4273 43.1455 33.3377 43.1504 33.2498 43.1602C33.162 43.1667 33.0724 43.1813 32.9813 43.2041C32.8934 43.2236 32.799 43.2529 32.6981 43.292C32.6004 43.3311 32.4963 43.3799 32.3856 43.4385L32.1024 42.6816ZM36.1844 44.8984C36.1844 44.4688 36.2463 44.0911 36.37 43.7656C36.4969 43.4401 36.6711 43.1683 36.8924 42.9502C37.117 42.7321 37.384 42.5677 37.6932 42.457C38.0025 42.3464 38.341 42.291 38.7088 42.291C38.8976 42.291 39.0816 42.304 39.2606 42.3301C39.4396 42.3561 39.6105 42.3903 39.7733 42.4326C39.936 42.4749 40.089 42.5238 40.2323 42.5791C40.3755 42.6344 40.5073 42.6898 40.6278 42.7451V47.3496H39.7293L39.6024 46.8662C39.508 46.9378 39.4103 47.0078 39.3094 47.0762C39.2085 47.1445 39.0995 47.2064 38.9823 47.2617C38.8651 47.3138 38.7365 47.3561 38.5965 47.3887C38.4566 47.4212 38.2987 47.4375 38.1229 47.4375C37.8397 47.4375 37.5793 47.3854 37.3416 47.2812C37.104 47.1738 36.8989 47.016 36.7264 46.8076C36.5571 46.596 36.4237 46.3324 36.326 46.0166C36.2316 45.6976 36.1844 45.3249 36.1844 44.8984ZM37.2 44.8691C37.2 45.1654 37.2293 45.4225 37.2879 45.6406C37.3498 45.8555 37.4344 46.0329 37.5418 46.1729C37.6525 46.3128 37.7827 46.417 37.9325 46.4854C38.0855 46.5505 38.2515 46.583 38.4305 46.583C38.6616 46.583 38.8814 46.5423 39.0897 46.4609C39.298 46.3796 39.4673 46.2786 39.5975 46.1582V43.3262C39.5682 43.3132 39.5243 43.2969 39.4657 43.2773C39.4071 43.2578 39.3371 43.2383 39.2557 43.2188C39.1743 43.1992 39.0848 43.1829 38.9872 43.1699C38.8895 43.1569 38.787 43.1504 38.6795 43.1504C38.4614 43.1504 38.2612 43.1878 38.0789 43.2627C37.8967 43.3376 37.7404 43.4482 37.6102 43.5947C37.48 43.738 37.3791 43.917 37.3075 44.1318C37.2359 44.3434 37.2 44.5892 37.2 44.8691ZM46.6532 47.3496H45.618V43.2578H43.0838V47.3496H42.0487V42.4033H46.6532V47.3496ZM50.9452 47.3496V45.46C50.8735 45.5186 50.7922 45.5771 50.701 45.6357C50.6131 45.6911 50.5138 45.7415 50.4032 45.7871C50.2925 45.8327 50.172 45.8701 50.0418 45.8994C49.9116 45.9255 49.7717 45.9385 49.6219 45.9385C49.2997 45.9385 49.0246 45.8896 48.7967 45.792C48.5689 45.6943 48.3817 45.5576 48.2352 45.3818C48.092 45.2028 47.9878 44.9912 47.9227 44.7471C47.8576 44.5029 47.825 44.2344 47.825 43.9414V42.4033H48.8602V43.834C48.8602 44.0781 48.8846 44.2799 48.9334 44.4395C48.9823 44.599 49.0506 44.7275 49.1385 44.8252C49.2264 44.9196 49.3322 44.9863 49.4559 45.0254C49.5796 45.0645 49.7179 45.084 49.8709 45.084C50.0988 45.084 50.3039 45.0465 50.4862 44.9717C50.6685 44.8968 50.8215 44.7959 50.9452 44.6689V42.4033H51.9803V47.3496H50.9452ZM53.0692 44.8984C53.0692 44.4688 53.131 44.0911 53.2547 43.7656C53.3817 43.4401 53.5558 43.1683 53.7772 42.9502C54.0018 42.7321 54.2687 42.5677 54.578 42.457C54.8872 42.3464 55.2258 42.291 55.5936 42.291C55.7824 42.291 55.9663 42.304 56.1454 42.3301C56.3244 42.3561 56.4953 42.3903 56.6581 42.4326C56.8208 42.4749 56.9738 42.5238 57.117 42.5791C57.2603 42.6344 57.3921 42.6898 57.5125 42.7451V47.3496H56.6141L56.4872 46.8662C56.3928 46.9378 56.2951 47.0078 56.1942 47.0762C56.0933 47.1445 55.9842 47.2064 55.867 47.2617C55.7498 47.3138 55.6213 47.3561 55.4813 47.3887C55.3413 47.4212 55.1834 47.4375 55.0077 47.4375C54.7245 47.4375 54.464 47.3854 54.2264 47.2812C53.9888 47.1738 53.7837 47.016 53.6112 46.8076C53.4419 46.596 53.3084 46.3324 53.2108 46.0166C53.1164 45.6976 53.0692 45.3249 53.0692 44.8984ZM54.0848 44.8691C54.0848 45.1654 54.1141 45.4225 54.1727 45.6406C54.2345 45.8555 54.3192 46.0329 54.4266 46.1729C54.5373 46.3128 54.6675 46.417 54.8172 46.4854C54.9702 46.5505 55.1362 46.583 55.3153 46.583C55.5464 46.583 55.7661 46.5423 55.9745 46.4609C56.1828 46.3796 56.3521 46.2786 56.4823 46.1582V43.3262C56.453 43.3132 56.409 43.2969 56.3504 43.2773C56.2918 43.2578 56.2219 43.2383 56.1405 43.2188C56.0591 43.1992 55.9696 43.1829 55.8719 43.1699C55.7743 43.1569 55.6717 43.1504 55.5643 43.1504C55.3462 43.1504 55.146 43.1878 54.9637 43.2627C54.7814 43.3376 54.6252 43.4482 54.495 43.5947C54.3648 43.738 54.2638 43.917 54.1922 44.1318C54.1206 44.3434 54.0848 44.5892 54.0848 44.8691ZM58.66 44.8154C58.66 44.389 58.7153 44.0179 58.826 43.7021C58.9367 43.3864 59.0897 43.1243 59.285 42.916C59.4836 42.7044 59.7196 42.5482 59.993 42.4473C60.2664 42.3431 60.5659 42.291 60.8914 42.291C61.1584 42.291 61.4269 42.3252 61.6971 42.3936C61.9706 42.4587 62.2456 42.5726 62.5223 42.7354L62.2147 43.4385C61.8436 43.2432 61.4611 43.1455 61.0672 43.1455C60.605 43.1455 60.2567 43.292 60.0223 43.585C59.7912 43.8779 59.6756 44.3027 59.6756 44.8594C59.6756 45.416 59.7912 45.8424 60.0223 46.1387C60.2567 46.4349 60.6099 46.583 61.0819 46.583C61.2902 46.583 61.4888 46.5553 61.6776 46.5C61.8664 46.4447 62.0454 46.3763 62.2147 46.2949L62.5223 46.9932C62.2684 47.1396 62.0064 47.2503 61.7362 47.3252C61.4692 47.4001 61.1844 47.4375 60.8817 47.4375C60.4813 47.4375 60.1411 47.3724 59.8612 47.2422C59.5812 47.1087 59.3517 46.9264 59.1727 46.6953C58.9937 46.4609 58.8635 46.1842 58.7821 45.8652C58.7007 45.543 58.66 45.193 58.66 44.8154ZM62.9422 43.2627V42.4033H67.4198V43.2627H65.701V47.3496H64.661V43.2627H62.9422ZM71.3602 47.3496L71.3797 43.9561H71.326C71.2251 44.0798 71.1177 44.2311 71.0038 44.4102C70.8898 44.5892 70.7726 44.7812 70.6522 44.9863C70.535 45.1914 70.4146 45.4046 70.2909 45.626C70.1672 45.8473 70.0418 46.0638 69.9149 46.2754C69.7912 46.4837 69.6675 46.6807 69.5438 46.8662C69.4234 47.0518 69.3045 47.2129 69.1873 47.3496H68.1571V42.4033H69.1532L69.1336 45.8652H69.1727C69.2704 45.7448 69.3761 45.5934 69.4901 45.4111C69.604 45.2256 69.7212 45.0254 69.8416 44.8105C69.9653 44.5957 70.0907 44.3727 70.2176 44.1416C70.3478 43.9072 70.4748 43.6826 70.5985 43.4678C70.7222 43.2497 70.8426 43.0479 70.9598 42.8623C71.077 42.6768 71.1877 42.5238 71.2918 42.4033H72.3416V47.3496H71.3602ZM76.0721 46.4951C76.1991 46.404 76.3097 46.2835 76.4041 46.1338C76.4985 45.9808 76.5767 45.8115 76.6385 45.626C76.7036 45.4404 76.7557 45.2435 76.7948 45.0352C76.8338 44.8268 76.8648 44.6185 76.8875 44.4102C76.9103 44.1986 76.925 43.9935 76.9315 43.7949C76.938 43.5964 76.9413 43.4157 76.9413 43.2529V42.4033H80.7157V46.4951H81.2186V48.3262H80.1834V47.3496H76.8241V48.3262H75.7889V46.4951H76.0721ZM77.9471 43.6631C77.9471 43.8519 77.9341 44.0684 77.9081 44.3125C77.882 44.5566 77.8397 44.8073 77.7811 45.0645C77.7225 45.3216 77.6444 45.5755 77.5467 45.8262C77.4523 46.0736 77.3351 46.2965 77.1952 46.4951H79.6805V43.2627H77.9471V43.6631ZM85.8622 43.2627H83.9334V43.5801C83.9334 43.7038 83.9286 43.8535 83.9188 44.0293C83.9123 44.2051 83.8993 44.3955 83.8797 44.6006C83.8602 44.8024 83.8325 45.014 83.7967 45.2354C83.7609 45.4535 83.7153 45.6683 83.66 45.8799C83.6079 46.0882 83.5428 46.2868 83.4647 46.4756C83.3898 46.6644 83.3003 46.8304 83.1961 46.9736C83.092 47.1169 82.9732 47.2308 82.8397 47.3154C82.7095 47.3968 82.5614 47.4375 82.3954 47.4375C82.3172 47.4375 82.2359 47.4326 82.1512 47.4229C82.0698 47.4163 81.9933 47.4066 81.9217 47.3936C81.8534 47.3838 81.7948 47.374 81.7459 47.3643C81.6971 47.3545 81.6662 47.3464 81.6532 47.3398L81.6922 46.5391C81.7215 46.5391 81.7508 46.5439 81.7801 46.5537C81.8094 46.5602 81.842 46.5684 81.8778 46.5781C81.9136 46.5846 81.9526 46.5911 81.995 46.5977C82.0373 46.6042 82.0845 46.6058 82.1366 46.6025C82.2342 46.596 82.3189 46.5505 82.3905 46.4658C82.4653 46.3779 82.5288 46.264 82.5809 46.124C82.6362 45.984 82.6818 45.8245 82.7176 45.6455C82.7567 45.4632 82.7876 45.2744 82.8104 45.0791C82.8332 44.8805 82.8511 44.6836 82.8641 44.4883C82.8771 44.2897 82.8869 44.1042 82.8934 43.9316C82.8999 43.7591 82.9032 43.6061 82.9032 43.4727C82.9064 43.3359 82.9081 43.2318 82.9081 43.1602V42.4033H86.8973V47.3496H85.8622V43.2627ZM87.9276 47.0762C88.2173 46.8158 88.4696 46.5521 88.6844 46.2852C88.8993 46.0182 89.0897 45.7464 89.2557 45.4697C89.1222 45.4339 88.9937 45.3721 88.87 45.2842C88.7495 45.1963 88.6405 45.0889 88.5428 44.9619C88.4484 44.8317 88.3719 44.6868 88.3133 44.5273C88.258 44.3646 88.2303 44.1904 88.2303 44.0049C88.2303 43.7249 88.2824 43.484 88.3866 43.2822C88.494 43.0804 88.634 42.9144 88.8065 42.7842C88.9823 42.654 89.1825 42.5579 89.4071 42.4961C89.6317 42.4342 89.8612 42.4033 90.0956 42.4033H91.8778V47.3447H90.8719V45.6992H90.2518C90.2355 45.6992 90.2176 45.6992 90.1981 45.6992C90.1786 45.696 90.159 45.6927 90.1395 45.6895C90.0614 45.8457 89.9686 46.0101 89.8612 46.1826C89.757 46.3519 89.6431 46.5212 89.5194 46.6904C89.3957 46.8564 89.2655 47.0192 89.1288 47.1787C88.992 47.335 88.8537 47.4782 88.7137 47.6084L87.9276 47.0762ZM90.8719 43.209H90.037C89.9198 43.209 89.8075 43.2253 89.7 43.2578C89.5959 43.2871 89.5047 43.3343 89.4266 43.3994C89.3485 43.4645 89.285 43.5475 89.2362 43.6484C89.1906 43.7493 89.1678 43.8682 89.1678 44.0049C89.1678 44.1188 89.1857 44.2279 89.2215 44.332C89.2606 44.4362 89.3159 44.529 89.3875 44.6104C89.4592 44.6885 89.5438 44.752 89.6414 44.8008C89.7391 44.8464 89.8498 44.8691 89.9735 44.8691H90.8719V43.209Z" fill="white"/>
</g>
<path fill-rule="evenodd" clip-rule="evenodd" d="M6.83035 37.8687C9.21141 39.0506 11.8445 39.6415 14.7296 39.6415C19.0224 39.6415 22.4811 38.4857 25.1054 36.1742C27.7472 33.8453 29.0681 30.7864 29.0681 26.9975C29.0681 23.7301 28.1035 21.0449 26.1743 18.9419C24.2625 16.8389 21.4296 15.3616 17.6755 14.51C14.8947 13.9017 13.5043 13.163 13.5043 12.294C13.5043 11.9117 13.6694 11.5988 13.9996 11.3555C14.3298 11.1122 14.7556 10.9905 15.277 10.9905C16.0765 10.9905 16.9455 11.173 17.884 11.538C18.6661 11.7987 19.4569 11.9551 20.2564 12.0073C21.0733 12.0594 21.9075 11.8422 22.7591 11.3555C23.6108 10.8689 24.3233 10.1215 24.8969 9.11349L27.0868 5.2812C25.7311 3.82128 23.9584 2.71764 21.7685 1.9703C19.5786 1.22296 17.4148 0.849294 15.277 0.849294C11.4534 0.849294 8.37717 1.90078 6.04825 4.00376C3.71932 6.10675 2.55486 8.87886 2.55486 12.3201C2.55486 15.1183 3.54552 17.5167 5.52685 19.5154C7.52555 21.4968 10.5931 23.1479 14.7296 24.4687C16.989 25.1813 18.1187 26.0329 18.1187 27.0236C18.1187 27.9274 17.8319 28.5617 17.2584 28.9267C16.6848 29.2743 15.8419 29.4481 14.7296 29.4481C14.5384 29.4481 14.3385 29.4307 14.13 29.396C13.9214 29.3612 13.7302 29.3264 13.5564 29.2917C13.3826 29.2395 13.1741 29.1613 12.9307 29.0571C12.6874 28.9528 12.4962 28.8659 12.3572 28.7964L11.7315 28.4835C11.4534 28.3271 11.2536 28.2141 11.1319 28.1446C11.0276 28.0751 10.8191 27.9534 10.5062 27.7796C10.2108 27.5884 10.0196 27.4668 9.93268 27.4146C8.45538 26.5283 7.00415 26.2067 5.57899 26.4501C4.1712 26.6934 3.07626 27.5102 2.29416 28.9006L0 33.0979C2.1725 35.0966 4.44928 36.6869 6.83035 37.8687ZM57.7557 14.7185C56.1394 12.4418 53.8799 11.3034 50.9775 11.3034C48.3183 11.3034 45.9286 12.3027 43.8082 14.3014V0.0932617H33.7713V39.1201H43.8082V22.8003C44.9205 21.5489 46.1632 20.9232 47.5362 20.9232C48.3357 20.9232 48.9701 21.1752 49.4394 21.6792C49.926 22.1659 50.1693 23.0523 50.1693 24.3384V39.1201H60.2063V23.7127C60.2063 19.976 59.3894 16.9779 57.7557 14.7185ZM64.4838 27.3929C64.8449 30.6497 66.1576 33.403 68.422 35.6528C71.1333 38.3119 74.5658 39.6415 78.7197 39.6415C82.8735 39.6415 86.2973 38.3119 88.9912 35.6528C91.7025 32.9936 93.0582 29.6132 93.0582 25.5115C93.0582 21.4099 91.7025 18.0294 88.9912 15.3703C86.7469 13.1404 83.9959 11.8394 80.7382 11.4673V11.7509C80.7382 14.3309 78.6456 16.1112 76.5991 16.7303C73.481 17.6736 71.0188 20.1358 70.0756 23.2539C69.4565 25.3004 67.6762 27.3929 65.0961 27.3929H64.4838ZM74.4181 25.4855C74.4181 24.2167 74.8178 23.1739 75.6173 22.3571C76.4342 21.5402 77.4596 21.1318 78.6936 21.1318C79.9449 21.1318 80.9791 21.5489 81.7959 22.3831C82.6128 23.2 83.0212 24.2428 83.0212 25.5115C83.0212 26.7803 82.6128 27.8231 81.7959 28.6399C80.9791 29.4568 79.9449 29.8652 78.6936 29.8652C77.4596 29.8652 76.4342 29.4568 75.6173 28.6399C74.8178 27.8057 74.4181 26.7542 74.4181 25.4855ZM122.236 15.2921C120.255 12.6503 117.648 11.3294 114.415 11.3294C111.687 11.3294 109.34 12.5113 107.376 14.875C106.959 12.8241 105.63 11.7987 103.388 11.7987H97.4697V48.5314H107.507V37.217C109.262 38.8159 111.278 39.6154 113.555 39.6154C116.979 39.6154 119.777 38.2772 121.949 35.6006C124.122 32.9241 125.208 29.5263 125.208 25.4073C125.208 21.2882 124.218 17.9165 122.236 15.2921ZM114.076 28.7442C113.346 29.5958 112.425 30.0216 111.313 30.0216C110.044 30.0216 108.775 29.5698 107.507 28.666V23.5563C108.741 22.0964 110.114 21.3664 111.626 21.3664C112.669 21.3664 113.52 21.7401 114.181 22.4874C114.841 23.2348 115.171 24.2341 115.171 25.4855C115.171 26.8063 114.806 27.8926 114.076 28.7442ZM151.001 12.4244C149.333 11.677 147.525 11.3034 145.579 11.3034C143.198 11.3034 141.121 12.2593 139.348 14.1711C138.757 12.5895 137.427 11.7987 135.359 11.7987H129.65V39.1201H139.687V22.8263C140.069 22.0964 140.512 21.5576 141.016 21.21C141.52 20.845 142.181 20.6625 142.998 20.6625C143.571 20.6625 144.388 20.7233 145.448 20.845C146.526 20.9667 147.525 20.6191 148.446 19.8022C149.368 18.9853 149.95 17.9165 150.193 16.5956L151.001 12.4244ZM175.08 14.4318C173.134 12.3809 170.301 11.3555 166.581 11.3555C164.148 11.3555 161.637 11.677 159.047 12.3201C156.475 12.9632 154.537 13.8495 153.233 14.9792L154.667 18.3423C155.137 19.4198 155.884 20.1759 156.909 20.6104C157.935 21.0275 159.082 21.0709 160.351 20.7407C161.95 20.3062 163.409 20.089 164.73 20.089C165.738 20.089 166.521 20.3323 167.077 20.8189C167.65 21.2882 167.937 22.0008 167.937 22.9567V23.1913C166.79 23.0523 164.774 22.9827 161.889 22.9827C158.656 22.9827 156.084 23.7127 154.172 25.1726C152.278 26.6152 151.33 28.6312 151.33 31.2209C151.33 33.5672 152.147 35.5572 153.781 37.1909C155.432 38.8246 157.509 39.6415 160.012 39.6415C161.68 39.6415 163.227 39.2852 164.652 38.5726C166.077 37.86 167.233 36.965 168.119 35.8874C168.38 36.8085 168.832 37.582 169.475 38.2076C170.118 38.8159 170.831 39.1201 171.613 39.1201H178V23.3999C178 19.4546 177.027 16.4652 175.08 14.4318ZM167.937 30.517C166.755 31.4729 165.121 31.9508 163.036 31.9508C162.445 31.9508 161.941 31.8118 161.524 31.5337C161.107 31.2556 160.898 30.8646 160.898 30.3606C160.898 29.7175 161.141 29.2222 161.628 28.8746C162.115 28.527 162.758 28.3532 163.557 28.3532C164.861 28.3532 166.321 28.414 167.937 28.5357V30.517Z" fill="white"/>
<path fill-rule="evenodd" clip-rule="evenodd" d="M79.4346 11.7509C79.4346 13.5507 77.9444 14.9616 76.2217 15.4827C72.6862 16.5522 69.8974 19.341 68.8279 22.8765C68.3068 24.5992 66.8959 26.0895 65.0961 26.0895H61.8374C61.8374 16.3708 69.7159 8.49219 79.4346 8.49219V11.7509Z" fill="url(#paint0_linear)"/>
<defs>
<linearGradient id="paint0_linear" x1="70.636" y1="8.49219" x2="70.636" y2="26.0895" gradientUnits="userSpaceOnUse">
<stop stop-color="#E62E2E"/>
<stop offset="1" stop-color="#FF3333"/>
</linearGradient>
</defs>
</svg>
