<svg width="178" height="51" viewBox="0 0 178 51" fill="none" xmlns="http://www.w3.org/2000/svg">
<g opacity="0.6">
<path d="M112.5 47.3303C112.513 46.943 112.532 46.5605 112.558 46.1829C112.584 45.8053 112.614 45.439 112.646 45.0842C112.669 44.8336 112.693 44.5829 112.72 44.3323C112.749 44.0816 112.778 43.8391 112.807 43.6047C112.837 43.3704 112.866 43.1506 112.895 42.9456C112.925 42.7372 112.952 42.55 112.978 42.384H114.414L115.439 45.7288H115.503L116.523 42.384H117.959C118.014 42.7356 118.069 43.1295 118.125 43.5657C118.183 43.9986 118.239 44.4983 118.291 45.0647C118.31 45.2828 118.328 45.4895 118.345 45.6848C118.361 45.8801 118.374 46.0689 118.384 46.2512C118.397 46.4335 118.408 46.6142 118.418 46.7932C118.428 46.969 118.437 47.148 118.447 47.3303H117.387C117.384 47.2359 117.378 47.1204 117.368 46.9836C117.361 46.8469 117.353 46.7004 117.344 46.5442C117.334 46.3847 117.322 46.2203 117.309 46.051C117.296 45.8818 117.285 45.7174 117.275 45.5579C117.259 45.3398 117.239 45.1331 117.217 44.9377C117.197 44.7424 117.176 44.5634 117.153 44.4006C117.134 44.2346 117.114 44.0914 117.095 43.9709C117.075 43.8472 117.057 43.7496 117.041 43.678H116.982L115.893 47.1301H115.053L113.96 43.678H113.896C113.88 43.7528 113.86 43.8603 113.838 44.0002C113.818 44.137 113.797 44.2916 113.774 44.4641C113.755 44.6334 113.735 44.814 113.716 45.0061C113.696 45.1949 113.68 45.3788 113.667 45.5579C113.654 45.7434 113.641 45.9159 113.628 46.0754C113.615 46.2349 113.603 46.3863 113.594 46.5295C113.584 46.6728 113.574 46.8095 113.564 46.9397C113.558 47.0699 113.553 47.2001 113.55 47.3303H112.5ZM119.336 44.8108C119.336 44.4202 119.389 44.0686 119.497 43.7561C119.604 43.4436 119.759 43.1783 119.961 42.9602C120.166 42.7389 120.416 42.5696 120.713 42.4524C121.009 42.3319 121.346 42.2717 121.723 42.2717C122.029 42.2717 122.326 42.3189 122.612 42.4133C122.902 42.5045 123.156 42.651 123.374 42.8528C123.595 43.0546 123.773 43.3167 123.906 43.6389C124.039 43.9612 124.106 44.3534 124.106 44.8157C124.106 45.2356 124.051 45.6083 123.94 45.9338C123.833 46.2561 123.677 46.5279 123.471 46.7493C123.266 46.9674 123.016 47.1334 122.72 47.2473C122.427 47.3612 122.095 47.4182 121.723 47.4182C121.352 47.4182 121.019 47.3629 120.722 47.2522C120.429 47.1415 120.18 46.9771 119.975 46.759C119.77 46.5377 119.612 46.2642 119.502 45.9387C119.391 45.6132 119.336 45.2372 119.336 44.8108ZM120.351 44.8157C120.351 45.1347 120.384 45.4049 120.449 45.6262C120.517 45.8476 120.612 46.0282 120.732 46.1682C120.856 46.3049 121.001 46.4058 121.167 46.4709C121.336 46.5328 121.523 46.5637 121.728 46.5637C121.933 46.5637 122.119 46.5312 122.285 46.4661C122.454 46.401 122.599 46.2984 122.72 46.1584C122.84 46.0152 122.933 45.8329 122.998 45.6116C123.063 45.3902 123.095 45.1249 123.095 44.8157C123.095 44.5227 123.061 44.2704 122.993 44.0588C122.925 43.8472 122.829 43.6731 122.705 43.5364C122.584 43.3964 122.441 43.2939 122.275 43.2288C122.109 43.1604 121.927 43.1262 121.728 43.1262C121.523 43.1262 121.336 43.1604 121.167 43.2288C120.998 43.2971 120.853 43.4013 120.732 43.5413C120.612 43.6812 120.517 43.857 120.449 44.0686C120.384 44.2802 120.351 44.5292 120.351 44.8157ZM124.575 43.2434V42.384H129.053V43.2434H127.334V47.3303H126.294V43.2434H124.575ZM129.521 44.8108C129.521 44.4202 129.575 44.0686 129.682 43.7561C129.79 43.4436 129.944 43.1783 130.146 42.9602C130.351 42.7389 130.602 42.5696 130.898 42.4524C131.194 42.3319 131.531 42.2717 131.909 42.2717C132.215 42.2717 132.511 42.3189 132.798 42.4133C133.087 42.5045 133.341 42.651 133.559 42.8528C133.781 43.0546 133.958 43.3167 134.092 43.6389C134.225 43.9612 134.292 44.3534 134.292 44.8157C134.292 45.2356 134.236 45.6083 134.126 45.9338C134.018 46.2561 133.862 46.5279 133.657 46.7493C133.452 46.9674 133.201 47.1334 132.905 47.2473C132.612 47.3612 132.28 47.4182 131.909 47.4182C131.538 47.4182 131.204 47.3629 130.908 47.2522C130.615 47.1415 130.366 46.9771 130.161 46.759C129.956 46.5377 129.798 46.2642 129.687 45.9387C129.577 45.6132 129.521 45.2372 129.521 44.8108ZM130.537 44.8157C130.537 45.1347 130.569 45.4049 130.635 45.6262C130.703 45.8476 130.797 46.0282 130.918 46.1682C131.041 46.3049 131.186 46.4058 131.352 46.4709C131.522 46.5328 131.709 46.5637 131.914 46.5637C132.119 46.5637 132.304 46.5312 132.47 46.4661C132.64 46.401 132.785 46.2984 132.905 46.1584C133.026 46.0152 133.118 45.8329 133.183 45.6116C133.248 45.3902 133.281 45.1249 133.281 44.8157C133.281 44.5227 133.247 44.2704 133.178 44.0588C133.11 43.8472 133.014 43.6731 132.89 43.5364C132.77 43.3964 132.627 43.2939 132.461 43.2288C132.295 43.1604 132.112 43.1262 131.914 43.1262C131.709 43.1262 131.522 43.1604 131.352 43.2288C131.183 43.2971 131.038 43.4013 130.918 43.5413C130.797 43.6812 130.703 43.857 130.635 44.0686C130.569 44.2802 130.537 44.5292 130.537 44.8157ZM134.761 43.2434V42.384H139.238V43.2434H137.519V47.3303H136.479V43.2434H134.761ZM140.732 45.3186C140.762 45.5204 140.814 45.6995 140.888 45.8557C140.963 46.012 141.064 46.1438 141.191 46.2512C141.318 46.3586 141.473 46.4417 141.655 46.5002C141.841 46.5556 142.055 46.5833 142.3 46.5833C142.534 46.5833 142.755 46.5458 142.964 46.4709C143.175 46.3961 143.369 46.3114 143.545 46.217L143.857 46.9397C143.59 47.0927 143.318 47.2115 143.042 47.2961C142.765 47.3775 142.456 47.4182 142.114 47.4182C141.333 47.4182 140.735 47.1969 140.322 46.7542C139.912 46.3114 139.707 45.6604 139.707 44.801C139.707 44.3909 139.762 44.0295 139.873 43.717C139.987 43.4013 140.146 43.1376 140.351 42.926C140.556 42.7112 140.802 42.5484 141.089 42.4377C141.375 42.3271 141.694 42.2717 142.046 42.2717C142.332 42.2717 142.596 42.314 142.837 42.3987C143.081 42.4833 143.291 42.5989 143.467 42.7454C143.646 42.8918 143.786 43.0644 143.887 43.2629C143.987 43.4615 144.038 43.6747 144.038 43.9026C144.038 44.0914 144.01 44.2721 143.955 44.4446C143.903 44.6139 143.812 44.7636 143.681 44.8938C143.551 45.024 143.377 45.1282 143.159 45.2063C142.941 45.2812 142.669 45.3186 142.344 45.3186H140.732ZM142.002 43.1262C141.813 43.1262 141.644 43.1588 141.494 43.2239C141.347 43.289 141.22 43.3801 141.113 43.4973C141.009 43.6112 140.924 43.748 140.859 43.9075C140.794 44.067 140.748 44.2411 140.722 44.4299H142.178C142.308 44.4299 142.425 44.4267 142.529 44.4202C142.637 44.4137 142.726 44.3958 142.798 44.3665C142.873 44.3339 142.929 44.2867 142.969 44.2249C143.008 44.163 143.027 44.0784 143.027 43.9709C143.027 43.8212 142.995 43.6926 142.929 43.5852C142.868 43.4778 142.786 43.3899 142.685 43.3215C142.588 43.2532 142.479 43.2043 142.358 43.175C142.238 43.1425 142.119 43.1262 142.002 43.1262ZM144.678 47.3303C144.71 47.2196 144.748 47.1106 144.79 47.0032C144.832 46.8925 144.878 46.7786 144.927 46.6614C144.979 46.5442 145.037 46.4221 145.102 46.2952C145.167 46.165 145.242 46.0266 145.327 45.8801C145.412 45.7336 145.495 45.6051 145.576 45.4944C145.657 45.3805 145.737 45.2795 145.815 45.1917C145.893 45.1005 145.967 45.0191 146.035 44.9475C146.107 44.8759 146.175 44.8059 146.24 44.7375C146.077 44.552 145.916 44.3681 145.757 44.1858C145.6 44.0035 145.465 43.8114 145.351 43.6096C145.075 43.1213 144.889 42.7128 144.795 42.384L145.923 42.3694C145.968 42.5387 146.017 42.6917 146.069 42.8284C146.121 42.9618 146.188 43.1067 146.269 43.2629C146.364 43.4452 146.468 43.6064 146.582 43.7463C146.696 43.8863 146.806 44.0116 146.914 44.1223H146.958C147.016 44.0605 147.072 43.9986 147.124 43.9368C147.179 43.8749 147.233 43.8114 147.285 43.7463C147.337 43.678 147.389 43.6047 147.441 43.5266C147.493 43.4485 147.547 43.3606 147.602 43.2629C147.687 43.1132 147.757 42.9683 147.812 42.8284C147.868 42.6884 147.913 42.5354 147.949 42.3694L149.077 42.384C149.048 42.4915 149.017 42.5907 148.984 42.6819C148.952 42.773 148.914 42.8658 148.872 42.9602C148.83 43.0546 148.781 43.1539 148.725 43.2581C148.673 43.3622 148.608 43.4778 148.53 43.6047C148.449 43.7415 148.371 43.8603 148.296 43.9612C148.221 44.0621 148.146 44.1549 148.071 44.2395C147.999 44.3241 147.926 44.4055 147.851 44.4836C147.776 44.5618 147.7 44.6448 147.622 44.7327C147.677 44.788 147.744 44.858 147.822 44.9426C147.9 45.024 147.982 45.1152 148.066 45.2161C148.151 45.317 148.234 45.4228 148.315 45.5334C148.397 45.6441 148.468 45.7548 148.53 45.8655C148.641 46.064 148.73 46.2301 148.799 46.3635C148.867 46.497 148.922 46.6158 148.965 46.72C149.01 46.8241 149.049 46.9234 149.082 47.0178C149.114 47.109 149.152 47.2131 149.194 47.3303L148.056 47.345C148.037 47.2668 148.016 47.1903 147.993 47.1155C147.97 47.0406 147.941 46.9609 147.905 46.8762C147.873 46.7916 147.833 46.7021 147.788 46.6077C147.742 46.51 147.689 46.4026 147.627 46.2854C147.581 46.2008 147.529 46.1129 147.47 46.0217C147.415 45.9273 147.357 45.8378 147.295 45.7532C147.236 45.6653 147.178 45.5855 147.119 45.5139C147.06 45.439 147.007 45.3788 146.958 45.3333H146.919C146.876 45.3788 146.826 45.4358 146.767 45.5042C146.709 45.5725 146.647 45.649 146.582 45.7336C146.52 45.8183 146.458 45.9094 146.396 46.0071C146.334 46.1047 146.279 46.2024 146.23 46.3C146.165 46.427 146.11 46.5409 146.064 46.6418C146.019 46.7395 145.98 46.829 145.947 46.9104C145.918 46.9885 145.892 47.0634 145.869 47.135C145.849 47.2034 145.831 47.2734 145.815 47.345L144.678 47.3303ZM150.195 47.3303V42.384H151.23V44.3909H153.764V42.384H154.8V47.3303H153.764V45.2454H151.23V47.3303H150.195ZM159.399 47.3303L159.419 43.9368H159.365C159.264 44.0605 159.157 44.2118 159.043 44.3909C158.929 44.5699 158.812 44.762 158.691 44.967C158.574 45.1721 158.454 45.3853 158.33 45.6067C158.206 45.828 158.081 46.0445 157.954 46.2561C157.83 46.4644 157.706 46.6614 157.583 46.8469C157.462 47.0325 157.344 47.1936 157.226 47.3303H156.196V42.384H157.192L157.173 45.8459H157.212C157.309 45.7255 157.415 45.5741 157.529 45.3918C157.643 45.2063 157.76 45.0061 157.881 44.7913C158.004 44.5764 158.13 44.3534 158.257 44.1223C158.387 43.8879 158.514 43.6633 158.637 43.4485C158.761 43.2304 158.882 43.0286 158.999 42.843C159.116 42.6575 159.227 42.5045 159.331 42.384H160.381V47.3303H159.399ZM166.006 42.384C165.833 42.8267 165.622 43.2239 165.371 43.5754C165.123 43.927 164.847 44.2362 164.541 44.5032C164.638 44.7278 164.756 44.9605 164.892 45.2014C165.032 45.4423 165.182 45.6783 165.342 45.9094C165.504 46.1405 165.67 46.3603 165.84 46.5686C166.012 46.7769 166.181 46.9609 166.347 47.1204L165.615 47.6233C165.459 47.5126 165.289 47.358 165.107 47.1594C164.928 46.9576 164.752 46.7379 164.58 46.5002C164.411 46.2594 164.251 46.0152 164.101 45.7678C163.955 45.5172 163.838 45.2893 163.75 45.0842C163.48 45.2405 163.206 45.3674 162.929 45.4651V47.3303H161.894V42.384H162.929V44.4739C163.18 44.3697 163.405 44.246 163.603 44.1028C163.805 43.9596 163.986 43.7984 164.145 43.6194C164.308 43.4403 164.451 43.2483 164.575 43.0432C164.702 42.8349 164.817 42.6152 164.922 42.384H166.006ZM170.434 47.3303L170.454 43.9368H170.4C170.299 44.0605 170.192 44.2118 170.078 44.3909C169.964 44.5699 169.847 44.762 169.726 44.967C169.609 45.1721 169.489 45.3853 169.365 45.6067C169.241 45.828 169.116 46.0445 168.989 46.2561C168.865 46.4644 168.742 46.6614 168.618 46.8469C168.498 47.0325 168.379 47.1936 168.262 47.3303H167.231V42.384H168.227L168.208 45.8459H168.247C168.345 45.7255 168.45 45.5741 168.564 45.3918C168.678 45.2063 168.795 45.0061 168.916 44.7913C169.039 44.5764 169.165 44.3534 169.292 44.1223C169.422 43.8879 169.549 43.6633 169.673 43.4485C169.796 43.2304 169.917 43.0286 170.034 42.843C170.151 42.6575 170.262 42.5045 170.366 42.384H171.416V47.3303H170.434Z" fill="#000D33"/>
<path d="M0.993988 47.3303V42.384H2.02914V44.3909H4.56332V42.384H5.59848V47.3303H4.56332V45.2454H2.02914V47.3303H0.993988ZM6.75571 44.8108C6.75571 44.4202 6.80942 44.0686 6.91684 43.7561C7.02426 43.4436 7.17888 43.1783 7.38071 42.9602C7.58578 42.7389 7.83644 42.5696 8.13266 42.4524C8.42888 42.3319 8.7658 42.2717 9.1434 42.2717C9.44939 42.2717 9.74562 42.3189 10.0321 42.4133C10.3218 42.5045 10.5757 42.651 10.7938 42.8528C11.0151 43.0546 11.1926 43.3167 11.326 43.6389C11.4595 43.9612 11.5262 44.3534 11.5262 44.8157C11.5262 45.2356 11.4709 45.6083 11.3602 45.9338C11.2528 46.2561 11.0965 46.5279 10.8914 46.7493C10.6864 46.9674 10.4357 47.1334 10.1395 47.2473C9.84653 47.3612 9.5145 47.4182 9.1434 47.4182C8.77231 47.4182 8.43865 47.3629 8.14243 47.2522C7.84946 47.1415 7.60043 46.9771 7.39536 46.759C7.19028 46.5377 7.0324 46.2642 6.92172 45.9387C6.81105 45.6132 6.75571 45.2372 6.75571 44.8108ZM7.77133 44.8157C7.77133 45.1347 7.80388 45.4049 7.86899 45.6262C7.93735 45.8476 8.03175 46.0282 8.15219 46.1682C8.27589 46.3049 8.42075 46.4058 8.58676 46.4709C8.75603 46.5328 8.94321 46.5637 9.14828 46.5637C9.35336 46.5637 9.53891 46.5312 9.70493 46.4661C9.8742 46.401 10.0191 46.2984 10.1395 46.1584C10.2599 46.0152 10.3527 45.8329 10.4178 45.6116C10.4829 45.3902 10.5155 45.1249 10.5155 44.8157C10.5155 44.5227 10.4813 44.2704 10.4129 44.0588C10.3446 43.8472 10.2485 43.6731 10.1248 43.5364C10.0044 43.3964 9.86118 43.2939 9.69516 43.2288C9.52914 43.1604 9.34685 43.1262 9.14828 43.1262C8.94321 43.1262 8.75603 43.1604 8.58676 43.2288C8.41749 43.2971 8.27263 43.4013 8.15219 43.5413C8.03175 43.6812 7.93735 43.857 7.86899 44.0686C7.80388 44.2802 7.77133 44.5292 7.77133 44.8157ZM12.6834 47.3303V42.384H14.8709C15.1248 42.384 15.356 42.4101 15.5643 42.4622C15.7759 42.5142 15.9566 42.594 16.1063 42.7014C16.256 42.8056 16.3716 42.9374 16.453 43.0969C16.5376 43.2564 16.5799 43.4436 16.5799 43.6584C16.5799 43.9286 16.5099 44.1516 16.37 44.3274C16.23 44.5032 16.051 44.635 15.8329 44.7229V44.762C16.1128 44.8336 16.3358 44.9687 16.5018 45.1672C16.6678 45.3658 16.7508 45.6197 16.7508 45.929C16.7508 46.1633 16.7101 46.3684 16.6288 46.5442C16.5506 46.7167 16.4367 46.8616 16.287 46.9788C16.1405 47.0959 15.9598 47.1838 15.745 47.2424C15.5301 47.301 15.286 47.3303 15.0125 47.3303H12.6834ZM13.7186 46.5784H14.7831C14.9295 46.5784 15.0597 46.567 15.1737 46.5442C15.2909 46.5214 15.3901 46.4823 15.4715 46.427C15.5529 46.3684 15.6148 46.2935 15.6571 46.2024C15.7026 46.1112 15.7254 45.9973 15.7254 45.8606C15.7254 45.6034 15.6408 45.4179 15.4715 45.304C15.3023 45.19 15.0711 45.1331 14.7782 45.1331H13.7186V46.5784ZM13.7186 44.4202H14.6512C14.7944 44.4202 14.9247 44.4071 15.0418 44.3811C15.159 44.3518 15.2583 44.3095 15.3397 44.2542C15.4243 44.1956 15.4894 44.1239 15.535 44.0393C15.5806 43.9514 15.6034 43.8472 15.6034 43.7268C15.6034 43.5966 15.5789 43.4908 15.5301 43.4094C15.4813 43.328 15.4146 43.2662 15.3299 43.2239C15.2453 43.1783 15.1428 43.149 15.0223 43.136C14.9051 43.1197 14.7782 43.1116 14.6414 43.1116H13.7186V44.4202ZM18.8456 46.6077H19.6707C19.827 46.6077 19.9621 46.5946 20.076 46.5686C20.1932 46.5426 20.2892 46.5002 20.3641 46.4417C20.439 46.3798 20.4943 46.3 20.5301 46.2024C20.5659 46.1015 20.5838 45.9794 20.5838 45.8362C20.5838 45.5693 20.509 45.3674 20.3592 45.2307C20.2095 45.0907 19.9637 45.0208 19.6219 45.0208H18.8456V46.6077ZM18.8456 42.384V44.3225H19.8709C20.1118 44.3225 20.3364 44.3583 20.5448 44.4299C20.7531 44.4983 20.9338 44.5992 21.0868 44.7327C21.2398 44.8629 21.3602 45.024 21.4481 45.2161C21.536 45.4049 21.5799 45.6181 21.5799 45.8557C21.5799 46.1064 21.5392 46.3245 21.4579 46.51C21.3797 46.6923 21.2658 46.8453 21.1161 46.969C20.9696 47.0894 20.7905 47.1806 20.5789 47.2424C20.3706 47.301 20.1346 47.3303 19.8709 47.3303H17.8104V42.384H18.8456ZM22.4588 47.3303V42.384H23.494V47.3303H22.4588ZM25.6717 45.3186C25.701 45.5204 25.7531 45.6995 25.828 45.8557C25.9028 46.012 26.0038 46.1438 26.1307 46.2512C26.2577 46.3586 26.4123 46.4417 26.5946 46.5002C26.7801 46.5556 26.995 46.5833 27.2391 46.5833C27.4735 46.5833 27.6948 46.5458 27.9032 46.4709C28.1148 46.3961 28.3084 46.3114 28.4842 46.217L28.7967 46.9397C28.5298 47.0927 28.258 47.2115 27.9813 47.2961C27.7046 47.3775 27.3954 47.4182 27.0536 47.4182C26.2723 47.4182 25.675 47.1969 25.2616 46.7542C24.8514 46.3114 24.6463 45.6604 24.6463 44.801C24.6463 44.3909 24.7017 44.0295 24.8123 43.717C24.9263 43.4013 25.0858 43.1376 25.2909 42.926C25.4959 42.7112 25.7417 42.5484 26.0282 42.4377C26.3146 42.3271 26.6336 42.2717 26.9852 42.2717C27.2717 42.2717 27.5353 42.314 27.7762 42.3987C28.0204 42.4833 28.2303 42.5989 28.4061 42.7454C28.5851 42.8918 28.7251 43.0644 28.826 43.2629C28.9269 43.4615 28.9774 43.6747 28.9774 43.9026C28.9774 44.0914 28.9497 44.2721 28.8944 44.4446C28.8423 44.6139 28.7511 44.7636 28.6209 44.8938C28.4907 45.024 28.3166 45.1282 28.0985 45.2063C27.8804 45.2812 27.6086 45.3186 27.2831 45.3186H25.6717ZM26.9413 43.1262C26.7525 43.1262 26.5832 43.1588 26.4334 43.2239C26.287 43.289 26.16 43.3801 26.0526 43.4973C25.9484 43.6112 25.8638 43.748 25.7987 43.9075C25.7336 44.067 25.688 44.2411 25.662 44.4299H27.117C27.2472 44.4299 27.3644 44.4267 27.4686 44.4202C27.576 44.4137 27.6655 44.3958 27.7372 44.3665C27.812 44.3339 27.869 44.2867 27.9081 44.2249C27.9471 44.163 27.9666 44.0784 27.9666 43.9709C27.9666 43.8212 27.9341 43.6926 27.869 43.5852C27.8071 43.4778 27.7258 43.3899 27.6248 43.3215C27.5272 43.2532 27.4181 43.2043 27.2977 43.175C27.1773 43.1425 27.0584 43.1262 26.9413 43.1262ZM32.1024 42.6624C32.3368 42.5191 32.576 42.4182 32.8202 42.3596C33.0676 42.2978 33.3459 42.2668 33.6551 42.2668C33.9253 42.2668 34.1646 42.2978 34.3729 42.3596C34.5812 42.4182 34.7554 42.5045 34.8954 42.6184C35.0386 42.7323 35.146 42.8707 35.2176 43.0334C35.2892 43.1962 35.325 43.3785 35.325 43.5803C35.325 43.844 35.273 44.067 35.1688 44.2493C35.0679 44.4316 34.897 44.5846 34.6561 44.7083C34.7668 44.7506 34.8709 44.8059 34.9686 44.8743C35.0663 44.9426 35.1509 45.0273 35.2225 45.1282C35.2974 45.2291 35.356 45.3463 35.3983 45.4797C35.4406 45.6132 35.4618 45.7678 35.4618 45.9436C35.4618 46.217 35.4064 46.4465 35.2957 46.6321C35.1851 46.8176 35.0418 46.9674 34.8661 47.0813C34.6903 47.1952 34.4933 47.2782 34.2752 47.3303C34.0604 47.3857 33.8488 47.415 33.6405 47.4182C33.4875 47.4247 33.3345 47.4182 33.1815 47.3987C33.0317 47.3792 32.8869 47.3515 32.7469 47.3157C32.6102 47.2766 32.4784 47.2327 32.3514 47.1838C32.2277 47.1318 32.1138 47.0764 32.0096 47.0178L32.2928 46.2708C32.3905 46.3196 32.4816 46.3619 32.5663 46.3977C32.6509 46.4335 32.7372 46.4644 32.825 46.4905C32.9162 46.5133 33.0138 46.5312 33.118 46.5442C33.2254 46.5572 33.3491 46.5637 33.4891 46.5637C33.5998 46.5637 33.7121 46.5523 33.826 46.5295C33.9432 46.5068 34.0474 46.4693 34.1385 46.4172C34.2297 46.3652 34.3045 46.2952 34.3631 46.2073C34.4217 46.1194 34.451 46.0103 34.451 45.8801C34.451 45.8085 34.438 45.732 34.412 45.6506C34.3859 45.5693 34.3403 45.4944 34.2752 45.426C34.2134 45.3577 34.1288 45.3007 34.0213 45.2551C33.9139 45.2096 33.7788 45.1868 33.6161 45.1868H32.8934V44.4006L33.577 44.3958C33.6779 44.3958 33.7723 44.3876 33.8602 44.3713C33.9513 44.3551 34.0311 44.3225 34.0995 44.2737C34.1678 44.2249 34.2215 44.1581 34.2606 44.0735C34.2997 43.9856 34.3192 43.8717 34.3192 43.7317C34.3192 43.5364 34.2541 43.3866 34.1239 43.2825C33.9937 43.1783 33.7918 43.1262 33.5184 43.1262C33.4273 43.1262 33.3377 43.1311 33.2498 43.1409C33.162 43.1474 33.0724 43.162 32.9813 43.1848C32.8934 43.2043 32.799 43.2336 32.6981 43.2727C32.6004 43.3118 32.4963 43.3606 32.3856 43.4192L32.1024 42.6624ZM36.1844 44.8792C36.1844 44.4495 36.2463 44.0719 36.37 43.7463C36.4969 43.4208 36.6711 43.149 36.8924 42.9309C37.117 42.7128 37.384 42.5484 37.6932 42.4377C38.0025 42.3271 38.341 42.2717 38.7088 42.2717C38.8976 42.2717 39.0816 42.2847 39.2606 42.3108C39.4396 42.3368 39.6105 42.371 39.7733 42.4133C39.936 42.4556 40.089 42.5045 40.2323 42.5598C40.3755 42.6152 40.5073 42.6705 40.6278 42.7258V47.3303H39.7293L39.6024 46.8469C39.508 46.9185 39.4103 46.9885 39.3094 47.0569C39.2085 47.1252 39.0995 47.1871 38.9823 47.2424C38.8651 47.2945 38.7365 47.3368 38.5965 47.3694C38.4566 47.4019 38.2987 47.4182 38.1229 47.4182C37.8397 47.4182 37.5793 47.3661 37.3416 47.262C37.104 47.1545 36.8989 46.9967 36.7264 46.7883C36.5571 46.5767 36.4237 46.3131 36.326 45.9973C36.2316 45.6783 36.1844 45.3056 36.1844 44.8792ZM37.2 44.8499C37.2 45.1461 37.2293 45.4032 37.2879 45.6213C37.3498 45.8362 37.4344 46.0136 37.5418 46.1536C37.6525 46.2935 37.7827 46.3977 37.9325 46.4661C38.0855 46.5312 38.2515 46.5637 38.4305 46.5637C38.6616 46.5637 38.8814 46.523 39.0897 46.4417C39.298 46.3603 39.4673 46.2594 39.5975 46.1389V43.3069C39.5682 43.2939 39.5243 43.2776 39.4657 43.2581C39.4071 43.2385 39.3371 43.219 39.2557 43.1995C39.1743 43.1799 39.0848 43.1637 38.9872 43.1506C38.8895 43.1376 38.787 43.1311 38.6795 43.1311C38.4614 43.1311 38.2612 43.1685 38.0789 43.2434C37.8967 43.3183 37.7404 43.429 37.6102 43.5754C37.48 43.7187 37.3791 43.8977 37.3075 44.1125C37.2359 44.3241 37.2 44.5699 37.2 44.8499ZM46.6532 47.3303H45.618V43.2385H43.0838V47.3303H42.0487V42.384H46.6532V47.3303ZM50.9452 47.3303V45.4407C50.8735 45.4993 50.7922 45.5579 50.701 45.6165C50.6131 45.6718 50.5138 45.7222 50.4032 45.7678C50.2925 45.8134 50.172 45.8508 50.0418 45.8801C49.9116 45.9062 49.7717 45.9192 49.6219 45.9192C49.2997 45.9192 49.0246 45.8704 48.7967 45.7727C48.5689 45.675 48.3817 45.5383 48.2352 45.3625C48.092 45.1835 47.9878 44.9719 47.9227 44.7278C47.8576 44.4836 47.825 44.2151 47.825 43.9221V42.384H48.8602V43.8147C48.8602 44.0588 48.8846 44.2607 48.9334 44.4202C48.9823 44.5797 49.0506 44.7083 49.1385 44.8059C49.2264 44.9003 49.3322 44.967 49.4559 45.0061C49.5796 45.0452 49.7179 45.0647 49.8709 45.0647C50.0988 45.0647 50.3039 45.0273 50.4862 44.9524C50.6685 44.8775 50.8215 44.7766 50.9452 44.6497V42.384H51.9803V47.3303H50.9452ZM53.0692 44.8792C53.0692 44.4495 53.131 44.0719 53.2547 43.7463C53.3817 43.4208 53.5558 43.149 53.7772 42.9309C54.0018 42.7128 54.2687 42.5484 54.578 42.4377C54.8872 42.3271 55.2258 42.2717 55.5936 42.2717C55.7824 42.2717 55.9663 42.2847 56.1454 42.3108C56.3244 42.3368 56.4953 42.371 56.6581 42.4133C56.8208 42.4556 56.9738 42.5045 57.117 42.5598C57.2603 42.6152 57.3921 42.6705 57.5125 42.7258V47.3303H56.6141L56.4872 46.8469C56.3928 46.9185 56.2951 46.9885 56.1942 47.0569C56.0933 47.1252 55.9842 47.1871 55.867 47.2424C55.7498 47.2945 55.6213 47.3368 55.4813 47.3694C55.3413 47.4019 55.1834 47.4182 55.0077 47.4182C54.7245 47.4182 54.464 47.3661 54.2264 47.262C53.9888 47.1545 53.7837 46.9967 53.6112 46.7883C53.4419 46.5767 53.3084 46.3131 53.2108 45.9973C53.1164 45.6783 53.0692 45.3056 53.0692 44.8792ZM54.0848 44.8499C54.0848 45.1461 54.1141 45.4032 54.1727 45.6213C54.2345 45.8362 54.3192 46.0136 54.4266 46.1536C54.5373 46.2935 54.6675 46.3977 54.8172 46.4661C54.9702 46.5312 55.1362 46.5637 55.3153 46.5637C55.5464 46.5637 55.7661 46.523 55.9745 46.4417C56.1828 46.3603 56.3521 46.2594 56.4823 46.1389V43.3069C56.453 43.2939 56.409 43.2776 56.3504 43.2581C56.2918 43.2385 56.2219 43.219 56.1405 43.1995C56.0591 43.1799 55.9696 43.1637 55.8719 43.1506C55.7743 43.1376 55.6717 43.1311 55.5643 43.1311C55.3462 43.1311 55.146 43.1685 54.9637 43.2434C54.7814 43.3183 54.6252 43.429 54.495 43.5754C54.3648 43.7187 54.2638 43.8977 54.1922 44.1125C54.1206 44.3241 54.0848 44.5699 54.0848 44.8499ZM58.66 44.7961C58.66 44.3697 58.7153 43.9986 58.826 43.6829C58.9367 43.3671 59.0897 43.1051 59.285 42.8967C59.4836 42.6851 59.7196 42.5289 59.993 42.428C60.2664 42.3238 60.5659 42.2717 60.8914 42.2717C61.1584 42.2717 61.4269 42.3059 61.6971 42.3743C61.9706 42.4394 62.2456 42.5533 62.5223 42.7161L62.2147 43.4192C61.8436 43.2239 61.4611 43.1262 61.0672 43.1262C60.605 43.1262 60.2567 43.2727 60.0223 43.5657C59.7912 43.8586 59.6756 44.2834 59.6756 44.8401C59.6756 45.3967 59.7912 45.8232 60.0223 46.1194C60.2567 46.4156 60.6099 46.5637 61.0819 46.5637C61.2902 46.5637 61.4888 46.5361 61.6776 46.4807C61.8664 46.4254 62.0454 46.357 62.2147 46.2756L62.5223 46.9739C62.2684 47.1204 62.0064 47.231 61.7362 47.3059C61.4692 47.3808 61.1844 47.4182 60.8817 47.4182C60.4813 47.4182 60.1411 47.3531 59.8612 47.2229C59.5812 47.0894 59.3517 46.9071 59.1727 46.676C58.9937 46.4417 58.8635 46.165 58.7821 45.8459C58.7007 45.5237 58.66 45.1737 58.66 44.7961ZM62.9422 43.2434V42.384H67.4198V43.2434H65.701V47.3303H64.661V43.2434H62.9422ZM71.3602 47.3303L71.3797 43.9368H71.326C71.2251 44.0605 71.1177 44.2118 71.0038 44.3909C70.8898 44.5699 70.7726 44.762 70.6522 44.967C70.535 45.1721 70.4146 45.3853 70.2909 45.6067C70.1672 45.828 70.0418 46.0445 69.9149 46.2561C69.7912 46.4644 69.6675 46.6614 69.5438 46.8469C69.4234 47.0325 69.3045 47.1936 69.1873 47.3303H68.1571V42.384H69.1532L69.1336 45.8459H69.1727C69.2704 45.7255 69.3761 45.5741 69.4901 45.3918C69.604 45.2063 69.7212 45.0061 69.8416 44.7913C69.9653 44.5764 70.0907 44.3534 70.2176 44.1223C70.3478 43.8879 70.4748 43.6633 70.5985 43.4485C70.7222 43.2304 70.8426 43.0286 70.9598 42.843C71.077 42.6575 71.1877 42.5045 71.2918 42.384H72.3416V47.3303H71.3602ZM76.0721 46.4758C76.1991 46.3847 76.3097 46.2642 76.4041 46.1145C76.4985 45.9615 76.5767 45.7922 76.6385 45.6067C76.7036 45.4211 76.7557 45.2242 76.7948 45.0159C76.8338 44.8075 76.8648 44.5992 76.8875 44.3909C76.9103 44.1793 76.925 43.9742 76.9315 43.7756C76.938 43.5771 76.9413 43.3964 76.9413 43.2336V42.384H80.7157V46.4758H81.2186V48.3069H80.1834V47.3303H76.8241V48.3069H75.7889V46.4758H76.0721ZM77.9471 43.6438C77.9471 43.8326 77.9341 44.0491 77.9081 44.2932C77.882 44.5374 77.8397 44.788 77.7811 45.0452C77.7225 45.3023 77.6444 45.5562 77.5467 45.8069C77.4523 46.0543 77.3351 46.2773 77.1952 46.4758H79.6805V43.2434H77.9471V43.6438ZM85.8622 43.2434H83.9334V43.5608C83.9334 43.6845 83.9286 43.8342 83.9188 44.01C83.9123 44.1858 83.8993 44.3762 83.8797 44.5813C83.8602 44.7831 83.8325 44.9947 83.7967 45.2161C83.7609 45.4342 83.7153 45.649 83.66 45.8606C83.6079 46.0689 83.5428 46.2675 83.4647 46.4563C83.3898 46.6451 83.3003 46.8111 83.1961 46.9543C83.092 47.0976 82.9732 47.2115 82.8397 47.2961C82.7095 47.3775 82.5614 47.4182 82.3954 47.4182C82.3172 47.4182 82.2359 47.4133 82.1512 47.4036C82.0698 47.3971 81.9933 47.3873 81.9217 47.3743C81.8534 47.3645 81.7948 47.3547 81.7459 47.345C81.6971 47.3352 81.6662 47.3271 81.6532 47.3206L81.6922 46.5198C81.7215 46.5198 81.7508 46.5247 81.7801 46.5344C81.8094 46.5409 81.842 46.5491 81.8778 46.5588C81.9136 46.5653 81.9526 46.5719 81.995 46.5784C82.0373 46.5849 82.0845 46.5865 82.1366 46.5833C82.2342 46.5767 82.3189 46.5312 82.3905 46.4465C82.4653 46.3586 82.5288 46.2447 82.5809 46.1047C82.6362 45.9648 82.6818 45.8053 82.7176 45.6262C82.7567 45.4439 82.7876 45.2551 82.8104 45.0598C82.8332 44.8612 82.8511 44.6643 82.8641 44.469C82.8771 44.2704 82.8869 44.0849 82.8934 43.9124C82.8999 43.7398 82.9032 43.5868 82.9032 43.4534C82.9064 43.3167 82.9081 43.2125 82.9081 43.1409V42.384H86.8973V47.3303H85.8622V43.2434ZM87.9276 47.0569C88.2173 46.7965 88.4696 46.5328 88.6844 46.2659C88.8993 45.9989 89.0897 45.7271 89.2557 45.4504C89.1222 45.4146 88.9937 45.3528 88.87 45.2649C88.7495 45.177 88.6405 45.0696 88.5428 44.9426C88.4484 44.8124 88.3719 44.6676 88.3133 44.5081C88.258 44.3453 88.2303 44.1711 88.2303 43.9856C88.2303 43.7056 88.2824 43.4648 88.3866 43.2629C88.494 43.0611 88.634 42.8951 88.8065 42.7649C88.9823 42.6347 89.1825 42.5387 89.4071 42.4768C89.6317 42.415 89.8612 42.384 90.0956 42.384H91.8778V47.3254H90.8719V45.6799H90.2518C90.2355 45.6799 90.2176 45.6799 90.1981 45.6799C90.1786 45.6767 90.159 45.6734 90.1395 45.6702C90.0614 45.8264 89.9686 45.9908 89.8612 46.1633C89.757 46.3326 89.6431 46.5019 89.5194 46.6711C89.3957 46.8372 89.2655 46.9999 89.1288 47.1594C88.992 47.3157 88.8537 47.4589 88.7137 47.5891L87.9276 47.0569ZM90.8719 43.1897H90.037C89.9198 43.1897 89.8075 43.206 89.7 43.2385C89.5959 43.2678 89.5047 43.315 89.4266 43.3801C89.3485 43.4452 89.285 43.5282 89.2362 43.6292C89.1906 43.7301 89.1678 43.8489 89.1678 43.9856C89.1678 44.0995 89.1857 44.2086 89.2215 44.3127C89.2606 44.4169 89.3159 44.5097 89.3875 44.5911C89.4592 44.6692 89.5438 44.7327 89.6414 44.7815C89.7391 44.8271 89.8498 44.8499 89.9735 44.8499H90.8719V43.1897Z" fill="#000D33"/>
</g>
<path fill-rule="evenodd" clip-rule="evenodd" d="M6.83035 37.8494C9.21141 39.0313 11.8445 39.6222 14.7296 39.6222C19.0224 39.6222 22.4811 38.4664 25.1054 36.1549C27.7472 33.826 29.0681 30.7671 29.0681 26.9782C29.0681 23.7108 28.1035 21.0256 26.1743 18.9226C24.2625 16.8196 21.4296 15.3423 17.6755 14.4907C14.8947 13.8824 13.5043 13.1437 13.5043 12.2747C13.5043 11.8924 13.6694 11.5795 13.9996 11.3362C14.3298 11.0929 14.7556 10.9712 15.277 10.9712C16.0765 10.9712 16.9455 11.1537 17.884 11.5187C18.6661 11.7794 19.4569 11.9358 20.2564 11.988C21.0733 12.0401 21.9075 11.8229 22.7591 11.3362C23.6108 10.8496 24.3233 10.1022 24.8969 9.09419L27.0868 5.26189C25.7311 3.80197 23.9584 2.69834 21.7685 1.951C19.5786 1.20366 17.4148 0.829991 15.277 0.829991C11.4534 0.829991 8.37717 1.88148 6.04825 3.98446C3.71932 6.08744 2.55486 8.85956 2.55486 12.3008C2.55486 15.099 3.54552 17.4974 5.52685 19.4961C7.52555 21.4775 10.5931 23.1286 14.7296 24.4494C16.989 25.162 18.1187 26.0136 18.1187 27.0043C18.1187 27.9081 17.8319 28.5424 17.2584 28.9074C16.6848 29.255 15.8419 29.4288 14.7296 29.4288C14.5384 29.4288 14.3385 29.4114 14.13 29.3767C13.9214 29.3419 13.7302 29.3071 13.5564 29.2724C13.3826 29.2202 13.1741 29.142 12.9307 29.0378C12.6874 28.9335 12.4962 28.8466 12.3572 28.7771L11.7315 28.4642C11.4534 28.3078 11.2536 28.1948 11.1319 28.1253C11.0276 28.0558 10.8191 27.9341 10.5062 27.7603C10.2108 27.5691 10.0196 27.4475 9.93268 27.3953C8.45538 26.509 7.00415 26.1874 5.57899 26.4308C4.1712 26.6741 3.07626 27.4909 2.29416 28.8813L0 33.0786C2.1725 35.0773 4.44928 36.6676 6.83035 37.8494ZM57.7557 14.6992C56.1394 12.4225 53.8799 11.2841 50.9775 11.2841C48.3183 11.2841 45.9286 12.2834 43.8082 14.2821V0.0739594H33.7713V39.1008H43.8082V22.781C44.9205 21.5296 46.1632 20.9039 47.5362 20.9039C48.3357 20.9039 48.9701 21.1559 49.4394 21.6599C49.926 22.1466 50.1693 23.033 50.1693 24.3191V39.1008H60.2063V23.6934C60.2063 19.9567 59.3894 16.9586 57.7557 14.6992ZM64.4838 27.3735C64.8448 30.6303 66.1576 33.3836 68.422 35.6335C71.1333 38.2926 74.5658 39.6222 78.7197 39.6222C82.8735 39.6222 86.2973 38.2926 88.9912 35.6335C91.7025 32.9743 93.0582 29.5939 93.0582 25.4922C93.0582 21.3906 91.7025 18.0101 88.9912 15.351C86.7469 13.1211 83.9958 11.8201 80.7382 11.448V11.7315C80.7382 14.3115 78.6456 16.0919 76.5991 16.7109C73.481 17.6542 71.0188 20.1164 70.0756 23.2345C69.4565 25.281 67.6762 27.3735 65.0961 27.3735H64.4838ZM74.4181 25.4662C74.4181 24.1974 74.8178 23.1546 75.6173 22.3378C76.4342 21.5209 77.4596 21.1125 78.6936 21.1125C79.9449 21.1125 80.979 21.5296 81.7959 22.3638C82.6128 23.1807 83.0212 24.2235 83.0212 25.4922C83.0212 26.761 82.6128 27.8038 81.7959 28.6206C80.979 29.4375 79.9449 29.8459 78.6936 29.8459C77.4596 29.8459 76.4342 29.4375 75.6173 28.6206C74.8178 27.7864 74.4181 26.7349 74.4181 25.4662ZM122.236 15.2728C120.255 12.631 117.648 11.3101 114.415 11.3101C111.687 11.3101 109.34 12.492 107.376 14.8557C106.959 12.8048 105.63 11.7794 103.388 11.7794H97.4697V48.5121H107.507V37.1977C109.262 38.7966 111.278 39.5961 113.555 39.5961C116.979 39.5961 119.777 38.2579 121.949 35.5813C124.122 32.9048 125.208 29.507 125.208 25.388C125.208 21.2689 124.218 17.8972 122.236 15.2728ZM114.076 28.7249C113.346 29.5765 112.425 30.0023 111.313 30.0023C110.044 30.0023 108.775 29.5505 107.507 28.6467V23.537C108.741 22.0771 110.114 21.3471 111.626 21.3471C112.669 21.3471 113.52 21.7208 114.181 22.4681C114.841 23.2155 115.171 24.2148 115.171 25.4662C115.171 26.787 114.806 27.8733 114.076 28.7249ZM151.001 12.4051C149.333 11.6577 147.525 11.2841 145.579 11.2841C143.198 11.2841 141.121 12.24 139.348 14.1518C138.757 12.5702 137.427 11.7794 135.359 11.7794H129.65V39.1008H139.687V22.807C140.069 22.0771 140.512 21.5383 141.016 21.1907C141.52 20.8257 142.181 20.6432 142.998 20.6432C143.571 20.6432 144.388 20.704 145.448 20.8257C146.526 20.9474 147.525 20.5998 148.446 19.7829C149.368 18.966 149.95 17.8972 150.193 16.5763L151.001 12.4051ZM175.08 14.4125C173.134 12.3616 170.301 11.3362 166.581 11.3362C164.148 11.3362 161.637 11.6577 159.047 12.3008C156.475 12.9439 154.537 13.8302 153.233 14.9599L154.667 18.323C155.137 19.4005 155.884 20.1566 156.909 20.5911C157.935 21.0082 159.082 21.0516 160.351 20.7214C161.95 20.2869 163.41 20.0697 164.73 20.0697C165.738 20.0697 166.521 20.313 167.077 20.7996C167.65 21.2689 167.937 21.9815 167.937 22.9374V23.172C166.79 23.033 164.774 22.9634 161.889 22.9634C158.656 22.9634 156.084 23.6934 154.172 25.1533C152.278 26.5959 151.33 28.6119 151.33 31.2016C151.33 33.5479 152.147 35.5379 153.781 37.1716C155.432 38.8053 157.509 39.6222 160.012 39.6222C161.68 39.6222 163.227 39.2659 164.652 38.5533C166.077 37.8407 167.233 36.9457 168.119 35.8681C168.38 36.7892 168.832 37.5627 169.475 38.1883C170.118 38.7966 170.831 39.1008 171.613 39.1008H178V23.3806C178 19.4353 177.027 16.4459 175.08 14.4125ZM167.937 30.4977C166.755 31.4536 165.121 31.9315 163.036 31.9315C162.445 31.9315 161.941 31.7925 161.524 31.5144C161.107 31.2363 160.898 30.8453 160.898 30.3413C160.898 29.6982 161.141 29.2029 161.628 28.8553C162.115 28.5077 162.758 28.3339 163.557 28.3339C164.861 28.3339 166.321 28.3947 167.937 28.5164V30.4977Z" fill="url(#paint0_linear)"/>
<path fill-rule="evenodd" clip-rule="evenodd" d="M79.4346 11.7315C79.4346 13.5313 77.9444 14.9422 76.2217 15.4633C72.6862 16.5328 69.8974 19.3216 68.8279 22.8571C68.3068 24.5797 66.8959 26.07 65.0961 26.07H61.8374C61.8374 16.3513 69.7159 8.47276 79.4346 8.47276V11.7315Z" fill="url(#paint1_linear)"/>
<defs>
<linearGradient id="paint0_linear" x1="0" y1="0.0843933" x2="6.43602e-07" y2="48.5225" gradientUnits="userSpaceOnUse">
<stop stop-color="#2944CC"/>
<stop offset="1" stop-color="#3355FF"/>
</linearGradient>
<linearGradient id="paint1_linear" x1="70.636" y1="8.47276" x2="70.636" y2="26.07" gradientUnits="userSpaceOnUse">
<stop stop-color="#E62E2E"/>
<stop offset="1" stop-color="#FF3333"/>
</linearGradient>
</defs>
</svg>
