<svg width="407" height="100" viewBox="0 0 407 100" fill="none" xmlns="http://www.w3.org/2000/svg">
<path d="M106.892 35.6084H147.905V43.2435H131.757V86.2841H122.905V43.2435H106.824L106.892 35.6084ZM146.149 49.5949H153.716V56.6895H153.851C154.122 55.676 154.595 54.73 155.27 53.7841C155.946 52.8381 156.757 51.9597 157.77 51.2165C158.716 50.4057 159.797 49.7976 161.013 49.3246C162.162 48.8516 163.378 48.5814 164.595 48.5814C165.541 48.5814 166.216 48.6489 166.554 48.6489C166.892 48.7165 167.297 48.7841 167.635 48.7841V56.5543C167.095 56.4192 166.486 56.3516 165.878 56.2841C165.27 56.2165 164.73 56.1489 164.122 56.1489C162.77 56.1489 161.486 56.4192 160.27 56.9597C159.054 57.5003 158.04 58.3111 157.095 59.3246C156.216 60.4057 155.473 61.6895 154.932 63.2435C154.392 64.7976 154.122 66.6219 154.122 68.6489V86.0814H146.013L146.149 49.5949ZM204.797 86.2841H196.824V81.1489H196.689C195.676 83.0408 194.189 84.4597 192.23 85.6084C190.27 86.757 188.243 87.2976 186.216 87.2976C181.419 87.2976 177.905 86.1489 175.743 83.7165C173.581 81.3516 172.5 77.703 172.5 72.9057V49.5949H180.608V72.0949C180.608 75.3381 181.216 77.6354 182.5 78.9192C183.716 80.2705 185.473 80.9462 187.703 80.9462C189.392 80.9462 190.811 80.676 191.959 80.1354C193.108 79.5949 194.054 78.9192 194.73 78.0408C195.473 77.1624 195.946 76.0813 196.284 74.8651C196.622 73.6489 196.757 72.2976 196.757 70.8787V49.5949H204.865V86.2841H204.797ZM218.581 74.5273C218.851 76.8922 219.73 78.5138 221.284 79.5273C222.838 80.4733 224.73 80.9462 226.892 80.9462C227.635 80.9462 228.513 80.8787 229.459 80.7435C230.405 80.6084 231.351 80.4057 232.162 80.0678C233.041 79.73 233.716 79.257 234.257 78.5813C234.797 77.9057 235.068 77.0949 235 76.0814C234.932 75.0678 234.595 74.1895 233.851 73.5138C233.108 72.8381 232.23 72.3651 231.149 71.8922C230.068 71.4868 228.784 71.1489 227.365 70.8787C225.946 70.6084 224.527 70.2705 223.041 69.9327C221.554 69.5949 220.068 69.1895 218.649 68.7165C217.23 68.2435 216.013 67.6354 214.865 66.757C213.784 65.9462 212.838 64.9327 212.23 63.6489C211.554 62.3652 211.216 60.8786 211.216 58.9868C211.216 56.9597 211.689 55.3381 212.703 53.9868C213.649 52.6354 214.932 51.5543 216.419 50.7435C217.905 49.9327 219.595 49.3246 221.419 48.9868C223.243 48.6489 225 48.5138 226.622 48.5138C228.513 48.5138 230.338 48.7165 232.027 49.1219C233.716 49.5273 235.338 50.1354 236.689 51.0814C238.108 51.9597 239.257 53.1759 240.135 54.5949C241.081 56.0138 241.622 57.7705 241.892 59.7976H233.446C233.041 57.8381 232.162 56.5543 230.811 55.8787C229.392 55.203 227.838 54.8652 226.013 54.8652C225.473 54.8652 224.73 54.9327 223.986 55.0003C223.176 55.1354 222.5 55.2706 221.757 55.5408C221.081 55.8111 220.473 56.2165 220 56.6895C219.527 57.1624 219.257 57.8381 219.257 58.6489C219.257 59.6624 219.595 60.4057 220.27 61.0138C220.946 61.6219 221.824 62.0949 222.973 62.5678C224.054 62.9733 225.338 63.3111 226.757 63.5814C228.176 63.8516 229.662 64.1895 231.149 64.5273C232.635 64.8651 234.054 65.2705 235.473 65.7435C236.892 66.2165 238.176 66.8246 239.257 67.703C240.338 68.5138 241.284 69.5273 241.959 70.7435C242.635 71.9597 242.973 73.5138 242.973 75.2705C242.973 77.4327 242.5 79.257 241.486 80.8111C240.473 82.2976 239.189 83.5814 237.635 84.5273C236.081 85.4733 234.257 86.1489 232.365 86.6219C230.405 87.0273 228.513 87.2976 226.622 87.2976C224.324 87.2976 222.162 87.0273 220.203 86.4868C218.243 85.9462 216.486 85.1354 215.068 84.1219C213.649 83.0408 212.5 81.757 211.689 80.1354C210.878 78.5814 210.405 76.6895 210.338 74.4597H218.513V74.5273H218.581ZM245.27 49.5949H251.419V38.5138H259.527V49.5273H266.824V55.5408H259.527V75.1354C259.527 76.0138 259.595 76.6895 259.662 77.3651C259.73 77.9732 259.932 78.5138 260.135 78.9192C260.405 79.3246 260.811 79.6624 261.284 79.8651C261.824 80.0679 262.5 80.203 263.446 80.203C263.986 80.203 264.595 80.203 265.135 80.1354C265.676 80.0678 266.284 80.0003 266.824 79.8651V86.1489C265.946 86.2841 265.068 86.3516 264.189 86.4192C263.311 86.5543 262.5 86.5543 261.554 86.5543C259.392 86.5543 257.703 86.3516 256.419 85.9462C255.135 85.5408 254.122 84.9327 253.378 84.1895C252.635 83.3787 252.162 82.4327 251.892 81.2841C251.622 80.1354 251.486 78.7165 251.419 77.23V55.6084H245.27V49.4597V49.5949ZM272.5 49.5949H280.135V54.5949H280.27C281.419 52.4327 282.973 50.9462 285 50.0003C287.027 49.0543 289.189 48.5814 291.622 48.5814C294.527 48.5814 297.027 49.0543 299.189 50.1354C301.351 51.1489 303.108 52.5003 304.527 54.3246C305.946 56.0814 307.027 58.176 307.703 60.5408C308.378 62.9057 308.784 65.4732 308.784 68.1084C308.784 70.6084 308.446 72.9732 307.838 75.2705C307.162 77.5678 306.216 79.6624 304.932 81.4192C303.649 83.176 302.027 84.5949 300 85.6759C297.973 86.757 295.676 87.2976 292.973 87.2976C291.824 87.2976 290.608 87.1624 289.459 86.9597C288.311 86.757 287.162 86.4192 286.081 85.9462C285 85.4733 283.986 84.8651 283.108 84.1219C282.162 83.3787 281.419 82.5003 280.811 81.5543H280.676V99.8651H272.568V49.5949H272.5ZM300.811 67.9733C300.811 66.3516 300.608 64.73 300.135 63.176C299.73 61.6219 299.054 60.2705 298.176 59.0543C297.297 57.8381 296.216 56.8922 295 56.1489C293.716 55.4057 292.23 55.0678 290.608 55.0678C287.23 55.0678 284.662 56.2165 282.905 58.5814C281.216 60.9462 280.338 64.1219 280.338 68.0408C280.338 69.9327 280.541 71.6219 281.013 73.1759C281.486 74.73 282.095 76.0813 283.041 77.23C283.919 78.3786 285 79.257 286.284 79.9327C287.568 80.6084 288.986 80.9462 290.676 80.9462C292.568 80.9462 294.054 80.5408 295.338 79.7976C296.622 79.0543 297.635 78.0408 298.513 76.8922C299.324 75.6759 299.932 74.3246 300.27 72.7706C300.608 71.1489 300.811 69.5949 300.811 67.9733ZM315.068 35.6084H323.176V43.2435H315.068V35.6084ZM315.068 49.5949H323.176V86.2841H315.068V49.5949ZM330.405 35.6084H338.513V86.2841H330.405V35.6084ZM363.243 87.2976C360.338 87.2976 357.703 86.8246 355.405 85.8111C353.108 84.7976 351.216 83.5138 349.595 81.8246C348.041 80.1354 346.824 78.0408 346.013 75.676C345.203 73.3111 344.73 70.676 344.73 67.9057C344.73 65.1354 345.135 62.5678 346.013 60.203C346.824 57.8381 348.041 55.8111 349.595 54.0543C351.149 52.3651 353.108 51.0138 355.405 50.0679C357.703 49.1219 360.338 48.5814 363.243 48.5814C366.149 48.5814 368.784 49.0543 371.081 50.0679C373.378 51.0138 375.27 52.3651 376.892 54.0543C378.446 55.7435 379.662 57.8381 380.473 60.203C381.284 62.5678 381.757 65.1354 381.757 67.9057C381.757 70.7435 381.351 73.3111 380.473 75.676C379.595 78.0408 378.446 80.0678 376.892 81.8246C375.338 83.5138 373.378 84.8651 371.081 85.8111C368.784 86.757 366.216 87.2976 363.243 87.2976ZM363.243 80.8787C365 80.8787 366.622 80.4732 367.905 79.73C369.257 78.9868 370.27 77.9733 371.149 76.757C372.027 75.5408 372.635 74.1219 373.041 72.6354C373.446 71.0814 373.649 69.5273 373.649 67.9057C373.649 66.3516 373.446 64.7976 373.041 63.2435C372.635 61.6895 372.027 60.3381 371.149 59.1219C370.27 57.9057 369.189 56.9597 367.905 56.2165C366.554 55.4733 365 55.0678 363.243 55.0678C361.486 55.0678 359.865 55.4733 358.581 56.2165C357.23 56.9597 356.216 57.9733 355.338 59.1219C354.459 60.3381 353.851 61.6895 353.446 63.2435C353.041 64.7976 352.838 66.3516 352.838 67.9057C352.838 69.5273 353.041 71.0814 353.446 72.6354C353.851 74.1895 354.459 75.5408 355.338 76.757C356.216 77.9733 357.297 78.9868 358.581 79.73C359.932 80.5408 361.486 80.8787 363.243 80.8787ZM384.189 49.5949H390.338V38.5138H398.446V49.5273H405.743V55.5408H398.446V75.1354C398.446 76.0138 398.514 76.6895 398.581 77.3651C398.649 77.9732 398.851 78.5138 399.054 78.9192C399.324 79.3246 399.73 79.6624 400.203 79.8651C400.743 80.0679 401.419 80.203 402.365 80.203C402.905 80.203 403.513 80.203 404.054 80.1354C404.595 80.0678 405.203 80.0003 405.743 79.8651V86.1489C404.865 86.2841 403.986 86.3516 403.108 86.4192C402.23 86.5543 401.419 86.5543 400.473 86.5543C398.311 86.5543 396.622 86.3516 395.338 85.9462C394.054 85.5408 393.041 84.9327 392.297 84.1895C391.554 83.3787 391.081 82.4327 390.811 81.2841C390.541 80.1354 390.405 78.7165 390.338 77.23V55.6084H384.189V49.4597V49.5949Z" fill="black"/>
<path d="M97.4324 35.6082H60.3378L48.9189 0.337891L37.4324 35.6082L0.33783 35.5406L30.3378 57.3649L18.8513 92.6352L48.8513 70.8109L78.8513 92.6352L67.4324 57.3649L97.4324 35.6082Z" fill="#00B67A"/>
<path d="M70 65.3382L67.4325 57.3652L48.9189 70.8112L70 65.3382Z" fill="#005128"/>
</svg>
