<svg width="31" height="30" viewBox="0 0 31 30" fill="none" xmlns="http://www.w3.org/2000/svg">
<g clip-path="url(#clip0)">
<path d="M24.9067 20.7288H11.9213C10.8894 20.7273 9.98572 20.036 9.7138 19.0408L5.74185 4.48952C5.64945 4.14657 5.33322 3.91207 4.97802 3.92427H0.822668C0.401026 3.92427 0.0588379 3.58207 0.0588379 3.16044C0.0588379 2.7388 0.401026 2.39661 0.822668 2.39661H5.00087C6.03282 2.39813 6.93646 3.08942 7.20838 4.08469L7.97224 6.97969H27.771C29.0367 6.98197 30.0611 8.00935 30.0588 9.27505C30.0588 9.50419 30.0236 9.73183 29.9556 9.95101L27.0912 19.1172C26.7942 20.0742 25.9089 20.7265 24.9067 20.7288ZM8.4229 8.50735L11.188 18.636C11.2804 18.9789 11.5967 19.2134 11.9519 19.2012H24.9372C25.284 19.2172 25.5972 18.9972 25.701 18.6665L28.5654 9.50041C28.6923 9.09787 28.4692 8.66935 28.0667 8.54174C27.9811 8.51504 27.891 8.50279 27.8016 8.50735H8.4229Z" fill="url(#paint0_linear)"/>
<path d="M13.426 27.6034C11.9496 27.6034 10.7526 26.4064 10.7526 24.9299C10.7526 23.4534 11.9496 22.2565 13.426 22.2565C14.9026 22.2565 16.0995 23.4534 16.0995 24.9299C16.0995 26.4064 14.9026 27.6034 13.426 27.6034ZM13.426 23.7841C12.7936 23.7841 12.2803 24.2974 12.2803 24.9299C12.2803 25.5624 12.7936 26.0757 13.426 26.0757C14.0585 26.0757 14.5718 25.5624 14.5718 24.9299C14.5718 24.2967 14.0585 23.7841 13.426 23.7841Z" fill="url(#paint1_linear)"/>
<path d="M22.5922 27.6034C21.1156 27.6034 19.9187 26.4064 19.9187 24.9299C19.9187 23.4534 21.1156 22.2565 22.5922 22.2565C24.0687 22.2565 25.2656 23.4534 25.2656 24.9299C25.2656 26.4064 24.0687 27.6034 22.5922 27.6034ZM22.5922 23.7841C21.9597 23.7841 21.4464 24.2974 21.4464 24.9299C21.4464 25.5624 21.9597 26.0757 22.5922 26.0757C23.2246 26.0757 23.7379 25.5624 23.7379 24.9299C23.7379 24.2967 23.2246 23.7841 22.5922 23.7841Z" fill="url(#paint2_linear)"/>
</g>
<defs>
<linearGradient id="paint0_linear" x1="0.0588379" y1="2.40056" x2="0.0588384" y2="20.7328" gradientUnits="userSpaceOnUse">
<stop stop-color="#2944CC"/>
<stop offset="1" stop-color="#3355FF"/>
</linearGradient>
<linearGradient id="paint1_linear" x1="10.7526" y1="22.2576" x2="10.7526" y2="27.6046" gradientUnits="userSpaceOnUse">
<stop stop-color="#2944CC"/>
<stop offset="1" stop-color="#3355FF"/>
</linearGradient>
<linearGradient id="paint2_linear" x1="19.9187" y1="22.2576" x2="19.9187" y2="27.6046" gradientUnits="userSpaceOnUse">
<stop stop-color="#2944CC"/>
<stop offset="1" stop-color="#3355FF"/>
</linearGradient>
<clipPath id="clip0">
<rect width="30" height="30" fill="white" transform="translate(0.0588379)"/>
</clipPath>
</defs>
</svg>
