<svg width="31" height="30" viewBox="0 0 31 30" fill="none" xmlns="http://www.w3.org/2000/svg">
<g clip-path="url(#clip0)">
<path d="M27.3837 4.86736C28.5646 5.01909 29.4069 6.08816 29.2781 7.27187L27.6022 22.0996C27.4734 23.2796 26.4122 24.1318 25.2321 24.0028C25.2084 24.0003 25.1849 23.9973 25.1613 23.9939H25.052V10.405C25.052 9.19776 24.0733 8.21901 22.8661 8.21901H4.65039L5.08754 4.57588C5.19926 3.39405 6.24788 2.52651 7.42971 2.63823C7.45049 2.64018 7.47127 2.64248 7.49205 2.64506L27.3837 4.86736Z" fill="#FBFBFB"/>
<path d="M25.0519 23.9938V25.3053C25.0519 26.5125 24.0732 27.4912 22.866 27.4912H2.8651C1.65789 27.4912 0.679199 26.5125 0.679199 25.3053V22.2451L6.6904 17.8733C7.64351 17.1502 8.97716 17.2115 9.85991 18.0191L13.8674 21.5165C14.7074 22.2288 15.9062 22.3312 16.8548 21.7715L25.0519 16.9625V23.9938Z" fill="url(#paint0_linear)"/>
<path d="M25.0519 10.4049V16.9626L16.8548 21.7716C15.9062 22.3312 14.7074 22.2288 13.8674 21.5165L9.85991 18.0191C8.97716 17.2116 7.64351 17.1502 6.6904 17.8734L0.679199 22.2452V10.4049C0.679199 9.19767 1.65789 8.21899 2.8651 8.21899H22.866C24.0732 8.21899 25.0519 9.19759 25.0519 10.4049ZM17.5834 14.1938C17.5839 12.906 16.5405 11.8617 15.2528 11.8612C13.9651 11.8606 12.9207 12.9041 12.9202 14.1918C12.9202 14.1925 12.9202 14.1931 12.9202 14.1938C12.9196 15.4815 13.9631 16.5258 15.2508 16.5264C16.5385 16.527 17.5829 15.4835 17.5834 14.1958C17.5834 14.1951 17.5834 14.1945 17.5834 14.1938Z" fill="#FBFBFB"/>
<path d="M15.2518 16.5253C16.5395 16.5253 17.5834 15.4814 17.5834 14.1937C17.5834 12.906 16.5395 11.8621 15.2518 11.8621C13.964 11.8621 12.9201 12.906 12.9201 14.1937C12.9201 15.4814 13.964 16.5253 15.2518 16.5253Z" fill="url(#paint1_linear)"/>
<path d="M15.2517 17.2539C13.5616 17.2539 12.1915 15.8838 12.1915 14.1936C12.1915 12.5036 13.5616 11.1334 15.2517 11.1334C16.9419 11.1334 18.312 12.5035 18.312 14.1936C18.312 15.8838 16.9419 17.2539 15.2517 17.2539ZM15.2517 12.5907C14.3664 12.5907 13.6487 13.3084 13.6487 14.1937C13.6487 15.0791 14.3664 15.7968 15.2517 15.7968C16.1371 15.7968 16.8547 15.0791 16.8547 14.1937C16.8547 13.3084 16.1371 12.5907 15.2517 12.5907Z" fill="url(#paint2_linear)"/>
<path d="M29.3873 5.23156C28.9128 4.62691 28.2189 4.23411 27.4563 4.13864L7.56476 1.87987C6.79275 1.77012 6.01057 1.99549 5.41533 2.49924C4.82017 2.96072 4.43866 3.6448 4.35881 4.39366L3.99454 7.38105H2.86508C1.26208 7.38105 0.0598224 8.8019 0.0598224 10.4049V25.3054C0.0194474 26.834 1.22588 28.1059 2.75456 28.1464C2.79137 28.1473 2.82827 28.1476 2.86508 28.147H22.866C24.4689 28.147 25.9263 26.9084 25.9263 25.3054V24.7225C26.4232 24.6265 26.8947 24.4279 27.3106 24.1396C27.9009 23.6426 28.2789 22.9388 28.3671 22.1723L30.043 7.38112C30.1248 6.60528 29.8881 5.82958 29.3873 5.23156ZM2.86508 8.83835H22.866C23.7223 8.87383 24.4138 9.54965 24.4689 10.4049V16.5253L16.5269 21.1522C15.8449 21.5562 14.9817 21.483 14.3775 20.97L10.37 17.4726C9.23569 16.461 7.54684 16.3849 6.3261 17.2904L1.51709 20.7879V10.4049C1.51709 9.60335 2.06358 8.83835 2.86508 8.83835ZM22.866 26.6898H2.86508C2.14105 26.711 1.53689 26.1413 1.51562 25.4173C1.51451 25.38 1.51499 25.3426 1.51709 25.3054V22.6095L7.16401 18.4563C7.84234 17.9356 8.79784 17.9818 9.42274 18.5656L13.3938 22.063C13.9968 22.5693 14.756 22.8523 15.5433 22.8645C16.1589 22.872 16.7643 22.708 17.292 22.3909L24.4689 18.2377V25.3054C24.4689 26.1068 23.6675 26.6898 22.866 26.6898ZM28.5858 7.19884L26.8735 21.9901C26.8764 22.3735 26.7015 22.7368 26.3999 22.9737C26.2541 23.1194 25.9263 23.1923 25.9263 23.2651V10.4049C25.8687 8.74513 24.5262 7.41864 22.866 7.38105H5.45173L5.77961 4.5394C5.85074 4.17142 6.04313 3.83796 6.3261 3.59215C6.64562 3.37124 7.03193 3.26824 7.41902 3.30067L27.2742 5.59584C27.6661 5.62589 28.0253 5.82547 28.2579 6.14233C28.5054 6.43576 28.6236 6.81685 28.5858 7.19884Z" fill="url(#paint3_linear)"/>
</g>
<defs>
<linearGradient id="paint0_linear" x1="0.679199" y1="16.9648" x2="0.6792" y2="27.4935" gradientUnits="userSpaceOnUse">
<stop stop-color="#2944CC"/>
<stop offset="1" stop-color="#3355FF"/>
</linearGradient>
<linearGradient id="paint1_linear" x1="15.2518" y1="11.8621" x2="15.2518" y2="16.5253" gradientUnits="userSpaceOnUse">
<stop stop-color="#E62E2E"/>
<stop offset="1" stop-color="#FF3333"/>
</linearGradient>
<linearGradient id="paint2_linear" x1="15.2517" y1="11.1334" x2="15.2517" y2="17.2539" gradientUnits="userSpaceOnUse">
<stop stop-color="#E62E2E"/>
<stop offset="1" stop-color="#FF3333"/>
</linearGradient>
<linearGradient id="paint3_linear" x1="0.0588379" y1="1.85833" x2="0.058839" y2="28.153" gradientUnits="userSpaceOnUse">
<stop stop-color="#2944CC"/>
<stop offset="1" stop-color="#3355FF"/>
</linearGradient>
<clipPath id="clip0">
<rect width="30" height="30" fill="white" transform="translate(0.0588379)"/>
</clipPath>
</defs>
</svg>
