<svg width="31" height="30" viewBox="0 0 31 30" fill="none" xmlns="http://www.w3.org/2000/svg">
<g clip-path="url(#clip0)">
<path d="M3.8161 6.549V25.8582C3.8161 26.2594 4.14134 26.5846 4.54236 26.5846H25.5754C25.9767 26.5846 26.3017 26.2594 26.3017 25.8582V6.549L15.059 2.15674L3.8161 6.549Z" fill="url(#paint0_linear)"/>
<path opacity="0.1" d="M15.0591 2.15674L14.3126 2.44833L24.8086 6.549V25.8582C24.8086 26.2594 24.4836 26.5846 24.0824 26.5846H25.5756C25.9768 26.5846 26.3021 26.2594 26.3021 25.8582V6.549L15.0591 2.15674Z" fill="#000D33"/>
<path d="M8.54797 13.1983V26.5849H21.5697V13.1983C21.5697 12.7053 21.1699 12.3054 20.6767 12.3054H9.44107C8.94784 12.3054 8.54797 12.7051 8.54797 13.1983Z" fill="#000D33"/>
<path opacity="0.1" d="M10.8594 12.3054H9.44107C8.94784 12.3054 8.54797 12.7051 8.54797 13.1983V26.5849H9.96637V13.1983C9.96637 12.7051 10.3662 12.3054 10.8594 12.3054Z" fill="#000D33"/>
<path d="M28.6053 8.74629C28.4767 8.74629 28.346 8.72181 28.2199 8.66987L15.059 3.25315L1.89805 8.66987C1.38055 8.88272 0.787745 8.63601 0.574883 8.11824C0.361795 7.60052 0.608528 7.00817 1.12649 6.79487L14.6731 1.21953C14.9203 1.1179 15.1977 1.1179 15.4446 1.21953L28.9915 6.79487C29.5092 7.00817 29.7562 7.60052 29.5431 8.11824C29.382 8.50963 29.0039 8.74629 28.6053 8.74629Z" fill="white"/>
<path d="M20.6767 12.3054H9.44107C8.94784 12.3054 8.54797 12.7053 8.54797 13.1983V16.2836H21.5697V13.1983C21.5697 12.7051 21.1699 12.3054 20.6767 12.3054Z" fill="white"/>
<path opacity="0.1" d="M9.96637 13.1983C9.96637 12.7053 10.3662 12.3054 10.8594 12.3054H9.44107C9.19432 12.3054 8.97116 12.4052 8.80957 12.567C8.70866 12.668 8.63152 12.793 8.58825 12.9328C8.57955 12.9607 8.57201 12.9893 8.56605 13.0184C8.55416 13.0765 8.54797 13.1367 8.54797 13.1985V16.2838H9.96637V13.1983Z" fill="#000D33"/>
<path d="M0.498291 18.8697V28.9094H10.6341V18.8697C10.6341 18.5832 10.4018 18.3508 10.1152 18.3508H1.01693C0.730604 18.3508 0.498291 18.5832 0.498291 18.8697Z" fill="url(#paint1_linear)"/>
<path opacity="0.1" d="M10.1152 18.3508H8.77026C9.0568 18.3508 9.28911 18.5832 9.28911 18.8697V28.9094H10.6341V18.8697C10.6341 18.5832 10.4017 18.3508 10.1152 18.3508Z" fill="#000D33"/>
<path d="M7.0418 22.0095L6.39473 21.5227C6.37163 21.5053 6.34006 21.5053 6.31715 21.5227L5.60555 22.058C5.58267 22.0754 5.5511 22.0754 5.52796 22.058L4.81613 21.5227C4.79303 21.5053 4.76146 21.5053 4.73855 21.5227L4.09104 22.0095C4.04847 22.0416 3.98761 22.0111 3.98761 21.958V18.3508H7.14503V21.958C7.14526 22.0111 7.08436 22.0416 7.0418 22.0095Z" fill="white"/>
<path d="M10.6343 21.3016V28.9091H18.3146V21.3016C18.3146 21.0846 18.1386 20.9086 17.9214 20.9086H11.0272C10.8103 20.9086 10.6343 21.0846 10.6343 21.3016Z" fill="url(#paint2_linear)"/>
<path opacity="0.1" d="M17.9212 20.9086H16.5456C16.7626 20.9086 16.9386 21.0846 16.9386 21.3016V28.9091H18.3144V21.3016C18.3144 21.0846 18.1384 20.9086 17.9212 20.9086Z" fill="#000D33"/>
<path d="M15.5924 23.6808L15.1019 23.3118C15.0845 23.2988 15.0605 23.2988 15.0431 23.3118L14.5041 23.7176C14.4867 23.7307 14.4627 23.7307 14.4453 23.7176L13.9058 23.3118C13.8884 23.2988 13.8643 23.2988 13.8469 23.3118L13.3562 23.6808C13.324 23.7051 13.278 23.6821 13.278 23.6419V20.9086H15.6707V23.6419C15.6707 23.6819 15.6244 23.7051 15.5924 23.6808Z" fill="white"/>
<path d="M29.1589 6.3885L15.612 0.813161C15.2555 0.666446 14.8627 0.666446 14.5059 0.813161L10.9907 2.25992C10.7664 2.35216 10.6593 2.60897 10.7515 2.8335C10.844 3.05804 11.1008 3.16492 11.3253 3.07268L14.8405 1.62592C14.9815 1.56801 15.1367 1.56801 15.2774 1.62592L28.8243 7.20124C29.117 7.32165 29.2573 7.6581 29.1367 7.95082C29.0477 8.16712 28.8391 8.30674 28.6054 8.30674C28.5306 8.30674 28.4574 8.29211 28.3871 8.26328L15.2262 2.84678C15.119 2.8026 14.9989 2.8026 14.8918 2.84678L1.73082 8.26328C1.43831 8.38388 1.10231 8.24494 0.981233 7.95082C0.86061 7.6581 1.00092 7.32165 1.29366 7.20124L9.6666 3.75521C9.89093 3.66297 9.99803 3.40616 9.90555 3.18163C9.81334 2.95732 9.55654 2.84998 9.33199 2.94245L0.959258 6.3885C0.21814 6.6936 -0.136398 7.54436 0.168472 8.28525C0.4722 9.02336 1.31838 9.38363 2.06522 9.07601L3.37648 8.53654V16.5575C3.37648 16.8001 3.57309 16.997 3.81593 16.997C4.05855 16.997 4.25539 16.8001 4.25539 16.5575V8.1747L15.0591 3.72843L25.8625 8.1747V25.8586C25.8625 26.0167 25.7339 26.1451 25.5755 26.1451H22.0095V13.1982C22.0095 12.4635 21.4117 11.8656 20.677 11.8656H9.44093C8.70623 11.8656 8.10863 12.4635 8.10863 13.1982V17.9113H7.14709C7.14641 17.9113 7.1457 17.9113 7.1448 17.9113H3.98738C3.98666 17.9113 3.98599 17.9113 3.98509 17.9113H1.01717C0.488678 17.9113 0.0588379 18.3412 0.0588379 18.8697V28.9093C0.0588379 29.1522 0.255447 29.3488 0.498293 29.3488H18.3144C18.5573 29.3488 18.7539 29.1522 18.7539 28.9093V27.024H25.5755C26.2184 27.024 26.7414 26.5012 26.7414 25.8586V8.53654L28.0527 9.07601C28.2294 9.1488 28.4152 9.18566 28.6054 9.18566C29.1969 9.18566 29.7244 8.83226 29.9494 8.28525C30.2545 7.54436 29.8998 6.6936 29.1589 6.3885ZM8.98751 14.6557H21.1306V15.8441H8.98751V14.6557ZM9.44093 12.7445H20.677C20.9271 12.7445 21.1306 12.948 21.1306 13.1982V13.7768H8.98751V13.1982C8.98751 12.948 9.19099 12.7445 9.44093 12.7445ZM4.77701 21.0706C4.67014 21.0706 4.56323 21.1042 4.4742 21.1713L4.42684 21.2068V18.7902H6.70534V21.2068L6.65865 21.1715C6.48011 21.0372 6.23085 21.0372 6.05258 21.1715L5.56643 21.5373L5.08005 21.1715C4.9908 21.1042 4.88389 21.0706 4.77701 21.0706ZM0.937744 18.8697C0.937744 18.8259 0.973219 18.7902 1.01717 18.7902H3.54791V21.9579C3.54791 22.1502 3.6548 22.323 3.82691 22.4088C3.99881 22.4947 4.20113 22.4764 4.35495 22.3608L4.77701 22.0433L5.26384 22.4093C5.35309 22.4764 5.46 22.5098 5.56665 22.5098C5.67353 22.5098 5.78044 22.4764 5.86969 22.4091L6.35584 22.0433L6.77745 22.3608C6.93124 22.4764 7.13336 22.4947 7.30545 22.4088C7.47758 22.323 7.58449 22.1502 7.58449 21.9579V18.7905H8.53661H8.54805H8.55953H10.1154C10.1592 18.7905 10.1949 18.8259 10.1949 18.8697V28.4699H0.937744V18.8697ZM17.875 28.4699H11.0736V21.3482H12.8385V23.6421C12.8385 23.8281 12.9422 23.9957 13.1085 24.0788C13.2749 24.1621 13.4711 24.1442 13.6203 24.0323L13.8762 23.8398L14.1811 24.0692C14.2676 24.1342 14.371 24.1666 14.4745 24.1666C14.5782 24.1666 14.6816 24.1339 14.7682 24.0689L15.0723 23.8401L15.328 24.0323C15.4768 24.1442 15.6729 24.1621 15.8396 24.079C16.0062 23.9957 16.1098 23.8284 16.1098 23.6421V21.3482H17.8748V28.4699H17.875ZM15.2312 21.3482V22.8895C15.0808 22.8385 14.9101 22.8622 14.7789 22.9609L14.4745 23.19L14.1696 22.9609C14.0834 22.8959 13.9799 22.8634 13.8762 22.8634C13.8226 22.8634 13.7689 22.8721 13.7174 22.8897V21.3482H15.2312ZM17.9212 20.4693H15.6727C15.672 20.4693 15.6713 20.4693 15.6704 20.4693H13.2779C13.2772 20.4693 13.2765 20.4693 13.2756 20.4693H11.0736V18.8697C11.0736 18.3412 10.6437 17.9113 10.1152 17.9113H8.98751V16.723H21.1306V26.1451H18.7539V21.3018C18.7539 20.8428 18.3804 20.4693 17.9212 20.4693Z" fill="#000D33"/>
<path d="M7.61726 24.2258H3.51477C3.27193 24.2258 3.07532 24.4224 3.07532 24.6653C3.07532 24.9079 3.27193 25.1047 3.51477 25.1047H7.61726C7.86007 25.1047 8.05669 24.9079 8.05669 24.6653C8.05669 24.4224 7.86007 24.2258 7.61726 24.2258Z" fill="#000D33"/>
<path d="M7.61726 26.0714H3.51477C3.27193 26.0714 3.07532 26.268 3.07532 26.5109C3.07532 26.7535 3.27193 26.9503 3.51477 26.9503H7.61726C7.86007 26.9503 8.05669 26.7535 8.05669 26.5109C8.05669 26.268 7.86007 26.0714 7.61726 26.0714Z" fill="#000D33"/>
<path d="M15.8501 25.1804H13.0985C12.8557 25.1804 12.6591 25.3773 12.6591 25.6199C12.6591 25.8627 12.8557 26.0593 13.0985 26.0593H15.8501C16.0927 26.0593 16.2896 25.8627 16.2896 25.6199C16.2896 25.3773 16.0927 25.1804 15.8501 25.1804Z" fill="#000D33"/>
<path d="M15.8501 26.4182H13.0985C12.8557 26.4182 12.6591 26.6148 12.6591 26.8576C12.6591 27.1003 12.8557 27.2971 13.0985 27.2971H15.8501C16.0927 27.2971 16.2896 27.1003 16.2896 26.8576C16.2896 26.6148 16.0927 26.4182 15.8501 26.4182Z" fill="#000D33"/>
<path d="M13.9404 10.1224C14.183 10.1224 14.3798 9.92558 14.3798 9.68296C14.3798 9.44014 14.183 9.24353 13.9404 9.24353H11.6655C11.4229 9.24353 11.2261 9.44014 11.2261 9.68296C11.2261 9.92558 11.4229 10.1224 11.6655 10.1224H13.9404Z" fill="#000D33"/>
<path d="M18.4525 10.1224C18.6953 10.1224 18.8919 9.92558 18.8919 9.68296C18.8919 9.44014 18.6953 9.24353 18.4525 9.24353H16.1776C15.935 9.24353 15.7382 9.44014 15.7382 9.68296C15.7382 9.92558 15.935 10.1224 16.1776 10.1224H18.4525Z" fill="#000D33"/>
</g>
<defs>
<linearGradient id="paint0_linear" x1="15.0589" y1="2.15674" x2="15.0589" y2="26.5846" gradientUnits="userSpaceOnUse">
<stop stop-color="#E62E2E"/>
<stop offset="1" stop-color="#FF3333"/>
</linearGradient>
<linearGradient id="paint1_linear" x1="5.5662" y1="18.3508" x2="5.5662" y2="28.9094" gradientUnits="userSpaceOnUse">
<stop stop-color="#E62E2E"/>
<stop offset="1" stop-color="#FF3333"/>
</linearGradient>
<linearGradient id="paint2_linear" x1="14.4744" y1="20.9086" x2="14.4744" y2="28.9091" gradientUnits="userSpaceOnUse">
<stop stop-color="#E62E2E"/>
<stop offset="1" stop-color="#FF3333"/>
</linearGradient>
<clipPath id="clip0">
<rect width="30" height="30" fill="white" transform="translate(0.0588379)"/>
</clipPath>
</defs>
</svg>
