<svg width="31" height="30" viewBox="0 0 31 30" fill="none" xmlns="http://www.w3.org/2000/svg">
<g clip-path="url(#clip0)">
<path d="M29.085 19.4039H1.44727L3.61159 23.1243L6.27497 22.1222L8.72735 23.1243L12.1291 22.6496L15.1089 23.1243L17.9305 22.1222L21.0949 22.887H26.9226L28.0566 21.674L29.085 19.4039Z" fill="white"/>
<path d="M3.64887 6.05959L0.55896 5.51968L2.85876 3.75958C3.06384 4.28464 3.3488 5.07451 3.64887 6.05959Z" fill="white"/>
<path d="M29.0589 17.5194L27.7039 17.7096L17.6839 19.1044L10.6788 17.6494L10.059 17.5194C10.6195 17.5208 11.1787 17.4672 11.7289 17.3595C14.5588 16.8195 16.7039 14.9946 18.0339 13.5195C18.4351 13.0727 18.8107 12.6037 19.1589 12.1146C19.4179 11.7471 19.8906 11.5976 20.3138 11.7495C21.314 12.1096 22.439 12.5394 23.5589 13.0196C25.7527 14.0152 27.6486 15.5664 29.0589 17.5194Z" fill="white"/>
<path d="M27.809 17.8495L16.4338 19.4345L8.80884 17.8495C9.43758 17.8509 10.0647 17.7838 10.6788 17.6494C11.0345 17.5741 11.3851 17.4773 11.7289 17.3595C14.5588 16.8195 16.7039 14.9946 18.0339 13.5195C18.4351 13.0727 18.8107 12.6037 19.1589 12.1146C20.1339 12.4646 21.2239 12.8846 22.309 13.3494C24.4506 14.3176 26.308 15.8186 27.7039 17.7096C27.774 17.7996 27.809 17.8495 27.809 17.8495Z" fill="url(#paint0_linear)"/>
<path d="M8.05893 17.5195L4.22378 18.2696L3.6589 18.1345L1.0588 17.5195L0.568766 15.3097C0.53512 15.1481 0.586161 14.9803 0.703808 14.8648L1.24374 14.3296L1.55891 14.0197L6.05872 15.5196L8.05893 17.5195Z" fill="white"/>
<path d="M6.80877 17.5195L3.6589 18.1345L1.0588 17.5195L0.568766 15.3096C0.53512 15.148 0.586161 14.9803 0.703808 14.8647L1.24374 14.3296L4.8088 15.5196L6.80877 17.5195Z" fill="url(#paint1_linear)"/>
<path d="M1.04877 17.5195H29.0689C29.3394 17.5195 29.5587 17.739 29.5587 18.0096V19.0297C29.5587 19.3003 29.3394 19.5198 29.0689 19.5198H1.04877C0.778226 19.5198 0.55896 19.3003 0.55896 19.0297V18.0096C0.55896 17.739 0.778226 17.5195 1.04877 17.5195Z" fill="url(#paint2_linear)"/>
<path d="M29.0693 20.0195H1.04829C0.502181 20.0186 0.0597534 19.5762 0.0588379 19.0301V18.0091C0.0597534 17.4629 0.502181 17.0205 1.04829 17.0196H29.0693C29.6154 17.0205 30.0579 17.4629 30.0588 18.0091V19.0301C30.0579 19.5762 29.6154 20.0186 29.0693 20.0195ZM29.0588 18.0091L1.04829 18.0196L1.05882 19.0301L29.0588 19.0196V18.0091Z" fill="url(#paint3_linear)"/>
<path d="M0.652283 19.8102L1.46596 19.2291L3.9658 22.7289L3.15213 23.31L0.652283 19.8102Z" fill="url(#paint4_linear)"/>
<path d="M26.8364 23.4356L26.2813 22.6037C27.6313 21.7037 28.5852 19.3572 28.5948 19.3336L29.5232 19.7051C29.4797 19.8131 28.4468 22.3622 26.8364 23.4356Z" fill="url(#paint5_linear)"/>
<path d="M10.0588 18.0196C9.78252 18.0196 9.55872 17.7958 9.55872 17.5195C9.55872 17.2435 9.78252 17.0196 10.0588 17.0196C15.6932 17.0196 19.0932 11.3246 19.1273 11.2697C19.274 11.0508 19.5652 10.9836 19.7929 11.1154C20.0209 11.2475 20.1074 11.5336 19.9907 11.7696C19.8416 12.0266 16.2748 18.0196 10.0588 18.0196Z" fill="url(#paint6_linear)"/>
<path d="M29.0589 18.0196C28.8916 18.0198 28.7353 17.9365 28.6423 17.7975C27.2826 15.928 25.4637 14.4405 23.3614 13.479C21.1554 12.5509 18.9014 11.7415 16.6089 11.0544L15.7845 11.4671C15.6659 11.5269 15.5286 11.5362 15.4029 11.4934L13.9028 10.9936C13.7332 10.9371 13.6064 10.7944 13.5705 10.6191C13.5345 10.444 13.5948 10.263 13.7286 10.1442C13.8623 10.0254 14.0493 9.9872 14.2189 10.0435L15.5224 10.4775L16.3374 10.07C16.4494 10.0142 16.5782 10.002 16.6984 10.0366C19.0962 10.7469 21.4527 11.5887 23.758 12.558C26.0434 13.5875 28.0164 15.2027 29.4769 17.24C29.5806 17.3938 29.5906 17.5924 29.503 17.7559C29.4153 17.9193 29.2443 18.0209 29.0589 18.0196Z" fill="url(#paint7_linear)"/>
<path d="M8.11474 14.1787C8.03896 14.4442 8.19256 14.7207 8.45782 14.7966L10.3814 15.3466L10.6558 14.3853L8.73268 13.8353C8.46718 13.7596 8.19046 13.9131 8.11474 14.1787Z" fill="url(#paint8_linear)"/>
<path d="M4.26383 12.558L3.98871 13.5196L4.1313 13.5601L4.61172 13.6977C4.78362 13.7466 4.96856 13.7004 5.09696 13.5764C5.22536 13.4521 5.27777 13.269 5.23451 13.0955C5.19102 12.9222 5.0585 12.7853 4.88684 12.7361L4.40573 12.5986L4.26383 12.558Z" fill="url(#paint9_linear)"/>
<path d="M6.53477 14.2472C6.66269 14.2815 6.79889 14.2666 6.91631 14.2051L6.99437 14.1497C7.02023 14.128 7.04333 14.1033 7.06277 14.0755C7.08431 14.0522 7.10237 14.0259 7.11635 13.9971C7.13057 13.9668 7.14293 13.9354 7.15319 13.9036C7.18775 13.776 7.17269 13.6398 7.11131 13.5226C7.07789 13.466 7.03397 13.4164 6.98177 13.3761C6.82337 13.2518 6.60689 13.2324 6.42881 13.3262C6.37205 13.3596 6.32237 13.4035 6.28229 13.4557C6.24089 13.5063 6.21023 13.5649 6.19169 13.6276C6.15389 13.7551 6.16877 13.8924 6.23333 14.0087C6.29789 14.125 6.40661 14.2104 6.53477 14.2456V14.2472Z" fill="url(#paint10_linear)"/>
<path d="M11.0454 15.4392C10.8209 15.439 10.5973 15.4078 10.3814 15.346C10.1157 15.2703 9.96185 14.9936 10.0376 14.7279C10.1134 14.4621 10.3901 14.3083 10.6559 14.3841C10.9175 14.4598 11.1953 14.4582 11.4558 14.379L15.7764 13.0827C15.9155 13.041 16.06 13.0197 16.2053 13.0197H18.0588C18.3351 13.0197 18.5589 13.2436 18.5589 13.5196C18.5589 13.7958 18.3351 14.0197 18.0588 14.0197H16.2053C16.1566 14.0199 16.1081 14.027 16.0613 14.0405L11.7407 15.3372C11.5153 15.4047 11.281 15.439 11.0454 15.4392Z" fill="url(#paint11_linear)"/>
<path d="M8.05894 18.0196C7.92616 18.0196 7.79914 17.967 7.7053 17.8731L5.78889 15.9567L1.40076 14.4937C1.26343 14.4479 1.15243 14.3447 1.09704 14.2108C1.04142 14.0771 1.04668 13.9258 1.11123 13.796L1.3353 13.3461C1.58845 12.838 2.10801 12.5175 2.67586 12.5196H3.98873C4.08143 12.5194 4.17367 12.5322 4.26293 12.5576C4.43459 12.6065 4.56735 12.7432 4.61106 12.9164C4.65455 13.0897 4.60259 13.2731 4.47419 13.3976C4.34602 13.5218 4.16108 13.5685 3.98942 13.5196H2.67586C2.51404 13.5189 2.3623 13.5974 2.26937 13.7297L6.2194 15.0455C6.2929 15.0703 6.35974 15.1114 6.41488 15.1661L8.41486 17.1661C8.55814 17.3094 8.60068 17.525 8.52268 17.712C8.44462 17.8992 8.2615 18.0205 8.05894 18.0196Z" fill="url(#paint12_linear)"/>
<path d="M1.05878 18.0197C0.824636 18.0194 0.622074 17.8567 0.571262 17.6281L0.0803108 15.4196C0.0114173 15.0914 0.112583 14.7503 0.349247 14.5127L1.2087 13.6636C1.40805 13.4882 1.70949 13.4993 1.89558 13.6885C2.08165 13.8778 2.08738 14.1795 1.90885 14.3756L1.0542 15.2198L1.54676 17.4118C1.5756 17.5411 1.55202 17.6768 1.48084 17.7887C1.40965 17.9009 1.29682 17.9798 1.16727 18.0087C1.13157 18.016 1.09518 18.0197 1.05878 18.0197Z" fill="url(#paint13_linear)"/>
<path d="M20.0587 12.0196C19.8914 12.0196 19.7351 11.9364 19.6424 11.797C18.9164 10.7533 18.1009 9.77504 17.2048 8.873C17.0153 8.67686 17.0181 8.3651 17.211 8.17214C17.4037 7.97924 17.7157 7.97648 17.9118 8.16596C18.8557 9.11312 19.7133 10.1426 20.4744 11.2422C20.5767 11.3955 20.5863 11.5926 20.4993 11.7553C20.4126 11.9178 20.2432 12.0195 20.0587 12.0196Z" fill="url(#paint14_linear)"/>
<path d="M9.37973 23.5198C8.07671 23.572 6.79451 23.1796 5.74373 22.4072C5.59885 22.2966 5.5256 22.116 5.55238 21.9359C5.57939 21.7555 5.7023 21.6043 5.87305 21.5408C6.04402 21.4774 6.23585 21.512 6.37385 21.6313C8.00483 22.9562 10.9682 22.5413 11.8208 22.0813C11.9783 21.9901 12.1728 21.9917 12.3289 22.0856C12.4847 22.1794 12.5774 22.3504 12.5708 22.5323C12.5642 22.7143 12.4591 22.878 12.2969 22.9601C11.3756 23.3534 10.3809 23.5442 9.37973 23.5198Z" fill="url(#paint15_linear)"/>
<path d="M14.7398 23.5198C13.7376 23.5436 12.7419 23.3518 11.8204 22.9572C11.6634 22.872 11.5636 22.7095 11.559 22.531C11.5542 22.3522 11.6451 22.1847 11.7975 22.0915C11.9497 21.9982 12.1404 21.9931 12.2974 22.0783C13.0522 22.4877 16.0973 22.9711 17.7434 21.6283C17.881 21.5079 18.0732 21.4724 18.2449 21.5353C18.4164 21.5985 18.54 21.7501 18.567 21.9309C18.594 22.1117 18.52 22.2927 18.3745 22.4033C17.3248 23.1776 16.0431 23.5713 14.7398 23.5198Z" fill="url(#paint16_linear)"/>
<path d="M26.5189 23.5198C25.5817 23.5425 24.6522 23.3468 23.8037 22.9483C23.5717 22.805 23.497 22.5022 23.6362 22.2676C23.7754 22.033 24.0768 21.9531 24.3139 22.0884C24.9939 22.4882 27.7403 22.9647 29.2264 21.6448C29.3599 21.526 29.5464 21.4873 29.716 21.5436C29.8856 21.5997 30.0124 21.7421 30.0485 21.9171C30.0847 22.092 30.0247 22.2731 29.8913 22.3919C28.9424 23.1664 27.743 23.5676 26.5189 23.5198Z" fill="url(#paint17_linear)"/>
<path d="M3.01872 23.5198C2.08191 23.5429 1.15242 23.3476 0.303723 22.9497C0.0716368 22.8066 -0.00297885 22.5038 0.136182 22.2692C0.275341 22.0346 0.576779 21.9547 0.813902 22.0897C1.49437 22.4898 4.24072 22.9663 5.72639 21.6462C5.85983 21.5274 6.04637 21.4889 6.21598 21.545C6.3856 21.6013 6.51238 21.7437 6.54856 21.9185C6.58468 22.0934 6.52474 22.2744 6.3913 22.3932C5.44212 23.1673 4.24278 23.5681 3.01872 23.5198Z" fill="url(#paint18_linear)"/>
<path d="M21.3798 23.5198C20.0768 23.572 18.7946 23.1796 17.7438 22.4072C17.5989 22.2966 17.5255 22.116 17.5525 21.9359C17.5795 21.7555 17.7022 21.6043 17.8731 21.5408C18.0441 21.4774 18.2359 21.512 18.3737 21.6313C20.0047 22.9562 22.9682 22.5413 23.8208 22.0813C23.9783 21.9901 24.1729 21.9917 24.3287 22.0856C24.4849 22.1794 24.5776 22.3504 24.5707 22.5323C24.564 22.7143 24.4592 22.878 24.2967 22.9601C23.3757 23.3534 22.381 23.5442 21.3798 23.5198Z" fill="url(#paint19_linear)"/>
<path d="M5.05883 13.5196C4.79951 13.5208 4.58253 13.3235 4.55895 13.0651C4.21975 9.68286 3.39211 6.3675 2.10191 3.22268C2.02935 3.05949 2.0495 2.86975 2.15455 2.72532C2.25984 2.5809 2.43402 2.50353 2.61163 2.52231C2.78924 2.5413 2.94328 2.65346 3.01583 2.81665C4.36097 6.05832 5.21791 9.48126 5.55894 12.9742C5.57153 13.1069 5.53056 13.2392 5.44519 13.3418C5.35959 13.4441 5.2369 13.5082 5.10392 13.5196C5.08882 13.5196 5.07348 13.5196 5.05883 13.5196Z" fill="url(#paint20_linear)"/>
<path d="M3.55891 6.51968C3.53098 6.51968 3.50329 6.5174 3.47582 6.5126L0.475868 6.01274C0.278571 5.9793 0.120185 5.8319 0.0730358 5.63759C0.0258861 5.44326 0.0988994 5.23956 0.258888 5.11962L2.25886 3.61953C2.40168 3.51242 2.59096 3.48976 2.7553 3.5598C2.91964 3.63006 3.03385 3.7825 3.05536 3.95988C3.07665 4.13726 3.00181 4.31236 2.85876 4.41971L1.79377 5.21964L3.64382 5.52818C3.8965 5.5751 4.07251 5.80627 4.05054 6.06236C4.02857 6.3185 3.81594 6.51626 3.55891 6.51968Z" fill="url(#paint21_linear)"/>
</g>
<defs>
<linearGradient id="paint0_linear" x1="18.3089" y1="12.1146" x2="18.3089" y2="19.4345" gradientUnits="userSpaceOnUse">
<stop stop-color="#E62E2E"/>
<stop offset="1" stop-color="#FF3333"/>
</linearGradient>
<linearGradient id="paint1_linear" x1="3.68368" y1="14.3296" x2="3.68368" y2="18.1345" gradientUnits="userSpaceOnUse">
<stop stop-color="#E62E2E"/>
<stop offset="1" stop-color="#FF3333"/>
</linearGradient>
<linearGradient id="paint2_linear" x1="15.0588" y1="17.5195" x2="15.0588" y2="19.5198" gradientUnits="userSpaceOnUse">
<stop stop-color="#E62E2E"/>
<stop offset="1" stop-color="#FF3333"/>
</linearGradient>
<linearGradient id="paint3_linear" x1="0.0588379" y1="17.0203" x2="0.0588379" y2="20.0202" gradientUnits="userSpaceOnUse">
<stop stop-color="#2944CC"/>
<stop offset="1" stop-color="#3355FF"/>
</linearGradient>
<linearGradient id="paint4_linear" x1="0.652283" y1="19.23" x2="0.652283" y2="23.3109" gradientUnits="userSpaceOnUse">
<stop stop-color="#2944CC"/>
<stop offset="1" stop-color="#3355FF"/>
</linearGradient>
<linearGradient id="paint5_linear" x1="26.2813" y1="19.3345" x2="26.2813" y2="23.4365" gradientUnits="userSpaceOnUse">
<stop stop-color="#2944CC"/>
<stop offset="1" stop-color="#3355FF"/>
</linearGradient>
<linearGradient id="paint6_linear" x1="9.55872" y1="11.0496" x2="9.55872" y2="18.0212" gradientUnits="userSpaceOnUse">
<stop stop-color="#2944CC"/>
<stop offset="1" stop-color="#3355FF"/>
</linearGradient>
<linearGradient id="paint7_linear" x1="13.5603" y1="10.019" x2="13.5603" y2="18.0213" gradientUnits="userSpaceOnUse">
<stop stop-color="#2944CC"/>
<stop offset="1" stop-color="#3355FF"/>
</linearGradient>
<linearGradient id="paint8_linear" x1="8.09536" y1="13.8163" x2="8.09536" y2="15.3469" gradientUnits="userSpaceOnUse">
<stop stop-color="#2944CC"/>
<stop offset="1" stop-color="#3355FF"/>
</linearGradient>
<linearGradient id="paint9_linear" x1="3.98871" y1="12.5583" x2="3.98871" y2="13.7171" gradientUnits="userSpaceOnUse">
<stop stop-color="#2944CC"/>
<stop offset="1" stop-color="#3355FF"/>
</linearGradient>
<linearGradient id="paint10_linear" x1="6.17123" y1="13.2675" x2="6.17123" y2="14.2655" gradientUnits="userSpaceOnUse">
<stop stop-color="#2944CC"/>
<stop offset="1" stop-color="#3355FF"/>
</linearGradient>
<linearGradient id="paint11_linear" x1="10.0183" y1="13.0203" x2="10.0183" y2="15.4398" gradientUnits="userSpaceOnUse">
<stop stop-color="#2944CC"/>
<stop offset="1" stop-color="#3355FF"/>
</linearGradient>
<linearGradient id="paint12_linear" x1="1.05877" y1="12.5207" x2="1.05878" y2="18.0208" gradientUnits="userSpaceOnUse">
<stop stop-color="#2944CC"/>
<stop offset="1" stop-color="#3355FF"/>
</linearGradient>
<linearGradient id="paint13_linear" x1="0.059082" y1="13.54" x2="0.0590825" y2="18.0206" gradientUnits="userSpaceOnUse">
<stop stop-color="#2944CC"/>
<stop offset="1" stop-color="#3355FF"/>
</linearGradient>
<linearGradient id="paint14_linear" x1="17.0644" y1="8.02652" x2="17.0644" y2="12.0205" gradientUnits="userSpaceOnUse">
<stop stop-color="#2944CC"/>
<stop offset="1" stop-color="#3355FF"/>
</linearGradient>
<linearGradient id="paint15_linear" x1="5.54694" y1="21.5101" x2="5.54694" y2="23.5248" gradientUnits="userSpaceOnUse">
<stop stop-color="#2944CC"/>
<stop offset="1" stop-color="#3355FF"/>
</linearGradient>
<linearGradient id="paint16_linear" x1="11.5588" y1="21.5052" x2="11.5588" y2="23.5247" gradientUnits="userSpaceOnUse">
<stop stop-color="#2944CC"/>
<stop offset="1" stop-color="#3355FF"/>
</linearGradient>
<linearGradient id="paint17_linear" x1="23.5661" y1="21.5186" x2="23.5661" y2="23.5241" gradientUnits="userSpaceOnUse">
<stop stop-color="#2944CC"/>
<stop offset="1" stop-color="#3355FF"/>
</linearGradient>
<linearGradient id="paint18_linear" x1="0.0661621" y1="21.5201" x2="0.0661622" y2="23.5241" gradientUnits="userSpaceOnUse">
<stop stop-color="#2944CC"/>
<stop offset="1" stop-color="#3355FF"/>
</linearGradient>
<linearGradient id="paint19_linear" x1="17.5469" y1="21.5101" x2="17.5469" y2="23.5248" gradientUnits="userSpaceOnUse">
<stop stop-color="#2944CC"/>
<stop offset="1" stop-color="#3355FF"/>
</linearGradient>
<linearGradient id="paint20_linear" x1="2.05884" y1="2.5219" x2="2.05884" y2="13.522" gradientUnits="userSpaceOnUse">
<stop stop-color="#2944CC"/>
<stop offset="1" stop-color="#3355FF"/>
</linearGradient>
<linearGradient id="paint21_linear" x1="0.0588989" y1="3.5203" x2="0.058899" y2="6.52034" gradientUnits="userSpaceOnUse">
<stop stop-color="#2944CC"/>
<stop offset="1" stop-color="#3355FF"/>
</linearGradient>
<clipPath id="clip0">
<rect width="30" height="30" fill="white" transform="translate(0.0588379)"/>
</clipPath>
</defs>
</svg>
