<svg width="45" height="30" viewBox="0 0 45 30" fill="none" xmlns="http://www.w3.org/2000/svg">
<g clip-path="url(#clip0)">
<path d="M37.9412 0.0172119H6.17647C2.7653 0.0172119 0 2.78251 0 6.19368V22.9584C0 26.3696 2.7653 29.1349 6.17647 29.1349H37.9412C41.3523 29.1349 44.1176 26.3696 44.1176 22.9584V6.19368C44.1176 2.78251 41.3523 0.0172119 37.9412 0.0172119Z" fill="white"/>
<path fill-rule="evenodd" clip-rule="evenodd" d="M15.3807 10.5883V10.5921C15.3769 10.5921 14.1744 10.5883 13.8538 11.748C13.5598 12.8115 12.7314 15.7476 12.7085 15.8285H12.4795C12.4795 15.8285 11.632 12.8269 11.3343 11.7441C11.0136 10.5844 9.80737 10.5883 9.80737 10.5883H7.05884V19.4118H9.80737V14.1716H9.92181H10.0363L11.6397 19.4118H13.5484L15.1516 14.1755H15.3807V19.4118H18.1292V10.5883H15.3807Z" fill="#4DB45E"/>
<path fill-rule="evenodd" clip-rule="evenodd" d="M25.4202 10.5883C25.4202 10.5883 24.6148 10.6615 24.2369 11.513L22.29 15.8285H22.061V10.5883H19.3125V19.4118H21.9083C21.9083 19.4118 22.7519 19.3348 23.1298 18.4871L25.0385 14.1716H25.2676V19.4118H28.016V10.5883H25.4202Z" fill="#4DB45E"/>
<path fill-rule="evenodd" clip-rule="evenodd" d="M29.2376 14.5955V19.4118H31.986V16.599H34.9636C36.2615 16.599 37.3609 15.7629 37.7693 14.5955H29.2376Z" fill="#4DB45E"/>
<path fill-rule="evenodd" clip-rule="evenodd" d="M34.9637 10.5883H28.8521C29.1574 12.2682 30.4057 13.6168 32.0205 14.056C32.3869 14.1562 32.7724 14.2101 33.1695 14.2101H37.8801C37.9221 14.0098 37.9412 13.8056 37.9412 13.5936C37.9412 11.933 36.6089 10.5883 34.9637 10.5883Z" fill="url(#paint0_linear)"/>
</g>
<defs>
<linearGradient id="paint0_linear" x1="28.8528" y1="12.3992" x2="37.9412" y2="12.3992" gradientUnits="userSpaceOnUse">
<stop offset="0.3" stop-color="#00B4E6"/>
<stop offset="1" stop-color="#088CCB"/>
</linearGradient>
<clipPath id="clip0">
<rect width="44.1176" height="30" fill="white"/>
</clipPath>
</defs>
</svg>
