<svg width="45" height="30" viewBox="0 0 45 30" fill="none" xmlns="http://www.w3.org/2000/svg">
<g clip-path="url(#clip0)">
<path d="M37.9412 0.0172119H6.17647C2.7653 0.0172119 0 2.78251 0 6.19368V22.9584C0 26.3696 2.7653 29.1349 6.17647 29.1349H37.9412C41.3523 29.1349 44.1176 26.3696 44.1176 22.9584V6.19368C44.1176 2.78251 41.3523 0.0172119 37.9412 0.0172119Z" fill="white"/>
<path d="M20.6377 19.2844H18.4292L19.8106 10.7429H22.0191L20.6377 19.2844Z" fill="#00579F"/>
<path d="M28.6439 10.9519C28.2083 10.7791 27.5173 10.5883 26.663 10.5883C24.482 10.5883 22.9461 11.7513 22.9368 13.4141C22.9186 14.6408 24.0364 15.3223 24.8723 15.7313C25.7268 16.1493 26.0172 16.4221 26.0172 16.7946C26.0086 17.3669 25.3268 17.6307 24.691 17.6307C23.8092 17.6307 23.3367 17.4947 22.6188 17.1763L22.3279 17.0398L22.0189 18.9572C22.5369 19.1932 23.4912 19.4026 24.482 19.4118C26.7994 19.4118 28.308 18.2668 28.3259 16.4948C28.3347 15.5225 27.7445 14.7774 26.4721 14.1687C25.6996 13.7778 25.2266 13.5143 25.2266 13.1144C25.2357 12.7509 25.6267 12.3786 26.4987 12.3786C27.2166 12.3603 27.7442 12.5329 28.1438 12.7056L28.3436 12.7963L28.6439 10.9519Z" fill="#00579F"/>
<path d="M31.5792 16.2584C31.7611 15.7677 32.4609 13.8686 32.4609 13.8686C32.4518 13.8868 32.6425 13.3688 32.7515 13.0509L32.9059 13.7869C32.9059 13.7869 33.3241 15.8314 33.4149 16.2584C33.0698 16.2584 32.0154 16.2584 31.5792 16.2584ZM34.3054 10.7429H32.5971C32.0702 10.7429 31.67 10.8972 31.4428 11.4516L28.1623 19.2842H30.4796C30.4796 19.2842 30.8611 18.2299 30.9431 18.0029C31.1973 18.0029 33.4516 18.0029 33.7786 18.0029C33.8421 18.3028 34.0422 19.2842 34.0422 19.2842H36.0871L34.3054 10.7429Z" fill="#00579F"/>
<path d="M16.5845 10.7429L14.4216 16.5673L14.1853 15.386C13.7854 14.0231 12.5313 12.5421 11.1318 11.8058L13.113 19.2753H15.4484L18.9198 10.7429H16.5845Z" fill="#00579F"/>
<path d="M12.4132 10.7429H8.8599L8.82355 10.9155C11.5954 11.6243 13.4311 13.3329 14.1853 15.3865L13.4128 11.4609C13.2857 10.9153 12.8949 10.7609 12.4132 10.7429Z" fill="#FAA61A"/>
</g>
<defs>
<clipPath id="clip0">
<rect width="44.1176" height="30" fill="white"/>
</clipPath>
</defs>
</svg>
