<svg width="45" height="30" viewBox="0 0 45 30" fill="none" xmlns="http://www.w3.org/2000/svg">
<g clip-path="url(#clip0)">
<path d="M37.9412 0.0172119H6.17647C2.7653 0.0172119 0 2.78251 0 6.19368V22.9584C0 26.3696 2.7653 29.1349 6.17647 29.1349H37.9412C41.3523 29.1349 44.1176 26.3696 44.1176 22.9584V6.19368C44.1176 2.78251 41.3523 0.0172119 37.9412 0.0172119Z" fill="white"/>
<path d="M31.7067 14.5935C31.7056 15.7128 31.3639 16.8053 30.7271 17.7258C30.0902 18.6463 29.1883 19.3512 28.1412 19.7468C27.0942 20.1425 25.9515 20.2102 24.8651 19.9408C23.7786 19.6715 22.7998 19.0779 22.0588 18.2391C22.9484 17.233 23.4395 15.9365 23.4395 14.5935C23.4395 13.2506 22.9484 11.954 22.0588 10.948C22.7998 10.1091 23.7786 9.5156 24.8651 9.24621C25.9515 8.97692 27.0942 9.0446 28.1412 9.44024C29.1883 9.83589 30.0902 10.5407 30.7271 11.4613C31.3639 12.3817 31.7056 13.4742 31.7067 14.5935Z" fill="#F79E1B"/>
<path d="M22.0588 18.2391C22.8219 18.2391 23.4404 16.6069 23.4404 14.5935C23.4404 12.5802 22.8219 10.948 22.0588 10.948C21.2958 10.948 20.6772 12.5802 20.6772 14.5935C20.6772 16.6069 21.2958 18.2391 22.0588 18.2391Z" fill="#FF5F00"/>
<path d="M20.6772 14.5933C20.6796 15.9359 21.1707 17.2318 22.0588 18.2388C21.3181 19.0795 20.339 19.6746 19.2517 19.945C18.1644 20.2154 17.0205 20.1482 15.9725 19.7524C14.9243 19.3565 14.0216 18.6507 13.3845 17.7291C12.7474 16.8075 12.4062 15.7137 12.4062 14.5933C12.4062 13.4729 12.7474 12.3791 13.3845 11.4575C14.0216 10.5358 14.9243 9.83013 15.9725 9.43431C17.0205 9.0384 18.1644 8.97125 19.2517 9.2416C20.339 9.51196 21.3181 10.1071 22.0588 10.9478C21.1707 11.9548 20.6796 13.2507 20.6772 14.5933Z" fill="#EB001B"/>
</g>
<defs>
<clipPath id="clip0">
<rect width="44.1176" height="30" fill="white"/>
</clipPath>
</defs>
</svg>
