<svg width="31" height="30" viewBox="0 0 31 30" fill="none" xmlns="http://www.w3.org/2000/svg">
<path d="M20.0352 0.462708H9.64214C8.23016 0.462708 7.08551 1.60735 7.08551 3.01934V26.9804C7.08551 28.3924 8.23016 29.537 9.64214 29.537H20.0352C21.4472 29.537 22.5918 28.3924 22.5918 26.9804V3.01934C22.5918 1.60735 21.4472 0.462708 20.0352 0.462708Z" fill="url(#paint0_linear)" fill-opacity="0.1"/>
<path d="M25.2051 11.6081H10.2873C9.58957 11.6081 9.02393 12.1737 9.02393 12.8715V17.1288C9.02393 17.8266 9.58957 18.3922 10.2873 18.3922H25.2051C25.9028 18.3922 26.4684 17.8266 26.4684 17.1288V12.8715C26.4684 12.1737 25.9028 11.6081 25.2051 11.6081Z" fill="url(#paint1_linear)"/>
<path d="M16.7553 2.40118C16.7553 2.34042 16.7434 2.28023 16.7202 2.22406C16.697 2.1679 16.663 2.11685 16.6201 2.07383C16.5772 2.03081 16.5262 1.99667 16.4701 1.97335C16.414 1.95003 16.3538 1.938 16.2931 1.93793H13.3845C13.2618 1.93793 13.1441 1.98668 13.0573 2.07346C12.9705 2.16023 12.9218 2.27793 12.9218 2.40065C12.9218 2.52338 12.9705 2.64107 13.0573 2.72785C13.1441 2.81463 13.2618 2.86338 13.3845 2.86338H16.2931C16.4156 2.86324 16.5331 2.8145 16.6197 2.72785C16.7064 2.6412 16.7551 2.52372 16.7553 2.40118Z" fill="url(#paint2_linear)"/>
<path d="M10.7887 13.0835C10.666 13.0835 10.5483 13.1323 10.4615 13.2191C10.3747 13.3058 10.326 13.4235 10.326 13.5463V16.4548C10.326 16.5775 10.3747 16.6952 10.4615 16.782C10.5483 16.8688 10.666 16.9176 10.7887 16.9176H12.7271C12.8499 16.9176 12.9676 16.8688 13.0543 16.782C13.1411 16.6952 13.1899 16.5775 13.1899 16.4548V13.5463C13.1899 13.4235 13.1411 13.3058 13.0543 13.2191C12.9676 13.1323 12.8499 13.0835 12.7271 13.0835H10.7887ZM12.2644 15.9921H11.2514V14.009H12.2644V15.9921Z" fill="white"/>
<path d="M14.7809 13.0835C14.6581 13.0835 14.5404 13.1323 14.4537 13.2191C14.3669 13.3058 14.3181 13.4235 14.3181 13.5463V16.4548C14.3181 16.5775 14.3669 16.6952 14.4537 16.782C14.5404 16.8688 14.6581 16.9176 14.7809 16.9176H16.7193C16.842 16.9176 16.9597 16.8688 17.0465 16.782C17.1333 16.6952 17.182 16.5775 17.182 16.4548V13.5463C17.182 13.4235 17.1333 13.3058 17.0465 13.2191C16.9597 13.1323 16.842 13.0835 16.7193 13.0835H14.7809ZM16.2566 15.9921H15.2436V14.009H16.2566V15.9921Z" fill="white"/>
<path d="M20.7111 16.9165C20.8338 16.9165 20.9515 16.8677 21.0383 16.781C21.125 16.6942 21.1738 16.5765 21.1738 16.4538V13.5452C21.1738 13.4225 21.125 13.3048 21.0383 13.218C20.9515 13.1312 20.8338 13.0825 20.7111 13.0825H18.7729C18.6502 13.0825 18.5325 13.1312 18.4457 13.218C18.3589 13.3048 18.3102 13.4225 18.3102 13.5452V16.4538C18.3102 16.5765 18.3589 16.6942 18.4457 16.781C18.5325 16.8677 18.6502 16.9165 18.7729 16.9165H20.7111ZM19.2356 14.0079H20.2483V15.991H19.2356V14.0079Z" fill="white"/>
<path d="M24.7028 16.9165C24.8255 16.9165 24.9432 16.8677 25.03 16.781C25.1167 16.6942 25.1655 16.5765 25.1655 16.4538V13.5452C25.1655 13.4225 25.1167 13.3048 25.03 13.218C24.9432 13.1312 24.8255 13.0825 24.7028 13.0825H22.7646C22.6419 13.0825 22.5242 13.1312 22.4374 13.218C22.3506 13.3048 22.3019 13.4225 22.3019 13.5452V16.4538C22.3019 16.5765 22.3506 16.6942 22.4374 16.781C22.5242 16.8677 22.6419 16.9165 22.7646 16.9165H24.7028ZM23.2273 14.0079H24.2395V15.991H23.2268L23.2273 14.0079Z" fill="white"/>
<path d="M6.6228 26.9807C6.62371 27.7812 6.94211 28.5486 7.50815 29.1147C8.0742 29.6807 8.84165 29.9991 9.64216 30H20.0353C20.8358 29.9991 21.6033 29.6807 22.1693 29.1147C22.7354 28.5486 23.0538 27.7812 23.0547 26.9807V20.5303C23.0547 20.4075 23.0059 20.2898 22.9192 20.2031C22.8324 20.1163 22.7147 20.0675 22.592 20.0675C22.4692 20.0675 22.3515 20.1163 22.2648 20.2031C22.178 20.2898 22.1292 20.4075 22.1292 20.5303V26.9807C22.1286 27.5358 21.9078 28.068 21.5152 28.4606C21.1227 28.8531 20.5905 29.074 20.0353 29.0746H9.64216C9.08701 29.074 8.55479 28.8531 8.16224 28.4606C7.76969 28.068 7.54888 27.5358 7.54825 26.9807V7.66933C7.54825 7.54661 7.4995 7.42891 7.41272 7.34213C7.32595 7.25536 7.20825 7.2066 7.08553 7.2066C6.9628 7.2066 6.84511 7.25536 6.75833 7.34213C6.67155 7.42891 6.6228 7.54661 6.6228 7.66933V26.9807Z" fill="url(#paint3_linear)"/>
<path d="M6.6228 5.69502C6.6228 5.81774 6.67155 5.93544 6.75833 6.02222C6.84511 6.10899 6.9628 6.15775 7.08553 6.15775C7.20825 6.15775 7.32595 6.10899 7.41272 6.02222C7.4995 5.93544 7.54825 5.81774 7.54825 5.69502V5.49221C7.54825 5.36949 7.4995 5.25179 7.41272 5.16501C7.32595 5.07824 7.20825 5.02948 7.08553 5.02948C6.9628 5.02948 6.84511 5.07824 6.75833 5.16501C6.67155 5.25179 6.6228 5.36949 6.6228 5.49221V5.69502Z" fill="url(#paint4_linear)"/>
<path d="M20.0353 0H9.64216C8.84165 0.000909785 8.0742 0.319312 7.50815 0.885355C6.94211 1.4514 6.62371 2.21886 6.6228 3.01936C6.6228 3.14208 6.67155 3.25978 6.75833 3.34656C6.84511 3.43334 6.9628 3.48209 7.08553 3.48209C7.20825 3.48209 7.32595 3.43334 7.41272 3.34656C7.4995 3.25978 7.54825 3.14208 7.54825 3.01936C7.54888 2.46421 7.76969 1.93199 8.16224 1.53944C8.55479 1.14689 9.08701 0.926084 9.64216 0.925454H20.0353C20.5905 0.926084 21.1227 1.14689 21.5152 1.53944C21.9078 1.93199 22.1286 2.46421 22.1292 3.01936V11.1454H15.3705C15.2478 11.1454 15.1301 11.1941 15.0433 11.2809C14.9565 11.3677 14.9078 11.4854 14.9078 11.6081C14.9078 11.7308 14.9565 11.8485 15.0433 11.9353C15.1301 12.0221 15.2478 12.0708 15.3705 12.0708H25.2038C25.4161 12.071 25.6197 12.1555 25.7698 12.3056C25.9199 12.4557 26.0043 12.6592 26.0045 12.8715V17.1286C26.0043 17.3408 25.9199 17.5444 25.7698 17.6945C25.6197 17.8446 25.4161 17.929 25.2038 17.9292H10.2874C10.0751 17.929 9.87153 17.8446 9.72142 17.6945C9.57131 17.5444 9.48689 17.3408 9.48668 17.1286V12.8715C9.48689 12.6592 9.57131 12.4557 9.72142 12.3056C9.87153 12.1555 10.0751 12.071 10.2874 12.0708H13.2184C13.3412 12.0708 13.4588 12.0221 13.5456 11.9353C13.6324 11.8485 13.6812 11.7308 13.6812 11.6081C13.6812 11.4854 13.6324 11.3677 13.5456 11.2809C13.4588 11.1941 13.3412 11.1454 13.2184 11.1454H10.2874C9.82969 11.1459 9.39094 11.3279 9.06733 11.6515C8.74373 11.9751 8.56172 12.4138 8.56123 12.8715V17.1286C8.56172 17.5862 8.74373 18.025 9.06733 18.3486C9.39094 18.6722 9.82969 18.8542 10.2874 18.8547H25.2038C25.6615 18.8542 26.1002 18.6722 26.4238 18.3486C26.7474 18.025 26.9295 17.5862 26.93 17.1286V12.8715C26.9295 12.4138 26.7474 11.9751 26.4238 11.6515C26.1002 11.3279 25.6615 11.1459 25.2038 11.1454H23.0547V3.01936C23.0538 2.21886 22.7354 1.4514 22.1693 0.885355C21.6033 0.319312 20.8358 0.000909785 20.0353 0Z" fill="url(#paint5_linear)"/>
<defs>
<linearGradient id="paint0_linear" x1="7.08551" y1="0.468971" x2="7.08552" y2="29.5433" gradientUnits="userSpaceOnUse">
<stop stop-color="#2944CC"/>
<stop offset="1" stop-color="#3355FF"/>
</linearGradient>
<linearGradient id="paint1_linear" x1="17.7462" y1="11.6081" x2="17.7462" y2="18.3922" gradientUnits="userSpaceOnUse">
<stop stop-color="#E62E2E"/>
<stop offset="1" stop-color="#FF3333"/>
</linearGradient>
<linearGradient id="paint2_linear" x1="12.9218" y1="1.93813" x2="12.9218" y2="2.86358" gradientUnits="userSpaceOnUse">
<stop stop-color="#2944CC"/>
<stop offset="1" stop-color="#3355FF"/>
</linearGradient>
<linearGradient id="paint3_linear" x1="6.6228" y1="7.21151" x2="6.6228" y2="30.0049" gradientUnits="userSpaceOnUse">
<stop stop-color="#2944CC"/>
<stop offset="1" stop-color="#3355FF"/>
</linearGradient>
<linearGradient id="paint4_linear" x1="6.6228" y1="5.02973" x2="6.6228" y2="6.15799" gradientUnits="userSpaceOnUse">
<stop stop-color="#2944CC"/>
<stop offset="1" stop-color="#3355FF"/>
</linearGradient>
<linearGradient id="paint5_linear" x1="6.6228" y1="0.00406145" x2="6.6228" y2="18.8587" gradientUnits="userSpaceOnUse">
<stop stop-color="#2944CC"/>
<stop offset="1" stop-color="#3355FF"/>
</linearGradient>
</defs>
</svg>
