<svg width="31" height="30" viewBox="0 0 31 30" fill="none" xmlns="http://www.w3.org/2000/svg">
<g clip-path="url(#clip0)">
<path d="M27.8338 17.2801C27.8288 17.2551 27.8188 17.2301 27.8138 17.2051L27.7838 17.1301C27.2872 15.6754 26.1469 14.5314 24.6938 14.0301C24.4915 13.9573 24.2843 13.8988 24.0738 13.8551C22.4266 14.1813 21.0555 15.3172 20.4288 16.8751C20.1826 17.4694 20.0568 18.1068 20.0588 18.7501C20.0588 18.8801 20.0638 19.0051 20.0737 19.1201C20.1349 19.9822 20.4211 20.8132 20.9038 21.5301C21.2317 22.0196 21.6429 22.4478 22.1188 22.7951C22.6963 23.2164 23.3581 23.508 24.0588 23.6501C24.7594 23.508 25.4212 23.2164 25.9988 22.7951C27.2899 21.8513 28.0548 20.3494 28.0588 18.7501C28.0601 18.2514 27.9842 17.7555 27.8338 17.2801ZM26.8988 20.4401C26.7876 20.5645 26.6636 20.6769 26.5288 20.7751C26.3931 20.8708 26.2492 20.9545 26.0988 21.0251C25.4518 21.3199 24.71 21.3254 24.0588 21.0401C24.0438 21.0351 24.0338 21.0301 24.0188 21.0251C23.8684 20.9545 23.7245 20.8708 23.5888 20.7751C23.454 20.6769 23.3299 20.5645 23.2188 20.4401C22.794 19.9799 22.5583 19.3764 22.5588 18.7501C22.5578 18.5854 22.5746 18.4212 22.6088 18.2601L23.7488 16.6201C23.8479 16.5589 23.9515 16.5054 24.0588 16.4601C24.2209 16.3888 24.3902 16.3352 24.5638 16.3001C24.8904 16.2334 25.2271 16.2334 25.5538 16.3001C26.2641 16.444 26.8771 16.8891 27.2338 17.5201C27.3181 17.664 27.3868 17.8165 27.4388 17.9751C27.4903 18.1342 27.5238 18.2985 27.5388 18.4651C27.553 18.5594 27.5598 18.6547 27.5588 18.7501C27.5593 19.3764 27.3236 19.9799 26.8988 20.4401Z" fill="white"/>
<path d="M27.5588 18.7501C27.5593 19.3764 27.3237 19.9799 26.8988 20.4401C26.7877 20.5646 26.6637 20.6768 26.5288 20.7751C26.3931 20.8709 26.2492 20.9546 26.0988 21.0251C25.7722 21.1737 25.4176 21.2504 25.0588 21.2501C24.8905 21.2522 24.7227 21.2337 24.5588 21.1951C24.3724 21.1613 24.191 21.1041 24.0188 21.0251C23.8684 20.9546 23.7246 20.8709 23.5888 20.7751C23.454 20.6768 23.3299 20.5646 23.2188 20.4401C22.794 19.9799 22.5583 19.3764 22.5588 18.7501C22.5579 18.5855 22.5746 18.4212 22.6088 18.2601L23.7488 16.6201C23.9973 16.4689 24.2694 16.3607 24.5538 16.3001H24.5638C24.8905 16.2335 25.2272 16.2335 25.5538 16.3001C26.2642 16.444 26.8771 16.8891 27.2338 17.5201C27.3182 17.664 27.3869 17.8166 27.4388 17.9751C27.4903 18.1342 27.5239 18.2985 27.5388 18.4651C27.5531 18.5594 27.5598 18.6547 27.5588 18.7501Z" fill="url(#paint0_linear)"/>
<path d="M26.5588 18.7501C26.5593 19.3764 26.3236 19.9798 25.8988 20.44C25.7877 20.5645 25.6636 20.6768 25.5288 20.7751C25.3931 20.8708 25.2492 20.9545 25.0988 21.025C24.9267 21.1041 24.7452 21.1612 24.5588 21.1951C24.3724 21.1612 24.191 21.1041 24.0188 21.025C23.8684 20.9545 23.7246 20.8708 23.5888 20.7751C23.454 20.6768 23.3299 20.5645 23.2188 20.44C22.794 19.9798 22.5583 19.3764 22.5588 18.7501C22.5579 18.5854 22.5746 18.4211 22.6088 18.2601L23.7488 16.6201C23.9973 16.4689 24.2694 16.3606 24.5538 16.3H24.5638C25.2692 16.4495 25.8769 16.8935 26.2338 17.5201C26.3182 17.664 26.3869 17.8165 26.4388 17.9751C26.4903 18.1341 26.5239 18.2985 26.5388 18.4651C26.5531 18.5593 26.5598 18.6547 26.5588 18.7501Z" fill="url(#paint1_linear)"/>
<path d="M20.5288 14.425L23.7488 16.6201L25.6288 17.9301C26.0493 18.256 26.141 18.8542 25.8372 19.2912C25.5335 19.7281 24.9409 19.8507 24.4888 19.57L22.6088 18.2601L21.7738 17.6851L19.3888 16.0651" fill="url(#paint2_linear)"/>
<path d="M6.05889 12.75H3.0589C2.78275 12.75 2.5589 12.5262 2.5589 12.25V11.25C2.5589 10.9739 2.78275 10.75 3.0589 10.75H4.6789C5.5889 11.68 5.3089 12.75 6.05889 12.75Z" fill="white"/>
<path d="M9.93875 19.8601C9.66599 21.0398 8.97725 22.0817 7.99877 22.795C7.14563 23.4187 6.11549 23.7533 5.05874 23.75C4.6564 23.7488 4.25549 23.7018 3.86375 23.61C1.63015 23.0586 0.0603889 21.0551 0.0592048 18.7545C0.0580207 16.4538 1.62572 14.4488 3.85874 13.895H3.86875C4.258 13.7982 4.65764 13.7496 5.05874 13.75C7.22621 13.7457 9.14819 15.1422 9.81377 17.205C9.85877 17.355 9.90377 17.495 9.93377 17.635C9.97379 17.8928 9.80885 18.138 9.55505 18.1982C9.30119 18.2584 9.04373 18.1133 8.96375 17.865L8.95877 19.64C9.01949 19.3694 9.28811 19.1993 9.55877 19.2601C9.82937 19.3208 9.99947 19.5894 9.93875 19.8601Z" fill="white"/>
<path d="M7.69181 19.86C7.26629 21.7035 5.84254 23.1523 4.00681 23.61C1.77322 23.0585 0.203455 21.0551 0.202271 18.7545C0.201087 16.4538 1.76879 14.4488 4.00181 13.895H4.01181C5.69094 14.3066 7.03655 15.5595 7.56683 17.205C7.61183 17.355 7.65683 17.495 7.68683 17.635C7.74449 17.814 7.69685 18.0102 7.56347 18.1428C7.43015 18.2754 7.23371 18.322 7.05503 18.2634C6.87635 18.2048 6.74567 18.0509 6.71681 17.865L6.71183 19.64C6.77255 19.3694 7.04117 19.1993 7.31183 19.26C7.58243 19.3208 7.75259 19.5894 7.69181 19.86Z" fill="white"/>
<path d="M7.3538 17.75V19.75C7.16978 20.1559 6.88597 20.5085 6.5288 20.7751C6.39307 20.8708 6.24919 20.9545 6.09883 21.025C5.77224 21.1736 5.41758 21.2503 5.05881 21.25C4.84062 21.251 4.62341 21.2207 4.41381 21.16C4.27746 21.1301 4.14494 21.0848 4.01881 21.025C3.86843 20.9545 3.72454 20.8708 3.58881 20.7751C3.45397 20.6768 3.32995 20.5645 3.21881 20.44C2.79397 19.9798 2.5583 19.3763 2.55881 18.75C2.55783 18.6546 2.56452 18.5593 2.57881 18.4651C2.59377 18.2985 2.62731 18.1341 2.67881 17.975C2.73073 17.8165 2.79946 17.6639 2.88381 17.52C3.21205 16.9391 3.75959 16.514 4.40381 16.34C4.45637 16.3238 4.50978 16.3104 4.56381 16.3C4.72653 16.2656 4.89249 16.2488 5.05881 16.25C5.22544 16.248 5.39169 16.2665 5.55381 16.305C6.35425 16.4628 7.02662 17.0027 7.3538 17.75Z" fill="url(#paint3_linear)"/>
<path d="M6.05881 17.75V19.7499C5.8748 20.1558 5.59097 20.5085 5.23381 20.7749C5.09808 20.8707 4.9542 20.9544 4.80381 21.0249C4.67852 21.0825 4.5479 21.1278 4.41381 21.16C4.27746 21.1301 4.14494 21.0848 4.01881 21.0249C3.86843 20.9544 3.72454 20.8707 3.58881 20.7749C3.45397 20.6767 3.32995 20.5644 3.21881 20.4399C2.79397 19.9797 2.5583 19.3763 2.55881 18.7499C2.55783 18.6546 2.56452 18.5592 2.57881 18.4649C2.59377 18.2984 2.62731 18.134 2.67881 17.975C2.73073 17.8164 2.79946 17.6639 2.88381 17.5199C3.21205 16.9389 3.75959 16.5139 4.40381 16.34C5.1423 16.5317 5.7522 17.0513 6.05881 17.75Z" fill="url(#paint4_linear)"/>
<path d="M12.6639 17.7501H5.0589C4.50831 17.7542 4.06298 18.1995 4.0589 18.7501C4.06054 19.3017 4.5073 19.7485 5.0589 19.7501H12.6389L12.6639 17.7501Z" fill="url(#paint5_linear)"/>
<path d="M26.5287 14.5001C26.1393 14.3613 25.7316 14.2805 25.3187 14.2601C25.3187 14.2573 25.3165 14.2551 25.3137 14.2551L25.0187 14.445L24.9637 14.4801L24.4037 14.8451C23.936 14.7885 23.4646 14.7684 22.9937 14.7851C22.5887 14.7851 22.2437 14.79 22.1837 14.7801L20.1187 12.78C20.7387 11.9751 22.4587 11.4651 22.0937 10.395C21.6815 9.283 21.1179 8.23306 20.4187 7.27504C20.2037 6.97504 20.0587 6.79504 20.0587 6.79504C24.7187 7.07506 26.3637 13.3601 26.5287 14.5001Z" fill="white"/>
<path d="M25.0289 14.4999C25.008 14.491 24.9862 14.4843 24.964 14.4799C24.5945 14.353 24.209 14.279 23.8189 14.2599C23.8189 14.2572 23.8167 14.2549 23.8139 14.2549L22.9939 14.7849C22.5889 14.7849 22.2439 14.7899 22.1839 14.7799L20.1189 12.7799C20.7389 11.9749 22.459 11.4649 22.0939 10.3949C21.6818 9.2828 21.1181 8.23292 20.419 7.2749C23.614 8.77994 24.844 13.3599 25.0189 14.4449C25.0243 14.4628 25.0276 14.4813 25.0289 14.4999Z" fill="white"/>
<path d="M21.3188 21.25H11.0588L11.4738 20.4151L11.5588 20.2501L12.9638 18.77C13.0278 18.7557 13.0933 18.749 13.1588 18.75H14.5588C15.1104 18.7484 15.5572 18.3016 15.5588 17.75V17.41C15.5593 17.303 15.5425 17.1966 15.5088 17.095L15.5588 16.25L15.5338 15.675L15.5288 15.625C15.4084 15.6017 15.2898 15.5699 15.1738 15.53L16.6489 15.69C16.9112 15.729 17.1481 15.869 17.3089 16.08L18.3188 17.4301C18.4724 17.636 18.7002 17.774 18.9538 17.815L20.5738 19.085C20.6285 19.8594 20.8854 20.606 21.3188 21.25Z" fill="white"/>
<path d="M20.3188 21.25H11.0588L11.4738 20.415L11.5588 20.25L12.9638 18.77C13.0278 18.7557 13.0933 18.749 13.1588 18.75H14.5588C15.1104 18.7484 15.5572 18.3016 15.5588 17.75V17.41C15.5593 17.303 15.5425 17.1966 15.5088 17.095L15.5588 16.25L15.5338 15.675L15.6488 15.69C15.9112 15.729 16.148 15.869 16.3088 16.08L17.3188 17.43C17.4724 17.636 17.7002 17.774 17.9538 17.815L19.5738 19.085C19.6285 19.8594 19.8854 20.606 20.3188 21.25Z" fill="url(#paint6_linear)"/>
<path d="M12.8389 19.75H14.1589C14.0934 19.749 14.0279 19.7556 13.9639 19.77L11.5589 20.25C11.5739 20.155 11.5939 20.065 11.6089 19.975L12.6439 19.77C12.7079 19.7556 12.7734 19.749 12.8389 19.75Z" fill="white"/>
<path d="M21.9289 13.375L15.7689 15.6651L16.0589 16.75L16.5089 18.0951C16.5425 18.1966 16.5594 18.303 16.5589 18.4101V18.75C16.5572 19.3017 16.1105 19.7484 15.5589 19.75H14.2389C14.7905 19.7484 15.2372 19.3017 15.2389 18.75V18.4101C15.2394 18.303 15.2225 18.1966 15.1889 18.0951L14.7389 16.75L14.4439 15.6651L20.6089 13.375C21.1589 12.6651 21.1489 11.715 20.8889 10.765L22.0939 10.395C22.4589 11.4651 22.5489 12.57 21.9289 13.375Z" fill="white"/>
<path d="M20.6087 13.375L14.4437 15.665L14.7387 16.75L15.1887 18.095C15.2223 18.1966 15.2393 18.303 15.2387 18.41V18.75C15.2371 19.3016 14.7903 19.7483 14.2387 19.75H12.8387C12.7731 19.749 12.7077 19.7557 12.6437 19.77L11.6087 19.975L11.6387 19.75C11.7314 19.0871 11.7398 18.4151 11.6637 17.75C11.3527 14.8933 8.93223 12.7341 6.05871 12.75C5.30871 12.75 4.08871 11.68 3.17871 10.75C2.48371 10.05 1.96871 9.43498 1.96871 9.43498C1.89473 9.38356 1.85759 9.29368 1.87371 9.205C1.8783 9.13366 1.91467 9.06808 1.97279 9.02644C2.03091 8.9848 2.10466 8.97142 2.17371 8.99002L8.02371 10.24C8.04777 10.2461 8.07123 10.2545 8.09373 10.265L11.6887 11.61C11.9263 11.6977 12.1214 11.873 12.2337 12.1L12.3737 12.38C12.4936 12.6166 12.702 12.7962 12.9537 12.88L13.2687 12.985L13.6637 13.12C13.9158 13.2051 14.1914 13.1853 14.4287 13.065L16.0237 12.27C16.0468 12.2558 16.0722 12.2456 16.0987 12.24L20.5037 10.88L20.8887 10.765C21.1487 11.715 21.1587 12.665 20.6087 13.375Z" fill="url(#paint7_linear)"/>
<path d="M25.3138 14.2551C25.2288 14.2501 25.1438 14.2501 25.0588 14.2501C23.2251 14.2512 21.5754 15.3648 20.8888 17.0651C20.6692 17.5996 20.5571 18.1722 20.5588 18.7501C20.5588 18.8651 20.5638 18.9751 20.5738 19.0851L18.9538 18.8151C18.7002 18.7741 18.4724 18.636 18.3188 18.4301L18.2938 18.4001L17.3088 17.0801C17.148 16.8691 16.9112 16.7292 16.6488 16.6901L16.1888 16.6251L13.9788 16.3101C13.8365 16.238 13.7405 16.0987 13.7238 15.9401C13.709 15.8651 13.7141 15.7875 13.7388 15.7151L13.9788 14.9851C14.0309 14.838 14.1467 14.7222 14.2938 14.6701L15.4938 14.2701C15.5338 14.2601 15.5838 14.2451 15.6288 14.2351L21.0588 13.2501L21.9288 13.3751L24.0438 13.6801L24.3338 13.7201C24.4818 13.7407 24.6235 13.7937 24.7488 13.8751L25.3138 14.2551Z" fill="white"/>
<path d="M24.1588 13.7551C24.0738 13.7501 23.9888 13.7501 23.9038 13.7501C22.0701 13.7512 20.4204 14.8648 19.7338 16.5651C19.5142 17.0997 19.4021 17.6722 19.4038 18.2501C19.4038 18.3651 19.4088 18.4751 19.4188 18.5851L18.2938 18.4001L17.3088 17.0801C17.148 16.8691 16.9112 16.7292 16.6488 16.6901L16.1888 16.6251L16.1538 16.5801C15.993 16.3691 15.7562 16.2291 15.4938 16.1901L13.7238 15.9401C13.709 15.8651 13.7141 15.7875 13.7388 15.7151L13.9788 14.9851C14.0309 14.838 14.1467 14.7222 14.2938 14.6701L15.4938 14.2701C15.5338 14.2601 15.5838 14.2451 15.6288 14.2351L21.0588 13.2501L21.9288 13.3751L24.0438 13.6801L24.1588 13.7551Z" fill="url(#paint8_linear)"/>
<path d="M29.8338 17.28C29.8289 17.255 29.8188 17.23 29.8139 17.205L29.7839 17.13C29.2873 15.6753 28.147 14.5313 26.6939 14.03C26.2805 13.8802 25.8477 13.791 25.4089 13.765C25.3877 13.7592 25.3658 13.7559 25.3439 13.755C25.2539 13.75 25.1639 13.755 25.0739 13.755C25.0689 13.755 25.0639 13.75 25.0589 13.75C25.0539 13.75 25.0489 13.755 25.0439 13.755C24.7181 13.7578 24.3933 13.7913 24.0739 13.855C24.2844 13.8987 24.4916 13.9572 24.6939 14.03C26.147 14.5313 27.2873 15.6753 27.7839 17.13L27.8139 17.205C27.8189 17.23 27.8289 17.255 27.8339 17.28C27.9843 17.7555 28.0602 18.2513 28.0589 18.75C28.0549 20.3493 27.29 21.8512 25.9989 22.795C25.4213 23.2163 24.7595 23.508 24.0589 23.65C24.3881 23.7162 24.723 23.7497 25.0589 23.75C26.1156 23.7533 27.1458 23.4187 27.9989 22.795C29.29 21.8512 30.0549 20.3493 30.0588 18.75C30.0602 18.2513 29.9843 17.7555 29.8338 17.28Z" fill="white"/>
<path d="M2.55872 11.25V12.25C2.55872 12.5261 2.78257 12.75 3.05871 12.75H4.55871C4.28257 12.75 4.05872 12.5261 4.05872 12.25V11.25C4.05872 10.9739 4.28257 10.75 4.55871 10.75H4.67871C3.98372 10.05 3.46871 9.43498 3.46871 9.43498C3.41031 9.3916 3.37643 9.32272 3.37772 9.25L2.17371 8.99002C2.10466 8.97142 2.03091 8.9848 1.97279 9.02644C1.91467 9.06808 1.8783 9.13366 1.87371 9.205C1.85759 9.29368 1.89473 9.38356 1.96871 9.43498C1.96871 9.43498 2.48371 10.05 3.17871 10.75H3.05871C2.78257 10.75 2.55872 10.9739 2.55872 11.25Z" fill="white"/>
<path d="M2.11882 22.795C2.64244 23.1768 3.23501 23.4535 3.86382 23.61C4.25557 23.7018 4.65648 23.7488 5.05882 23.75C5.31578 23.7498 5.57235 23.73 5.82633 23.691C5.67132 23.669 5.51632 23.645 5.36382 23.61C3.13023 23.0585 1.56046 21.0551 1.55928 18.7545C1.5581 16.4538 3.1258 14.4488 5.35882 13.895H5.36883C5.51883 13.8575 5.67333 13.833 5.82832 13.81C5.57374 13.7703 5.31648 13.7502 5.05882 13.75C4.65772 13.7496 4.25808 13.7982 3.86883 13.895H3.85882C1.97003 14.3612 0.523129 15.8807 0.149844 17.79C-0.22344 19.6993 0.544672 21.6518 2.11882 22.795Z" fill="white"/>
<path d="M2.27839 8.5L5.45489 9.17902L7.04342 9.51802L7.8374 9.688L8.03738 9.73048L8.14742 9.75502C8.2154 9.77452 8.29388 9.805 8.31092 9.811L8.6909 9.95302L11.8654 11.1405L11.5154 12.0775L8.3309 10.886L7.9499 10.7435C7.9034 10.7255 7.9184 10.7335 7.9229 10.7295C7.9124 10.725 7.8629 10.716 7.83488 10.7095L7.6349 10.667L6.8399 10.497L5.24989 10.1575L2.06989 9.478L2.27839 8.5Z" fill="white"/>
<path d="M5.81134 9.40409L5.73734 9.46505C5.71277 9.48833 5.69157 9.51491 5.67434 9.54407C5.65372 9.56861 5.63688 9.59609 5.62434 9.62555C5.61226 9.65693 5.60207 9.68897 5.59384 9.72155C5.56863 9.85163 5.59345 9.98645 5.66334 10.0991C5.75172 10.2426 5.90755 10.3307 6.07612 10.3326C6.24466 10.3344 6.40234 10.2497 6.49384 10.1081C6.53146 10.0547 6.55798 9.99437 6.57184 9.93059C6.60034 9.80045 6.5755 9.66431 6.5029 9.55271C6.43024 9.44105 6.31588 9.36317 6.18532 9.33659C6.05662 9.31127 5.92309 9.33539 5.81134 9.40409Z" fill="url(#paint9_linear)"/>
<path d="M29.8143 17.2061C29.8143 17.2021 29.8094 17.1996 29.8083 17.1956C29.3522 15.8111 28.3172 14.6932 26.9718 14.1321C26.5809 12.1501 24.6588 6.57059 20.0889 6.29609C19.8909 6.28247 19.704 6.38861 19.6143 6.56555C19.5237 6.74159 19.5455 6.95453 19.6698 7.10855C20.378 8.02121 20.9718 9.01709 21.4379 10.0741L20.5878 10.3361L18.5909 9.00755C18.3444 8.83883 18.0525 8.74901 17.7539 8.75009H14.5589C14.2827 8.75009 14.0589 8.97395 14.0589 9.25007C14.0589 9.52619 14.2827 9.75005 14.5589 9.75005H17.7539C17.853 9.75029 17.9499 9.78023 18.0318 9.83609L19.3548 10.7161L15.9984 11.7501C15.9283 11.7635 15.8607 11.788 15.7983 11.8226L14.1983 12.6196C14.0811 12.6793 13.9448 12.689 13.8204 12.6466L13.1084 12.4056C12.9824 12.3635 12.8779 12.2738 12.8174 12.1556L12.6794 11.8806C12.5117 11.538 12.2183 11.2733 11.8604 11.1416L8.15884 9.76109C8.02762 9.72599 7.88776 9.74675 7.77238 9.81845C7.657 9.89015 7.57648 10.0064 7.54984 10.1396C7.49956 10.4024 7.65946 10.6598 7.91734 10.7311L11.5103 12.0781C11.6299 12.1211 11.7279 12.2093 11.7833 12.3236L11.9253 12.6071C12.1043 12.96 12.4154 13.2281 12.7908 13.3531L13.5029 13.5941C13.6572 13.6459 13.819 13.6724 13.9818 13.6726C14.2139 13.6727 14.4427 13.6177 14.6493 13.5121L16.2794 12.7001C16.2659 12.7086 16.2438 12.7191 16.2443 12.7191L21.7589 11.0221C21.9547 11.6152 21.928 12.2592 21.6839 12.8341L21.1338 12.7551C21.0805 12.7476 21.0264 12.7486 20.9733 12.7581L15.5379 13.7456C15.4686 13.7585 15.4002 13.776 15.3333 13.7981L14.1378 14.1981C13.8397 14.2984 13.6057 14.5325 13.5054 14.8306L13.2639 15.5561C13.1731 15.8281 13.2035 16.126 13.3473 16.3741C13.4354 16.5231 13.5611 16.6464 13.7118 16.7316C13.7198 16.7367 13.7279 16.7414 13.7364 16.7456C13.8235 16.7955 13.9178 16.8317 14.0159 16.8531L15.6764 17.1851L16.0334 18.2561C16.0504 18.307 16.059 18.3604 16.0589 18.4141V18.7501C16.0589 19.0262 15.835 19.2501 15.5589 19.2501H14.1588C14.06 19.2502 13.9613 19.26 13.8644 19.2796L12.1544 19.6216C12.4409 17.0516 11.6133 15.4106 10.8254 14.4666C9.73306 13.1935 8.1811 12.4049 6.50884 12.2731C6.47158 12.2607 6.433 12.253 6.39388 12.2501H6.05884C5.58685 12.2501 4.55885 11.4341 3.54985 10.4221C3.53657 10.4071 3.52237 10.3928 3.50735 10.3796C3.26935 10.1396 3.03335 9.88907 2.80735 9.63659L4.02735 9.89705C4.20214 9.93407 4.38338 9.87497 4.5028 9.74207C4.62222 9.60917 4.66167 9.42269 4.6063 9.25283C4.55093 9.08297 4.40914 8.95553 4.23435 8.91857L2.27835 8.50007C1.94722 8.42831 1.6091 8.58743 1.45338 8.88833C1.29766 9.18929 1.36302 9.55721 1.61285 9.78605C1.74735 9.94559 1.99735 10.2361 2.31835 10.5831C2.15166 10.7653 2.05909 11.0032 2.05885 11.2501V12.2501C2.05885 12.8024 2.50656 13.2501 3.05885 13.2501H6.05884C7.59508 13.2742 9.04894 13.9492 10.0589 15.1071C10.5705 15.7265 10.9214 16.4626 11.0804 17.2501H9.82684C9.82186 17.2351 9.81886 17.2211 9.81436 17.2061C9.14548 15.1459 7.22608 13.7506 5.06001 13.75C2.89392 13.7494 0.97379 15.1437 0.303848 17.2036C0.140501 17.7028 0.057796 18.2248 0.0588478 18.7501C0.062509 20.3491 0.827516 21.8506 2.11885 22.7936C3.87133 24.0685 6.24586 24.0685 7.99834 22.7936C8.86492 22.1633 9.50662 21.2719 9.82936 20.2501H10.9998L10.6089 21.0276C10.5317 21.1829 10.5405 21.3672 10.6322 21.5144C10.7239 21.6617 10.8854 21.7508 11.0588 21.7501H21.0684C21.3602 22.1371 21.7062 22.4801 22.0959 22.7686C22.1054 22.7761 22.1099 22.7871 22.1199 22.7941C22.1298 22.8011 22.1429 22.8046 22.1538 22.8116C23.8884 24.0628 26.2293 24.0628 27.9639 22.8116C27.9749 22.8046 27.9873 22.8021 27.9978 22.7941C28.0083 22.7861 28.0124 22.7761 28.0218 22.7686C29.7562 21.4987 30.4795 19.259 29.8154 17.2146L29.8143 17.2061ZM3.05885 12.2501V11.3471C3.37585 11.6571 3.71785 11.9686 4.06685 12.2501H3.05885ZM28.6743 17.0501L27.7173 17.3596C27.2823 16.5287 26.4837 15.9491 25.5588 15.7931V14.7846C26.9161 14.9582 28.0908 15.8125 28.6743 17.0501ZM26.2359 20.3696C25.5309 20.864 24.5921 20.8652 23.8859 20.3726C23.501 20.0927 23.228 19.6851 23.1158 19.2226L24.2034 19.9791C24.4527 20.155 24.7502 20.2496 25.0554 20.2501C25.1449 20.2501 25.2342 20.242 25.3224 20.2261C25.7157 20.1567 26.0646 19.9322 26.2908 19.6031C26.5178 19.2771 26.6056 18.8743 26.5349 18.4834C26.4643 18.0926 26.241 17.746 25.9143 17.5201L24.8309 16.7656C24.9065 16.7561 24.9826 16.751 25.0589 16.7501C25.9218 16.7496 26.6879 17.3027 26.9589 18.1221C27.0233 18.3253 27.057 18.5369 27.0588 18.7501C27.0604 19.3907 26.7542 19.9931 26.2359 20.3696ZM21.0588 18.7501C21.0589 18.4518 21.0924 18.1544 21.1589 17.8636L21.5178 18.1136C21.5223 18.1161 21.5249 18.1201 21.5288 18.1226L21.5364 18.1266L22.0688 18.4971C22.0619 18.5801 22.0563 18.6641 22.0563 18.7501C22.0549 19.535 22.3638 20.2886 22.9158 20.8466L22.3224 21.6621C21.5162 20.9082 21.0587 19.8538 21.0588 18.7501ZM24.5589 14.7846V15.7966C24.291 15.8411 24.0306 15.9222 23.7849 16.0376L22.8738 15.4041C23.3809 15.0717 23.9573 14.8598 24.5589 14.7846ZM22.0913 16.0776L25.3413 18.3406C25.4511 18.4154 25.5261 18.5312 25.5495 18.6619C25.5729 18.7927 25.5428 18.9273 25.4658 19.0356C25.3906 19.144 25.2753 19.2181 25.1454 19.2415C25.0155 19.2648 24.8816 19.2355 24.7734 19.1601L22.9008 17.8571L22.8888 17.8501L21.5189 16.8966C21.6749 16.6008 21.8672 16.3257 22.0913 16.0776ZM22.5684 10.2361C22.2218 9.27473 21.758 8.35979 21.1874 7.51205C24.1259 8.46959 25.4264 12.2046 25.8584 13.8201C25.7369 13.8006 25.6148 13.7826 25.4903 13.7701L25.0259 13.4586C24.8388 13.334 24.6263 13.2529 24.4038 13.2211L22.7088 12.9786C22.9761 12.0751 22.9266 11.1075 22.5684 10.2361ZM15.6489 14.7471C15.6715 14.7397 15.6945 14.7337 15.7179 14.7291L21.0678 13.7566L23.2998 14.0756C21.4413 14.7764 20.1739 16.511 20.0708 18.4946L19.0304 18.3211C18.9054 18.3004 18.7934 18.2321 18.7179 18.1306L17.7089 16.7771C17.4678 16.4609 17.1123 16.252 16.7189 16.1951L14.2229 15.8396L14.4543 15.1456L15.6489 14.7471ZM11.1843 19.2501H5.05885C4.7827 19.2501 4.55885 19.0262 4.55885 18.7501C4.55865 18.6154 4.614 18.4866 4.71185 18.3941C4.80304 18.3008 4.92839 18.2488 5.05885 18.2501H11.2019C11.2181 18.5834 11.2122 18.9175 11.1843 19.2501ZM6.23434 20.3696C5.52939 20.864 4.59057 20.8652 3.88435 20.3726C3.36473 19.9956 3.05766 19.3921 3.05885 18.7501C3.05987 18.5405 3.09171 18.3323 3.15335 18.1321C3.36122 17.4907 3.87825 16.9972 4.52862 16.8195C5.17899 16.6417 5.87514 16.8036 6.38038 17.2501H5.05885C4.23235 17.2547 3.56349 17.9236 3.55885 18.7501C3.55885 19.5785 4.23042 20.2501 5.05885 20.2501H6.37684C6.33088 20.2911 6.28588 20.3326 6.23584 20.3696H6.23434ZM8.75386 17.2501H7.65388C7.20508 16.4792 6.43792 15.9468 5.55885 15.7961V14.7896C6.99232 14.967 8.21614 15.9095 8.75386 17.2501ZM4.55885 14.7901V15.7931C3.6345 15.9497 2.8365 16.5294 2.40185 17.3601L1.44685 17.0501C2.02567 15.811 3.20149 14.9571 4.55885 14.7901ZM1.05885 18.7501C1.06093 18.4982 1.08705 18.247 1.13685 18.0001L2.09285 18.3096C2.07083 18.4554 2.05947 18.6026 2.05885 18.7501C2.05737 19.535 2.36634 20.2886 2.91835 20.8466L2.32335 21.6646C1.51921 20.9081 1.06189 19.8541 1.05885 18.7501ZM3.13635 22.2466L3.72535 21.4376C4.56537 21.8549 5.55233 21.8549 6.39238 21.4376L6.98134 22.2476C5.77997 22.8895 4.3374 22.8891 3.13635 22.2466ZM7.79338 21.6631L7.19884 20.8456C7.37488 20.6665 7.52836 20.4665 7.65586 20.2501H8.76688C8.5483 20.7859 8.21614 21.268 7.79338 21.6631ZM11.8653 20.7501L11.8943 20.6931L14.0589 20.2601C14.0918 20.2533 14.1252 20.2499 14.1588 20.2501H15.5589C16.3873 20.2501 17.0589 19.5785 17.0589 18.7501V18.4126C17.059 18.2512 17.033 18.0907 16.9818 17.9376L16.7513 17.2471C16.8123 17.2798 16.8659 17.3249 16.9083 17.3796L17.9204 18.7296C18.15 19.0379 18.4908 19.2447 18.8703 19.3061L20.1204 19.5151C20.186 19.9406 20.3067 20.3557 20.4794 20.7501H11.8653ZM23.1318 22.2531L23.7254 21.4376C24.5655 21.8545 25.5522 21.8545 26.3924 21.4376L26.9859 22.2536C25.7867 22.9163 24.3311 22.9163 23.1318 22.2536V22.2531ZM27.7929 21.6621L27.1994 20.8466C27.8612 20.1803 28.1674 19.2393 28.0244 18.3111L28.9859 17.9996C29.2475 19.3445 28.7965 20.7293 27.7929 21.6621Z" fill="url(#paint10_linear)"/>
</g>
<defs>
<linearGradient id="paint0_linear" x1="25.0588" y1="16.2501" x2="25.0588" y2="21.2502" gradientUnits="userSpaceOnUse">
<stop stop-color="#E62E2E"/>
<stop offset="1" stop-color="#FF3333"/>
</linearGradient>
<linearGradient id="paint1_linear" x1="24.5589" y1="16.3" x2="24.5589" y2="21.1951" gradientUnits="userSpaceOnUse">
<stop stop-color="#E62E2E"/>
<stop offset="1" stop-color="#FF3333"/>
</linearGradient>
<linearGradient id="paint2_linear" x1="22.7025" y1="14.425" x2="22.7025" y2="19.7205" gradientUnits="userSpaceOnUse">
<stop stop-color="#E62E2E"/>
<stop offset="1" stop-color="#FF3333"/>
</linearGradient>
<linearGradient id="paint3_linear" x1="4.95627" y1="16.2499" x2="4.95627" y2="21.2501" gradientUnits="userSpaceOnUse">
<stop stop-color="#E62E2E"/>
<stop offset="1" stop-color="#FF3333"/>
</linearGradient>
<linearGradient id="paint4_linear" x1="4.30876" y1="16.34" x2="4.30876" y2="21.16" gradientUnits="userSpaceOnUse">
<stop stop-color="#E62E2E"/>
<stop offset="1" stop-color="#FF3333"/>
</linearGradient>
<linearGradient id="paint5_linear" x1="8.36138" y1="17.7501" x2="8.36138" y2="19.7501" gradientUnits="userSpaceOnUse">
<stop stop-color="#E62E2E"/>
<stop offset="1" stop-color="#FF3333"/>
</linearGradient>
<linearGradient id="paint6_linear" x1="15.6888" y1="15.675" x2="15.6888" y2="21.25" gradientUnits="userSpaceOnUse">
<stop stop-color="#E62E2E"/>
<stop offset="1" stop-color="#FF3333"/>
</linearGradient>
<linearGradient id="paint7_linear" x1="11.4656" y1="8.9818" x2="11.4656" y2="19.975" gradientUnits="userSpaceOnUse">
<stop stop-color="#E62E2E"/>
<stop offset="1" stop-color="#FF3333"/>
</linearGradient>
<linearGradient id="paint8_linear" x1="18.9372" y1="13.2501" x2="18.9372" y2="18.5851" gradientUnits="userSpaceOnUse">
<stop stop-color="#E62E2E"/>
<stop offset="1" stop-color="#FF3333"/>
</linearGradient>
<linearGradient id="paint9_linear" x1="5.58423" y1="9.32699" x2="5.58423" y2="10.3328" gradientUnits="userSpaceOnUse">
<stop stop-color="#2944CC"/>
<stop offset="1" stop-color="#3355FF"/>
</linearGradient>
<linearGradient id="paint10_linear" x1="0.0588379" y1="6.29867" x2="0.0588384" y2="23.7538" gradientUnits="userSpaceOnUse">
<stop stop-color="#2944CC"/>
<stop offset="1" stop-color="#3355FF"/>
</linearGradient>
<clipPath id="clip0">
<rect width="30" height="30" fill="white" transform="translate(0.0588379)"/>
</clipPath>
</defs>
</svg>
