<svg width="31" height="30" viewBox="0 0 31 30" fill="none" xmlns="http://www.w3.org/2000/svg">
<g clip-path="url(#clip0)">
<path d="M13.8837 0.546429C8.82592 0.957162 4.35083 3.98206 2.08423 8.5222C-0.182368 13.0624 0.0893849 18.457 2.80076 22.7464C2.97755 23.0193 3.01217 23.3606 2.89376 23.6634L0.949262 28.5234C0.877797 28.7026 0.915762 28.9069 1.04681 29.0484C1.17787 29.1899 1.37865 29.2434 1.56276 29.1859L7.03026 27.4774C7.29976 27.3952 7.59133 27.4297 7.83426 27.5724C13.2413 30.6781 20.0284 29.9792 24.6891 25.8368C29.3498 21.6943 30.8402 15.0361 28.3902 9.30199C25.9403 3.56792 20.0989 0.0422065 13.8837 0.546429Z" fill="url(#paint0_linear)" fill-opacity="0.1"/>
<path d="M14.3142 0.524423C21.9825 0.930929 28.0042 7.24532 28.0464 14.9242C28.0888 22.603 22.137 28.9834 14.4737 29.4744C14.4407 29.4744 14.4093 29.4744 14.3763 29.4744C14.9084 29.5031 15.4416 29.5031 15.9737 29.4744C23.8884 28.9169 29.8852 22.1017 29.4311 14.1804C28.977 6.2592 22.2407 0.173886 14.3142 0.524423Z" fill="url(#paint1_linear)" fill-opacity="0.1"/>
<path d="M12.9727 17.0859C11.7955 15.9694 10.9952 14.5141 10.6832 12.9219C10.6318 12.6058 10.7367 12.2844 10.9647 12.0594L12.1147 10.9094C12.4462 10.5806 12.506 10.066 12.2587 9.66993L10.2312 6.4259C9.95785 5.98898 9.39719 5.83139 8.93622 6.0619L5.67571 7.6919C5.2984 7.87831 5.07917 8.28193 5.12821 8.6999C5.37121 10.7049 6.29971 15.1049 10.6282 19.4329C14.9567 23.7609 19.3562 24.6894 21.3612 24.9329C21.7783 24.9812 22.1808 24.7626 22.3672 24.3864L23.9972 21.1259C24.2277 20.6649 24.0701 20.1043 23.6332 19.8309L20.3887 17.7999C19.9937 17.5529 19.4805 17.6114 19.1512 17.9409L18.0012 19.0909C17.7763 19.3189 17.4548 19.4238 17.1387 19.3724C15.5462 19.0616 14.0901 18.2624 12.9727 17.0859Z" fill="url(#paint2_linear)"/>
<path d="M23.6327 19.8284L20.3887 17.8C19.9938 17.553 19.4806 17.6114 19.1513 17.941L19.1368 17.955L22.1327 19.8275C22.5696 20.1008 22.7273 20.6615 22.4968 21.1225L20.8668 24.3829C20.7792 24.5556 20.6433 24.6991 20.4757 24.7959C20.8062 24.8555 21.1037 24.8959 21.3607 24.9295C21.7778 24.9778 22.1803 24.7591 22.3667 24.3829L23.9968 21.1225C24.2267 20.6617 24.0691 20.1018 23.6327 19.8284Z" fill="url(#paint3_linear)" fill-opacity="0.1"/>
<path d="M2.89384 23.6625L0.949341 28.5234C0.877879 28.7027 0.915843 28.9069 1.0469 29.0484C1.17796 29.1899 1.37873 29.2435 1.56284 29.186L2.45884 28.9065C2.40402 28.7852 2.40114 28.6469 2.45084 28.5234L4.39384 23.6625C4.51225 23.3596 4.47763 23.0183 4.30084 22.7454C1.54323 18.3848 1.31047 12.8872 3.68963 8.30913C6.06878 3.73099 10.7014 0.761914 15.8548 0.512438C10.4347 0.216116 5.30269 2.97085 2.55426 7.65186C-0.194177 12.3328 -0.0990322 18.1567 2.80084 22.7454C2.97763 23.0183 3.01225 23.3596 2.89384 23.6625Z" fill="white"/>
<path d="M1.0323 9.69592L1.9668 10.0519C1.52165 11.2601 1.23329 12.5204 1.1088 13.8019L0.112305 13.7194C0.24453 12.3442 0.553753 10.9919 1.0323 9.69592Z" fill="white"/>
<path d="M12.4702 11.2609C12.9668 10.7684 13.0547 9.99716 12.6818 9.40548L10.6543 6.16146C10.2466 5.50288 9.40309 5.26535 8.71172 5.61446L5.45124 7.24446C4.88683 7.52654 4.55929 8.13167 4.63173 8.7585C4.97073 11.553 6.22423 15.735 10.2742 19.7844C14.3242 23.8339 18.5058 25.0879 21.3002 25.4269C21.9275 25.5017 22.5338 25.1735 22.8142 24.6075L24.4442 21.3469C24.7928 20.6556 24.5554 19.8124 23.8972 19.4045L20.6533 17.377C20.0618 17.0039 19.2905 17.0918 18.7982 17.5884L17.6482 18.7385C17.5372 18.8517 17.3784 18.9043 17.2217 18.88C15.7318 18.5862 14.3708 17.8346 13.3287 16.7299C12.224 15.6877 11.4723 14.3266 11.1788 12.8364C11.1547 12.6799 11.2073 12.5214 11.3203 12.4104L12.4702 11.2609ZM10.1902 13.005C10.519 14.6998 11.3681 16.2498 12.6193 17.4395C13.8088 18.6906 15.359 19.5397 17.0537 19.8684C17.5296 19.9458 18.0136 19.7892 18.3537 19.4475L19.5038 18.2975C19.6683 18.1328 19.9248 18.1036 20.1223 18.2269L23.3662 20.2545C23.5847 20.3911 23.6635 20.6715 23.5483 20.902L21.9182 24.162C21.8251 24.3486 21.6258 24.4579 21.4183 24.436C18.7797 24.1164 14.8268 22.9275 10.9787 19.0794C7.13073 15.2315 5.94174 11.2794 5.62224 8.63996C5.59908 8.43221 5.70866 8.23224 5.89623 8.13996L9.15624 6.50996C9.22592 6.47499 9.30281 6.45667 9.38072 6.45646C9.55284 6.45691 9.71269 6.54588 9.80372 6.69196L11.8337 9.93493C11.9571 10.1324 11.9279 10.3889 11.7632 10.5534L10.6132 11.7035C10.27 12.0433 10.1124 12.5282 10.1902 13.005Z" fill="url(#paint4_linear)"/>
<path d="M0.938849 12.2844C0.662704 12.2857 0.437728 12.0631 0.436347 11.7869C0.434966 11.5107 0.657705 11.2858 0.933844 11.2844H0.938849C1.21499 11.2844 1.43885 11.5082 1.43885 11.7844C1.43885 12.0606 1.21499 12.2844 0.938849 12.2844Z" fill="url(#paint5_linear)"/>
<path d="M2.42805 23.4768L0.484057 28.3378C0.34058 28.6962 0.416248 29.1052 0.678464 29.3885C0.94068 29.6719 1.34259 29.7791 1.71105 29.6638L7.17855 27.9553C7.31449 27.9132 7.46194 27.9314 7.58355 28.0053C9.85809 29.3155 12.4376 30.0036 15.0626 30.0003C15.3755 30.0003 15.6891 29.9906 16.003 29.9713C21.3823 29.63 26.1649 26.4288 28.5309 21.5857C30.8969 16.7426 30.4825 11.0025 27.4455 6.54951C24.4084 2.09651 19.2156 -0.384612 13.843 0.0502598C12.4372 0.176847 11.0548 0.491315 9.73252 0.985262C8.4142 1.48914 7.1749 2.1795 6.05256 3.03526C4.92016 3.87696 3.91761 4.88052 3.07706 6.01377C2.22742 7.14053 1.53881 8.38009 1.03106 9.69681C0.982192 9.82307 0.987009 9.96389 1.04439 10.0866C1.10178 10.2093 1.20676 10.3033 1.33506 10.3468C1.59082 10.4347 1.87018 10.3034 1.96556 10.0503C2.4397 8.82158 3.08253 7.66478 3.87555 6.61326C4.66113 5.55468 5.59856 4.61776 6.65756 3.83276C7.70486 3.03363 8.86149 2.38905 10.0921 1.91876C11.3242 1.4589 12.6119 1.16515 13.9216 1.04526C19.9225 0.557649 25.5631 3.96131 27.9291 9.49761C30.295 15.034 28.8565 21.463 24.3566 25.4629C19.8567 29.463 13.3034 30.138 8.08256 27.1393C7.71843 26.9279 7.2828 26.8776 6.88005 27.0003L1.41255 28.7093L3.35756 23.8503C3.53468 23.3984 3.48467 22.8891 3.22305 22.4803C1.58357 19.8978 0.840118 16.8474 1.10756 13.8003C1.13048 13.525 0.925869 13.2832 0.650557 13.2603C0.375243 13.2373 0.133477 13.4419 0.110557 13.7172C-0.174789 16.9808 0.621861 20.2476 2.37756 23.0133C2.46873 23.1504 2.48757 23.3232 2.42805 23.4768Z" fill="url(#paint6_linear)"/>
</g>
<defs>
<linearGradient id="paint0_linear" x1="0.557372" y1="0.504904" x2="0.557374" y2="29.5054" gradientUnits="userSpaceOnUse">
<stop stop-color="#2944CC"/>
<stop offset="1" stop-color="#3355FF"/>
</linearGradient>
<linearGradient id="paint1_linear" x1="14.3142" y1="0.516253" x2="14.3143" y2="29.5022" gradientUnits="userSpaceOnUse">
<stop stop-color="#2944CC"/>
<stop offset="1" stop-color="#3355FF"/>
</linearGradient>
<linearGradient id="paint2_linear" x1="14.6121" y1="5.95618" x2="14.6121" y2="24.9395" gradientUnits="userSpaceOnUse">
<stop stop-color="#E62E2E"/>
<stop offset="1" stop-color="#FF3333"/>
</linearGradient>
<linearGradient id="paint3_linear" x1="19.1368" y1="17.6494" x2="19.1368" y2="24.9377" gradientUnits="userSpaceOnUse">
<stop stop-color="#2944CC"/>
<stop offset="1" stop-color="#3355FF"/>
</linearGradient>
<linearGradient id="paint4_linear" x1="4.62177" y1="5.45828" x2="4.62177" y2="25.4418" gradientUnits="userSpaceOnUse">
<stop stop-color="#2944CC"/>
<stop offset="1" stop-color="#3355FF"/>
</linearGradient>
<linearGradient id="paint5_linear" x1="0.436341" y1="11.2846" x2="0.436341" y2="12.2846" gradientUnits="userSpaceOnUse">
<stop stop-color="#2944CC"/>
<stop offset="1" stop-color="#3355FF"/>
</linearGradient>
<linearGradient id="paint6_linear" x1="0.053833" y1="0.00768278" x2="0.0538345" y2="30.0067" gradientUnits="userSpaceOnUse">
<stop stop-color="#2944CC"/>
<stop offset="1" stop-color="#3355FF"/>
</linearGradient>
<clipPath id="clip0">
<rect width="30" height="30" fill="white" transform="translate(0.0588379)"/>
</clipPath>
</defs>
</svg>
