<svg width="31" height="30" viewBox="0 0 31 30" fill="none" xmlns="http://www.w3.org/2000/svg">
<g clip-path="url(#clip0)">
<path d="M8.85884 22.31L5.37384 25.795C4.14221 24.6874 3.10752 23.3788 2.31384 21.925L5.38884 18.85L6.29384 19.755L8.85884 22.31Z" fill="url(#paint0_linear)" fill-opacity="0.1"/>
<path d="M5.38885 18.85L2.31385 21.925C1.15873 19.7998 0.555309 17.4188 0.558853 15C0.558853 14.68 0.568853 14.36 0.593853 14.045L3.73885 17.19L5.38885 18.85Z" fill="url(#paint1_linear)" fill-opacity="0.1"/>
<path d="M16.5539 14.625L11.4239 19.755L1.50885 9.83998C2.39347 7.50948 3.86623 5.44762 5.78385 3.85498L16.5539 14.625Z" fill="url(#paint2_linear)" fill-opacity="0.1"/>
<path d="M19.8788 1.32501C18.6694 2.00253 17.7078 3.04824 17.1338 4.31001C16.7531 5.1415 16.557 6.04553 16.5588 6.96001C16.5591 7.9339 16.6766 8.90421 16.9088 9.85001L8.92383 1.86501C12.3633 0.25538 16.2976 0.0614504 19.8788 1.32501Z" fill="url(#paint3_linear)" fill-opacity="0.1"/>
<path d="M15.0588 0.500015C14.7663 0.500015 14.4768 0.510015 14.1888 0.527015C15.6175 0.583267 17.0298 0.852918 18.3788 1.32702C17.1694 2.00455 16.2078 3.05026 15.6338 4.31202C15.2534 5.1429 15.0573 6.04622 15.0588 6.96002C15.0588 7.33403 15.0813 7.69753 15.1143 8.05553L16.9088 9.85003C16.6766 8.90421 16.5591 7.93391 16.5588 6.96002C16.557 6.04555 16.7531 5.14151 17.1338 4.31002C17.7078 3.04826 18.6694 2.00255 19.8788 1.32502C18.331 0.776712 16.7008 0.497674 15.0588 0.500015Z" fill="url(#paint4_linear)" fill-opacity="0.1"/>
<path d="M28.1939 21.135C26.8834 23.9453 24.707 26.2619 21.9839 27.745L15.2689 21.03L20.2939 16.015C21.1169 16.9469 22.0447 17.7808 23.0589 18.5C23.5462 18.1611 24.0106 17.7903 24.4489 17.39L28.1939 21.135Z" fill="url(#paint5_linear)" fill-opacity="0.1"/>
<path d="M27.1504 20.0335C26.0666 22.9748 24.0563 25.4841 21.4224 27.1835L21.9839 27.745C24.7071 26.2619 26.8834 23.9453 28.1939 21.135" fill="url(#paint6_linear)" fill-opacity="0.1"/>
<path d="M29.5589 15C29.5598 15.7414 29.5046 16.4819 29.3939 17.215C29.1846 18.5726 28.7804 19.8929 28.1939 21.135L24.4489 17.39C25.5439 16.4113 26.5099 15.2974 27.3239 14.075C27.3835 13.9948 27.4386 13.9113 27.4889 13.825C28.091 12.8752 28.5762 11.8562 28.9339 10.79C29.3491 12.1548 29.5597 13.5735 29.5589 15Z" fill="url(#paint7_linear)" fill-opacity="0.1"/>
<path d="M28.9338 10.79C28.6695 11.5836 28.3317 12.3507 27.9248 13.0815C28.012 13.7173 28.0568 14.3582 28.0588 15C28.0597 15.7414 28.0045 16.4819 27.8938 17.215C27.741 18.1931 27.4876 19.1529 27.1378 20.079L28.1938 21.135C28.7803 19.8929 29.1844 18.5726 29.3938 17.215C29.5045 16.4819 29.5597 15.7414 29.5588 15C29.5596 13.5735 29.349 12.1548 28.9338 10.79Z" fill="url(#paint8_linear)" fill-opacity="0.1"/>
<path d="M18.2588 29.14C17.2094 29.382 16.1357 29.5028 15.0588 29.5C12.7483 29.504 10.4708 28.9518 8.41882 27.89L12.7138 23.595L18.2588 29.14Z" fill="url(#paint9_linear)" fill-opacity="0.1"/>
<path d="M21.9838 27.745C20.8144 28.3839 19.5602 28.8535 18.2588 29.14L12.7138 23.595L8.41881 27.89C7.31797 27.3255 6.29454 26.6213 5.37382 25.795L8.85882 22.31L6.29382 19.755L5.38881 18.85L3.73882 17.19L0.593811 14.045C0.680354 12.6046 0.988997 11.1862 1.50882 9.83999L11.4238 19.755L16.5538 14.625L5.78381 3.85499C6.73712 3.05469 7.79314 2.38543 8.92381 1.86499L16.9088 9.84999V9.85499C17.2676 11.2613 17.8482 12.6014 18.6288 13.825C18.6788 13.915 18.7388 13.99 18.7938 14.075C19.246 14.7572 19.7474 15.4056 20.2938 16.015L15.2688 21.03L21.9838 27.745Z" fill="white"/>
<path d="M16.9088 9.85V9.855C17.2676 11.2613 17.8482 12.6014 18.6288 13.825C18.6788 13.915 18.7388 13.99 18.7938 14.075C19.246 14.7572 19.7473 15.4056 20.2938 16.015L19.6468 16.9115C18.7662 16.0501 17.9777 15.0995 17.2938 14.075C17.2388 13.99 17.1788 13.915 17.1288 13.825C16.6892 13.13 16.3101 12.3984 15.9958 11.6385C15.5976 10.6405 15.3982 9.57441 15.4088 8.5L16.9088 9.85Z" fill="url(#paint10_linear)" fill-opacity="0.1"/>
<path d="M28.9838 4.31C27.9276 1.98664 25.6111 0.494995 23.0589 0.494995C20.5067 0.494995 18.1901 1.98664 17.1339 4.31C16.7532 5.14148 16.5571 6.04552 16.5589 6.96C16.5592 7.93388 16.6767 8.9042 16.9089 9.85V9.855C17.2677 11.2613 17.8482 12.6014 18.6288 13.825C18.6788 13.915 18.7389 13.99 18.7939 14.075C19.2461 14.7572 19.7474 15.4056 20.2939 16.015C21.1169 16.9469 22.0447 17.7808 23.0589 18.5C23.5462 18.1611 24.0105 17.7903 24.4488 17.39C25.5438 16.4113 26.5098 15.2974 27.3238 14.075C27.3834 13.9948 27.4386 13.9113 27.4889 13.825C28.091 12.8752 28.5761 11.8561 28.9339 10.79C29.3469 9.55526 29.5578 8.26197 29.5589 6.96C29.5606 6.04552 29.3645 5.14148 28.9838 4.31ZM23.0589 11C20.8498 11 19.0589 9.20914 19.0589 7C19.0589 4.79086 20.8498 3 23.0589 3C25.268 3 27.0589 4.79086 27.0589 7C27.0589 8.06086 26.6375 9.07828 25.8872 9.82843C25.1371 10.5786 24.1198 11 23.0589 11Z" fill="url(#paint11_linear)"/>
<path d="M28.9838 4.31001C27.9294 1.98576 25.611 0.494944 23.0588 0.500013C22.8109 0.502728 22.5633 0.519422 22.3173 0.550013C24.5802 0.809333 26.5412 2.23651 27.4838 4.31001C27.8645 5.14149 28.0606 6.04554 28.0588 6.96001C28.0578 8.26198 27.8468 9.55527 27.4338 10.79C27.0761 11.8561 26.5909 12.8752 25.9888 13.825C25.9385 13.9113 25.8834 13.9948 25.8238 14.075C25.0098 15.2974 24.0438 16.4113 22.9488 17.39C22.7113 17.603 22.4988 17.7825 22.3088 17.935C22.7668 18.306 23.0588 18.5 23.0588 18.5C23.5461 18.1611 24.0105 17.7903 24.4488 17.39C25.5438 16.4113 26.5098 15.2974 27.3238 14.075C27.3834 13.9948 27.4385 13.9113 27.4888 13.825C28.0909 12.8752 28.5761 11.8561 28.9338 10.79C29.3468 9.55527 29.5578 8.26198 29.5588 6.96001C29.5606 6.04554 29.3645 5.14149 28.9838 4.31001Z" fill="url(#paint12_linear)" fill-opacity="0.1"/>
<path d="M23.0588 3.00001C22.8071 3.00069 22.556 3.02496 22.3088 3.07251C24.1909 3.4358 25.5507 5.08318 25.5507 7C25.5507 8.91683 24.1909 10.5642 22.3088 10.9275C23.8025 11.2158 25.3304 10.6319 26.2511 9.42087C27.1718 8.20986 27.3259 6.58142 26.6486 5.21923C25.9714 3.85705 24.58 2.99694 23.0588 3.00001Z" fill="url(#paint13_linear)" fill-opacity="0.1"/>
<path d="M15.8833 29.481C8.18186 29.1262 2.10522 22.8057 2.05343 15.0963C2.00165 7.38682 7.99282 0.98532 15.6888 0.527038C15.7298 0.524538 15.7703 0.527038 15.8108 0.523038C15.2705 0.494382 14.729 0.495717 14.1888 0.527038C6.19341 0.994961 0.0911604 7.85586 0.559084 15.8513C1.02701 23.8467 7.88791 29.9489 15.8833 29.481Z" fill="white"/>
<path d="M3.50884 7.08603L2.68634 6.52053C3.46805 5.38124 4.40282 4.35495 5.46434 3.47052L6.10335 4.24003C5.11237 5.06551 4.23938 6.02312 3.50884 7.08603Z" fill="white"/>
<path d="M4.34687 5.73401C4.07072 5.73539 3.84575 5.51265 3.84437 5.23651C3.84299 4.96037 4.06572 4.73539 4.34187 4.73401H4.34687C4.62301 4.73401 4.84686 4.95787 4.84686 5.23401C4.84686 5.51015 4.62301 5.73401 4.34687 5.73401Z" fill="url(#paint14_linear)"/>
<path d="M29.4388 4.1025C28.643 2.35436 27.1641 1.00976 25.3483 0.383393C23.5326 -0.242978 21.5392 -0.0961551 19.8348 0.789501C16.187 -0.446442 12.2026 -0.223741 8.71535 1.411C7.5451 1.95026 6.4521 2.64338 5.46535 3.472C5.41299 3.51597 5.37027 3.57027 5.33985 3.6315C5.33476 3.64627 5.33042 3.66129 5.32685 3.6765C5.30693 3.72316 5.29412 3.77254 5.28885 3.823V3.8335C5.29096 3.85402 5.2943 3.87439 5.29885 3.8945C5.30043 3.93686 5.30731 3.97886 5.31935 4.0195C5.33114 4.04657 5.34537 4.07251 5.36185 4.097C5.3737 4.12477 5.38809 4.15139 5.40485 4.1765C5.40985 4.1825 5.41735 4.184 5.42235 4.1895C5.42735 4.195 5.42935 4.2035 5.43485 4.209L15.8468 14.6255L11.4238 19.05L2.09885 9.7235C2.47326 8.79648 2.94596 7.91226 3.50885 7.086C3.65843 6.86021 3.60478 6.55681 3.38685 6.396C3.27827 6.31606 3.14167 6.28414 3.00891 6.30766C2.87615 6.33119 2.75884 6.40812 2.68435 6.5205C2.0146 7.49833 1.46293 8.552 1.04084 9.6595V9.6635C0.504597 11.054 0.185693 12.5189 0.0953427 14.0065C0.0708427 14.3165 0.0588427 14.642 0.0588427 15C0.0546375 20.2776 2.82772 25.1681 7.35885 27.874C7.63252 28.0377 7.91069 28.1917 8.19335 28.336C10.314 29.4365 12.6696 30.0075 15.0588 30C16.1717 30.0023 17.2812 29.8775 18.3658 29.628C18.7018 29.554 19.0351 29.4683 19.3658 29.371C20.358 29.0774 21.3162 28.6794 22.2243 28.1835C25.0367 26.646 27.286 24.2524 28.6458 21.35C28.6498 21.342 28.6528 21.3335 28.6563 21.3255C29.2569 20.047 29.6713 18.689 29.8868 17.293C30.0016 16.5341 30.0591 15.7676 30.0588 15C30.0578 13.5783 29.8539 12.1641 29.4533 10.8C29.8524 9.55968 30.0567 8.26495 30.0588 6.962C30.0623 5.97511 29.8508 4.99931 29.4388 4.1025ZM28.5288 4.5175C28.8812 5.28409 29.0621 6.11832 29.0588 6.962C29.0385 9.31285 28.3429 11.6083 27.0548 13.575C27.0203 13.635 26.9828 13.6895 26.9443 13.7455L26.9088 13.8C25.862 15.3669 24.5607 16.7479 23.0588 17.886C21.5569 16.7463 20.2557 15.364 19.2088 13.796L19.1703 13.739C19.1333 13.685 19.0973 13.6325 19.0538 13.5585C17.7711 11.596 17.0787 9.30647 17.0588 6.962C17.0557 6.11721 17.2371 5.28193 17.5903 4.5145C18.5684 2.37312 20.7063 0.999642 23.0605 1.00029C25.4147 1.00093 27.5519 2.37558 28.5288 4.5175ZM18.7333 1.496C17.8486 2.18532 17.1441 3.07883 16.6803 4.1C16.2677 4.99754 16.0556 5.97418 16.0588 6.962C16.0614 7.43681 16.0911 7.91109 16.1478 8.3825L9.79486 2.0295C11.4651 1.34485 13.2536 0.995053 15.0588 1C16.3003 1.00072 17.5361 1.16753 18.7333 1.496ZM11.7773 20.109L16.9088 14.979C17.104 14.7838 17.104 14.4673 16.9088 14.272L6.53635 3.9C6.59585 3.854 6.65385 3.806 6.71385 3.761C6.78235 3.711 6.85085 3.661 6.92035 3.611C7.09702 3.48433 7.27635 3.36217 7.45835 3.2445C7.50485 3.2145 7.55085 3.1825 7.59735 3.1525C7.82602 3.00883 8.05819 2.8725 8.29385 2.7435C8.34984 2.713 8.40635 2.685 8.46235 2.655C8.58235 2.592 8.70385 2.5335 8.82485 2.474L16.4698 10.1185C16.8366 11.5194 17.4194 12.8546 18.1973 14.076C18.2428 14.155 18.2918 14.226 18.3413 14.301L18.3743 14.351C18.7523 14.9222 19.1646 15.4701 19.6088 15.9915L14.9138 20.677C14.8199 20.7708 14.7672 20.8981 14.7672 21.0308C14.7672 21.1635 14.8199 21.2907 14.9138 21.3845L21.1388 27.609C21.0858 27.6345 21.0343 27.663 20.9808 27.688C20.9008 27.7255 20.8198 27.7615 20.7393 27.797C20.5393 27.8853 20.3383 27.9687 20.1363 28.047C20.0633 28.0755 19.9908 28.105 19.9178 28.132C19.6443 28.232 19.3678 28.3265 19.0888 28.409C19.0658 28.416 19.0418 28.4215 19.0188 28.428C18.8188 28.4865 18.6133 28.5355 18.4088 28.585L13.0673 23.242C12.8721 23.0468 12.5556 23.0468 12.3603 23.242L8.33135 27.271C8.21785 27.209 8.10335 27.148 7.99135 27.083C7.93485 27.05 7.87735 27.0185 7.82135 26.983C7.59202 26.845 7.36619 26.7003 7.14385 26.549C7.10385 26.521 7.06435 26.4915 7.02435 26.463C6.84235 26.3353 6.66319 26.2035 6.48685 26.0675C6.42285 26.0175 6.35985 25.9675 6.29685 25.9175C6.23385 25.8675 6.17435 25.814 6.11285 25.7625L9.21286 22.6625C9.3069 22.5687 9.35975 22.4413 9.35975 22.3085C9.35975 22.1757 9.3069 22.0483 9.21286 21.9545L1.11435 13.8595C1.13535 13.587 1.15835 13.315 1.19535 13.046C1.19835 13.0225 1.20335 13 1.20685 12.977C1.24785 12.6885 1.29985 12.4025 1.35935 12.1185C1.37835 12.026 1.40035 11.9345 1.42185 11.843C1.47351 11.619 1.53085 11.3967 1.59385 11.176C1.61985 11.0855 1.64385 10.9945 1.67235 10.904C1.68735 10.854 1.70635 10.8085 1.72235 10.7605L11.0723 20.1105C11.2677 20.304 11.5827 20.3033 11.7773 20.109ZM2.44935 21.0835C1.57013 19.2536 1.09812 17.2549 1.06585 15.225L4.68635 18.846L2.44935 21.0835ZM2.94335 22.003L5.39335 19.553L8.15135 22.3115L5.36985 25.0925C4.42052 24.1812 3.60372 23.1412 2.94335 22.003ZM9.27085 27.7455L12.7138 24.3025L17.2383 28.827C14.5339 29.258 11.7625 28.8818 9.27085 27.7455ZM22.0618 27.1165L15.9763 21.031L20.2763 16.7375C21.0329 17.5498 21.8725 18.2806 22.7813 18.918C22.9482 19.0279 23.1644 19.0279 23.3313 18.918C23.7105 18.6572 24.0752 18.3759 24.4238 18.0755L27.5793 21.2315C26.3539 23.6896 24.4359 25.7353 22.0618 27.1165ZM29.0588 15C29.0594 15.7156 29.0062 16.4303 28.8998 17.138C28.7318 18.2093 28.4385 19.2572 28.0258 20.26L25.1723 17.4065C26.1404 16.49 27.0016 15.4668 27.7393 14.3565L27.7703 14.3115C27.8203 14.235 27.8733 14.1615 27.9108 14.094C28.2451 13.5634 28.5457 13.0123 28.8108 12.444C28.9718 13.2866 29.0548 14.1422 29.0588 15Z" fill="url(#paint15_linear)"/>
<path d="M23.0588 11.5C25.5441 11.5 27.5588 9.48528 27.5588 7C27.5588 4.51472 25.5441 2.5 23.0588 2.5C20.5735 2.5 18.5588 4.51472 18.5588 7C18.5615 9.48414 20.5747 11.4972 23.0588 11.5ZM23.0588 3.5C24.9918 3.5 26.5588 5.067 26.5588 7C26.5588 8.933 24.9918 10.5 23.0588 10.5C21.1258 10.5 19.5588 8.933 19.5588 7C19.561 5.06792 21.1267 3.5022 23.0588 3.5Z" fill="url(#paint16_linear)"/>
</g>
<defs>
<linearGradient id="paint0_linear" x1="2.31384" y1="18.8515" x2="2.31384" y2="25.7965" gradientUnits="userSpaceOnUse">
<stop stop-color="#2944CC"/>
<stop offset="1" stop-color="#3355FF"/>
</linearGradient>
<linearGradient id="paint1_linear" x1="0.558838" y1="14.0467" x2="0.558838" y2="21.9267" gradientUnits="userSpaceOnUse">
<stop stop-color="#2944CC"/>
<stop offset="1" stop-color="#3355FF"/>
</linearGradient>
<linearGradient id="paint2_linear" x1="1.50885" y1="3.8584" x2="1.50885" y2="19.7584" gradientUnits="userSpaceOnUse">
<stop stop-color="#2944CC"/>
<stop offset="1" stop-color="#3355FF"/>
</linearGradient>
<linearGradient id="paint3_linear" x1="8.92383" y1="0.502013" x2="8.92383" y2="9.85203" gradientUnits="userSpaceOnUse">
<stop stop-color="#2944CC"/>
<stop offset="1" stop-color="#3355FF"/>
</linearGradient>
<linearGradient id="paint4_linear" x1="14.1888" y1="0.502015" x2="14.1888" y2="9.85204" gradientUnits="userSpaceOnUse">
<stop stop-color="#2944CC"/>
<stop offset="1" stop-color="#3355FF"/>
</linearGradient>
<linearGradient id="paint5_linear" x1="15.2689" y1="16.0175" x2="15.2689" y2="27.7475" gradientUnits="userSpaceOnUse">
<stop stop-color="#2944CC"/>
<stop offset="1" stop-color="#3355FF"/>
</linearGradient>
<linearGradient id="paint6_linear" x1="21.4224" y1="20.0352" x2="21.4224" y2="27.7467" gradientUnits="userSpaceOnUse">
<stop stop-color="#2944CC"/>
<stop offset="1" stop-color="#3355FF"/>
</linearGradient>
<linearGradient id="paint7_linear" x1="24.4489" y1="10.7922" x2="24.4489" y2="21.1372" gradientUnits="userSpaceOnUse">
<stop stop-color="#2944CC"/>
<stop offset="1" stop-color="#3355FF"/>
</linearGradient>
<linearGradient id="paint8_linear" x1="27.1378" y1="10.7922" x2="27.1378" y2="21.1372" gradientUnits="userSpaceOnUse">
<stop stop-color="#2944CC"/>
<stop offset="1" stop-color="#3355FF"/>
</linearGradient>
<linearGradient id="paint9_linear" x1="8.41882" y1="23.5963" x2="8.41882" y2="29.5013" gradientUnits="userSpaceOnUse">
<stop stop-color="#2944CC"/>
<stop offset="1" stop-color="#3355FF"/>
</linearGradient>
<linearGradient id="paint10_linear" x1="15.4084" y1="8.50181" x2="15.4084" y2="16.9133" gradientUnits="userSpaceOnUse">
<stop stop-color="#2944CC"/>
<stop offset="1" stop-color="#3355FF"/>
</linearGradient>
<linearGradient id="paint11_linear" x1="23.0588" y1="0.494995" x2="23.0588" y2="18.5" gradientUnits="userSpaceOnUse">
<stop stop-color="#E62E2E"/>
<stop offset="1" stop-color="#FF3333"/>
</linearGradient>
<linearGradient id="paint12_linear" x1="22.3088" y1="0.503877" x2="22.3088" y2="18.5039" gradientUnits="userSpaceOnUse">
<stop stop-color="#2944CC"/>
<stop offset="1" stop-color="#3355FF"/>
</linearGradient>
<linearGradient id="paint13_linear" x1="22.3088" y1="3.00172" x2="22.3088" y2="11.0018" gradientUnits="userSpaceOnUse">
<stop stop-color="#2944CC"/>
<stop offset="1" stop-color="#3355FF"/>
</linearGradient>
<linearGradient id="paint14_linear" x1="3.84436" y1="4.73422" x2="3.84436" y2="5.73423" gradientUnits="userSpaceOnUse">
<stop stop-color="#2944CC"/>
<stop offset="1" stop-color="#3355FF"/>
</linearGradient>
<linearGradient id="paint15_linear" x1="0.0588379" y1="0.00695053" x2="0.0588394" y2="30.0065" gradientUnits="userSpaceOnUse">
<stop stop-color="#2944CC"/>
<stop offset="1" stop-color="#3355FF"/>
</linearGradient>
<linearGradient id="paint16_linear" x1="18.5588" y1="2.50194" x2="18.5588" y2="11.5019" gradientUnits="userSpaceOnUse">
<stop stop-color="#2944CC"/>
<stop offset="1" stop-color="#3355FF"/>
</linearGradient>
<clipPath id="clip0">
<rect width="30" height="30" fill="white" transform="translate(0.0588379)"/>
</clipPath>
</defs>
</svg>
