<svg width="31" height="30" viewBox="0 0 31 30" fill="none" xmlns="http://www.w3.org/2000/svg">
<g clip-path="url(#clip0)">
<path d="M27.0588 16.4844L25.3088 18.9843L22.0278 20.4844H18.0587L17.1528 17.1409L22.8087 14.0469L27.0902 14.4534L27.0588 16.4844Z" fill="white"/>
<path d="M3.80884 15.2554L4.55889 17.4845L8.45884 18.2999L9.81466 20.4844H12.0589L13.1529 17.9219L6.27778 13.6095L3.80884 15.2554Z" fill="white"/>
<path d="M18.6088 18.9844C18.308 19.6299 18.1268 20.3245 18.0739 21.0345C18.0522 21.2909 17.8363 21.4873 17.5788 21.4845H12.5388C12.2814 21.4873 12.0655 21.2909 12.0438 21.0345C11.9902 20.3252 11.8108 19.631 11.5139 18.9844L14.5088 17.9444L15.1188 17.7345L18.6088 18.9844Z" fill="white"/>
<path d="M17.4038 18.9844C17.103 19.6299 16.9217 20.3245 16.8689 21.0345C16.8471 21.2908 16.6313 21.4872 16.3737 21.4845H12.5388C12.2814 21.4872 12.0655 21.2908 12.0438 21.0345C11.9902 20.3252 11.8108 19.631 11.5139 18.9844L14.5088 17.9443L17.4038 18.9844Z" fill="white"/>
<path d="M18.6138 13.4843L17.3588 16.0995C17.1695 16.3433 16.8777 16.4856 16.5687 16.4845H12.3637C12.1659 16.485 11.9725 16.4257 11.8089 16.3145L7.80871 13.6544C7.64503 13.5431 7.45165 13.4838 7.25365 13.4843L2.55884 12.4844L2.92367 12.1195C3.44232 11.6018 4.05733 11.1907 4.73368 10.9094C5.4107 10.629 6.13603 10.4846 6.86869 10.4844C7.97005 10.4841 9.04675 10.8094 9.96385 11.4194L11.6537 12.5493C12.5708 13.1593 13.6475 13.4846 14.7489 13.4843H18.6138Z" fill="white"/>
<path d="M16.8637 13.4842L15.6088 16.0995C15.4195 16.3432 15.1276 16.4856 14.8187 16.4844H12.3637C12.1659 16.4849 11.9725 16.4256 11.8089 16.3144L7.80871 13.6543C7.64503 13.543 7.45165 13.4838 7.25365 13.4842L2.55884 12.4842L2.92367 12.1194C3.44232 11.6017 4.05733 11.1906 4.73368 10.9093C5.13719 10.7434 5.55833 10.6243 5.98886 10.5543C6.78445 10.6779 7.54363 10.9729 8.21383 11.4193L9.90367 12.5493C10.8208 13.1592 11.8975 13.4845 12.9988 13.4842H16.8637Z" fill="white"/>
<path d="M3.05881 12.4844L2.58983 14.4844H1.05884C0.782804 14.4844 0.55896 14.2605 0.55896 13.9844V12.9845C0.55896 12.7082 0.782804 12.4844 1.05884 12.4844H3.05881Z" fill="#E3E7F2"/>
<path opacity="0.5" d="M24.0588 8.98444L23.3287 11.4644L21.8087 11.1993L20.5588 10.9844L19.0337 8.41432L18.5787 7.64937L19.5588 7.48438L24.0588 8.98444Z" fill="url(#paint0_linear)"/>
<path d="M22.3089 9.50463L21.8088 11.1994L20.5588 10.9845L19.0338 8.41443L22.3089 9.50463Z" fill="white"/>
<path d="M19.5589 7.48452C19.5589 8.03682 19.1113 8.48448 18.559 8.48448C18.0067 8.48448 17.559 8.03682 17.559 7.48452C17.559 6.93222 18.0067 6.4845 18.559 6.4845C19.1113 6.4845 19.5589 6.93222 19.5589 7.48452Z" fill="url(#paint1_linear)"/>
<path opacity="0.5" d="M10.059 21.4845C10.059 23.6936 8.26796 25.4845 6.05878 25.4845C5.84957 25.4854 5.64038 25.4686 5.43392 25.4345C3.49278 25.1246 2.06433 23.4502 2.06433 21.4845C2.06433 19.5187 3.49278 17.8444 5.43392 17.5345C5.64038 17.5004 5.84957 17.4836 6.05878 17.4845C8.26796 17.4845 10.059 19.2754 10.059 21.4845Z" fill="url(#paint2_linear)"/>
<path d="M8.80887 21.4843C8.80887 19.3029 7.29801 17.5343 5.43399 17.5343C3.56998 17.5343 2.0589 19.3029 2.0589 21.4843C2.0589 23.6658 3.56998 25.4344 5.43399 25.4344C7.29801 25.4344 8.80887 23.6658 8.80887 21.4843Z" fill="url(#paint3_linear)"/>
<path d="M7.55886 21.4844C7.55886 22.3127 6.88734 22.9846 6.05876 22.9846C5.8427 22.985 5.62915 22.9372 5.43391 22.8445C4.90108 22.6016 4.5589 22.0699 4.5589 21.4844C4.5589 20.8987 4.90108 20.3673 5.43391 20.1244C5.62915 20.0317 5.8427 19.9839 6.05876 19.9844C6.88734 19.9844 7.55886 20.6559 7.55886 21.4844Z" fill="white"/>
<path opacity="0.5" d="M28.0588 21.4845C28.0588 23.6936 26.2678 25.4845 24.0589 25.4845C23.8495 25.4854 23.6403 25.4686 23.4338 25.4345C21.4927 25.1246 20.0642 23.4502 20.0642 21.4845C20.0642 19.5187 21.4927 17.8444 23.4338 17.5345C23.6403 17.5004 23.8495 17.4836 24.0589 17.4845C26.2678 17.4845 28.0588 19.2754 28.0588 21.4845Z" fill="url(#paint4_linear)"/>
<path d="M26.809 21.4843C26.809 19.3029 25.2979 17.5343 23.4339 17.5343C21.5699 17.5343 20.0588 19.3029 20.0588 21.4843C20.0588 23.6658 21.5699 25.4344 23.4339 25.4344C25.2979 25.4344 26.809 23.6658 26.809 21.4843Z" fill="url(#paint5_linear)"/>
<path d="M25.5587 21.4844C25.5587 22.3127 24.8872 22.9846 24.0588 22.9846C23.8425 22.985 23.629 22.9372 23.4338 22.8445C22.901 22.6016 22.559 22.0699 22.559 21.4844C22.559 20.8987 22.901 20.3673 23.4338 20.1244C23.629 20.0317 23.8425 19.9839 24.0588 19.9844C24.8872 19.9844 25.5587 20.6559 25.5587 21.4844Z" fill="white"/>
<path opacity="0.5" d="M6.30894 21.4845C6.31008 22.0705 5.96767 22.6029 5.43391 22.8446C4.90108 22.6017 4.5589 22.07 4.5589 21.4845C4.5589 20.8988 4.90108 20.3673 5.43391 20.1245C5.96767 20.3662 6.31008 20.8986 6.30894 21.4845Z" fill="white"/>
<path opacity="0.5" d="M24.3088 21.4845C24.3099 22.0705 23.9675 22.6029 23.4338 22.8446C22.901 22.6017 22.559 22.07 22.559 21.4845C22.559 20.8988 22.901 20.3673 23.4338 20.1245C23.9675 20.3662 24.3099 20.8986 24.3088 21.4845Z" fill="white"/>
<path d="M3.50382 16.1594C3.3539 16.2393 3.20398 16.3244 3.05887 16.4144C2.94054 16.487 2.79657 16.505 2.66382 16.4643C2.70135 16.4455 2.73981 16.4288 2.77895 16.4144C3.01469 16.3137 3.25708 16.2285 3.50382 16.1594Z" fill="#7FABFA"/>
<path opacity="0.5" d="M29.5587 15.5745V17.4845C29.5603 17.6987 29.425 17.8903 29.2224 17.9604C29.0199 18.0306 28.7951 17.9638 28.6638 17.7944C28.5521 17.6585 28.4337 17.5284 28.3088 17.4044V16.0743C28.3085 15.6855 28.2177 15.3021 28.0437 14.9544L27.7988 14.4695L25.9339 12.8595C25.6221 12.8355 25.3111 12.9144 25.0488 13.0845L26.1687 11.5045C26.0135 11.3507 25.8387 11.2177 25.6487 11.1095L22.9939 9.58948L24.0589 8.9845L26.8988 10.6094C27.0886 10.7178 27.2634 10.8506 27.4188 11.0044L26.2987 12.5844C26.5613 12.4145 26.8721 12.3354 27.1838 12.3594L29.0487 13.9694L29.2938 14.4543C29.4678 14.8022 29.5584 15.1856 29.5587 15.5745Z" fill="url(#paint6_linear)"/>
<path d="M28.3089 16.0743V17.4044C26.9651 15.956 24.9855 15.2765 23.0354 15.5942C21.0854 15.9119 19.4236 17.1845 18.6088 18.9843H11.514C10.5343 16.8533 8.40435 15.4866 6.05878 15.4845C5.35977 15.4859 4.66855 15.6321 4.02882 15.9144C3.85396 15.9844 3.67886 16.0693 3.51384 16.1544C3.51132 16.1572 3.50766 16.1591 3.50377 16.1595C3.25704 16.2286 3.01465 16.3138 2.7789 16.4145C2.73976 16.4289 2.70131 16.4456 2.66378 16.4644C2.52072 16.4207 2.40377 16.3165 2.3438 16.1794L1.55896 14.4843L3.05882 12.4844H7.25379C7.45173 12.4839 7.64517 12.5432 7.80879 12.6544L11.809 15.3145C11.9726 15.4257 12.166 15.485 12.3638 15.4845H16.5688C16.8778 15.4857 17.1696 15.3433 17.3589 15.0993L18.6139 13.4843L20.5589 10.9845L22.9939 9.58948L25.6488 11.1095C25.8387 11.2177 26.0136 11.3507 26.1688 11.5045L25.0489 13.0845C25.3112 12.9144 25.6222 12.8355 25.934 12.8595L27.7989 14.4695L28.0438 14.9544C28.2177 15.3021 28.3086 15.6855 28.3089 16.0743Z" fill="url(#paint7_linear)"/>
<path d="M29.0488 13.9693L27.5887 13.5445L25.4189 12.9194C25.2161 12.8599 25.0726 12.6795 25.0602 12.4688C25.0479 12.258 25.1694 12.062 25.3638 11.9794L26.5139 11.4344L27.4189 11.0044C27.6153 11.1955 27.7775 11.4186 27.8989 11.6645L29.0488 13.9693Z" fill="#F5F5F5"/>
<path d="M27.5887 13.5445L25.4189 12.9194C25.2161 12.8599 25.0726 12.6796 25.0602 12.4688C25.0479 12.2579 25.1694 12.062 25.3638 11.9794L26.5139 11.4344C26.5654 11.507 26.6105 11.5839 26.6487 11.6645L27.5887 13.5445Z" fill="url(#paint8_linear)"/>
<path d="M6.05875 25.9846H0.558945C0.282684 25.9846 0.0588379 25.7607 0.0588379 25.4845C0.0588379 25.2084 0.282684 24.9846 0.558945 24.9846H6.05875C6.33502 24.9846 6.55888 25.2084 6.55888 25.4845C6.55888 25.7607 6.33502 25.9846 6.05875 25.9846Z" fill="url(#paint9_linear)"/>
<path d="M24.0589 25.9846H16.5589C16.2827 25.9846 16.0588 25.7607 16.0588 25.4845C16.0588 25.2084 16.2827 24.9846 16.5589 24.9846H24.0589C24.335 24.9846 24.5589 25.2084 24.5589 25.4845C24.5589 25.7607 24.335 25.9846 24.0589 25.9846Z" fill="url(#paint10_linear)"/>
<path d="M14.5587 25.9846H11.0589C10.7826 25.9846 10.5587 25.7607 10.5587 25.4845C10.5587 25.2084 10.7826 24.9846 11.0589 24.9846H14.5587C14.8349 24.9846 15.0588 25.2084 15.0588 25.4845C15.0588 25.7607 14.8349 25.9846 14.5587 25.9846Z" fill="url(#paint11_linear)"/>
<path d="M6.05884 25.9846C3.57364 25.9846 1.55902 23.9697 1.55902 21.4845C1.55902 18.9994 3.57364 16.9845 6.05884 16.9845C8.54429 16.9845 10.5589 18.9994 10.5589 21.4845C10.5562 23.9686 8.54315 25.9818 6.05884 25.9846ZM6.05884 17.9845C4.12593 17.9845 2.55901 19.5516 2.55901 21.4845C2.55901 23.4175 4.12593 24.9846 6.05884 24.9846C7.99199 24.9846 9.55889 23.4175 9.55889 21.4845C9.55637 19.5526 7.99085 17.987 6.05884 17.9845Z" fill="url(#paint12_linear)"/>
<path d="M6.05875 23.4844C4.95416 23.4844 4.05878 22.589 4.05878 21.4845C4.05878 20.3799 4.95416 19.4845 6.05875 19.4845C7.16332 19.4845 8.05894 20.3799 8.05894 21.4845C8.05894 22.589 7.16332 23.4844 6.05875 23.4844ZM6.05875 20.4845C5.50646 20.4845 5.05877 20.9322 5.05877 21.4845C5.05877 22.0368 5.50646 22.4844 6.05875 22.4844C6.61102 22.4844 7.05874 22.0368 7.05874 21.4845C7.05874 20.9322 6.61102 20.4845 6.05875 20.4845Z" fill="url(#paint13_linear)"/>
<path d="M6.05865 18.4846C5.78262 18.4846 5.55878 18.2607 5.55878 17.9845V17.4846C5.55878 17.2084 5.78262 16.9845 6.05865 16.9845C6.33491 16.9845 6.55877 17.2084 6.55877 17.4846V17.9845C6.55877 18.2607 6.33491 18.4846 6.05865 18.4846Z" fill="url(#paint14_linear)"/>
<path d="M6.05865 25.9846C5.78262 25.9846 5.55878 25.7607 5.55878 25.4845V24.9846C5.55878 24.7084 5.78262 24.4845 6.05865 24.4845C6.33491 24.4845 6.55877 24.7084 6.55877 24.9846V25.4845C6.55877 25.7607 6.33491 25.9846 6.05865 25.9846Z" fill="url(#paint15_linear)"/>
<path d="M2.55901 21.9844H2.0589C1.78287 21.9844 1.55902 21.7605 1.55902 21.4845C1.55902 21.2082 1.78287 20.9844 2.0589 20.9844H2.55901C2.83504 20.9844 3.05888 21.2082 3.05888 21.4845C3.05888 21.7605 2.83504 21.9844 2.55901 21.9844Z" fill="url(#paint16_linear)"/>
<path d="M10.059 21.9844H9.55888C9.28288 21.9844 9.05902 21.7605 9.05902 21.4845C9.05902 21.2082 9.28288 20.9844 9.55888 20.9844H10.059C10.335 20.9844 10.5589 21.2082 10.5589 21.4845C10.5589 21.7605 10.335 21.9844 10.059 21.9844Z" fill="url(#paint17_linear)"/>
<path d="M3.56179 19.4875C3.42926 19.4875 3.302 19.4349 3.20816 19.3411L2.87674 19.0096C2.68723 18.8132 2.68997 18.5015 2.88292 18.3086C3.07564 18.1159 3.38761 18.1131 3.58376 18.3026L3.91518 18.634C4.05823 18.7771 4.10103 18.992 4.02367 19.1788C3.94631 19.3655 3.76388 19.4875 3.56179 19.4875Z" fill="url(#paint18_linear)"/>
<path d="M8.89193 24.8174C8.75939 24.8174 8.63213 24.7648 8.53853 24.6709L8.20895 24.3395C8.03909 24.1411 8.05055 23.8453 8.23505 23.6607C8.41973 23.4759 8.71547 23.4645 8.91389 23.6343L9.24533 23.966C9.38837 24.109 9.43115 24.324 9.35381 24.5107C9.27647 24.6975 9.09401 24.8195 8.89193 24.8195V24.8174Z" fill="url(#paint19_linear)"/>
<path d="M3.23023 24.8173C3.02812 24.8173 2.84593 24.6956 2.76858 24.5086C2.69121 24.3218 2.73378 24.1069 2.87683 23.9638L3.20894 23.6342C3.40669 23.4594 3.70653 23.4683 3.8933 23.6548C4.0803 23.8414 4.08991 24.1412 3.91527 24.3394L3.58385 24.6709C3.49001 24.7647 3.36298 24.8173 3.23023 24.8173Z" fill="url(#paint20_linear)"/>
<path d="M8.55869 19.4875C8.35727 19.4858 8.17673 19.3636 8.10023 19.1773C8.02379 18.991 8.06663 18.777 8.20877 18.6344L8.54015 18.303C8.73635 18.1135 9.04829 18.1162 9.24125 18.3089C9.43397 18.5019 9.43673 18.8138 9.24719 19.01L8.91575 19.3414C8.82101 19.436 8.69237 19.4884 8.55869 19.4875Z" fill="url(#paint21_linear)"/>
<path d="M24.059 25.9846C21.5736 25.9846 19.559 23.9697 19.559 21.4845C19.559 18.9994 21.5736 16.9845 24.059 16.9845C26.5442 16.9845 28.5588 18.9994 28.5588 21.4845C28.5561 23.9686 26.543 25.9818 24.059 25.9846ZM24.059 17.9845C22.1258 17.9845 20.5589 19.5516 20.5589 21.4845C20.5589 23.4175 22.1258 24.9846 24.059 24.9846C25.9919 24.9846 27.5588 23.4175 27.5588 21.4845C27.5565 19.5526 25.991 17.987 24.059 17.9845Z" fill="url(#paint22_linear)"/>
<path d="M24.0589 23.4844C22.9543 23.4844 22.0587 22.589 22.0587 21.4845C22.0587 20.3799 22.9543 19.4845 24.0589 19.4845C25.1635 19.4845 26.0589 20.3799 26.0589 21.4845C26.0589 22.589 25.1635 23.4844 24.0589 23.4844ZM24.0589 20.4845C23.5066 20.4845 23.0589 20.9322 23.0589 21.4845C23.0589 22.0368 23.5066 22.4844 24.0589 22.4844C24.6112 22.4844 25.0589 22.0368 25.0589 21.4845C25.0589 20.9322 24.6112 20.4845 24.0589 20.4845Z" fill="url(#paint23_linear)"/>
<path d="M24.0589 18.4846C23.7827 18.4846 23.5588 18.2607 23.5588 17.9845V17.4846C23.5588 17.2084 23.7827 16.9845 24.0589 16.9845C24.335 16.9845 24.5589 17.2084 24.5589 17.4846V17.9845C24.5589 18.2607 24.335 18.4846 24.0589 18.4846Z" fill="url(#paint24_linear)"/>
<path d="M24.0589 25.9846C23.7827 25.9846 23.5588 25.7607 23.5588 25.4845V24.9846C23.5588 24.7084 23.7827 24.4845 24.0589 24.4845C24.335 24.4845 24.5589 24.7084 24.5589 24.9846V25.4845C24.5589 25.7607 24.335 25.9846 24.0589 25.9846Z" fill="url(#paint25_linear)"/>
<path d="M20.5589 21.9844H20.0588C19.7828 21.9844 19.559 21.7605 19.559 21.4845C19.559 21.2082 19.7828 20.9844 20.0588 20.9844H20.5589C20.835 20.9844 21.0588 21.2082 21.0588 21.4845C21.0588 21.7605 20.835 21.9844 20.5589 21.9844Z" fill="url(#paint26_linear)"/>
<path d="M28.0589 21.9844H27.5588C27.2828 21.9844 27.059 21.7605 27.059 21.4845C27.059 21.2082 27.2828 20.9844 27.5588 20.9844H28.0589C28.335 20.9844 28.5588 21.2082 28.5588 21.4845C28.5588 21.7605 28.335 21.9844 28.0589 21.9844Z" fill="url(#paint27_linear)"/>
<path d="M21.5617 19.4875C21.4292 19.4875 21.3019 19.4349 21.2083 19.3411L20.8767 19.0096C20.6872 18.8132 20.6899 18.5015 20.8829 18.3086C21.0756 18.1159 21.3875 18.1131 21.5837 18.3026L21.9154 18.634C22.0582 18.7771 22.101 18.992 22.0236 19.1788C21.9463 19.3655 21.7638 19.4875 21.5617 19.4875Z" fill="url(#paint28_linear)"/>
<path d="M26.8919 24.8174C26.7593 24.8174 26.6321 24.7648 26.5385 24.6709L26.2089 24.3395C26.039 24.1411 26.0505 23.8453 26.2352 23.6607C26.4199 23.4759 26.7156 23.4645 26.9138 23.6343L27.2455 23.966C27.3883 24.109 27.4311 24.324 27.3537 24.5107C27.2764 24.6975 27.0942 24.8195 26.8919 24.8195V24.8174Z" fill="url(#paint29_linear)"/>
<path d="M21.2304 24.8175C21.0281 24.8175 20.8459 24.6958 20.7685 24.5087C20.6912 24.322 20.734 24.107 20.8768 23.964L21.2089 23.6344C21.405 23.4451 21.7168 23.4476 21.9097 23.6406C22.1027 23.8336 22.1054 24.1453 21.9159 24.3415L21.5843 24.6731C21.4902 24.7663 21.3629 24.8182 21.2304 24.8175Z" fill="url(#paint30_linear)"/>
<path d="M26.5587 19.4875C26.3575 19.4858 26.1767 19.3636 26.1002 19.1773C26.0238 18.991 26.0666 18.777 26.2087 18.6344L26.5402 18.303C26.7365 18.1135 27.0482 18.1162 27.2412 18.3089C27.4339 18.5019 27.4367 18.8138 27.2471 19.01L26.9158 19.3414C26.821 19.436 26.6926 19.4884 26.5587 19.4875Z" fill="url(#paint31_linear)"/>
<path d="M17.5768 21.9845H12.5409C12.0213 21.9851 11.5881 21.588 11.5434 21.0705C11.3175 18.2063 8.93212 15.9941 6.05875 15.9845C5.08279 16.0058 4.13271 16.3025 3.31789 16.8401C3.07047 16.9891 2.77086 17.0239 2.49574 16.9355C2.22085 16.8472 1.99747 16.6442 1.88326 16.3791L1.23873 14.9846H1.05882C0.506531 14.9846 0.0588379 14.5368 0.0588379 13.9845V12.9846C0.0588379 12.4323 0.506531 11.9846 1.05882 11.9846H7.25878C7.55452 11.9841 7.84378 12.0711 8.09032 12.2345L12.0868 14.8989C12.169 14.9537 12.2654 14.9829 12.3638 14.9829H16.5717C16.7262 14.9823 16.872 14.9111 16.9673 14.7896L20.1672 10.6761C20.2073 10.6246 20.2572 10.5813 20.3138 10.5491L23.8138 8.54908C23.9676 8.46118 24.1562 8.46118 24.3098 8.54908L27.1509 10.1726C27.6675 10.4664 28.085 10.907 28.3509 11.4385L29.7469 14.2302C29.9533 14.6488 30.06 15.1097 30.0588 15.5765V17.4846C30.0625 17.9046 29.8 18.2811 29.4042 18.4226C29.0021 18.5707 28.5501 18.4475 28.2788 18.1157C27.2576 16.8149 25.7119 16.0344 24.059 15.9845C21.186 15.9941 18.8009 18.2056 18.5742 21.0696C18.5301 21.5873 18.0966 21.9851 17.5768 21.9845ZM6.05875 14.9846C9.45424 14.9962 12.2731 17.61 12.5405 20.995L17.5768 20.9844C17.7475 18.323 19.5482 16.0452 22.0986 15.2647C24.6488 14.4842 27.4157 15.3641 29.0469 17.4741L29.0589 15.5765C29.0589 15.2642 28.9863 14.9562 28.8469 14.6765L27.4508 11.8855C27.2738 11.5307 26.9955 11.2364 26.6508 11.04L24.059 9.56002L20.8928 11.37L17.7539 15.4055C17.4704 15.7721 17.0327 15.9861 16.5692 15.9845H12.3612C12.0655 15.985 11.7762 15.898 11.5299 15.7346L7.53346 13.07C7.45216 13.0152 7.35676 12.9855 7.25878 12.9846H1.05882V13.9845H1.55893C1.75394 13.9845 1.93109 14.0979 2.0128 14.275L2.79741 15.9726C3.77176 15.3468 4.90106 15.0049 6.05875 14.9846Z" fill="url(#paint32_linear)"/>
<path d="M18.5588 8.98441C17.7302 8.98441 17.0587 8.31265 17.0587 7.48435C17.0587 6.65605 17.7302 5.98425 18.5588 5.98425C19.3871 5.98425 20.0587 6.65605 20.0587 7.48435C20.0587 8.31265 19.3871 8.98441 18.5588 8.98441ZM18.5588 6.98425C18.2825 6.98425 18.0587 7.20829 18.0587 7.48435C18.0587 7.76035 18.2825 7.98445 18.5588 7.98445C18.8348 7.98445 19.0587 7.76035 19.0587 7.48435C19.0587 7.20829 18.8348 6.98425 18.5588 6.98425Z" fill="url(#paint33_linear)"/>
<path d="M2.55896 12.9844C2.35663 12.9844 2.17444 12.8624 2.09707 12.6756C2.01972 12.4888 2.06251 12.2739 2.20534 12.1309L2.57132 11.7649C2.76747 11.5754 3.07944 11.5781 3.27238 11.7708C3.4651 11.9638 3.46785 12.2758 3.27834 12.4719L2.91235 12.8379C2.81874 12.9318 2.69148 12.9844 2.55896 12.9844Z" fill="url(#paint34_linear)"/>
<path d="M6.86993 10.4843C6.86993 9.48438 6.86993 10.2074 6.86993 9.98448H7.08947L7.31033 9.99636C7.45775 10.0078 7.60445 10.0243 7.75049 10.0465C8.62985 10.1758 9.47003 10.496 10.2123 10.9849L11.5673 11.8849C11.7978 12.0348 12.0143 12.19 12.2215 12.3069C12.9902 12.7487 13.8611 12.9824 14.7479 12.9844V13.9844C13.6877 13.9835 12.646 13.7061 11.7259 13.1794C11.4618 13.0293 11.2354 12.8675 11.0139 12.7219L9.66389 11.8219C9.25145 11.5502 8.80151 11.3399 8.32841 11.198C8.09195 11.1275 7.85093 11.074 7.60697 11.0378C7.48499 11.0204 7.36229 11.0074 7.23935 10.9975L7.05443 10.9874H6.87131C6.87089 10.7613 6.87041 11.4843 6.86993 10.4843Z" fill="white"/>
<path d="M9.28684 11.0343C9.34498 10.9094 9.34702 10.7654 9.29278 10.6386C9.23854 10.5117 9.13282 10.4141 9.00232 10.3698C8.66152 10.2424 8.31022 10.1458 7.9522 10.0808C7.77322 10.0499 7.59382 10.0229 7.41274 10.0085L7.14082 9.98943L7.00487 9.98535H6.86938V10.4855V10.9853H6.98224L7.09618 10.9887L7.32328 11.0048C7.47316 11.0165 7.62334 11.0398 7.77322 11.0654C8.07196 11.1197 8.36512 11.2005 8.64916 11.3069C8.90002 11.3902 9.17374 11.2733 9.28684 11.0343Z" fill="url(#paint35_linear)"/>
<path d="M14.7478 13.9843V12.9843C14.1117 12.9836 13.4814 12.8639 12.8892 12.6314C12.7482 12.5749 12.6089 12.5149 12.4739 12.4457C12.2337 12.3377 11.9506 12.4252 11.8133 12.6497C11.7423 12.7678 11.7247 12.9106 11.7654 13.0423C11.8059 13.1741 11.9007 13.2821 12.0259 13.3398C12.1877 13.4224 12.3543 13.4947 12.5233 13.5618C13.2319 13.8401 13.9865 13.9834 14.7478 13.9843Z" fill="url(#paint36_linear)"/>
<path d="M10.8403 11.4044C10.7291 11.3328 10.5952 11.3056 10.465 11.3285L10.3734 11.3573C10.342 11.3701 10.3127 11.3868 10.2857 11.4074C10.258 11.423 10.2326 11.4427 10.2109 11.4658C10.1878 11.4903 10.1667 11.5162 10.1473 11.5434C10.0754 11.6544 10.0479 11.7885 10.0708 11.9189C10.0855 11.9831 10.1122 12.0437 10.1498 12.098C10.2631 12.2644 10.4638 12.3486 10.6618 12.3129C10.7258 12.298 10.7863 12.2712 10.8403 12.2339C10.895 12.198 10.9424 12.152 10.9792 12.098C11.0541 11.9879 11.0813 11.8523 11.0552 11.7219C11.0291 11.5916 10.9516 11.4772 10.8403 11.4044Z" fill="url(#paint37_linear)"/>
<path d="M2.92499 12.6185C2.72265 12.6185 2.54046 12.4965 2.4631 12.3098C2.38574 12.123 2.42854 11.9081 2.57136 11.765C3.70891 10.6213 5.25684 9.97996 6.87 9.98452C7.146 9.98452 7.36986 10.2084 7.36986 10.4844C7.36986 10.7607 7.146 10.9845 6.87 10.9845C5.52211 10.9809 4.22893 11.5164 3.27838 12.4721C3.18477 12.5657 3.05751 12.6185 2.92499 12.6185Z" fill="url(#paint38_linear)"/>
<path d="M18.5589 13.9845H14.7478C14.4717 13.9845 14.2479 13.7606 14.2479 13.4844C14.2479 13.2084 14.4717 12.9845 14.7478 12.9845H18.5589C18.8349 12.9845 19.0587 13.2084 19.0587 13.4844C19.0587 13.7606 18.8349 13.9845 18.5589 13.9845Z" fill="url(#paint39_linear)"/>
<path d="M1.55885 14.9844C1.36934 14.9844 1.1963 14.8775 1.11161 14.7079C1.02693 14.5385 1.04524 14.336 1.15876 14.1845L2.65886 12.1845C2.82434 11.9634 3.1379 11.9187 3.35878 12.0845C3.57965 12.2502 3.62451 12.5635 3.4588 12.7844L1.95871 14.7843C1.8644 14.9102 1.71609 14.9844 1.55885 14.9844Z" fill="url(#paint40_linear)"/>
<path d="M19.4009 7.95874L19.717 7.0105L24.2171 8.51062L23.901 9.45886L19.4009 7.95874Z" fill="url(#paint41_linear)"/>
<path d="M18.6163 8.74723L19.4734 8.23315L20.9719 10.7316L20.115 11.2457L18.6163 8.74723Z" fill="url(#paint42_linear)"/>
<path d="M24.059 9.48442C23.7827 9.48442 23.5589 9.26056 23.5589 8.9845C23.5589 6.82846 20.2089 5.35033 18.9153 4.96352C18.7443 4.91225 18.6134 4.77354 18.5722 4.59959C18.5312 4.42587 18.5859 4.24322 18.7157 4.12055C18.8457 3.99809 19.0314 3.95415 19.2023 4.00542C19.4214 4.07133 24.5589 5.65085 24.5589 8.9845C24.5589 9.26056 24.335 9.48442 24.059 9.48442Z" fill="url(#paint43_linear)"/>
<path d="M29.0534 14.4844C29.006 14.4844 28.9589 14.4778 28.9133 14.4645L25.2764 13.4011C24.8699 13.283 24.5818 12.9216 24.557 12.4991C24.5326 12.0766 24.7765 11.6842 25.1663 11.5195L27.2418 10.5769C27.4909 10.4749 27.7758 10.5879 27.887 10.8328C27.9983 11.0779 27.8957 11.367 27.655 11.487L25.5694 12.4345L29.194 13.5046C29.4329 13.5741 29.5842 13.809 29.549 14.0555C29.5135 14.302 29.3022 14.4849 29.0534 14.4844Z" fill="url(#paint44_linear)"/>
<path d="M11.5588 18.4844H18.5589V19.4844H11.5588V18.4844Z" fill="url(#paint45_linear)"/>
<path d="M18.0587 19.9844H20.0587V20.9843H18.0587V19.9844Z" fill="url(#paint46_linear)"/>
<path d="M10.059 19.9844H12.0589V20.9843H10.059V19.9844Z" fill="url(#paint47_linear)"/>
<path d="M25.6425 17.7074L26.6427 16.207L27.4747 16.7619L26.4747 18.262L25.6425 17.7074Z" fill="url(#paint48_linear)"/>
<path d="M3.58478 16.1426L4.53303 15.8264L5.03291 17.3263L4.08466 17.6424L3.58478 16.1426Z" fill="url(#paint49_linear)"/>
</g>
<defs>
<linearGradient id="paint0_linear" x1="21.3188" y1="7.48438" x2="21.3188" y2="11.4644" gradientUnits="userSpaceOnUse">
<stop stop-color="#E62E2E"/>
<stop offset="1" stop-color="#FF3333"/>
</linearGradient>
<linearGradient id="paint1_linear" x1="18.559" y1="6.4845" x2="18.559" y2="8.48448" gradientUnits="userSpaceOnUse">
<stop stop-color="#E62E2E"/>
<stop offset="1" stop-color="#FF3333"/>
</linearGradient>
<linearGradient id="paint2_linear" x1="6.06164" y1="17.4845" x2="6.06164" y2="25.4845" gradientUnits="userSpaceOnUse">
<stop stop-color="#E62E2E"/>
<stop offset="1" stop-color="#FF3333"/>
</linearGradient>
<linearGradient id="paint3_linear" x1="5.43387" y1="17.5343" x2="5.43387" y2="25.4344" gradientUnits="userSpaceOnUse">
<stop stop-color="#E62E2E"/>
<stop offset="1" stop-color="#FF3333"/>
</linearGradient>
<linearGradient id="paint4_linear" x1="24.0615" y1="17.4845" x2="24.0615" y2="25.4845" gradientUnits="userSpaceOnUse">
<stop stop-color="#E62E2E"/>
<stop offset="1" stop-color="#FF3333"/>
</linearGradient>
<linearGradient id="paint5_linear" x1="23.4339" y1="17.5343" x2="23.4339" y2="25.4344" gradientUnits="userSpaceOnUse">
<stop stop-color="#E62E2E"/>
<stop offset="1" stop-color="#FF3333"/>
</linearGradient>
<linearGradient id="paint6_linear" x1="26.2763" y1="8.9845" x2="26.2763" y2="17.988" gradientUnits="userSpaceOnUse">
<stop stop-color="#E62E2E"/>
<stop offset="1" stop-color="#FF3333"/>
</linearGradient>
<linearGradient id="paint7_linear" x1="14.9339" y1="9.58948" x2="14.9339" y2="18.9843" gradientUnits="userSpaceOnUse">
<stop stop-color="#E62E2E"/>
<stop offset="1" stop-color="#FF3333"/>
</linearGradient>
<linearGradient id="paint8_linear" x1="26.3241" y1="11.4344" x2="26.3241" y2="13.5445" gradientUnits="userSpaceOnUse">
<stop stop-color="#E62E2E"/>
<stop offset="1" stop-color="#FF3333"/>
</linearGradient>
<linearGradient id="paint9_linear" x1="0.0588379" y1="24.9848" x2="0.0588379" y2="25.9848" gradientUnits="userSpaceOnUse">
<stop stop-color="#2944CC"/>
<stop offset="1" stop-color="#3355FF"/>
</linearGradient>
<linearGradient id="paint10_linear" x1="16.0588" y1="24.9848" x2="16.0588" y2="25.9848" gradientUnits="userSpaceOnUse">
<stop stop-color="#2944CC"/>
<stop offset="1" stop-color="#3355FF"/>
</linearGradient>
<linearGradient id="paint11_linear" x1="10.5587" y1="24.9848" x2="10.5587" y2="25.9848" gradientUnits="userSpaceOnUse">
<stop stop-color="#2944CC"/>
<stop offset="1" stop-color="#3355FF"/>
</linearGradient>
<linearGradient id="paint12_linear" x1="1.55902" y1="16.9864" x2="1.55902" y2="25.9865" gradientUnits="userSpaceOnUse">
<stop stop-color="#2944CC"/>
<stop offset="1" stop-color="#3355FF"/>
</linearGradient>
<linearGradient id="paint13_linear" x1="4.05878" y1="19.4853" x2="4.05878" y2="23.4853" gradientUnits="userSpaceOnUse">
<stop stop-color="#2944CC"/>
<stop offset="1" stop-color="#3355FF"/>
</linearGradient>
<linearGradient id="paint14_linear" x1="5.55878" y1="16.9848" x2="5.55878" y2="18.4849" gradientUnits="userSpaceOnUse">
<stop stop-color="#2944CC"/>
<stop offset="1" stop-color="#3355FF"/>
</linearGradient>
<linearGradient id="paint15_linear" x1="5.55878" y1="24.4848" x2="5.55878" y2="25.9849" gradientUnits="userSpaceOnUse">
<stop stop-color="#2944CC"/>
<stop offset="1" stop-color="#3355FF"/>
</linearGradient>
<linearGradient id="paint16_linear" x1="1.55902" y1="20.9846" x2="1.55902" y2="21.9846" gradientUnits="userSpaceOnUse">
<stop stop-color="#2944CC"/>
<stop offset="1" stop-color="#3355FF"/>
</linearGradient>
<linearGradient id="paint17_linear" x1="9.05902" y1="20.9846" x2="9.05902" y2="21.9846" gradientUnits="userSpaceOnUse">
<stop stop-color="#2944CC"/>
<stop offset="1" stop-color="#3355FF"/>
</linearGradient>
<linearGradient id="paint18_linear" x1="2.73639" y1="18.1625" x2="2.73639" y2="19.4878" gradientUnits="userSpaceOnUse">
<stop stop-color="#2944CC"/>
<stop offset="1" stop-color="#3355FF"/>
</linearGradient>
<linearGradient id="paint19_linear" x1="8.08877" y1="23.5144" x2="8.08877" y2="24.8197" gradientUnits="userSpaceOnUse">
<stop stop-color="#2944CC"/>
<stop offset="1" stop-color="#3355FF"/>
</linearGradient>
<linearGradient id="paint20_linear" x1="2.73047" y1="23.5091" x2="2.73047" y2="24.8176" gradientUnits="userSpaceOnUse">
<stop stop-color="#2944CC"/>
<stop offset="1" stop-color="#3355FF"/>
</linearGradient>
<linearGradient id="paint21_linear" x1="8.06279" y1="18.1629" x2="8.06279" y2="19.4878" gradientUnits="userSpaceOnUse">
<stop stop-color="#2944CC"/>
<stop offset="1" stop-color="#3355FF"/>
</linearGradient>
<linearGradient id="paint22_linear" x1="19.559" y1="16.9864" x2="19.559" y2="25.9865" gradientUnits="userSpaceOnUse">
<stop stop-color="#2944CC"/>
<stop offset="1" stop-color="#3355FF"/>
</linearGradient>
<linearGradient id="paint23_linear" x1="22.0587" y1="19.4853" x2="22.0587" y2="23.4853" gradientUnits="userSpaceOnUse">
<stop stop-color="#2944CC"/>
<stop offset="1" stop-color="#3355FF"/>
</linearGradient>
<linearGradient id="paint24_linear" x1="23.5588" y1="16.9848" x2="23.5588" y2="18.4849" gradientUnits="userSpaceOnUse">
<stop stop-color="#2944CC"/>
<stop offset="1" stop-color="#3355FF"/>
</linearGradient>
<linearGradient id="paint25_linear" x1="23.5588" y1="24.4848" x2="23.5588" y2="25.9849" gradientUnits="userSpaceOnUse">
<stop stop-color="#2944CC"/>
<stop offset="1" stop-color="#3355FF"/>
</linearGradient>
<linearGradient id="paint26_linear" x1="19.559" y1="20.9846" x2="19.559" y2="21.9846" gradientUnits="userSpaceOnUse">
<stop stop-color="#2944CC"/>
<stop offset="1" stop-color="#3355FF"/>
</linearGradient>
<linearGradient id="paint27_linear" x1="27.059" y1="20.9846" x2="27.059" y2="21.9846" gradientUnits="userSpaceOnUse">
<stop stop-color="#2944CC"/>
<stop offset="1" stop-color="#3355FF"/>
</linearGradient>
<linearGradient id="paint28_linear" x1="20.7363" y1="18.1625" x2="20.7363" y2="19.4878" gradientUnits="userSpaceOnUse">
<stop stop-color="#2944CC"/>
<stop offset="1" stop-color="#3355FF"/>
</linearGradient>
<linearGradient id="paint29_linear" x1="26.0887" y1="23.5144" x2="26.0887" y2="24.8197" gradientUnits="userSpaceOnUse">
<stop stop-color="#2944CC"/>
<stop offset="1" stop-color="#3355FF"/>
</linearGradient>
<linearGradient id="paint30_linear" x1="20.7305" y1="23.4944" x2="20.7305" y2="24.8178" gradientUnits="userSpaceOnUse">
<stop stop-color="#2944CC"/>
<stop offset="1" stop-color="#3355FF"/>
</linearGradient>
<linearGradient id="paint31_linear" x1="26.0628" y1="18.1629" x2="26.0628" y2="19.4878" gradientUnits="userSpaceOnUse">
<stop stop-color="#2944CC"/>
<stop offset="1" stop-color="#3355FF"/>
</linearGradient>
<linearGradient id="paint32_linear" x1="0.0588379" y1="8.48608" x2="0.0588382" y2="21.9873" gradientUnits="userSpaceOnUse">
<stop stop-color="#2944CC"/>
<stop offset="1" stop-color="#3355FF"/>
</linearGradient>
<linearGradient id="paint33_linear" x1="17.0587" y1="5.9849" x2="17.0587" y2="8.98507" gradientUnits="userSpaceOnUse">
<stop stop-color="#2944CC"/>
<stop offset="1" stop-color="#3355FF"/>
</linearGradient>
<linearGradient id="paint34_linear" x1="2.05902" y1="11.6248" x2="2.05902" y2="12.9847" gradientUnits="userSpaceOnUse">
<stop stop-color="#2944CC"/>
<stop offset="1" stop-color="#3355FF"/>
</linearGradient>
<linearGradient id="paint35_linear" x1="6.86938" y1="9.98559" x2="6.86938" y2="11.3339" gradientUnits="userSpaceOnUse">
<stop stop-color="#2944CC"/>
<stop offset="1" stop-color="#3355FF"/>
</linearGradient>
<linearGradient id="paint36_linear" x1="11.7439" y1="12.4" x2="11.7439" y2="13.9847" gradientUnits="userSpaceOnUse">
<stop stop-color="#2944CC"/>
<stop offset="1" stop-color="#3355FF"/>
</linearGradient>
<linearGradient id="paint37_linear" x1="10.063" y1="11.3207" x2="10.063" y2="12.3212" gradientUnits="userSpaceOnUse">
<stop stop-color="#2944CC"/>
<stop offset="1" stop-color="#3355FF"/>
</linearGradient>
<linearGradient id="paint38_linear" x1="2.42505" y1="9.98512" x2="2.42505" y2="12.6191" gradientUnits="userSpaceOnUse">
<stop stop-color="#2944CC"/>
<stop offset="1" stop-color="#3355FF"/>
</linearGradient>
<linearGradient id="paint39_linear" x1="14.2479" y1="12.9847" x2="14.2479" y2="13.9847" gradientUnits="userSpaceOnUse">
<stop stop-color="#2944CC"/>
<stop offset="1" stop-color="#3355FF"/>
</linearGradient>
<linearGradient id="paint40_linear" x1="1.05884" y1="11.985" x2="1.05884" y2="14.985" gradientUnits="userSpaceOnUse">
<stop stop-color="#2944CC"/>
<stop offset="1" stop-color="#3355FF"/>
</linearGradient>
<linearGradient id="paint41_linear" x1="19.4009" y1="7.01104" x2="19.4009" y2="9.4594" gradientUnits="userSpaceOnUse">
<stop stop-color="#2944CC"/>
<stop offset="1" stop-color="#3355FF"/>
</linearGradient>
<linearGradient id="paint42_linear" x1="18.6163" y1="8.23381" x2="18.6163" y2="11.2464" gradientUnits="userSpaceOnUse">
<stop stop-color="#2944CC"/>
<stop offset="1" stop-color="#3355FF"/>
</linearGradient>
<linearGradient id="paint43_linear" x1="18.5589" y1="3.98556" x2="18.5589" y2="9.48556" gradientUnits="userSpaceOnUse">
<stop stop-color="#2944CC"/>
<stop offset="1" stop-color="#3355FF"/>
</linearGradient>
<linearGradient id="paint44_linear" x1="24.5554" y1="10.5403" x2="24.5554" y2="14.4853" gradientUnits="userSpaceOnUse">
<stop stop-color="#2944CC"/>
<stop offset="1" stop-color="#3355FF"/>
</linearGradient>
<linearGradient id="paint45_linear" x1="11.5588" y1="18.4846" x2="11.5588" y2="19.4846" gradientUnits="userSpaceOnUse">
<stop stop-color="#2944CC"/>
<stop offset="1" stop-color="#3355FF"/>
</linearGradient>
<linearGradient id="paint46_linear" x1="18.0587" y1="19.9846" x2="18.0587" y2="20.9846" gradientUnits="userSpaceOnUse">
<stop stop-color="#2944CC"/>
<stop offset="1" stop-color="#3355FF"/>
</linearGradient>
<linearGradient id="paint47_linear" x1="10.059" y1="19.9846" x2="10.059" y2="20.9846" gradientUnits="userSpaceOnUse">
<stop stop-color="#2944CC"/>
<stop offset="1" stop-color="#3355FF"/>
</linearGradient>
<linearGradient id="paint48_linear" x1="25.6425" y1="16.2075" x2="25.6425" y2="18.2624" gradientUnits="userSpaceOnUse">
<stop stop-color="#2944CC"/>
<stop offset="1" stop-color="#3355FF"/>
</linearGradient>
<linearGradient id="paint49_linear" x1="3.58478" y1="15.8268" x2="3.58478" y2="17.6428" gradientUnits="userSpaceOnUse">
<stop stop-color="#2944CC"/>
<stop offset="1" stop-color="#3355FF"/>
</linearGradient>
<clipPath id="clip0">
<rect width="30" height="30" fill="white" transform="translate(0.0588379)"/>
</clipPath>
</defs>
</svg>
