<svg width="31" height="30" viewBox="0 0 31 30" fill="none" xmlns="http://www.w3.org/2000/svg">
<path d="M12.6599 23.8388C6.45778 23.8388 1.41199 18.793 1.41199 12.5908C1.41199 6.3887 6.45778 1.3429 12.6599 1.3429C18.8621 1.3429 23.9078 6.3887 23.9078 12.5908C23.9078 18.793 18.8621 23.8388 12.6599 23.8388ZM12.6599 3.47521C7.63354 3.47521 3.54429 7.56445 3.54429 12.5908C3.54429 17.6172 7.63354 21.7065 12.6599 21.7065C17.6863 21.7065 21.7755 17.6172 21.7755 12.5908C21.7755 7.56445 17.6863 3.47521 12.6599 3.47521ZM28.3933 28.345C28.8097 27.9287 28.8097 27.2536 28.3933 26.8373L23.6223 22.0662C23.2059 21.6499 22.5308 21.6499 22.1145 22.0662C21.6982 22.4826 21.6982 23.1578 22.1145 23.5741L26.8856 28.345C27.0937 28.5533 27.3665 28.6573 27.6394 28.6573C27.9124 28.6573 28.1851 28.5533 28.3933 28.345Z" fill="white"/>
</svg>
