<svg width="31" height="30" viewBox="0 0 31 30" fill="none" xmlns="http://www.w3.org/2000/svg">
<path d="M21.2978 3.35168V22.7323H8.78674V3.35168H21.2978Z" fill="url(#paint0_linear)"/>
<path d="M23.9859 2.52221V27.3452C24.0044 28.4264 23.1428 29.3179 22.0617 29.3364C22.0394 29.3368 22.017 29.3368 21.9947 29.3364H7.95715C6.98644 29.3732 6.1697 28.6162 6.13286 27.6455C6.13159 27.6118 6.13127 27.578 6.13191 27.5443V2.52221C6.13172 1.50869 6.94376 0.681922 7.95715 0.663818H22.1606C23.174 0.681922 23.9861 1.50869 23.9859 2.52221ZM21.3311 22.7656V3.35185H8.7868V22.7656H21.3311ZM16.0877 26.0842C16.0877 25.4977 15.6122 25.0223 15.0257 25.0223C14.4579 25.0403 14.0121 25.5152 14.0301 26.0831C14.0301 26.0835 14.0301 26.0839 14.0302 26.0843C14.0115 26.6155 14.427 27.0611 14.9582 27.0798C14.9807 27.0806 15.0032 27.0806 15.0258 27.0798C15.5936 27.0984 16.0691 26.6531 16.0877 26.0852C16.0876 26.0849 16.0877 26.0846 16.0877 26.0842Z" fill="white"/>
<path d="M22.028 30H7.924C6.56229 30.0002 5.45323 28.9059 5.43506 27.5443V2.52211C5.45298 1.13668 6.57174 0.017849 7.95723 0H22.1608C23.5462 0.017849 24.6651 1.13668 24.6829 2.52211V27.3451C24.6829 28.8113 23.4942 30 22.028 30ZM7.95723 1.32743C7.29746 1.32743 6.76256 1.86233 6.76256 2.52211V27.5443C6.78054 28.1727 7.2953 28.6728 7.92408 28.6726H22.0281C22.7426 28.6911 23.337 28.1269 23.3555 27.4124C23.3561 27.39 23.3561 27.3676 23.3555 27.3451V2.52211C23.3555 1.86233 22.8206 1.32743 22.1608 1.32743H7.95723Z" fill="url(#paint1_linear)"/>
<path d="M21.331 23.4292H8.78676C8.42016 23.4292 8.12301 23.1321 8.12301 22.7655V3.385C8.10418 3.03729 8.37081 2.74015 8.71851 2.72128C8.74131 2.72007 8.76403 2.72007 8.78676 2.72128H21.331C21.6787 2.70242 21.9759 2.96907 21.9947 3.31678C21.9959 3.33952 21.9959 3.36226 21.9947 3.385V22.7655C21.9947 23.1321 21.6976 23.4292 21.331 23.4292ZM9.45043 22.1018H20.6673V4.04872H9.45043V22.1018Z" fill="url(#paint2_linear)"/>
<path d="M15.0589 27.8727C16.0943 27.8727 16.9336 27.0333 16.9336 25.9979C16.9336 24.9625 16.0943 24.1232 15.0589 24.1232C14.0235 24.1232 13.1841 24.9625 13.1841 25.9979C13.1841 27.0333 14.0235 27.8727 15.0589 27.8727Z" fill="url(#paint3_linear)"/>
<defs>
<linearGradient id="paint0_linear" x1="8.78674" y1="3.35586" x2="8.78674" y2="22.7365" gradientUnits="userSpaceOnUse">
<stop stop-color="#2944CC"/>
<stop offset="1" stop-color="#3355FF"/>
</linearGradient>
<linearGradient id="paint1_linear" x1="5.43506" y1="0.00646225" x2="5.43507" y2="30.0065" gradientUnits="userSpaceOnUse">
<stop stop-color="#2944CC"/>
<stop offset="1" stop-color="#3355FF"/>
</linearGradient>
<linearGradient id="paint2_linear" x1="8.12211" y1="2.7248" x2="8.12211" y2="23.4337" gradientUnits="userSpaceOnUse">
<stop stop-color="#2944CC"/>
<stop offset="1" stop-color="#3355FF"/>
</linearGradient>
<linearGradient id="paint3_linear" x1="15.0589" y1="24.1231" x2="15.0589" y2="27.8726" gradientUnits="userSpaceOnUse">
<stop stop-color="#E62E2E"/>
<stop offset="1" stop-color="#FF3333"/>
</linearGradient>
</defs>
</svg>
