<svg width="31" height="30" viewBox="0 0 31 30" fill="none" xmlns="http://www.w3.org/2000/svg">
<g clip-path="url(#clip0)">
<path d="M15.9963 17.8127H8.02756L3.41274 15.3283C2.96555 15.0874 2.59193 14.73 2.33154 14.2939C2.07115 13.8578 1.93372 13.3594 1.93384 12.8514V11.2502L13.6526 14.5314L15.9963 17.8127Z" fill="white"/>
<path d="M13.6526 14.5314L11.1795 13.8391C11.0792 14.3017 10.8232 14.7159 10.4543 15.0125C10.0854 15.3091 9.62596 15.4702 9.15256 15.4689C6.70072 15.4666 4.28389 14.8867 2.0979 13.7762C2.32655 14.4399 2.79571 14.9937 3.41274 15.3283L8.02756 17.8127H15.9963L13.6526 14.5314Z" fill="url(#paint0_linear)"/>
<path d="M13.1838 14.5314L1.46509 11.2502V8.90643L14.5901 12.6564L13.1838 14.5314Z" fill="white"/>
<path d="M12.6884 12.1131C12.2886 12.3582 11.8427 12.5186 11.3784 12.584C10.914 12.6494 10.4412 12.6185 9.98932 12.4932L1.46509 10.1064V11.2501L13.1838 14.5314L14.5901 12.6564L12.6884 12.1131Z" fill="url(#paint1_linear)"/>
<path d="M12.2463 17.8127H4.74634C2.93415 17.8127 1.46509 19.2817 1.46509 21.0939C1.46509 22.9061 2.93415 24.3752 4.74634 24.3752H12.2463C14.0585 24.3752 15.5276 22.9061 15.5276 21.0939C15.5276 19.2817 14.0585 17.8127 12.2463 17.8127Z" fill="white"/>
<path d="M12.2463 19.6877H4.74634C3.96969 19.6877 3.34009 20.3173 3.34009 21.0939C3.34009 21.8705 3.96969 22.5002 4.74634 22.5002H12.2463C13.023 22.5002 13.6526 21.8705 13.6526 21.0939C13.6526 20.3173 13.023 19.6877 12.2463 19.6877Z" fill="white"/>
<path d="M4.74634 22.5002C5.52299 22.5002 6.15256 21.8705 6.15256 21.0939C6.15256 20.3173 5.52299 19.6877 4.74634 19.6877C3.96969 19.6877 3.34009 20.3173 3.34009 21.0939C3.34009 21.8705 3.96969 22.5002 4.74634 22.5002Z" fill="url(#paint2_linear)"/>
<path d="M12.2464 22.5002C13.023 22.5002 13.6526 21.8705 13.6526 21.0939C13.6526 20.3173 13.023 19.6877 12.2464 19.6877C11.4697 19.6877 10.8401 20.3173 10.8401 21.0939C10.8401 21.8705 11.4697 22.5002 12.2464 22.5002Z" fill="url(#paint3_linear)"/>
<path d="M12.2463 21.5627C12.5052 21.5627 12.7151 21.3528 12.7151 21.0939C12.7151 20.835 12.5052 20.6252 12.2463 20.6252C11.9874 20.6252 11.7775 20.835 11.7775 21.0939C11.7775 21.3528 11.9874 21.5627 12.2463 21.5627Z" fill="white"/>
<path d="M4.74634 21.5627C5.00522 21.5627 5.21509 21.3528 5.21509 21.0939C5.21509 20.835 5.00522 20.6252 4.74634 20.6252C4.48746 20.6252 4.27759 20.835 4.27759 21.0939C4.27759 21.3528 4.48746 21.5627 4.74634 21.5627Z" fill="white"/>
<path d="M5.68381 23.4377C5.09177 23.4375 4.51084 23.2771 4.00256 22.9735C3.49429 22.6699 3.07762 22.2344 2.79671 21.7133C2.51582 21.1922 2.38115 20.6047 2.40699 20.0132C2.43283 19.4218 2.61821 18.8483 2.94349 18.3536C2.35418 18.7418 1.9057 19.3096 1.66457 19.9727C1.42343 20.6359 1.40251 21.3591 1.6049 22.0351C1.80728 22.7111 2.2222 23.3038 2.78809 23.7253C3.35396 24.1469 4.04067 24.3748 4.74631 24.3752H12.2463C13.1044 24.376 13.9284 24.0392 14.5404 23.4377H5.68381Z" fill="white"/>
<path d="M28.1838 16.8752L25.8401 18.7502H16.4238L15.5276 17.8127L13.1838 14.5314L15.5276 10.3127L19.7463 9.37518L27.2463 14.5314L28.1838 16.8752Z" fill="url(#paint4_linear)"/>
<path d="M17.8475 15.0663C17.2977 14.3504 16.9693 13.4894 16.9026 12.5892C16.836 11.689 17.0341 10.7891 17.4725 10L17.5484 9.86365L15.5276 10.3127L13.1838 14.5314L15.5276 17.8127L16.4238 18.7502H25.8401L28.1838 16.8752H21.5173C20.8078 16.8752 20.1079 16.7121 19.4715 16.3984C18.8352 16.0848 18.2795 15.629 17.8475 15.0663Z" fill="url(#paint5_linear)"/>
<path d="M19.2776 24.3752H25.8401C26.5861 24.3752 27.3015 24.0788 27.8289 23.5514C28.3563 23.024 28.6527 22.3086 28.6527 21.5627V20.6252C28.6527 20.3765 28.5539 20.138 28.3781 19.9622C28.2022 19.7864 27.9638 19.6877 27.7152 19.6877C27.4665 19.6877 27.2281 19.7864 27.0522 19.9622C26.8764 20.138 26.7776 20.3765 26.7776 20.6252V21.5627C26.7776 21.8113 26.6789 22.0498 26.5031 22.2256C26.3272 22.4014 26.0888 22.5002 25.8401 22.5002H17.4528C17.4466 22.7439 17.4891 22.9864 17.578 23.2134C17.6668 23.4404 17.8002 23.6474 17.9702 23.8221C18.1403 23.9968 18.3436 24.1357 18.5681 24.2307C18.7926 24.3257 19.0339 24.3748 19.2776 24.3752Z" fill="white"/>
<path d="M20.2151 23.4377C19.9252 23.4371 19.6425 23.3467 19.4061 23.1788C19.1696 23.0109 18.9911 22.7738 18.8951 22.5002H17.4528C17.4466 22.7439 17.4891 22.9864 17.578 23.2134C17.6668 23.4404 17.8002 23.6474 17.9702 23.8221C18.1403 23.9968 18.3436 24.1357 18.5681 24.2307C18.7926 24.3257 19.0339 24.3748 19.2776 24.3752H25.8401C26.2352 24.3752 26.6259 24.2918 26.9864 24.1302C27.347 23.9686 27.6693 23.7326 27.9322 23.4377H20.2151Z" fill="white"/>
<path d="M20.2151 18.7502H23.0276V20.6252H20.2151V18.7502Z" fill="white"/>
<path d="M20.6838 20.6252H22.5588V22.5002H20.6838V20.6252Z" fill="white"/>
<path d="M16.6137 11.2999L15.4652 9.00303C15.4332 8.93913 15.387 8.88339 15.3301 8.84007C15.2733 8.79681 15.2072 8.76705 15.1371 8.75319L12.0434 8.13399C11.7999 8.08503 11.5857 7.94139 11.448 7.73469C11.3103 7.52799 11.2602 7.27509 11.3088 7.03149C11.3576 6.78771 11.5012 6.57327 11.708 6.43533C11.9148 6.29745 12.168 6.24729 12.4118 6.29601L15.7305 6.95979C16.0106 7.01571 16.2741 7.13481 16.5011 7.30809C16.7281 7.48137 16.9125 7.70421 17.0402 7.95963L18.2932 10.4613C18.3482 10.5716 18.3808 10.6916 18.3894 10.8145C18.3979 10.9374 18.3821 11.0608 18.3429 11.1776C18.3038 11.2944 18.242 11.4023 18.161 11.4952C18.0801 11.5881 17.9817 11.6641 17.8713 11.719C17.649 11.8302 17.3916 11.8485 17.1557 11.7699C16.9199 11.6913 16.7249 11.5222 16.6137 11.2999Z" fill="white"/>
<path d="M18.3402 10.7813C18.1178 10.8925 17.8604 10.9108 17.6246 10.8323C17.3887 10.7537 17.1937 10.5846 17.0825 10.3623L15.9341 8.06543C15.9021 8.00153 15.8559 7.94579 15.799 7.90247C15.7421 7.85915 15.6761 7.82945 15.606 7.81559L12.5122 7.19634C12.3208 7.15776 12.1463 7.06013 12.0133 6.91715C11.8803 6.77423 11.7954 6.59316 11.7706 6.39948C11.6026 6.49212 11.4673 6.63419 11.3829 6.80645C11.2985 6.97871 11.2692 7.17281 11.299 7.36229C11.3288 7.55183 11.4163 7.72751 11.5495 7.86557C11.6827 8.00363 11.8551 8.09729 12.0435 8.13383L15.1372 8.75309C15.2073 8.76695 15.2734 8.79665 15.3302 8.83997C15.3871 8.88329 15.4333 8.93903 15.4653 9.00293L16.6138 11.2998C16.725 11.5221 16.92 11.6912 17.1558 11.7698C17.3917 11.8483 17.6491 11.83 17.8714 11.7188C18.0455 11.6314 18.1879 11.4917 18.2787 11.3194C18.3694 11.1469 18.4041 10.9505 18.3777 10.7575C18.3645 10.765 18.3538 10.7743 18.3402 10.7813Z" fill="white"/>
<path d="M21.6213 13.1252C21.6213 13.3738 21.7201 13.6123 21.8959 13.7881C22.0718 13.9639 22.3102 14.0627 22.5588 14.0627H26.5095C26.4226 13.9789 26.3294 13.9021 26.2305 13.833L23.8371 12.1877H22.5588C22.3102 12.1877 22.0718 12.2864 21.8959 12.4622C21.7201 12.638 21.6213 12.8765 21.6213 13.1252Z" fill="white"/>
<path d="M18.3401 16.8752H23.0276C23.5249 16.8752 24.0018 17.0727 24.3535 17.4244C24.7051 17.776 24.9026 18.2529 24.9026 18.7502H20.2151C19.7178 18.7502 19.2409 18.5526 18.8893 18.201C18.5377 17.8493 18.3401 17.3725 18.3401 16.8752Z" fill="white"/>
<path d="M22.0901 19.2189H23.0275V20.6252H21.1525V20.1564C21.1525 19.9078 21.2513 19.6694 21.4271 19.4936C21.6029 19.3177 21.8414 19.2189 22.0901 19.2189Z" fill="white"/>
<path d="M27.7151 19.219C27.3421 19.219 26.9844 19.3671 26.7207 19.6308C26.457 19.8946 26.3088 20.2522 26.3088 20.6252V21.5627C26.3088 21.687 26.2595 21.8062 26.1716 21.8942C26.0837 21.9821 25.9644 22.0315 25.8401 22.0315C25.7158 22.0315 25.5965 22.0808 25.5086 22.1687C25.4207 22.2566 25.3713 22.3759 25.3713 22.5002C25.3713 22.6245 25.4207 22.7437 25.5086 22.8317C25.5965 22.9196 25.7158 22.969 25.8401 22.969C26.2131 22.969 26.5707 22.8208 26.8344 22.5571C27.0982 22.2934 27.2463 21.9356 27.2463 21.5627V20.6252C27.2463 20.5009 27.2957 20.3816 27.3836 20.2937C27.4715 20.2058 27.5908 20.1565 27.7151 20.1565C27.8394 20.1565 27.9587 20.2058 28.0466 20.2937C28.1345 20.3816 28.1838 20.5009 28.1838 20.6252V21.5627C28.1831 22.184 27.9359 22.7798 27.4965 23.2192C27.0572 23.6585 26.4615 23.9057 25.8401 23.9065H19.2776C18.991 23.9063 18.7118 23.8155 18.4799 23.6471C18.2479 23.4788 18.0751 23.2414 17.9862 22.969H23.9651C24.0894 22.969 24.2087 22.9196 24.2966 22.8317C24.3845 22.7437 24.4338 22.6245 24.4338 22.5002C24.4338 22.3759 24.3845 22.2566 24.2966 22.1687C24.2087 22.0808 24.0894 22.0315 23.9651 22.0315H23.0276V21.094C23.1519 21.094 23.2712 21.0446 23.3591 20.9567C23.447 20.8687 23.4963 20.7495 23.4963 20.6252V19.219H25.8401C25.9466 19.219 26.0499 19.1828 26.133 19.1163L28.4768 17.2413C28.555 17.1782 28.6109 17.0917 28.6362 16.9945C28.6616 16.8973 28.655 16.7945 28.6175 16.7013L27.68 14.3575C27.6455 14.2715 27.5862 14.1976 27.5098 14.1452L20.1115 9.05736L18.2932 5.41567C18.2376 5.3044 18.1401 5.21977 18.0222 5.18038C17.9042 5.141 17.7754 5.15009 17.6642 5.20567C17.5529 5.26124 17.4683 5.35873 17.4289 5.4767C17.3895 5.59468 17.3986 5.72346 17.4542 5.83473L19.3292 9.5847C19.3647 9.65574 19.4178 9.71658 19.4834 9.76146L22.3601 11.7391C22.008 11.7884 21.6878 11.9696 21.4641 12.2461C21.2405 12.5225 21.1302 12.8735 21.1554 13.2281C21.1807 13.5827 21.3396 13.9145 21.6002 14.1565C21.8607 14.3984 22.2033 14.5325 22.5588 14.5315H26.419L26.8638 14.8371L27.6213 16.7266L25.6755 18.2815H25.3245C25.2157 17.7524 24.9278 17.2771 24.5094 16.9355C24.0911 16.594 23.5677 16.4071 23.0276 16.4065H18.3401C18.2157 16.4065 18.0965 16.4558 18.0086 16.5437C17.9207 16.6316 17.8713 16.7509 17.8713 16.8752C17.8731 17.384 18.042 17.8781 18.3523 18.2815H16.6245L15.8895 17.5127L14.6571 15.7877C14.6221 15.7358 14.577 15.6916 14.5246 15.6574C14.4722 15.6233 14.4134 15.6 14.3518 15.5889C14.2902 15.5779 14.2271 15.5792 14.166 15.5929C14.105 15.6067 14.0473 15.6325 13.9964 15.6688C13.9455 15.7052 13.9023 15.7514 13.8696 15.8047C13.8368 15.8579 13.815 15.9173 13.8055 15.9791C13.796 16.0409 13.799 16.1041 13.8143 16.1647C13.8296 16.2254 13.8568 16.2824 13.8945 16.3324L14.3088 16.9127L8.64448 15.0246C8.52634 14.9853 8.39746 14.9945 8.28622 15.0503C8.17492 15.106 8.09032 15.2036 8.05102 15.3218C8.01172 15.4399 8.02096 15.5687 8.0767 15.68C8.13244 15.7913 8.23012 15.8759 8.3482 15.9152L12.6396 17.344H7.67698L3.16665 14.9149C2.79378 14.7146 2.48221 14.4169 2.26512 14.0535C2.04803 13.6901 1.93354 13.2747 1.93384 12.8515V11.8671L11.1823 14.4569C11.2416 14.4736 11.3036 14.4783 11.3648 14.4709C11.4259 14.4636 11.485 14.4443 11.5387 14.414C11.5923 14.3838 11.6396 14.3434 11.6776 14.2949C11.7156 14.2464 11.7437 14.1909 11.7602 14.1316C11.7937 14.0119 11.7783 13.8839 11.7173 13.7756C11.6564 13.6673 11.555 13.5877 11.4354 13.5541L1.93384 10.8944V9.528L13.579 12.8561L12.7742 14.305C12.7139 14.4137 12.6993 14.5418 12.7335 14.6613C12.7677 14.7808 12.8479 14.8817 12.9565 14.9421C13.026 14.9807 13.1043 15.0007 13.1838 15.0002C13.2675 15.0002 13.3497 14.9779 13.4219 14.9354C13.494 14.893 13.5534 14.832 13.594 14.7588L15.8182 10.7561L16.1932 11.5094C16.2207 11.5645 16.2589 11.6136 16.3054 11.6539C16.3519 11.6942 16.406 11.725 16.4643 11.7445C16.5228 11.7639 16.5845 11.7717 16.6458 11.7673C16.7073 11.7629 16.7672 11.7465 16.8223 11.719C16.8773 11.6914 16.9265 11.6533 16.9668 11.6068C17.0071 11.5603 17.0379 11.5062 17.0573 11.4478C17.0768 11.3894 17.0846 11.3277 17.0802 11.2663C17.0758 11.2049 17.0594 11.1449 17.0318 11.0899L15.8843 8.793C15.8207 8.66478 15.7284 8.55294 15.6146 8.46612C15.5008 8.3793 15.3686 8.31984 15.228 8.29236L12.1343 7.67364C12.0123 7.64928 11.9051 7.57746 11.8361 7.47396C11.7671 7.37052 11.742 7.24386 11.7663 7.12194C11.7907 6.99996 11.8625 6.89268 11.966 6.82368C12.0695 6.75468 12.1961 6.7296 12.318 6.75396L15.6368 7.41768C15.847 7.45914 16.0449 7.54836 16.2152 7.67838C16.3854 7.8084 16.5235 7.9758 16.6188 8.16768L17.8713 10.6708C17.927 10.782 18.0245 10.8666 18.1425 10.9059C18.2009 10.9253 18.2625 10.9331 18.324 10.9287C18.3854 10.9243 18.4454 10.9079 18.5004 10.8803C18.5555 10.8528 18.6045 10.8147 18.6449 10.7681C18.6852 10.7216 18.716 10.6676 18.7355 10.6092C18.7549 10.5508 18.7626 10.4891 18.7583 10.4277C18.7539 10.3663 18.7375 10.3064 18.71 10.2513L17.4593 7.75002C17.3006 7.43016 17.0705 7.15104 16.7868 6.93426C16.503 6.71748 16.1733 6.56886 15.8229 6.49986L12.5037 5.83613C12.1379 5.76297 11.7581 5.8381 11.4477 6.045C11.1374 6.25188 10.9219 6.5736 10.8488 6.93936C10.7756 7.30506 10.8507 7.68492 11.0576 7.9953C11.2645 8.30562 11.5862 8.52108 11.952 8.59428L15.0457 9.213L15.3776 9.87678C15.2681 9.9117 15.1754 9.98604 15.1175 10.0853L14.0463 12.0138L1.59352 8.4555C1.52377 8.43564 1.45035 8.43222 1.37905 8.44554C1.30774 8.45886 1.2405 8.4885 1.18262 8.53224C1.12473 8.57592 1.07778 8.6325 1.04546 8.69742C1.01313 8.76234 0.996321 8.83392 0.996339 8.90646V12.8515C0.995907 13.4441 1.15618 14.0258 1.46011 14.5346C1.76403 15.0434 2.20023 15.4603 2.72227 15.7408L5.69931 17.344H4.74634C3.75178 17.344 2.79795 17.7391 2.09469 18.4423C1.39143 19.1456 0.996339 20.0994 0.996339 21.094C0.996339 22.0885 1.39143 23.0423 2.09469 23.7456C2.79795 24.4489 3.75178 24.844 4.74634 24.844H12.2463C13.0086 24.845 13.7531 24.6135 14.3803 24.1802C15.0075 23.747 15.4875 23.1326 15.7562 22.4193C16.025 21.7059 16.0696 20.9275 15.8842 20.1881C15.6987 19.4488 15.2921 18.7835 14.7185 18.2815H15.3279L16.0859 19.0741C16.1297 19.1199 16.1822 19.1563 16.2405 19.1812C16.2987 19.2061 16.3614 19.219 16.4248 19.219H19.7463V20.6252C19.7463 20.7495 19.7957 20.8687 19.8836 20.9567C19.9715 21.0446 20.0907 21.094 20.2151 21.094V22.0315H17.4527C17.3305 22.0314 17.2131 22.0791 17.1255 22.1644C17.0379 22.2497 16.9872 22.3658 16.984 22.488C16.9761 22.7943 17.0296 23.099 17.1413 23.3844C17.253 23.6697 17.4206 23.9297 17.6343 24.1493C17.8481 24.3688 18.1035 24.5434 18.3858 24.6627C18.668 24.782 18.9712 24.8436 19.2776 24.844H25.8401C26.71 24.8428 27.5439 24.4967 28.1591 23.8817C28.7742 23.2666 29.1202 22.4326 29.1213 21.5627V20.6252C29.1213 20.2522 28.9732 19.8946 28.7094 19.6308C28.4457 19.3671 28.0881 19.219 27.7151 19.219ZM22.5588 13.594C22.4345 13.594 22.3153 13.5446 22.2274 13.4567C22.1395 13.3687 22.0901 13.2495 22.0901 13.1252C22.0901 13.0009 22.1395 12.8816 22.2274 12.7937C22.3153 12.7058 22.4345 12.6565 22.5588 12.6565H23.6918L25.0554 13.594H22.5588ZM12.687 18.3194L12.012 19.219H11.7776V18.2815H12.2463C12.394 18.2827 12.5413 18.2954 12.687 18.3194ZM14.5901 19.54L13.7084 19.9319C13.5297 19.7083 13.3022 19.5286 13.0432 19.4065L13.616 18.6428C14.0071 18.8606 14.3409 19.1681 14.5901 19.54ZM15.0588 21.094C15.0579 21.329 15.0273 21.563 14.9679 21.7905L14.0904 21.4005C14.1317 21.1982 14.1317 20.9897 14.0904 20.7874L14.9679 20.3974C15.0273 20.6248 15.0579 20.8589 15.0588 21.094ZM12.2463 22.0315H6.3607C6.53122 21.7484 6.62134 21.4243 6.62134 21.094C6.62134 20.7635 6.53122 20.4394 6.3607 20.1565H10.632C10.4633 20.4402 10.3733 20.7638 10.3713 21.094C10.3713 21.2183 10.4207 21.3375 10.5086 21.4254C10.5965 21.5133 10.7158 21.5627 10.8401 21.5627C10.9644 21.5627 11.0837 21.5133 11.1716 21.4254C11.2595 21.3375 11.3088 21.2183 11.3088 21.094C11.3088 20.9085 11.3638 20.7273 11.4668 20.5731C11.5698 20.4189 11.7162 20.2988 11.8876 20.2278C12.0589 20.1569 12.2474 20.1383 12.4292 20.1745C12.6111 20.2106 12.7781 20.2999 12.9093 20.431C13.0404 20.5621 13.1297 20.7292 13.1658 20.911C13.202 21.0929 13.1834 21.2814 13.1125 21.4527C13.0415 21.624 12.9213 21.7705 12.7672 21.8734C12.613 21.9764 12.4317 22.0315 12.2463 22.0315ZM7.09012 18.2815V19.219H6.15262V18.2815H7.09012ZM9.90262 19.219V18.2815H10.8401V19.219H9.90262ZM8.96512 19.219H8.02762V18.2815H8.96512V19.219ZM4.74634 20.1565C4.93176 20.1565 5.11302 20.2114 5.26719 20.3144C5.42136 20.4175 5.54152 20.5639 5.61247 20.7352C5.68344 20.9065 5.702 21.095 5.66583 21.2768C5.62965 21.4587 5.54037 21.6257 5.40926 21.7568C5.27814 21.888 5.1111 21.9773 4.92924 22.0135C4.74738 22.0496 4.55888 22.031 4.38757 21.9601C4.21627 21.8891 4.06985 21.769 3.96684 21.6148C3.86382 21.4606 3.80884 21.2794 3.80884 21.094C3.80884 20.8453 3.90761 20.6068 4.08343 20.431C4.25924 20.2552 4.4977 20.1565 4.74634 20.1565ZM7.09012 22.969V23.9065H6.15262V22.969H7.09012ZM8.02762 22.969H8.96512V23.9065H8.02762V22.969ZM9.90262 22.969H10.8401V23.9065H9.90262V22.969ZM5.21509 18.2815V19.219H4.98072L4.30572 18.3194C4.45138 18.2954 4.5987 18.2827 4.74634 18.2815H5.21509ZM3.37525 18.6405L3.94947 19.4065C3.69148 19.5296 3.46509 19.7102 3.28759 19.9343L2.40259 19.54C2.65106 19.1675 2.98441 18.8591 3.37525 18.6405ZM1.93384 21.094C1.93477 20.8589 1.96532 20.6248 2.02477 20.3974L2.90227 20.7874C2.86102 20.9897 2.86102 21.1982 2.90227 21.4005L2.02477 21.7905C1.96532 21.563 1.93477 21.329 1.93384 21.094ZM2.40259 22.6478L3.28431 22.256C3.46275 22.4804 3.6903 22.661 3.94947 22.7838L3.37525 23.5474C2.98441 23.3287 2.65106 23.0204 2.40259 22.6478ZM4.30384 23.8666L4.98072 22.969H5.21509V23.9065H4.74634C4.5987 23.9053 4.45138 23.8925 4.30572 23.8685L4.30384 23.8666ZM11.7776 23.9065V22.969H12.012L12.687 23.8685C12.5413 23.8925 12.394 23.9053 12.2463 23.9065H11.7776ZM13.6175 23.5474L13.0432 22.7838C13.3012 22.6606 13.5276 22.4801 13.7051 22.256L14.5901 22.6478C14.3416 23.0204 14.0082 23.3287 13.6175 23.5474ZM22.5588 20.1565H20.6838V19.219H22.5588V20.1565ZM18.889 17.344H23.0276C23.3183 17.3443 23.6019 17.4346 23.8393 17.6024C24.0767 17.7703 24.2564 18.0074 24.3537 18.2815H20.2151C19.9244 18.2811 19.6408 18.1908 19.4034 18.023C19.166 17.8551 18.9863 17.6179 18.889 17.344ZM21.1526 21.094H22.0901V22.0315H21.1526V21.094Z" fill="url(#paint6_linear)"/>
<path d="M15.5275 14.0627C15.5275 14.187 15.577 14.3062 15.6649 14.3941C15.7528 14.482 15.872 14.5314 15.9963 14.5314H18.8088C18.9331 14.5314 19.0523 14.482 19.1402 14.3941C19.2281 14.3062 19.2775 14.187 19.2775 14.0627C19.2775 13.9383 19.2281 13.8191 19.1402 13.7312C19.0523 13.6433 18.9331 13.5939 18.8088 13.5939H15.9963C15.872 13.5939 15.7528 13.6433 15.6649 13.7312C15.577 13.8191 15.5275 13.9383 15.5275 14.0627Z" fill="#39519D"/>
<path d="M6.15256 15.0001C6.41146 15.0001 6.62134 14.7902 6.62134 14.5314C6.62134 14.2725 6.41146 14.0626 6.15256 14.0626C5.89371 14.0626 5.68384 14.2725 5.68384 14.5314C5.68384 14.7902 5.89371 15.0001 6.15256 15.0001Z" fill="#39519D"/>
<path d="M3.80884 14.0626C4.06772 14.0626 4.27759 13.8527 4.27759 13.5939C4.27759 13.335 4.06772 13.1251 3.80884 13.1251C3.54996 13.1251 3.34009 13.335 3.34009 13.5939C3.34009 13.8527 3.54996 14.0626 3.80884 14.0626Z" fill="#39519D"/>
</g>
<defs>
<linearGradient id="paint0_linear" x1="9.04714" y1="13.7762" x2="9.04714" y2="17.8127" gradientUnits="userSpaceOnUse">
<stop stop-color="#E62E2E"/>
<stop offset="1" stop-color="#FF3333"/>
</linearGradient>
<linearGradient id="paint1_linear" x1="8.02756" y1="10.1064" x2="8.02756" y2="14.5314" gradientUnits="userSpaceOnUse">
<stop stop-color="#E62E2E"/>
<stop offset="1" stop-color="#FF3333"/>
</linearGradient>
<linearGradient id="paint2_linear" x1="4.74634" y1="19.6877" x2="4.74634" y2="22.5002" gradientUnits="userSpaceOnUse">
<stop stop-color="#E62E2E"/>
<stop offset="1" stop-color="#FF3333"/>
</linearGradient>
<linearGradient id="paint3_linear" x1="12.2464" y1="19.6877" x2="12.2464" y2="22.5002" gradientUnits="userSpaceOnUse">
<stop stop-color="#E62E2E"/>
<stop offset="1" stop-color="#FF3333"/>
</linearGradient>
<linearGradient id="paint4_linear" x1="20.6838" y1="9.37518" x2="20.6838" y2="18.7502" gradientUnits="userSpaceOnUse">
<stop stop-color="#E62E2E"/>
<stop offset="1" stop-color="#FF3333"/>
</linearGradient>
<linearGradient id="paint5_linear" x1="20.6838" y1="9.86365" x2="20.6838" y2="18.7502" gradientUnits="userSpaceOnUse">
<stop stop-color="#E62E2E"/>
<stop offset="1" stop-color="#FF3333"/>
</linearGradient>
<linearGradient id="paint6_linear" x1="0.996339" y1="5.16049" x2="0.996339" y2="24.8482" gradientUnits="userSpaceOnUse">
<stop stop-color="#2944CC"/>
<stop offset="1" stop-color="#3355FF"/>
</linearGradient>
<clipPath id="clip0">
<rect width="30" height="30" fill="white" transform="translate(0.0588379)"/>
</clipPath>
</defs>
</svg>
