<svg width="31" height="30" viewBox="0 0 31 30" fill="none" xmlns="http://www.w3.org/2000/svg">
<g clip-path="url(#clip0)">
<path d="M23.1673 6.07611C22.9593 5.40767 22.3406 4.95227 21.6406 4.95227H15.0587H8.47677C7.77676 4.95227 7.15812 5.40767 6.95011 6.07611L4.49438 13.9675V23.6746C4.49438 24.6348 5.27281 25.4133 6.23311 25.4133H23.8843C24.8445 25.4133 25.623 24.6349 25.623 23.6746V13.9675L23.1673 6.07611Z" fill="url(#paint0_linear)"/>
<path d="M23.2055 14.1234H6.91211L9.03326 7.30713H21.0843L23.2055 14.1234Z" fill="white"/>
<path d="M25.6232 1.7733V13.9675L23.1671 6.07626C22.9593 5.40744 22.3405 4.95234 21.6405 4.95234H8.47677C7.77683 4.95234 7.15805 5.40744 6.95022 6.07626L4.49438 13.9675V1.7733C4.49438 1.24226 5.0051 0.81189 5.53613 0.81189H24.6613C25.1929 0.81189 25.6232 1.24226 25.6232 1.7733Z" fill="url(#paint1_linear)"/>
<path d="M1.81518 9.09253H3.16624C3.89985 9.09253 4.49449 9.6872 4.49449 10.4208V14.3989H1.81518C1.16878 14.3989 0.644775 13.8749 0.644775 13.2284V10.2629C0.644775 9.61655 1.16878 9.09253 1.81518 9.09253Z" fill="url(#paint2_linear)"/>
<path d="M28.3026 9.09253H26.9515C26.218 9.09253 25.6233 9.6872 25.6233 10.4208V14.3989H28.3026C28.949 14.3989 29.473 13.8749 29.473 13.2284V10.2629C29.473 9.61655 28.949 9.09253 28.3026 9.09253Z" fill="url(#paint3_linear)"/>
<path d="M9.93258 29.1882H7.59779C7.05989 29.1882 6.62384 28.7522 6.62384 28.2143V25.4132H10.9066V28.2143C10.9065 28.7522 10.4705 29.1882 9.93258 29.1882Z" fill="#000D33"/>
<path d="M22.2787 29.1882H19.9439C19.406 29.1882 18.97 28.7522 18.97 28.2143V25.4132H23.2527V28.2143C23.2527 28.7522 22.8166 29.1882 22.2787 29.1882Z" fill="#000D33"/>
<path d="M10.0536 21.8994H7.94787C7.58502 21.8994 7.29083 21.6052 7.29083 21.2424V19.4821C7.29083 19.1193 7.58502 18.8251 7.94787 18.8251H10.0536C10.4165 18.8251 10.7106 19.1193 10.7106 19.4821V21.2424C10.7106 21.6053 10.4165 21.8994 10.0536 21.8994Z" fill="white"/>
<path d="M22.3406 21.8994H20.235C19.8721 21.8994 19.5779 21.6052 19.5779 21.2424V19.4821C19.5779 19.1193 19.8721 18.8251 20.235 18.8251H22.3406C22.7035 18.8251 22.9977 19.1193 22.9977 19.4821V21.2424C22.9977 21.6053 22.7035 21.8994 22.3406 21.8994Z" fill="white"/>
<path d="M17.0496 25.413H13.2274V19.6582C13.2274 19.198 13.6004 18.8251 14.0605 18.8251H16.2165C16.6767 18.8251 17.0496 19.1981 17.0496 19.6582V25.413Z" fill="#868EAF"/>
<path d="M21.644 7.13305C21.5677 6.88807 21.341 6.72119 21.0845 6.72119H9.03341C8.77687 6.72119 8.55018 6.88807 8.47391 7.13305L6.35276 13.9493C6.23726 14.3205 6.52383 14.7093 6.91226 14.7093H23.2057C23.5941 14.7093 23.8807 14.3205 23.7652 13.9493L21.644 7.13305ZM7.70827 13.5374L9.46477 7.89307H20.6532L22.4097 13.5374H7.70827Z" fill="#000D33"/>
<path d="M28.3024 8.50642H26.9514C26.6884 8.50642 26.4376 8.55979 26.2094 8.6562V1.77324C26.2094 0.920055 25.515 0.225952 24.6614 0.225952H17.8567C17.5331 0.225952 17.2707 0.488276 17.2707 0.81189C17.2707 1.1355 17.5331 1.39783 17.8567 1.39783H24.6615C24.8688 1.39783 25.0375 1.56623 25.0375 1.77324V10.1133L24.881 9.61046L23.7269 5.90197C23.441 4.98349 22.6027 4.36635 21.6407 4.36635H8.47695C7.51496 4.36635 6.67658 4.98349 6.39079 5.90197L5.1609 9.85421V1.77324C5.1609 1.56623 5.32928 1.39783 5.53631 1.39783H12.6777C13.0013 1.39783 13.2636 1.1355 13.2636 0.81189C13.2636 0.488276 13.0013 0.225952 12.6777 0.225952H5.53624C4.68308 0.225952 3.98895 0.920055 3.98895 1.77324V8.69258C3.73958 8.57333 3.46062 8.50642 3.16624 8.50642H1.81524C0.846747 8.50642 0.0588379 9.29434 0.0588379 10.2628V13.2282C0.0588379 14.1967 0.846747 14.9846 1.81524 14.9846H3.90863V23.6745C3.90863 24.8905 4.84736 25.8907 6.0381 25.9903V28.2142C6.0381 29.0744 6.73781 29.7741 7.59799 29.7741H9.93278C10.7929 29.7741 11.4927 29.0744 11.4927 28.2142V25.9991H18.384V28.2142C18.384 29.0744 19.0837 29.7741 19.9438 29.7741H22.2787C23.1388 29.7741 23.8386 29.0744 23.8386 28.2142V25.9991H23.8845C25.1663 25.9991 26.2092 24.9563 26.2092 23.6745V14.9846H28.3026C29.271 14.9846 30.0589 14.1967 30.0589 13.2282V10.2628C30.0588 9.29434 29.2709 8.50642 28.3024 8.50642ZM1.23071 13.2282V10.2628C1.23071 9.9405 1.49292 9.6783 1.81524 9.6783H3.1663C3.57558 9.6783 3.90863 10.0113 3.90863 10.4206V13.8127H1.81524C1.49292 13.8127 1.23071 13.5506 1.23071 13.2282ZM10.3208 28.2142C10.3208 28.4281 10.1467 28.6022 9.9327 28.6022H7.59791C7.38401 28.6022 7.2099 28.4281 7.2099 28.2142V25.9991H10.3208V28.2142ZM16.4637 21.5332H13.8134V19.6583C13.8134 19.522 13.9244 19.4111 14.0606 19.4111H16.2167C16.3529 19.4111 16.4638 19.522 16.4638 19.6583V21.5332H16.4637ZM13.8134 24.8272V22.7051H16.4637V24.8272H13.8134ZM22.6666 28.2142C22.6666 28.4281 22.4926 28.6022 22.2786 28.6022H19.9438C19.7299 28.6022 19.5558 28.4281 19.5558 28.2142V25.9991H22.6666V28.2142ZM25.0373 23.6745C25.0373 24.3101 24.5202 24.8272 23.8845 24.8272H17.6356V19.6583C17.6356 18.8758 16.9991 18.2393 16.2166 18.2393H14.0606C13.2781 18.2393 12.6415 18.8758 12.6415 19.6583V24.8272H6.23321C5.59751 24.8272 5.08043 24.3101 5.08043 23.6745V14.0565L7.50998 6.25005C7.64228 5.82428 8.03089 5.53823 8.47695 5.53823H21.6407C22.0868 5.53823 22.4754 5.82428 22.6078 6.25031L25.0373 14.0565V23.6745ZM28.887 13.2282C28.887 13.5505 28.6248 13.8127 28.3024 13.8127H26.2094V10.415C26.2125 10.0083 26.544 9.6783 26.9514 9.6783H28.3024C28.6248 9.6783 28.887 9.9405 28.887 10.2628V13.2282Z" fill="#000D33"/>
<path d="M10.0536 18.2391H7.94787C7.26252 18.2391 6.7049 18.7968 6.7049 19.4821V21.2424C6.7049 21.9278 7.26252 22.4854 7.94787 22.4854H10.0536C10.739 22.4854 11.2967 21.9277 11.2967 21.2424V19.4821C11.2967 18.7967 10.739 18.2391 10.0536 18.2391ZM10.1247 21.2424C10.1247 21.2815 10.0928 21.3135 10.0536 21.3135H7.94787C7.90868 21.3135 7.87677 21.2815 7.87677 21.2424V19.4821C7.87677 19.443 7.90868 19.411 7.94787 19.411H10.0536C10.0928 19.411 10.1247 19.443 10.1247 19.4821V21.2424Z" fill="#000D33"/>
<path d="M22.3407 18.2391H20.235C19.5496 18.2391 18.9919 18.7968 18.9919 19.4821V21.2424C18.9919 21.9278 19.5496 22.4854 20.235 22.4854H22.3407C23.0261 22.4854 23.5837 21.9277 23.5837 21.2424V19.4821C23.5837 18.7967 23.0261 18.2391 22.3407 18.2391ZM22.4118 21.2424C22.4118 21.2815 22.3799 21.3135 22.3407 21.3135H20.235C20.1957 21.3135 20.1638 21.2815 20.1638 21.2424V19.4821C20.1638 19.443 20.1957 19.411 20.235 19.411H22.3407C22.38 19.411 22.4119 19.443 22.4119 19.4821V21.2424H22.4118Z" fill="#000D33"/>
<path d="M14.7671 1.03604C14.8899 1.33071 15.2368 1.47544 15.5324 1.35304C15.8281 1.23058 15.9705 0.882763 15.8488 0.587803C15.727 0.292608 15.379 0.149053 15.0841 0.270811C14.7894 0.39245 14.6444 0.741493 14.7671 1.03604Z" fill="#000D33"/>
</g>
<defs>
<linearGradient id="paint0_linear" x1="15.0587" y1="4.95227" x2="15.0587" y2="25.4133" gradientUnits="userSpaceOnUse">
<stop stop-color="#E62E2E"/>
<stop offset="1" stop-color="#FF3333"/>
</linearGradient>
<linearGradient id="paint1_linear" x1="15.0588" y1="0.81189" x2="15.0588" y2="13.9675" gradientUnits="userSpaceOnUse">
<stop stop-color="#E62E2E"/>
<stop offset="1" stop-color="#FF3333"/>
</linearGradient>
<linearGradient id="paint2_linear" x1="2.56964" y1="9.09253" x2="2.56964" y2="14.3989" gradientUnits="userSpaceOnUse">
<stop stop-color="#E62E2E"/>
<stop offset="1" stop-color="#FF3333"/>
</linearGradient>
<linearGradient id="paint3_linear" x1="27.5481" y1="9.09253" x2="27.5481" y2="14.3989" gradientUnits="userSpaceOnUse">
<stop stop-color="#E62E2E"/>
<stop offset="1" stop-color="#FF3333"/>
</linearGradient>
<clipPath id="clip0">
<rect width="30" height="30" fill="white" transform="translate(0.0588379)"/>
</clipPath>
</defs>
</svg>
