<svg width="31" height="30" viewBox="0 0 31 30" fill="none" xmlns="http://www.w3.org/2000/svg">
<g clip-path="url(#clip0)">
<path d="M29.0024 17.3663C29.8974 9.83254 28.5724 5.07628 26.1824 2.92503L26.1837 2.92378C22.3262 -0.749969 9.29868 -1.29372 4.68369 3.08878C2.61119 5.23254 1.88119 8.37879 1.80119 12.2738C1.72119 16.17 1.62619 23.4688 8.42744 25.4488H8.43368L8.42744 28.4726C8.42744 28.4726 8.38118 29.6976 9.16368 29.9438C10.0587 30.2338 10.4637 29.6651 13.2474 26.3401C17.9024 26.7438 21.4774 25.8188 21.8837 25.6838C22.8237 25.3688 28.1424 24.6651 29.0024 17.3663ZM13.7062 24.2126C13.7062 24.2126 10.7599 27.8863 9.84368 28.8401C9.54368 29.1501 9.21493 29.1213 9.21993 28.5063C9.21993 28.1026 9.24244 23.4863 9.24244 23.4863C3.47619 21.8338 3.81618 15.6188 3.87869 12.3675C3.94119 9.11504 4.53619 6.45129 6.29119 4.65753C10.3399 0.861283 21.7612 1.71003 24.6712 4.44503C28.2287 7.59879 26.9624 16.5088 26.9699 16.8125C26.2387 22.9051 21.9287 23.2913 21.1362 23.5551C20.7974 23.6676 17.6537 24.4763 13.7062 24.2126Z" fill="#8E24AA"/>
<path d="M15.3358 5.37134C14.8545 5.37134 14.8545 6.12134 15.3358 6.12759C19.0695 6.15634 22.1445 8.75884 22.1783 13.5326C22.1783 14.0364 22.9158 14.0301 22.9095 13.5264H22.9083C22.8683 8.38259 19.5108 5.40009 15.3358 5.37134Z" fill="#8E24AA"/>
<path d="M20.247 12.7413C20.2358 13.2388 20.972 13.2625 20.9783 12.7588C21.0395 9.92253 19.2908 7.5863 16.0045 7.34005C15.5232 7.30505 15.4732 8.0613 15.9532 8.0963C18.8033 8.31255 20.3045 10.2575 20.247 12.7413Z" fill="#8E24AA"/>
<path d="M19.4605 15.9675C18.843 15.61 18.2143 15.8325 17.9543 16.1838L17.4105 16.8875C17.1343 17.245 16.618 17.1975 16.618 17.1975C12.8506 16.2013 11.8431 12.2588 11.8431 12.2588C11.8431 12.2588 11.7968 11.725 12.1418 11.4388L12.8218 10.8763C13.1618 10.6063 13.3768 9.95626 13.0306 9.31751C12.1056 7.64626 11.4843 7.07001 11.1681 6.62751C10.8356 6.21126 10.3356 6.11751 9.8156 6.39876H9.80435C8.7231 7.03126 7.53935 8.21501 7.9181 9.43376C8.56435 10.7188 9.75185 14.815 13.5368 17.91C15.3155 19.3738 18.1305 20.8738 19.3255 21.22L19.3368 21.2375C20.5143 21.63 21.6593 20.4 22.2705 19.2863V19.2775C22.5418 18.7388 22.4518 18.2288 22.0555 17.895C21.353 17.21 20.293 16.4538 19.4605 15.9675Z" fill="#8E24AA"/>
<path d="M16.5195 10.1301C17.7208 10.2001 18.3033 10.8276 18.3658 12.1164C18.3883 12.6202 19.1195 12.5852 19.097 12.0814C19.017 10.3989 18.1395 9.46135 16.5595 9.37385C16.0782 9.34509 16.0332 10.1014 16.5195 10.1301Z" fill="#8E24AA"/>
</g>
<defs>
<clipPath id="clip0">
<rect width="30" height="30" fill="white" transform="translate(0.0588379)"/>
</clipPath>
</defs>
</svg>
