<svg width="31" height="30" viewBox="0 0 31 30" fill="none" xmlns="http://www.w3.org/2000/svg">
<g clip-path="url(#clip0)">
<path d="M0.755768 30C0.587311 30 0.423432 29.9334 0.301896 29.8105C0.141678 29.6484 0.0798801 29.4131 0.140076 29.1932L2.09038 22.0713C0.87616 19.8756 0.235978 17.3918 0.236893 14.8705C0.240326 6.67076 6.91315 0 15.1121 0C19.0889 0.00160218 22.8257 1.55067 25.6343 4.36134C28.4424 7.17224 29.9883 10.9087 29.9871 14.8824C29.9835 23.0823 23.3107 29.7535 15.1121 29.7535C15.1121 29.7535 15.1059 29.7535 15.1057 29.7535C12.7109 29.7526 10.3367 29.1689 8.22281 28.0634L0.917588 29.9792C0.864029 29.9931 0.809555 30 0.755768 30Z" fill="#E5E5E5"/>
<path d="M0.756104 29.3618L2.77576 21.9865C1.52996 19.8279 0.874664 17.3793 0.87558 14.8708C0.878784 7.02309 7.26505 0.638428 15.1124 0.638428C18.9206 0.64003 22.495 2.12227 25.183 4.81254C27.8708 7.50282 29.3505 11.0789 29.3491 14.8822C29.3457 22.7297 22.9585 29.1153 15.1124 29.1153C15.112 29.1153 15.1127 29.1153 15.1124 29.1153H15.1063C12.7236 29.1143 10.3826 28.5167 8.30326 27.3826L0.756104 29.3618ZM8.65276 24.8061L9.08512 25.0622C10.9015 26.1403 12.9841 26.7104 15.1079 26.7115H15.1124C21.6342 26.7115 26.9424 21.4042 26.9452 14.8813C26.9463 11.7202 25.7168 8.74771 23.4827 6.51176C21.2483 4.27582 18.2777 3.04375 15.1168 3.04237C8.58982 3.04237 3.28182 8.349 3.2793 14.8717C3.27838 17.107 3.90369 19.2836 5.08838 21.1673L5.36991 21.615L4.17423 25.9803L8.65276 24.8061Z" fill="white"/>
<path d="M1.25024 28.8648L3.20008 21.7445C1.99708 19.6608 1.36468 17.2966 1.36536 14.8753C1.36834 7.2993 7.53373 1.13574 15.109 1.13574C18.7858 1.13734 22.2366 2.56831 24.831 5.16544C27.426 7.76256 28.8543 11.2148 28.8529 14.886C28.8497 22.4623 22.6841 28.6265 15.1097 28.6265C15.109 28.6265 15.1099 28.6265 15.1097 28.6265H15.1035C12.8035 28.6256 10.5433 28.0484 8.536 26.9543L1.25024 28.8648Z" fill="#64B161"/>
<path d="M0.756104 29.3618L2.77576 21.9865C1.52996 19.8279 0.874664 17.3793 0.87558 14.8708C0.878784 7.02309 7.26505 0.638428 15.1124 0.638428C18.9206 0.64003 22.495 2.12227 25.183 4.81254C27.8708 7.50282 29.3505 11.0789 29.3491 14.8822C29.3457 22.7297 22.9585 29.1153 15.1124 29.1153C15.112 29.1153 15.1127 29.1153 15.1124 29.1153H15.1063C12.7236 29.1143 10.3826 28.5167 8.30326 27.3826L0.756104 29.3618ZM8.65276 24.8061L9.08512 25.0622C10.9015 26.1403 12.9841 26.7104 15.1079 26.7115H15.1124C21.6342 26.7115 26.9424 21.4042 26.9452 14.8813C26.9463 11.7202 25.7168 8.74771 23.4827 6.51176C21.2483 4.27582 18.2777 3.04375 15.1168 3.04237C8.58982 3.04237 3.28182 8.349 3.2793 14.8717C3.27838 17.107 3.90369 19.2836 5.08838 21.1673L5.36991 21.615L4.17423 25.9803L8.65276 24.8061Z" fill="white"/>
<path fill-rule="evenodd" clip-rule="evenodd" d="M11.5552 8.92063C11.2888 8.32828 11.0082 8.31638 10.7546 8.30608C10.5472 8.29715 10.3098 8.29761 10.0729 8.29761C9.83586 8.29761 9.45042 8.38688 9.1245 8.74279C8.79834 9.0987 7.87915 9.95929 7.87915 11.7096C7.87915 13.46 9.15402 15.1512 9.33186 15.3888C9.50971 15.6262 11.7928 19.3327 15.4084 20.7586C18.4134 21.9438 19.0247 21.708 19.677 21.6487C20.3294 21.5895 21.7816 20.7882 22.078 19.9575C22.3746 19.1269 22.3746 18.4151 22.2856 18.2661C22.1966 18.118 21.9595 18.029 21.6038 17.8511C21.2481 17.6733 19.4992 16.8125 19.173 16.6939C18.8469 16.5751 18.6098 16.5161 18.3726 16.8722C18.1353 17.2279 17.4541 18.029 17.2466 18.2661C17.039 18.5039 16.8314 18.5337 16.4757 18.3556C16.12 18.1773 14.9742 17.8019 13.6151 16.59C12.5577 15.6472 11.8436 14.4827 11.636 14.1265C11.4286 13.7709 11.6325 13.5951 11.7923 13.4008C12.08 13.0508 12.5627 12.4216 12.6813 12.1845C12.7998 11.9469 12.7406 11.7393 12.6518 11.5612C12.5627 11.3834 11.8713 9.62421 11.5552 8.92063Z" fill="white"/>
</g>
<defs>
<clipPath id="clip0">
<rect width="30" height="30" fill="white" transform="translate(0.0588379)"/>
</clipPath>
</defs>
</svg>
