<svg width="500" height="373" viewBox="0 0 500 373" fill="none" xmlns="http://www.w3.org/2000/svg">
<path d="M500 327.4H0V327.65H500V327.4Z" fill="#EBEBEB"/>
<path d="M85.5809 336.92H52.4609V337.17H85.5809V336.92Z" fill="#EBEBEB"/>
<path d="M179.83 334.21H145.33V334.46H179.83V334.21Z" fill="#EBEBEB"/>
<path d="M131.5 341.75H76.0801V342H131.5V341.75Z" fill="#EBEBEB"/>
<path d="M448.831 342.67H405.641V342.92H448.831V342.67Z" fill="#EBEBEB"/>
<path d="M393.33 336.42H370.43V336.67H393.33V336.42Z" fill="#EBEBEB"/>
<path d="M289.311 340.43H195.631V340.68H289.311V340.43Z" fill="#EBEBEB"/>
<path d="M237.001 282.8H43.9109C42.3983 282.797 40.9485 282.195 39.8798 281.124C38.8112 280.053 38.2109 278.603 38.2109 277.09V5.66C38.2241 4.15602 38.8301 2.71798 39.8974 1.65822C40.9646 0.598458 42.4069 0.00257639 43.9109 0H237.001C238.515 0 239.968 0.601588 241.039 1.67242C242.109 2.74325 242.711 4.19561 242.711 5.71V277.09C242.711 278.604 242.109 280.057 241.039 281.128C239.968 282.198 238.515 282.8 237.001 282.8ZM43.9109 0.200001C42.4646 0.20265 41.0784 0.779065 40.0566 1.80273C39.0348 2.82639 38.4609 4.21365 38.4609 5.66V277.09C38.4609 278.536 39.0348 279.924 40.0566 280.947C41.0784 281.971 42.4646 282.547 43.9109 282.55H237.001C238.448 282.547 239.835 281.971 240.859 280.948C241.882 279.924 242.458 278.537 242.461 277.09V5.66C242.458 4.21273 241.882 2.82549 240.859 1.80212C239.835 0.77874 238.448 0.202644 237.001 0.200001H43.9109Z" fill="#EBEBEB"/>
<path d="M453.31 282.8H260.21C258.696 282.797 257.246 282.195 256.175 281.125C255.105 280.054 254.503 278.604 254.5 277.09V5.66C254.516 4.15511 255.124 2.71708 256.193 1.65759C257.262 0.598109 258.705 0.00254829 260.21 0H453.31C454.812 0.0052045 456.252 0.602249 457.317 1.66173C458.382 2.72121 458.987 4.15775 459 5.66V277.09C459 278.601 458.401 280.05 457.335 281.121C456.268 282.191 454.821 282.795 453.31 282.8ZM260.21 0.200001C258.763 0.202644 257.375 0.77874 256.352 1.80212C255.329 2.82549 254.753 4.21273 254.75 5.66V277.09C254.753 278.537 255.329 279.924 256.352 280.948C257.375 281.971 258.763 282.547 260.21 282.55H453.31C454.757 282.547 456.145 281.971 457.168 280.948C458.191 279.924 458.767 278.537 458.77 277.09V5.66C458.767 4.21273 458.191 2.82549 457.168 1.80212C456.145 0.77874 454.757 0.202644 453.31 0.200001H260.21Z" fill="#EBEBEB"/>
<path d="M202.74 324.3H148.6V327.4H202.74V324.3Z" fill="#E0E0E0"/>
<path d="M170.801 256.59L155.801 324.3H195.451L180.451 256.59C180.163 255.531 179.535 254.596 178.663 253.929C177.791 253.263 176.723 252.901 175.626 252.901C174.528 252.901 173.461 253.263 172.589 253.929C171.717 254.596 171.089 255.531 170.801 256.59Z" fill="#E0E0E0"/>
<path d="M183.509 270.03H167.829L164.039 287.19H187.299L183.509 270.03Z" fill="#F5F5F5"/>
<path d="M187.959 290.21H163.379L161.449 298.9H189.879L187.959 290.21Z" fill="#F5F5F5"/>
<path d="M72.5195 327.4H80.5595L104.24 195H96.1895L72.5195 327.4Z" fill="#E0E0E0"/>
<path d="M283.15 327.4H291.2L314.88 195H306.83L283.15 327.4Z" fill="#E0E0E0"/>
<path d="M338.56 201.45H72.5195V249.57H338.56V201.45Z" fill="#EBEBEB"/>
<path d="M101.359 247.44H73.7793L89.0793 203.57H116.659L101.359 247.44Z" fill="#FAFAFA"/>
<path d="M156.519 247.44H128.939L144.239 203.57H171.809L156.519 247.44Z" fill="#FAFAFA"/>
<path d="M211.68 247.44H184.1L199.39 203.57H226.97L211.68 247.44Z" fill="#FAFAFA"/>
<path d="M266.83 247.44H239.25L254.55 203.57H282.13L266.83 247.44Z" fill="#FAFAFA"/>
<path d="M321.99 247.44H294.41L309.71 203.57H337.29L321.99 247.44Z" fill="#FAFAFA"/>
<path d="M127.919 327.4H119.869L96.1895 195H104.239L127.919 327.4Z" fill="#E0E0E0"/>
<path d="M338.55 327.4H330.51L306.83 195H314.88L338.55 327.4Z" fill="#E0E0E0"/>
<path d="M447 323.33H376V327.4H447V323.33Z" fill="#E0E0E0"/>
<path d="M404.65 236.65L385.5 323.33H437.5L418.35 236.65C416.73 229.32 406.27 229.32 404.65 236.65Z" fill="#E0E0E0"/>
<path d="M421.78 252.17H401.22L396.25 274.67H426.75L421.78 252.17Z" fill="#F5F5F5"/>
<path d="M427.619 278.63H395.379L392.859 290.02H430.139L427.619 278.63Z" fill="#F5F5F5"/>
<path d="M463.001 186.9V216.2C463 216.656 462.891 217.105 462.685 217.512C462.478 217.918 462.179 218.271 461.811 218.54C461.443 218.81 461.017 218.989 460.567 219.064C460.117 219.138 459.656 219.106 459.221 218.97L36.2207 84.9199C35.6387 84.7299 35.1317 84.3605 34.7724 83.8648C34.4132 83.369 34.22 82.7722 34.2207 82.1599V52.8499C34.2191 52.3932 34.3257 51.9427 34.5318 51.5351C34.7379 51.1276 35.0377 50.7747 35.4065 50.5054C35.7753 50.2361 36.2027 50.0581 36.6537 49.9858C37.1046 49.9136 37.5662 49.9493 38.0007 50.0899L461.001 184.09C461.591 184.283 462.104 184.659 462.464 185.165C462.824 185.671 463.012 186.279 463.001 186.9Z" fill="#EBEBEB"/>
<path d="M429.711 207.38L453.001 214.76L440.081 179.75L416.801 172.37L429.711 207.38Z" fill="#FAFAFA"/>
<path d="M383.14 192.62L406.43 200L393.51 164.99L370.23 157.61L383.14 192.62Z" fill="#FAFAFA"/>
<path d="M336.57 177.87L359.86 185.24L346.94 150.23L323.65 142.85L336.57 177.87Z" fill="#FAFAFA"/>
<path d="M290 163.1L313.29 170.49L300.37 135.47L277.08 128.09L290 163.1Z" fill="#FAFAFA"/>
<path d="M243.43 148.35L266.71 155.73L253.8 120.71L230.51 113.33L243.43 148.35Z" fill="#FAFAFA"/>
<path d="M196.859 133.59L220.139 140.97L207.229 105.95L183.939 98.5701L196.859 133.59Z" fill="#FAFAFA"/>
<path d="M150.279 118.83L173.569 126.21L160.649 91.1901L137.369 83.8101L150.279 118.83Z" fill="#FAFAFA"/>
<path d="M103.711 104.07L127.001 111.45L114.081 76.43L90.8008 69.05L103.711 104.07Z" fill="#FAFAFA"/>
<path d="M57.1405 89.31L80.4305 96.69L67.5105 61.67L44.2305 54.29L57.1405 89.31Z" fill="#FAFAFA"/>
<path d="M249.999 372.56C357.082 372.56 443.889 367.492 443.889 361.24C443.889 354.988 357.082 349.92 249.999 349.92C142.917 349.92 56.1094 354.988 56.1094 361.24C56.1094 367.492 142.917 372.56 249.999 372.56Z" fill="#F5F5F5"/>
<path d="M326.469 352.57H314.939V5.12003C314.939 3.25003 326.469 3.25003 326.469 5.12003V352.57Z" fill="#263238"/>
<path d="M326.469 135.6L314.939 137.92V121.97H326.469V135.6Z" fill="black"/>
<path d="M406.271 16.7774L244.477 4.75405C237.868 4.2629 232.112 9.22256 231.62 15.8317L224.868 106.691C224.377 113.3 229.337 119.056 235.946 119.548L397.74 131.571C404.349 132.062 410.105 127.102 410.596 120.493L417.348 29.6337C417.839 23.0245 412.88 17.2686 406.271 16.7774Z" fill="white"/>
<path d="M398.63 133.13C398.3 133.13 397.96 133.13 397.63 133.13L235.83 121.13C232.265 120.854 228.953 119.178 226.619 116.469C224.284 113.76 223.116 110.237 223.37 106.67L230.13 15.81C230.404 12.2427 232.078 8.92874 234.788 6.59218C237.497 4.25562 241.021 3.0864 244.59 3.33999L406.39 15.34C409.956 15.6162 413.267 17.2918 415.601 20.001C417.936 22.7101 419.104 26.2328 418.85 29.8L412.09 120.66C411.831 124.053 410.303 127.224 407.81 129.541C405.317 131.857 402.043 133.15 398.64 133.16L398.63 133.13ZM243.57 6.23999C240.918 6.25052 238.367 7.26151 236.428 9.07091C234.489 10.8803 233.304 13.3549 233.11 16L226.35 106.86C226.157 109.623 227.062 112.351 228.869 114.45C230.676 116.549 233.239 117.85 236 118.07L397.8 130.07C400.575 130.269 403.316 129.361 405.424 127.545C407.531 125.73 408.835 123.154 409.05 120.38L415.81 29.52C416.014 26.7438 415.108 24.0002 413.292 21.8911C411.475 19.782 408.896 18.4797 406.12 18.27L244.32 6.26999C244.1 6.24999 243.83 6.23999 243.57 6.23999Z" fill="url(#paint0_linear)"/>
<path d="M287.439 53.05L267.119 51.53L267.799 42.36L289.919 19.71L299.649 20.43L297.809 45.11L302.809 45.49L302.169 54.14L297.169 53.77L296.609 61.28L286.889 60.55L287.439 53.05ZM288.089 44.39L288.999 31.75L277.349 43.59L288.089 44.39Z" fill="url(#paint1_linear)"/>
<path d="M306.64 41.6699C307.213 34.0299 309 28.8066 312 25.9999C315 23.1933 319.3 21.9766 324.9 22.3499C327.168 22.4521 329.4 22.9601 331.49 23.8499C333.022 24.541 334.4 25.5341 335.54 26.7699C336.492 27.8337 337.281 29.0336 337.88 30.3299C338.421 31.6763 338.797 33.0832 339 34.5199C339.531 37.6402 339.676 40.8142 339.43 43.9699C338.876 51.2633 337.247 56.5033 334.54 59.6899C331.833 62.8766 327.46 64.2499 321.42 63.8099C318.592 63.7181 315.827 62.9573 313.35 61.5899C311.332 60.3392 309.685 58.5715 308.58 56.4699C307.601 54.5178 306.987 52.403 306.77 50.2299C306.431 47.3887 306.388 44.5201 306.64 41.6699ZM317.7 42.5099C317.32 47.6299 317.513 51.1599 318.28 53.0999C319.04 55.0299 320.28 56.0999 322 56.1999C323.093 56.2767 324.172 55.9171 325 55.1999C326.04 54.2197 326.773 52.9587 327.11 51.5699C327.78 48.9511 328.178 46.2703 328.3 43.5699C328.693 38.2366 328.506 34.6199 327.74 32.7199C327.481 31.8795 326.974 31.1372 326.285 30.5909C325.596 30.0447 324.757 29.7201 323.88 29.6599C323.003 29.5771 322.122 29.7757 321.365 30.227C320.608 30.6783 320.014 31.3588 319.67 32.1699C318.737 34.0099 318.08 37.4566 317.7 42.5099Z" fill="url(#paint2_linear)"/>
<path d="M355.5 37L345.09 34.33C346.022 31.2827 348.021 28.6733 350.72 26.98C353.347 25.3667 356.943 24.7333 361.51 25.08C366.75 25.4733 370.467 26.7333 372.66 28.86C373.713 29.8152 374.532 31.0007 375.053 32.3241C375.573 33.6475 375.781 35.0731 375.66 36.49C375.552 38.1695 374.931 39.7754 373.88 41.09C372.649 42.5664 371.082 43.7256 369.31 44.47C370.537 44.8327 371.703 45.3753 372.77 46.08C374.015 46.9682 375.005 48.1684 375.64 49.56C376.304 51.099 376.562 52.7827 376.39 54.45C376.179 56.8045 375.355 59.0627 374 61C372.615 63.0509 370.647 64.6394 368.35 65.56C365.406 66.6177 362.258 66.9838 359.15 66.63C356.205 66.5188 353.307 65.8645 350.6 64.7C348.635 63.7511 346.942 62.3199 345.68 60.54C344.359 58.5901 343.447 56.3925 343 54.08L354.26 53.43C354.329 55.171 354.922 56.8507 355.96 58.25C356.912 59.2184 358.202 59.7802 359.56 59.8175C360.917 59.8548 362.236 59.3647 363.24 58.45C364.374 57.31 365.025 55.7775 365.06 54.17C365.286 52.6034 364.883 51.0111 363.94 49.74C363.474 49.1842 362.895 48.7343 362.242 48.4204C361.588 48.1065 360.875 47.9359 360.15 47.92C358.919 47.8851 357.688 48.0129 356.49 48.3L357.66 40.37C358.134 40.4854 358.615 40.5689 359.1 40.62C359.77 40.6894 360.448 40.6253 361.093 40.4313C361.738 40.2374 362.339 39.9174 362.86 39.49C363.357 39.1098 363.767 38.6274 364.062 38.0754C364.357 37.5234 364.53 36.9146 364.57 36.29C364.634 35.7572 364.589 35.217 364.44 34.7016C364.29 34.1862 364.039 33.7061 363.7 33.29C363.324 32.8881 362.871 32.5665 362.367 32.3448C361.864 32.1231 361.32 32.0058 360.77 32C360.183 31.939 359.589 31.996 359.024 32.1678C358.459 32.3395 357.934 32.6225 357.48 33C356.414 34.0908 355.721 35.491 355.5 37Z" fill="url(#paint3_linear)"/>
<path d="M272.07 68.8101L287.59 70.0001L287.29 74.0001L277.58 73.2801L277.35 76.2801L286.35 76.9601L286.06 80.7801L277.06 80.1101L276.79 83.8001L286.79 84.5501L286.48 88.7901L270.68 87.6101L272.07 68.8101Z" fill="url(#paint4_linear)"/>
<path d="M289.67 89L291.07 70.26L300.72 70.97C302.107 71.0256 303.478 71.2851 304.79 71.74C305.7 72.1076 306.46 72.7695 306.95 73.62C307.415 74.5135 307.639 75.5127 307.6 76.5192C307.562 77.5256 307.262 78.5047 306.73 79.36C306.218 80.0872 305.53 80.6722 304.73 81.06C304.069 81.3653 303.363 81.5644 302.64 81.65C303.163 81.8451 303.654 82.1145 304.1 82.45C304.426 82.7671 304.711 83.1231 304.95 83.51C305.231 83.8929 305.475 84.3014 305.68 84.73L308.08 90.37L301.53 89.88L298.86 83.88C298.656 83.3135 298.336 82.7958 297.92 82.36C297.528 82.0395 297.045 81.8506 296.54 81.82H296.03L295.46 89.43L289.67 89ZM296.32 78.28L298.76 78.46C299.28 78.4635 299.799 78.4166 300.31 78.32C300.694 78.2772 301.05 78.0959 301.31 77.81C301.57 77.5115 301.725 77.1354 301.75 76.74C301.787 76.4816 301.763 76.2181 301.682 75.9701C301.6 75.7222 301.463 75.4963 301.28 75.31C300.662 74.8706 299.918 74.6426 299.16 74.66L296.61 74.47L296.32 78.28Z" fill="url(#paint5_linear)"/>
<path d="M310 90.48L311.39 71.74L321.05 72.46C322.433 72.5131 323.801 72.7692 325.11 73.22C326.022 73.5877 326.786 74.2493 327.28 75.1C327.648 75.7268 327.883 76.4223 327.971 77.1436C328.06 77.8649 328 78.5967 327.795 79.2938C327.589 79.9909 327.244 80.6386 326.778 81.1969C326.313 81.7552 325.739 82.2123 325.09 82.54C324.428 82.8442 323.723 83.0433 323 83.13C323.521 83.3275 324.013 83.5968 324.46 83.93C324.778 84.2542 325.063 84.6093 325.31 84.99C325.592 85.37 325.834 85.779 326.03 86.21L328.43 91.85L321.89 91.37L319.22 85.37C319.015 84.804 318.695 84.2865 318.28 83.85C317.886 83.5264 317.399 83.3371 316.89 83.31H316.38L315.82 90.92L310 90.48ZM316.65 79.77L319.09 79.95C319.61 79.9478 320.128 79.901 320.64 79.81C321.028 79.7722 321.386 79.5859 321.64 79.29C321.907 78.9989 322.066 78.6245 322.09 78.23C322.125 77.9701 322.1 77.7058 322.019 77.4565C321.938 77.2073 321.801 76.9795 321.62 76.79C320.999 76.3487 320.251 76.1238 319.49 76.15L317 76L316.65 79.77Z" fill="url(#paint6_linear)"/>
<path d="M329.85 82.5499C329.816 81.2352 330.075 79.9293 330.606 78.7262C331.137 77.5232 331.929 76.4528 332.923 75.5922C333.918 74.7316 335.091 74.1021 336.357 73.7489C337.624 73.3958 338.954 73.3278 340.25 73.5499C343.37 73.7766 345.703 74.7933 347.25 76.5999C348.055 77.6074 348.647 78.7675 348.99 80.0101C349.334 81.2528 349.423 82.5522 349.25 83.8299C349.184 85.6929 348.665 87.5118 347.74 89.1299C346.913 90.4458 345.716 91.4892 344.3 92.1299C342.638 92.8719 340.812 93.1716 339 92.9999C337.19 92.9302 335.419 92.4516 333.82 91.5999C332.454 90.7897 331.364 89.5877 330.69 88.1499C329.91 86.3931 329.62 84.4582 329.85 82.5499ZM335.64 82.9999C335.406 84.4316 335.671 85.9002 336.39 87.1599C336.732 87.5777 337.155 87.9219 337.633 88.1719C338.112 88.4218 338.636 88.5724 339.174 88.6144C339.712 88.6565 340.253 88.5891 340.765 88.4165C341.276 88.2439 341.747 87.9695 342.15 87.6099C342.89 86.8499 343.34 85.4299 343.49 83.3299C343.719 81.9462 343.442 80.5263 342.71 79.3299C342.379 78.8985 341.956 78.5463 341.471 78.299C340.987 78.0516 340.454 77.9153 339.91 77.8999C339.381 77.8347 338.844 77.8908 338.34 78.0641C337.835 78.2373 337.377 78.5232 337 78.8999C336.076 80.0628 335.594 81.5154 335.64 82.9999Z" fill="url(#paint7_linear)"/>
<path d="M351.77 93.5901L353.16 74.8401L362.81 75.5601C364.197 75.6157 365.568 75.8752 366.88 76.3301C367.775 76.6994 368.521 77.3576 369 78.2001C369.535 79.1402 369.762 80.2242 369.65 81.3001C369.602 82.2454 369.302 83.1607 368.78 83.9501C368.268 84.6751 367.58 85.257 366.78 85.6401C366.118 85.9465 365.413 86.1489 364.69 86.2401C365.668 86.5388 366.494 87.2008 367 88.0901C367.279 88.4758 367.52 88.8877 367.72 89.3201L370.12 94.9601L363.58 94.4701L360.91 88.4701C360.701 87.9054 360.382 87.3885 359.97 86.9501C359.573 86.6306 359.088 86.4419 358.58 86.4101H358.07L357.5 94.0201L351.77 93.5901ZM358.41 82.8701L360.85 83.0501C361.373 83.0537 361.895 83.0069 362.41 82.9101C362.798 82.8723 363.156 82.686 363.41 82.3901C363.678 82.0999 363.837 81.725 363.86 81.3301C363.892 81.0718 363.866 80.8096 363.785 80.5623C363.704 80.315 363.569 80.0889 363.39 79.9001C362.771 79.4546 362.022 79.2261 361.26 79.2501L358.72 79.0601L358.41 82.8701Z" fill="url(#paint8_linear)"/>
<path d="M252.75 108.34L254.02 91.24L265.56 92.1L265.41 94.1L256.13 93.41L255.74 98.7L263.74 99.3L263.59 101.3L255.59 100.7L255.01 108.47L252.75 108.34Z" fill="#263238"/>
<path d="M267.159 101C267.2 98.5529 268.198 96.2192 269.939 94.4999C270.753 93.7549 271.716 93.1914 272.765 92.8466C273.813 92.5018 274.922 92.3836 276.019 92.4999C277.522 92.5908 278.972 93.0924 280.209 93.9499C281.408 94.787 282.334 95.9593 282.869 97.3199C283.447 98.8048 283.673 100.403 283.529 101.99C283.435 103.603 282.955 105.17 282.129 106.56C281.382 107.831 280.261 108.84 278.919 109.45C277.597 110.058 276.14 110.317 274.689 110.2C273.168 110.11 271.702 109.593 270.459 108.71C269.264 107.861 268.346 106.678 267.819 105.31C267.276 103.942 267.051 102.468 267.159 101ZM269.489 101.21C269.257 102.982 269.723 104.775 270.789 106.21C271.289 106.814 271.906 107.311 272.603 107.67C273.3 108.03 274.062 108.245 274.844 108.302C275.626 108.359 276.412 108.257 277.153 108.002C277.895 107.747 278.577 107.345 279.159 106.82C280.44 105.47 281.155 103.681 281.159 101.82C281.283 100.57 281.136 99.3081 280.729 98.1199C280.372 97.0983 279.717 96.2068 278.849 95.5599C277.974 94.9178 276.933 94.5396 275.849 94.4699C275.085 94.4015 274.315 94.4856 273.584 94.7173C272.853 94.9491 272.175 95.3239 271.589 95.8199C270.389 96.8799 269.679 98.6799 269.489 101.25V101.21Z" fill="#263238"/>
<path d="M285.84 110.8L287.12 93.7L294.7 94.27C295.88 94.305 297.045 94.5488 298.14 94.99C298.915 95.3581 299.543 95.9786 299.92 96.75C300.337 97.5638 300.517 98.4786 300.44 99.39C300.414 99.9582 300.276 100.516 300.034 101.031C299.792 101.545 299.451 102.007 299.03 102.39C297.965 103.24 296.642 103.702 295.28 103.7C295.753 103.958 296.191 104.277 296.58 104.65C297.243 105.386 297.817 106.199 298.29 107.07L300.92 111.95L298.07 111.73L296.07 108.01C295.49 106.93 295 106.11 294.61 105.53C294.327 105.064 293.969 104.648 293.55 104.3C293.248 104.07 292.91 103.891 292.55 103.77C292.139 103.676 291.721 103.615 291.3 103.59L288.67 103.4L288.11 110.99L285.84 110.8ZM288.84 101.42L293.7 101.78C294.519 101.873 295.347 101.826 296.15 101.64C296.711 101.496 297.207 101.169 297.56 100.71C297.893 100.277 298.091 99.7551 298.13 99.21C298.166 98.8341 298.119 98.455 297.993 98.0992C297.867 97.7433 297.664 97.4194 297.4 97.1499C296.64 96.4983 295.671 96.1432 294.67 96.1499L289.26 95.74L288.84 101.42Z" fill="#263238"/>
<path d="M303 112.08L304.27 94.98L310.69 95.45C311.764 95.4898 312.819 95.7484 313.79 96.21C314.533 96.595 315.141 97.1988 315.53 97.94C315.911 98.6474 316.085 99.4482 316.03 100.25C315.977 100.975 315.717 101.669 315.28 102.25C314.794 102.9 314.131 103.397 313.37 103.68C314.295 103.994 315.092 104.602 315.64 105.41C316.142 106.198 316.367 107.13 316.28 108.06C316.229 108.835 316 109.588 315.61 110.26C315.274 110.862 314.802 111.375 314.23 111.76C313.639 112.118 312.983 112.356 312.3 112.46C311.38 112.602 310.446 112.629 309.52 112.54L303 112.08ZM305.41 110.23L309.67 110.55C310.186 110.587 310.704 110.587 311.22 110.55C311.685 110.507 312.139 110.382 312.56 110.18C312.941 109.968 313.262 109.662 313.49 109.29C313.775 108.824 313.933 108.292 313.947 107.746C313.961 107.2 313.831 106.66 313.57 106.18C313.276 105.679 312.821 105.292 312.28 105.08C311.481 104.801 310.645 104.642 309.8 104.61L305.85 104.32L305.41 110.23ZM306 102.33L309.7 102.61C310.42 102.703 311.15 102.703 311.87 102.61C312.396 102.517 312.875 102.249 313.23 101.85C313.569 101.437 313.763 100.924 313.78 100.39C313.829 99.8628 313.729 99.3325 313.49 98.86C313.254 98.403 312.859 98.0476 312.38 97.86C311.544 97.5989 310.676 97.4542 309.8 97.43L306.38 97.17L306 102.33Z" fill="#263238"/>
<path d="M319.381 113.3L320.651 96.2L322.921 96.3699L321.641 113.47L319.381 113.3Z" fill="#263238"/>
<path d="M325.631 113.76L326.911 96.6599L332.801 97.0999C333.814 97.152 334.82 97.3095 335.801 97.5699C336.71 97.8363 337.541 98.3202 338.221 98.9799C339.08 99.8327 339.704 100.894 340.031 102.06C340.402 103.396 340.524 104.789 340.391 106.17C340.327 107.339 340.088 108.492 339.681 109.59C339.368 110.46 338.912 111.271 338.331 111.99C337.865 112.567 337.3 113.054 336.661 113.43C336.004 113.788 335.29 114.029 334.551 114.14C333.634 114.275 332.704 114.302 331.781 114.22L325.631 113.76ZM328.051 111.92L331.701 112.19C332.595 112.283 333.498 112.242 334.381 112.07C334.967 111.941 335.515 111.677 335.981 111.3C336.604 110.724 337.087 110.012 337.391 109.22C337.795 108.177 338.031 107.077 338.091 105.96C338.277 104.537 338.077 103.089 337.511 101.77C337.094 100.871 336.391 100.136 335.511 99.6799C334.581 99.3366 333.602 99.1474 332.611 99.1199L329.021 98.8499L328.051 111.92Z" fill="#263238"/>
<path d="M342.891 115.05L344.161 97.95L350.051 98.38C351.065 98.4312 352.071 98.5921 353.051 98.86C353.958 99.1248 354.785 99.6091 355.461 100.27C356.321 101.118 356.945 102.177 357.271 103.34C357.64 104.677 357.765 106.069 357.641 107.45C357.567 108.618 357.328 109.769 356.931 110.87C356.617 111.745 356.157 112.56 355.571 113.28C355.105 113.854 354.539 114.338 353.901 114.71C353.248 115.068 352.537 115.308 351.801 115.42C350.884 115.553 349.954 115.584 349.031 115.51L342.891 115.05ZM345.301 113.2L348.951 113.47C349.845 113.563 350.748 113.522 351.631 113.35C352.217 113.223 352.766 112.959 353.231 112.58C353.855 112.009 354.338 111.3 354.641 110.51C355.045 109.467 355.281 108.367 355.341 107.25C355.527 105.827 355.326 104.379 354.761 103.06C354.348 102.158 353.643 101.422 352.761 100.97C351.83 100.618 350.846 100.425 349.851 100.4L346.261 100.13L345.301 113.2Z" fill="#263238"/>
<path d="M360.189 116.33L361.459 99.23L373.819 100.15L373.669 102.15L363.569 101.4L363.179 106.64L372.639 107.34L372.489 109.34L363.029 108.63L362.599 114.45L373.099 115.24L372.949 117.24L360.189 116.33Z" fill="#263238"/>
<path d="M376.051 117.51L377.321 100.41L379.641 100.58L387.641 114.68L388.641 101.25L390.811 101.41L389.531 118.52L387.211 118.34L379.211 104.24L378.211 117.67L376.051 117.51Z" fill="#263238"/>
<path d="M169.92 109.89L170.25 111.89L170.63 113.98C170.91 115.37 171.17 116.77 171.49 118.15C172.1 120.93 172.8 123.67 173.6 126.32C174 127.64 174.44 128.95 174.91 130.21C175.38 131.47 175.91 132.73 176.4 133.91C177.373 136.125 178.605 138.216 180.07 140.14L177.33 138.34C178.022 138.746 178.821 138.931 179.62 138.87C180.926 138.748 182.196 138.374 183.36 137.77C184.869 137.017 186.305 136.127 187.65 135.11C188.37 134.58 189.1 134.02 189.8 133.42C190.16 133.13 190.51 132.83 190.8 132.53C191.09 132.23 191.53 131.89 191.8 131.68L192.33 131.25C192.985 130.725 193.798 130.438 194.637 130.433C195.476 130.429 196.292 130.708 196.952 131.226C197.612 131.744 198.078 132.469 198.274 133.285C198.469 134.101 198.384 134.959 198.03 135.72C197.73 136.35 197.53 136.83 197.26 137.35C196.99 137.87 196.73 138.35 196.45 138.85C195.87 139.85 195.26 140.8 194.58 141.74C193.181 143.7 191.549 145.484 189.72 147.05C188.713 147.904 187.632 148.667 186.49 149.33C183.851 150.911 180.846 151.776 177.77 151.84C176.077 151.849 174.392 151.607 172.77 151.12C171.879 150.865 171.069 150.383 170.42 149.72L170.04 149.33C167.46 146.652 165.271 143.622 163.54 140.33C161.949 137.332 160.598 134.212 159.5 131C158.396 127.889 157.471 124.717 156.73 121.5C156.37 119.91 156.02 118.31 155.73 116.7C155.59 115.89 155.45 115.09 155.33 114.27C155.21 113.45 155.11 112.68 155.01 111.69C154.828 109.767 155.394 107.849 156.591 106.333C157.788 104.818 159.523 103.822 161.436 103.554C163.348 103.286 165.29 103.766 166.858 104.894C168.425 106.022 169.497 107.711 169.85 109.61L169.92 109.89Z" fill="#263238"/>
<path d="M191.67 131.08C189.56 131.75 187.08 134.19 187.86 137.08C188.64 139.97 197.19 142.08 197.47 136.94C195 132 191.67 131.08 191.67 131.08Z" fill="white"/>
<path d="M190.539 133.87L191.449 132.48L200.799 130C200.799 130 202.159 135.95 195.409 138.21C194.929 138.328 194.423 138.252 193.999 138L191.309 136.6C191.072 136.478 190.864 136.309 190.695 136.103C190.527 135.897 190.403 135.658 190.331 135.402C190.258 135.146 190.24 134.878 190.275 134.615C190.311 134.351 190.401 134.097 190.539 133.87Z" fill="#B55B52"/>
<path d="M120.08 99.7499C132.02 97.5799 148.2 97.1699 159.93 99.1799C162.807 99.6685 165.396 101.221 167.181 103.529C168.967 105.837 169.82 108.732 169.57 111.64C168.9 119.35 168.05 126.16 167.57 131.5C168.1 145.06 166.95 167.72 166.95 172.5L117.26 173.2C115.05 167.01 115.78 139.12 111.9 111.05C111.523 108.472 112.167 105.848 113.695 103.738C115.222 101.628 117.514 100.197 120.08 99.7499Z" fill="#263238"/>
<path opacity="0.2" d="M145.59 172.52L144.59 172.39C147.41 150.14 144.59 112.86 144.59 112.49L145.59 112.41C145.62 112.79 148.43 150.17 145.59 172.52Z" fill="black"/>
<path d="M150.099 100.32C148.099 99.79 149.909 97.77 149.909 97.77C154.933 97.7815 159.948 98.1861 164.909 98.98C165.849 99.7 164.829 100.63 164.829 100.63C164.829 100.63 155.919 101.9 150.099 100.32Z" fill="url(#paint9_linear)"/>
<path opacity="0.2" d="M147.289 97.4701C147.289 97.4701 150.289 103.39 146.289 108.77C148.429 108.903 150.497 109.593 152.289 110.77C152.289 110.77 153.699 105.7 149.729 97.9801C149.299 97.2501 147.289 97.4701 147.289 97.4701Z" fill="black"/>
<path d="M150.439 100.34C151.209 103.95 144.499 110.77 144.499 110.77C144.499 110.77 132.639 104.55 131.889 100.98L150.439 100.34Z" fill="url(#paint10_linear)"/>
<path opacity="0.2" d="M119.36 117.37C120.66 119.88 119.08 130.37 114.36 135.6C114.05 131.02 113.66 126.23 113.16 121.36L119.36 117.37Z" fill="black"/>
<path d="M133.16 81.8201L146.6 88.2601C145.18 92.0701 144.5 96.0301 148.48 97.9201C149.033 98.1874 149.526 98.5658 149.927 99.0317C150.328 99.4976 150.629 100.041 150.811 100.628C150.993 101.215 151.052 101.834 150.985 102.445C150.917 103.056 150.725 103.647 150.42 104.18C149.792 105.274 148.908 106.2 147.843 106.877C146.779 107.555 145.567 107.964 144.31 108.07C139.64 108.54 135.04 105.54 132.36 102.73C131.26 101.57 132.36 100.21 132.48 98.5901C133 92.8701 133.88 86.8801 133.16 81.8201Z" fill="#B55B52"/>
<path opacity="0.2" d="M139.35 83.1001L146.6 88.2601C146.182 89.318 145.864 90.4128 145.65 91.5301C142.65 92.5301 137.95 89.9101 137.87 87.3101C137.83 86.0001 139 83.7201 139.35 83.1001Z" fill="black"/>
<path d="M148.769 60.0899C151.339 62.1799 154.269 71.5199 150.499 75.2899C144.939 68.8299 144.309 59.1199 148.769 60.0899Z" fill="#263238"/>
<path d="M129.439 70.9C130.439 78.9 130.639 83.6 134.959 87.41C141.449 93.14 151.099 88.73 152.489 80.6C153.739 73.27 151.869 61.47 143.819 58.86C142.036 58.282 140.136 58.1662 138.296 58.5236C136.456 58.8809 134.737 59.6995 133.299 60.9028C131.862 62.1061 130.754 63.6546 130.079 65.4032C129.404 67.1517 129.184 69.0431 129.439 70.9Z" fill="#B55B52"/>
<path d="M129.689 77.78C133.469 78.06 134.779 68.92 132.429 63.78C134.069 64.46 138.739 63.78 140.039 61.65C147.579 63.79 150.399 63.83 151.359 60.72C152.319 57.61 140.469 54.87 133.609 56.34C126.749 57.81 128.769 62.78 128.769 62.78C128.769 62.78 117.149 66.5 129.689 77.78Z" fill="#263238"/>
<path d="M126.929 78.39C127.938 80.0128 129.524 81.1923 131.369 81.69C133.699 82.25 134.499 79.91 133.559 77.56C132.699 75.45 130.469 72.56 128.269 73.11C126.069 73.66 125.619 76.32 126.929 78.39Z" fill="#B55B52"/>
<path d="M140.099 72.2401C140.099 72.8901 140.519 73.3901 140.949 73.3601C141.379 73.3301 141.689 72.7801 141.639 72.1201C141.589 71.4601 141.219 70.9701 140.789 71.0001C140.359 71.0301 140.059 71.5901 140.099 72.2401Z" fill="#263238"/>
<path d="M148.939 71.5201C148.989 72.1701 149.369 72.6801 149.789 72.6401C150.209 72.6001 150.529 72.0601 150.489 71.4101C150.449 70.7601 150.069 70.2501 149.639 70.2801C149.209 70.3101 148.899 70.8701 148.939 71.5201Z" fill="#263238"/>
<path d="M147.51 72.1899C148.418 74.124 149.593 75.9214 151 77.5299C150.577 77.8833 150.083 78.1398 149.551 78.2814C149.019 78.4231 148.462 78.4465 147.92 78.3499L147.51 72.1899Z" fill="#A02724"/>
<path d="M143.459 67.0801C143.507 67.1258 143.538 67.1853 143.549 67.2501C143.571 67.348 143.554 67.4505 143.502 67.5361C143.449 67.6218 143.366 67.6841 143.269 67.7101C142.677 67.8663 142.056 67.8788 141.457 67.7466C140.859 67.6144 140.301 67.3413 139.829 66.9501C139.794 66.9147 139.765 66.8727 139.746 66.8263C139.727 66.78 139.717 66.7303 139.717 66.6801C139.717 66.6298 139.727 66.5801 139.746 66.5338C139.765 66.4874 139.794 66.4454 139.829 66.4101C139.904 66.3397 140.002 66.3005 140.104 66.3005C140.207 66.3005 140.305 66.3397 140.379 66.4101C140.756 66.7156 141.2 66.9274 141.675 67.0282C142.149 67.129 142.641 67.116 143.109 66.9901C143.171 66.9729 143.235 66.9722 143.297 66.988C143.358 67.0038 143.414 67.0355 143.459 67.0801Z" fill="#263238"/>
<path d="M145.08 69C145.02 68.9693 144.971 68.9203 144.94 68.86C144.889 68.7738 144.874 68.6706 144.898 68.5732C144.922 68.4757 144.984 68.3919 145.07 68.34C145.589 68.015 146.178 67.8175 146.788 67.7636C147.398 67.7097 148.012 67.801 148.58 68.03C148.626 68.0514 148.667 68.0817 148.7 68.119C148.734 68.1563 148.76 68.2 148.777 68.2474C148.794 68.2948 148.801 68.3451 148.798 68.3954C148.795 68.4456 148.782 68.4948 148.76 68.54C148.713 68.6309 148.633 68.7002 148.536 68.7336C148.44 68.7671 148.334 68.7622 148.24 68.72C147.79 68.5444 147.304 68.4774 146.823 68.5243C146.342 68.5712 145.878 68.7307 145.47 68.99C145.413 69.0278 145.346 69.0488 145.277 69.0506C145.208 69.0524 145.14 69.0348 145.08 69Z" fill="#263238"/>
<path d="M152.57 65.34C152.511 65.3562 152.448 65.3584 152.387 65.3462C152.326 65.3341 152.269 65.308 152.22 65.27C151.859 64.9502 151.426 64.7223 150.957 64.6057C150.489 64.489 149.999 64.4871 149.53 64.6C149.433 64.6292 149.329 64.6187 149.24 64.5709C149.151 64.5231 149.084 64.4418 149.055 64.345C149.026 64.2482 149.037 64.1438 149.084 64.0547C149.132 63.9656 149.213 63.8992 149.31 63.87C149.899 63.7157 150.517 63.708 151.11 63.8474C151.702 63.9869 152.252 64.2693 152.71 64.67C152.78 64.7426 152.819 64.8394 152.819 64.94C152.819 65.0407 152.78 65.1374 152.71 65.21C152.675 65.2638 152.627 65.3083 152.57 65.34Z" fill="#263238"/>
<path d="M196.16 165C195.949 164.612 195.592 164.324 195.168 164.198C194.745 164.073 194.289 164.12 193.9 164.33L181.67 170.94L175.89 160.24C175.671 159.867 175.317 159.594 174.901 159.477C174.485 159.36 174.04 159.409 173.659 159.614C173.278 159.819 172.992 160.163 172.86 160.574C172.727 160.985 172.76 161.432 172.95 161.82L178.73 172.52L136.58 195.3C136.192 195.512 135.904 195.868 135.776 196.291C135.649 196.713 135.693 197.17 135.9 197.56C136.112 197.948 136.468 198.236 136.89 198.364C137.313 198.491 137.77 198.447 138.16 198.24L195.49 167.24C195.873 167.029 196.157 166.676 196.282 166.257C196.408 165.838 196.364 165.387 196.16 165Z" fill="#263238"/>
<path d="M195.259 221.18C175.259 206.18 113.689 200.18 134.969 172.76L166.969 172.46C166.969 172.46 211.969 195.56 214.419 219.72C216.929 244.85 221.419 284.42 221.419 284.42L209.019 288.82C209.019 288.82 190.899 240.3 195.259 221.18Z" fill="url(#paint11_linear)"/>
<path opacity="0.2" d="M136.07 186.5C135.33 188.12 134.65 189.8 134.07 191.57C139.07 197.22 148.88 201.57 159.51 205.57C156.21 199.81 149 193.41 136.07 186.5Z" fill="black"/>
<path d="M209.129 293.21L221.999 289.9C222.806 289.664 223.669 289.706 224.449 290.02C228.929 292.02 231.789 291.44 236.219 291.17C241.519 290.83 240.329 296.53 236.599 297.5C230.449 299.1 230.899 298.75 225.599 300.12L221.959 301.06L219.869 299.79L218.869 301.79L212.119 303.43C211.947 303.477 211.768 303.489 211.592 303.463C211.415 303.438 211.246 303.376 211.095 303.282C210.944 303.188 210.814 303.064 210.713 302.917C210.612 302.771 210.543 302.605 210.509 302.43L209.129 293.21Z" fill="#263238"/>
<path d="M209.46 294.47C209.65 294.38 224.08 290.34 224.08 290.34L221.84 279.25L205.84 283.6L209.46 294.47Z" fill="#263238"/>
<path d="M119.77 254.82C120.38 218.39 112.77 181.3 117.29 173.16L154.41 172.64C154.41 172.64 143.32 233.38 140.41 257.64C137.41 282.88 122.41 348.5 122.41 348.5L110.41 348.69C110.41 348.69 111.83 281 119.77 254.82Z" fill="url(#paint12_linear)"/>
<path d="M110 350.63L121 350.46C121.849 350.422 122.687 350.668 123.38 351.16C127.38 354.16 127.8 354.28 132.18 355.06C137.44 355.99 135.08 361.24 131.23 361.3C124.87 361.4 125.39 361.17 119.97 361.25L114.08 361.3L113.22 359.57L112.22 361.3H110.67C110.49 361.3 110.311 361.264 110.146 361.192C109.98 361.121 109.831 361.017 109.707 360.885C109.584 360.754 109.488 360.599 109.427 360.43C109.365 360.26 109.339 360.08 109.35 359.9L110 350.63Z" fill="#263238"/>
<path d="M109.92 351.94C110.11 351.94 123.77 352.57 123.77 352.57L124.68 340.09L109.84 340.51L109.92 351.94Z" fill="#263238"/>
<path d="M146.799 96.76C146.799 96.76 150.239 103.39 146.289 108.76C148.53 108.868 150.74 109.327 152.839 110.12C152.839 110.12 155.629 103.37 149.479 97.3301C149.049 96.6101 146.799 96.76 146.799 96.76Z" fill="white"/>
<path d="M115.929 177C133.679 178.06 154.029 178.38 166.759 177C166.835 176.989 166.908 176.958 166.969 176.911C167.031 176.864 167.079 176.801 167.109 176.73C167.962 174.573 168.337 172.256 168.209 169.94C168.209 169.58 167.969 169.31 167.729 169.32C150.929 169.97 134.229 169.93 116.729 169.32C116.539 169.32 116.349 169.48 116.279 169.75C115.683 171.907 115.429 174.144 115.529 176.38C115.517 176.513 115.55 176.647 115.622 176.759C115.695 176.871 115.803 176.956 115.929 177Z" fill="#263238"/>
<path opacity="0.2" d="M115.929 177C133.679 178.06 154.029 178.38 166.759 177C166.835 176.989 166.908 176.958 166.969 176.911C167.031 176.864 167.079 176.801 167.109 176.73C167.962 174.573 168.337 172.256 168.209 169.94C168.209 169.58 167.969 169.31 167.729 169.32C150.929 169.97 134.229 169.93 116.729 169.32C116.539 169.32 116.349 169.48 116.279 169.75C115.683 171.907 115.429 174.144 115.529 176.38C115.517 176.513 115.55 176.647 115.622 176.759C115.695 176.871 115.803 176.956 115.929 177Z" fill="black"/>
<path d="M146.21 179.73C144.953 179.727 143.698 179.647 142.45 179.49L141.6 179.38V178.53C141.6 178.31 141.47 173.14 141.75 168.99L141.81 168.15L142.64 168.07C145.163 167.827 147.701 167.78 150.23 167.93L151.13 167.99V168.89C151.269 172.081 151.155 175.277 150.79 178.45L150.7 179.04L150.14 179.24C148.863 179.603 147.538 179.768 146.21 179.73ZM143.56 177.6C145.34 177.799 147.138 177.769 148.91 177.51C149.161 174.975 149.248 172.426 149.17 169.88C147.34 169.806 145.507 169.839 143.68 169.98C143.52 172.85 143.54 176.08 143.56 177.6Z" fill="white"/>
<path d="M126.919 169.26C126.919 169.26 126.629 174.87 126.219 178.44C125.429 179.26 123.959 178.63 123.959 178.63C123.959 178.63 124.249 173.45 124.599 169.38C125.351 169.154 126.147 169.113 126.919 169.26Z" fill="url(#paint13_linear)"/>
<path d="M163.56 169.26C163.56 169.26 163.27 174.87 162.86 178.44C162.07 179.26 160.6 178.63 160.6 178.63C160.6 178.63 160.89 173.45 161.24 169.38C161.992 169.154 162.788 169.113 163.56 169.26Z" fill="url(#paint14_linear)"/>
<path d="M152 118.63C152.54 125.86 157.15 127.49 157.8 127.47C158.45 127.45 162.8 125.65 162.26 118.42C160.335 118.361 158.481 117.677 156.98 116.47C156.336 117.143 155.563 117.681 154.708 118.052C153.853 118.423 152.932 118.62 152 118.63Z" fill="url(#paint15_linear)"/>
<path d="M151 59.4301C156.14 60.2901 158.08 62.6801 146.51 64.0801C139.823 64.9387 133.061 65.0528 126.35 64.4201C126.35 64.4201 141.78 59.3801 151 59.4301Z" fill="#263238"/>
<path d="M125.409 65C133.869 62.4261 142.555 60.6648 151.349 59.74C151.374 58.7135 151.189 57.6927 150.805 56.7401C150.422 55.7876 149.848 54.9232 149.119 54.2C149.119 54.2 154.969 53.2 152.059 51.45C150.059 50.28 145.289 50.15 139.999 46.75C137.829 48.75 131.889 51.95 127.829 52.36C126.829 54.08 124.199 58.36 119.949 60.04C120.009 61.92 124.239 62.41 124.239 62.41C124.222 62.9027 124.318 63.3927 124.521 63.842C124.724 64.2913 125.028 64.6876 125.409 65Z" fill="url(#paint16_linear)"/>
<path opacity="0.8" d="M124.239 62.44C132.849 56.85 141.109 54.44 149.119 54.23C149.848 54.9532 150.422 55.8176 150.805 56.7701C151.189 57.7227 151.374 58.7434 151.349 59.77C142.556 60.685 133.87 62.4363 125.409 65C125.032 64.6907 124.731 64.2992 124.528 63.8555C124.325 63.4118 124.226 62.9276 124.239 62.44Z" fill="#263238"/>
<path d="M139.51 52.7C140.51 57.62 143.98 58.52 144.45 58.48C144.92 58.44 147.92 57 146.93 52.08C145.517 52.1289 144.122 51.7489 142.93 50.99C142.504 51.4901 141.981 51.8993 141.394 52.1931C140.806 52.4869 140.165 52.6593 139.51 52.7Z" fill="white"/>
<path d="M145.35 68.07C146.49 68.23 148.35 76.81 142.4 77.27C137.4 77.66 135.83 73.07 135.83 71.46C135.83 69.06 143.73 67.84 145.35 68.07Z" fill="#263238"/>
<path d="M147.87 67.9999C147.16 68.4299 148.76 77.5699 152.87 76.6099C156.37 75.7999 155.78 70.8299 155.21 69.2199C154.4 66.7899 148.88 67.3599 147.87 67.9999Z" fill="#263238"/>
<g opacity="0.2">
<path opacity="0.2" d="M143.24 68.1602L146.35 73.8302C146.141 74.9138 145.53 75.8783 144.64 76.5302L140.35 68.6902C141.301 68.4534 142.266 68.2764 143.24 68.1602Z" fill="white"/>
<path opacity="0.2" d="M139.08 69L143.49 77C143.138 77.1023 142.776 77.166 142.41 77.19C142.17 77.2046 141.93 77.2046 141.69 77.19L137.51 69.57C138.018 69.3402 138.543 69.1496 139.08 69Z" fill="white"/>
<path opacity="0.2" d="M152.909 67.6101L155.669 72.6101C155.634 73.4696 155.398 74.3089 154.979 75.0601L150.799 67.4101C151.507 67.4004 152.215 67.4674 152.909 67.6101Z" fill="white"/>
<path opacity="0.2" d="M154.439 75.77C154.186 76.0214 153.888 76.2218 153.559 76.36L148.789 67.66C149.155 67.5782 149.526 67.5181 149.899 67.48L154.439 75.77Z" fill="white"/>
</g>
<path d="M209.049 122.94C209.559 122.72 208.699 120.68 208.189 120.89L138.249 150.23C138.168 150.096 138.042 149.997 137.893 149.949C137.744 149.901 137.583 149.909 137.439 149.97L134.509 151.19C134.366 151.253 134.249 151.365 134.18 151.506C134.11 151.647 134.093 151.807 134.129 151.96L124.929 155.81C122.877 156.68 121.04 157.991 119.549 159.65L115.429 164.25C115.353 165.314 114.87 166.309 114.081 167.027C113.292 167.746 112.256 168.133 111.189 168.11H110.579L89.4395 180.88C88.6624 181.35 88.0577 182.059 87.7154 182.9C87.3731 183.741 87.3114 184.671 87.5395 185.55C88.2754 188.618 89.5192 191.542 91.2195 194.2C91.5619 194.712 92.0124 195.142 92.5392 195.461C93.0659 195.779 93.6562 195.978 94.2683 196.044C94.8805 196.11 95.4996 196.041 96.0821 195.841C96.6645 195.642 97.1962 195.317 97.6395 194.89L118.999 174.32C119.903 173.451 120.467 172.288 120.589 171.04L120.849 168.4L125.469 163.24C126.131 164.414 127.218 165.288 128.507 165.683C129.795 166.077 131.186 165.961 132.391 165.358C133.596 164.756 134.524 163.713 134.981 162.446C135.439 161.178 135.392 159.783 134.849 158.55C134.826 158.487 134.795 158.427 134.759 158.37L136.469 157.65C136.551 157.788 136.68 157.893 136.832 157.944C136.985 157.996 137.151 157.991 137.299 157.93L140.229 156.71C140.377 156.646 140.497 156.531 140.567 156.386C140.636 156.241 140.652 156.075 140.609 155.92L181.399 138.81C181.626 138.713 181.805 138.53 181.897 138.301C181.989 138.073 181.986 137.817 181.889 137.59L203.889 128.36C204.229 128.22 203.699 126.97 203.359 127.12L201.739 127.8L201.649 126.02L209.049 122.94ZM131.639 164.42C130.661 164.835 129.561 164.859 128.566 164.487C127.57 164.115 126.756 163.375 126.289 162.42L126.899 161.73L127.209 161.6C127.472 161.974 127.785 162.311 128.139 162.6C128.684 163.03 129.307 163.348 129.975 163.535C130.643 163.722 131.341 163.775 132.029 163.69L131.889 162.59C131.346 162.656 130.795 162.614 130.269 162.466C129.742 162.319 129.249 162.069 128.819 161.73C128.616 161.568 128.428 161.387 128.259 161.19L133.779 158.88C133.806 158.939 133.836 158.995 133.869 159.05C134.273 160.059 134.265 161.186 133.848 162.189C133.432 163.193 132.639 163.993 131.639 164.42ZM199.779 128.64L181.409 136.34L180.759 134.8L199.689 126.86L199.779 128.64Z" fill="url(#paint17_linear)"/>
<path opacity="0.2" d="M209.049 122.94C209.559 122.72 208.699 120.68 208.189 120.89L138.249 150.23C138.168 150.096 138.042 149.997 137.893 149.949C137.744 149.901 137.583 149.909 137.439 149.97L134.509 151.19C134.366 151.253 134.249 151.365 134.18 151.506C134.11 151.647 134.093 151.807 134.129 151.96L124.929 155.81C122.877 156.68 121.04 157.991 119.549 159.65L115.429 164.25C115.353 165.314 114.87 166.309 114.081 167.027C113.292 167.746 112.256 168.133 111.189 168.11H110.579L89.4395 180.88C88.6624 181.35 88.0577 182.059 87.7154 182.9C87.3731 183.741 87.3114 184.671 87.5395 185.55C88.2754 188.618 89.5192 191.542 91.2195 194.2C91.5619 194.712 92.0124 195.142 92.5392 195.461C93.0659 195.779 93.6562 195.978 94.2683 196.044C94.8805 196.11 95.4996 196.041 96.0821 195.841C96.6645 195.642 97.1962 195.317 97.6395 194.89L118.999 174.32C119.903 173.451 120.467 172.288 120.589 171.04L120.849 168.4L125.469 163.24C126.131 164.414 127.218 165.288 128.507 165.683C129.795 166.077 131.186 165.961 132.391 165.358C133.596 164.756 134.524 163.713 134.981 162.446C135.439 161.178 135.392 159.783 134.849 158.55C134.826 158.487 134.795 158.427 134.759 158.37L136.469 157.65C136.551 157.788 136.68 157.893 136.832 157.944C136.985 157.996 137.151 157.991 137.299 157.93L140.229 156.71C140.377 156.646 140.497 156.531 140.567 156.386C140.636 156.241 140.652 156.075 140.609 155.92L181.399 138.81C181.626 138.713 181.805 138.53 181.897 138.301C181.989 138.073 181.986 137.817 181.889 137.59L203.889 128.36C204.229 128.22 203.699 126.97 203.359 127.12L201.739 127.8L201.649 126.02L209.049 122.94ZM131.639 164.42C130.661 164.835 129.561 164.859 128.566 164.487C127.57 164.115 126.756 163.375 126.289 162.42L126.899 161.73L127.209 161.6C127.472 161.974 127.785 162.311 128.139 162.6C128.684 163.03 129.307 163.348 129.975 163.535C130.643 163.722 131.341 163.775 132.029 163.69L131.889 162.59C131.346 162.656 130.795 162.614 130.269 162.466C129.742 162.319 129.249 162.069 128.819 161.73C128.616 161.568 128.428 161.387 128.259 161.19L133.779 158.88C133.806 158.939 133.836 158.995 133.869 159.05C134.273 160.059 134.265 161.186 133.848 162.189C133.432 163.193 132.639 163.993 131.639 164.42ZM199.779 128.64L181.409 136.34L180.759 134.8L199.689 126.86L199.779 128.64Z" fill="black"/>
<path d="M182.07 134.63L162.69 142.76C162.368 142.896 162.11 143.149 161.968 143.469C161.827 143.789 161.813 144.15 161.93 144.48L162.73 146.68C162.792 146.855 162.889 147.015 163.015 147.151C163.141 147.287 163.293 147.396 163.463 147.471C163.632 147.545 163.815 147.585 164 147.587C164.186 147.588 164.369 147.552 164.54 147.48L183.92 139.35C184.242 139.215 184.5 138.96 184.639 138.64C184.779 138.32 184.79 137.958 184.67 137.63L183.88 135.43C183.818 135.255 183.722 135.095 183.596 134.959C183.47 134.823 183.317 134.714 183.148 134.64C182.978 134.565 182.795 134.525 182.61 134.523C182.425 134.522 182.241 134.558 182.07 134.63Z" fill="url(#paint18_linear)"/>
<path d="M194.399 127.05L195.069 126.87C195.916 126.64 196.811 126.654 197.65 126.908C198.49 127.163 199.242 127.649 199.819 128.31L200.419 129C200.579 129.181 200.693 129.398 200.751 129.633C200.81 129.867 200.811 130.112 200.755 130.348C200.7 130.583 200.588 130.801 200.43 130.984C200.273 131.167 200.073 131.31 199.849 131.4L193.259 134.12C193.071 134.197 192.87 134.237 192.667 134.235C192.464 134.234 192.264 134.192 192.077 134.112C191.891 134.032 191.723 133.915 191.582 133.769C191.441 133.622 191.332 133.449 191.259 133.26C191.023 132.648 190.918 131.993 190.951 131.339C190.984 130.684 191.154 130.043 191.45 129.458C191.746 128.872 192.161 128.356 192.669 127.941C193.177 127.526 193.766 127.223 194.399 127.05Z" fill="#B55B52"/>
<path d="M124.6 113.25L124.1 113.85L123.52 114.56L122.34 116C121.56 117 120.77 118 120 119.07C118.45 121.14 117 123.28 115.53 125.46C114.06 127.64 112.74 129.87 111.38 132.11C110.02 134.35 108.82 136.67 107.63 139L106.75 140.76L106.54 141.19C106.517 141.239 106.491 141.286 106.46 141.33C106.391 141.439 106.338 141.557 106.3 141.68C106.033 142.43 105.878 143.215 105.84 144.01C105.76 146.279 105.955 148.548 106.42 150.77C107.482 155.883 108.902 160.916 110.67 165.83L110.74 166.02C111.024 166.858 111.002 167.769 110.679 168.593C110.356 169.416 109.752 170.099 108.974 170.52C108.196 170.941 107.294 171.074 106.428 170.894C105.562 170.715 104.787 170.235 104.24 169.54C102.398 167.204 100.727 164.737 99.2402 162.16C97.7345 159.546 96.4372 156.818 95.3602 154C94.1191 150.933 93.3243 147.703 93.0002 144.41C92.8073 142.422 92.9118 140.417 93.3102 138.46C93.4184 137.904 93.5654 137.356 93.7502 136.82L94.0302 135.98L94.2302 135.45L95.0402 133.39C97.206 127.9 99.8285 122.602 102.88 117.55C104.41 115.02 106.02 112.55 107.78 110.14C108.66 108.94 109.56 107.74 110.51 106.58C110.99 105.99 111.51 105.41 111.98 104.83L112.75 103.95L113.64 102.95C114.979 101.556 116.804 100.733 118.735 100.652C120.666 100.571 122.553 101.238 124.004 102.515C125.455 103.792 126.357 105.579 126.522 107.505C126.687 109.43 126.102 111.345 124.89 112.85L124.6 113.25Z" fill="#263238"/>
<path d="M132.429 101.09C134.429 100.38 131.889 98.23 131.889 98.23C131.889 98.23 121.279 98.56 114.979 100.23C113.979 101.14 115.119 102.23 115.119 102.23C115.119 102.23 126.469 103.2 132.429 101.09Z" fill="url(#paint19_linear)"/>
<path opacity="0.2" d="M132.27 97.9999C132.27 97.9999 133.84 103.91 140.98 108.74C137.86 108.74 133.44 111.86 133.44 111.86C132.12 109.915 131.203 107.726 130.741 105.421C130.279 103.117 130.282 100.743 130.75 98.4399C131.19 97.7499 132.27 97.9999 132.27 97.9999Z" fill="black"/>
<path d="M132.48 97C134.155 101.656 137.099 105.75 140.98 108.82C138.333 109.02 135.72 109.544 133.2 110.38C133.2 110.38 129.29 106.71 130.75 98.52C131.231 97.9134 131.817 97.3984 132.48 97Z" fill="white"/>
<path d="M109.62 165.41L115.83 170.76L107.59 176.12C107.59 176.12 102.59 170.59 105.05 167.44L109.62 165.41Z" fill="#B55B52"/>
<path d="M104.19 169.92C103.461 169.331 102.881 168.577 102.5 167.72C104.5 165.67 108.5 163.98 110.29 163.52C111.02 164.428 111.425 165.555 111.44 166.72C111.44 166.72 106.17 167.63 104.19 169.92Z" fill="white"/>
<path d="M116.54 179.25L113.33 180.64C112.712 180.908 112.018 180.948 111.373 180.752C110.728 180.556 110.174 180.137 109.81 179.57L107.59 176.12L115.83 170.76L117.99 175.45C118.148 175.794 118.235 176.166 118.248 176.545C118.26 176.923 118.197 177.3 118.062 177.654C117.927 178.008 117.723 178.331 117.462 178.605C117.2 178.879 116.887 179.098 116.54 179.25Z" fill="#B55B52"/>
<path d="M141.51 81.0001C142.475 80.3642 143.578 79.9704 144.727 79.852C145.876 79.7336 147.037 79.8942 148.11 80.3201C148.141 80.334 148.169 80.354 148.191 80.3788C148.214 80.4036 148.232 80.4328 148.243 80.4646C148.254 80.4963 148.259 80.53 148.257 80.5636C148.254 80.5972 148.246 80.63 148.23 80.6601C148.2 80.7202 148.148 80.7662 148.085 80.7886C148.021 80.811 147.952 80.8079 147.89 80.7801C146.891 80.398 145.816 80.2577 144.752 80.3707C143.689 80.4837 142.667 80.8467 141.77 81.4301C141.713 81.4629 141.646 81.4719 141.582 81.455C141.518 81.4381 141.464 81.3969 141.43 81.3401C141.412 81.3128 141.4 81.2821 141.394 81.2499C141.389 81.2177 141.39 81.1847 141.397 81.1528C141.404 81.121 141.418 81.091 141.438 81.0648C141.457 81.0385 141.482 81.0165 141.51 81.0001Z" fill="#263238"/>
<path d="M125.149 118.51L138.639 118L138.589 116.91L125.109 117.42L125.149 118.51Z" fill="white"/>
<path d="M241.879 362.46H215.699L234.729 211.28H260.919L241.879 362.46Z" fill="url(#paint20_linear)"/>
<path opacity="0.4" d="M241.879 362.46H215.699L234.729 211.28H260.919L241.879 362.46Z" fill="black"/>
<path d="M213.359 362.46H215.699L234.729 211.28H232.389L213.359 362.46Z" fill="#263238"/>
<path d="M339.53 362.46H313.35L332.38 211.28H358.57L339.53 362.46Z" fill="url(#paint21_linear)"/>
<path opacity="0.4" d="M339.53 362.46H313.35L332.38 211.28H358.57L339.53 362.46Z" fill="black"/>
<path d="M311 362.46H313.35L332.38 211.28H330.04L311 362.46Z" fill="#263238"/>
<path d="M266.118 344.47H361.078L356.939 311.56H261.979L266.118 344.47Z" fill="url(#paint22_linear)"/>
<path d="M266.12 344.47H264.57L260.42 311.56H261.98L266.12 344.47Z" fill="#263238"/>
<path d="M355.849 313L359.629 343.03H354.019L338.949 313H355.849Z" fill="white"/>
<path d="M329.379 313L344.449 343.03H323.849L308.779 313H329.379Z" fill="white"/>
<path d="M299.209 313L314.279 343.03H293.669L278.609 313H299.209Z" fill="white"/>
<path d="M269.05 313L284.11 343.03H267.21L263.43 313H269.05Z" fill="white"/>
<path d="M351.989 362.46H378.179L359.139 211.28H332.959L351.989 362.46Z" fill="url(#paint23_linear)"/>
<path opacity="0.2" d="M341.439 278.63L368.989 289.46L361.079 226.68H334.889L341.439 278.63Z" fill="black"/>
<path d="M351.989 362.46H349.649L330.619 211.28H332.959L351.989 362.46Z" fill="#263238"/>
<path d="M254.339 362.46H280.529L261.499 211.28H235.309L254.339 362.46Z" fill="url(#paint24_linear)"/>
<path opacity="0.2" d="M243.79 278.63L271.34 289.46L263.43 226.68H237.25L243.79 278.63Z" fill="black"/>
<path d="M254.339 362.46H251.999L232.969 211.28H235.309L254.339 362.46Z" fill="#263238"/>
<path d="M233.33 271.66H376.32L370.08 222.11H227.09L233.33 271.66Z" fill="url(#paint25_linear)"/>
<path d="M233.33 271.66H230.99L224.75 222.11H227.09L233.33 271.66Z" fill="#263238"/>
<path d="M368.44 224.27L374.14 269.49H365.69L343 224.27H368.44Z" fill="white"/>
<path d="M328.59 224.27L351.28 269.49H320.25L297.57 224.27H328.59Z" fill="white"/>
<path d="M283.159 224.27L305.849 269.49H274.819L252.129 224.27H283.159Z" fill="white"/>
<path d="M237.739 224.27L260.419 269.49H234.969L229.279 224.27H237.739Z" fill="white"/>
<defs>
<linearGradient id="paint0_linear" x1="223.336" y1="3.33388" x2="223.336" y2="133.188" gradientUnits="userSpaceOnUse">
<stop stop-color="#2944CC"/>
<stop offset="1" stop-color="#3355FF"/>
</linearGradient>
<linearGradient id="paint1_linear" x1="284.964" y1="19.71" x2="284.964" y2="61.28" gradientUnits="userSpaceOnUse">
<stop stop-color="#E62E2E"/>
<stop offset="1" stop-color="#FF3333"/>
</linearGradient>
<linearGradient id="paint2_linear" x1="323.012" y1="22.2842" x2="323.012" y2="63.89" gradientUnits="userSpaceOnUse">
<stop stop-color="#E62E2E"/>
<stop offset="1" stop-color="#FF3333"/>
</linearGradient>
<linearGradient id="paint3_linear" x1="359.721" y1="24.988" x2="359.721" y2="66.7608" gradientUnits="userSpaceOnUse">
<stop stop-color="#E62E2E"/>
<stop offset="1" stop-color="#FF3333"/>
</linearGradient>
<linearGradient id="paint4_linear" x1="279.135" y1="68.8101" x2="279.135" y2="88.7901" gradientUnits="userSpaceOnUse">
<stop stop-color="#E62E2E"/>
<stop offset="1" stop-color="#FF3333"/>
</linearGradient>
<linearGradient id="paint5_linear" x1="298.875" y1="70.26" x2="298.875" y2="90.37" gradientUnits="userSpaceOnUse">
<stop stop-color="#E62E2E"/>
<stop offset="1" stop-color="#FF3333"/>
</linearGradient>
<linearGradient id="paint6_linear" x1="319.215" y1="71.74" x2="319.215" y2="91.85" gradientUnits="userSpaceOnUse">
<stop stop-color="#E62E2E"/>
<stop offset="1" stop-color="#FF3333"/>
</linearGradient>
<linearGradient id="paint7_linear" x1="339.555" y1="73.4221" x2="339.555" y2="93.047" gradientUnits="userSpaceOnUse">
<stop stop-color="#E62E2E"/>
<stop offset="1" stop-color="#FF3333"/>
</linearGradient>
<linearGradient id="paint8_linear" x1="360.945" y1="74.8401" x2="360.945" y2="94.9601" gradientUnits="userSpaceOnUse">
<stop stop-color="#E62E2E"/>
<stop offset="1" stop-color="#FF3333"/>
</linearGradient>
<linearGradient id="paint9_linear" x1="157.233" y1="97.77" x2="157.233" y2="101.113" gradientUnits="userSpaceOnUse">
<stop stop-color="#E62E2E"/>
<stop offset="1" stop-color="#FF3333"/>
</linearGradient>
<linearGradient id="paint10_linear" x1="131.889" y1="100.342" x2="131.889" y2="110.772" gradientUnits="userSpaceOnUse">
<stop stop-color="#2944CC"/>
<stop offset="1" stop-color="#3355FF"/>
</linearGradient>
<linearGradient id="paint11_linear" x1="130.559" y1="172.485" x2="130.559" y2="288.845" gradientUnits="userSpaceOnUse">
<stop stop-color="#2944CC"/>
<stop offset="1" stop-color="#3355FF"/>
</linearGradient>
<linearGradient id="paint12_linear" x1="110.41" y1="172.678" x2="110.41" y2="348.728" gradientUnits="userSpaceOnUse">
<stop stop-color="#2944CC"/>
<stop offset="1" stop-color="#3355FF"/>
</linearGradient>
<linearGradient id="paint13_linear" x1="123.959" y1="169.175" x2="123.959" y2="178.863" gradientUnits="userSpaceOnUse">
<stop stop-color="#2944CC"/>
<stop offset="1" stop-color="#3355FF"/>
</linearGradient>
<linearGradient id="paint14_linear" x1="160.6" y1="169.175" x2="160.6" y2="178.863" gradientUnits="userSpaceOnUse">
<stop stop-color="#2944CC"/>
<stop offset="1" stop-color="#3355FF"/>
</linearGradient>
<linearGradient id="paint15_linear" x1="157.153" y1="116.47" x2="157.153" y2="127.47" gradientUnits="userSpaceOnUse">
<stop stop-color="#E62E2E"/>
<stop offset="1" stop-color="#FF3333"/>
</linearGradient>
<linearGradient id="paint16_linear" x1="136.41" y1="46.75" x2="136.41" y2="65" gradientUnits="userSpaceOnUse">
<stop stop-color="#E62E2E"/>
<stop offset="1" stop-color="#FF3333"/>
</linearGradient>
<linearGradient id="paint17_linear" x1="87.4043" y1="120.891" x2="87.4043" y2="196.085" gradientUnits="userSpaceOnUse">
<stop stop-color="#2944CC"/>
<stop offset="1" stop-color="#3355FF"/>
</linearGradient>
<linearGradient id="paint18_linear" x1="161.852" y1="134.526" x2="161.852" y2="147.589" gradientUnits="userSpaceOnUse">
<stop stop-color="#2944CC"/>
<stop offset="1" stop-color="#3355FF"/>
</linearGradient>
<linearGradient id="paint19_linear" x1="123.883" y1="98.23" x2="123.883" y2="102.453" gradientUnits="userSpaceOnUse">
<stop stop-color="#E62E2E"/>
<stop offset="1" stop-color="#FF3333"/>
</linearGradient>
<linearGradient id="paint20_linear" x1="215.699" y1="211.313" x2="215.699" y2="362.493" gradientUnits="userSpaceOnUse">
<stop stop-color="#2944CC"/>
<stop offset="1" stop-color="#3355FF"/>
</linearGradient>
<linearGradient id="paint21_linear" x1="313.35" y1="211.313" x2="313.35" y2="362.493" gradientUnits="userSpaceOnUse">
<stop stop-color="#2944CC"/>
<stop offset="1" stop-color="#3355FF"/>
</linearGradient>
<linearGradient id="paint22_linear" x1="311.529" y1="311.56" x2="311.529" y2="344.47" gradientUnits="userSpaceOnUse">
<stop stop-color="#E62E2E"/>
<stop offset="1" stop-color="#FF3333"/>
</linearGradient>
<linearGradient id="paint23_linear" x1="332.959" y1="211.313" x2="332.959" y2="362.493" gradientUnits="userSpaceOnUse">
<stop stop-color="#2944CC"/>
<stop offset="1" stop-color="#3355FF"/>
</linearGradient>
<linearGradient id="paint24_linear" x1="235.309" y1="211.313" x2="235.309" y2="362.493" gradientUnits="userSpaceOnUse">
<stop stop-color="#2944CC"/>
<stop offset="1" stop-color="#3355FF"/>
</linearGradient>
<linearGradient id="paint25_linear" x1="301.705" y1="222.11" x2="301.705" y2="271.66" gradientUnits="userSpaceOnUse">
<stop stop-color="#E62E2E"/>
<stop offset="1" stop-color="#FF3333"/>
</linearGradient>
</defs>
</svg>
