<svg width="422" height="391" viewBox="0 0 422 391" fill="none" xmlns="http://www.w3.org/2000/svg">
<path d="M199.4 390.05H6.29984C4.78546 390.05 3.3331 389.448 2.26226 388.378C1.19143 387.307 0.589844 385.854 0.589844 384.34V5.66C0.603029 4.15429 1.21043 2.71475 2.27984 1.65471C3.34925 0.594662 4.79408 -5.77259e-05 6.29984 4.20255e-09H199.4C200.15 4.20255e-09 200.892 0.147692 201.585 0.434647C202.278 0.721601 202.907 1.1422 203.437 1.67242C203.968 2.20264 204.388 2.83211 204.675 3.52488C204.962 4.21765 205.11 4.96015 205.11 5.71V384.34C205.11 385.09 204.962 385.832 204.675 386.525C204.388 387.218 203.968 387.847 203.437 388.378C202.907 388.908 202.278 389.328 201.585 389.615C200.892 389.902 200.15 390.05 199.4 390.05ZM6.29984 0.200001C4.85257 0.202644 3.46534 0.77874 2.44196 1.80212C1.41858 2.82549 0.842487 4.21273 0.839844 5.66V384.34C0.842487 385.787 1.41858 387.174 2.44196 388.198C3.46534 389.221 4.85257 389.797 6.29984 389.8H199.4C200.847 389.797 202.234 389.221 203.258 388.198C204.281 387.174 204.857 385.787 204.86 384.34V5.66C204.857 4.21273 204.281 2.82549 203.258 1.80212C202.234 0.77874 200.847 0.202644 199.4 0.200001H6.29984Z" fill="#EBEBEB"/>
<path d="M415.701 390.05H222.601C221.086 390.05 219.634 389.448 218.563 388.378C217.492 387.307 216.891 385.854 216.891 384.34V5.66C216.904 4.15429 217.511 2.71475 218.581 1.65471C219.65 0.594662 221.095 -5.77259e-05 222.601 4.20255e-09H415.701C417.215 4.20256e-09 418.667 0.601588 419.738 1.67242C420.809 2.74325 421.411 4.19561 421.411 5.71V384.34C421.411 385.09 421.263 385.832 420.976 386.525C420.689 387.218 420.268 387.847 419.738 388.378C419.208 388.908 418.579 389.328 417.886 389.615C417.193 389.902 416.45 390.05 415.701 390.05ZM222.601 0.200001C221.153 0.202644 219.766 0.77874 218.743 1.80212C217.719 2.82549 217.143 4.21273 217.141 5.66V384.34C217.143 385.787 217.719 387.174 218.743 388.198C219.766 389.221 221.153 389.797 222.601 389.8H415.701C417.148 389.797 418.535 389.221 419.559 388.198C420.582 387.174 421.158 385.787 421.161 384.34V5.66C421.158 4.21273 420.582 2.82549 419.559 1.80212C418.535 0.77874 417.148 0.202644 415.701 0.200001H222.601Z" fill="#EBEBEB"/>
<path d="M74.0503 113.25L75.6703 116.52L79.2903 117.05L76.6703 119.6L77.2903 123.2L74.0503 121.5L70.8203 123.2L71.4403 119.6L68.8203 117.05L72.4403 116.52L74.0503 113.25Z" fill="#EBEBEB"/>
<path d="M397.701 267.48L399.321 270.76L402.941 271.29L400.321 273.83L400.941 277.44L397.701 275.74L394.471 277.44L395.091 273.83L392.471 271.29L396.091 270.76L397.701 267.48Z" fill="#F5F5F5"/>
<path d="M333.599 362.57L335.219 365.84L338.829 366.37L336.209 368.92L336.829 372.52L333.599 370.82L330.369 372.52L330.979 368.92L328.369 366.37L331.979 365.84L333.599 362.57Z" fill="#F5F5F5"/>
<path d="M186.94 55.15L187.54 56.37L188.89 56.57C188.966 56.5798 189.037 56.6109 189.095 56.6597C189.153 56.7084 189.197 56.7727 189.22 56.8451C189.243 56.9175 189.245 56.9949 189.225 57.0684C189.206 57.1419 189.166 57.2083 189.11 57.26L188.11 58.21L188.34 59.55C188.352 59.6246 188.343 59.7009 188.314 59.7707C188.286 59.8405 188.238 59.901 188.177 59.9454C188.116 59.9899 188.044 60.0167 187.969 60.0228C187.893 60.0289 187.818 60.0141 187.75 59.98L186.55 59.34L185.35 59.98C185.283 60.0141 185.208 60.0289 185.132 60.0228C185.057 60.0167 184.985 59.9899 184.924 59.9454C184.863 59.901 184.815 59.8405 184.787 59.7707C184.758 59.7009 184.749 59.6246 184.76 59.55L184.98 58.21L183.98 57.26C183.924 57.2077 183.885 57.1404 183.866 57.0662C183.847 56.9919 183.85 56.9138 183.874 56.8412C183.898 56.7685 183.943 56.7043 184.002 56.6562C184.062 56.6081 184.134 56.5782 184.21 56.57L185.55 56.37L186.15 55.15C186.174 55.0637 186.226 54.9876 186.297 54.9334C186.369 54.8792 186.456 54.8499 186.545 54.8499C186.635 54.8499 186.722 54.8792 186.794 54.9334C186.865 54.9876 186.916 55.0637 186.94 55.15Z" fill="#EBEBEB"/>
<path d="M21.7805 347L22.3805 348.21L23.7205 348.41C23.7965 348.421 23.8681 348.452 23.9271 348.501C23.9861 348.551 24.0301 348.615 24.054 348.688C24.078 348.761 24.081 348.839 24.0627 348.914C24.0444 348.989 24.0055 349.056 23.9505 349.11L22.9505 350.05L23.1805 351.39C23.1923 351.465 23.1833 351.541 23.1544 351.611C23.1256 351.681 23.078 351.741 23.017 351.786C22.956 351.83 22.8839 351.857 22.8086 351.863C22.7333 351.869 22.6579 351.854 22.5905 351.82L21.3905 351.19L20.1905 351.82C20.1231 351.854 20.0476 351.869 19.9723 351.863C19.8971 351.857 19.825 351.83 19.7639 351.786C19.7029 351.741 19.6554 351.681 19.6265 351.611C19.5977 351.541 19.5887 351.465 19.6005 351.39L19.8305 350.05L18.8305 349.11C18.7756 349.057 18.7366 348.99 18.7178 348.916C18.699 348.842 18.7011 348.765 18.7239 348.692C18.7468 348.619 18.7894 348.554 18.8471 348.505C18.9048 348.455 18.9752 348.422 19.0505 348.41L20.3905 348.21L21.0005 347C21.0272 346.918 21.0793 346.846 21.1494 346.795C21.2195 346.744 21.3038 346.717 21.3905 346.717C21.4771 346.717 21.5615 346.744 21.6315 346.795C21.7016 346.846 21.7537 346.918 21.7805 347Z" fill="#F5F5F5"/>
<path d="M48.7501 42.3L49.3501 43.52L50.7001 43.71C50.7753 43.722 50.8457 43.7548 50.9034 43.8046C50.9611 43.8544 51.0038 43.9193 51.0266 43.992C51.0495 44.0647 51.0516 44.1423 51.0328 44.2161C51.014 44.29 50.9749 44.3571 50.9201 44.41L49.9201 45.41L50.1501 46.74C50.1661 46.8155 50.1599 46.894 50.1322 46.9661C50.1046 47.0381 50.0567 47.1007 49.9943 47.1461C49.932 47.1916 49.8578 47.218 49.7807 47.2223C49.7037 47.2265 49.6271 47.2084 49.5601 47.17L48.3601 46.54L47.1601 47.17C47.0931 47.2084 47.0165 47.2265 46.9394 47.2223C46.8624 47.218 46.7882 47.1916 46.7258 47.1461C46.6635 47.1007 46.6156 47.0381 46.5879 46.9661C46.5603 46.894 46.5541 46.8155 46.5701 46.74L46.7901 45.41L45.7901 44.41C45.735 44.3565 45.6962 44.2885 45.6778 44.214C45.6595 44.1394 45.6625 44.0612 45.6865 43.9882C45.7105 43.9153 45.7545 43.8505 45.8134 43.8013C45.8724 43.7521 45.944 43.7205 46.0201 43.71L47.3601 43.52L48.0001 42.3C48.0322 42.2274 48.0847 42.1656 48.1513 42.1222C48.2179 42.0789 48.2956 42.0558 48.3751 42.0558C48.4545 42.0558 48.5323 42.0789 48.5988 42.1222C48.6654 42.1656 48.718 42.2274 48.7501 42.3Z" fill="#EBEBEB"/>
<path d="M47.1307 283.32C47.1326 283.583 47.0563 283.842 46.9114 284.062C46.7665 284.282 46.5594 284.454 46.3166 284.556C46.0738 284.658 45.806 284.686 45.5474 284.636C45.2887 284.585 45.0508 284.46 44.8638 284.274C44.6768 284.088 44.5491 283.851 44.497 283.593C44.4449 283.335 44.4706 283.067 44.571 282.823C44.6713 282.58 44.8418 282.371 45.0607 282.225C45.2797 282.078 45.5372 282 45.8007 282C46.1517 282 46.4885 282.139 46.7376 282.386C46.9867 282.633 47.128 282.969 47.1307 283.32Z" fill="#EBEBEB"/>
<path d="M236.67 116.89C236.672 117.153 236.595 117.412 236.45 117.632C236.306 117.852 236.098 118.024 235.856 118.126C235.613 118.228 235.345 118.256 235.086 118.206C234.828 118.155 234.59 118.03 234.403 117.844C234.216 117.658 234.088 117.421 234.036 117.163C233.984 116.905 234.01 116.637 234.11 116.393C234.21 116.15 234.381 115.941 234.6 115.795C234.819 115.648 235.076 115.57 235.34 115.57C235.514 115.569 235.687 115.602 235.848 115.668C236.009 115.733 236.156 115.83 236.28 115.953C236.403 116.076 236.501 116.222 236.568 116.383C236.635 116.543 236.67 116.716 236.67 116.89Z" fill="#EBEBEB"/>
<path d="M167.711 43.3999C167.711 43.663 167.633 43.9201 167.487 44.1389C167.34 44.3576 167.133 44.528 166.89 44.6287C166.647 44.7294 166.379 44.7557 166.121 44.7044C165.863 44.6531 165.626 44.5264 165.44 44.3404C165.254 44.1544 165.128 43.9174 165.076 43.6594C165.025 43.4014 165.051 43.134 165.152 42.891C165.253 42.648 165.423 42.4402 165.642 42.2941C165.861 42.1479 166.118 42.0699 166.381 42.0699C166.733 42.0726 167.069 42.2135 167.318 42.4624C167.567 42.7112 167.708 43.048 167.711 43.3999Z" fill="#F5F5F5"/>
<path d="M169.815 367.544C173.766 366.611 176.213 362.653 175.28 358.702C174.348 354.751 170.389 352.304 166.439 353.237C162.488 354.169 160.041 358.128 160.974 362.079C161.906 366.029 165.865 368.476 169.815 367.544Z" fill="#F0F0F0"/>
<path d="M165.6 356.09C164.095 356.087 162.627 356.563 161.41 357.45C160.789 358.876 160.636 360.462 160.975 361.98C161.313 363.498 162.125 364.869 163.293 365.896C164.461 366.923 165.925 367.552 167.474 367.693C169.023 367.834 170.576 367.479 171.91 366.68C172.501 365.588 172.798 364.361 172.772 363.119C172.745 361.877 172.397 360.664 171.761 359.597C171.125 358.531 170.223 357.648 169.143 357.035C168.063 356.422 166.842 356.1 165.6 356.1V356.09Z" fill="#E6E6E6"/>
<path d="M108.68 232.64H47.8301V205.17L108.68 132.83H137.8V206.73H152.89V232.64H137.8V255.12H108.68V232.64ZM108.68 206.73V168.89L76.5201 206.73H108.68Z" fill="url(#paint0_linear)"/>
<path d="M163.301 194.51C163.301 171.65 167.414 155.65 175.641 146.51C183.867 137.37 196.404 132.803 213.251 132.81C221.337 132.81 227.981 133.81 233.181 135.81C237.904 137.512 242.23 140.163 245.891 143.6C248.976 146.546 251.59 149.949 253.641 153.69C255.67 157.596 257.198 161.742 258.191 166.03C260.451 175.191 261.58 184.594 261.551 194.03C261.551 215.843 257.861 231.807 250.481 241.92C243.101 252.033 230.391 257.093 212.351 257.1C202.231 257.1 194.054 255.487 187.821 252.26C181.537 248.981 176.245 244.082 172.491 238.07C169.591 233.643 167.334 227.587 165.721 219.9C164.046 211.542 163.235 203.034 163.301 194.51ZM196.441 194.59C196.441 209.923 197.791 220.38 200.491 225.96C203.191 231.54 207.114 234.343 212.261 234.37C213.894 234.388 215.514 234.082 217.029 233.469C218.543 232.857 219.92 231.949 221.081 230.8C223.574 228.42 225.407 224.66 226.581 219.52C227.754 214.38 228.341 206.38 228.341 195.52C228.341 179.56 226.987 168.83 224.281 163.33C221.574 157.83 217.514 155.083 212.101 155.09C206.581 155.09 202.581 157.893 200.101 163.5C197.621 169.107 196.401 179.47 196.441 194.59Z" fill="url(#paint1_linear)"/>
<path d="M332.741 232.64H271.891V205.17L332.741 132.83H361.861V206.73H377.001V232.64H361.861V255.12H332.741V232.64ZM332.741 206.73V168.89L300.591 206.73H332.741Z" fill="url(#paint2_linear)"/>
<g opacity="0.3">
<path opacity="0.3" d="M162 90.62C162 90.9903 161.89 91.3522 161.684 91.66C161.478 91.9677 161.185 92.2074 160.843 92.3486C160.501 92.4899 160.124 92.5263 159.761 92.4533C159.398 92.3804 159.065 92.2013 158.804 91.9387C158.543 91.6762 158.366 91.3421 158.294 90.9787C158.223 90.6153 158.262 90.239 158.405 89.8975C158.548 89.5559 158.789 89.2646 159.098 89.0603C159.407 88.856 159.769 88.748 160.14 88.75C160.385 88.75 160.628 88.7985 160.854 88.8926C161.08 88.9867 161.286 89.1246 161.459 89.2983C161.631 89.4721 161.768 89.6783 161.861 89.9052C161.954 90.132 162.001 90.3749 162 90.62Z" fill="url(#paint3_linear)"/>
<path opacity="0.3" d="M33.9704 162.45C34.6994 162.45 35.2904 161.859 35.2904 161.13C35.2904 160.401 34.6994 159.81 33.9704 159.81C33.2414 159.81 32.6504 160.401 32.6504 161.13C32.6504 161.859 33.2414 162.45 33.9704 162.45Z" fill="url(#paint4_linear)"/>
<path opacity="0.3" d="M252.05 355.22C253.094 355.22 253.94 354.374 253.94 353.33C253.94 352.286 253.094 351.44 252.05 351.44C251.006 351.44 250.16 352.286 250.16 353.33C250.16 354.374 251.006 355.22 252.05 355.22Z" fill="url(#paint5_linear)"/>
<path opacity="0.3" d="M297.5 278.32C298.229 278.32 298.82 277.729 298.82 277C298.82 276.271 298.229 275.68 297.5 275.68C296.771 275.68 296.18 276.271 296.18 277C296.18 277.729 296.771 278.32 297.5 278.32Z" fill="url(#paint6_linear)"/>
<path opacity="0.3" d="M385.171 40.62C385.171 40.8811 385.094 41.1363 384.949 41.3534C384.804 41.5705 384.598 41.7397 384.356 41.8396C384.115 41.9395 383.85 41.9656 383.594 41.9147C383.338 41.8637 383.102 41.738 382.918 41.5534C382.733 41.3688 382.608 41.1336 382.557 40.8776C382.506 40.6215 382.532 40.3561 382.632 40.1149C382.732 39.8737 382.901 39.6676 383.118 39.5225C383.335 39.3775 383.59 39.3 383.851 39.3C384.201 39.3 384.537 39.4391 384.785 39.6867C385.032 39.9342 385.171 40.27 385.171 40.62Z" fill="url(#paint7_linear)"/>
<path opacity="0.3" d="M133.751 14.0001C133.751 14.2611 133.674 14.5163 133.529 14.7334C133.384 14.9505 133.178 15.1197 132.936 15.2196C132.695 15.3195 132.43 15.3456 132.174 15.2947C131.918 15.2438 131.683 15.118 131.498 14.9334C131.313 14.7488 131.188 14.5136 131.137 14.2576C131.086 14.0015 131.112 13.7361 131.212 13.4949C131.312 13.2537 131.481 13.0476 131.698 12.9025C131.915 12.7575 132.17 12.6801 132.431 12.6801C132.781 12.6827 133.115 12.8226 133.362 13.0696C133.609 13.3165 133.749 13.6508 133.751 14.0001Z" fill="url(#paint8_linear)"/>
<path opacity="0.3" d="M238.701 83.26C239.43 83.26 240.021 82.669 240.021 81.94C240.021 81.211 239.43 80.62 238.701 80.62C237.972 80.62 237.381 81.211 237.381 81.94C237.381 82.669 237.972 83.26 238.701 83.26Z" fill="url(#paint9_linear)"/>
</g>
<path d="M102.23 83.2701C114.331 83.2701 124.14 73.4606 124.14 61.3601C124.14 49.2595 114.331 39.4501 102.23 39.4501C90.1297 39.4501 80.3203 49.2595 80.3203 61.3601C80.3203 73.4606 90.1297 83.2701 102.23 83.2701Z" fill="url(#paint10_linear)"/>
<path opacity="0.7" d="M102.23 83.2701C114.331 83.2701 124.14 73.4606 124.14 61.3601C124.14 49.2595 114.331 39.4501 102.23 39.4501C90.1297 39.4501 80.3203 49.2595 80.3203 61.3601C80.3203 73.4606 90.1297 83.2701 102.23 83.2701Z" fill="white"/>
<path opacity="0.2" d="M94.6797 44.8301C91.6958 44.8209 88.7417 45.4233 85.9997 46.6001C82.6297 50.304 80.6294 55.0501 80.3318 60.0488C80.0341 65.0475 81.4569 69.9975 84.3635 74.0751C87.2701 78.1528 91.4853 81.1124 96.3077 82.4614C101.13 83.8105 106.269 83.4677 110.87 81.4901C113.722 78.3467 115.6 74.4428 116.277 70.2524C116.953 66.062 116.398 61.7655 114.679 57.8844C112.961 54.0033 110.152 50.7047 106.595 48.3892C103.037 46.0736 98.8843 44.8407 94.6397 44.8401L94.6797 44.8301Z" fill="url(#paint11_linear)"/>
<path opacity="0.2" d="M92.5 50.6201C92.5 51.0157 92.3827 51.4024 92.1629 51.7313C91.9432 52.0602 91.6308 52.3165 91.2654 52.4679C90.8999 52.6192 90.4978 52.6589 90.1098 52.5817C89.7219 52.5045 89.3655 52.314 89.0858 52.0343C88.8061 51.7546 88.6156 51.3983 88.5384 51.0103C88.4613 50.6223 88.5009 50.2202 88.6522 49.8547C88.8036 49.4893 89.06 49.1769 89.3889 48.9572C89.7178 48.7374 90.1044 48.6201 90.5 48.6201C91.0304 48.6201 91.5391 48.8308 91.9142 49.2059C92.2893 49.581 92.5 50.0897 92.5 50.6201Z" fill="url(#paint12_linear)"/>
<path opacity="0.2" d="M116.061 48.6201C116.061 49.0157 115.943 49.4024 115.723 49.7313C115.504 50.0602 115.191 50.3165 114.826 50.4679C114.46 50.6192 114.058 50.6589 113.67 50.5817C113.282 50.5045 112.926 50.314 112.646 50.0343C112.367 49.7546 112.176 49.3983 112.099 49.0103C112.022 48.6223 112.061 48.2202 112.213 47.8547C112.364 47.4893 112.62 47.1769 112.949 46.9572C113.278 46.7374 113.665 46.6201 114.061 46.6201C114.591 46.6201 115.1 46.8308 115.475 47.2059C115.85 47.581 116.061 48.0897 116.061 48.6201Z" fill="url(#paint13_linear)"/>
<path opacity="0.2" d="M112.06 62.9001C112.06 63.5488 111.868 64.183 111.507 64.7224C111.147 65.2618 110.635 65.6822 110.035 65.9304C109.436 66.1787 108.776 66.2436 108.14 66.1171C107.504 65.9905 106.919 65.6781 106.461 65.2194C106.002 64.7607 105.69 64.1763 105.563 63.54C105.436 62.9038 105.501 62.2443 105.75 61.6449C105.998 61.0456 106.418 60.5333 106.958 60.1729C107.497 59.8125 108.131 59.6201 108.78 59.6201C109.65 59.6201 110.484 59.9657 111.099 60.5808C111.714 61.1959 112.06 62.0302 112.06 62.9001Z" fill="url(#paint14_linear)"/>
<path opacity="0.2" d="M101.641 72.2501C101.641 73.1164 101.384 73.9632 100.903 74.6835C100.421 75.4038 99.7374 75.9652 98.937 76.2967C98.1367 76.6282 97.256 76.715 96.4064 76.546C95.5567 76.3769 94.7763 75.9598 94.1637 75.3472C93.5512 74.7347 93.134 73.9542 92.965 73.1046C92.796 72.255 92.8828 71.3743 93.2143 70.574C93.5458 69.7736 94.1072 69.0896 94.8275 68.6083C95.5477 68.127 96.3946 67.8701 97.2609 67.8701C98.4225 67.8701 99.5366 68.3316 100.358 69.153C101.179 69.9744 101.641 71.0885 101.641 72.2501Z" fill="url(#paint15_linear)"/>
<path d="M361.9 325.646C364.339 315.31 357.938 304.953 347.601 302.513C337.265 300.073 326.908 306.475 324.468 316.811C322.028 327.148 328.43 337.505 338.767 339.945C349.103 342.384 359.46 335.983 361.9 325.646Z" fill="url(#paint16_linear)"/>
<path opacity="0.3" d="M361.9 325.646C364.339 315.31 357.938 304.953 347.601 302.513C337.265 300.073 326.908 306.475 324.468 316.811C322.028 327.148 328.43 337.505 338.767 339.945C349.103 342.384 359.46 335.983 361.9 325.646Z" fill="white"/>
<path opacity="0.4" d="M355.33 306.34C351.067 305.053 346.49 305.287 342.38 307.001C338.27 308.714 334.883 311.802 332.797 315.736C330.71 319.669 330.055 324.206 330.942 328.569C331.829 332.933 334.204 336.853 337.66 339.66C339.453 340.205 341.317 340.481 343.19 340.48C347.16 340.479 351.033 339.25 354.276 336.96C357.519 334.671 359.974 331.434 361.305 327.693C362.635 323.952 362.774 319.892 361.705 316.069C360.635 312.246 358.408 308.847 355.33 306.34Z" fill="url(#paint17_linear)"/>
<path d="M324.83 327C304.3 336.66 319.61 344.11 348.54 333.71C375.33 324.08 385.54 311.94 361.54 315.71C362.83 320.76 329.28 333.83 324.83 327Z" fill="url(#paint18_linear)"/>
<path opacity="0.2" d="M355.1 132.83C328.21 151 293.4 175 283.79 232.64H281.74C291.09 175.64 324.63 151.07 351.53 132.83H355.1Z" fill="black"/>
<path d="M216.001 313.27C199.001 313.27 182.191 305.6 174.001 293.08C168.951 285.34 163.081 269.13 180.561 247.5L182.111 248.76C169.751 264.06 167.471 279.41 175.681 291.99C185.681 307.29 209.271 314.99 229.411 309.51C250.041 303.9 262.561 285.96 263.771 260.29C267.901 172.48 314.551 145.43 348.611 125.68C369.781 113.41 385.071 104.55 381.711 85.84C381.241 83.25 380.211 81.46 378.541 80.36C374.191 77.49 365.691 79.48 355.851 81.77C336.541 86.27 310.101 92.43 294.351 65.64L296.081 64.64C311.081 90.17 335.651 84.44 355.401 79.84C365.691 77.45 374.571 75.38 379.641 78.71C381.791 80.12 383.111 82.35 383.641 85.51C387.251 105.59 370.641 115.23 349.591 127.43C315.921 146.95 269.821 173.68 265.741 260.43C264.481 287.03 251.421 305.64 229.901 311.49C225.367 312.697 220.693 313.296 216.001 313.27Z" fill="url(#paint19_linear)"/>
<path opacity="0.2" d="M216.001 313.27C199.001 313.27 182.191 305.6 174.001 293.08C168.951 285.34 163.081 269.13 180.561 247.5L182.111 248.76C169.751 264.06 167.471 279.41 175.681 291.99C185.681 307.29 209.271 314.99 229.411 309.51C250.041 303.9 262.561 285.96 263.771 260.29C267.901 172.48 314.551 145.43 348.611 125.68C369.781 113.41 385.071 104.55 381.711 85.84C381.241 83.25 380.211 81.46 378.541 80.36C374.191 77.49 365.691 79.48 355.851 81.77C336.541 86.27 310.101 92.43 294.351 65.64L296.081 64.64C311.081 90.17 335.651 84.44 355.401 79.84C365.691 77.45 374.571 75.38 379.641 78.71C381.791 80.12 383.111 82.35 383.641 85.51C387.251 105.59 370.641 115.23 349.591 127.43C315.921 146.95 269.821 173.68 265.741 260.43C264.481 287.03 251.421 305.64 229.901 311.49C225.367 312.697 220.693 313.296 216.001 313.27Z" fill="white"/>
<path d="M273.762 42C278.369 42.0266 282.947 42.7446 287.342 44.13C287.342 44.13 298.342 62.9 299.642 67.2C299.182 71.44 292.032 78.39 292.032 78.39L273.762 42Z" fill="url(#paint20_linear)"/>
<path d="M306.341 133.13C302.105 127.95 298.242 122.477 294.781 116.75C293.941 115.303 293.144 113.83 292.391 112.33C291.961 111.48 291.551 110.63 291.151 109.77C290.626 108.933 290.219 108.028 289.941 107.08C288.741 94.41 293.081 85.08 288.941 74.91L272.461 81.35C272.461 81.35 273.861 99.47 277.061 110.35C279.061 117.08 283.541 122.9 287.871 128.29C289.221 129.97 290.521 131.7 291.871 133.39C293.221 135.08 294.581 136.45 295.871 138.04C297.821 140.45 298.461 142.76 296.991 145.6L296.741 146.05C296.321 146.79 298.281 147.63 299.521 146.05C301.521 143.47 301.241 143.63 302.981 141.43C304.041 140.1 305.251 138.65 306.301 137.43C306.807 136.83 307.089 136.072 307.096 135.287C307.103 134.502 306.836 133.739 306.341 133.13Z" fill="url(#paint21_linear)"/>
<path opacity="0.7" d="M306.341 133.13C302.105 127.95 298.242 122.477 294.781 116.75C293.941 115.303 293.144 113.83 292.391 112.33C291.961 111.48 291.551 110.63 291.151 109.77C290.626 108.933 290.219 108.028 289.941 107.08C288.741 94.41 293.081 85.08 288.941 74.91L272.461 81.35C272.461 81.35 273.861 99.47 277.061 110.35C279.061 117.08 283.541 122.9 287.871 128.29C289.221 129.97 290.521 131.7 291.871 133.39C293.221 135.08 294.581 136.45 295.871 138.04C297.821 140.45 298.461 142.76 296.991 145.6L296.741 146.05C296.321 146.79 298.281 147.63 299.521 146.05C301.521 143.47 301.241 143.63 302.981 141.43C304.041 140.1 305.251 138.65 306.301 137.43C306.807 136.83 307.089 136.072 307.096 135.287C307.103 134.502 306.836 133.739 306.341 133.13Z" fill="white"/>
<path opacity="0.3" d="M302.31 127.92C299.695 130.723 296.793 133.244 293.65 135.44C294.08 135.92 294.5 136.44 294.93 136.9C298.076 134.775 300.934 132.25 303.43 129.39L302.31 127.92Z" fill="url(#paint22_linear)"/>
<path opacity="0.3" d="M306.342 133.13L306.222 132.99C305.452 133.873 305.004 134.99 304.952 136.16C304.887 136.962 305.018 137.769 305.332 138.51L306.282 137.38C306.778 136.786 307.055 136.04 307.066 135.266C307.077 134.492 306.821 133.738 306.342 133.13Z" fill="url(#paint23_linear)"/>
<path d="M269.841 54C268.054 56.6752 265.911 59.0941 263.471 61.19C262.118 62.3564 260.634 63.363 259.051 64.19C258.219 64.6164 257.357 64.9807 256.471 65.28L255.791 65.5L255.571 65.56L255.101 65.69C254.811 65.7587 254.517 65.8055 254.221 65.83C253.377 65.8946 252.529 65.8168 251.711 65.6C250.679 65.3073 249.691 64.8803 248.771 64.33C248.03 63.8972 247.313 63.4266 246.621 62.92C245.371 61.9901 244.175 60.9884 243.041 59.92C240.853 57.8475 238.846 55.5927 237.041 53.18C236.693 52.71 236.521 52.1334 236.553 51.5497C236.585 50.9659 236.82 50.4117 237.217 49.9826C237.614 49.5536 238.148 49.2765 238.728 49.1994C239.307 49.1222 239.895 49.2498 240.391 49.56H240.471C242.831 51.06 245.211 52.64 247.531 54.05C248.711 54.74 249.851 55.4401 250.981 55.9801C251.497 56.2501 252.028 56.4905 252.571 56.7C252.909 56.8495 253.272 56.9375 253.641 56.96C253.701 56.96 253.641 56.89 253.271 56.9C253.154 56.8931 253.037 56.8931 252.921 56.9L252.701 56.95L253.031 56.78C253.475 56.541 253.906 56.2772 254.321 55.99C255.216 55.3592 256.052 54.6497 256.821 53.87C258.568 52.0392 260.204 50.1058 261.721 48.08C262.552 47.1503 263.7 46.5647 264.941 46.438C266.181 46.3113 267.424 46.6527 268.426 47.3953C269.428 48.1379 270.116 49.228 270.356 50.4517C270.595 51.6755 270.369 52.9446 269.721 54.01L269.841 54Z" fill="url(#paint24_linear)"/>
<path opacity="0.7" d="M269.841 54C268.054 56.6752 265.911 59.0941 263.471 61.19C262.118 62.3564 260.634 63.363 259.051 64.19C258.219 64.6164 257.357 64.9807 256.471 65.28L255.791 65.5L255.571 65.56L255.101 65.69C254.811 65.7587 254.517 65.8055 254.221 65.83C253.377 65.8946 252.529 65.8168 251.711 65.6C250.679 65.3073 249.691 64.8803 248.771 64.33C248.03 63.8972 247.313 63.4266 246.621 62.92C245.371 61.9901 244.175 60.9884 243.041 59.92C240.853 57.8475 238.846 55.5927 237.041 53.18C236.693 52.71 236.521 52.1334 236.553 51.5497C236.585 50.9659 236.82 50.4117 237.217 49.9826C237.614 49.5536 238.148 49.2765 238.728 49.1994C239.307 49.1222 239.895 49.2498 240.391 49.56H240.471C242.831 51.06 245.211 52.64 247.531 54.05C248.711 54.74 249.851 55.4401 250.981 55.9801C251.497 56.2501 252.028 56.4905 252.571 56.7C252.909 56.8495 253.272 56.9375 253.641 56.96C253.701 56.96 253.641 56.89 253.271 56.9C253.154 56.8931 253.037 56.8931 252.921 56.9L252.701 56.95L253.031 56.78C253.475 56.541 253.906 56.2772 254.321 55.99C255.216 55.3592 256.052 54.6497 256.821 53.87C258.568 52.0392 260.204 50.1058 261.721 48.08C262.552 47.1503 263.7 46.5647 264.941 46.438C266.181 46.3113 267.424 46.6527 268.426 47.3953C269.428 48.1379 270.116 49.228 270.356 50.4517C270.595 51.6755 270.369 52.9446 269.721 54.01L269.841 54Z" fill="white"/>
<path d="M233.291 47.42L234.461 49.42C234.461 49.42 235.351 52.04 237.141 52.52L242.001 50.95L241.751 50.54C241.131 49.6 241.201 47.77 241.411 46.25C241.621 44.73 240.841 44.68 240.261 45.06C239.85 45.5327 239.562 46.0994 239.421 46.71C239.183 46.3797 238.919 46.0688 238.631 45.78L237.151 44.3C236.841 43.9965 236.427 43.8216 235.993 43.8105C235.559 43.7994 235.137 43.9528 234.811 44.24L233.611 45.31C233.327 45.5733 233.14 45.9255 233.082 46.3089C233.024 46.6923 233.098 47.0841 233.291 47.42Z" fill="url(#paint25_linear)"/>
<path opacity="0.7" d="M233.291 47.42L234.461 49.42C234.461 49.42 235.351 52.04 237.141 52.52L242.001 50.95L241.751 50.54C241.131 49.6 241.201 47.77 241.411 46.25C241.621 44.73 240.841 44.68 240.261 45.06C239.85 45.5327 239.562 46.0994 239.421 46.71C239.183 46.3797 238.919 46.0688 238.631 45.78L237.151 44.3C236.841 43.9965 236.427 43.8216 235.993 43.8105C235.559 43.7994 235.137 43.9528 234.811 44.24L233.611 45.31C233.327 45.5733 233.14 45.9255 233.082 46.3089C233.024 46.6923 233.098 47.0841 233.291 47.42Z" fill="white"/>
<path d="M278.671 40.22C273.28 41.6488 268.117 43.8267 263.331 46.69C262.584 47.1572 261.998 47.8416 261.652 48.6512C261.305 49.4609 261.214 50.3572 261.391 51.22C263.321 60.66 267.711 73.3 272.451 81.35L294.561 72.2C294.711 68.3 289.341 55.68 283.871 43.48C282.891 41.29 281.001 39.66 278.671 40.22Z" fill="url(#paint26_linear)"/>
<path opacity="0.8" d="M278.671 40.22C273.28 41.6488 268.117 43.8267 263.331 46.69C262.584 47.1572 261.998 47.8416 261.652 48.6512C261.305 49.4609 261.214 50.3572 261.391 51.22C263.321 60.66 267.711 73.3 272.451 81.35L294.561 72.2C294.711 68.3 289.341 55.68 283.871 43.48C282.891 41.29 281.001 39.66 278.671 40.22Z" fill="white"/>
<path opacity="0.3" d="M287.3 51.21L282.91 49.74C283.91 52.31 287.44 55.56 289.91 57.47C289.11 55.47 288.22 53.37 287.3 51.21Z" fill="url(#paint27_linear)"/>
<path d="M277.221 30.32C275.391 26.84 271.441 25.09 266.701 25.48C262.701 25.82 259.161 29.9 259.581 32.1C260.001 34.3 263.361 35.24 264.001 36L261.231 38C260.903 38.2369 260.626 38.5376 260.417 38.8843C260.208 39.2309 260.072 39.6162 260.016 40.017C259.959 40.4178 259.985 40.8258 260.091 41.2164C260.197 41.607 260.38 41.9722 260.631 42.29C261.801 43.77 263.341 45.29 264.231 46.41C271.891 46.21 277.561 43.29 279.611 40.48C278.841 36.92 279.001 33.78 277.221 30.32Z" fill="url(#paint28_linear)"/>
<path opacity="0.8" d="M277.221 30.32C275.391 26.84 271.441 25.09 266.701 25.48C262.701 25.82 259.161 29.9 259.581 32.1C260.001 34.3 263.361 35.24 264.001 36L261.231 38C260.903 38.2369 260.626 38.5376 260.417 38.8843C260.208 39.2309 260.072 39.6162 260.016 40.017C259.959 40.4178 259.985 40.8258 260.091 41.2164C260.197 41.607 260.38 41.9722 260.631 42.29C261.801 43.77 263.341 45.29 264.231 46.41C271.891 46.21 277.561 43.29 279.611 40.48C278.841 36.92 279.001 33.78 277.221 30.32Z" fill="white"/>
<path d="M273.461 32.48C274.004 33.8746 274.123 35.3991 273.8 36.8609C273.478 38.3226 272.729 39.6559 271.649 40.6923C270.569 41.7286 269.206 42.4215 267.732 42.6833C266.258 42.9451 264.74 42.7641 263.369 42.1632C261.998 41.5623 260.836 40.5684 260.03 39.3072C259.223 38.046 258.809 36.574 258.839 35.0775C258.87 33.5809 259.343 32.1269 260.199 30.8992C261.056 29.6714 262.257 28.7252 263.651 28.18C265.522 27.451 267.606 27.4944 269.445 28.3006C271.285 29.1068 272.729 30.61 273.461 32.48Z" fill="#263238"/>
<path d="M338.391 122.6C338.281 119.31 338.131 119.6 338.041 116.83C337.981 115.13 337.971 113.24 337.961 111.61C337.958 110.836 337.687 110.087 337.195 109.489C336.703 108.891 336.02 108.482 335.261 108.33C333.941 108.06 332.611 107.81 331.261 107.53C329.531 107.16 327.821 106.76 326.131 106.27C324.811 105.89 323.511 105.47 322.221 105C320.931 104.53 319.481 104 318.141 103.38C316.561 102.71 315.001 101.99 313.461 101.24C311.731 100.42 310.021 99.56 308.311 98.69C301.731 87.8 301.591 80.62 294.531 72.2L279.371 79.06C279.371 79.06 290.511 98.82 298.091 107.2C302.461 112.02 309.311 114.2 315.421 115.78C319.831 116.91 324.301 117.78 328.771 118.61C330.511 118.93 332.401 119.05 333.901 120.09C335.011 120.941 335.772 122.168 336.041 123.54C336.108 123.82 336.168 124.1 336.221 124.38C336.411 125.22 338.461 124.58 338.391 122.6Z" fill="url(#paint29_linear)"/>
<path opacity="0.8" d="M338.391 122.6C338.281 119.31 338.131 119.6 338.041 116.83C337.981 115.13 337.971 113.24 337.961 111.61C337.958 110.836 337.687 110.087 337.195 109.489C336.703 108.891 336.02 108.482 335.261 108.33C333.941 108.06 332.611 107.81 331.261 107.53C329.531 107.16 327.821 106.76 326.131 106.27C324.811 105.89 323.511 105.47 322.221 105C320.931 104.53 319.481 104 318.141 103.38C316.561 102.71 315.001 101.99 313.461 101.24C311.731 100.42 310.021 99.56 308.311 98.69C301.731 87.8 301.591 80.62 294.531 72.2L279.371 79.06C279.371 79.06 290.511 98.82 298.091 107.2C302.461 112.02 309.311 114.2 315.421 115.78C319.831 116.91 324.301 117.78 328.771 118.61C330.511 118.93 332.401 119.05 333.901 120.09C335.011 120.941 335.772 122.168 336.041 123.54C336.108 123.82 336.168 124.1 336.221 124.38C336.411 125.22 338.461 124.58 338.391 122.6Z" fill="white"/>
<path opacity="0.3" d="M330.7 107.4C330.1 107.27 329.5 107.14 328.89 106.99C328.94 110.45 327.32 116.41 326.73 118.22L328.63 118.58C329.876 114.978 330.573 111.209 330.7 107.4Z" fill="url(#paint30_linear)"/>
<path opacity="0.3" d="M338.001 111.61C337.998 110.837 337.729 110.089 337.239 109.492C336.749 108.894 336.068 108.484 335.311 108.33L334.311 108.14C334.471 109.277 335.053 110.312 335.941 111.04C336.511 111.568 337.196 111.958 337.941 112.18C338.001 112 338.001 111.8 338.001 111.61Z" fill="url(#paint31_linear)"/>
<path d="M272.052 32.54C272.452 34.06 270.752 35.65 269.402 34.34C268.142 32.989 266.763 31.754 265.282 30.65C263.892 29.78 265.742 28.26 267.932 28.85C268.866 29.0847 269.73 29.5433 270.447 30.1862C271.165 30.829 271.716 31.6369 272.052 32.54Z" fill="white"/>
<path d="M272.16 80.86C271.46 81.12 272.74 82.32 272.74 82.32C272.74 82.32 286.74 77.53 295.24 72.6C295.261 72.3016 295.21 72.0025 295.092 71.7277C294.974 71.4529 294.791 71.2103 294.56 71.02C287.286 74.7206 279.807 78.0059 272.16 80.86Z" fill="url(#paint32_linear)"/>
<path opacity="0.5" d="M272.16 80.86C271.46 81.12 272.74 82.32 272.74 82.32C272.74 82.32 286.74 77.53 295.24 72.6C295.261 72.3016 295.21 72.0025 295.092 71.7277C294.974 71.4529 294.791 71.2103 294.56 71.02C287.286 74.7206 279.807 78.0059 272.16 80.86Z" fill="white"/>
<path d="M282.461 39.56C285.221 40.96 287.811 42.43 290.461 44.06C291.751 44.88 293.031 45.71 294.301 46.61C295.571 47.51 296.831 48.43 298.101 49.47L298.571 49.86L299.161 50.4C299.512 50.7146 299.846 51.0484 300.161 51.4C300.481 51.75 300.751 52.09 301.011 52.4C301.271 52.71 301.551 53.08 301.781 53.4C302.713 54.6856 303.574 56.0209 304.361 57.4C305.911 60.0744 307.248 62.8663 308.361 65.75C308.567 66.2948 308.577 66.8941 308.391 67.4459C308.205 67.9977 307.833 68.468 307.339 68.7768C306.846 69.0855 306.26 69.2137 305.682 69.1396C305.105 69.0654 304.571 68.7935 304.171 68.37L304.121 68.31C302.121 66.18 300.191 63.94 298.251 61.85C296.311 59.76 294.341 57.64 292.711 56.71C290.441 55.3 287.911 53.89 285.401 52.51L277.841 48.31C276.669 47.6894 275.791 46.6285 275.401 45.3608C275.011 44.093 275.14 42.7223 275.761 41.55C276.382 40.3777 277.442 39.5 278.71 39.11C279.978 38.7199 281.349 38.8494 282.521 39.47L282.461 39.56Z" fill="url(#paint33_linear)"/>
<path opacity="0.8" d="M282.461 39.56C285.221 40.96 287.811 42.43 290.461 44.06C291.751 44.88 293.031 45.71 294.301 46.61C295.571 47.51 296.831 48.43 298.101 49.47L298.571 49.86L299.161 50.4C299.512 50.7146 299.846 51.0484 300.161 51.4C300.481 51.75 300.751 52.09 301.011 52.4C301.271 52.71 301.551 53.08 301.781 53.4C302.713 54.6856 303.574 56.0209 304.361 57.4C305.911 60.0744 307.248 62.8663 308.361 65.75C308.567 66.2948 308.577 66.8941 308.391 67.4459C308.205 67.9977 307.833 68.468 307.339 68.7768C306.846 69.0855 306.26 69.2137 305.682 69.1396C305.105 69.0654 304.571 68.7935 304.171 68.37L304.121 68.31C302.121 66.18 300.191 63.94 298.251 61.85C296.311 59.76 294.341 57.64 292.711 56.71C290.441 55.3 287.911 53.89 285.401 52.51L277.841 48.31C276.669 47.6894 275.791 46.6285 275.401 45.3608C275.011 44.093 275.14 42.7223 275.761 41.55C276.382 40.3777 277.442 39.5 278.71 39.11C279.978 38.7199 281.349 38.8494 282.521 39.47L282.461 39.56Z" fill="white"/>
<path d="M310.732 70.74L309.882 68.61C309.882 68.61 309.412 65.89 307.722 65.13L302.722 65.92L302.892 66.36C303.352 67.36 303.002 69.19 302.552 70.65C302.102 72.11 302.862 72.3 303.502 72.01C303.862 71.85 304.212 71.2 304.592 70.51C304.778 70.8576 304.989 71.1918 305.222 71.51L306.452 73.2C306.709 73.5502 307.089 73.7902 307.515 73.8718C307.942 73.9535 308.384 73.8706 308.752 73.64L310.112 72.77C310.43 72.5522 310.665 72.2325 310.778 71.8637C310.89 71.4948 310.874 71.0985 310.732 70.74Z" fill="url(#paint34_linear)"/>
<path opacity="0.8" d="M310.732 70.74L309.882 68.61C309.882 68.61 309.412 65.89 307.722 65.13L302.722 65.92L302.892 66.36C303.352 67.36 303.002 69.19 302.552 70.65C302.102 72.11 302.862 72.3 303.502 72.01C303.862 71.85 304.212 71.2 304.592 70.51C304.778 70.8576 304.989 71.1918 305.222 71.51L306.452 73.2C306.709 73.5502 307.089 73.7902 307.515 73.8718C307.942 73.9535 308.384 73.8706 308.752 73.64L310.112 72.77C310.43 72.5522 310.665 72.2325 310.778 71.8637C310.89 71.4948 310.874 71.0985 310.732 70.74Z" fill="white"/>
<path opacity="0.3" d="M278.241 51.0601L277.021 51.1601L269.531 69.2401C269.941 69.2695 270.352 69.2358 270.751 69.1401C270.751 69.1401 280.511 65.5001 283.461 64.1401C281.481 60.0501 278.241 51.0601 278.241 51.0601Z" fill="url(#paint35_linear)"/>
<path d="M264.57 55.8C265.48 60.5262 267.17 65.0682 269.57 69.24C273.23 67.98 279.33 65.6 282.29 64.24C280.301 59.975 278.535 55.609 277 51.16C273.87 51.37 267 54 264.57 55.8Z" fill="white"/>
<path opacity="0.3" d="M272.001 59.71C271.855 60.199 271.567 60.6337 271.174 60.959C270.78 61.2843 270.299 61.4857 269.792 61.5376C269.284 61.5895 268.772 61.4897 268.321 61.2507C267.87 61.0117 267.5 60.6443 267.258 60.195C267.016 59.7457 266.912 59.2347 266.961 58.7266C267.009 58.2184 267.207 57.7361 267.53 57.3405C267.852 56.945 268.285 56.654 268.773 56.5043C269.261 56.3547 269.782 56.3532 270.271 56.5C270.926 56.6966 271.476 57.1451 271.8 57.747C272.125 58.3489 272.197 59.0549 272.001 59.71Z" fill="url(#paint36_linear)"/>
<path opacity="0.6" d="M273.91 56.2699C273.871 56.4369 273.783 56.5881 273.656 56.7038C273.53 56.8195 273.371 56.8943 273.202 56.9183C273.032 56.9423 272.859 56.9145 272.705 56.8384C272.552 56.7623 272.425 56.6416 272.341 56.492C272.257 56.3424 272.22 56.1711 272.236 56.0003C272.251 55.8296 272.318 55.6675 272.427 55.5354C272.536 55.4032 272.683 55.3072 272.848 55.2598C273.012 55.2124 273.187 55.216 273.35 55.2699C273.553 55.3347 273.723 55.474 273.827 55.6596C273.931 55.8452 273.961 56.0633 273.91 56.2699Z" fill="url(#paint37_linear)"/>
<path opacity="0.6" d="M276.15 55.4001C276.126 55.5161 276.079 55.6259 276.011 55.7225C275.942 55.8191 275.854 55.9004 275.753 55.9611C275.651 56.0218 275.538 56.0606 275.421 56.0751C275.303 56.0896 275.184 56.0793 275.071 56.0451C274.957 56.0108 274.853 55.9533 274.763 55.8761C274.673 55.799 274.6 55.7039 274.549 55.5971C274.499 55.4902 274.471 55.3739 274.467 55.2556C274.464 55.1373 274.485 55.0196 274.53 54.9101C274.562 54.8042 274.614 54.7058 274.685 54.6203C274.755 54.5349 274.841 54.4641 274.939 54.4121C275.036 54.36 275.143 54.3278 275.253 54.3171C275.363 54.3065 275.474 54.3177 275.58 54.3501C275.794 54.4149 275.974 54.5615 276.081 54.758C276.187 54.9546 276.212 55.1852 276.15 55.4001Z" fill="url(#paint38_linear)"/>
<path opacity="0.5" d="M279.29 63.19L270.04 66.84L269.49 65.02L278.73 61.37L279.29 63.19Z" fill="url(#paint39_linear)"/>
<path opacity="0.2" d="M228.259 202.17C228.237 207.993 227.675 213.801 226.579 219.52C225.399 224.66 223.565 228.42 221.079 230.8C219.92 231.95 218.545 232.858 217.032 233.47C215.52 234.083 213.9 234.389 212.269 234.37C207.129 234.37 203.205 231.567 200.499 225.96C200.023 224.953 199.619 223.914 199.289 222.85C193.572 227.76 188.249 233.109 183.369 238.85L178.059 245.11C180.916 248.006 184.214 250.433 187.829 252.3C194.055 255.52 202.229 257.133 212.349 257.14C214.129 257.14 215.849 257.09 217.519 256.99C223.641 247.931 228.707 238.201 232.619 227.99L247.469 189.27L228.259 202.17Z" fill="black"/>
<path d="M94.3887 255L111.889 272.5L160.889 226.33C143.999 219.88 111.159 238.19 94.3887 255Z" fill="#263238"/>
<path d="M155.42 316C149.83 310.4 137.92 298.5 137.92 298.5L184.09 249.5C190.5 266.35 172.19 299.22 155.42 316Z" fill="#263238"/>
<path d="M222.398 205.7L241.488 168.89L204.678 188C192.855 194.132 181.938 201.872 172.238 211L109.488 270.07L140.318 300.9L199.388 238.15C208.52 228.448 216.264 217.528 222.398 205.7Z" fill="url(#paint40_linear)"/>
<path opacity="0.6" d="M222.398 205.7L241.488 168.89L204.678 188C192.855 194.132 181.938 201.872 172.238 211L109.488 270.07L140.318 300.9L199.388 238.15C208.52 228.448 216.264 217.528 222.398 205.7Z" fill="white"/>
<path d="M183.199 240.08C190.323 240.08 196.099 234.304 196.099 227.18C196.099 220.056 190.323 214.28 183.199 214.28C176.074 214.28 170.299 220.056 170.299 227.18C170.299 234.304 176.074 240.08 183.199 240.08Z" fill="white"/>
<path d="M183.198 235.47C187.777 235.47 191.488 231.758 191.488 227.18C191.488 222.602 187.777 218.89 183.198 218.89C178.62 218.89 174.908 222.602 174.908 227.18C174.908 231.758 178.62 235.47 183.198 235.47Z" fill="url(#paint41_linear)"/>
<path opacity="0.3" d="M150.749 289.82L120.559 259.63L145.279 236.37L174.009 265.11L150.749 289.82Z" fill="url(#paint42_linear)"/>
<path d="M101.219 282.62C78.619 284.45 71.129 298.92 68.569 318.15C67.269 327.96 66.689 337.89 58.459 343.63C57.9639 343.967 57.5912 344.454 57.3966 345.02C57.2019 345.587 57.196 346.2 57.3795 346.77C57.5631 347.34 57.9263 347.835 58.4147 348.181C58.9032 348.527 59.4906 348.706 60.089 348.69C90.429 347.74 104.579 332.89 106.359 326.69C105.892 329.931 105.056 333.108 103.869 336.16C103.651 336.699 103.608 337.292 103.747 337.856C103.886 338.421 104.199 338.927 104.642 339.302C105.086 339.678 105.636 339.904 106.216 339.949C106.795 339.993 107.374 339.854 107.869 339.55C116.379 334.22 127.059 324.4 127.769 308.47C121.509 299.6 101.219 282.62 101.219 282.62Z" fill="url(#paint43_linear)"/>
<path d="M131.278 315.3L95.0781 279.1L114.358 274.93L135.448 296.02L131.278 315.3Z" fill="url(#paint44_linear)"/>
<defs>
<linearGradient id="paint0_linear" x1="47.8301" y1="132.856" x2="47.8301" y2="255.146" gradientUnits="userSpaceOnUse">
<stop stop-color="#2944CC"/>
<stop offset="1" stop-color="#3355FF"/>
</linearGradient>
<linearGradient id="paint1_linear" x1="163.297" y1="132.837" x2="163.297" y2="257.127" gradientUnits="userSpaceOnUse">
<stop stop-color="#2944CC"/>
<stop offset="1" stop-color="#3355FF"/>
</linearGradient>
<linearGradient id="paint2_linear" x1="271.891" y1="132.856" x2="271.891" y2="255.146" gradientUnits="userSpaceOnUse">
<stop stop-color="#2944CC"/>
<stop offset="1" stop-color="#3355FF"/>
</linearGradient>
<linearGradient id="paint3_linear" x1="158.26" y1="88.7508" x2="158.26" y2="92.4908" gradientUnits="userSpaceOnUse">
<stop stop-color="#2944CC"/>
<stop offset="1" stop-color="#3355FF"/>
</linearGradient>
<linearGradient id="paint4_linear" x1="32.6504" y1="159.811" x2="32.6504" y2="162.451" gradientUnits="userSpaceOnUse">
<stop stop-color="#2944CC"/>
<stop offset="1" stop-color="#3355FF"/>
</linearGradient>
<linearGradient id="paint5_linear" x1="250.16" y1="351.441" x2="250.16" y2="355.221" gradientUnits="userSpaceOnUse">
<stop stop-color="#2944CC"/>
<stop offset="1" stop-color="#3355FF"/>
</linearGradient>
<linearGradient id="paint6_linear" x1="296.18" y1="275.681" x2="296.18" y2="278.321" gradientUnits="userSpaceOnUse">
<stop stop-color="#2944CC"/>
<stop offset="1" stop-color="#3355FF"/>
</linearGradient>
<linearGradient id="paint7_linear" x1="382.531" y1="39.3006" x2="382.531" y2="41.9406" gradientUnits="userSpaceOnUse">
<stop stop-color="#2944CC"/>
<stop offset="1" stop-color="#3355FF"/>
</linearGradient>
<linearGradient id="paint8_linear" x1="131.111" y1="12.6806" x2="131.111" y2="15.3206" gradientUnits="userSpaceOnUse">
<stop stop-color="#2944CC"/>
<stop offset="1" stop-color="#3355FF"/>
</linearGradient>
<linearGradient id="paint9_linear" x1="237.381" y1="80.6206" x2="237.381" y2="83.2606" gradientUnits="userSpaceOnUse">
<stop stop-color="#2944CC"/>
<stop offset="1" stop-color="#3355FF"/>
</linearGradient>
<linearGradient id="paint10_linear" x1="80.3203" y1="39.4595" x2="80.3203" y2="83.2795" gradientUnits="userSpaceOnUse">
<stop stop-color="#2944CC"/>
<stop offset="1" stop-color="#3355FF"/>
</linearGradient>
<linearGradient id="paint11_linear" x1="80.293" y1="44.8382" x2="80.293" y2="83.2801" gradientUnits="userSpaceOnUse">
<stop stop-color="#2944CC"/>
<stop offset="1" stop-color="#3355FF"/>
</linearGradient>
<linearGradient id="paint12_linear" x1="88.5" y1="48.621" x2="88.5" y2="52.621" gradientUnits="userSpaceOnUse">
<stop stop-color="#2944CC"/>
<stop offset="1" stop-color="#3355FF"/>
</linearGradient>
<linearGradient id="paint13_linear" x1="112.061" y1="46.621" x2="112.061" y2="50.621" gradientUnits="userSpaceOnUse">
<stop stop-color="#2944CC"/>
<stop offset="1" stop-color="#3355FF"/>
</linearGradient>
<linearGradient id="paint14_linear" x1="105.5" y1="59.6215" x2="105.5" y2="66.1815" gradientUnits="userSpaceOnUse">
<stop stop-color="#2944CC"/>
<stop offset="1" stop-color="#3355FF"/>
</linearGradient>
<linearGradient id="paint15_linear" x1="92.8809" y1="67.872" x2="92.8809" y2="76.632" gradientUnits="userSpaceOnUse">
<stop stop-color="#2944CC"/>
<stop offset="1" stop-color="#3355FF"/>
</linearGradient>
<linearGradient id="paint16_linear" x1="320.059" y1="335.529" x2="357.49" y2="344.364" gradientUnits="userSpaceOnUse">
<stop stop-color="#2944CC"/>
<stop offset="1" stop-color="#3355FF"/>
</linearGradient>
<linearGradient id="paint17_linear" x1="330.557" y1="305.528" x2="330.557" y2="340.488" gradientUnits="userSpaceOnUse">
<stop stop-color="#2944CC"/>
<stop offset="1" stop-color="#3355FF"/>
</linearGradient>
<linearGradient id="paint18_linear" x1="345.229" y1="315.006" x2="345.229" y2="338.743" gradientUnits="userSpaceOnUse">
<stop stop-color="#E62E2E"/>
<stop offset="1" stop-color="#FF3333"/>
</linearGradient>
<linearGradient id="paint19_linear" x1="276.483" y1="64.64" x2="276.483" y2="313.271" gradientUnits="userSpaceOnUse">
<stop stop-color="#E62E2E"/>
<stop offset="1" stop-color="#FF3333"/>
</linearGradient>
<linearGradient id="paint20_linear" x1="286.702" y1="42" x2="286.702" y2="78.39" gradientUnits="userSpaceOnUse">
<stop stop-color="#E62E2E"/>
<stop offset="1" stop-color="#FF3333"/>
</linearGradient>
<linearGradient id="paint21_linear" x1="272.461" y1="74.9256" x2="272.461" y2="146.962" gradientUnits="userSpaceOnUse">
<stop stop-color="#2944CC"/>
<stop offset="1" stop-color="#3355FF"/>
</linearGradient>
<linearGradient id="paint22_linear" x1="293.65" y1="127.922" x2="293.65" y2="136.902" gradientUnits="userSpaceOnUse">
<stop stop-color="#2944CC"/>
<stop offset="1" stop-color="#3355FF"/>
</linearGradient>
<linearGradient id="paint23_linear" x1="304.936" y1="132.991" x2="304.936" y2="138.511" gradientUnits="userSpaceOnUse">
<stop stop-color="#2944CC"/>
<stop offset="1" stop-color="#3355FF"/>
</linearGradient>
<linearGradient id="paint24_linear" x1="236.549" y1="46.4163" x2="236.549" y2="65.8562" gradientUnits="userSpaceOnUse">
<stop stop-color="#2944CC"/>
<stop offset="1" stop-color="#3355FF"/>
</linearGradient>
<linearGradient id="paint25_linear" x1="233.062" y1="43.8118" x2="233.063" y2="52.5218" gradientUnits="userSpaceOnUse">
<stop stop-color="#2944CC"/>
<stop offset="1" stop-color="#3355FF"/>
</linearGradient>
<linearGradient id="paint26_linear" x1="261.303" y1="40.1178" x2="261.303" y2="81.3588" gradientUnits="userSpaceOnUse">
<stop stop-color="#2944CC"/>
<stop offset="1" stop-color="#3355FF"/>
</linearGradient>
<linearGradient id="paint27_linear" x1="282.91" y1="49.7417" x2="282.91" y2="57.4717" gradientUnits="userSpaceOnUse">
<stop stop-color="#2944CC"/>
<stop offset="1" stop-color="#3355FF"/>
</linearGradient>
<linearGradient id="paint28_linear" x1="259.547" y1="25.4309" x2="259.547" y2="46.4145" gradientUnits="userSpaceOnUse">
<stop stop-color="#2944CC"/>
<stop offset="1" stop-color="#3355FF"/>
</linearGradient>
<linearGradient id="paint29_linear" x1="279.371" y1="72.2113" x2="279.371" y2="124.752" gradientUnits="userSpaceOnUse">
<stop stop-color="#2944CC"/>
<stop offset="1" stop-color="#3355FF"/>
</linearGradient>
<linearGradient id="paint30_linear" x1="326.73" y1="106.992" x2="326.73" y2="118.582" gradientUnits="userSpaceOnUse">
<stop stop-color="#2944CC"/>
<stop offset="1" stop-color="#3355FF"/>
</linearGradient>
<linearGradient id="paint31_linear" x1="334.311" y1="108.141" x2="334.311" y2="112.181" gradientUnits="userSpaceOnUse">
<stop stop-color="#2944CC"/>
<stop offset="1" stop-color="#3355FF"/>
</linearGradient>
<linearGradient id="paint32_linear" x1="271.951" y1="71.0225" x2="271.951" y2="82.3225" gradientUnits="userSpaceOnUse">
<stop stop-color="#2944CC"/>
<stop offset="1" stop-color="#3355FF"/>
</linearGradient>
<linearGradient id="paint33_linear" x1="275.18" y1="38.8953" x2="275.18" y2="69.1666" gradientUnits="userSpaceOnUse">
<stop stop-color="#2944CC"/>
<stop offset="1" stop-color="#3355FF"/>
</linearGradient>
<linearGradient id="paint34_linear" x1="302.416" y1="65.1319" x2="302.416" y2="73.9044" gradientUnits="userSpaceOnUse">
<stop stop-color="#2944CC"/>
<stop offset="1" stop-color="#3355FF"/>
</linearGradient>
<linearGradient id="paint35_linear" x1="269.531" y1="51.064" x2="269.531" y2="69.2543" gradientUnits="userSpaceOnUse">
<stop stop-color="#2944CC"/>
<stop offset="1" stop-color="#3355FF"/>
</linearGradient>
<linearGradient id="paint36_linear" x1="269.529" y1="56.391" x2="269.529" y2="61.551" gradientUnits="userSpaceOnUse">
<stop stop-color="#E62E2E"/>
<stop offset="1" stop-color="#FF3333"/>
</linearGradient>
<linearGradient id="paint37_linear" x1="273.083" y1="55.2267" x2="273.083" y2="56.9267" gradientUnits="userSpaceOnUse">
<stop stop-color="#E62E2E"/>
<stop offset="1" stop-color="#FF3333"/>
</linearGradient>
<linearGradient id="paint38_linear" x1="275.325" y1="54.3132" x2="275.325" y2="56.0815" gradientUnits="userSpaceOnUse">
<stop stop-color="#E62E2E"/>
<stop offset="1" stop-color="#FF3333"/>
</linearGradient>
<linearGradient id="paint39_linear" x1="274.39" y1="61.37" x2="274.39" y2="66.84" gradientUnits="userSpaceOnUse">
<stop stop-color="#E62E2E"/>
<stop offset="1" stop-color="#FF3333"/>
</linearGradient>
<linearGradient id="paint40_linear" x1="109.488" y1="168.918" x2="109.488" y2="300.928" gradientUnits="userSpaceOnUse">
<stop stop-color="#2944CC"/>
<stop offset="1" stop-color="#3355FF"/>
</linearGradient>
<linearGradient id="paint41_linear" x1="183.198" y1="218.89" x2="183.198" y2="235.47" gradientUnits="userSpaceOnUse">
<stop stop-color="#E62E2E"/>
<stop offset="1" stop-color="#FF3333"/>
</linearGradient>
<linearGradient id="paint42_linear" x1="120.559" y1="236.382" x2="120.559" y2="289.832" gradientUnits="userSpaceOnUse">
<stop stop-color="#2944CC"/>
<stop offset="1" stop-color="#3355FF"/>
</linearGradient>
<linearGradient id="paint43_linear" x1="92.5076" y1="282.62" x2="92.5076" y2="348.691" gradientUnits="userSpaceOnUse">
<stop stop-color="#E62E2E"/>
<stop offset="1" stop-color="#FF3333"/>
</linearGradient>
<linearGradient id="paint44_linear" x1="95.0781" y1="274.939" x2="95.0781" y2="315.309" gradientUnits="userSpaceOnUse">
<stop stop-color="#2944CC"/>
<stop offset="1" stop-color="#3355FF"/>
</linearGradient>
</defs>
</svg>
