<svg width="400" height="364" viewBox="0 0 400 364" fill="none" xmlns="http://www.w3.org/2000/svg">
<path d="M399.578 363.767C399.578 363.901 310.122 364 199.798 364C89.4734 364 0 363.901 0 363.767C0 363.632 89.4375 363.533 199.798 363.533C310.158 363.533 399.578 363.641 399.578 363.767Z" fill="#263238"/>
<path d="M53.4629 336.182C54.479 332.255 51.8984 328.301 48.9672 325.453C46.036 322.605 42.6193 320.062 41.1177 316.279C38.6811 310.169 41.9539 302.262 37.7999 297.167C35.3542 294.166 30.9664 293.16 28.8085 289.979C27.6666 288.299 27.2979 286.232 26.8484 284.255C24.5525 274.1 19.5648 264.748 12.4082 257.182C11.9306 266.22 13.8933 275.22 18.0907 283.24C19.7721 286.439 21.8402 289.529 22.3976 293.124C23.2968 298.928 20.0599 304.912 21.4985 310.609C23.1259 317.133 30.4899 321.499 30.8046 328.212C31.1013 333.89 26.147 338.868 26.5157 344.538C26.8172 346.949 27.6828 349.254 29.0423 351.268C33.4481 358.6 39.8769 363.623 49.6326 363.461L61.6091 363.875L53.4629 336.182Z" fill="#FF725E"/>
<g opacity="0.3">
<path opacity="0.3" d="M53.4629 336.182C54.479 332.255 51.8984 328.301 48.9672 325.453C46.036 322.605 42.6193 320.062 41.1177 316.279C38.6811 310.169 41.9539 302.262 37.7999 297.167C35.3542 294.166 30.9664 293.16 28.8085 289.979C27.6666 288.299 27.2979 286.232 26.8484 284.255C24.5525 274.1 19.5648 264.748 12.4082 257.182C11.9306 266.22 13.8933 275.22 18.0907 283.24C19.7721 286.439 21.8402 289.529 22.3976 293.124C23.2968 298.928 20.0599 304.912 21.4985 310.609C23.1259 317.133 30.4899 321.499 30.8046 328.212C31.1013 333.89 26.147 338.868 26.5157 344.538C26.8172 346.949 27.6828 349.254 29.0423 351.268C33.4481 358.6 39.8769 363.623 49.6326 363.461L61.6091 363.875L53.4629 336.182Z" fill="black"/>
</g>
<path d="M64.0188 363.794C65.114 363.965 66.2307 363.944 67.3186 363.731C68.6417 363.53 69.9425 363.202 71.2029 362.752C72.9414 362.147 74.567 361.257 76.0133 360.119C76.8811 359.419 77.561 358.514 77.9914 357.486C78.3557 356.323 78.5436 355.111 78.5489 353.892C78.5758 352.597 78.6719 351.304 78.8366 350.02C79.0666 348.655 79.5614 347.349 80.2932 346.174C81.7049 343.694 84.0516 341.349 84.7889 337.979C85.5262 334.61 85.0227 331.087 84.4652 327.493C83.9077 323.899 83.3683 319.99 84.744 316.252C86.1196 312.515 88.6552 309.127 89.968 304.913C91.2807 300.699 90.6693 296.062 90.939 291.543C91.0277 289.249 91.5589 286.995 92.5035 284.903C93.4746 282.782 94.8143 280.787 95.8663 278.55C97.9883 274.057 98.3659 268.935 98.9504 263.931C99.2321 261.403 99.5318 258.854 99.8495 256.284C100.03 253.694 100.476 251.128 101.18 248.629C101.989 246.106 102.946 243.634 104.048 241.225C104.614 239.973 105.077 238.678 105.433 237.352C105.636 235.988 105.766 234.614 105.82 233.237C105.953 230.471 105.847 227.699 105.505 224.952C105.181 222.194 104.678 219.453 104.381 216.685L104.327 216.209L104.264 215.661L103.779 215.904C101.24 217.196 99.0341 219.057 97.3319 221.34C95.6713 223.572 94.3362 226.029 93.3667 228.636C91.3706 233.776 90.6693 239.167 89.6443 244.307C88.6192 249.446 87.3964 254.523 84.699 258.8C83.3952 260.929 81.8038 262.87 80.4101 264.955C78.9287 266.981 77.9154 269.31 77.4429 271.775C76.7326 276.834 79.5199 281.281 78.9445 285.765C78.6688 287.967 77.9238 290.084 76.7596 291.974C75.6716 293.888 74.3948 295.658 73.163 297.446C71.9248 299.184 70.8474 301.03 69.9441 302.963C69.1011 304.86 68.6047 306.893 68.4785 308.965C68.1818 313 68.7572 316.828 68.4785 320.44C68.1479 323.88 67.146 327.223 65.5293 330.279C64.0727 333.217 62.4632 335.886 61.1145 338.464C60.4402 339.758 59.8108 341.016 59.3163 342.274C58.8375 343.499 58.485 344.77 58.2643 346.066C57.9111 348.327 57.8838 350.626 58.1833 352.895C58.5025 356.05 59.6915 359.055 61.6181 361.575C61.9096 361.951 62.2314 362.302 62.5801 362.626C62.821 362.874 63.0861 363.096 63.3714 363.291C63.812 363.623 64.0547 363.767 64.0547 363.767C63.1959 363.095 62.4175 362.326 61.7349 361.476C59.8865 358.942 58.7614 355.955 58.4801 352.832C58.2157 350.59 58.2671 348.321 58.6329 346.093C58.8635 344.83 59.2189 343.593 59.6939 342.4C60.2064 341.169 60.8358 339.911 61.4922 338.635C62.8589 336.083 64.4863 333.433 65.9879 330.467C67.6593 327.366 68.6984 323.963 69.045 320.458C69.3597 316.765 68.8112 312.928 69.1169 308.983C69.2454 306.981 69.7326 305.018 70.5555 303.188C71.4479 301.296 72.5135 299.492 73.7385 297.797C74.9433 295.999 76.2381 294.247 77.335 292.288C78.5524 290.323 79.3343 288.12 79.6278 285.828C80.2033 281.048 77.4339 276.573 78.1533 271.874C78.6122 269.513 79.5921 267.285 81.0215 265.35C82.3882 263.302 83.9887 261.361 85.3374 259.177C88.0348 254.775 89.3745 249.626 90.3726 244.459C91.3706 239.293 92.1079 233.955 94.077 228.915C95.0188 226.377 96.3177 223.987 97.9343 221.816C99.5627 219.625 101.677 217.841 104.111 216.605L103.554 216.299L103.608 216.784C103.914 219.579 104.408 222.328 104.732 225.051C105.069 227.756 105.175 230.486 105.047 233.21C104.998 234.548 104.875 235.883 104.678 237.208C104.336 238.486 103.888 239.733 103.338 240.937C102.231 243.374 101.267 245.873 100.452 248.422C99.7322 250.962 99.2802 253.57 99.1032 256.203C98.8155 258.785 98.5338 261.337 98.258 263.859C97.6826 268.882 97.3049 273.913 95.2639 278.235C94.2479 280.401 92.9082 282.405 91.9101 284.597C90.9351 286.766 90.3886 289.103 90.3006 291.48C90.0399 296.098 90.6423 300.618 89.4015 304.706C88.1607 308.795 85.5532 312.173 84.2314 316.037C82.9097 319.901 83.4042 323.98 83.9707 327.556C84.5372 331.132 85.1306 334.664 84.3573 337.853C83.5841 341.043 81.3902 343.388 79.9515 345.94C79.199 347.163 78.6949 348.521 78.468 349.939C78.3075 351.239 78.2234 352.547 78.2162 353.856C78.2147 355.034 78.0421 356.205 77.7037 357.334C77.3032 358.314 76.6633 359.179 75.8425 359.85C74.4349 360.981 72.8528 361.876 71.1579 362.5C69.9136 362.965 68.6281 363.311 67.3186 363.534C66.5142 363.68 65.6994 363.761 64.8819 363.776C64.3425 363.785 64.0188 363.794 64.0188 363.794Z" fill="#263238"/>
<path d="M101.891 222.813C101.838 222.932 101.799 223.055 101.774 223.182C101.702 223.469 101.621 223.82 101.513 224.26C101.279 225.204 100.991 226.623 100.542 228.402C100.092 230.181 98.9863 232.176 98.0602 234.647C96.9668 237.428 96.0155 240.262 95.21 243.138C94.3108 246.328 93.4836 249.877 92.6384 253.669C91.7932 257.461 90.8941 261.523 88.8081 265.35C87.828 267.291 86.7221 269.259 85.8409 271.415C84.9788 273.621 84.4017 275.928 84.1236 278.28C83.5192 283.148 82.6548 287.98 81.534 292.756C79.1333 302.568 76.8495 311.904 74.7635 320.413L69.0899 342.966C67.5164 349.346 66.2307 354.53 65.3315 358.178C64.9179 359.975 64.5852 361.323 64.3425 362.329C64.2526 362.77 64.1716 363.129 64.1087 363.417C64.0729 363.536 64.0547 363.66 64.0547 363.785C64.1118 363.673 64.157 363.556 64.1896 363.435L64.4953 362.365C64.7741 361.368 65.1427 359.993 65.6193 358.259C66.5813 354.611 67.948 349.453 69.6204 343.092L75.4558 320.583C77.5598 312.074 79.8616 302.738 82.2893 292.926C83.4065 288.129 84.2679 283.276 84.8698 278.388C85.1341 276.107 85.6807 273.867 86.4973 271.721C87.3425 269.627 88.4304 267.668 89.4105 265.701C91.5235 261.801 92.3956 257.614 93.2408 253.84C94.086 250.066 94.8323 246.499 95.7045 243.309C96.5767 240.119 97.5028 237.289 98.4019 234.836C99.3011 232.383 100.335 230.343 100.776 228.501C101.216 226.659 101.423 225.275 101.612 224.314C101.684 223.874 101.747 223.514 101.801 223.227C101.847 223.093 101.877 222.954 101.891 222.813Z" fill="#263238"/>
<path d="M66.1677 363.875C73.9902 359.23 76.2381 345.482 72.9742 336.991C69.7103 328.5 63.9828 320.745 63.0837 311.697C62.4003 304.742 64.6841 297.599 63.0837 290.797C60.9077 281.605 51.9433 274.516 52.0512 265.081C52.1052 259.789 55.1173 254.811 54.8835 249.518C54.5868 243.04 49.6056 237.891 46.5215 232.176C41.792 223.434 41.4863 213.092 39.8679 203.288C38.2494 193.485 34.473 182.982 25.8233 178.129C24.5375 186.45 22.3436 192.156 23.036 203.432C23.2787 207.485 27.9902 215.23 28.6286 224.099C29.0152 229.409 29.276 234.719 29.5997 240.03C29.9144 245.196 30.2471 250.453 32.1083 255.305C33.5289 259.016 35.8038 262.376 36.8647 266.204C38.8428 273.392 36.2353 281.192 37.8358 288.479C39.1935 294.652 43.4734 299.971 44.3456 306.234C45.5774 315.031 39.8499 324.205 42.7901 332.561C44.2377 336.73 47.6724 340.073 48.6435 344.368C49.3988 347.71 48.5715 351.242 49.2549 354.593C50.3608 359.985 60.665 364.19 66.1677 363.848" fill="#FF725E"/>
<path d="M27.9723 186.422C27.9582 186.581 27.9582 186.74 27.9723 186.899C27.9723 187.249 28.0802 187.698 28.1521 188.264C28.3319 189.468 28.5297 191.23 28.9344 193.512C29.339 195.794 30.5618 198.391 31.5059 201.509C32.45 204.627 33.493 208.203 34.3742 212.21C35.2553 216.218 36.0106 220.666 36.7928 225.437C37.5751 230.208 38.4383 235.42 40.803 240.398C41.9 242.895 43.1318 245.393 44.0579 248.062C44.9606 250.797 45.5135 253.635 45.7033 256.508C46.1427 262.613 46.9111 268.69 48.0051 274.713C50.3968 287.05 52.6806 298.794 54.7577 309.495C56.8347 320.197 58.9207 329.739 60.5751 337.817C62.2295 345.895 63.6142 352.346 64.5673 356.902C65.0438 359.112 65.4215 360.847 65.6912 362.087C65.8171 362.644 65.925 363.084 66.0059 363.425C66.0319 363.579 66.0741 363.73 66.1318 363.875C66.1376 363.717 66.1194 363.56 66.0778 363.407C66.0149 363.066 65.943 362.617 65.8441 362.051C65.6103 360.811 65.2776 359.067 64.864 356.839C63.9649 352.275 62.6881 345.751 61.1146 337.709C59.5411 329.667 57.581 320.017 55.45 309.351L48.7604 274.587C47.6821 268.584 46.9258 262.529 46.4946 256.445C46.2914 253.513 45.7174 250.617 44.7862 247.828C43.8331 245.133 42.5923 242.599 41.4864 240.119C39.1306 235.222 38.3034 230.1 37.4582 225.338C36.613 220.576 35.8667 216.119 34.9406 212.103C34.0145 208.086 32.9895 204.492 31.9465 201.383C30.9035 198.274 29.7346 195.695 29.2491 193.458C28.7635 191.221 28.5477 189.432 28.3499 188.246C28.242 187.689 28.1611 187.24 28.0982 186.89C28.0775 186.729 28.0351 186.572 27.9723 186.422Z" fill="#263238"/>
<path d="M368.827 310.358C370.043 310.937 371.128 311.755 372.02 312.763C372.911 313.771 373.59 314.949 374.015 316.225C374.848 318.789 375.084 321.509 374.708 324.178C374.123 329.344 371.183 334.547 368.027 338.671C363.675 334.879 362.632 328.266 362.381 324.878C361.913 319.487 364.314 309.558 368.827 310.358" fill="#FF725E"/>
<path d="M373.071 347.198C372.781 345.727 372.883 344.205 373.367 342.785C373.852 341.366 374.702 340.098 375.832 339.111C376.982 338.143 378.314 337.414 379.75 336.965C381.185 336.516 382.696 336.357 384.194 336.496C384.888 336.489 385.575 336.632 386.209 336.916C386.842 337.199 387.406 337.617 387.862 338.141C388.203 338.696 388.389 339.332 388.4 339.983C388.411 340.634 388.247 341.276 387.925 341.843C387.265 342.968 386.319 343.898 385.183 344.538C381.415 346.901 377.333 348.501 373.071 347.234" fill="#FF725E"/>
<path d="M367.497 362.994C367.517 362.637 367.568 362.283 367.649 361.934C367.784 361.188 367.964 360.227 368.18 359.068C368.661 355.87 369.66 352.771 371.138 349.894C372.668 347.023 374.937 344.613 377.711 342.912C378.558 342.407 379.464 342.009 380.408 341.726C380.662 341.645 380.92 341.579 381.181 341.528C381.361 341.528 381.46 341.474 381.46 341.528C379.309 342.222 377.318 343.339 375.604 344.813C373.89 346.286 372.488 348.087 371.48 350.109C370.033 352.938 369.014 355.967 368.459 359.095C368.189 360.299 367.973 361.269 367.811 361.934C367.744 362.298 367.638 362.653 367.497 362.994V362.994Z" fill="#263238"/>
<path d="M367.658 318.076C367.688 318.23 367.706 318.387 367.712 318.543C367.712 318.885 367.757 319.325 367.793 319.873C367.856 321.023 367.919 322.695 367.991 324.77C368.117 328.904 368.225 334.654 368.198 340.944C368.171 347.234 368.018 352.975 367.847 357.118C367.766 359.184 367.676 360.856 367.604 362.015C367.604 362.554 367.542 362.994 367.515 363.345C367.513 363.499 367.495 363.652 367.461 363.803C367.447 363.647 367.447 363.491 367.461 363.336C367.461 362.994 367.461 362.554 367.461 362.006C367.461 360.802 367.532 359.139 367.577 357.109C367.685 352.975 367.793 347.225 367.82 340.935C367.847 334.645 367.82 328.913 367.721 324.761C367.721 322.731 367.667 321.068 367.64 319.864V318.534C367.633 318.381 367.639 318.228 367.658 318.076V318.076Z" fill="#263238"/>
<path d="M365.545 350.307C365.021 347.18 363.758 344.222 361.862 341.679C359.965 339.137 357.489 337.083 354.639 335.688C353.191 334.987 351.285 334.538 350.098 335.616C348.911 336.695 349.199 338.644 349.747 340.109C351.028 343.224 353.202 345.891 355.995 347.774C358.788 349.658 362.077 350.673 365.446 350.694" fill="#FF725E"/>
<path d="M355.34 340.585C355.653 340.686 355.954 340.819 356.239 340.981C356.597 341.146 356.946 341.332 357.282 341.538C357.74 341.794 358.184 342.073 358.613 342.374C359.139 342.727 359.647 343.108 360.133 343.515C360.697 343.975 361.237 344.464 361.751 344.979C362.918 346.175 363.947 347.498 364.817 348.924C365.664 350.366 366.343 351.901 366.84 353.497C367.05 354.194 367.221 354.902 367.353 355.618C367.473 356.242 367.56 356.872 367.614 357.505C367.666 358.024 367.69 358.546 367.686 359.068C367.71 359.46 367.71 359.853 367.686 360.245C367.683 360.584 367.646 360.921 367.578 361.252C367.488 361.252 367.641 359.814 367.389 357.532C367.319 356.91 367.217 356.292 367.083 355.681C366.943 354.979 366.763 354.286 366.544 353.605C366.041 352.038 365.365 350.531 364.53 349.113C363.675 347.708 362.672 346.401 361.535 345.213C361.036 344.698 360.511 344.21 359.962 343.748C359.495 343.332 359.006 342.942 358.496 342.58C356.617 341.25 355.34 340.657 355.34 340.585Z" fill="#263238"/>
<path d="M305.132 166.78C305.132 166.78 263.151 137.048 257.837 134.128C252.775 131.342 236.708 129.32 235.269 128.97L206.497 122.68L162.547 123.992L149.959 131.567L118.057 146.285C109.362 150.287 102.509 157.435 98.8784 166.286L78.7377 215.445L128.757 230.217L130.312 282.072L118.525 363.767H264.797L257.433 207.197L272.664 210.548L305.132 166.78Z" fill="url(#paint0_linear)"/>
<path d="M129.656 209.336C129.656 209.336 129.126 209.722 128.11 210.315C126.678 211.184 125.089 211.764 123.434 212.022C120.955 212.196 118.468 211.834 116.142 210.962C113.273 210.008 110.493 208.805 107.834 207.368C104.984 205.885 102.313 204.385 99.8136 203.181C97.6091 202.081 95.3175 201.164 92.9621 200.44C91.3714 199.962 89.7401 199.631 88.0888 199.452C87.5043 199.389 87.0548 199.362 86.7401 199.353H86.2725C86.8727 199.331 87.4736 199.352 88.0708 199.416C89.7302 199.551 91.3718 199.852 92.9711 200.314C95.3396 201.015 97.6438 201.917 99.8585 203.01C102.376 204.214 105.047 205.706 107.897 207.197C110.549 208.625 113.316 209.827 116.169 210.791C118.463 211.657 120.914 212.027 123.362 211.879C125.003 211.638 126.581 211.083 128.011 210.243C128.523 209.956 128.91 209.722 129.179 209.56C129.449 209.399 129.656 209.336 129.656 209.336Z" fill="white"/>
<path d="M127.516 185.111H127.183L126.23 185.066C125.403 185.021 124.207 184.931 122.733 184.787C115.052 184.014 107.499 182.275 100.254 179.612C98.8605 179.099 97.7455 178.659 96.9813 178.336L96.0821 177.958L95.7764 177.814L96.1001 177.922L96.9992 178.264C97.7725 178.569 98.8964 178.992 100.29 179.486C107.554 182.083 115.099 183.817 122.769 184.652C124.234 184.814 125.466 184.931 126.248 184.994L127.201 185.075L127.516 185.111Z" fill="white"/>
<path d="M158.959 134.127C158.959 134.127 158.581 134.738 157.79 135.762C156.662 137.201 155.367 138.501 153.933 139.635C151.785 141.298 149.446 142.697 146.965 143.804C143.929 145.161 140.801 146.302 137.604 147.219C134.215 148.225 130.978 149.115 128.074 150.067C125.491 150.884 122.973 151.89 120.539 153.077C118.899 153.875 117.329 154.81 115.845 155.872C115.306 156.231 114.946 156.563 114.658 156.77C114.371 156.977 114.236 157.076 114.236 157.076C114.236 157.076 114.766 156.59 115.8 155.809C117.275 154.726 118.839 153.77 120.476 152.951C122.912 151.751 125.433 150.733 128.02 149.905C130.924 148.935 134.17 148.045 137.551 147.039C140.739 146.127 143.861 144.995 146.893 143.651C149.363 142.552 151.699 141.172 153.852 139.536C155.302 138.426 156.62 137.154 157.781 135.744C158.204 135.259 158.465 134.846 158.68 134.567C158.896 134.289 158.959 134.127 158.959 134.127Z" fill="white"/>
<path d="M248.918 140.822C248.918 140.822 248.783 140.759 248.531 140.615C248.28 140.472 247.938 140.256 247.452 140.013C246.114 139.3 244.719 138.698 243.28 138.216C241.142 137.499 238.954 136.938 236.735 136.536C234.235 136.06 231.457 135.691 228.544 135.278L213.636 133.166L209.14 132.501L207.908 132.313L207.486 132.232L207.917 132.277L209.149 132.43L213.645 133.032L228.562 135.089C231.475 135.494 234.253 135.871 236.762 136.356C238.984 136.765 241.172 137.341 243.307 138.081C244.751 138.58 246.147 139.205 247.479 139.95C248.433 140.481 248.918 140.822 248.918 140.822Z" fill="white"/>
<path d="M228.561 150.742C228.561 150.742 228.229 150.904 227.59 151.182C226.952 151.461 225.999 151.865 224.767 152.36C222.294 153.339 218.689 154.696 214.121 156.026C208.777 157.609 203.326 158.81 197.811 159.62C191.58 160.572 184.629 160.572 177.391 160.33C170.153 160.087 163.221 159.781 156.945 160.177C151.385 160.446 145.886 161.449 140.59 163.16C137.022 164.333 133.633 165.993 130.519 168.093C129.449 168.866 128.613 169.477 128.092 169.944C127.57 170.411 127.264 170.618 127.264 170.618C127.264 170.618 127.534 170.366 128.065 169.917C128.595 169.468 129.404 168.821 130.483 168.03C133.585 165.9 136.972 164.218 140.545 163.034C145.85 161.303 151.362 160.285 156.936 160.006C163.23 159.602 170.144 159.907 177.391 160.141C184.638 160.375 191.571 160.392 197.793 159.449C203.302 158.637 208.746 157.436 214.085 155.855C218.644 154.543 222.259 153.204 224.74 152.261C225.981 151.776 226.934 151.362 227.572 151.111L228.561 150.742Z" fill="white"/>
<path d="M242.336 159.529C242.287 159.565 242.233 159.593 242.175 159.61L241.698 159.781C241.284 159.934 240.682 160.131 239.9 160.347C237.93 160.909 235.896 161.211 233.848 161.246C231.798 161.247 229.759 160.945 227.797 160.347C227.042 160.122 226.44 159.916 225.999 159.754L225.531 159.565L225.37 159.484H225.549L226.026 159.637C226.44 159.781 227.042 159.97 227.824 160.176C229.782 160.722 231.807 160.994 233.839 160.985C235.876 160.926 237.899 160.625 239.864 160.086C240.61 159.88 241.221 159.709 241.662 159.574L242.139 159.439L242.336 159.529Z" fill="white"/>
<path d="M213.968 184.958C213.968 184.958 209.653 185.857 202.612 186.917C199.088 187.447 194.88 187.968 190.195 188.435C185.511 188.903 180.305 189.253 174.91 189.46C169.515 189.666 164.3 189.648 159.624 189.55C154.949 189.451 150.633 189.199 147.126 188.93C140.023 188.39 135.662 187.797 135.662 187.797L136.454 187.86L138.737 188.085C140.715 188.292 143.584 188.543 147.135 188.795C150.687 189.046 154.922 189.253 159.624 189.37C164.327 189.487 169.515 189.46 174.91 189.271C180.305 189.082 185.493 188.696 190.195 188.265C194.898 187.833 199.088 187.294 202.612 186.782C206.137 186.27 208.978 185.821 210.938 185.47L213.195 185.075L213.968 184.958Z" fill="white"/>
<path d="M249.179 182.406H248.855H247.956C247.138 182.406 245.96 182.406 244.503 182.406C241.59 182.406 237.562 182.289 233.138 181.912C228.714 181.535 224.713 180.933 221.854 180.412C220.415 180.16 219.264 179.926 218.464 179.756L217.565 179.558L217.25 179.477H217.574L218.473 179.639L221.863 180.241C224.731 180.726 228.714 181.301 233.138 181.678C237.562 182.056 241.59 182.182 244.494 182.227H247.947H248.846L249.179 182.406Z" fill="white"/>
<path d="M204.285 219.443C204.285 219.443 204.024 219.497 203.547 219.56L201.425 219.857C200.526 219.991 199.375 220.144 198.054 220.234C196.732 220.324 195.239 220.504 193.558 220.531C191.877 220.558 190.078 220.683 188.163 220.647C187.183 220.647 186.176 220.647 185.133 220.647L181.923 220.54C177.526 220.369 172.707 220.036 167.654 219.641C162.601 219.246 157.763 218.743 153.402 218.482C149.041 218.221 145.067 218.024 141.714 218.078H139.349L137.236 218.185C135.923 218.239 134.781 218.302 133.864 218.419L131.733 218.626L130.987 218.689C130.987 218.689 131.248 218.644 131.733 218.59L133.855 218.338C134.754 218.212 135.914 218.149 137.236 218.078L139.349 217.961H141.714C145.04 217.898 149.006 218.06 153.402 218.329C157.799 218.599 162.601 219.048 167.654 219.47C172.707 219.893 177.544 220.243 181.914 220.432L185.115 220.549C186.158 220.549 187.165 220.549 188.145 220.549C190.096 220.549 191.913 220.504 193.54 220.459C195.167 220.414 196.696 220.261 198.036 220.18C199.375 220.099 200.481 219.965 201.407 219.839L203.529 219.578L204.285 219.443Z" fill="white"/>
<path d="M257.199 208.895L256.803 208.958L255.653 209.075C254.663 209.183 253.216 209.299 251.436 209.425C247.839 209.668 242.921 209.839 237.463 209.704C232.005 209.569 227.069 209.12 223.517 208.688C221.719 208.473 220.307 208.275 219.318 208.122L218.185 207.943L217.79 207.862L218.185 207.907L219.327 208.051C220.316 208.185 221.755 208.365 223.535 208.563C227.087 208.958 232.005 209.371 237.463 209.515C242.921 209.659 247.857 209.515 251.427 209.29C253.225 209.192 254.654 209.084 255.653 209.003L256.794 208.913L257.199 208.895Z" fill="white"/>
<path d="M257.837 241.548L256.525 241.476C255.626 241.476 254.394 241.296 252.757 241.251C249.484 241.081 244.746 241.045 238.893 241.332C233.039 241.62 226.107 242.312 218.428 243.327C210.749 244.342 202.334 245.663 193.495 246.777C185.147 247.902 176.741 248.541 168.319 248.691C161.452 248.808 154.588 248.312 147.81 247.209C143.241 246.456 138.745 245.32 134.368 243.812C133.585 243.57 132.911 243.309 132.326 243.075L130.834 242.482C130.034 242.168 129.62 241.988 129.62 241.988L130.852 242.446L132.344 243.021C132.929 243.255 133.612 243.507 134.394 243.749C138.776 245.227 143.272 246.339 147.837 247.074C154.608 248.155 161.462 248.639 168.319 248.52C176.742 248.351 185.148 247.697 193.495 246.562C202.352 245.421 210.767 244.109 218.455 243.12C226.143 242.132 233.057 241.467 238.893 241.17C243.511 240.935 248.139 240.935 252.757 241.17C256.03 241.359 257.837 241.548 257.837 241.548Z" fill="white"/>
<path d="M208.394 275.099C208.394 275.099 204.069 275.836 197.02 276.591C193.504 276.968 189.296 277.309 184.621 277.579C179.945 277.849 174.784 277.974 169.38 277.947C163.976 277.92 158.824 277.669 154.149 277.363C149.473 277.058 145.274 276.627 141.759 276.195C134.718 275.297 130.411 274.542 130.411 274.542L131.203 274.641L133.459 274.973C134.431 275.126 135.635 275.297 137.056 275.467C138.477 275.638 140.041 275.881 141.794 276.06C145.319 276.474 149.518 276.869 154.185 277.193C158.851 277.516 164.003 277.705 169.407 277.759C174.811 277.813 179.963 277.642 184.639 277.408C189.314 277.175 193.513 276.824 197.038 276.456C198.836 276.294 200.391 276.087 201.785 275.935C203.179 275.782 204.384 275.62 205.382 275.485L207.639 275.189L208.394 275.099Z" fill="white"/>
<path d="M257.334 268.666C257.334 268.666 257.163 268.728 256.848 268.818L255.473 269.241C254.268 269.6 252.524 270.094 250.357 270.678C246.032 271.837 239.999 273.275 233.273 274.506C226.547 275.737 220.388 276.537 215.929 276.986C213.699 277.211 211.891 277.363 210.642 277.453L209.203 277.552H208.699L209.194 277.489L210.633 277.354C211.882 277.247 213.69 277.067 215.911 276.824C220.406 276.339 226.511 275.53 233.237 274.299C239.963 273.068 245.987 271.649 250.321 270.517C252.488 269.959 254.232 269.483 255.437 269.142L256.83 268.755L257.334 268.666Z" fill="white"/>
<path d="M174.091 312.559C171.774 312.919 169.439 313.15 167.096 313.251C164.929 313.368 162.34 313.377 159.462 313.251C153.227 312.953 147.049 311.918 141.057 310.169C138.297 309.351 135.851 308.498 133.864 307.68C131.684 306.815 129.55 305.837 127.471 304.751L127.921 304.949L129.188 305.533C129.737 305.793 130.411 306.108 131.211 306.431C132.012 306.755 132.893 307.168 133.909 307.545C135.923 308.354 138.405 309.19 141.102 309.998C144.097 310.844 147.135 311.534 150.201 312.065C153.273 312.55 156.367 312.88 159.471 313.053C162.34 313.179 164.92 313.188 167.087 313.053C168.175 313.053 169.155 312.937 170.018 312.883C170.882 312.829 171.61 312.748 172.221 312.685L173.606 312.541L174.091 312.559Z" fill="white"/>
<path d="M260.589 310.268L259.69 310.429L257.118 310.843C254.888 311.193 251.651 311.687 247.65 312.253C239.648 313.394 228.561 314.814 216.288 316.036C204.015 317.258 192.857 318.031 184.818 318.48C180.781 318.705 177.508 318.867 175.251 318.956L172.653 319.055H171.754L172.653 319.001L175.251 318.867L184.809 318.336C192.902 317.851 204.015 317.043 216.279 315.83C228.543 314.617 239.657 313.215 247.641 312.11L257.118 310.753L259.69 310.375L260.589 310.268Z" fill="white"/>
<path d="M265.3 343.361C265.3 343.361 263.34 343.774 259.753 344.358C256.165 344.942 250.968 345.67 244.467 346.209C236.886 346.827 229.276 347.013 221.674 346.766C213.087 346.488 203.691 345.526 193.864 344.322C184.036 343.118 174.667 341.905 166.116 341.24C158.543 340.588 150.936 340.417 143.341 340.728C138.213 340.967 133.106 341.549 128.056 342.471C126.257 342.813 124.891 343.1 123.964 343.325L122.544 343.648C122.544 343.648 123.029 343.514 123.955 343.289C124.882 343.064 126.257 342.759 128.038 342.391C133.085 341.437 138.192 340.837 143.323 340.593C150.92 340.253 158.53 340.406 166.107 341.052C174.676 341.717 184.036 342.93 193.864 344.134C203.691 345.338 213.087 346.299 221.665 346.578C229.26 346.837 236.864 346.666 244.44 346.066C250.905 345.544 256.129 344.835 259.726 344.268C261.524 343.981 262.909 343.756 263.853 343.586L265.3 343.361Z" fill="white"/>
<path d="M291.681 158.739C291.681 158.739 291.42 159.449 290.836 160.689C289.993 162.432 289.013 164.105 287.905 165.693C286.256 168.041 284.454 170.277 282.51 172.388C280.334 174.796 277.834 177.33 275.317 180.079C272.913 182.637 270.718 185.383 268.753 188.292C267.152 190.669 265.856 193.238 264.896 195.938C264.241 197.778 263.815 199.691 263.628 201.635C263.538 202.309 263.565 202.848 263.538 203.207C263.511 203.567 263.538 203.756 263.538 203.756C263.514 203.045 263.532 202.334 263.592 201.626C263.746 199.69 264.148 197.781 264.788 195.947C265.737 193.231 267.027 190.647 268.627 188.256C270.592 185.331 272.79 182.569 275.2 179.998C277.735 177.258 280.244 174.724 282.393 172.325C284.332 170.223 286.134 167.999 287.788 165.667C288.908 164.093 289.903 162.435 290.764 160.707C291.088 160.096 291.277 159.601 291.438 159.278C291.6 158.954 291.681 158.739 291.681 158.739Z" fill="white"/>
<path d="M250.267 174.221L250.572 173.996L251.472 173.385C252.263 172.873 253.369 172.082 254.699 171.058C256.03 170.033 257.568 168.757 259.195 167.248C260.949 165.603 262.615 163.866 264.185 162.045C265.736 160.204 267.192 158.285 268.546 156.295C269.769 154.444 270.803 152.701 271.594 151.254C272.386 149.807 272.997 148.558 273.393 147.66L273.851 146.68L274.022 146.339C273.347 148.039 272.579 149.701 271.72 151.317C270.938 152.808 269.922 154.534 268.69 156.385C267.35 158.391 265.897 160.32 264.338 162.162C262.763 163.991 261.088 165.73 259.321 167.374C257.676 168.874 256.138 170.159 254.825 171.165C253.364 172.269 251.843 173.289 250.267 174.221V174.221Z" fill="white"/>
<path d="M186.005 216.237C186.072 216.193 186.144 216.159 186.221 216.138L186.868 215.886C187.453 215.689 188.271 215.329 189.323 214.844C192.247 213.371 194.931 211.463 197.28 209.183C200.744 205.784 203.801 201.994 206.389 197.888C209.636 192.907 212.602 187.747 215.272 182.434C220.062 172.744 224.265 162.777 227.86 152.584C229.272 148.685 230.369 145.504 231.142 143.32L232.041 140.795C232.14 140.526 232.221 140.319 232.284 140.139C232.347 139.96 232.374 139.924 232.374 139.924C232.369 140.003 232.354 140.082 232.329 140.157C232.275 140.337 232.203 140.553 232.122 140.822C231.933 141.442 231.663 142.296 231.313 143.374C230.602 145.585 229.515 148.765 228.166 152.692C224.652 162.936 220.474 172.94 215.659 182.64C212.984 187.969 210.003 193.138 206.73 198.122C204.105 202.237 201.002 206.029 197.487 209.417C195.105 211.696 192.373 213.58 189.395 214.997C188.584 215.371 187.753 215.698 186.904 215.976L186.239 216.183C186.164 216.212 186.085 216.231 186.005 216.237Z" fill="#455A64"/>
<path d="M184.504 235.249C184.652 235.107 184.815 234.98 184.989 234.872L186.446 233.875C187.696 232.976 189.503 231.709 191.679 230.047C196.04 226.731 201.767 221.78 207.917 216.128C211.01 213.307 213.968 210.638 216.522 208.086C218.805 205.843 220.926 203.441 222.87 200.898C224.173 199.178 225.334 197.353 226.341 195.444C226.718 194.779 226.952 194.231 227.132 193.872C227.217 193.685 227.316 193.505 227.429 193.333C227.383 193.535 227.314 193.731 227.222 193.917C227.06 194.285 226.853 194.815 226.494 195.525C225.545 197.48 224.417 199.342 223.122 201.087C221.214 203.677 219.11 206.116 216.828 208.383C214.274 210.971 211.325 213.648 208.232 216.47C203.018 221.356 197.559 225.974 191.877 230.307C189.674 231.952 187.839 233.192 186.545 234.027C185.906 234.45 185.394 234.746 185.052 234.926C184.877 235.046 184.694 235.154 184.504 235.249Z" fill="#455A64"/>
<path d="M160.227 331.312L160.335 331.105C160.434 330.961 160.551 330.773 160.694 330.539C161.009 330.036 161.495 329.317 162.142 328.4C163.446 326.603 165.451 324.025 168.094 321.023C173.426 315.039 180.889 306.889 189.116 297.859L210.255 274.812L216.702 267.857L218.5 265.979L218.968 265.503C219.076 265.395 219.129 265.341 219.138 265.35C219.147 265.359 219.094 265.413 219.004 265.53L218.563 266.042L216.873 267.974C215.344 269.663 213.186 272.071 210.534 275.018L189.485 298.165L168.319 321.23C165.622 324.204 163.608 326.72 162.268 328.508C161.594 329.407 161.09 330.108 160.748 330.584L160.362 331.132C160.326 331.199 160.281 331.259 160.227 331.312V331.312Z" fill="#455A64"/>
<path d="M244.171 169.817C244.025 169.371 243.913 168.915 243.838 168.452C243.739 168.011 243.631 167.463 243.55 166.825C243.469 166.187 243.334 165.46 243.298 164.651C243.262 163.842 243.164 162.953 243.173 161.955C243.182 160.958 243.173 159.978 243.244 158.9C243.557 154.244 244.696 149.68 246.607 145.422C247.066 144.452 247.506 143.526 247.974 142.727C248.442 141.927 248.873 141.127 249.332 140.444C249.79 139.761 250.231 139.159 250.573 138.647C250.887 138.195 251.227 137.76 251.589 137.344C251.862 136.972 252.162 136.62 252.488 136.293C252.255 136.702 251.987 137.09 251.687 137.452C251.418 137.812 251.085 138.252 250.743 138.791C250.402 139.33 249.961 139.914 249.565 140.588C249.17 141.262 248.666 142.035 248.262 142.879C247.857 143.724 247.363 144.676 246.949 145.575C245.092 149.812 243.967 154.332 243.622 158.945C243.568 160.005 243.487 161.012 243.505 161.955C243.523 162.899 243.505 163.752 243.577 164.588C243.649 165.424 243.703 166.115 243.766 166.753C243.829 167.391 243.901 167.939 243.973 168.389C244.085 168.857 244.151 169.336 244.171 169.817V169.817Z" fill="#455A64"/>
<path d="M257.253 202.057C257.145 202.057 255.527 198.534 253.656 194.078C251.786 189.621 250.348 185.991 250.456 185.919C251.788 188.517 252.988 191.18 254.052 193.898C255.261 196.56 256.33 199.283 257.253 202.057V202.057Z" fill="#455A64"/>
<path d="M128.757 173.564C128.685 173.609 127.984 172.324 126.662 170.374C123.209 165.284 118.747 160.957 113.552 157.66C111.565 156.402 110.262 155.737 110.298 155.665C110.629 155.762 110.948 155.894 111.251 156.06C111.853 156.339 112.698 156.788 113.723 157.39C116.385 158.977 118.853 160.868 121.078 163.024C123.299 165.188 125.263 167.6 126.932 170.212C127.561 171.219 128.038 172.054 128.334 172.647C128.506 172.938 128.648 173.245 128.757 173.564V173.564Z" fill="#455A64"/>
<path d="M164.048 152.323C163.996 152.025 163.996 151.721 164.048 151.424C164.201 149.735 164.927 148.15 166.107 146.931L166.161 146.877V146.94C166.225 147.066 166.274 147.198 166.305 147.336C166.305 147.336 166.206 147.219 166.08 146.985H166.161C165.578 147.674 165.102 148.446 164.749 149.277C164.375 150.254 164.139 151.28 164.048 152.323V152.323Z" fill="#455A64"/>
<path d="M175.953 158.506C175.839 158.219 175.775 157.915 175.764 157.607C175.686 156.871 175.704 156.128 175.818 155.397C175.933 154.666 176.141 153.953 176.438 153.276C176.546 152.991 176.698 152.724 176.888 152.485C176.482 153.432 176.181 154.421 175.989 155.433C175.867 156.453 175.855 157.483 175.953 158.506V158.506Z" fill="#455A64"/>
<path d="M188.927 157.463C188.885 156.625 188.771 155.792 188.586 154.974C188.335 154.168 188.006 153.389 187.606 152.646C187.786 152.823 187.937 153.026 188.055 153.249C188.366 153.771 188.605 154.333 188.765 154.92C188.921 155.506 189.002 156.11 189.008 156.717C189.025 156.968 188.997 157.221 188.927 157.463Z" fill="#455A64"/>
<path d="M200.274 152.493C199.892 151.694 199.441 150.931 198.926 150.211C198.35 149.538 197.719 148.916 197.038 148.351C197.282 148.45 197.509 148.586 197.712 148.755C198.22 149.142 198.676 149.592 199.07 150.094C199.461 150.599 199.788 151.151 200.041 151.738C200.159 151.976 200.238 152.23 200.274 152.493Z" fill="#455A64"/>
<path d="M208.088 144.793C207.799 143.848 207.262 142.998 206.532 142.331C205.775 141.7 204.856 141.293 203.88 141.154C203.88 141.154 203.97 141.154 204.123 141.154C204.338 141.161 204.551 141.188 204.761 141.235C205.462 141.402 206.113 141.734 206.658 142.205C207.205 142.673 207.628 143.269 207.89 143.939C207.975 144.138 208.035 144.346 208.07 144.559C208.086 144.636 208.092 144.715 208.088 144.793Z" fill="#455A64"/>
<path d="M212.269 130.571C211.577 130.018 210.769 129.63 209.904 129.438C209.027 129.303 208.131 129.377 207.288 129.653C208.1 129.229 209.031 129.087 209.932 129.25C210.834 129.413 211.656 129.871 212.269 130.553V130.571Z" fill="#455A64"/>
<path d="M156.244 142.736C156.261 142.469 156.325 142.208 156.432 141.963C156.911 140.759 157.817 139.774 158.977 139.195C159.212 139.068 159.468 138.983 159.732 138.944C158.917 139.296 158.186 139.816 157.585 140.469C156.984 141.123 156.527 141.895 156.244 142.736V142.736Z" fill="#455A64"/>
<path d="M153.402 133.265C153.511 133.001 153.663 132.758 153.852 132.546C154.273 131.998 154.78 131.521 155.353 131.135C155.927 130.741 156.558 130.438 157.224 130.237C157.492 130.143 157.775 130.094 158.06 130.093C156.191 130.573 154.545 131.684 153.402 133.238V133.265Z" fill="#455A64"/>
<path d="M131.05 188.489C131.05 188.489 131.05 188.435 130.996 188.489C130.958 188.582 130.931 188.678 130.915 188.777C130.87 189.055 130.825 189.46 130.771 189.99C130.663 191.041 130.546 192.569 130.42 194.483C130.16 198.265 129.863 203.468 129.584 209.282C129.305 215.095 129.09 220.298 128.964 224.089C128.901 225.887 128.856 227.45 128.82 228.582C128.82 229.067 128.82 229.481 128.766 229.804C128.779 229.945 128.779 230.086 128.766 230.226C128.726 230.09 128.711 229.947 128.721 229.804C128.721 229.472 128.721 229.067 128.721 228.582C128.721 227.522 128.721 225.985 128.721 224.089C128.721 220.298 128.919 215.05 129.206 209.264C129.494 203.477 129.836 198.248 130.178 194.465C130.348 192.569 130.519 191.041 130.681 189.972C130.762 189.451 130.843 189.073 130.915 188.768C130.94 188.66 130.982 188.557 131.041 188.462C131.041 188.382 131.068 188.507 131.05 188.489Z" fill="#263238"/>
<path d="M230.117 6.99339C222.618 4.70212 214.832 11.4142 207.099 9.90465C202.424 9.00611 198.899 5.25921 194.736 2.94098C188.523 -0.527376 179.729 -1.09345 173.381 2.1323C167.033 5.35805 162.924 8.79046 162.07 15.862C156.289 12.5464 146.65 19.8155 143.368 26.8331C140.086 33.8507 140.904 41.0929 142.766 48.6137C145.999 61.585 151.748 73.7962 159.687 84.5552C160.389 85.5076 161.486 86.5589 162.574 86.0557C162.909 85.8211 163.185 85.511 163.378 85.1505C163.572 84.79 163.678 84.3891 163.689 83.9801C164.794 77.1063 163.922 70.0887 163.32 63.152C162.717 56.2153 162.421 49.0629 164.624 42.4856C166.827 35.9083 171.997 29.8522 178.83 28.5044C183.883 27.507 189.125 29.1423 193.612 31.6672C198.099 34.1921 202.046 37.5527 206.317 40.419C210.588 43.2853 215.389 45.7024 220.532 45.9181C225.675 46.1337 231.196 43.7256 233.381 39.0712C235.566 34.4168 233.12 27.8035 228.085 26.7343C230.43 26.529 232.63 25.5137 234.307 23.8629C235.983 22.2122 237.032 20.0291 237.273 17.6892C237.513 15.3494 236.93 12.9988 235.624 11.0419C234.319 9.08492 232.371 7.64383 230.117 6.96643V6.99339Z" fill="#263238"/>
<path d="M206.982 127.532L206.254 112.679C206.254 112.679 225.873 108.923 225.432 89.2C225.217 79.6845 223.167 60.1053 221.117 42.4131C220.06 33.2314 215.579 24.7848 208.569 18.7565C201.559 12.7283 192.533 9.56107 183.29 9.88602L181.384 9.94892C160.91 11.8718 151.092 30.3278 153.582 50.7336L158.303 130.164C158.683 136.588 161.592 142.6 166.393 146.888C171.194 151.176 177.498 153.391 183.928 153.05V153.05C190.366 152.706 196.406 149.828 200.726 145.046C205.046 140.264 207.296 133.967 206.982 127.532V127.532Z" fill="#FFBE9D"/>
<path d="M206.281 112.68C206.281 112.68 193.846 114.126 180.305 106.273C180.305 106.273 186.886 120.254 206.506 117.783L206.281 112.68Z" fill="#EB996E"/>
<path d="M214.472 55.757C214.502 56.4892 214.246 57.2044 213.757 57.7511C213.269 58.2978 212.587 58.6332 211.855 58.6862C211.498 58.7272 211.136 58.6964 210.791 58.5955C210.446 58.4947 210.124 58.3259 209.845 58.099C209.566 57.8721 209.335 57.5917 209.166 57.2744C208.997 56.9571 208.894 56.6092 208.861 56.2512C208.827 55.5183 209.08 54.8009 209.567 54.252C210.054 53.703 210.737 53.3661 211.469 53.313C211.828 53.2707 212.191 53.3009 212.538 53.4017C212.885 53.5025 213.208 53.6719 213.488 53.8999C213.768 54.1278 213.999 54.4096 214.169 54.7287C214.338 55.0477 214.441 55.3974 214.472 55.757Z" fill="#263238"/>
<path d="M217.214 52.1717C216.873 52.5491 214.688 51.0485 211.658 51.1653C208.627 51.2821 206.461 52.8725 206.119 52.5131C205.948 52.3514 206.281 51.6775 207.225 50.9407C208.503 49.9856 210.045 49.4489 211.64 49.4042C213.218 49.342 214.774 49.786 216.081 50.6711C217.043 51.345 217.376 52.0009 217.214 52.1717Z" fill="#263238"/>
<path d="M184.692 57.8686C184.725 58.6024 184.47 59.3198 183.981 59.8685C183.492 60.4171 182.809 60.7538 182.076 60.8069C181.719 60.8479 181.357 60.817 181.011 60.7162C180.666 60.6153 180.345 60.4465 180.066 60.2196C179.787 59.9927 179.556 59.7124 179.387 59.395C179.218 59.0777 179.114 58.7298 179.082 58.3718C179.049 57.6381 179.305 56.9207 179.793 56.372C180.282 55.8233 180.965 55.4867 181.698 55.4336C182.056 55.3926 182.418 55.4234 182.763 55.5243C183.108 55.6251 183.43 55.794 183.709 56.0209C183.988 56.2478 184.218 56.5281 184.387 56.8454C184.556 57.1628 184.66 57.5107 184.692 57.8686V57.8686Z" fill="#263238"/>
<path d="M187.435 53.7804C187.102 54.1578 184.908 52.6573 181.878 52.7741C178.848 52.8909 176.681 54.4813 176.339 54.1219C176.169 53.9601 176.501 53.2862 177.445 52.5494C178.726 51.5942 180.271 51.0576 181.869 51.0129C183.444 50.9515 184.998 51.3955 186.302 52.2799C187.264 52.9628 187.606 53.6097 187.435 53.7804Z" fill="#263238"/>
<path d="M199.223 75.8397C199.223 75.66 201.075 75.2736 204.114 74.7794C204.887 74.6716 205.615 74.4919 205.732 73.9528C205.765 73.1517 205.555 72.3595 205.13 71.6795C204.339 69.8375 203.511 67.8966 202.639 65.8749C199.16 57.5994 196.615 50.7795 196.957 50.5998C197.298 50.42 200.373 57.0602 203.844 65.3358C204.689 67.3725 205.49 69.3223 206.245 71.1853C206.764 72.1006 206.946 73.1691 206.757 74.2043C206.655 74.4809 206.49 74.7305 206.277 74.9344C206.063 75.1383 205.807 75.2911 205.526 75.3814C205.1 75.5128 204.658 75.5883 204.213 75.6061C201.147 75.9565 199.241 76.0374 199.223 75.8397Z" fill="#263238"/>
<path d="M190.375 78.2746C190.869 78.2207 190.995 81.5093 193.891 83.7467C196.786 85.984 200.274 85.4988 200.319 85.9571C200.373 86.1637 199.564 86.622 198.081 86.7119C196.143 86.8198 194.23 86.2336 192.686 85.0585C191.225 83.9311 190.259 82.2823 189.988 80.458C189.817 79.0833 190.15 78.2566 190.375 78.2746Z" fill="#263238"/>
<path d="M187.201 38.2539C186.931 39.0805 183.892 38.802 180.35 39.3501C176.807 39.8982 173.966 40.9765 173.471 40.2486C173.246 39.8982 173.714 39.1075 174.847 38.2719C176.359 37.2366 178.089 36.5608 179.903 36.296C181.717 36.0313 183.567 36.1846 185.313 36.7443C186.626 37.2026 187.309 37.8585 187.201 38.2539Z" fill="#263238"/>
<path d="M215.794 43.4914C215.281 44.1922 213.168 43.5543 210.66 43.6082C208.151 43.6621 206.038 44.2372 205.517 43.5273C205.292 43.1859 205.606 42.485 206.515 41.8021C207.723 40.9567 209.167 40.5133 210.642 40.5352C212.11 40.4833 213.558 40.8883 214.787 41.6943C215.695 42.4042 216.018 43.096 215.794 43.4914Z" fill="#263238"/>
<path d="M155.731 65.2724C155.389 65.1376 142.037 61.7411 142.936 75.1563C143.836 88.5715 157.179 84.9324 157.179 84.546C157.179 84.1596 155.731 65.2724 155.731 65.2724Z" fill="#FFBE9D"/>
<path d="M152.692 79.7665C152.629 79.7665 152.467 79.9462 152.081 80.1528C151.546 80.4404 150.919 80.505 150.336 80.3325C148.871 79.9012 147.522 77.7268 147.297 75.3007C147.185 74.1506 147.333 72.99 147.729 71.9043C147.825 71.4737 148.025 71.0732 148.312 70.7379C148.599 70.4027 148.963 70.1429 149.374 69.9814C149.639 69.8912 149.927 69.8966 150.188 69.9968C150.449 70.0969 150.667 70.2854 150.804 70.5295C151.011 70.8979 150.939 71.1674 151.011 71.1854C151.083 71.2034 151.289 70.9428 151.136 70.3947C151.038 70.0671 150.832 69.7821 150.552 69.586C150.161 69.3344 149.687 69.2442 149.23 69.3344C148.685 69.4793 148.185 69.7621 147.781 70.1555C147.376 70.5489 147.079 71.0397 146.919 71.5808C146.426 72.7865 146.235 74.0942 146.362 75.3906C146.632 78.0862 148.16 80.5392 150.174 80.9705C150.543 81.0522 150.924 81.0502 151.292 80.9647C151.659 80.8791 152.002 80.7122 152.296 80.4763C152.692 80.0989 152.737 79.7934 152.692 79.7665Z" fill="#EB996E"/>
<path d="M225.145 38.1009C220.816 39.3742 216.246 39.6023 211.811 38.7666C207.377 37.9309 203.204 36.0552 199.636 33.2937C194.691 29.3941 190.789 23.6794 184.71 22.035C182.64 21.5622 180.495 21.5054 178.402 21.8679C176.309 22.2304 174.309 23.005 172.518 24.1466C168.944 26.4475 165.883 29.4605 163.527 32.9972C167.69 42.8811 165.523 54.1578 163.293 64.6437C163.17 65.8342 162.655 66.9501 161.827 67.8155C160.281 69.0915 157.853 68.2199 156.432 66.8182C154.122 64.5628 153.142 61.3011 152.467 58.1563C150.797 50.9881 150.574 43.5591 151.811 36.3038C153.077 29.0238 156.453 22.2753 161.522 16.8954C168.121 10.3542 177.008 6.63549 186.302 6.52627C195.548 6.48731 204.571 9.36093 212.089 14.7389C215.578 17.1829 218.815 20.1301 220.703 23.9849" fill="#263238"/>
<path d="M235.943 11.5495C236 11.9431 235.972 12.3443 235.862 12.7265C235.578 13.8388 234.948 14.8326 234.064 15.5659C232.646 16.699 230.905 17.3534 229.092 17.4349C227.977 17.5335 226.855 17.5034 225.747 17.345C224.475 17.1738 223.272 16.6615 222.267 15.8624C221.702 15.4156 221.247 14.8459 220.935 14.1967C220.623 13.5474 220.464 12.8356 220.469 12.1155C220.54 11.3318 220.831 10.5839 221.308 9.95772C221.785 9.33155 222.429 8.85243 223.167 8.5753C223.931 8.25794 224.759 8.1226 225.585 8.17995C226.445 8.26517 227.26 8.59933 227.932 9.14138C228.607 9.71204 229.151 10.4217 229.527 11.222C229.903 12.0222 230.101 12.894 230.108 13.7778C230.14 15.6428 229.44 17.4461 228.157 18.8007C226.847 20.1861 225.194 21.1999 223.364 21.7389C219.66 22.898 215.524 22.3409 211.801 20.8943C208.19 19.4104 204.762 17.5138 201.587 15.2425C198.661 13.1689 195.566 11.3444 192.335 9.78833C189.423 8.39927 186.217 7.73638 182.993 7.85647C180.197 8.0599 177.48 8.87592 175.036 10.2466C171.471 12.2748 168.487 15.1829 166.368 18.6928C165.768 19.624 165.219 20.5868 164.722 21.5772C164.57 21.9364 164.393 22.2847 164.192 22.6195C164.208 22.5199 164.239 22.4231 164.282 22.3319C164.345 22.1522 164.444 21.8737 164.597 21.5232C165.032 20.4886 165.54 19.4858 166.116 18.5221C168.178 14.9016 171.162 11.8912 174.766 9.79732C177.277 8.36966 180.075 7.51939 182.957 7.30836C186.278 7.1534 189.586 7.81036 192.596 9.22225C195.875 10.7926 199.016 12.6383 201.983 14.7393C205.115 16.9729 208.49 18.8448 212.044 20.3192C215.686 21.7209 219.66 22.26 223.185 21.1638C224.899 20.628 226.443 19.6521 227.662 18.3334C228.823 17.1263 229.468 15.5149 229.461 13.8407C229.461 13.0441 229.289 12.2568 228.957 11.5326C228.625 10.8085 228.14 10.1644 227.536 9.64457C226.952 9.183 226.252 8.89104 225.513 8.8007C224.774 8.71036 224.025 8.82511 223.346 9.1324C222.694 9.36118 222.119 9.76917 221.688 10.3095C221.257 10.8499 220.987 11.5008 220.91 12.1874C220.91 12.8322 221.054 13.4687 221.333 14.0503C221.611 14.6319 222.017 15.1437 222.519 15.548C223.46 16.2982 224.583 16.7851 225.774 16.9587C226.85 17.1266 227.942 17.1718 229.029 17.0934C230.813 17.0543 232.538 16.4502 233.956 15.3683C234.81 14.6676 235.436 13.7294 235.755 12.6726C235.841 12.3026 235.904 11.9275 235.943 11.5495V11.5495Z" fill="#455A64"/>
<path d="M141.345 38.5224C142.699 38.9494 144.089 39.2502 145.499 39.4209C147.024 39.5029 148.551 39.2893 149.995 38.7919C151.769 38.1626 153.443 37.282 154.967 36.1772C157.72 34.1242 159.73 31.2323 160.694 27.9376C161.032 26.553 161.281 25.1485 161.441 23.7324C161.538 24.1136 161.575 24.5079 161.548 24.9005C161.545 25.9675 161.409 27.0299 161.144 28.0634C160.283 31.5367 158.235 34.6004 155.353 36.7253C153.778 37.8831 152.035 38.7923 150.183 39.4209C148.657 39.9228 147.043 40.0973 145.445 39.9331C144.379 39.8109 143.337 39.5324 142.352 39.1064C141.984 38.9727 141.643 38.775 141.345 38.5224V38.5224Z" fill="#455A64"/>
<path d="M142.298 48.2545C142.298 48.1288 143.898 48.4253 146.443 48.1916C149.75 47.9099 152.921 46.7456 155.624 44.8204C158.328 42.8952 160.464 40.2798 161.809 37.2475C162.861 34.9202 163.095 33.3298 163.221 33.3568C163.245 33.7345 163.209 34.1138 163.113 34.48C162.915 35.4906 162.614 36.4782 162.214 37.4272C160.947 40.6138 158.788 43.3685 155.996 45.3618C153.205 47.3552 149.897 48.5029 146.47 48.6679C145.443 48.7209 144.413 48.6727 143.395 48.5241C143.017 48.4926 142.647 48.4016 142.298 48.2545Z" fill="#455A64"/>
<path d="M177.814 67.0164C177.769 67.0255 177.723 67.0254 177.678 67.0162C177.633 67.007 177.59 66.9889 177.553 66.9628C177.515 66.9368 177.483 66.9035 177.458 66.8648C177.433 66.8261 177.417 66.7829 177.409 66.7377C177.394 66.694 177.388 66.6477 177.392 66.6017C177.396 66.5557 177.409 66.511 177.431 66.4704C177.453 66.4298 177.483 66.3942 177.52 66.3659C177.556 66.3376 177.598 66.3173 177.643 66.3061C177.732 66.2971 177.821 66.3206 177.894 66.3722C177.966 66.4237 178.018 66.4999 178.039 66.5866C178.06 66.6733 178.048 66.7647 178.007 66.8437C177.966 66.9227 177.897 66.9841 177.814 67.0164V67.0164Z" fill="#EB996E"/>
<path d="M183.604 65.4982C183.507 65.4975 183.413 65.4642 183.338 65.4035C183.262 65.3428 183.209 65.2583 183.187 65.1637C183.165 65.0691 183.176 64.9699 183.217 64.8821C183.259 64.7943 183.329 64.7231 183.416 64.68C183.515 64.672 183.614 64.7018 183.692 64.7635C183.77 64.8252 183.823 64.9142 183.838 65.0127C183.87 65.1081 183.863 65.2122 183.82 65.3029C183.776 65.3935 183.699 65.4636 183.604 65.4982V65.4982Z" fill="#EB996E"/>
<path d="M187.462 65.2648C187.273 65.2648 187.093 65.076 187.039 64.7793C186.985 64.4826 187.102 64.2128 187.282 64.1859C187.462 64.1589 187.651 64.3747 187.705 64.6714C187.758 64.9681 187.642 65.2379 187.462 65.2648Z" fill="#EB996E"/>
<path d="M180.79 70.5476C180.61 70.5476 180.448 70.4667 180.448 70.3498C180.448 70.2329 180.592 70.125 180.772 70.125C180.952 70.125 181.114 70.2059 181.114 70.3228C181.114 70.4397 180.979 70.5386 180.79 70.5476Z" fill="#EB996E"/>
<path d="M186.059 69.128C185.965 69.1329 185.873 69.1009 185.802 69.0387C185.732 68.9765 185.688 68.8891 185.681 68.7953C185.672 68.7486 185.673 68.7006 185.682 68.6541C185.692 68.6075 185.71 68.5633 185.737 68.524C185.764 68.4847 185.798 68.4511 185.838 68.4251C185.878 68.3991 185.922 68.3813 185.969 68.3727C186.064 68.3701 186.156 68.4042 186.226 68.4678C186.297 68.5315 186.34 68.6198 186.347 68.7144C186.363 68.8073 186.341 68.9026 186.287 68.98C186.234 69.0573 186.152 69.1105 186.059 69.128Z" fill="#EB996E"/>
<path d="M213.591 64.8602C213.545 64.8692 213.497 64.8689 213.451 64.8593C213.405 64.8496 213.362 64.8308 213.323 64.8039C213.284 64.7771 213.252 64.7428 213.227 64.703C213.202 64.6633 213.185 64.6189 213.177 64.5725C213.162 64.5282 213.156 64.4814 213.16 64.4348C213.163 64.3882 213.177 64.3428 213.199 64.3015C213.22 64.2602 213.251 64.2238 213.287 64.1947C213.324 64.1655 213.366 64.1441 213.411 64.1319C213.503 64.1203 213.596 64.1428 213.672 64.1952C213.748 64.2476 213.803 64.3262 213.825 64.416C213.847 64.5059 213.836 64.6008 213.792 64.6827C213.749 64.7645 213.677 64.8277 213.591 64.8602V64.8602Z" fill="#EB996E"/>
<path d="M217.52 64.3655C217.422 64.3569 217.33 64.315 217.259 64.2469C217.188 64.1787 217.142 64.0884 217.13 63.9908C217.117 63.8932 217.138 63.7942 217.19 63.7103C217.241 63.6264 217.32 63.5625 217.412 63.5293C217.592 63.5293 217.763 63.6732 217.799 63.8979C217.821 63.9967 217.804 64.1003 217.753 64.1873C217.701 64.2743 217.618 64.338 217.52 64.3655Z" fill="#EB996E"/>
<path d="M210.102 65.0578C210.045 65.0634 209.988 65.0524 209.937 65.0262C209.886 65 209.844 64.9597 209.816 64.9101C209.787 64.8605 209.774 64.8038 209.777 64.7467C209.78 64.6896 209.799 64.6346 209.833 64.5884C209.867 64.5421 209.913 64.5065 209.966 64.4859C210.019 64.4652 210.077 64.4604 210.133 64.472C210.189 64.4836 210.241 64.5111 210.281 64.5512C210.322 64.5914 210.35 64.6424 210.363 64.6982C210.373 64.7801 210.352 64.8629 210.304 64.9298C210.255 64.9967 210.183 65.0425 210.102 65.0578V65.0578Z" fill="#EB996E"/>
<path d="M213.168 68.9302C213.079 68.9606 212.981 68.9563 212.894 68.918C212.808 68.8797 212.739 68.8102 212.701 68.7234C212.677 68.6822 212.661 68.6366 212.655 68.5893C212.649 68.542 212.652 68.4939 212.665 68.4479C212.677 68.4019 212.699 68.3588 212.728 68.3212C212.757 68.2836 212.794 68.2522 212.836 68.2289C212.924 68.2064 213.018 68.2155 213.101 68.2545C213.184 68.2935 213.251 68.3601 213.29 68.4429C213.329 68.5256 213.339 68.6195 213.316 68.7084C213.294 68.7972 213.242 68.8756 213.168 68.9302V68.9302Z" fill="#EB996E"/>
<path d="M216.513 68.1297C216.473 68.1242 216.434 68.1107 216.399 68.09C216.364 68.0694 216.333 68.0419 216.309 68.0092C216.285 67.9765 216.267 67.9394 216.257 67.8998C216.248 67.8603 216.246 67.8192 216.252 67.779C216.281 67.7023 216.338 67.6397 216.412 67.6044C216.486 67.5692 216.57 67.5641 216.648 67.5902C216.727 67.6014 216.8 67.6435 216.848 67.7075C216.897 67.7715 216.919 67.8521 216.909 67.9319C216.882 68.0103 216.825 68.075 216.751 68.112C216.677 68.1491 216.592 68.1554 216.513 68.1297V68.1297Z" fill="#EB996E"/>
<path d="M209.841 292.064L209.626 272.089C209.626 272.089 196.291 253.625 201.533 233.596C201.533 233.596 210.228 227.486 233.543 231.062C233.543 231.062 262.81 202.57 302.039 209.821C341.269 217.072 344.919 251.225 345.297 260.525C345.675 269.825 345.585 287.886 332.08 305.542L331.18 323.064C331.18 323.064 327.962 329.659 318.655 329.21C309.349 328.76 309.871 327.412 309.871 327.412C309.871 327.412 298.182 336.838 297.678 339.3C297.175 341.762 295.341 351.098 295.341 351.098C295.341 351.098 291.286 356.606 282.537 357.253C279.076 357.498 275.615 356.79 272.529 355.204C271.359 354.612 270.318 353.793 269.468 352.795C268.617 351.797 267.974 350.64 267.575 349.391C266.739 346.625 265.327 344.067 263.432 341.885C261.537 339.703 259.201 337.946 256.579 336.73L250.537 335.149C250.537 335.149 248.1 337.368 239.621 338.276C231.142 339.183 231.106 336.182 231.106 336.182C231.106 336.182 217.916 339.228 208.007 326.298C200.185 316.073 195.932 297.68 209.841 292.064Z" fill="url(#paint1_linear)"/>
<path d="M291.16 293.214C291.292 293 291.439 292.796 291.6 292.603C291.897 292.207 292.338 291.632 292.886 290.878C293.992 289.377 295.538 287.158 297.247 284.291C299.235 280.931 300.961 277.422 302.408 273.796C303.226 271.748 303.99 269.564 304.665 267.273C305.339 264.982 305.906 262.502 305.312 260.085C304.598 257.742 303.067 255.734 300.996 254.424C299.088 253.145 297.043 252.081 294.9 251.252C291.271 249.82 287.456 248.913 283.571 248.556C280.951 248.308 278.314 248.308 275.694 248.556C274.795 248.637 274.049 248.727 273.554 248.799C273.309 248.85 273.059 248.877 272.808 248.88C273.049 248.803 273.296 248.746 273.545 248.709C274.022 248.61 274.741 248.485 275.676 248.377C278.304 248.05 280.959 247.999 283.598 248.224C287.54 248.52 291.416 249.402 295.098 250.839C297.276 251.666 299.355 252.736 301.293 254.029C303.459 255.398 305.055 257.505 305.789 259.959C306.418 262.538 305.789 265.107 305.132 267.399C304.476 269.69 303.667 271.891 302.83 273.958C301.361 277.596 299.599 281.109 297.561 284.462C296.186 286.719 294.685 288.897 293.066 290.985C292.49 291.731 292.023 292.288 291.708 292.657C291.544 292.86 291.36 293.046 291.16 293.214V293.214Z" fill="#263238"/>
<path d="M236.312 231.934C236.38 232.078 236.426 232.233 236.447 232.392C236.534 232.851 236.555 233.32 236.51 233.785C236.283 235.504 235.493 237.1 234.262 238.322C232.796 239.94 230.566 241.26 228.391 243.04C226.007 244.955 223.807 247.088 221.818 249.41C218.197 253.632 215.276 258.407 213.168 263.553C212.359 265.53 211.828 267.147 211.469 268.315C211.316 268.846 211.181 269.286 211.073 269.636C211.036 269.792 210.982 269.942 210.911 270.086C210.913 269.924 210.937 269.764 210.983 269.609C211.073 269.25 211.172 268.81 211.298 268.261C211.725 266.624 212.248 265.013 212.862 263.436C214.894 258.205 217.804 253.358 221.467 249.105C223.474 246.763 225.702 244.621 228.121 242.707C230.342 240.91 232.572 239.643 234.028 238.098C235.235 236.934 236.041 235.418 236.33 233.767C236.39 233.157 236.384 232.542 236.312 231.934Z" fill="#263238"/>
<g opacity="0.5">
<path opacity="0.5" d="M251.993 234.378L263.925 237.424C263.925 237.424 281.395 217.809 300.583 212.84L293.389 211.142C277.621 214.695 263.234 222.771 251.993 234.378V234.378Z" fill="black"/>
</g>
<path d="M296.689 211.896C280.999 215.421 266.723 223.558 255.697 235.258L251.993 234.359C251.993 234.359 268.915 215.804 293.398 211.123L296.689 211.896Z" fill="url(#paint2_linear)"/>
<g opacity="0.7">
<path opacity="0.7" d="M296.689 211.896C280.999 215.421 266.723 223.558 255.697 235.258L251.993 234.359C251.993 234.359 268.915 215.804 293.398 211.123L296.689 211.896Z" fill="black"/>
</g>
<path d="M204.078 296.134C210.687 286.682 227.267 289.575 234.828 298.075C242.39 306.575 245.744 318.274 240.826 328.356C238.722 332.66 234.694 336.443 229.901 336.353C232.292 333.672 234.006 330.458 234.897 326.98C235.789 323.501 235.833 319.86 235.026 316.36C233.489 309.307 229.038 303.08 223.409 298.551C220.559 296.251 217.349 293.726 213.699 293.367C210.048 293.007 207.126 292.9 204.078 296.134" fill="url(#paint3_linear)"/>
<g opacity="0.3">
<path opacity="0.3" d="M204.078 296.134C210.687 286.682 227.267 289.575 234.828 298.075C242.39 306.575 245.744 318.274 240.826 328.356C238.722 332.66 234.694 336.443 229.901 336.353C232.292 333.672 234.006 330.458 234.897 326.98C235.789 323.501 235.833 319.86 235.026 316.36C233.489 309.307 229.038 303.08 223.409 298.551C220.559 296.251 217.349 293.726 213.699 293.367C210.048 293.007 207.126 292.9 204.078 296.134" fill="black"/>
</g>
<g opacity="0.3">
<path opacity="0.3" d="M291.825 292.657C291.699 294.661 293.533 296.431 295.52 296.665C296.524 296.725 297.527 296.546 298.448 296.143C299.369 295.74 300.18 295.124 300.816 294.346C302.068 292.775 302.986 290.965 303.514 289.027C305.582 282.549 306.652 272.853 305.564 266.177C302.705 274.866 297.597 285.702 291.672 292.675" fill="black"/>
</g>
<g opacity="0.3">
<path opacity="0.3" d="M298.092 262.78C296.806 258.98 292.868 256.76 289.101 255.448C285.237 254.101 281.201 253.309 277.115 253.094C275.829 252.954 274.529 253.079 273.294 253.463C272.681 253.662 272.129 254.014 271.69 254.486C271.251 254.957 270.94 255.533 270.785 256.158C270.704 256.671 270.783 257.196 271.012 257.663C271.24 258.129 271.607 258.513 272.062 258.764C278.578 266.301 283.439 275.119 286.331 284.651C286.454 285.07 286.688 285.448 287.008 285.746C287.328 286.043 287.722 286.249 288.15 286.341C288.577 286.433 289.021 286.408 289.435 286.269C289.85 286.129 290.219 285.881 290.503 285.549C293.56 282.063 295.323 277.364 296.905 272.907C298.038 269.636 299.207 266.06 298.092 262.78Z" fill="black"/>
</g>
<g opacity="0.3">
<path opacity="0.3" d="M212.125 264.533C208.038 258.179 205.935 250.753 206.083 243.201C206.083 241.611 206.317 239.886 207.423 238.754C208.762 237.379 210.938 237.352 212.818 237.478C218.115 237.808 223.378 238.547 228.562 239.688C228.966 239.778 229.461 239.913 229.587 240.299C229.729 240.597 229.771 240.932 229.708 241.256C229.645 241.579 229.48 241.874 229.236 242.096C221.189 247.029 215.479 256.104 212.44 264.982" fill="black"/>
</g>
<path d="M202.1 234.305C202.117 234.758 202.096 235.212 202.037 235.662C201.965 236.561 201.884 237.792 201.83 239.346C201.557 245.633 202.347 251.921 204.168 257.946C204.779 259.914 205.418 261.648 206.029 263.085C206.64 264.523 207.171 265.664 207.558 266.437C207.786 266.83 207.972 267.245 208.115 267.677C207.843 267.315 207.602 266.93 207.396 266.527C206.955 265.772 206.38 264.64 205.732 263.211C204.973 261.541 204.313 259.828 203.754 258.081C203.088 255.931 202.554 253.744 202.154 251.53C201.475 247.516 201.255 243.437 201.497 239.373C201.596 237.818 201.722 236.552 201.857 235.689C201.893 235.221 201.975 234.758 202.1 234.305V234.305Z" fill="#FAFAFA"/>
<path d="M292.697 210.494C292.548 210.568 292.391 210.626 292.23 210.665L290.881 211.06C290.287 211.222 289.568 211.42 288.741 211.689C287.914 211.959 286.943 212.219 285.945 212.588C283.868 213.28 281.449 214.205 278.796 215.337C276.144 216.469 273.294 217.871 270.39 219.488C267.485 221.106 264.824 222.84 262.459 224.484C260.094 226.129 258.053 227.746 256.39 229.157C255.536 229.831 254.807 230.505 254.151 231.071C253.495 231.637 252.946 232.14 252.506 232.562L251.463 233.506C251.22 233.721 251.085 233.829 251.076 233.811C251.17 233.677 251.278 233.553 251.4 233.443L252.38 232.427C252.802 231.987 253.333 231.466 253.98 230.882C254.628 230.298 255.329 229.606 256.174 228.905C257.82 227.459 259.861 225.832 262.207 224.134C264.773 222.318 267.429 220.633 270.165 219.084C272.912 217.56 275.736 216.177 278.626 214.942C281.323 213.828 283.751 212.929 285.819 212.246C286.862 211.896 287.815 211.653 288.651 211.411C289.487 211.168 290.216 210.988 290.818 210.854L292.185 210.548C292.352 210.504 292.525 210.486 292.697 210.494V210.494Z" fill="#FAFAFA"/>
<path d="M303.19 257.973C303.118 258.054 301.76 256.67 299.153 255.008C297.624 254.043 296.018 253.204 294.352 252.501C292.318 251.65 290.211 250.986 288.058 250.515C284.121 249.652 280.075 249.406 276.063 249.787C272.988 250.102 271.127 250.614 271.1 250.515C271.524 250.356 271.96 250.23 272.403 250.138C273.586 249.832 274.787 249.607 276 249.464C280.051 248.974 284.155 249.175 288.138 250.057C290.326 250.537 292.464 251.223 294.522 252.106C296.203 252.835 297.813 253.716 299.333 254.738L300.232 255.358L301.014 255.978C301.44 256.294 301.843 256.639 302.219 257.012C302.568 257.306 302.893 257.627 303.19 257.973V257.973Z" fill="#FAFAFA"/>
<path d="M222.762 334.897C222.613 334.879 222.468 334.84 222.33 334.78C221.925 334.657 221.526 334.513 221.135 334.349C219.679 333.774 218.274 333.076 216.936 332.264C212.473 329.596 208.758 325.843 206.136 321.354C203.514 316.866 202.07 311.789 201.938 306.593C201.885 305.032 201.967 303.468 202.181 301.921C202.244 301.373 202.343 300.95 202.388 300.663C202.412 300.516 202.448 300.372 202.495 300.231C202.488 300.803 202.443 301.373 202.361 301.939C202.217 303.483 202.184 305.035 202.262 306.584C202.485 311.705 203.954 316.694 206.54 321.12C209.127 325.546 212.753 329.275 217.106 331.986C218.422 332.81 219.792 333.546 221.207 334.187C222.205 334.618 222.771 334.861 222.762 334.897Z" fill="#FAFAFA"/>
<g opacity="0.2">
<path opacity="0.2" d="M225.118 314.141C224.419 313.902 223.665 313.873 222.949 314.057C222.234 314.24 221.587 314.628 221.09 315.174C220.604 315.729 220.249 316.386 220.051 317.097C219.853 317.808 219.818 318.554 219.948 319.28C220.083 320.686 220.688 322.006 221.665 323.027C222.476 323.811 223.515 324.318 224.632 324.474C225.33 324.458 226.01 324.251 226.598 323.876C227.187 323.5 227.66 322.97 227.968 322.344C228.355 321.625 228.589 320.834 228.654 320.02C228.719 319.206 228.615 318.388 228.347 317.617C228.079 316.845 227.653 316.138 227.097 315.54C226.542 314.941 225.867 314.465 225.118 314.141" fill="black"/>
</g>
<path d="M223.724 313.952C223.076 314.733 222.638 315.666 222.45 316.663C222.262 317.66 222.331 318.689 222.65 319.652C222.969 320.615 223.528 321.481 224.274 322.169C225.021 322.857 225.93 323.344 226.916 323.584C226.512 323.947 226.027 324.208 225.502 324.347C224.977 324.486 224.426 324.499 223.895 324.384C222.575 323.945 221.44 323.076 220.674 321.916C219.908 320.756 219.554 319.372 219.669 317.986C219.725 316.851 220.188 315.773 220.973 314.949C221.735 314.288 222.715 313.932 223.724 313.952" fill="url(#paint4_linear)"/>
<g opacity="0.4">
<path opacity="0.4" d="M223.724 313.952C223.076 314.733 222.638 315.666 222.45 316.663C222.262 317.66 222.331 318.689 222.65 319.652C222.969 320.615 223.528 321.481 224.274 322.169C225.021 322.857 225.93 323.344 226.916 323.584C226.512 323.947 226.027 324.208 225.502 324.347C224.977 324.486 224.426 324.499 223.895 324.384C222.575 323.945 221.44 323.076 220.674 321.916C219.908 320.756 219.554 319.372 219.669 317.986C219.725 316.851 220.188 315.773 220.973 314.949C221.735 314.288 222.715 313.932 223.724 313.952" fill="black"/>
</g>
<g opacity="0.2">
<path opacity="0.2" d="M211.864 309.028C211.189 308.803 210.463 308.779 209.773 308.957C209.084 309.136 208.461 309.51 207.98 310.035C207.511 310.57 207.167 311.205 206.976 311.89C206.785 312.576 206.75 313.296 206.874 313.997C207.023 315.344 207.607 316.606 208.538 317.592C209.323 318.346 210.327 318.834 211.406 318.984C212.078 318.97 212.732 318.772 213.299 318.41C213.865 318.049 214.32 317.539 214.616 316.936C214.988 316.241 215.213 315.477 215.275 314.691C215.337 313.905 215.236 313.115 214.977 312.371C214.719 311.626 214.309 310.943 213.773 310.365C213.237 309.787 212.587 309.325 211.864 309.011" fill="black"/>
</g>
<path d="M210.525 308.866C209.896 309.619 209.471 310.519 209.288 311.482C209.105 312.445 209.171 313.439 209.48 314.369C209.789 315.299 210.33 316.135 211.053 316.798C211.775 317.461 212.655 317.929 213.609 318.157C213.217 318.508 212.749 318.761 212.241 318.897C211.733 319.033 211.201 319.047 210.687 318.939C209.413 318.513 208.319 317.672 207.581 316.551C206.842 315.43 206.502 314.094 206.613 312.757C206.665 311.665 207.109 310.628 207.863 309.837C208.609 309.187 209.572 308.84 210.561 308.866" fill="url(#paint5_linear)"/>
<g opacity="0.4">
<path opacity="0.4" d="M210.525 308.866C209.896 309.619 209.471 310.519 209.288 311.482C209.105 312.445 209.171 313.439 209.48 314.369C209.789 315.299 210.33 316.135 211.053 316.798C211.775 317.461 212.655 317.929 213.609 318.157C213.217 318.508 212.749 318.761 212.241 318.897C211.733 319.033 211.201 319.047 210.687 318.939C209.413 318.513 208.319 317.672 207.581 316.551C206.842 315.43 206.502 314.094 206.613 312.757C206.665 311.665 207.109 310.628 207.863 309.837C208.609 309.187 209.572 308.84 210.561 308.866" fill="black"/>
</g>
<path d="M245.978 284.3C245.978 284.3 246.067 284.3 246.103 284.237H246.166L245.978 284.3Z" fill="#263238"/>
<path d="M252.775 287.104C252.348 285.955 251.521 284.998 250.447 284.408C249.593 283.981 248.65 283.762 247.695 283.77H247.614C247.083 283.803 246.566 283.957 246.104 284.219C245.105 284.716 244.251 285.46 243.621 286.38C242.992 287.3 242.608 288.366 242.507 289.476C242.444 290.895 242.803 292.301 243.539 293.517C244.276 294.732 245.356 295.702 246.643 296.305C247.493 296.742 248.463 296.887 249.404 296.718C250.335 296.452 251.15 295.879 251.714 295.092C252.575 293.969 253.125 292.641 253.311 291.239C253.498 289.838 253.313 288.412 252.775 287.104V287.104Z" fill="#263238"/>
<path d="M218.185 275.558C218.222 275.536 218.261 275.518 218.302 275.504H218.355L218.185 275.558Z" fill="#263238"/>
<path d="M224.066 278.01C223.704 276.999 222.984 276.155 222.043 275.638C221.307 275.267 220.493 275.076 219.669 275.081H219.57C219.111 275.112 218.665 275.247 218.266 275.477C217.399 275.905 216.657 276.549 216.111 277.347C215.564 278.145 215.232 279.069 215.146 280.032C215.093 281.262 215.406 282.479 216.047 283.53C216.687 284.581 217.625 285.418 218.743 285.936C219.467 286.364 220.329 286.495 221.147 286.3C221.966 286.106 222.677 285.601 223.131 284.893C223.869 283.925 224.343 282.782 224.507 281.575C224.671 280.369 224.519 279.14 224.066 278.01V278.01Z" fill="#263238"/>
<path d="M225.864 293.025C226.054 293.038 226.241 293.074 226.421 293.133C226.951 293.268 227.473 293.43 227.986 293.618C229.879 294.311 231.66 295.277 233.273 296.485C235.687 298.269 237.741 300.495 239.324 303.044C241.244 306.176 242.522 309.658 243.083 313.287C243.656 316.911 243.614 320.605 242.957 324.214C242.48 327.201 241.189 329.999 239.225 332.301C237.874 333.825 236.124 334.942 234.172 335.526C233.468 335.757 232.727 335.858 231.987 335.823C232.709 335.725 233.422 335.568 234.118 335.356C236.004 334.716 237.683 333.584 238.982 332.076C240.859 329.802 242.087 327.064 242.534 324.151C243.163 320.586 243.19 316.942 242.615 313.368C242.066 309.798 240.823 306.37 238.955 303.278C237.415 300.759 235.421 298.548 233.075 296.754C231.494 295.546 229.762 294.549 227.923 293.789C226.637 293.286 225.864 293.07 225.864 293.025Z" fill="#263238"/>
<path d="M217.277 282.396C217.232 282.396 216.998 282.234 216.756 281.812C216.464 281.257 216.307 280.641 216.297 280.015C216.3 279.388 216.454 278.772 216.747 278.218C216.989 277.795 217.214 277.598 217.268 277.634C217.005 278.413 216.836 279.222 216.765 280.042C216.847 280.843 217.019 281.633 217.277 282.396V282.396Z" fill="#FAFAFA"/>
<path d="M244.386 292.324C244.332 292.324 244.108 292.118 243.91 291.641C243.667 291.009 243.602 290.322 243.721 289.656C243.823 288.991 244.11 288.368 244.548 287.859C244.89 287.463 245.178 287.319 245.213 287.364C244.745 288.099 244.396 288.902 244.179 289.745C244.102 290.611 244.172 291.483 244.386 292.324V292.324Z" fill="#FAFAFA"/>
<path d="M261.443 339.803C261.398 339.875 260.31 339.12 258.404 338.167C255.907 336.963 253.326 335.942 250.68 335.112C247.578 334.106 244.755 333.243 242.732 332.525C241.725 332.174 240.934 331.869 240.358 331.626C240.064 331.525 239.784 331.389 239.522 331.222C240.645 331.492 241.752 331.822 242.84 332.21C244.872 332.848 247.713 333.657 250.824 334.672C253.495 335.501 256.084 336.575 258.557 337.88C259.033 338.122 259.456 338.383 259.807 338.608C260.119 338.792 260.419 338.997 260.706 339.219C260.976 339.38 261.224 339.577 261.443 339.803V339.803Z" fill="#263238"/>
<path d="M325.237 310.861C324.996 311.305 324.719 311.728 324.41 312.128C323.87 312.927 323.016 314.051 321.928 315.398C319.034 318.875 315.891 322.136 312.523 325.157C308.594 328.751 304.934 331.797 302.345 334.097L299.288 336.793C298.931 337.147 298.547 337.472 298.137 337.763C298.447 337.369 298.79 337.003 299.162 336.667C299.845 335.975 300.861 335.005 302.129 333.818C304.665 331.455 308.288 328.328 312.2 324.779C315.55 321.769 318.712 318.555 321.667 315.156C322.791 313.844 323.682 312.757 324.266 311.993C324.56 311.591 324.885 311.213 325.237 310.861Z" fill="#263238"/>
<g opacity="0.2">
<path opacity="0.2" d="M309.952 327.502C314.789 327.897 320.283 326.414 323.717 323.009C325.441 321.255 326.605 319.03 327.062 316.614C327.518 314.198 327.246 311.702 326.28 309.441C323.457 313.466 320.274 317.743 316.39 321.032C313.944 323.108 312.316 325.624 309.952 327.528" fill="black"/>
</g>
<g opacity="0.5">
<path opacity="0.5" d="M292.724 214.493C299.018 223.747 311.921 226.677 318.161 235.95C320.579 239.544 321.757 243.785 322.926 247.954L337.312 299.827C337.906 288.586 335.199 277.462 332.502 266.527C329.853 255.744 327.194 244.962 324.527 234.179C324.087 231.767 323.209 229.456 321.937 227.36C320.516 225.32 318.403 223.891 316.344 222.507C308.954 217.548 301.347 212.498 292.679 210.521" fill="black"/>
</g>
<g opacity="0.3">
<path opacity="0.3" d="M248.594 242.509C248.99 243.767 247.264 245.484 244.575 247.613C243.217 248.673 241.635 249.886 239.891 251.207C238.146 252.528 236.294 253.975 234.343 255.538C232.392 257.102 230.629 258.656 228.948 260.031C227.267 261.406 225.801 262.78 224.452 263.886C221.818 266.087 219.795 267.426 218.635 266.779C217.475 266.132 217.556 263.58 219.093 260.004C220.013 257.929 221.182 255.974 222.573 254.181C225.98 249.769 230.362 246.205 235.377 243.767C237.418 242.776 239.57 242.031 241.788 241.548C245.645 240.802 248.217 241.305 248.594 242.509Z" fill="white"/>
</g>
<path d="M224.542 313.422C223.882 313.661 223.198 313.827 222.501 313.916C221.839 314.145 221.155 314.305 220.46 314.393C220.99 313.892 221.669 313.577 222.393 313.494C223.085 313.245 223.836 313.22 224.542 313.422V313.422Z" fill="#FAFAFA"/>
<path d="M210.893 308.471C210.268 308.619 209.635 308.73 208.996 308.803C207.98 309.028 207.198 309.451 207.144 309.334C207.09 309.217 207.773 308.597 208.888 308.345C209.214 308.232 209.559 308.185 209.904 308.206C210.248 308.228 210.584 308.318 210.893 308.471Z" fill="#FAFAFA"/>
<path d="M271.423 350.253C271.298 350.316 270.102 348.303 268.438 345.94C266.775 343.577 265.291 341.771 265.39 341.681C266.718 342.842 267.875 344.185 268.825 345.67C269.899 347.07 270.774 348.612 271.423 350.253Z" fill="#FAFAFA"/>
<path d="M217.862 255.951C217.988 256.032 216.216 258.647 214.679 262.151C213.141 265.655 212.404 268.719 212.26 268.683C212.281 267.996 212.402 267.314 212.62 266.662C213.031 265.053 213.575 263.481 214.247 261.962C214.914 260.441 215.705 258.978 216.612 257.586C216.957 256.99 217.377 256.441 217.862 255.951V255.951Z" fill="#FAFAFA"/>
<path d="M261.452 238.555C259.721 238.386 258.022 237.972 256.408 237.324C254.743 236.817 253.155 236.086 251.687 235.15C251.75 235.024 253.872 235.941 256.561 236.875C259.249 237.809 261.488 238.42 261.452 238.555Z" fill="#FAFAFA"/>
<path d="M331.585 223.991C329.483 226.859 326.391 228.847 322.908 229.571C324.485 228.863 326.025 228.074 327.521 227.207C328.929 226.205 330.286 225.131 331.585 223.991V223.991Z" fill="#EB996E"/>
<path d="M357.921 217.979C353.083 206.837 304.764 167.283 304.764 167.283L277.52 202.632C277.915 202.102 321.964 228.914 321.964 228.914L334.957 288.11L337.196 298.676C337.196 298.676 331.351 303.771 331.594 309.144C331.747 312.739 323.502 320.475 323.502 320.475C321.542 318.849 320.283 318.39 319.294 318.579L310.527 326.783L312.613 328.688C314.939 330.808 317.999 331.939 321.146 331.841L336.135 331.383C338.272 331.321 340.301 330.428 341.79 328.894C346.403 324.159 356.131 313.565 356.32 308.462C356.437 305.604 356.455 302.882 356.446 300.689C356.401 300.662 362.749 229.121 357.921 217.979Z" fill="#FFBE9D"/>
<path d="M343.57 312.641C343.323 312.864 343.04 313.046 342.734 313.18C342.186 313.485 341.341 313.845 340.361 314.384C339.231 315.035 338.234 315.891 337.42 316.909C336.391 318.192 335.179 319.318 333.824 320.251C331.318 321.918 328.343 322.737 325.336 322.587C324.809 322.587 324.286 322.496 323.789 322.318C323.589 322.247 323.414 322.12 323.286 321.95C323.158 321.781 323.083 321.577 323.07 321.365C323.062 321.233 323.086 321.101 323.141 320.98C323.196 320.86 323.28 320.754 323.385 320.674C323.538 320.584 323.637 320.602 323.637 320.611C323.637 320.62 323.556 320.611 323.439 320.745C323.361 320.825 323.303 320.922 323.271 321.028C323.238 321.134 323.231 321.247 323.25 321.356C323.276 321.526 323.35 321.685 323.463 321.814C323.576 321.943 323.723 322.036 323.888 322.084C324.36 322.225 324.853 322.286 325.345 322.264C328.267 322.321 331.136 321.487 333.572 319.874C334.891 318.967 336.074 317.878 337.088 316.639C337.946 315.598 339 314.734 340.19 314.096C341.215 313.584 342.069 313.279 342.644 313.018C342.942 312.866 343.251 312.739 343.57 312.641V312.641Z" fill="#EB996E"/>
<path d="M336.719 320.44C336.782 320.557 335.541 321.285 334.21 322.417C332.88 323.549 331.945 324.636 331.837 324.555C332.326 323.576 333.041 322.726 333.923 322.075C334.706 321.309 335.667 320.747 336.719 320.44Z" fill="#EB996E"/>
<path d="M342.752 295.918C342.752 296.053 341.43 296.134 339.983 296.817C338.535 297.5 337.618 298.461 337.519 298.362C338.085 297.515 338.871 296.838 339.793 296.404C340.715 295.97 341.738 295.796 342.752 295.9V295.918Z" fill="#EB996E"/>
<path d="M333.401 325.058C333.401 325.139 332.439 324.672 330.821 324.295C328.128 323.63 325.302 323.749 322.674 324.636C322.381 324.746 322.081 324.837 321.775 324.906C321.44 324.967 321.094 324.893 320.813 324.699L318.475 322.938C317.721 322.44 317.014 321.874 316.362 321.249C317.17 321.658 317.943 322.133 318.673 322.668L321.092 324.313C321.479 324.609 321.991 324.384 322.558 324.178C323.146 323.974 323.747 323.806 324.356 323.675C326.531 323.245 328.778 323.338 330.911 323.944C331.55 324.127 332.173 324.364 332.772 324.654C333.194 324.897 333.419 325.031 333.401 325.058Z" fill="#EB996E"/>
<path d="M231.735 187.762C225.972 186.118 223.418 185.408 223.418 185.408V182.766H225.711C228.013 182.766 231.322 179.9 231.322 179.9L236.24 172.379L236.87 167.554C236.348 161.606 229.173 163.96 229.173 163.96C228.831 161.884 219.642 159.8 212.737 158.515C210.424 158.083 208.044 158.17 205.769 158.77C203.494 159.37 201.381 160.467 199.582 161.983L192.956 167.572L173.103 184.923L121.852 228.187L88.1607 218.249C88.1607 218.249 77.443 251.001 75.7077 262.736C72.3539 285.28 103.365 300.304 117.068 288.704C127.696 279.718 189.683 212.975 199.951 201.914H200.032C206.326 201.114 217.008 194.726 217.008 194.726L222.483 195.373C222.483 195.373 237.031 198.149 238.758 195.301C240.052 193.099 237.499 189.406 231.735 187.762Z" fill="#FFBE9D"/>
<path d="M201.893 181.22C201.893 181.22 202.037 181.426 202.208 181.849C202.457 182.445 202.656 183.061 202.801 183.691C203.29 185.773 203.369 187.931 203.035 190.043C202.704 192.157 201.958 194.185 200.841 196.01C200.509 196.562 200.13 197.086 199.708 197.573C199.411 197.924 199.232 198.103 199.205 198.076C199.178 198.049 199.78 197.25 200.553 195.848C202.595 192.167 203.279 187.887 202.486 183.754C202.172 182.181 201.812 181.247 201.893 181.22Z" fill="#EB996E"/>
<path d="M205.606 162.872C205.789 162.824 205.976 162.791 206.164 162.773C206.542 162.719 207.063 162.647 207.791 162.584C209.801 162.364 211.829 162.385 213.834 162.647C215.225 162.852 216.578 163.257 217.853 163.851C219.333 164.525 220.64 165.526 221.674 166.78C222.853 168.176 223.506 169.941 223.517 171.767C223.5 172.735 223.257 173.686 222.807 174.544C222.328 175.408 221.722 176.195 221.009 176.88C219.664 178.179 218.191 179.338 216.612 180.339C215.865 180.842 215.073 181.275 214.247 181.633C213.819 181.803 213.359 181.88 212.898 181.858C212.659 181.846 212.425 181.784 212.211 181.676C211.997 181.568 211.808 181.415 211.658 181.229C211.381 180.86 211.244 180.404 211.271 179.944C211.281 179.524 211.356 179.109 211.496 178.713C211.755 177.978 212.109 177.281 212.548 176.637C213.34 175.477 214.401 174.524 215.641 173.861L215.695 174.175L209.563 173.007L207.899 172.666C207.702 172.638 207.509 172.586 207.324 172.513C207.523 172.513 207.721 172.531 207.917 172.567L209.59 172.827L215.749 173.843L216.225 173.924L215.803 174.157C214.627 174.813 213.623 175.736 212.871 176.853C212.456 177.471 212.126 178.142 211.891 178.848C211.738 179.182 211.668 179.549 211.687 179.917C211.706 180.284 211.813 180.642 211.999 180.959C212.277 181.216 212.63 181.379 213.006 181.424C213.382 181.47 213.763 181.395 214.094 181.211C214.888 180.865 215.647 180.444 216.36 179.953C217.911 178.968 219.358 177.827 220.676 176.547C221.363 175.943 221.924 175.208 222.327 174.387C222.73 173.565 222.966 172.672 223.023 171.758C223.015 170.037 222.407 168.372 221.305 167.05C220.314 165.839 219.063 164.866 217.646 164.201C216.411 163.608 215.097 163.197 213.744 162.979C211.767 162.69 209.765 162.618 207.773 162.764L206.137 162.863C205.961 162.888 205.783 162.891 205.606 162.872V162.872Z" fill="#EB996E"/>
<path d="M229.245 164.238C229.335 164.554 229.387 164.88 229.398 165.208C229.486 166.104 229.522 167.004 229.506 167.904C229.512 170.884 228.74 173.813 227.267 176.404C225.468 179.414 222.654 181.355 220.325 181.66C219.862 181.724 219.389 181.675 218.948 181.519C218.507 181.363 218.11 181.103 217.79 180.762C217.623 180.573 217.495 180.353 217.412 180.115C217.375 180.036 217.36 179.95 217.367 179.863C217.522 180.142 217.709 180.401 217.925 180.636C218.242 180.92 218.62 181.127 219.03 181.242C219.44 181.357 219.871 181.377 220.289 181.301C222.429 180.951 225.145 179.037 226.862 176.143C228.291 173.612 229.083 170.773 229.173 167.868C229.29 165.631 229.164 164.238 229.245 164.238Z" fill="#EB996E"/>
<path d="M216.522 189.9C216.468 189.837 216.936 189.432 217.493 188.624C218.209 187.584 218.654 186.383 218.788 185.128C218.902 183.869 218.695 182.602 218.185 181.444C217.799 180.546 217.421 180.061 217.484 180.016C217.921 180.352 218.265 180.794 218.482 181.301C219.116 182.486 219.385 183.833 219.255 185.171C219.126 186.509 218.603 187.779 217.754 188.821C217.439 189.277 217.015 189.647 216.522 189.9V189.9Z" fill="#EB996E"/>
<path d="M207.782 172.882C208.106 173.484 208.208 174.18 208.07 174.85C208.013 175.587 207.798 176.304 207.441 176.952C207.033 177.744 206.519 178.475 205.912 179.127C204.769 180.268 203.391 181.147 201.875 181.705C201.278 181.995 200.647 182.206 199.996 182.334C200.542 181.971 201.127 181.669 201.74 181.436C203.164 180.806 204.462 179.923 205.57 178.83C206.152 178.206 206.653 177.511 207.063 176.764C207.414 176.17 207.646 175.514 207.746 174.832C207.826 174.185 207.838 173.531 207.782 172.882V172.882Z" fill="#EB996E"/>
<path d="M246.014 175.523L220.721 189.298C220.721 189.298 234.253 192.65 246.544 205.633C253.226 212.706 258.456 221.018 261.937 230.101L287.113 213.352C287.113 213.352 273.563 182.676 246.014 175.523Z" fill="#455A64"/>
<path d="M225.181 188.785L245.6 177.104H245.663H245.726C249.337 178.076 252.808 179.504 256.057 181.355C259.749 183.489 263.193 186.027 266.325 188.92C269.799 192.103 272.982 195.588 275.838 199.334C278.936 203.329 281.682 207.582 284.047 212.049L284.146 212.237L283.967 212.354L282.645 213.253L263.205 226.237L262.972 226.389L262.873 226.138C260.124 219.341 256.346 213.007 251.669 207.358C247.954 202.931 243.656 199.026 238.893 195.749C235.785 193.595 232.472 191.753 229.002 190.25C227.779 189.729 226.826 189.352 226.17 189.145L225.432 188.893L225.181 188.803L225.441 188.857L226.197 189.073C226.862 189.28 227.824 189.612 229.056 190.106C232.577 191.556 235.939 193.362 239.09 195.498C243.902 198.757 248.243 202.66 251.993 207.098C256.722 212.765 260.543 219.13 263.322 225.967L262.99 225.868L282.42 212.866L283.742 211.968L283.661 212.264C281.31 207.826 278.585 203.597 275.515 199.622C272.68 195.894 269.521 192.424 266.074 189.253C262.959 186.371 259.537 183.84 255.868 181.705C252.655 179.853 249.22 178.416 245.645 177.428H245.771L225.181 188.785Z" fill="white"/>
<path d="M266.586 197.089C265.921 200.979 260.993 203.334 255.572 202.345C250.15 201.357 246.275 197.403 246.94 193.513C247.605 189.622 252.533 187.268 257.954 188.256C263.376 189.245 267.224 193.198 266.586 197.089Z" fill="#FAFAFA"/>
<path d="M254.798 198.337L253.899 199.308L252.892 198.328L253.737 197.43C253.014 196.671 252.489 195.745 252.209 194.734L253.908 193.997C254.135 194.937 254.617 195.795 255.302 196.477C255.994 197.151 256.444 197.205 256.705 196.918C257.604 195.947 253.603 193.404 255.653 191.14C256.552 190.187 257.918 190.017 259.429 191.14L260.328 190.188L261.335 191.167L260.481 192.065C261.048 192.691 261.472 193.433 261.722 194.24L260.049 195.022C259.825 194.249 259.414 193.542 258.854 192.964C258.152 192.29 257.676 192.29 257.406 192.587C256.561 193.485 260.526 196.064 258.494 198.31C257.658 199.236 256.291 199.415 254.798 198.337Z" fill="#455A64"/>
<path d="M230.953 185.542C230.953 185.542 235.242 187.716 231.124 190.933L224.83 188.489L230.953 185.542Z" fill="#FAFAFA"/>
<path d="M242.471 179.072C242.471 179.072 246.607 183.439 250.563 178.892L245.69 177.266L242.471 179.072Z" fill="#FAFAFA"/>
<path d="M260.517 220.298C260.517 220.298 266.083 215.805 269.328 221.879L263.115 226.03L260.517 220.298Z" fill="#FAFAFA"/>
<path d="M281.053 207.206C281.053 207.206 277.034 209.721 279.759 214.906L283.877 212.156L281.053 207.206Z" fill="#FAFAFA"/>
<path d="M266.155 221.78C266.144 222.112 266.036 222.433 265.843 222.704C265.651 222.975 265.383 223.183 265.072 223.302C264.762 223.422 264.424 223.447 264.099 223.375C263.775 223.303 263.479 223.137 263.248 222.898C263.017 222.659 262.862 222.357 262.802 222.031C262.742 221.704 262.78 221.367 262.911 221.061C263.042 220.756 263.26 220.496 263.537 220.314C263.815 220.131 264.141 220.035 264.473 220.037C264.698 220.04 264.921 220.088 265.127 220.178C265.334 220.267 265.52 220.397 265.677 220.559C265.833 220.721 265.956 220.912 266.038 221.122C266.12 221.331 266.159 221.555 266.155 221.78Z" fill="#455A64"/>
<path d="M283.022 211.061C283.01 211.39 282.901 211.708 282.709 211.976C282.517 212.244 282.25 212.45 281.942 212.567C281.634 212.685 281.298 212.709 280.976 212.638C280.654 212.566 280.36 212.401 280.132 212.164C279.903 211.926 279.749 211.627 279.689 211.303C279.629 210.979 279.666 210.644 279.794 210.341C279.923 210.038 280.139 209.779 280.414 209.597C280.689 209.415 281.011 209.318 281.341 209.317C281.566 209.321 281.788 209.369 281.995 209.458C282.201 209.548 282.388 209.678 282.544 209.84C282.701 210.002 282.823 210.193 282.905 210.402C282.987 210.612 283.027 210.836 283.022 211.061V211.061Z" fill="#455A64"/>
<path d="M248.28 178.902C248.28 179.522 247.38 180.025 246.346 180.025C245.312 180.025 244.422 179.522 244.422 178.902C244.422 178.282 245.321 177.779 246.355 177.779C247.389 177.779 248.28 178.273 248.28 178.902Z" fill="#455A64"/>
<path d="M231.843 188.22C231.931 188.607 231.896 189.011 231.744 189.377C231.591 189.743 231.329 190.053 230.992 190.264C230.656 190.475 230.263 190.576 229.867 190.553C229.47 190.53 229.091 190.385 228.781 190.138C228.471 189.891 228.245 189.553 228.135 189.172C228.025 188.791 228.036 188.385 228.167 188.011C228.298 187.636 228.542 187.312 228.866 187.082C229.189 186.852 229.576 186.729 229.973 186.728C230.418 186.685 230.862 186.817 231.211 187.095C231.56 187.374 231.787 187.777 231.843 188.22V188.22Z" fill="#455A64"/>
<path d="M247.344 187.258C247.344 188.21 246.158 188.983 244.692 188.983C243.226 188.983 242.049 188.237 242.049 187.258C242.049 186.278 243.235 185.533 244.701 185.533C246.167 185.533 247.344 186.359 247.344 187.258Z" fill="#FAFAFA"/>
<path d="M268.645 210.369C267.449 210.917 265.948 210.162 265.354 208.689C265.025 208.063 264.948 207.335 265.141 206.654C265.333 205.973 265.78 205.393 266.388 205.032C267.584 204.484 269.086 205.238 269.679 206.721C270.008 207.345 270.084 208.073 269.892 208.752C269.7 209.431 269.253 210.01 268.645 210.369V210.369Z" fill="#FAFAFA"/>
<path d="M231.331 179.899L241.716 190.852C241.716 190.852 245.87 195.605 248.666 193.359C251.462 191.113 247.533 186.925 246.706 185.703C245.879 184.481 235.701 172.145 235.701 172.145L231.331 179.899Z" fill="#FFBE9D"/>
<path d="M236.654 170.052C236.613 170.7 236.477 171.339 236.249 171.947C235.821 173.448 235.217 174.892 234.451 176.251C233.668 177.619 232.669 178.851 231.493 179.899C231.03 180.359 230.488 180.73 229.892 180.996C230.324 180.522 230.783 180.075 231.268 179.657C232.342 178.58 233.275 177.373 234.046 176.063C235.835 172.882 236.528 169.998 236.654 170.052Z" fill="#EB996E"/>
<path d="M140.068 212.804C139.922 212.978 139.76 213.138 139.583 213.28L138.135 214.574L132.74 219.255C128.163 223.182 121.806 228.582 114.757 234.467C107.708 240.353 101.153 245.663 96.3878 249.329C94.0141 251.198 92.0629 252.663 90.6962 253.669L89.1138 254.792C88.9379 254.934 88.7481 255.057 88.5473 255.161C88.7076 255.002 88.8789 254.855 89.0598 254.721L90.5884 253.516C91.9191 252.474 93.8343 250.974 96.181 249.078C100.884 245.295 107.321 239.993 114.407 234.108C121.492 228.223 127.84 222.894 132.515 219.004L138.009 214.43L139.52 213.208C139.69 213.057 139.873 212.922 140.068 212.804V212.804Z" fill="#EB996E"/>
<defs>
<linearGradient id="paint0_linear" x1="78.7377" y1="122.732" x2="78.7377" y2="363.819" gradientUnits="userSpaceOnUse">
<stop stop-color="#2944CC"/>
<stop offset="1" stop-color="#3355FF"/>
</linearGradient>
<linearGradient id="paint1_linear" x1="272.852" y1="208.639" x2="272.852" y2="357.3" gradientUnits="userSpaceOnUse">
<stop stop-color="#E62E2E"/>
<stop offset="1" stop-color="#FF3333"/>
</linearGradient>
<linearGradient id="paint2_linear" x1="274.341" y1="211.123" x2="274.341" y2="235.258" gradientUnits="userSpaceOnUse">
<stop stop-color="#E62E2E"/>
<stop offset="1" stop-color="#FF3333"/>
</linearGradient>
<linearGradient id="paint3_linear" x1="223.609" y1="290.252" x2="223.609" y2="336.354" gradientUnits="userSpaceOnUse">
<stop stop-color="#E62E2E"/>
<stop offset="1" stop-color="#FF3333"/>
</linearGradient>
<linearGradient id="paint4_linear" x1="223.282" y1="313.951" x2="223.282" y2="324.462" gradientUnits="userSpaceOnUse">
<stop stop-color="#E62E2E"/>
<stop offset="1" stop-color="#FF3333"/>
</linearGradient>
<linearGradient id="paint5_linear" x1="210.101" y1="308.865" x2="210.101" y2="319.011" gradientUnits="userSpaceOnUse">
<stop stop-color="#E62E2E"/>
<stop offset="1" stop-color="#FF3333"/>
</linearGradient>
</defs>
</svg>
