<svg width="400" height="364" viewBox="0 0 400 364" fill="none" xmlns="http://www.w3.org/2000/svg">
<g clip-path="url(#clip0)">
<path opacity="0.05" d="M200.554 364C310.705 364 400 357.982 400 350.56C400 343.137 310.705 337.12 200.554 337.12C90.403 337.12 1.10803 343.137 1.10803 350.56C1.10803 357.982 90.403 364 200.554 364Z" fill="#000D33"/>
<path d="M347.592 350.348H214.107C212.248 350.368 210.404 349.996 208.694 349.254C206.985 348.513 205.446 347.418 204.176 346.041C202.906 344.663 201.934 343.033 201.32 341.253C200.706 339.474 200.464 337.584 200.61 335.705L219.239 49.4732C219.551 45.5296 221.3 41.8451 224.146 39.1379C226.992 36.4307 230.731 34.8949 234.633 34.8298H368.106C369.965 34.8111 371.807 35.1848 373.516 35.9271C375.224 36.6694 376.762 37.764 378.03 39.1414C379.298 40.5187 380.27 42.1486 380.883 43.9274C381.497 45.7061 381.738 47.5948 381.592 49.4732L362.986 335.705C362.674 339.648 360.925 343.333 358.079 346.04C355.233 348.747 351.494 350.283 347.592 350.348Z" fill="#263238"/>
<path d="M375.695 111.801H359.535C359.086 111.805 358.642 111.715 358.229 111.536C357.817 111.357 357.445 111.093 357.139 110.761C356.833 110.428 356.598 110.035 356.45 109.606C356.301 109.176 356.243 108.721 356.278 108.267L357.889 83.4752C357.979 82.5325 358.409 81.6566 359.097 81.0153C359.784 80.374 360.681 80.0124 361.615 79.9996H377.763C378.207 79.9957 378.646 80.0842 379.055 80.2597C379.463 80.4352 379.831 80.694 380.137 81.02C380.442 81.3459 380.678 81.7321 380.83 82.1544C380.982 82.5768 381.047 83.0264 381.02 83.4752L379.409 108.267C379.335 109.219 378.914 110.109 378.227 110.763C377.54 111.416 376.637 111.786 375.695 111.801V111.801Z" fill="#263238"/>
<path d="M269.57 30.7749H263.661V31.9334H269.57V30.7749Z" fill="url(#paint0_linear)"/>
<path d="M256.381 30.7749H234.896V31.9334H256.381V30.7749Z" fill="url(#paint1_linear)"/>
<path d="M345.558 350.348H212.073C210.214 350.366 208.371 349.993 206.662 349.251C204.953 348.508 203.415 347.414 202.146 346.037C200.877 344.66 199.904 343.03 199.289 341.251C198.675 339.472 198.432 337.583 198.576 335.704L217.25 49.4732C217.562 45.5296 219.312 41.845 222.158 39.1378C225.004 36.4306 228.742 34.8948 232.644 34.8297H366.129C367.981 34.8223 369.815 35.2043 371.514 35.9516C373.213 36.6989 374.74 37.7952 376 39.1713C377.26 40.5475 378.224 42.1734 378.833 43.9466C379.441 45.7198 379.68 47.6016 379.535 49.4732L360.952 335.704C360.64 339.648 358.891 343.333 356.045 346.04C353.199 348.747 349.46 350.283 345.558 350.348Z" fill="url(#paint2_linear)"/>
<path d="M351.615 317.006H210.393C209.337 317.017 208.29 316.806 207.318 316.384C206.347 315.963 205.473 315.342 204.752 314.559C204.03 313.777 203.478 312.851 203.129 311.84C202.78 310.829 202.642 309.756 202.725 308.688L218.942 59.4943C219.117 57.2598 220.105 55.1712 221.715 53.634C223.324 52.0969 225.439 51.2209 227.65 51.1762H368.906C369.963 51.1649 371.01 51.3766 371.981 51.7979C372.952 52.2192 373.826 52.8408 374.548 53.6233C375.269 54.4057 375.822 55.3317 376.171 56.3425C376.52 57.3533 376.657 58.4266 376.575 59.4943L360.358 308.688C360.182 310.928 359.189 313.022 357.572 314.56C355.956 316.098 353.832 316.97 351.615 317.006V317.006Z" fill="white"/>
<path d="M325.272 51.1763H297.227L229.284 317.006H257.33L325.272 51.1763Z" fill="#FAFAFA"/>
<path d="M349.981 51.1763H335.958L268.016 317.006H282.038L349.981 51.1763Z" fill="#FAFAFA"/>
<path d="M331.352 234.636L300.861 117.732C300.045 114.624 298.048 111.97 295.306 110.353C292.564 108.735 289.301 108.285 286.233 109.101L214.096 128.425L204.473 281.185L322.838 249.477C325.903 248.645 328.519 246.617 330.114 243.837C331.71 241.056 332.155 237.749 331.352 234.636V234.636Z" fill="#F0F0F0"/>
<path d="M286.109 336.798C289.774 333.203 290.056 327.471 286.738 323.994C283.421 320.518 277.76 320.614 274.094 324.208C270.429 327.802 270.147 333.535 273.465 337.011C276.782 340.488 282.443 340.392 286.109 336.798Z" fill="url(#paint3_linear)"/>
<path opacity="0.2" d="M302.541 42.5335C302.461 43.5429 302.013 44.4858 301.284 45.1779C300.555 45.87 299.597 46.2613 298.598 46.2754C298.125 46.2769 297.657 46.1789 297.223 45.9878C296.788 45.7968 296.398 45.5167 296.076 45.1652C295.754 44.8137 295.507 44.3984 295.351 43.9455C295.195 43.4925 295.133 43.0118 295.17 42.5335C295.247 41.5231 295.694 40.5786 296.424 39.886C297.154 39.1935 298.113 38.803 299.113 38.7915C299.586 38.7901 300.054 38.888 300.488 39.0791C300.922 39.2702 301.313 39.5503 301.635 39.9018C301.957 40.2533 302.204 40.6686 302.36 41.1215C302.516 41.5744 302.577 42.0552 302.541 42.5335V42.5335Z" fill="white"/>
<path opacity="0.2" d="M300.873 42.5336C300.833 43.089 300.588 43.609 300.188 43.9908C299.789 44.3726 299.262 44.5885 298.712 44.5957C298.45 44.5999 298.19 44.5483 297.949 44.4443C297.708 44.3403 297.491 44.1861 297.312 43.9918C297.133 43.7975 296.997 43.5673 296.911 43.3161C296.826 43.0649 296.793 42.7983 296.815 42.5336C296.855 41.9781 297.099 41.4581 297.499 41.0763C297.899 40.6945 298.426 40.4787 298.975 40.4714C299.237 40.4672 299.498 40.5188 299.739 40.6228C299.98 40.7268 300.197 40.881 300.376 41.0753C300.555 41.2697 300.691 41.4999 300.777 41.751C300.862 42.0022 300.895 42.2688 300.873 42.5336V42.5336Z" fill="white"/>
<path d="M86.1883 28.076C90.4511 17.4525 88.9197 4.51201 76.8283 1.61576C74.1639 0.919939 71.3757 0.866628 68.6873 1.4601C65.9989 2.05357 63.4851 3.27731 61.3474 5.03321C59.2096 6.78911 57.5075 9.02832 56.3774 11.5713C55.2474 14.1143 54.7208 16.8903 54.8399 19.6768C55.3199 31.2618 62.8399 40.9122 49.6628 49.3113C36.4858 57.7104 37.8915 83.0237 63.377 78.1349C88.8625 73.246 75.0912 59.9579 75.0912 59.9579C75.0912 59.9579 68.8398 65.1249 66.8284 59.8653C64.2798 53.0533 81.2512 40.5067 86.1883 28.076Z" fill="#263238"/>
<path d="M41.3428 62.924L40.7828 62.7965C42.4857 55.0693 45.16 53.0767 47.9828 50.9682C50.8056 48.8598 53.4799 46.8556 55.6399 39.2558C56.657 35.676 56.017 31.7139 55.3885 27.8909C54.5885 23.0136 53.7656 17.9625 56.2456 13.4443L56.737 13.734C54.3599 18.0668 55.1713 23.002 55.9485 27.7982C56.5885 31.6908 57.2513 35.7108 56.1885 39.3832C53.9828 47.1684 51.1028 49.3116 48.3257 51.3969C45.5485 53.4822 43 55.4169 41.3428 62.924Z" fill="#263238"/>
<path d="M118.645 86.4297C118.725 86.8236 118.862 87.4144 118.988 87.9473L119.388 89.5808C119.662 90.6814 119.971 91.782 120.291 92.8826C120.942 95.0721 121.639 97.2849 122.394 99.4628C123.902 103.846 125.626 108.149 127.559 112.357L128.999 115.404C129.243 115.949 129.588 116.44 130.017 116.852C131.301 117.899 132.834 118.586 134.462 118.845C138.735 119.545 143.092 119.545 147.365 118.845L148.908 123.768C147.725 124.297 146.516 124.761 145.285 125.158C144.062 125.571 142.818 125.919 141.559 126.201C138.938 126.813 136.247 127.066 133.559 126.954C130.397 126.864 127.321 125.881 124.679 124.116C123.193 123.07 121.939 121.721 120.999 120.154L120.817 119.864L120.702 119.667L120.474 119.25L120.005 118.439L119.079 116.794C116.688 112.375 114.588 107.801 112.794 103.101C111.925 100.784 111.068 98.3623 110.371 95.9178C110.028 94.7593 109.685 93.4734 109.377 92.2222C109.068 90.971 108.794 89.7894 108.542 88.3065L118.645 86.4297Z" fill="#FFC3BD"/>
<path d="M109.822 70.2338C121.354 75.4471 121.251 92.9636 121.251 92.9636L109.102 100.366C109.102 100.366 99.9596 86.6498 100.645 80.4171C101.32 73.9179 103.285 67.3028 109.822 70.2338Z" fill="url(#paint4_linear)"/>
<path opacity="0.2" d="M111.64 85.1789C108.485 81.9467 105.708 85.6771 103.171 89.8129C104.911 93.47 106.893 97.0037 109.102 100.39L114.085 97.3548C115.068 93.4969 114.782 88.4227 111.64 85.1789Z" fill="black"/>
<path d="M146.165 119.285L154.279 115.184L154.371 125.946C154.371 125.946 148.314 127.012 144.279 122.702L146.165 119.285Z" fill="#FFC3BD"/>
<path d="M162.999 117.095L161.605 125.089L154.371 125.946L154.279 115.184L162.999 117.095Z" fill="#FFC3BD"/>
<path d="M71.8912 341.799L81.9254 342.772L86.5997 319.104L76.5655 318.13L71.8912 341.799Z" fill="#FFC3BD"/>
<path d="M6.09743 314.052L14.2574 320.077L27.8687 300.498L19.6973 294.474L6.09743 314.052Z" fill="#FFC3BD"/>
<path d="M17.2516 316.311L10.5317 306.985C10.4199 306.82 10.2519 306.703 10.0599 306.656C9.86787 306.608 9.66547 306.635 9.49167 306.73L1.43459 311.063C1.23545 311.18 1.06296 311.339 0.928436 311.528C0.793916 311.717 0.700395 311.934 0.653998 312.162C0.607601 312.391 0.609381 312.627 0.659212 312.855C0.709044 313.082 0.805809 313.297 0.943163 313.484C3.34315 316.693 4.65742 318.118 7.6174 322.231C9.44595 324.757 13.1031 330.607 15.6173 334.094C18.1316 337.581 21.663 335.253 20.9316 333.573C17.6173 326.031 17.503 321.617 17.7545 318.084C17.8024 317.451 17.6239 316.821 17.2516 316.311Z" fill="#263238"/>
<path d="M83.2512 339.702H71.2055C70.9889 339.702 70.7785 339.775 70.6069 339.909C70.4354 340.043 70.3124 340.231 70.257 340.443L67.6398 350.07C67.5756 350.298 67.5648 350.538 67.6085 350.771C67.6521 351.003 67.7489 351.223 67.891 351.411C68.0332 351.599 68.2169 351.75 68.4273 351.854C68.6377 351.957 68.869 352.009 69.1027 352.005C73.3541 352.005 75.3655 352.005 80.6569 352.005H96.8511C101.251 352.005 102.165 347.498 100.348 347.081C92.1883 345.251 87.4797 342.725 84.954 340.316C84.4834 339.9 83.8749 339.681 83.2512 339.702Z" fill="#263238"/>
<path opacity="0.2" d="M86.5997 319.115L84.1883 331.314H73.9598L76.5655 318.142L86.5997 319.115Z" fill="black"/>
<path opacity="0.2" d="M19.6973 294.474L27.8687 300.509L20.8516 310.6L12.6802 304.564L19.6973 294.474Z" fill="black"/>
<path d="M114.577 79.467C113.868 87.2869 111.308 102.637 103.822 132.631L62.7485 129.028C64.7256 113.4 65.6513 103.274 61.7885 73.686C61.6629 72.708 61.737 71.7143 62.0063 70.7666C62.2755 69.8188 62.7341 68.9373 63.3536 68.1768C63.9731 67.4163 64.7402 66.793 65.6073 66.3457C66.4744 65.8984 67.423 65.6366 68.3941 65.5765C71.3541 65.4143 74.8741 65.3101 78.4055 65.4491C84.653 65.5439 90.8859 66.0898 97.0568 67.0826C100.68 67.7429 104.542 68.6929 107.685 69.527C109.808 70.0906 111.665 71.3983 112.926 73.218C114.188 75.0377 114.773 77.2517 114.577 79.467Z" fill="url(#paint5_linear)"/>
<path opacity="0.2" d="M62.8399 82.3518C63.3656 86.9858 63.7542 91.1217 63.9827 94.8289C67.7656 94.4929 70.5541 90.2876 70.8398 81.4945C69.4227 77.2428 66.0513 78.7836 62.8399 82.3518Z" fill="black"/>
<path d="M103.822 132.631C103.822 132.631 117.719 194.958 108.394 238.9C102.188 268.326 88.3711 327.769 88.3711 327.769L70.8512 327.317C70.8512 327.317 79.2169 264.932 82.7254 240.429C88.7254 198.468 73.6969 130.036 73.6969 130.036L103.822 132.631Z" fill="#263238"/>
<path opacity="0.2" d="M87.7997 145.224L79.034 159.23C81.6736 175.838 83.3488 192.587 84.0511 209.394C96.371 187.034 90.5311 157.052 87.7997 145.224Z" fill="black"/>
<path d="M90.8854 328.696L69.2399 328.14L70.497 321.397L92.5768 322.452L90.8854 328.696Z" fill="url(#paint6_linear)"/>
<path d="M94.8396 131.97C94.8396 131.97 86.6911 198.063 69.0113 234.15C54.7371 263.298 24.8744 309.627 24.8744 309.627L13.9602 300.764C13.9602 300.764 32.6344 249.524 43.24 230.165C69.2627 182.667 47.9943 146.463 62.7485 129.028L94.8396 131.97Z" fill="#263238"/>
<path d="M265.76 73.1531L71.503 155.889C65.4047 158.487 62.5381 165.604 65.1004 171.786L111.304 283.259C113.866 289.441 120.887 292.347 126.985 289.749L321.242 207.013C327.341 204.416 330.207 197.299 327.645 191.117L281.442 79.6434C278.88 73.4616 271.859 70.5557 265.76 73.1531Z" fill="url(#paint7_linear)"/>
<path opacity="0.1" d="M265.76 73.1531L71.503 155.889C65.4047 158.487 62.5381 165.604 65.1004 171.786L111.304 283.259C113.866 289.441 120.887 292.347 126.985 289.749L321.242 207.013C327.341 204.416 330.207 197.299 327.645 191.117L281.442 79.6434C278.88 73.4616 271.859 70.5557 265.76 73.1531Z" fill="black"/>
<path opacity="0.2" d="M125.087 150.927L87.0514 167.127C84.1186 168.376 82.74 171.799 83.9723 174.772L91.9894 194.114C93.2216 197.087 96.598 198.485 99.5308 197.236L137.567 181.036C140.5 179.787 141.878 176.364 140.646 173.391L132.629 154.048C131.397 151.075 128.02 149.678 125.087 150.927Z" fill="white"/>
<path opacity="0.4" d="M151.777 227.387L114.51 243.259C113.41 243.728 112.893 245.011 113.355 246.126L116.184 252.951C116.646 254.066 117.912 254.59 119.012 254.121L156.279 238.249C157.379 237.781 157.896 236.497 157.434 235.382L154.605 228.557C154.143 227.443 152.877 226.919 151.777 227.387Z" fill="white"/>
<path opacity="0.4" d="M200.263 206.742L162.996 222.614C161.896 223.083 161.379 224.366 161.841 225.481L164.67 232.306C165.132 233.421 166.398 233.945 167.498 233.476L204.765 217.604C205.865 217.136 206.382 215.852 205.92 214.737L203.091 207.912C202.629 206.798 201.363 206.274 200.263 206.742Z" fill="white"/>
<path opacity="0.4" d="M248.738 186.097L211.471 201.969C210.371 202.438 209.854 203.721 210.316 204.836L213.145 211.661C213.607 212.776 214.873 213.3 215.973 212.831L253.24 196.959C254.34 196.491 254.857 195.207 254.394 194.092L251.566 187.267C251.104 186.153 249.837 185.629 248.738 186.097Z" fill="white"/>
<path opacity="0.4" d="M297.224 165.452L259.957 181.324C258.857 181.793 258.34 183.076 258.802 184.191L261.631 191.016C262.093 192.131 263.359 192.655 264.459 192.186L301.726 176.314C302.826 175.846 303.343 174.562 302.881 173.447L300.052 166.622C299.59 165.508 298.324 164.983 297.224 165.452Z" fill="white"/>
<path opacity="0.6" d="M263.504 127.189C272.166 125.118 277.532 116.321 275.489 107.54C273.447 98.7597 264.769 93.3203 256.107 95.3911C247.445 97.4619 242.079 106.259 244.122 115.039C246.165 123.82 254.842 129.259 263.504 127.189Z" fill="#263238"/>
<path d="M253.17 129.367C258.508 122.149 257.064 111.91 249.943 106.499C242.823 101.087 232.722 102.552 227.384 109.77C222.045 116.988 223.49 127.226 230.611 132.638C237.731 138.05 247.831 136.585 253.17 129.367Z" fill="url(#paint8_linear)"/>
<path d="M26.0173 310.855L12.0174 300.116L15.4573 293.883L30.3372 305.584L26.0173 310.855Z" fill="url(#paint9_linear)"/>
<path d="M62.337 126.537L60.1656 130.105C59.9942 130.372 60.3142 130.708 60.7827 130.743L103.868 134.519C104.234 134.519 104.554 134.392 104.6 134.16L105.285 130.464C105.342 130.21 105.034 129.966 104.634 129.932L63.0342 126.282C62.9062 126.261 62.7751 126.274 62.6532 126.318C62.5312 126.363 62.4224 126.438 62.337 126.537V126.537Z" fill="url(#paint10_linear)"/>
<path opacity="0.5" d="M62.337 126.537L60.1656 130.105C59.9942 130.372 60.3142 130.708 60.7827 130.743L103.868 134.519C104.234 134.519 104.554 134.392 104.6 134.16L105.285 130.464C105.342 130.21 105.034 129.966 104.634 129.932L63.0342 126.282C62.9062 126.261 62.7751 126.274 62.6532 126.318C62.5312 126.363 62.4224 126.438 62.337 126.537V126.537Z" fill="black"/>
<path d="M67.537 131.739L66.3941 131.646C66.177 131.646 66.017 131.496 66.0398 131.357L66.977 126.561C66.977 126.41 67.2055 126.317 67.4341 126.34L68.577 126.433C68.8055 126.433 68.9655 126.584 68.9313 126.723L67.9941 131.519C67.9484 131.658 67.7427 131.762 67.537 131.739Z" fill="url(#paint11_linear)"/>
<path d="M100.68 134.647L99.5368 134.554C99.3196 134.554 99.1596 134.404 99.1825 134.265L100.12 129.468C100.161 129.385 100.228 129.319 100.311 129.279C100.394 129.239 100.487 129.228 100.577 129.248L101.72 129.341C101.948 129.341 102.108 129.492 102.074 129.631L101.137 134.427C101.125 134.589 100.92 134.67 100.68 134.647Z" fill="url(#paint12_linear)"/>
<path d="M84.1083 133.199L82.9655 133.094C82.7369 133.094 82.5769 132.944 82.6112 132.805L83.5483 128.009C83.5483 127.869 83.7769 127.765 83.994 127.788L85.1369 127.893C85.354 127.893 85.514 128.043 85.4912 128.182L84.554 132.978C84.5312 133.117 84.3369 133.21 84.1083 133.199Z" fill="url(#paint13_linear)"/>
<path d="M19.8116 321.467C19.683 321.489 19.5516 321.489 19.423 321.467C18.1773 321.212 17.1373 319.069 16.5888 317.817C16.5671 317.785 16.5556 317.747 16.5556 317.707C16.5556 317.668 16.5671 317.63 16.5888 317.597C16.6184 317.575 16.6545 317.562 16.6916 317.562C16.7287 317.562 16.7648 317.575 16.7945 317.597C17.183 317.736 20.5887 319.068 20.8516 320.331C20.8832 320.468 20.8763 320.611 20.8319 320.744C20.7875 320.877 20.7072 320.995 20.6002 321.084C20.3841 321.293 20.1079 321.427 19.8116 321.467V321.467ZM17.1488 318.084C17.9259 319.81 18.7945 320.91 19.503 321.05C19.663 321.074 19.8266 321.057 19.9784 321C20.1303 320.944 20.2655 320.849 20.3716 320.725C20.4287 320.682 20.4722 320.623 20.4965 320.555C20.5209 320.487 20.5251 320.413 20.5087 320.343C20.3487 319.567 18.3259 318.57 17.1488 318.084Z" fill="url(#paint14_linear)"/>
<path d="M19.9145 318.246C18.8281 318.383 17.7254 318.264 16.6916 317.899C16.6601 317.884 16.6328 317.862 16.6127 317.833C16.5927 317.805 16.5804 317.771 16.5773 317.736C16.5729 317.701 16.578 317.665 16.5921 317.633C16.6062 317.6 16.6287 317.572 16.6573 317.551C16.7602 317.482 19.1145 315.744 20.5316 316.068C20.7067 316.102 20.8722 316.175 21.0164 316.281C21.1606 316.387 21.2799 316.524 21.3659 316.682C21.479 316.827 21.5405 317.007 21.5405 317.192C21.5405 317.377 21.479 317.556 21.3659 317.702C20.9593 318.049 20.446 318.241 19.9145 318.246ZM17.2516 317.632C18.3945 317.968 20.5316 317.991 21.0573 317.4C21.1487 317.308 21.2287 317.157 21.0573 316.856C21.0009 316.748 20.9213 316.655 20.8243 316.583C20.7274 316.51 20.6156 316.461 20.4973 316.439C19.5373 316.242 17.8916 317.203 17.2516 317.632Z" fill="url(#paint15_linear)"/>
<path d="M88.5997 341.671C87.4916 341.643 86.3891 341.503 85.3083 341.254C85.2716 341.238 85.2403 341.211 85.2184 341.177C85.1965 341.143 85.1848 341.104 85.1848 341.063C85.1848 341.022 85.1965 340.983 85.2184 340.949C85.2403 340.915 85.2716 340.888 85.3083 340.872C85.8111 340.629 90.1768 338.555 91.2739 339.343C91.3757 339.408 91.4568 339.502 91.5075 339.613C91.5581 339.724 91.5762 339.847 91.5597 339.968C91.557 340.195 91.5019 340.418 91.3986 340.619C91.2954 340.82 91.147 340.994 90.9654 341.127C90.2543 341.56 89.4253 341.75 88.5997 341.671V341.671ZM85.994 340.976C87.2968 341.219 89.6968 341.544 90.6797 340.791C90.8071 340.689 90.9117 340.561 90.9866 340.415C91.0615 340.269 91.1049 340.109 91.1139 339.945C91.1139 339.783 91.1139 339.713 91.0111 339.679C90.3939 339.25 87.8111 340.165 85.994 340.976Z" fill="url(#paint16_linear)"/>
<path d="M85.354 341.254C85.3136 341.27 85.2686 341.27 85.2283 341.254C85.1986 341.232 85.1762 341.201 85.164 341.166C85.1518 341.131 85.1503 341.093 85.1597 341.057C85.1597 340.86 86.1883 336.492 88.5882 336.771C89.1825 336.852 89.3425 337.141 89.3768 337.385C89.5254 338.543 86.7711 340.744 85.4454 341.289L85.354 341.254ZM88.3483 337.118C86.8283 337.118 85.9483 339.667 85.6511 340.686C87.0797 339.922 89.0797 338.103 88.954 337.396C88.954 337.338 88.954 337.176 88.5083 337.13L88.3483 337.118Z" fill="url(#paint17_linear)"/>
<path d="M67.297 82.5604L66.6912 83.4293L66.0284 84.414C65.5827 85.086 65.137 85.7695 64.7141 86.4762C63.8456 87.8664 63.057 89.3145 62.257 90.7626C60.6773 93.6755 59.2877 96.6902 58.097 99.7874C56.8966 102.866 55.8927 106.02 55.0913 109.229L54.5542 111.546C54.5542 111.477 54.4856 111.72 54.6113 112.16C55.0047 113.398 55.5786 114.57 56.3142 115.636C58.1603 118.326 60.2328 120.85 62.5084 123.178C64.7941 125.634 67.3312 128.008 69.8569 130.372C72.3826 132.735 75.0341 135.006 77.6855 137.242C80.3369 139.478 83.0454 141.737 85.6854 143.915L82.8283 148.19C76.7066 144.509 70.7961 140.479 65.1255 136.118C62.2684 133.94 59.4684 131.646 56.7599 129.167C53.9197 126.644 51.3285 123.846 49.0228 120.814C47.6408 119.034 46.5595 117.033 45.8228 114.894C45.3226 113.405 45.1548 111.823 45.3314 110.26V109.936V109.762L45.3885 109.415L45.5028 108.708L45.7428 107.306C46.4152 103.575 47.3627 99.8997 48.5771 96.3119C49.8331 92.7418 51.3181 89.2588 53.0228 85.8853C53.8799 84.1939 54.817 82.5604 55.8228 80.9501C56.3142 80.1391 56.8285 79.3398 57.3656 78.5404L58.2113 77.3819C58.5084 76.9764 58.7599 76.6173 59.1599 76.1191L67.297 82.5604Z" fill="#FFC3BD"/>
<path d="M66.2798 66.2372C58.4399 68.3225 50.8742 87.5884 50.8742 87.5884L61.0228 96.9955C61.0228 96.9955 76.9655 82.2593 76.4284 75.6095C75.9826 69.956 72.5769 64.5458 66.2798 66.2372Z" fill="url(#paint18_linear)"/>
<path opacity="0.2" d="M78.4055 65.0786C76.9694 65.3759 75.5053 65.5119 74.0398 65.4841C73.7312 71.2071 77.3541 76.7332 86.2569 84.1476C88.394 77.3935 93.114 75.9338 93.114 75.9338L78.4055 65.0786Z" fill="black"/>
<path opacity="0.2" d="M97.0568 66.8975C97.0568 66.8975 98.0968 67.0481 100.577 67.6273C102.234 70.2108 104.382 78.1697 99.5025 83.8464C97.6053 76.8953 93.0797 76.0149 93.0797 76.0149L97.0568 66.8975Z" fill="black"/>
<path d="M78.4055 65.0786C78.4055 65.0786 76.1198 65.0786 73.3313 65.0786C71.6741 67.6621 77.3769 74.8216 86.2683 82.236C88.4054 75.482 93.1254 75.8875 93.1254 75.8875L78.4055 65.0786Z" fill="white"/>
<path d="M97.0568 66.8975C97.0568 66.8975 98.0968 67.0481 100.577 67.6273C102.234 70.2108 105.811 77.2081 100.931 82.8384C99.0339 75.8874 93.0797 75.9801 93.0797 75.9801L97.0568 66.8975Z" fill="white"/>
<path d="M82.074 44.2837C82.7369 50.4701 82.954 61.6612 78.4055 65.4148C78.4055 65.4148 80.7712 72.3658 93.0796 75.9804C100.485 71.6475 97.0567 67.0483 97.0567 67.0483C90.5082 64.8471 91.1139 59.8308 92.6796 55.1968L82.074 44.2837Z" fill="#FFC3BD"/>
<path opacity="0.2" d="M86.394 48.7441L92.6796 55.197C92.2946 56.2695 92.004 57.3744 91.8111 58.4988C89.2854 57.9079 85.6283 55.2433 85.594 52.5093C85.6405 51.2164 85.9113 49.9418 86.394 48.7441V48.7441Z" fill="black"/>
<path d="M95.9711 19.5611C97.9711 17.3252 101.937 20.1751 103.4 25.6548C105.594 33.7643 99.7425 34.3435 96.6796 30.2888C93.6168 26.234 94.3025 21.4263 95.9711 19.5611Z" fill="#263238"/>
<path d="M102.165 33.7989C104.172 34.5028 106.069 35.4936 107.8 36.7415C106.805 34.2854 105.914 32.791 102.165 33.7989Z" fill="#263238"/>
<path d="M103.32 34.1811C104.944 33.8533 106.606 33.7596 108.257 33.9031C106.634 32.6403 105.457 32.0148 103.32 34.1811Z" fill="#263238"/>
<path d="M76.6798 34.6217C79.2283 44.5037 80.1083 48.7438 86.074 52.8797C95.0682 59.1124 106.485 53.7833 106.908 43.322C107.285 33.915 103.057 19.341 92.6225 17.2789C90.3231 16.8057 87.9424 16.9384 85.7081 17.6644C83.4738 18.3904 81.4606 19.6854 79.861 21.4254C78.2615 23.1654 77.1291 25.2924 76.5721 27.6028C76.0151 29.9132 76.0522 32.3299 76.6798 34.6217V34.6217Z" fill="#FFC3BD"/>
<path d="M81.3883 21.5881L78.5655 24.913C77.7185 25.8954 76.5238 26.4998 75.2402 26.5952C73.9566 26.6906 72.6876 26.2694 71.7084 25.4228C70.7376 24.5658 70.1393 23.3555 70.043 22.0543C69.9467 20.7531 70.3603 19.4659 71.1941 18.4717L74.0169 15.1584C74.8639 14.177 76.0575 13.5724 77.3402 13.4749C78.6229 13.3773 79.8921 13.7948 80.874 14.6371V14.6371C81.8422 15.4957 82.4386 16.7056 82.5348 18.0059C82.631 19.3062 82.2193 20.5927 81.3883 21.5881V21.5881Z" fill="white"/>
<path d="M83.994 25.2952L80.5655 27.0329C79.1583 27.7316 77.5355 27.8375 76.0516 27.3274C74.5677 26.8173 73.3432 25.7327 72.6455 24.3105C71.9558 22.8823 71.8511 21.2356 72.3542 19.7295C72.8573 18.2234 73.9274 16.98 75.3312 16.2705L78.7598 14.5327C80.17 13.8344 81.7955 13.7299 83.2815 14.2421C84.7675 14.7544 85.9932 15.8417 86.6911 17.2668V17.2668C87.3795 18.6946 87.4823 20.3407 86.9769 21.8452C86.4715 23.3496 85.399 24.59 83.994 25.2952V25.2952Z" fill="url(#paint19_linear)"/>
<path d="M79.6055 42.0129C79.6055 42.0129 86.6454 40.3795 83.6512 29.9413C83.5394 29.5397 83.5199 29.1174 83.594 28.7068C83.6682 28.2963 83.834 27.9084 84.079 27.5729C84.3239 27.2374 84.6413 26.9632 85.0069 26.7713C85.3726 26.5794 85.7767 26.4749 86.1883 26.4658C94.1197 26.2457 101.537 24.5659 100.485 19.9087C99.171 14.0235 79.4112 9.48219 75.8226 21.2642C68.817 22.9208 68.5541 36.9155 79.6055 42.0129Z" fill="#263238"/>
<path d="M79.6397 39.9507C81.6465 40.6546 83.5437 41.6455 85.274 42.8934C84.2797 40.4605 83.3883 38.966 79.6397 39.9507Z" fill="#263238"/>
<path d="M80.794 40.3563C82.4186 40.0285 84.0807 39.9348 85.7311 40.0783C84.1197 38.8387 82.9426 38.2016 80.794 40.3563Z" fill="#263238"/>
<path d="M75.0798 42.3834C75.9925 44.1287 77.5498 45.4365 79.4112 46.0211C81.8912 46.7741 83.1711 44.5498 82.5312 42.1517C81.9483 39.9969 79.9597 37.0196 77.4569 37.3092C76.9124 37.3855 76.3953 37.598 75.952 37.9273C75.5086 38.2567 75.1531 38.6926 74.9173 39.1959C74.6815 39.6992 74.5729 40.254 74.6013 40.8105C74.6297 41.3669 74.7941 41.9074 75.0798 42.3834Z" fill="#FFC3BD"/>
<path d="M93.2054 34.2854C93.3654 35.0963 93.9254 35.6756 94.4396 35.5713C94.9539 35.467 95.2625 34.714 95.1139 33.9031C94.9653 33.0921 94.3939 32.5129 93.8682 32.6171C93.3425 32.7214 93.0454 33.4628 93.2054 34.2854Z" fill="#263238"/>
<path d="M102.291 32.4667C102.451 33.2892 103 33.8569 103.525 33.7526C104.051 33.6483 104.348 32.9069 104.188 32.0959C104.028 31.285 103.48 30.7057 102.954 30.81C102.428 30.9143 102.131 31.6557 102.291 32.4667Z" fill="#263238"/>
<path d="M102.737 30.9026L104.554 29.9526C104.554 29.9526 103.857 31.6788 102.737 30.9026Z" fill="#263238"/>
<path d="M99.1711 34.5059C100.247 36.2234 101.55 37.7827 103.045 39.1398C102.697 39.5271 102.268 39.8316 101.79 40.0319C101.312 40.2321 100.796 40.3231 100.28 40.2983L99.1711 34.5059Z" fill="#ED847E"/>
<path d="M96.5653 44.1328C94.8743 44.1548 93.2389 43.5207 91.994 42.3603C91.957 42.3214 91.9363 42.2695 91.9363 42.2155C91.9363 42.1615 91.957 42.1096 91.994 42.0707C92.0323 42.0332 92.0835 42.0122 92.1368 42.0122C92.1901 42.0122 92.2413 42.0332 92.2797 42.0707C93.0489 42.7581 93.9673 43.2518 94.9603 43.5115C95.9532 43.7712 96.9926 43.7895 97.9939 43.5651C98.0454 43.5559 98.0985 43.5678 98.1413 43.5982C98.1842 43.6287 98.2134 43.6751 98.2225 43.7273C98.2316 43.7796 98.2198 43.8333 98.1898 43.8768C98.1598 43.9202 98.114 43.9498 98.0625 43.959C97.571 44.0711 97.0691 44.1293 96.5653 44.1328V44.1328Z" fill="#263238"/>
<path d="M87.754 31.1229C87.6819 31.1199 87.6115 31.1001 87.5483 31.065C87.4574 31.0096 87.3919 30.92 87.3662 30.8157C87.3404 30.7114 87.3566 30.6011 87.4111 30.5089C87.7891 29.8579 88.3151 29.308 88.9453 28.9049C89.5755 28.5019 90.2916 28.2574 91.034 28.1919C91.1392 28.1917 91.2405 28.2325 91.3171 28.3057C91.3936 28.379 91.4395 28.4792 91.4454 28.5858C91.4469 28.639 91.438 28.6921 91.4193 28.7419C91.4006 28.7916 91.3724 28.8372 91.3364 28.8759C91.3003 28.9147 91.257 28.9458 91.209 28.9676C91.1611 28.9894 91.1093 29.0013 91.0568 29.0028C90.4437 29.0712 89.8555 29.2865 89.3408 29.631C88.8261 29.9755 88.3997 30.4392 88.0968 30.9839C88.0549 31.0333 88.0019 31.0717 87.9422 31.0959C87.8825 31.1201 87.8179 31.1294 87.754 31.1229Z" fill="#263238"/>
<path d="M104.817 27.856C104.753 27.8732 104.686 27.8732 104.622 27.856C104.089 27.5374 103.49 27.3504 102.873 27.3101C102.255 27.2699 101.637 27.3775 101.068 27.6243C100.967 27.6765 100.849 27.6857 100.741 27.6499C100.632 27.614 100.543 27.5361 100.491 27.4331C100.44 27.3302 100.43 27.2107 100.466 27.101C100.501 26.9913 100.578 26.9003 100.68 26.8481C101.364 26.5337 102.113 26.3917 102.863 26.4341C103.613 26.4764 104.342 26.7019 104.988 27.0914C105.034 27.1167 105.074 27.151 105.106 27.1923C105.138 27.2336 105.162 27.281 105.176 27.3318C105.19 27.3825 105.193 27.4356 105.187 27.4879C105.18 27.5401 105.163 27.5904 105.137 27.6358C105.108 27.6984 105.063 27.7519 105.007 27.7906C104.95 27.8294 104.885 27.852 104.817 27.856Z" fill="#263238"/>
<path d="M81.9483 142.188L91.0911 142.837L86.9654 152.742C86.9654 152.742 79.3312 150.298 79.0226 144.633L81.9483 142.188Z" fill="#FFC3BD"/>
<path d="M94.5996 148.445L90.1768 155.21L86.9769 152.743L91.1254 142.837L94.5996 148.445Z" fill="#FFC3BD"/>
<path d="M93.6511 32.7102L95.4682 31.7603C95.4682 31.7603 94.7711 33.4864 93.6511 32.7102Z" fill="#263238"/>
</g>
<defs>
<linearGradient id="paint0_linear" x1="263.661" y1="30.7752" x2="263.661" y2="31.9336" gradientUnits="userSpaceOnUse">
<stop stop-color="#2944CC"/>
<stop offset="1" stop-color="#3355FF"/>
</linearGradient>
<linearGradient id="paint1_linear" x1="234.896" y1="30.7752" x2="234.896" y2="31.9336" gradientUnits="userSpaceOnUse">
<stop stop-color="#2944CC"/>
<stop offset="1" stop-color="#3355FF"/>
</linearGradient>
<linearGradient id="paint2_linear" x1="198.536" y1="34.8976" x2="198.536" y2="350.416" gradientUnits="userSpaceOnUse">
<stop stop-color="#2944CC"/>
<stop offset="1" stop-color="#3355FF"/>
</linearGradient>
<linearGradient id="paint3_linear" x1="274.094" y1="324.208" x2="286.278" y2="336.632" gradientUnits="userSpaceOnUse">
<stop stop-color="#E62E2E"/>
<stop offset="1" stop-color="#FF3333"/>
</linearGradient>
<linearGradient id="paint4_linear" x1="100.609" y1="69.5257" x2="100.609" y2="100.373" gradientUnits="userSpaceOnUse">
<stop stop-color="#2944CC"/>
<stop offset="1" stop-color="#3355FF"/>
</linearGradient>
<linearGradient id="paint5_linear" x1="61.7291" y1="65.3988" x2="61.7291" y2="132.645" gradientUnits="userSpaceOnUse">
<stop stop-color="#2944CC"/>
<stop offset="1" stop-color="#3355FF"/>
</linearGradient>
<linearGradient id="paint6_linear" x1="80.9083" y1="321.397" x2="80.9083" y2="328.696" gradientUnits="userSpaceOnUse">
<stop stop-color="#E62E2E"/>
<stop offset="1" stop-color="#FF3333"/>
</linearGradient>
<linearGradient id="paint7_linear" x1="60.4729" y1="160.621" x2="117.25" y2="293.929" gradientUnits="userSpaceOnUse">
<stop stop-color="#2944CC"/>
<stop offset="1" stop-color="#3355FF"/>
</linearGradient>
<linearGradient id="paint8_linear" x1="227.384" y1="109.77" x2="253.421" y2="129.027" gradientUnits="userSpaceOnUse">
<stop stop-color="#E62E2E"/>
<stop offset="1" stop-color="#FF3333"/>
</linearGradient>
<linearGradient id="paint9_linear" x1="21.1773" y1="293.883" x2="21.1773" y2="310.855" gradientUnits="userSpaceOnUse">
<stop stop-color="#E62E2E"/>
<stop offset="1" stop-color="#FF3333"/>
</linearGradient>
<linearGradient id="paint10_linear" x1="60.1188" y1="126.274" x2="60.1188" y2="134.521" gradientUnits="userSpaceOnUse">
<stop stop-color="#2944CC"/>
<stop offset="1" stop-color="#3355FF"/>
</linearGradient>
<linearGradient id="paint11_linear" x1="66.0376" y1="126.338" x2="66.0376" y2="131.743" gradientUnits="userSpaceOnUse">
<stop stop-color="#2944CC"/>
<stop offset="1" stop-color="#3355FF"/>
</linearGradient>
<linearGradient id="paint12_linear" x1="99.1803" y1="129.239" x2="99.1803" y2="134.652" gradientUnits="userSpaceOnUse">
<stop stop-color="#2944CC"/>
<stop offset="1" stop-color="#3355FF"/>
</linearGradient>
<linearGradient id="paint13_linear" x1="82.6066" y1="127.786" x2="82.6066" y2="133.201" gradientUnits="userSpaceOnUse">
<stop stop-color="#2944CC"/>
<stop offset="1" stop-color="#3355FF"/>
</linearGradient>
<linearGradient id="paint14_linear" x1="18.7134" y1="317.562" x2="18.7134" y2="321.483" gradientUnits="userSpaceOnUse">
<stop stop-color="#E62E2E"/>
<stop offset="1" stop-color="#FF3333"/>
</linearGradient>
<linearGradient id="paint15_linear" x1="19.0581" y1="316.028" x2="19.0581" y2="318.301" gradientUnits="userSpaceOnUse">
<stop stop-color="#E62E2E"/>
<stop offset="1" stop-color="#FF3333"/>
</linearGradient>
<linearGradient id="paint16_linear" x1="88.3752" y1="339.165" x2="88.3752" y2="341.689" gradientUnits="userSpaceOnUse">
<stop stop-color="#E62E2E"/>
<stop offset="1" stop-color="#FF3333"/>
</linearGradient>
<linearGradient id="paint17_linear" x1="87.2681" y1="336.758" x2="87.2681" y2="341.289" gradientUnits="userSpaceOnUse">
<stop stop-color="#E62E2E"/>
<stop offset="1" stop-color="#FF3333"/>
</linearGradient>
<linearGradient id="paint18_linear" x1="50.8742" y1="65.9291" x2="50.8743" y2="97.0021" gradientUnits="userSpaceOnUse">
<stop stop-color="#2944CC"/>
<stop offset="1" stop-color="#3355FF"/>
</linearGradient>
<linearGradient id="paint19_linear" x1="79.6669" y1="13.9214" x2="79.6669" y2="27.6459" gradientUnits="userSpaceOnUse">
<stop stop-color="#E62E2E"/>
<stop offset="1" stop-color="#FF3333"/>
</linearGradient>
<clipPath id="clip0">
<rect width="400" height="364" fill="white"/>
</clipPath>
</defs>
</svg>
