<svg width="30" height="30" viewBox="0 0 30 30" fill="none" xmlns="http://www.w3.org/2000/svg">
<g clip-path="url(#clip0)">
<path d="M28.9436 17.3663C29.8386 9.83254 28.5136 5.07628 26.1236 2.92503L26.1249 2.92378C22.2674 -0.74997 9.23985 -1.29372 4.62486 3.08878C2.55236 5.23254 1.82236 8.37879 1.74236 12.2738C1.66236 16.17 1.56736 23.4688 8.36861 25.4488H8.37485L8.36861 28.4726C8.36861 28.4726 8.32235 29.6976 9.10485 29.9438C9.99986 30.2338 10.4049 29.6651 13.1886 26.3401C17.8436 26.7438 21.4186 25.8188 21.8249 25.6838C22.7649 25.3688 28.0836 24.6651 28.9436 17.3663ZM13.6474 24.2126C13.6474 24.2126 10.7011 27.8863 9.78485 28.8401C9.48485 29.1501 9.1561 29.1213 9.1611 28.5063C9.1611 28.1026 9.18361 23.4863 9.18361 23.4863C3.41736 21.8338 3.75735 15.6188 3.81986 12.3675C3.88236 9.11504 4.47736 6.45129 6.23236 4.65753C10.2811 0.861282 21.7024 1.71003 24.6124 4.44503C28.1699 7.59879 26.9036 16.5088 26.9111 16.8125C26.1799 22.9051 21.8699 23.2913 21.0774 23.5551C20.7386 23.6676 17.5949 24.4763 13.6474 24.2126Z" fill="#8E24AA"/>
<path d="M15.277 5.37128C14.7957 5.37128 14.7957 6.12128 15.277 6.12753C19.0107 6.15628 22.0857 8.75878 22.1195 13.5325C22.1195 14.0363 22.857 14.03 22.8507 13.5263H22.8495C22.8095 8.38253 19.452 5.40003 15.277 5.37128Z" fill="#8E24AA"/>
<path d="M20.1882 12.7413C20.177 13.2388 20.9132 13.2625 20.9195 12.7588C20.9807 9.92254 19.232 7.5863 15.9457 7.34005C15.4644 7.30505 15.4144 8.0613 15.8944 8.0963C18.7445 8.31255 20.2457 10.2575 20.1882 12.7413Z" fill="#8E24AA"/>
<path d="M19.4017 15.9675C18.7842 15.61 18.1555 15.8325 17.8955 16.1838L17.3517 16.8875C17.0755 17.245 16.5592 17.1975 16.5592 17.1975C12.7918 16.2013 11.7843 12.2588 11.7843 12.2588C11.7843 12.2588 11.738 11.725 12.083 11.4388L12.763 10.8763C13.103 10.6063 13.318 9.95626 12.9718 9.31751C12.0468 7.64626 11.4255 7.07001 11.1093 6.62751C10.7768 6.21126 10.2768 6.11751 9.75676 6.39876H9.74551C8.66426 7.03126 7.48051 8.21501 7.85926 9.43376C8.50551 10.7188 9.69301 14.815 13.478 17.91C15.2567 19.3738 18.0717 20.8738 19.2667 21.22L19.278 21.2375C20.4555 21.63 21.6005 20.4 22.2117 19.2863V19.2775C22.483 18.7388 22.393 18.2288 21.9967 17.895C21.2942 17.21 20.2342 16.4538 19.4017 15.9675Z" fill="#8E24AA"/>
<path d="M16.4607 10.13C17.662 10.2 18.2445 10.8275 18.307 12.1163C18.3295 12.6201 19.0607 12.5851 19.0382 12.0813C18.9582 10.3988 18.0807 9.46129 16.5007 9.37379C16.0194 9.34503 15.9744 10.1013 16.4607 10.13Z" fill="#8E24AA"/>
</g>
<defs>
<clipPath id="clip0">
<rect width="30" height="30" fill="white"/>
</clipPath>
</defs>
</svg>
