<svg width="30" height="30" viewBox="0 0 30 30" fill="none" xmlns="http://www.w3.org/2000/svg">
<g clip-path="url(#clip0)">
<path d="M0.69693 30C0.528473 30 0.364594 29.9334 0.243058 29.8105C0.0828402 29.6484 0.0210422 29.4131 0.0812381 29.1932L2.03154 22.0713C0.817322 19.8756 0.17714 17.3918 0.178055 14.8705C0.181488 6.67076 6.85431 0 15.0533 0C19.0301 0.00160218 22.7669 1.55067 25.5755 4.36134C28.3836 7.17224 29.9295 10.9087 29.9283 14.8824C29.9247 23.0823 23.2519 29.7535 15.0533 29.7535C15.0533 29.7535 15.0471 29.7535 15.0469 29.7535C12.6521 29.7526 10.2779 29.1689 8.16397 28.0634L0.85875 29.9792C0.805191 29.9931 0.750717 30 0.69693 30Z" fill="#E5E5E5"/>
<path d="M0.697266 29.3617L2.71692 21.9864C1.47112 19.8278 0.815826 17.3792 0.816742 14.8707C0.819946 7.02303 7.20621 0.638367 15.0536 0.638367C18.8618 0.639969 22.4362 2.12221 25.1242 4.81248C27.812 7.50276 29.2917 11.0788 29.2903 14.8821C29.2869 22.7296 22.8997 29.1152 15.0536 29.1152C15.0532 29.1152 15.0539 29.1152 15.0536 29.1152H15.0475C12.6648 29.1142 10.3238 28.5166 8.24442 27.3825L0.697266 29.3617ZM8.59392 24.806L9.02628 25.0621C10.8427 26.1402 12.9253 26.7103 15.0491 26.7114H15.0536C21.5754 26.7114 26.8836 21.4041 26.8864 14.8812C26.8875 11.7201 25.658 8.74765 23.4239 6.5117C21.1895 4.27576 18.2189 3.04369 15.058 3.04231C8.53098 3.04231 3.22298 8.34894 3.22046 14.8716C3.21954 17.1069 3.84485 19.2835 5.02954 21.1672L5.31107 21.6149L4.11539 25.9802L8.59392 24.806Z" fill="white"/>
<path d="M1.19141 28.8648L3.14125 21.7445C1.93825 19.6608 1.30585 17.2966 1.30653 14.8753C1.30951 7.2993 7.4749 1.13574 15.0502 1.13574C18.727 1.13734 22.1778 2.56831 24.7722 5.16544C27.3672 7.76256 28.7955 11.2148 28.7941 14.886C28.7909 22.4623 22.6253 28.6265 15.0509 28.6265C15.0502 28.6265 15.0511 28.6265 15.0509 28.6265H15.0447C12.7447 28.6256 10.4845 28.0484 8.47717 26.9543L1.19141 28.8648Z" fill="#64B161"/>
<path d="M0.697266 29.3617L2.71692 21.9864C1.47112 19.8278 0.815826 17.3792 0.816742 14.8707C0.819946 7.02303 7.20621 0.638367 15.0536 0.638367C18.8618 0.639969 22.4362 2.12221 25.1242 4.81248C27.812 7.50276 29.2917 11.0788 29.2903 14.8821C29.2869 22.7296 22.8997 29.1152 15.0536 29.1152C15.0532 29.1152 15.0539 29.1152 15.0536 29.1152H15.0475C12.6648 29.1142 10.3238 28.5166 8.24442 27.3825L0.697266 29.3617ZM8.59392 24.806L9.02628 25.0621C10.8427 26.1402 12.9253 26.7103 15.0491 26.7114H15.0536C21.5754 26.7114 26.8836 21.4041 26.8864 14.8812C26.8875 11.7201 25.658 8.74765 23.4239 6.5117C21.1895 4.27576 18.2189 3.04369 15.058 3.04231C8.53098 3.04231 3.22298 8.34894 3.22046 14.8716C3.21954 17.1069 3.84485 19.2835 5.02954 21.1672L5.31107 21.6149L4.11539 25.9802L8.59392 24.806Z" fill="white"/>
<path fill-rule="evenodd" clip-rule="evenodd" d="M11.4964 8.92063C11.23 8.32828 10.9494 8.31638 10.6958 8.30608C10.4884 8.29715 10.251 8.29761 10.0141 8.29761C9.77702 8.29761 9.39158 8.38688 9.06566 8.74279C8.7395 9.0987 7.82031 9.95929 7.82031 11.7096C7.82031 13.46 9.09518 15.1512 9.27302 15.3888C9.45087 15.6262 11.734 19.3327 15.3496 20.7586C18.3546 21.9438 18.9659 21.708 19.6182 21.6487C20.2706 21.5895 21.7228 20.7882 22.0192 19.9575C22.3158 19.1269 22.3158 18.4151 22.2268 18.2661C22.1378 18.118 21.9007 18.029 21.545 17.8511C21.1893 17.6733 19.4404 16.8125 19.1142 16.6939C18.7881 16.5751 18.551 16.5161 18.3138 16.8722C18.0765 17.2279 17.3953 18.029 17.1878 18.2661C16.9802 18.5039 16.7726 18.5337 16.4169 18.3556C16.0612 18.1773 14.9154 17.8019 13.5563 16.59C12.4989 15.6472 11.7848 14.4827 11.5772 14.1265C11.3698 13.7709 11.5737 13.5951 11.7335 13.4008C12.0212 13.0508 12.5039 12.4216 12.6225 12.1845C12.741 11.9469 12.6818 11.7393 12.593 11.5612C12.5039 11.3834 11.8125 9.62421 11.4964 8.92063Z" fill="white"/>
</g>
<defs>
<clipPath id="clip0">
<rect width="30" height="30" fill="white"/>
</clipPath>
</defs>
</svg>
